<svg width="211pt" height="61pt" viewBox="0 0 211 61" xmlns="http://www.w3.org/2000/svg"><path d="M26.51 0h4.79c6.55 2.2 7.63 9.87 10.57 15.2-7.92-2.66-16.38-3.19-24.65-2.35C19.62 8.17 20.99 2 26.51 0zM13.95 20.03c5.42-1.68 11.63-2.64 16.95-.13 5.98 2.75 7.7 10.65 5.42 16.4-2.77 7-9.02 11.73-14.86 16.09-4.28 2.96-8.5 6.11-13.2 8.38-4.23-.7-7.09-4.65-7.53-8.72-.19-2.84 1.12-5.45 2.25-7.96 3.67-8.01 7.36-16.02 10.97-24.06zm38.5 17.87c1.69 4.36 4.41 8.42 5.03 13.13.04 4.19-2.9 9.16-7.54 9.18-9.41.02-18.83.03-28.24.3C32.73 54.23 44.86 48.5 52.45 37.9z" fill="#2b7bb8"/><path opacity=".9" d="M64.12 37.01C69.45 25.52 74.91 14.1 80.19 2.59c5.36 11.46 10.69 22.93 16.07 34.37-2.47.01-4.93.02-7.4.04-1.11-2.58-2.24-5.14-3.36-7.72-3.46-.04-6.93-.03-10.39-.04-1.19 2.57-2.36 5.16-3.51 7.75-2.49.01-4.98.02-7.48.02m13.62-13.82c1.71.04 3.41.07 5.12.1-.85-1.98-1.72-3.96-2.57-5.94-.85 1.95-1.7 3.89-2.55 5.84zm34.79-19.66h6.15c.05 11.16.07 22.32.1 33.49-4.58-.56-9.07.73-13.61.69-9.19-1.58-10.44-15.1-4.27-20.69 3.29-2.86 7.99-2.33 11.66-.57-.09-4.3-.04-8.61-.03-12.92m-6.21 17.87c-3.83 2.16-3.37 10.3 1.69 10.42 3.73.16 5.14-4.34 4.36-7.36-.29-2.79-3.66-4.39-6.05-3.06zM176 8.24l6.5.03c-.01 2.48 0 4.97 0 7.45l3.52.06c-.02 1.91-.02 3.82-.02 5.72-1.17.01-2.33.01-3.49.02.01 5.16.01 10.32.02 15.48H176c0-5.16 0-10.32-.01-15.48h-3.25v-5.77c.82 0 2.44-.01 3.26-.01v-7.5zm-49.32 8.38c3.05-2.36 7.1-1.62 10.52-.65 2.25-.13 4.5-.21 6.74-.29.02 7.1.01 14.2.04 21.3-3.67-.2-7.32.02-10.94.66-4.15.78-8.48-1.82-9.75-5.85-1.63-5.07-1.31-11.8 3.39-15.17m4.69 4.78c-3.08 2.1-3.15 7.24-.59 9.78 3.08 2.05 7.06-.59 6.97-4.12.89-3.62-2.73-7.73-6.38-5.66zm16.14-5.7c4.85.83 9.63-.8 14.42-.42 7.96 2.23 9.29 13.46 4.75 19.4-3.07 3.77-8.6 3.72-12.68 1.77V46h-6.53c.01-10.1 0-20.2.04-30.3m8.84 5.58c-3 1.65-3.12 6.19-1.47 8.84 2.07 3.1 7.59 1.76 7.6-2.16 1.11-3.69-1.96-8.6-6.13-6.68z" fill="#005986"/><path d="M191.49 8.47c3.42-4.08 9.75-4.51 14.42-2.56 4.47 1.96 5.91 7.65 4.28 11.97-1.92 5.25-6.15 9.12-9.58 13.38 3.38.01 6.75 0 10.13 0v5.73c-7.69-.02-15.38-.03-23.07-.02 4.15-4.97 8.29-9.96 12.44-14.93 1.66-2.12 3.49-4.35 3.87-7.1.33-2.87-3.24-4.91-5.65-3.51-1.78.67-1.89 2.85-2.6 4.34-2.15-.02-4.29-.04-6.43-.08.31-2.49.47-5.23 2.19-7.22zM74.18 51.3c1.29-2.49 4.08-1.31 6.05-.55l-1.29 1.81c-.85-.18-2.54-.52-3.39-.7 1.92 2.09 5.99 3.43 4.52 6.97-1.74 2.16-4.42 1.29-6.51.28.27-.53.81-1.58 1.08-2.11 1.14.49 2.31.84 3.53 1.06-.58-2.74-5.79-3.47-3.99-6.76zm17.03-1.16c3.9-1.98 8.89 2.33 7.23 6.43-1.01 3.79-6.53 4.98-9.03 1.98-2.48-2.42-1.6-7.31 1.8-8.41m.98 2c-3.82 1.38-1.01 7.66 2.52 5.56 3.41-1.52.88-7.2-2.52-5.56zm14.08-2.13c.56.01 1.67.03 2.22.03-.01 2.58-.01 5.15-.02 7.73 1.16-.01 2.31-.02 3.47-.02l.08 2.21c-1.92 0-3.84 0-5.75.01.01-3.32.01-6.64 0-9.96zm13.23.04c.54-.02 1.63-.04 2.18-.06-.01 2.7.05 5.41.54 8.08 1.15-.28 3.22.31 3.36-1.42.32-2.18.17-4.4.19-6.6.55-.01 1.65-.04 2.2-.06-.12 2.83.37 5.77-.45 8.51-1.64 2.53-6.74 2.54-7.67-.64-.6-2.56-.27-5.21-.35-7.81zm15.58 1.63c1.74-2.76 6.18-2.14 8.49-.35-.84.23-2.53.67-3.37.89.04 2.57.05 5.14.05 7.72-.55.02-1.66.06-2.22.07.01-2.65 0-5.31.01-7.97l-2.96-.36zm15.42-1.61l2.22-.08V60c-.55-.01-1.66-.05-2.22-.06.02-3.29.02-6.58 0-9.87zm12.76.16c3.32-1.77 8.12.8 7.74 4.76.28 3.81-4.48 6.6-7.75 4.7-3.89-1.63-3.83-7.81.01-9.46m.96 2.11c-2.47 1.06-1.8 5.26.86 5.62 1.46.62 2.82-.82 3.53-1.93.86-2.48-2.06-5.26-4.39-3.69zm14.54-3.17c2 2 3.99 4 5.99 6.01 0-1.71 0-3.42.01-5.12.55-.02 1.65-.06 2.21-.07-.01 3.63 0 7.27-.01 10.9-1.98-2.22-4.01-4.39-6.01-6.59.01 1.9.01 3.81.02 5.71-.55-.02-1.66-.05-2.22-.07.01-3.59.01-7.18.01-10.77zm15.99 4.64c.37-1.52.45-3.49 2.23-4.06 1.49-.18 2.85.62 4.25 1-.32.45-.96 1.34-1.28 1.79-.71-.15-2.14-.47-2.85-.62 1.03 2.36 5.06 2.96 4.23 6.11-.98 3.06-4.61 2.27-6.77 1.08.29-.55.88-1.63 1.18-2.18 1.06.61 2.18.96 3.38 1.07-.45-2.16-2.91-2.83-4.37-4.19z" fill="#f5832c"/></svg>