<?xml version="1.0" encoding="UTF-8" ?>
<!DOCTYPE svg PUBLIC "-//W3C//DTD SVG 1.1//EN" "http://www.w3.org/Graphics/SVG/1.1/DTD/svg11.dtd">
<svg width="211pt" height="61pt" viewBox="0 0 211 61" version="1.1" xmlns="http://www.w3.org/2000/svg">
<g id="#2b7bb8ff">
<path fill="#2b7bb8" opacity="1.00" d=" M 26.51 0.00 L 31.30 0.00 C 37.85 2.20 38.93 9.87 41.87 15.20 C 33.95 12.54 25.49 12.01 17.22 12.85 C 19.62 8.17 20.99 2.00 26.51 0.00 Z" />
<path fill="#2b7bb8" opacity="1.00" d=" M 13.95 20.03 C 19.37 18.35 25.58 17.39 30.90 19.90 C 36.88 22.65 38.60 30.55 36.32 36.30 C 33.55 43.30 27.30 48.03 21.46 52.39 C 17.18 55.35 12.96 58.50 8.26 60.77 C 4.03 60.07 1.17 56.12 0.73 52.05 C 0.54 49.21 1.85 46.60 2.98 44.09 C 6.65 36.08 10.34 28.07 13.95 20.03 Z" />
<path fill="#2b7bb8" opacity="1.00" d=" M 52.45 37.90 C 54.14 42.26 56.86 46.32 57.48 51.03 C 57.52 55.22 54.58 60.19 49.94 60.21 C 40.53 60.23 31.11 60.24 21.70 60.51 C 32.73 54.23 44.86 48.50 52.45 37.90 Z" />
</g>
<g id="#005986e5">
<path fill="#005986" opacity="0.90" d=" M 64.12 37.01 C 69.45 25.52 74.91 14.10 80.19 2.59 C 85.55 14.05 90.88 25.52 96.26 36.96 C 93.79 36.97 91.33 36.98 88.86 37.00 C 87.75 34.42 86.62 31.86 85.50 29.28 C 82.04 29.24 78.57 29.25 75.11 29.24 C 73.92 31.81 72.75 34.40 71.60 36.99 C 69.11 37.00 66.62 37.01 64.12 37.01 M 77.74 23.19 C 79.45 23.23 81.15 23.26 82.86 23.29 C 82.01 21.31 81.14 19.33 80.29 17.35 C 79.44 19.30 78.59 21.24 77.74 23.19 Z" />
<path fill="#005986" opacity="0.90" d=" M 112.53 3.53 C 114.58 3.53 116.63 3.53 118.68 3.53 C 118.73 14.69 118.75 25.85 118.78 37.02 C 114.20 36.46 109.71 37.75 105.17 37.71 C 95.98 36.13 94.73 22.61 100.90 17.02 C 104.19 14.16 108.89 14.69 112.56 16.45 C 112.47 12.15 112.52 7.84 112.53 3.53 M 106.32 21.40 C 102.49 23.56 102.95 31.70 108.01 31.82 C 111.74 31.98 113.15 27.48 112.37 24.46 C 112.08 21.67 108.71 20.07 106.32 21.40 Z" />
<path fill="#005986" opacity="0.90" d=" M 176.00 8.24 C 178.16 8.25 180.33 8.26 182.50 8.27 C 182.49 10.75 182.50 13.24 182.50 15.72 C 183.67 15.74 184.84 15.76 186.02 15.78 C 186.00 17.69 186.00 19.60 186.00 21.50 C 184.83 21.51 183.67 21.51 182.51 21.52 C 182.52 26.68 182.52 31.84 182.53 37.00 C 180.35 37.00 178.17 37.00 176.00 37.00 C 176.00 31.84 176.00 26.68 175.99 21.52 C 175.18 21.52 173.55 21.52 172.74 21.52 C 172.74 19.59 172.74 17.67 172.74 15.75 C 173.56 15.75 175.18 15.74 176.00 15.74 C 176.00 13.24 176.00 10.74 176.00 8.24 Z" />
<path fill="#005986" opacity="0.90" d=" M 126.68 16.62 C 129.73 14.26 133.78 15.00 137.20 15.97 C 139.45 15.84 141.70 15.76 143.94 15.68 C 143.96 22.78 143.95 29.88 143.98 36.98 C 140.31 36.78 136.66 37.00 133.04 37.64 C 128.89 38.42 124.56 35.82 123.29 31.79 C 121.66 26.72 121.98 19.99 126.68 16.62 M 131.37 21.40 C 128.29 23.50 128.22 28.64 130.78 31.18 C 133.86 33.23 137.84 30.59 137.75 27.06 C 138.64 23.44 135.02 19.33 131.37 21.40 Z" />
<path fill="#005986" opacity="0.90" d=" M 147.51 15.70 C 152.36 16.53 157.14 14.90 161.93 15.28 C 169.89 17.51 171.22 28.74 166.68 34.68 C 163.61 38.45 158.08 38.40 154.00 36.45 C 154.00 39.63 154.00 42.82 154.00 46.00 C 151.82 46.00 149.65 46.00 147.47 46.00 C 147.48 35.90 147.47 25.80 147.51 15.70 M 156.35 21.28 C 153.35 22.93 153.23 27.47 154.88 30.12 C 156.95 33.22 162.47 31.88 162.48 27.96 C 163.59 24.27 160.52 19.36 156.35 21.28 Z" />
</g>
<g id="#f5832cff">
<path fill="#f5832c" opacity="1.00" d=" M 191.49 8.47 C 194.91 4.39 201.24 3.96 205.91 5.91 C 210.38 7.87 211.82 13.56 210.19 17.88 C 208.27 23.13 204.04 27.00 200.61 31.26 C 203.99 31.27 207.36 31.26 210.74 31.26 C 210.74 33.17 210.74 35.08 210.74 36.99 C 203.05 36.97 195.36 36.96 187.67 36.97 C 191.82 32.00 195.96 27.01 200.11 22.04 C 201.77 19.92 203.60 17.69 203.98 14.94 C 204.31 12.07 200.74 10.03 198.33 11.43 C 196.55 12.10 196.44 14.28 195.73 15.77 C 193.58 15.75 191.44 15.73 189.30 15.69 C 189.61 13.20 189.77 10.46 191.49 8.47 Z" />
<path fill="#f5832c" opacity="1.00" d=" M 74.18 51.30 C 75.47 48.81 78.26 49.99 80.23 50.75 C 79.91 51.20 79.26 52.11 78.94 52.56 C 78.09 52.38 76.40 52.04 75.55 51.86 C 77.47 53.95 81.54 55.29 80.07 58.83 C 78.33 60.99 75.65 60.12 73.56 59.11 C 73.83 58.58 74.37 57.53 74.64 57.00 C 75.78 57.49 76.95 57.84 78.17 58.06 C 77.59 55.32 72.38 54.59 74.18 51.30 Z" />
<path fill="#f5832c" opacity="1.00" d=" M 91.21 50.14 C 95.11 48.16 100.10 52.47 98.44 56.57 C 97.43 60.36 91.91 61.55 89.41 58.55 C 86.93 56.13 87.81 51.24 91.21 50.14 M 92.19 52.14 C 88.37 53.52 91.18 59.80 94.71 57.70 C 98.12 56.18 95.59 50.50 92.19 52.14 Z" />
<path fill="#f5832c" opacity="1.00" d=" M 106.27 50.01 C 106.83 50.02 107.94 50.04 108.49 50.04 C 108.48 52.62 108.48 55.19 108.47 57.77 C 109.63 57.76 110.78 57.75 111.94 57.75 C 111.96 58.30 112.00 59.41 112.02 59.96 C 110.10 59.96 108.18 59.96 106.27 59.97 C 106.28 56.65 106.28 53.33 106.27 50.01 Z" />
<path fill="#f5832c" opacity="1.00" d=" M 119.50 50.05 C 120.04 50.03 121.13 50.01 121.68 49.99 C 121.67 52.69 121.73 55.40 122.22 58.07 C 123.37 57.79 125.44 58.38 125.58 56.65 C 125.90 54.47 125.75 52.25 125.77 50.05 C 126.32 50.04 127.42 50.01 127.97 49.99 C 127.85 52.82 128.34 55.76 127.52 58.50 C 125.88 61.03 120.78 61.04 119.85 57.86 C 119.25 55.30 119.58 52.65 119.50 50.05 Z" />
<path fill="#f5832c" opacity="1.00" d=" M 135.08 51.68 C 136.82 48.92 141.26 49.54 143.57 51.33 C 142.73 51.56 141.04 52.00 140.20 52.22 C 140.24 54.79 140.25 57.36 140.25 59.94 C 139.70 59.96 138.59 60.00 138.03 60.01 C 138.04 57.36 138.03 54.70 138.04 52.04 C 137.30 51.95 135.82 51.77 135.08 51.68 Z" />
<path fill="#f5832c" opacity="1.00" d=" M 150.50 50.07 C 151.06 50.05 152.17 50.01 152.72 49.99 C 152.72 53.33 152.72 56.67 152.72 60.00 C 152.17 59.99 151.06 59.95 150.50 59.94 C 150.52 56.65 150.52 53.36 150.50 50.07 Z" />
<path fill="#f5832c" opacity="1.00" d=" M 163.26 50.23 C 166.58 48.46 171.38 51.03 171.00 54.99 C 171.28 58.80 166.52 61.59 163.25 59.69 C 159.36 58.06 159.42 51.88 163.26 50.23 M 164.22 52.34 C 161.75 53.40 162.42 57.60 165.08 57.96 C 166.54 58.58 167.90 57.14 168.61 56.03 C 169.47 53.55 166.55 50.77 164.22 52.34 Z" />
<path fill="#f5832c" opacity="1.00" d=" M 178.76 49.17 C 180.76 51.17 182.75 53.17 184.75 55.18 C 184.75 53.47 184.75 51.76 184.76 50.06 C 185.31 50.04 186.41 50.00 186.97 49.99 C 186.96 53.62 186.97 57.26 186.96 60.89 C 184.98 58.67 182.95 56.50 180.95 54.30 C 180.96 56.20 180.96 58.11 180.97 60.01 C 180.42 59.99 179.31 59.96 178.75 59.94 C 178.76 56.35 178.76 52.76 178.76 49.17 Z" />
<path fill="#f5832c" opacity="1.00" d=" M 194.75 53.81 C 195.12 52.29 195.20 50.32 196.98 49.75 C 198.47 49.57 199.83 50.37 201.23 50.75 C 200.91 51.20 200.27 52.09 199.95 52.54 C 199.24 52.39 197.81 52.07 197.10 51.92 C 198.13 54.28 202.16 54.88 201.33 58.03 C 200.35 61.09 196.72 60.30 194.56 59.11 C 194.85 58.56 195.44 57.48 195.74 56.93 C 196.80 57.54 197.92 57.89 199.12 58.00 C 198.67 55.84 196.21 55.17 194.75 53.81 Z" />
</g>
</svg>
