<?xml version="1.0" encoding="utf-8"?>
<!-- Generator: Adobe Illustrator 19.0.0, SVG Export Plug-In . SVG Version: 6.00 Build 0)  -->
<svg version="1.1" id="Layer_1" xmlns="http://www.w3.org/2000/svg" xmlns:xlink="http://www.w3.org/1999/xlink" x="0px" y="0px"
	 viewBox="0 0 400 54" style="enable-background:new 0 0 400 54;" xml:space="preserve">
<style type="text/css">
	.st0{fill:#324C86;}
</style>
<g id="XMLID_2_">
	<path id="XMLID_3_" class="st0" d="M22,53.4H0V3.1h19.6c3.4,0,6.3,0.4,8.8,1.2c2.5,0.8,4.3,1.9,5.6,3.3c2.3,2.6,3.4,5.5,3.4,8.8
		c0,3.9-1.3,6.9-3.8,8.8c-0.9,0.7-1.5,1.1-1.8,1.3c-0.3,0.2-0.9,0.4-1.8,0.8c3.1,0.7,5.6,2.1,7.5,4.2c1.8,2.1,2.8,4.8,2.8,8
		c0,3.5-1.2,6.6-3.6,9.3C33.8,51.9,28.9,53.4,22,53.4z M11.2,23.5h5.3c3.1,0,5.4-0.3,6.9-1c1.5-0.7,2.3-2.1,2.3-4.4
		s-0.7-3.7-2.1-4.4c-1.4-0.7-3.7-1.1-7.1-1.1h-5.4V23.5z M11.2,43.9h7.7c3.2,0,5.6-0.4,7.2-1.2c1.6-0.8,2.4-2.4,2.4-4.7
		c0-2.3-0.9-3.9-2.6-4.6c-1.7-0.7-4.4-1.1-8.2-1.1h-6.6V43.9z"/>
	<path id="XMLID_7_" class="st0" d="M59.3,53.4H48.5V0h10.8V53.4z"/>
	<path id="XMLID_9_" class="st0" d="M94.5,35.6V14.7h10.9v38.7H94.5v-5.1c-2.7,3.8-6.2,5.7-10.4,5.7s-7.8-1.3-10.7-4
		s-4.3-6.6-4.3-11.8V14.7H80v21.1c0,6,2.2,8.9,6.6,8.9c2.2,0,4-0.8,5.6-2.3C93.7,40.8,94.5,38.5,94.5,35.6z"/>
	<path id="XMLID_11_" class="st0" d="M149.2,47.8c-4.4,4.1-9.5,6.2-15.4,6.2c-5.9,0-10.7-1.8-14.6-5.4c-3.8-3.6-5.8-8.5-5.8-14.6
		c0-6.1,2-10.9,5.9-14.5c3.9-3.6,8.5-5.4,13.9-5.4c5.3,0,9.9,1.6,13.6,4.8c3.7,3.2,5.6,7.6,5.6,13.2v5.8h-28.2
		c0.3,2.1,1.4,3.8,3.3,5.2c1.9,1.3,4,2,6.3,2c3.8,0,6.9-1.3,9.4-3.8L149.2,47.8z M138.8,24.8c-1.5-1.2-3.3-1.9-5.4-1.9
		c-2.1,0-4.1,0.6-5.9,1.9c-1.8,1.3-2.8,3-3.1,5.3h17C141.2,27.9,140.3,26.1,138.8,24.8z"/>
	<path id="XMLID_14_" class="st0" d="M184.3,43.5c5.5,0,10-2.2,13.5-6.6l7.2,7.4c-5.7,6.4-12.4,9.6-20.2,9.6
		c-7.8,0-14.1-2.4-19.2-7.3c-5-4.9-7.5-11.1-7.5-18.5c0-7.5,2.6-13.7,7.7-18.7c5.1-5,11.4-7.5,18.8-7.5c8.3,0,15.2,3.1,20.7,9.4
		l-7,7.9c-3.6-4.4-8-6.6-13.2-6.6c-4.2,0-7.8,1.4-10.8,4.1c-3,2.8-4.5,6.5-4.5,11.2c0,4.7,1.4,8.4,4.2,11.3
		C176.9,42.1,180.3,43.5,184.3,43.5z"/>
	<path id="XMLID_16_" class="st0" d="M223.6,32.5v20.9h-10.8V0h10.8v19c3.3-3.3,6.9-5,11-5c4.1,0,7.5,1.4,10.3,4.3
		c2.8,2.9,4.2,6.7,4.2,11.5v23.5h-10.8V32.3c0-6-2.2-8.9-6.6-8.9c-2.2,0-4,0.8-5.7,2.3C224.4,27.2,223.6,29.5,223.6,32.5z"/>
	<path id="XMLID_18_" class="st0" d="M291.7,53.4h-10.2v-4.7c-2.8,3.5-6.2,5.3-10.3,5.3s-7.5-1.2-10.3-3.6c-2.8-2.4-4.2-5.5-4.2-9.5
		s1.4-6.9,4.3-8.9c2.9-2,6.8-3,11.8-3h8.1v-0.2c0-4.1-2.2-6.2-6.6-6.2c-1.9,0-3.9,0.4-5.9,1.1c-2.1,0.7-3.9,1.7-5.3,2.8l-4.8-7
		c5.1-3.7,10.9-5.5,17.4-5.5c4.7,0,8.5,1.2,11.5,3.5c3,2.4,4.5,6.1,4.5,11.2V53.4z M280.9,38.7v-1.9h-6.8c-4.3,0-6.5,1.3-6.5,4
		c0,1.4,0.5,2.5,1.5,3.2c1,0.7,2.5,1.1,4.4,1.1c1.9,0,3.6-0.6,5.1-1.8C280.1,42.2,280.9,40.6,280.9,38.7z"/>
	<path id="XMLID_21_" class="st0" d="M330.8,41.4c0,3.8-1.4,6.9-4.2,9.2c-2.8,2.3-6.4,3.5-10.7,3.5c-2.9,0-5.9-0.5-9-1.5
		c-3.1-1-5.9-2.6-8.4-4.6l4.8-6.8c4,3.1,8.3,4.7,12.9,4.7c1.4,0,2.5-0.3,3.3-0.8c0.8-0.6,1.2-1.3,1.2-2.2c0-0.9-0.6-1.8-1.7-2.5
		c-1.1-0.8-2.8-1.5-4.9-2.2c-2.1-0.7-3.8-1.2-4.9-1.7c-1.1-0.5-2.4-1.2-3.9-2.1c-2.9-1.8-4.4-4.5-4.4-8.1c0-3.6,1.4-6.5,4.3-8.7
		c2.9-2.3,6.6-3.4,11.2-3.4c4.6,0,9.1,1.5,13.7,4.6l-4,7.2c-3.4-2.3-6.7-3.5-10-3.5c-3.3,0-5,0.9-5,2.7c0,1,0.5,1.8,1.6,2.4
		c1.1,0.6,2.8,1.2,5.3,2c2.4,0.8,4.2,1.4,5.2,1.8c1,0.4,2.3,1,3.7,1.9C329.4,34.8,330.8,37.5,330.8,41.4z"/>
	<path id="XMLID_23_" class="st0" d="M374.6,32.5v20.9h-10.9V32.3c0-3.1-0.5-5.3-1.4-6.8s-2.4-2.2-4.5-2.2c-2.1,0-3.9,0.8-5.5,2.3
		c-1.6,1.6-2.4,3.9-2.4,6.9v20.9H339V14.7h10.8v4.4c3-3.4,6.4-5,10.2-5c2.4,0,4.7,0.7,6.7,2.2c2,1.4,3.5,3.2,4.5,5.3
		c1.5-2.4,3.5-4.2,6-5.5s5.1-1.9,7.6-1.9c4.6,0,8.2,1.4,11,4.1c2.8,2.7,4.2,6.6,4.2,11.8v23.5h-10.9V32.3c0-6-2.2-8.9-6.6-8.9
		c-2.2,0-4,0.8-5.6,2.3C375.4,27.2,374.6,29.5,374.6,32.5z"/>
</g>
</svg>
