<?xml version="1.0" encoding="UTF-8" ?>
<!DOCTYPE svg PUBLIC "-//W3C//DTD SVG 1.1//EN" "http://www.w3.org/Graphics/SVG/1.1/DTD/svg11.dtd">
<svg width="500pt" height="557pt" viewBox="0 0 500 557" version="1.1" xmlns="http://www.w3.org/2000/svg">
<g id="#000000ff">
<path fill="#000000" opacity="1.00" d=" M 38.64 36.67 C 47.76 28.81 60.16 25.75 72.01 26.12 C 77.79 26.00 83.52 27.14 88.86 29.31 C 88.33 35.28 87.12 41.16 85.96 47.02 C 77.18 43.56 66.86 42.83 58.29 47.28 C 51.77 50.62 47.65 57.44 46.53 64.55 C 45.00 74.08 46.62 85.17 54.24 91.82 C 63.09 99.00 75.94 98.73 85.97 94.25 C 87.05 100.12 88.25 105.97 88.99 111.89 C 80.23 115.71 70.36 115.88 60.99 114.99 C 49.70 113.85 39.09 107.76 32.33 98.68 C 26.41 90.40 23.80 80.07 24.13 69.97 C 24.12 57.56 28.87 44.67 38.64 36.67 Z" />
<path fill="#000000" opacity="1.00" d=" M 98.03 33.02 C 104.29 30.77 110.55 28.45 116.97 26.67 C 117.25 36.48 116.91 46.29 117.16 56.10 C 120.60 53.46 123.94 50.42 128.21 49.20 C 134.96 47.15 143.15 47.41 148.66 52.32 C 154.58 57.38 156.05 65.59 156.62 72.96 C 156.78 86.23 156.52 99.50 156.74 112.77 C 150.25 112.88 143.75 112.87 137.25 112.77 C 137.44 101.52 137.29 90.26 137.36 79.01 C 137.31 74.86 137.01 70.18 133.98 67.01 C 130.26 63.02 123.18 63.68 119.82 67.80 C 117.70 70.33 117.10 73.74 117.07 76.95 C 116.99 88.92 117.23 100.89 116.96 112.86 C 110.65 112.83 104.35 112.81 98.05 112.88 C 97.85 86.26 97.88 59.64 98.03 33.02 Z" />
<path fill="#000000" opacity="1.00" d=" M 173.42 57.43 C 180.02 50.05 190.32 46.68 200.06 47.29 C 209.18 47.37 218.22 52.31 222.73 60.32 C 227.20 68.23 228.36 77.63 227.52 86.58 C 227.04 88.08 225.20 87.55 224.04 87.71 C 211.23 87.71 198.41 87.46 185.60 87.83 C 185.62 94.21 191.59 98.55 197.36 99.62 C 205.67 101.48 213.98 98.82 221.73 96.00 C 222.60 100.74 223.47 105.48 224.48 110.20 C 215.60 115.18 204.96 115.84 195.00 115.20 C 184.40 114.49 173.81 108.57 169.23 98.72 C 162.95 85.71 163.70 68.60 173.42 57.43 M 189.33 64.32 C 186.79 66.93 185.96 70.58 185.13 74.00 C 192.87 74.30 200.61 74.19 208.34 74.09 C 208.27 71.21 208.02 68.16 206.28 65.74 C 202.79 60.06 193.80 59.57 189.33 64.32 Z" />
<path fill="#000000" opacity="1.00" d=" M 369.43 47.60 C 379.58 46.15 390.71 48.51 398.28 55.73 C 403.74 60.82 406.57 68.09 407.51 75.37 C 408.56 84.55 407.45 94.39 402.22 102.23 C 397.83 109.27 390.08 113.77 381.95 114.93 C 372.67 116.30 362.45 115.09 354.86 109.16 C 347.90 104.00 343.95 95.57 343.16 87.06 C 342.30 77.96 343.22 68.19 348.47 60.45 C 353.19 53.36 361.05 48.78 369.43 47.60 M 372.39 62.52 C 367.54 63.89 364.47 68.66 363.41 73.35 C 362.30 78.64 362.33 84.19 363.46 89.47 C 364.30 93.58 366.59 97.63 370.40 99.63 C 375.08 101.37 381.23 100.54 384.26 96.24 C 387.71 91.23 388.26 84.84 388.00 78.93 C 387.63 73.56 386.24 67.64 381.80 64.15 C 379.22 61.94 375.55 62.00 372.39 62.52 Z" />
<path fill="#000000" opacity="1.00" d=" M 444.93 49.92 C 452.29 46.77 462.03 47.12 467.87 53.14 C 473.09 58.26 474.69 65.89 474.82 72.95 C 474.86 86.25 474.81 99.56 474.85 112.86 C 468.56 112.82 462.27 112.82 455.98 112.86 C 455.82 101.90 456.00 90.93 455.92 79.97 C 455.81 76.26 455.72 72.38 454.07 68.98 C 451.31 62.97 441.76 63.09 438.14 68.18 C 435.74 70.85 435.55 74.59 435.62 78.00 C 435.75 89.59 435.53 101.18 435.75 112.77 C 429.25 112.88 422.75 112.87 416.26 112.77 C 416.29 91.84 416.66 70.90 415.95 49.99 C 421.91 49.88 427.87 49.87 433.83 50.03 C 433.86 52.75 433.94 55.47 434.15 58.19 C 437.64 55.31 440.56 51.56 444.93 49.92 Z" />
<path fill="#000000" opacity="1.00" d=" M 326.05 51.09 C 330.15 48.25 335.41 48.46 340.17 48.81 C 340.45 54.85 340.44 60.90 340.19 66.94 C 335.91 66.71 331.30 66.18 327.40 68.37 C 322.93 70.98 319.50 75.76 319.36 81.05 C 319.16 91.65 319.63 102.26 319.16 112.85 C 312.82 112.83 306.48 112.82 300.15 112.85 C 300.04 91.89 300.52 70.92 299.75 49.97 C 305.74 49.91 311.74 49.78 317.73 50.14 C 317.69 53.53 317.75 56.93 318.15 60.31 C 320.99 57.40 322.51 53.31 326.05 51.09 Z" />
<path fill="#000000" opacity="1.00" d=" M 229.05 50.09 C 236.04 49.76 243.04 49.95 250.03 49.98 C 254.05 64.13 257.36 78.47 261.24 92.65 C 261.58 92.64 262.26 92.63 262.60 92.63 C 266.04 78.45 270.17 64.43 273.32 50.19 C 280.47 49.71 287.65 49.91 294.81 50.05 C 290.35 62.94 286.06 75.89 281.73 88.83 C 278.87 96.74 276.14 104.70 273.73 112.77 C 265.87 112.88 258.00 112.85 250.14 112.81 C 243.26 91.85 236.05 71.01 229.05 50.09 Z" />
<path fill="#000000" opacity="1.00" d=" M 24.93 129.88 C 45.44 136.17 65.64 143.45 86.09 149.96 C 139.83 167.89 193.60 185.78 247.34 203.73 C 250.93 205.13 254.47 202.89 257.89 201.95 C 327.38 178.74 396.88 155.56 466.41 132.45 C 469.17 131.49 471.96 130.62 474.80 129.88 C 474.83 179.84 474.91 229.81 474.75 279.78 C 402.49 303.86 330.13 327.68 257.90 351.88 C 255.28 352.74 252.71 353.80 249.97 354.24 C 246.43 353.97 243.20 352.28 239.85 351.22 C 169.98 328.17 100.24 304.73 30.40 281.57 C 28.15 280.60 24.00 280.50 24.65 277.04 C 24.66 241.69 24.65 206.35 24.66 171.01 C 24.83 157.30 24.30 143.57 24.93 129.88 Z" />
<path fill="#000000" opacity="1.00" d=" M 24.91 304.04 C 44.75 310.36 64.41 317.23 84.15 323.88 C 138.38 342.01 192.67 359.96 246.89 378.11 C 250.73 379.61 254.52 377.25 258.15 376.22 C 330.33 352.16 402.51 328.07 474.72 304.10 C 474.64 354.04 474.75 403.97 474.75 453.90 C 400.59 478.76 326.33 503.34 252.14 528.14 C 250.51 528.83 248.74 528.54 247.12 527.98 C 173.18 503.17 99.11 478.71 25.17 453.88 C 24.67 425.60 25.09 397.29 24.95 369.00 C 24.73 347.35 24.34 325.68 24.91 304.04 Z" />
</g>
</svg>
