<svg xmlns="http://www.w3.org/2000/svg" width="1493" height="251" viewBox="0 0 1493 251"><path d="M123.2 0h8.1c12.3.6 24.5 2.5 36.2 6.6 18 6.1 34.3 16.8 47.6 30.3-7.2 7-14.4 13.9-21.6 20.9-12.9-13-29.5-22.4-47.6-25.8-24-4.6-50-.9-70.6 12.6C56.7 57 41.2 75.3 34.6 97.1c-5.2 17.4-5.5 36.3-.8 53.9 6.1 23 22.1 42.5 41.7 55.5 19.6 12.9 44.1 16.8 67 13.2 19.3-2.9 37.3-12.4 51.1-26.1 7.2 6.8 14.4 13.7 21.6 20.6-18.1 18.3-41.8 31.3-67.4 35.2-6.3 1-12.6 1.5-19 1.7h-5.5c-16.7-.4-33.3-3.7-48.5-10.7-27.2-12.3-49.6-34.7-62.5-61.6C.7 154.4-1.9 126.3 3.1 99.9 8.7 70.4 26.3 44 49.8 25.7 70.5 9.3 96.8.3 123.2 0zm473.9 6h30.2v239h-30.2v-32.1c-6.9 9.7-15.3 18.4-25.2 24.9-13 8.6-28.5 12.8-44 13.1h-7.1c-6.8-.5-13.6-1.4-20.2-3.4-15.6-4.4-29.4-14-40-26.1-13-14.2-21.5-32.4-23.9-51.5-3-22.5.9-46.2 12.9-65.6 10.8-17.5 26.6-32.6 46.3-39.6 18.6-6.5 39.3-6.5 58.1-.5 17.8 5.7 32.7 18.4 43.2 33.6-.1-30.5-.1-61.1-.1-91.8m-75.6 84.7c-19.6 2.5-37 15.1-47.1 31.8-8.1 12.9-10.3 28.7-8.1 43.6 3.9 25.8 24.9 48.2 50.5 53.3 17.2 3.5 36 .9 50.6-9.1 12.5-8.6 22.6-21.2 26.9-35.8 3.5-11.8 3.6-24.6.4-36.4-4.2-15.6-15-28.8-28.1-37.8-13.1-8.8-29.6-11.8-45.1-9.6zm173.6-18.5c18.8-11 41.5-14.2 63-11 30.2 4.4 56.9 25.1 70.6 52.1 8.6 17.4 11.5 37.7 8.2 56.8H678.6c3.6 18.6 16.7 34.5 33.3 43.3 14.3 7.8 31.5 9.5 47.3 5.7 13.5-3.2 25.5-11.4 34.3-22 8.4 5.4 16.8 10.7 25 16.2-17.1 22.9-45.1 37.2-73.7 37.8h-5.4c-11.1-.4-22.2-2.5-32.6-6.7-15.9-6.4-29.6-17.5-40.3-30.8-9.8-12.2-16.3-27-18.6-42.5-3.1-20.9-.1-43.1 10.5-61.6 8.6-15.5 21.5-28.4 36.7-37.3M678.5 140h127.8c-6.2-29-35-50.6-64.4-49.9-28.9-.3-57.6 20.9-63.4 49.9zm-433.3-33.8c12.2-19.4 30.9-35 52.8-41.9v32.4c-11.4 5.8-20.9 14.9-27.6 25.7-7.9 12.6-10.3 28-8.3 42.6 3.4 25.8 24 48.5 49.4 54.1 17.5 3.9 36.9 1.5 51.9-8.8 13.5-9.3 24.2-23.3 27.9-39.4 3.3-14.6 2-30.4-4.8-43.8-6.3-12.4-16.4-22.8-28.5-29.6-.1-11 0-21.9 0-32.9C380.1 72 399 88 410.9 108c11.8 19.9 14.8 44.2 10.5 66.8-8.2 42.3-48.5 75.8-91.6 76.1h-5.5c-21.4-.4-42.5-8.6-58.6-22.7-15.5-13.2-27.4-31.1-31.7-51.2-5.1-23.9-1.9-49.9 11.2-70.8z" fill="#FFF"/><path d="M857.2 2H964c16.7.1 33.3 5.2 47 14.9 13.6 9.5 24.3 23.7 28.1 40.1 3.5 15.1 2.1 31.4-4.8 45.3-8.3 16.9-23.9 29.5-41.1 36.6 9.5 8.5 16 19.6 22.9 30.1 17.3 26.7 34.6 53.3 51.9 80-14.9 0-29.8.1-44.6 0-17-26.4-34.2-52.7-51.2-79.1-3.5-5.3-6.7-11.1-11.7-15.3-8.6-7.5-20.3-10.2-31.5-10.5h-34.8V249h-37V2m37 37.1V107H960c13.2.5 27-4.1 36-14 9.9-10.6 10.1-28.7.4-39.5-8.3-9.4-20.9-14.4-33.3-14.4-23 0-45.9-.1-68.9 0zm189-37.1H1258v37.1h-137.8V107H1228v37h-107.8v67.9H1258v37h-174.8V2zm193 0h80.8c10 0 20-.3 30 1.1 20.9 2.6 41 11.2 57.5 24.4 12.7 10.2 24.1 22.4 32.3 36.6 9.1 15.4 14.2 33 15.5 50.9 1.6 20.7-1.5 41.9-10.2 60.8-8.2 18-21 33.5-36.1 46.1-20.3 17.1-46.5 26.6-73 27-32.3.1-64.6 0-96.8 0V2m37 37.1V212h41.8c11-.1 22.2.5 33.1-1.9 23.5-4.6 43.9-20.5 56.1-40.9 10.7-17.9 13.7-39.8 10.1-60.1-2.7-15.8-10.5-30.5-21.4-42.1-11.9-13-27.6-22.7-45-26.1-10.8-2.4-22-1.7-33-1.8-13.9 0-27.8-.1-41.7 0zM313 39h30v117h-30V39z" fill="#C8102E"/></svg>