<?xml version="1.0" encoding="utf-8"?>
<!-- Generator: Adobe Illustrator 18.0.0, SVG Export Plug-In . SVG Version: 6.00 Build 0)  -->
<!DOCTYPE svg PUBLIC "-//W3C//DTD SVG 1.1//EN" "http://www.w3.org/Graphics/SVG/1.1/DTD/svg11.dtd">
<svg version="1.1" id="Layer_1" xmlns="http://www.w3.org/2000/svg" xmlns:xlink="http://www.w3.org/1999/xlink" x="0px" y="0px"
	 width="1493px" height="251px" viewBox="0 0 1493 251" enable-background="new 0 0 1493 251" xml:space="preserve">
<g id="_x23_f7f7f7ff">
	<path fill="#FFFFFF" d="M123.2,0h8.1c12.3,0.6,24.5,2.5,36.2,6.6c18,6.1,34.3,16.8,47.6,30.3c-7.2,7-14.4,13.9-21.6,20.9
		c-12.9-13-29.5-22.4-47.6-25.8c-24-4.6-50-0.9-70.6,12.6C56.7,57,41.2,75.3,34.6,97.1c-5.2,17.4-5.5,36.3-0.8,53.9
		c6.1,23,22.1,42.5,41.7,55.5c19.6,12.9,44.1,16.8,67,13.2c19.3-2.9,37.3-12.4,51.1-26.1c7.2,6.8,14.4,13.7,21.6,20.6
		c-18.1,18.3-41.8,31.3-67.4,35.2c-6.3,1-12.6,1.5-19,1.7h-5.5c-16.7-0.4-33.3-3.7-48.5-10.7c-27.2-12.3-49.6-34.7-62.5-61.6
		C0.7,154.4-1.9,126.3,3.1,99.9c5.6-29.5,23.2-55.9,46.7-74.2C70.5,9.3,96.8,0.3,123.2,0z"/>
	<path fill="#FFFFFF" d="M597.1,6c10.1,0,20.1,0,30.2,0c0,79.7,0,159.4,0,239c-10.1,0-20.1,0-30.2,0c0-10.7,0-21.4,0-32.1
		c-6.9,9.7-15.3,18.4-25.2,24.9c-13,8.6-28.5,12.8-44,13.1h-7.1c-6.8-0.5-13.6-1.4-20.2-3.4c-15.6-4.4-29.4-14-40-26.1
		c-13-14.2-21.5-32.4-23.9-51.5c-3-22.5,0.9-46.2,12.9-65.6c10.8-17.5,26.6-32.6,46.3-39.6c18.6-6.5,39.3-6.5,58.1-0.5
		c17.8,5.7,32.7,18.4,43.2,33.6C597.1,67.3,597.1,36.7,597.1,6 M521.5,90.7c-19.6,2.5-37,15.1-47.1,31.8
		c-8.1,12.9-10.3,28.7-8.1,43.6c3.9,25.8,24.9,48.2,50.5,53.3c17.2,3.5,36,0.9,50.6-9.1c12.5-8.6,22.6-21.2,26.9-35.8
		c3.5-11.8,3.6-24.6,0.4-36.4c-4.2-15.6-15-28.8-28.1-37.8C553.5,91.5,537,88.5,521.5,90.7z"/>
	<path fill="#FFFFFF" d="M695.1,72.2c18.8-11,41.5-14.2,63-11c30.2,4.4,56.9,25.1,70.6,52.1c8.6,17.4,11.5,37.7,8.2,56.8
		c-52.8,0-105.6,0-158.3,0c3.6,18.6,16.7,34.5,33.3,43.3c14.3,7.8,31.5,9.5,47.3,5.7c13.5-3.2,25.5-11.4,34.3-22
		c8.4,5.4,16.8,10.7,25,16.2c-17.1,22.9-45.1,37.2-73.7,37.8h-5.4c-11.1-0.4-22.2-2.5-32.6-6.7c-15.9-6.4-29.6-17.5-40.3-30.8
		c-9.8-12.2-16.3-27-18.6-42.5c-3.1-20.9-0.1-43.1,10.5-61.6C667,94,679.9,81.1,695.1,72.2 M678.5,140c42.6,0,85.2,0,127.8,0
		c-6.2-29-35-50.6-64.4-49.9C713,89.8,684.3,111,678.5,140z"/>
	<path fill="#FFFFFF" d="M245.2,106.2c12.2-19.4,30.9-35,52.8-41.9c0,10.8,0,21.6,0,32.4c-11.4,5.8-20.9,14.9-27.6,25.7
		c-7.9,12.6-10.3,28-8.3,42.6c3.4,25.8,24,48.5,49.4,54.1c17.5,3.9,36.9,1.5,51.9-8.8c13.5-9.3,24.2-23.3,27.9-39.4
		c3.3-14.6,2-30.4-4.8-43.8c-6.3-12.4-16.4-22.8-28.5-29.6c-0.1-11,0-21.9,0-32.9c22.1,7.4,41,23.4,52.9,43.4
		c11.8,19.9,14.8,44.2,10.5,66.8c-8.2,42.3-48.5,75.8-91.6,76.1h-5.5c-21.4-0.4-42.5-8.6-58.6-22.7C250.2,215,238.3,197.1,234,177
		C228.9,153.1,232.1,127.1,245.2,106.2z"/>
</g>
<g id="_x23_c8102eff">
	<path fill="#FFFFFF" d="M857.2,2c35.6,0,71.2,0,106.8,0c16.7,0.1,33.3,5.2,47,14.9c13.6,9.5,24.3,23.7,28.1,40.1
		c3.5,15.1,2.1,31.4-4.8,45.3c-8.3,16.9-23.9,29.5-41.1,36.6c9.5,8.5,16,19.6,22.9,30.1c17.3,26.7,34.6,53.3,51.9,80
		c-14.9,0-29.8,0.1-44.6,0c-17-26.4-34.2-52.7-51.2-79.1c-3.5-5.3-6.7-11.1-11.7-15.3c-8.6-7.5-20.3-10.2-31.5-10.5
		c-11.6,0-23.2,0-34.8,0c0,35,0,69.9,0,104.9c-12.3,0-24.7,0-37,0C857.2,166.7,857.2,84.3,857.2,2 M894.2,39.1c0,22.6,0,45.3,0,67.9
		c22,0,43.9,0,65.8,0c13.2,0.5,27-4.1,36-14c9.9-10.6,10.1-28.7,0.4-39.5c-8.3-9.4-20.9-14.4-33.3-14.4
		C940.1,39.1,917.2,39,894.2,39.1z"/>
	<path fill="#FFFFFF" d="M1083.2,2c58.3,0,116.5,0,174.8,0c0,12.4,0,24.7,0,37.1c-45.9,0-91.9,0-137.8,0c0,22.6,0,45.3,0,67.9
		c35.9,0,71.8,0,107.8,0c0,12.3,0,24.7,0,37c-35.9,0-71.8,0-107.8,0c0,22.6,0,45.3,0,67.9c45.9,0,91.9,0,137.8,0c0,12.3,0,24.7,0,37
		c-58.3,0-116.6,0-174.8,0C1083.2,166.7,1083.2,84.3,1083.2,2z"/>
	<path fill="#FFFFFF" d="M1276.2,2c26.9,0,53.9,0,80.8,0c10,0,20-0.3,30,1.1c20.9,2.6,41,11.2,57.5,24.4
		c12.7,10.2,24.1,22.4,32.3,36.6c9.1,15.4,14.2,33,15.5,50.9c1.6,20.7-1.5,41.9-10.2,60.8c-8.2,18-21,33.5-36.1,46.1
		c-20.3,17.1-46.5,26.6-73,27c-32.3,0.1-64.6,0-96.8,0C1276.2,166.7,1276.2,84.3,1276.2,2 M1313.2,39.1c0,57.6,0,115.3,0,172.9
		c13.9,0,27.9,0,41.8,0c11-0.1,22.2,0.5,33.1-1.9c23.5-4.6,43.9-20.5,56.1-40.9c10.7-17.9,13.7-39.8,10.1-60.1
		c-2.7-15.8-10.5-30.5-21.4-42.1c-11.9-13-27.6-22.7-45-26.1c-10.8-2.4-22-1.7-33-1.8C1341,39.1,1327.1,39,1313.2,39.1z"/>
	<path fill="#FFFFFF" d="M313,39c10,0,20,0,30,0c0,39,0,78,0,117c-10,0-20,0-30,0C313,117,313,78,313,39z"/>
</g>
</svg>
