<svg id="Layer_1" xmlns="http://www.w3.org/2000/svg" viewBox="-112 172 387 449"><style>.st0{fill:#CACACA;} .st1{fill:#949494;} .st2{fill:#5F5F5F;} .st3{fill:#313131;} .st4{fill:#4A4A4A;} .st5{fill:#AFAFAF;} .st6{fill:#232323;} .st7{fill:#151515;} .st8{fill:none;} .st9{fill:#E4E4E4;} .st10{fill:#404040;} .st11{fill:#797979;}</style><path class="st0" d="M-52.6 192.1l-10.7-6.6-2.3-.8-6.9-1.2-5.4-1.3.1-1 12.8-.9 20.3 11.9-.3.9"/><path class="st0" d="M-79.1 180.8l1.4.3v1h-.5l-.8-.2-.2.3-1.5.1"/><path class="st0" d="M-101.8 194.8l5.9-8.4 6.6-4.5 11.1-.7-3.6 3.4-3.5 2.1-.5-.3-1.6 1.5-6.7 4h-.1l-6 10.6-.4.3-2.6 2.4-1.5 1.3"/><path class="st1" d="M-77.6 185.1h-1l-2.8-.2h-.7l-1.1-.2 4-3.7 6.8 1.6 6.7 1.3-.1.9-9.1.4"/><path class="st2" d="M-95 191.5l6.9-4.1.6.7-4.3 3.9-1.9 2m7.4-7.7l4-2.4h.2l.7.1 2.8.1 1.1.1h2.6l9.1-.3.4-.1 3.8 1.3-11.7 4.1-3.7 1.1"/><path class="st3" d="M-87.9 195.8l-4.9-.2-1.3-2.4 1.6-1.9 6.5-5.8 10.6 4.5-4.2.8.3 2.8-5.9.1.2.7.7 2.1.9 2.5"/><path class="st4" d="M-103.9 234.6l1.2-23.6 9.3-.2-2.1-7.5-3.6-2.6 5.3-.4-.1-.1h.3l-3.5-1.8 2.6-8 1.3 2.6 1 1.6 4.7.2 2.3 1.7-.7-1.8-.7-2 6.3-.1-.3-2.5.4-.2 3.1-.7 3.4-1 10.7-3.7 10.9 6.6 7.3 8.1-8.7-1.8 16.4 14.6-.1-.3.2.1-2.7-9.4 3.1 1.6.1-.4.7.7 3 3.2 2.1 2.5 9 11-4.7-1.2.1.2-.2-.1 6.1 9.4-14.2-3.3-1-1.1-.1-.1-.2-.3v-.5l-.2-9-14.1-1.2-3.2-1.4-3.1-15.2-15.9 9.1-6.9 6-9.5 1.9-4.3-.3v.1l-.6 2.9v7.7l-4.9-3.3-.5-3-.2-.1-.1-.4-1.4-.6-2.2 17.5"/><path class="st5" d="M-36.4 205.1l-3-1.5-1.7-.9-5-3.4-.3-.3-7.2-8 8.9 1.2 9.5 7.9-.5 4.3v.3l-.1.6"/><path class="st2" d="M-102.7 211.3l.7-3.2.9-6 .1-.1 6.1-10.6.8.3-1.9 6.3 4 2 1.8.8-6.5.6 1.9 1.3 2.3 8.3.4.6-.8.1-9.8.2m32.5 16.9l-.2-7.4-.5-2L-82 216l-7-1.7v-1l9.2-1.7 6.9-6 17-9.7 3.5 16.8-22.3.5 4.4 4 2.1 5.2-1 6.5"/><path class="st3" d="M-56.7 195.8l4.2.9 4 .8 2.6.6.4.3 4.8 3.4 2 1 3 10.4.4 1.5"/><path class="st0" d="M-15.4 226.3l-7.8-5.9-8.3-10-2-2.3-3.2-3.4v-.3l.6-5.2 15.7 14.5 13.9 15.7-.6.7"/><path class="st5" d="M-104.9 244.6l-1.3-3.9-.6-20.1 2.4-15.4 4.5-4.1-1.2 7.3-.6 3.1-1.3 23.1.1.2.4 5-1.5 4.6v.1l-.4 1.7"/><path class="st1" d="M-43.3 249.1l-9 4.2-.6.4-1.2-1.4-6.8-12.2-9.4-4.8.2-6.7 1-6.2-2-4.7-6-5.4 24.2-.6 3.1 1.3 1.3 1.1h-.1l12.7 9.7v-.2l.8.6.1.1.9 1 1 1.2 8.8 9.8-.2.4 4.6 7 .2.4-8.4 14-15.2-9zm5.5-6.6l-2.8-3.7-8.5-9.9-4.1 9 1.4 2.3c0-.1 14 2.3 14 2.3z"/><path class="st3" d="M-85.6 290.2l-.9-5.2 2.2-1.6-.1-.2.1-.1-.9-1.8 1.2-3.3 2.4-.1v-.5h.9l-6.1-4.1v-1.2l-.1-.1v-.4l-10.3-15.3.6-5.2-4-.7-2.7-10.4-.4-4.8 2.4-19 3.1 1.4.5 3.1 3.3 2.5-.1-6.5.7-3.7 5 .3 7.4 1.9.1 5.3-.2 7.5 11.2 6.6.4.2-.2.4-3.5 8.6 6.6 2.4 5.6 3 .2 9.7h.2l15.5 3.3-.4 2.2-1.1 1.3-1.1 1.4-6.2 7.8-1.8 2.3-3.4 8.6-.6 1.5-.8-.8v-.2l-2.5-2.8 4.7-6-.6.2.5-.6-6.7 1.6 1.3-3.4-.3.2.2-.5-5.1 2.7-1.3-1.5-.5-4.5-3.7 1.8.1.2-.1.1 1.7 3.1 1.6 8-5.5-3.5-.2 1.3-3.6 1.5.1.5-.4.2-1.1.1-2.5 1.6.1.2h-.1l2.4 4.4-3.1 1-.1-2zm4.3-23.6l4.6-1.4-7-.1 2.4 1.5zm3-5.6l.5-.5-.3-.4.1-.1-6.4-7.1-7-.9-5-.8 7.3 6.4 10.8 3.4zm-15.2-23.9l-2.8 2.8 5.2-1.2-.9-1.3-.9-2.3-5.7.5 5.1 1.5zm.6-2l-1-2.5v.1l-1.6.4 2.6 2z"/><path class="st2" d="M-51.6 212.8l1.7.1 14.8 1.4.2 11.3"/><path class="st4" d="M-70.3 235.5v.1l-.5-.2-11.7-6.8.2-8.1-.1-5.4 12.3 3.6.6 2.6.3 7.6-.2 7"/><path class="st3" d="M-12.8 264.6v-.6h1l-.1 1.5m46 .8l-.1.2-.8-.5.1-.2.8.5z"/><path class="st2" d="M-25.1 236.6l-10.7-11.9 1.6.5 13 2.9.7.2.6.8-4.7 8.1"/><path class="st1" d="M-3.6 241.8l-.7-1-11.3-14.5.6-.7 8.4 3.8 7.9 7.8 7.2 8.6"/><path class="st5" d="M-52.4 241l-1.8-3.1 4.9-10.8 9.5 11.1 4.2 5.5"/><path class="st6" d="M-95.3 237.5l-5.9-1.8.1-.9 5.6-.5-2.1-1.6 2.8-.8v-1.4l.9-.2 2.7 6.6 1.7 2.3-9.8 2.3"/><path class="st2" d="M-62.5 247.8l-.6-8.3-10.6 5.3-1.1-.4 3.8-9.6.3-.5 1.1.5 9.4 4.7 7.7 13.9"/><path class="st6" d="M7.2 270.2l-12.5-6.7-.1-.2-1.3-11.1-9.5-1.6-.5-.1 3.9-15.9 3.9 4.7 5.2.8.2.1.6.9 10 12.9.6 1.3 3.8 6.7.1.1 3.5-7.3.6 1.3 1.2 2.7.5 1.7-2.3 9 1.4 4.2 1.1 2.6 1.1 2.6"/><path class="st4" d="M-62.1 259.6l-.2-9.9-5.1-2.6-7.5-2.7 12.6-6.3.6 9.1 8.3 4.6 1.3 1.6-8.8 6.4m-28.3 15.4l-1.1-3.5-.2-.5v-.2l-1.3-1.8-.2 1.6-.1.5h-.9l-.5-2.3-.2-.7v-.3l-4.8-9.6-6.5-14 .1-.2 1.9-6.3 3.1 11.7 8.6 1.4 7.3 1 7.4 8.1-.6.4-1 .9-11.5-3.6-6.3-5.5-.4 3.5 10.5 15.5v1.4l8.2 5.5-3.8.1-2 .1-1 2.9-1.6 1"/><path class="st3" d="M6.4 254.6l-11-14.1 11.8 3.9 1.5.4-1.4 9.3v.2l-.2 1.1"/><path class="st4" d="M-28.9 257.7l.4-.7 8-13.2.7-1.1 8.3 20.6"/><path class="st2" d="M6.3 254.3v-.2l1.6-10.2 8.1 11.3-9.2.1"/><path class="st5" d="M-51.9 255l.8-.6-.8.6m16.4 37.8l-1.4-10.5-11.1-8.5 13.9-7.9-4.9-6.2-12.8-4.7-.4-.5-1.1-1.7 9.9-4.6 15.5 8.8 13.3 12.5-4.7 8.5-.9 1.5-.1.3 1.1 12-7.4 2.4 3.2 7.6"/><path class="st2" d="M-62.2 259.6l9-6.6.7-.4 1.1 1.5.3.3 6 8.9"/><path class="st1" d="M-24.7 352.7l-1.5-.7 2.3-.3-.1.7-.1.3-.3.1h-.1m-28.4-53.3l.2-.7 1.3 1.1-.9.2-.8.2"/><path class="st1" d="M-37.2 347l-16.1 2 7.7-10.3 9.1-11.4.3-6.3-3.8-9.8-3.5-2.8-12.7 4.2-.3.3-.4-.3-9.3-10.6.8-.2 12.4-2.5 5.9-13-1-14 1.2-8.1.3-1.4-6.2-8.9 1.4.5 12.9 4.7 5.7 7.2-13.7 7.8 10.3 7.8 1.4 10.5 9.2 6.9-2.3-5.5 7.6-2.4-1.2-12.5 5 4.1 5.8 4.4-8.1 5 .1.1 5.8 4.5-6 3.8 1.8 3.1 1.5 2.2 1.2 1.7-5.3-.6v.2l.3 6.4-.2 2.5-6.9 10.3-9.2 18.3v.1l15.4-7.5-4.4 15.7-12.5-6.2zm11.1-35.4l4.5-5.3-3-1.2-1.5 6.5zm-17.8-5.4l6.2-9-13.9 2.7c0-.1 7.7 6.3 7.7 6.3zm15.4-48.5l.4-.7 16.1 5.2.2 1.8-3.3 6.4"/><path class="st4" d="M60.8 264l-9.2-2.2-1.9-.5 7.2-2.1 5.9 5.1"/><path class="st2" d="M56.3 270.6l-6.4.6-12.4-5 2.4-2.2 11.5-3.1.3.1 9.5 2.3h.1l5.6-.3.2.1 2.5.6 1.3 7.9-5.9 3.2"/><path class="st4" d="M80.8 334.8l-.1.1-.1-.1-8.4-18.9 1.6-17.4-6.5-13.4 6.6-5.8.5-.4-4.3-7.6-1.2-7.1-1.6-.4-.6-.2.2-.9 14.1 2.8 14.4-2.8.2.9-.6.2-1.6.3-1.2 7.1-4.3 7.6.1.1.3.3L95 285l-6.5 13.4 1.6 17.4-8.6 19.2m-168.4-70.9l13.2.1.1.9-7.9 2.5m14.9 30.7l-15.5-3 6.4-6.2 2 6h.2v.1l11.5-3.7 1.2-5.4.3-.7 3.4-8.7 1.9-2.5 6.2-7.9 3.3-3.9-.3 1.8-1.1 7.9 1 14.2-6.2 13.6-3.3.7"/><path class="st2" d="M-14.9 307.6l-.3-.1-.8-1-1.5-2.3-2.3-3.9 5.6-3.5-5.4-4.2-.5-.4 8.1-5-4.8-3.7-3.6-2.9-1-.8.2-.3 1.1-1.8 4.5-8.2 2.9-5.7.9.2v9.5l.1 2.6h.1l8.6-1.2-2.6-3.4 3.7-.2h1.1l10.1 1.1 2.5 10-.5.2h-.2l-4.9-.9-6.9 6.4-.7 1.1-1.8 11.2-7.4 1.6 3.7-7.8-4.1 2.3-.5.5-2 10.8"/><path class="st4" d="M-12.7 273.5l-.1-9.1v-1.3l13.4 9-4.5.1 2.6 3.4-10.8 1.4h-.4"/><path class="st2" d="M12.2 329.3l-6.4-1.2-.1-10.3-9.9 3.4 6.8-9.7-1-6.8 9.5-5.5 8.7-10.7 6.1-12.3-5.3-8.5-.3-.4 5.5-3.9 8.6 2.4-.4.7-5.4 8.4 15.1-.9-1.8 3-2.4 4.4-1 4.2.1.9 1.6 11.6 13.6 2 7.9-.7 1-2.8.7-1.9 4-9.7.5-.5.4.6 6.4 13.2-1.6 17.4-.9.1-2.9-7.3-.1.1v-.1l-11.5 11.7-11.6-2.4v.3l.8 4.5.7 3.3-1.3-.3-6.3-1.2-3.6-2.3-8.4-10.2-6.1 7.6 6.9 10.1-3.8-1.3-7.7-3.1-4.2 4.4"/><path class="st1" d="M39.4 299l-1.8-12.3v-1.1l1-4.5 2.5-4.5.9-1.5-15.1.9 6.5-10.3 5.1-.2.1.2 11.5 4.5 6.4-.6 8.5 4.2 5.6-3.1.2.4 4.7 8.2-.3.3-.7.5-6.3 5.6-3.9 9.4-.8 2-1.2 3.2-8.5.9"/><path class="st2" d="M-96 281.5l2.3-13.4.6-1.4.4 1.4.6 3.2-.1.6-.6 6.3-.5.9-1.8 2.8"/><path class="st3" d="M-94.9 286.2l1.3-8.2-.1-.1.5-6.2.2-1 .6-3.7 2.8 3.9-1.7 4.3-1.6 20.2-.1 3.3-.9.1"/><path class="st2" d="M-76.5 289.8l.2-.3 3.5-4.9h-.1l-8.1.1-1.5.1-.2-.9 4.6-1.9.4-2.1 4.7 2.8-1.1-5.8-1.8-3.3-.4-.7 5.6-2.8.4 1 .5 4.4.6.7 6.7-3.5-1.7 4.5 7.9-1.8-1.3 1.5-4.8 6.2 2.5 2.8-.1.4-1.3 5.8-12.5 4-.4.1-2.3-6.4zm12.9-7.6l1.3-2.7-3.6.1 2.3 2.6z"/><path class="st7" d="M-92.2 275.1l1.8-4.2.6-.8.2.9 1.2 4 3.2 7.2-5.8 1.9"/><path class="st6" d="M-90.2 293.2l-.2.3v-.3l-3.4 3.3 1.6-21.3 1-.1 1 7.8 4.2-1.4 1.4-.9.3.6 1.2 2.3-2.5 1.8.9 4.8.2 1.8-.4.1-3.3 1-.2 8.4-1 .1"/><path class="st4" d="M-26.8 326l6.7-10.2.2-2.2-.4-7.6 5.6.6.5.1 2-10.2.6-.8 6.9-3.7-4.3 8.6 5.1-1 1.8-10.9.7-1.2 7.4-6.8 5.2.9 14.8-5.8 1.1-.1-.3.7-6.2 12.7-8.9 10.9-9.1 5.2 1 6.5-5.5 7.8 8.6-2.8.1 10.7 6.8 1.2-.3.7-2.5 7.7-1.1.3-17.1 2.9-2.8-15.6-5.8 2.9-4.1 10.7-.2.2-15.6 7.6-1.3.6"/><path class="st5" d="M-96.4 297.3l.4-15.9 1.9-3 .6-.9.9.4-1.3 8.4-1.5 11.1"/><path class="st3" d="M-68 278.7l7.1-.2-2.5 5.3"/><path class="st1" d="M-89.4 292.3l4.2-1.2 1.6-.6-2.1-3.7-.3-.7 3.4-2.2 1.3-.1 9.2-.1 1.1.1-4.5 6.3-5.2 5.1v.8l-.5 5.5-.6 5.1"/><path class="st4" d="M-93.8 307.2l-2.6-9.9 1.5-11.2 1 .1.9 12.5v.6l5 9.6.2-2.7.9-.1 2.6 9.2.3-.1v3.2"/><path class="st7" d="M-88.3 310.5l-5.7-10.9.1-.8v-3.5l.4-.3 3.9-4 .1 1.4 1 9.2 1.5 4.4-.6 5.9"/><path class="st2" d="M-87.8 306.5v-.1l-1.6-4.5v-.5l.3-10.5 7.5 14.1v.2l-1.3 10.3v.3l-.3.2-1.2.4-.5.2"/><path class="st3" d="M-83.6 318.2l1.3-1.1.7 1.6"/><path class="st3" d="M-70.2 322.7l-13.1-4.7 11.8-10.7-6.8-8.1-3.3-2.9v-1.8l15.2 2.9 10.9 2.3v1l-8.7 1.7 8.5 9.8-.3.3-8.2 12.3"/><path class="st4" d="M-83.9 315.5v-.1l1.3-10.4.4-3.5.6-6.4.8.8 3.2 2.8 7.2 8.6-12 11-.8.9"/><path class="st5" d="M-53.4 299.3l.8-.3 16.7-3.3-.5 1-7.3 10.7m16.2 5.8l2.2-9.4 5.2 2.1-6.5 7.7"/><path class="st4" d="M-52.6 337l-7.4-3.5.3-.5h.1l5.2-5-2.3-14.4-.1.1-.2-1.5.4-.4h.2l13.2-4.4 4.1 3.2 3.9 10.2-.3 6.8-9.5 11.8"/><path class="st1" d="M34.6 333.2l-7.2-4.1-6.6-9.6 6.8-8.5.4-.5 9 10.8 3.3 2.2 6.2 1.2.9.2.1.4 1.4 5.4-6.2 12.5"/><path class="st6" d="M-61.2 335.5l.1-.3.8.4v.2l-.1.1m-14.5.7l-8-18.4-.4-.9.9.1.1.1 12.5 4.5 5.2 1.7 7.7-11.4.8-1.1 2.7 17.2-5.5 5.2-.2.3h-.1l-1.1 1.9-8.7 6.7"/><path class="st5" d="M46.5 325.5l-.5-2.7-.8-4.4-.3-1.9.8.4 11.9 2.4h6.3l4 8-12.5-4.8-.1.1-4.6 5.7-1.9 2.6-.6 1.1"/><path class="st0" d="M48.1 361.5l-6.5-9.1.3-8.8-.2.1.2-1 .1-.1v-.1l.2-.3 5.8-11.8v-.1l1.9-2.6 5-6.1.3-.3 11.9 4.7.3.1 1.2 2.1 3.3 6 1.1 3-10.6 12-8.1.1-.1 4.6v.4l-4.6 6.2-1.1 1.5"/><path class="st2" d="M-25.1 352.6l4.1-14.5v-.3l4.2-10.9.2-.2 6.9-3.4 3.1 16.6-4.4 8-2.8 2.1-10.6 2.8-.2.1"/><path class="st1" d="M12.5 328.8l4.6-4.9 8.6 3.6-.3.7-.4 1-15.4 8.4"/><path class="st5" d="M26.4 342.7l-6-3.7 3.8-10.3.4-.8.2-.7 2.9 1 7.8 4.4-8.5 10-.3.3"/><path class="st0" d="M-31.2 375.6l4.9-13 8.9-7.2 3.1-6 2.8-2.1 7-3.2 6.1-6.3H2l.3.1 5.2 5 1.7-6.3 1-.3 15.3-8.3-4 11-.3 7.5-5.7 5.8-13.7.3-11.4 11.3 11-2.5.9 1.4 1.5 8.8.3.8.2.7H-.9l-1 1.5-21 4.5"/><path class="st2" d="M-74 345.5l-.6-5 1-.2.9 5.3 1.5.1h5l.7-.2 1.6-2.9 2.8-7.4 1.5-2.6.4.2 6.9 3.2 7.9 2.6-7.7 10.1-.2.1h-.2l-13.3-1.7-12.8 10m99-9.6l-.2.3v-1.6l.4-8.2.6.4 5.4 3.3 8.2-9.7 8.3 10.3-.1.3-.4.7-.2.1-9.5 4.1-.1.2-.2-.1-12 10.5"/><path class="st3" d="M-71.2 346.7l-2.3-.2-1.1-6-.6-5.4 6.2 6.2 9.3-7.2-3.3 8.9-1.8 3.1-.1.2-.2.1-1 .2-5.1.1"/><path class="st4" d="M33 373.7"/><path class="st1" d="M-7.3 339.3l10.4-1.8-7 7.2-8.5 3.8M1 337.8l9.2-1.6-2.1 8.3"/><path class="st1" d="M1.8 337.5l.4.3.8.7-.9.2-.3-.4.1.4-1.5.3"/><path class="st5" d="M57.7 360.8h-.3l-3.7-5.8-.4.7-.1-1.9.3-5.4 8.6-.2L73 336l1.2 14.1.1.6L62 361.5"/><path class="st1" d="M30.7 354.7l9.1-3.5-8.1-4 10.4-4.6.2-.1.6-.1-.3 9.8 6.5 9.2-.8.3-.2-.1-14.7 3.6"/><path class="st5" d="M-42.3 368.2l-9.8-18-.6-.1-13.2 10.6-12.1-3-.6-2 .8-.4 11.8-9.2 13.7 1.7 15.3-1.9 12.5 5.9 11.5-3-3.6 7-8.9 7.2-4.9 12.8m19.3-11.6l12.7-12.7 13.6-.3 5.2-5.2.8-1 .3 12.1.1.3-4.9 6.2-.6-.5-8.3-8.2h-.1l-6 7.3-.3.1-13.4 2.9"/><path class="st0" d="M-70.8 376.3l-4.1-.2h-.5l-3-19.3 12.2 3 13.2-10.6 1.4.3 10.4 19h-13.5l-2.3.2-9.1 8.7"/><path class="st2" d="M45.5 369.8l-9 2.1-3.7-7.7.8-.1 14.7-3.6.7.7 6.2 4.2v-.1l-.3-5.4h1.3l-.2-.1h1.8l4 .7 12.3-10.9.2.8 3.3 15.9-1.1-.4-7.7-2.6-3.8 7.6-9.1-3.5-5.2 5.5"/><path class="st1" d="M18.4 378.2l-.7-.1-6.1-.4.1.1-1.6-.1-.1-.1-1.1-.9-1.1-4.9-3.8-5.4-2.2-3.1-.9-1.4 6.7-8.3 9.3 9.1.3.3-.7.8 4.6 5-.8 1.1v-.1l-3 4.3 2 1.8 2.2 2.1h-2.3v.2h-.8zm-10.1-8.4l6.9-5.8-7.5-.8.6 6.6zm39.4-8.3l.3-.4.5.2-.4-.3.8-1 4.8-6.6.4.5 3.9 6.2 1.4.9h-3.5l.3 6.3"/><path class="st3" d="M24.2 364.5l-4-5.7 11.4-3.9-3.8 13.8"/><path class="st6" d="M20.8 368.2l-.4-10.9 4.5 6.5 3.1 3.7-.4 9.1"/><path class="st3" d="M81.1 399.2l-.4.8-.1-1.5-3.3-5.1-9.4 3.4-.9-6.5-10 4.5-2.5-2.4-.6-1.6-4.1-11.1 10.1-6.1.2-.2.4-.3 2.9 4.1 4.4-1.3 4.2-2.7 6.7-8.5 1.9-2.3v-1.2l2.9 3.4 6.8 8.6 4.2 2.7 4.4 1.2 2.9-4 .6.5 10.1 6-4.1 11.1-.6 1.6-2.5 2.4-10-4.5-.9 6.6-9.4-3.5-3.4 5.1v1.6"/><path class="st5" d="M7 375.3l-.1-.1-2-1-3.4-.3h-.2l-.3.1-.3-.3v-.1l-1-1.5H3l-.1-.4-1.4-8.7.9-.4 2.3 3.1 3.9 5.6 1.3 6.1m-81.8 11.3l-3.4-13.5 4.6.1 4.5 1.1 8.9-8.5 2.6-.3 12.8-.1h.6l-1.5 6.8-3.4 14.6-11-3.4-7.2-6.8-6.5 9.9-.1.2-.5 1"/><path class="st2" d="M-47 388.7l3.3-14.6 1.5-6.9 11.9 7.6 7.7 3.3 2.8 3.5-5.9.5-.3-.8 2.2-1.5h-.3l.1-.1-10.2-.9-13.7 12.5m73.6-7.1l-6.8-6.1-1.2-.1.1-1H19l-.5-.4-1.8-1.7-.8-.7 4.6-6.6 2.4 10 10.9-4.7-.4.9-2.6 7.1-3.2 6.6m-30.5-13.2l1.6-2.3H.8l.7 1.1 2.7.8.8-.7 2.9 1.4v1.3l.2 3.3"/><path class="st2" d="M44.6 391.5l-7.9-9-2-4.1-2.3-4.9 2.5-1.1.3-.1 1.8-.4 6.6 8 1.6 8.9 8.8 1.3.4.1.8 1.9-.4 1.1v-.1l-4.7 14.1"/><path class="st6" d="M.9 374l-.5-1h.8l5 .4-.8.7-1 .9"/><path class="st3" d="M2.5 380.2l-7.7-1.3-6.8 2.3-8.7.7-3.1-3.6 21.7-4.6 9.2 4.3-.2-3.8.8.5 1.8 1.3 1 .8 5 4L17 382l-.4.8"/><path class="st5" d="M41.8 403.7l-5.9-4.4-5.6-4v-.2l-3.1-8.4-.1-.1-.1-.2 3-6 2.9-8 .5 1 4 8.4 7.9 9.2 5.4 15.5"/><path class="st4" d="M16.7 382.7h-.2l-7.7-6.3 9 .6.8.2 7.9 6.5.8 7.3"/><path class="st1" d="M-71.9 388.6l.1-.3 7.2-10.9 7.8 7.4 10.4 3.2.6.2-.7 2.1-2.2 1.7-3.8 3.5-2 1.9-13.4 4.4"/><path class="st3" d="M-41.2 394.2l-.2-.1-.4-.2-5.9-3.8 13.6-12.4.3.5.5.8h-.1l1.6 3 6.4 7.2h.1l.6.4v.1l.4.7-.6.2h-.2l-11.1 3.8-2.9.7"/><path class="st6" d="M-35 378h.8l11.5 1.1 1.5.2-4.3 2.9-.2.1-.3.1-3.1-.1-3.5.2"/><path class="st7" d="M-.7 383l.8.6-.2.6-.2.1-.9.2"/><path class="st7" d="M33.3 436.8l5.6-15.6v-.4l-4.2 1.5-9.6 3.1-5.4-3.7-12.6-.8-2-.2v-.9h.2l8.2-1.1-14.9-3.6v-.9l4.5-.6 11.8 2.2 10.6-6 3.6-5.7-1.1-7.2-.2-.3-3.1-4.4-14-8-10.1-.5h.1l-5.8 1.5-2.3 4.8-.1.4-.1.2-1 5.5 2.7 9.2 8 7.6-2.9.4-.3.1-2.1.6-11.5-12.2-3.9-11.6 1.9-7.7-4.4-.2-3.7 7.5-.3.9-8.3-9.4 1.1-.1 3.2-.2 3.1.1 5.3-.5 8.4-.7 7-2.3 7.9 1.3 14.1 2.7.3.1 9 7.1-.5-5.1.9-.3 1.5 2.7 3.2 8.6.5 1.4-.1-.1 6.8 17.7.6 1.5 3.4 5.4v2.1l-.2-.3-1.4 18.6-5.6 2.7-1.8-6.9zM-3.6 411l-4.4-4.7 1.3 2.7 3.1 2zm-6.8-9.8l1.2-15.7-3.2 7 .1 4.8 1.9 3.9z"/><path class="st6" d="M5.2 420.8l-6.2-1.4-1.1-.5-.5-.2-1.1-.5-9.4-7.6-10.3-16.5-1.9-3.8-.3-.1.1-.5 3.8-7.8.1-.2.2-.2 6 .3-2.1 8.5 3.7 11.2 10.9 11.6 1.8-.5.2-.1 1.9-.2.4-.1 3 2.2-3.2.4 15 3.6v1l-11 1.4m1-26.6l4-.2.3-4.3-4.7-1.4-3.5.3-.1-2.8-2.6-1.7-.8-.4.2-.9 12.1.6 14.9 8.5-3.9 2.8-11 9.3-4.9-9.8zm6.4 5.4l3.8-3.1-2.2-.9-4.4 1.3 2.8 2.7zm5.4-3.9l1.3-.3 1-1.1-2.2-1.2-.1 2.6zm-3.5-1.1l2.4.9.1-2.9-4.5-2.5-.2 3.4 2.2 1.1zm10.3-2.3l.6-.7.5.4-.4.4-.4.2"/><path class="st3" d="M-13.3 397.6l-.1-5.2 4.5-9.6 1.4-.8-.5 1.2-1.7 21.6"/><path class="st3" d="M-1 413.7l-.3-.1-6-3.8-.1-.1-2.8-5.7.8-.5 9.7 10.3"/><path class="st3" d="M-10.6 403.6l.2-2.3 1.1 2.3-.8.5"/><path class="st8" d="M-9 383.1l.9.1-1.6 19.9-.9-.1 1.6-19.9z"/><path class="st4" d="M-8.6 390.7l.2-.5 2.7-5.6 6-1.6-.3 1-2.1 6.4-1 2.5"/><path class="st5" d="M-2.2 401.2l-1.5-8.6h-.2l.1-.5.8-2.1 2.1-6.4.2-.6.6.2 3 1.9.1 2.9.2.9-2.5 4.3 3.3 3.9-1.5.6-1.2.6-.4.2 11 11.3-2.2.1"/><path class="st1" d="M3.2 393l-.7-3v.1l-.3-1.1-.1-1.3 3.6-.4 5.6 1.7-.4 5.8-4.1.3"/><path class="st2" d="M-67.3 421.3L-68 401l13-4.5 1.8-1.8 3.9-3.5 2.4-1.9 5.6 3.7.3.2 2 .9 1.2.6-.3.1.2.2-7.8 8.6-2.8 9.2-.7.2-.6.2-3.9 1.1-.5.1-.9.1-7.3-5.2 2.8 12.3.1.6-7 4.8"/><path class="st9" d="M-.4 393.5l2.7-4.7.1-.2.6-.8 1.1 4.9-.4 5.3"/><path class="st10" d="M14.1 395.3l-2.7-1.3.3-5.6 1.1.7 1.3.9H14l4 2.9-.2 3.9"/><path class="st11" d="M17.1 393.5l-5.9-4.2 1.6-.1 9 4.9-2.1 2.1-2.7.7"/><path class="st4" d="M-27.7 394.3l-8.8.1-.2-.9 11.8-4.1 2.5 5"/><path class="st0" d="M2.9 414.5l-2-1.4-7.6-7.1-2.9-9.6 1.2-6.5.6.2L-3 392l.2.3 1.4 8.4 11.4 8.4.8-.1 5.8-1.4 11.5-11 .6-1.3.3 1.4 1.1 7.7-3.9 6.3-4.2-.2-6.9 6.3"/><path class="st11" d="M-.6 398.2l1.5-.7 1.2-.6.8-.3.3-4.7.6.3 3.5 2v.1l4.4 8.8 2.5 3.1 4 1.8-7.4 1.9"/><path class="st10" d="M13.6 407l-2.7-3.2-.4-.4 11-9.4 3.7-2.6.4.4 3.3 4.9-.1.3-.1.1-11.9 11.4"/><path class="st1" d="M-33.6 399.7l-4.8-4.1v.1l-.3-.2-1.6-1.1 1.1-.3 2.6-.6 10-.1-6.7 6.8"/><path class="st0" d="M-49.4 412.7l2.9-9.4 13.6-1.2-.1-.2h.1l-.8-2.4 5.9-6.1 5 .1 10.5 16.8-.3 1.1-.1-.1-1.9 7.3h.1l-.3 1.2-.6-.5-.5-.4v-.1l-10.2-9.5-12 6.1-5.8 10.9"/><path class="st5" d="M-38.7 394.7l.3-.3 5.6 4.7v.1l.1.2 1 3.2-.5.1-15.1 1.3"/><path class="st7" d="M8 396.5l6.2-1.9 4 1.6-5.6 4.6"/><path class="st3" d="M43.2 475.2l7.6-6.6-9.8-15.1-6 13.8-5.6-13.7 2.7-11.5-5.4 7.3-.1.3-.6.6-.3-.8-2.6-9.6-2.7-7.4-10.3-2.6-2 .2.4-.4-3.3.5 1.7-10 13.3.8 5.2 3.6 9.5-3.1 2.4 7.8-3.8.1-.7 2.1 1.5 5.4 1.7 6.5.1.4 4.7 7.2 6.4-10-6.1-1.6 4.7-9.9-4.3-8.2-3.4-5.3-.6-1.6-7.9-20.5 1.4.9 5.5 3.8.9.7 5 3.9 3.1 16.4-.1.8 12.8-4.6-1 3.5-1.7 6.2-.8 2.8-.3.1-6.7 1.2 7.4 12.8.9 19.2 2.5 14.9-.1.3h-.1l-7.2 4.4"/><path class="st1" d="M44.6 419.7l-3.1-16.9 8.6 2.7.6.2-5.2 14.1"/><path class="st5" d="M-.2 478.1L-1 470l-5.4-3.4-13.7-8.9-.7.6-5.1 5.2-2.4-.6-8.4-10-1.8 4.4-8.5-16.9 1.2 9.8.5 3.8-4.5 21.1-9.3-11 3.8-8.9v-.3l-1.7-13.5-3.8 2.7-.3-11.6-5.7 7.1-.6-18.7 1-.1.6 4.7 5.3-3.6-3.3-14.7 1.1.8 7.7 5.5h.7l.4-.1 3.8-1.1 1.3-.5.2.4 4.8 11.9 5.1-9.3 12.8-6.7 11.4 10.6-.4.3-.6.9-14.2 1.3-2.8 13.7.1-.1v.4l7.8-4.2.2-.3.2.2 14.1-2.2 6.9 1.3 8-.5v-.3h.4v-.1l5.9-.7-1.3 1.3-6.1 6.1-9.4-4.4-.1 5.9-6.9-1.5 1.2 14.3h.1l.1.5 9 .1 1.5 10.1.2.1v.3l12.8 9.5-.5 3.5v.4l6.8.4-5.7 9.1-3.6 3.5"/><path class="st1" d="M-15.8 419.2l2.7-9.8.6.8 10.1 8.1-12.7 1.1"/><path class="st11" d="M13.8 416.8l.8-.8 6.9-6.5 5.9.3-12.2 7"/><path class="st2" d="M-24.4 430.7l4.1-5.3 4.2-6 .8-.9 11.9-1.2 3 1.4-2.6 5.6 8.1 5 .6.2-.2.9-8.7.6-6.9-1.3-15.3 2.3"/><path class="st1" d="M-33.4 435.7l3-15 15.7-1.5-4.8 6.8-4.1 5.4-.4.5-9.6 5"/><path class="st4" d="M5 430.2l-9.1-5.5 2.8-6.2 6.6 1.4 2.4.3-1.6 9.8-.1.5"/><path class="st6" d="M33.3 437.1l-1.5-5.7 1-3 3.3-.1-2.1-6.5.4-.1 5.5-2v1.8l-6.2 17m1 4.8l5.2-2.5 1.5-21.2.9 1.4 4.4 8.5-4.3 9.3 6.1 1.6-7.2 11.4-.5.7"/><path class="st0" d="M11.5 471.5l-.1-.1-12.8-9.5-.1-.6-1.5-9.5-9.1-.1-.1-.9-1.3-15.6 6.9 1.5.1-6.1 10.2 4.6 6.1-6.3h.3l11 2.8 2.9 8.2-6.3 5.9 4.7 12.8-4.1 5.4.1.2-.6.9-.1-.2-5.5 6.4v.6M-65.1 452l-2.1-13.4.5-.3 6.4-8.1.3 12.5 3.8-2.5 1.9 14.9v.4l-3.8 8.7-.5 1.2"/><path class="st2" d="M-37.4 460.8l-8.7-6.2-.6-4.2-1.5-12.1.9-.3 8.8 17.4 1.6-4 10.2 12.2"/><path class="st5" d="M16.7 445.6l7-6.8.3.8 2.6 9.6.9 3.5-5.8 6.7"/><path class="st4" d="M20.9 501.2l1.4-15 6.8-9-6.3-11.3 3.8-13.4-.9-3.3.1-.3 6.8-9.2.9.4-.1.1-3 13.2 4.6 11.4 5.8-13.4L52 468.6l-.3.3-7.1 6.1 6.5 4.9 6.7-4 .4.5h.3l.9 14.8-20.7-2.3h-.1l-.9 4.2-7.2-5-2.6 11-4.3-8.8-.7 13"/><path class="st1" d="M-35.9 491.2l-14.7-16.7 4.5-20.9 9.1 6.6 1.1 1.3h-.1l2.9 3.5 4.8 5.8 2.8 3.2 11.1 18.2-11.5-5.1 1 8.4"/><path class="st2" d="M58.4 491l-.9-14.6.2-.2L74 453.1l.4 1.1 2.6 8-.9 2.4-16.7 27.5"/><path class="st1" d="M-3.4 479.2l-12.6-1.8 6.6-7.9-13 4.8.7-16 1.3-1.3 14.4 9.2 5.7 3.6.9 8.8-3.1.6-.4.1-.3.1"/><path class="st4" d="M-10.3 503.1l-4.5-10-1.1-1.5-.1-.2-10.3-16.9-2.7-3.1-4.8-5.8-4.8-5.9 1.5.5 9.1 2.3 1.7.4 5.6-5.7-.7 15.7 14.8-5.4-1.1 1.4-6.6 7.8 11.3 1.7 1.1 1 .8.8-5.1 7.4 7.6 13.6-11.6 2.3"/><path class="st1" d="M11.7 484.5l5.4-8.6-6.4-.4.7-4.6v-.1l6.5-7.7.4.9 1.5 7-.1 2.5 1 6.8 2.7 6.8m-.8-.1l-.5-.1.5-1.8.5 1.3.3.8"/><path class="st2" d="M21 501.2l-5.5-5.7-5.7-5.8-8.7 11.5H.9l-.1.1H.4l-.2-.3-7.5-13.5 5-7.3-.3-.3-1.4-1.4.8-.3 3.2-.5.3-.1 8.9 8.9 3.1-2.9 9.6 2.1-2.1-5.3-1.1-6.9.1-2.5-1.4-6.9v-.1l-.1-.3 4.2-5.6 5.1-5.9.9.4-3.8 13.1 6.5 11.5-7.1 9.4-1.4 15.3"/><path class="st5" d="M-25.8 495.2l-.1-.4-1.1-9.2.8.3 11 4.9.3.4 1.3 1.9-10.8 1.9.5.4"/><path class="st4" d="M.5 500.6l8.9-11.8.4-.4 7.1 7.3-.8.2-16.5 6"/><path class="st2" d="M-15.7 512.4l-.2-.1-20-21.1.5-.7 10.3 4 11.2 17.3.8 1.1"/><path class="st1" d="M-14.5 512.5l-11.1-17.3-.8-.7 12.3-2.1 4.6 10.4v.1l.1.1v2.7l-.3 9"/><path class="st6" d="M5.6 568l1.5-12.1-10.3-8.9v.3l-1.1 8.8-8.3-15.6-2.7-13.3 3.3-9 .4-1.1 1.1.3-.1.1 7.9.1 3.5-6.3v-.2l.1-.5 7.1-2 8.8 1.9-2.3-3.7 13-4.8.7-4.4 5.8-2.5 8 8-.1.3-4.4 7.1-3.8 8.9-.2.2-.9.6-.5.3-1.3 1-3.6-8.3h-2.5l-2.2.7.5 9.6-7-5.9-7-2.2v.1h-.2l-.1 10-3.6-1.6v.1h-.2l-1.5 5.5-8.8-.4 12 13.5-7.5 2.8 9.9 3.2.1-.1h.3l.1.1.6.3 6.9 3.3-.4 1-.1-.1-4.7 11.4 6.9 3-2.8 7.9"/><path class="st4" d="M41.9 520l2.2-5.5-1.4-5.6 8.4-5.1 2.5-.2 10.9 2v1l-11.8 2.8-1.4 2 12.5 1.6v-.1h.1l1.1-6.8.6-2.1.3-1.3 6.9 9.9-6.5 7-.5-.1-8.3-2.1-12.6 1.2-2.2 1.9"/><path class="st4" d="M44.3 518.2l.8-.4.2.5-.7.7"/><path class="st2" d="M49.7 512.2l.7-1.1 1.7-2.4 12.3-3 1.5.2-1.2 7.7-.1.4"/><path class="st7" d="M-12 518.5l.4-1 4.9-10.6 8.6 4.2-.2.4-3.8 7.1m81.7 48.6l-5.8-8.8-5.2-4-.9-.7-3.2-3.7-.5-.8-2.9-8.5-5.4-1.3-11.8-8-4 1.7-1.8-10.1-6 2.1 2.9-6.6-2.9 1.9 4.9-11.3.7 1.8.6 1.4.6 1.4.3.7.6 1.5.5 1.5.4 3.7 1.1-1.2.2-.2 2.8-2.5 1.5 4.3 4.3-.9 6.7-4.3 8.6 2.1 3.8 1 3.1-3.1.7 4.8 6-1.2 1.5 1.3 1.5-1.4 6 1.2.7-4.8 3.1 3.1 3.8-1 8.6-2.2 6.7 4.3 4.3.9 1.5-4.3 2.8 2.5.2.1 1.1 1.2.4-3.6.5-1.6.6-1.5.3-.7.6-1.4.6-1.4.7-1.8 4.9 11.4-2.9-1.9 2.9 6.6-6-2.1-1.8 10.1-4-1.7-11.8 8-5.4 1.3-2.8 8.5-.4.8-3.2 3.7-1 .8-5.2 4-5.8 8.8h-2.9v.1zm-4.8-18.7l5.9-2.9.3-.1h.1l.3-.1 6.1 3.1h.1l5.2-3.5 8.8-13-6.1-6.5-5.6-2.4-.1.1-2.2 3.5-6.1 1.7h-.2l-.3.1-6.1-1.7-2.2-3.5-.1-.1-5.7 2.5-6.1 6.5 8.8 13 5.2 3.3z"/><path class="st3" d="M-3.7 545.5l1.5-.5 7.2-2.8-12.5-14h1.4l8.7.4 1.7-6 .6.3 2.8 1.4.1-10 .8.2 7.6 2.4 5.8 4.8-.5-8.4 3.1-1.1 2.1.1 1-.1.1.3 3.3 7.6.5-.3.5-.4.9-.7 2.7-1.7 1.5-1-3.7 8.3L44 538.1l-2.6-.6-13.9-4.3h-.3l-.1-.1-12-1.3-1.8-.3-1.1-.1-8.8-.2h-.2l-1.8 4.4 14.9.2-2.1 8.6-4.6 4.9-.4.3"/><path class="st6" d="M44.3 518.2l-.3-.6 13.5-1.3.3.9-6.7 4.2-5.3 1.1m-3 15.2l-10.5-13.5 6.7-2.3 1.8 10 3.4-1.4 13.2 9-9.8.7m26.8 9.2l-5.5-3.7-9.3-13.8.3-.4 6.4-6.8 6.5-2.8 2.5 3.9 5.3 1.5v-.1l.6.1h.2l5.6-1.5 2.4-4 6.6 2.9 6.4 6.8.3.4-9.3 13.7-5.8 3.9-6.3-3.2-.1.1-.1-.1-6.4 3.2"/><path class="st4" d="M16.2 553l-7.7-3.7.5-.4 4.6-4.8 1.7-7.2-15.1-.2 2.6-6.4h.3l9.1.3 1.7.2.3.6 7.6 9.1v-.1l.7.7.6.5-.5.9h-.1l-5.6 10.9"/><path class="st1" d="M12.4 530.5l2.9.4 13 1.4-.7.7-5.2 8.3-.4.7"/><path class="st0" d="M59.8 553.4v-1l.1 1"/><path class="st0" d="M32.1 564.5l-.1-9.1h-.1v-.1l-8.7 2.6 3.3-11.2-4.2-4.7h-.1l-.8-.7.2-.4 5.4-8.4.5-.6 2.6 5.2L32 539l9.5-2.5 1.8.5 4.6 2.4 14.6 8.3 1.6.8.6.2.2.1.7 1.3-.7.4-4.7 2.6 7.4 5.8.5.3.3.2v1.9l-7.4 8.9h-.1l-2.3 3 .2.1-.7.9-.4-.1-.4-.2H57l-8.1-2.3-9 2.2-3.2.5"/><path class="st5" d="M29.4 537.7l-2.9-5.7 16.7 5.1-11.4 3"/><path class="st4" d="M62 548.5l-14.5-8.3.2-.9 8.3-.6 6 1.4 2.9 8.9.3 1.1"/><path class="st1" d="M23 557.5l-3.9-2.7-3-2 .2-.3 6-11.7.5.6 4.5 5-3.2 10.8-.2 1.2"/><path class="st7" d="M4.1 566.5l-.6-9.8-8.6-.9v-1.1l1.1-9.3.7.7L8 555.8l-1.7 13.5"/><path class="st2" d="M58.3 553.2l1.3-.7 5.4-3.1.3.3 3.8 4.5"/><path class="st3" d="M20 577.7l-5-2.6.2-.6 2.3-6.4-6.9-3.2 5.5-13.1L18 553l1.7 1.1 4.3 3-3 6.5.4 1.2.2.2.3 4.7-1.2 7.1.1.1-.1.4-.2.6"/><path class="st5" d="M67.5 560l-9.1-7.1 1.3-.6 8.5.7 1.2 1-1.3 6.4m-36.4 12.5l-7.3-2.1-3.6-5.3h-.1l-.1-.2-.9-2.2 1.6-.1v.1l6.9-.5-5.2-4.9.5-.8.3-.1 9.1-2.6v.6l.1 9.6 4.3 9.1.4.5-1.8 5.9"/><path class="st1" d="M67.4 561.2v-1.5l1.3-6.2 6.3 4.7-7.3 9.8"/><path class="st6" d="M-5.8 554.9l10 1.1.9 11.8"/><path class="st4" d="M20.1 563.2l3.2-6.7.7.8 5.4 5 .9 1-10.6.7m56.2 8.2l-8.3-4.2v-1.5l.1-.1 6.6-8.9 6.6 10h-.7l-1.5 4.1-.7 1.8-2.4.8"/><path class="st5" d="M60.2 569.7l8.1-9.8.3 6.6v1.9l-.2-.1-.3 5.8"/><path class="st2" d="M19.7 577.7v-.5l1.3-7.4-.3-4.5-.1-.1.9-.4 3.6 5.3 3 5.9 1.3 3.7"/><path class="st6" d="M80.9 579.5l-.2.1-3.6-6.6.7-1.8 1.8-4.7h3.1l1.8 4.7.7 1.8-3.7 6.7"/><path class="st1" d="M57.9 574l-.9-.2 3.7-4.8.5.3 6.1 3.3.3-5.6 9.3 4.5v.4l-.3 1.9-9.2 3m-4.1 11.9l-.4-.5-.8-.8-.1-.1-6.1-1.9-4.1 3.1-8.8-3.3 1.6 4.7-2.9-.5-2.3-.5-3.9-1.1-3.2-4-2.1-3.4-1.8-.8v-.3l-1.2-3-3.4-6.7 8.5 2.4 3.9 6.5.1.2-.1.1 2 2.8 4.7-2.6 29.2 4.2 9 5.6-.3.9-9.6-.8-.3-.2-.6-.4-2.2-1.3-1.1-.6-1.1 6"/><path class="st1" d="M51.3 587.7l.1-.1.6.8"/><path class="st5" d="M39.8 573.7h-.1v-1l9.2-2.2h.1l.1.1 9.2 2.6-7.9 4.7"/><path class="st1" d="M37.1 574.5l-1.1-1.1 3.9-.7.2.1 11.6 4.6-1.4.4-7.3 1.3"/><path class="st0" d="M40.7 599l-2.5.8 1-3-4.4 1.3 2.3-3.2-6.3.8 2.7-4.8-2 .8.6-9.5L36 587l.1.2.4.9h-.1l2.1 4.9 6.6 4.4-.5 1-3.5 2.4m18.4-3.3h-5.8l.1-4.8-6.8-1.4.7-.7 3.6-2.9 4.4-3.3 6.9 2.1 1 1.1.4.6 1.4 1.9 1-5.3 2.2 1.4 2.1 1.3.9.5.1.3 1.4 4.5.4 8-.7-.5-6.6-3.9-1.4 4.5"/><path class="st1" d="M64.9 605.2l9.9-4.8h.2l.5-.2.3 6.3v4.8l-3-5.3-3.1 6.4-.6-4.8-1.3 5.1"/><path class="st0" d="M207 192.1l20.3-11.8 12.8.9.1.9-5.4 1.3-6.9 1.3-2.3.8-10.8 6.5-7.6 1m34.3-10.9l-.2-.2-.8.1h-.5l-.1-.8 1.5-.4 1.6 1.5"/><path class="st0" d="M265.5 205.1l-2.6-2.3-.4-.4-6.1-10.5v-.1l-6.7-3.9-1.6-1.5-.5.2-3.5-2.1-3.7-3.4 11.1.8 6.7 4.4 5.9 8.5 2.9 11.7"/><path class="st1" d="M228.1 184.6l-.1-.9 6.7-1.2 6.8-1.7 4 3.8-1.1.1-.7.1-2.8.1-1 .1h-2.7"/><path class="st2" d="M254.1 191.8l-4.3-3.8.6-.8 6.9 4.1-1.3 2.6m-20.3-4.8l-11.8-4.1 3.8-1.2h.5l9 .4 2.6-.1h1.1l2.8-.2h1l3.9 2.4-9.3 3.9"/><path class="st3" d="M246.6 196.3l.7-2.1.3-.7-6-.1.3-2.8-4.2-.8 10.6-4.5 6.4 5.9 1.7 1.9-1.3 2.3-5 .2-4.4 3.3"/><path class="st4" d="M263.1 217.1l-1.5.7v.4l-.2.1-.5 2.9-4.9 3.3v-7.8l-.6-2.9-4.3.3-9.5-1.8-7-6.1-15.8-9-3.1 15.2-3.2 1.3-14.2 1.3-.1 8.9v.7l-.2.2-.1.1-1 1.1-14.2 3.2 6.1-9.3h-.1l.1-.1-4.9 1.1 9.1-11 2.1-2.4 3.7-4 .1.4 3.1-1.5-2.7 9.4.1-.1v.3l16.4-14.5h-.2l-8.5 1.8 7.3-8.1 10.9-6.7 10.6 3.7 3.5 1.1 3.5.7-.3 2.6 6.2.1-.6 1.9-.7 1.9 2.3-1.7 4.7-.2.9-1.6 1.4-2.6.3 1 2.3 7-3.5 1.7.3.1h-.1l5.3.5-3.6 2.5-2.1 7.6 9.2.2 1.3 23.6-.9.1"/><path class="st5" d="M198 204.3l-.5-4.3 9.5-8 8.9-1.2-7.3 8-.2.3-4.9 3.4-1.7.9-.2.1-3.5 1.8"/><path class="st2" d="M254.4 211.6l.4-.7 2.3-8.2 1.9-1.4-6.5-.5 1.8-.9 4-2-1.9-6.1.8-.5 6.1 10.6v.2l1 6 .7 3.1v.6m-34.5 10.5l2.1-5.3 4.4-3.9-22.3-.6 3.5-16.8 16.9 9.7 7 6 9.2 1.8v.9l-7 1.8-11.1 3.3-.5 2.2-.2 7.2-1 .1"/><path class="st3" d="M198.1 213.1l2.9-10.2.2-.2 1.8-.9 4.8-3.4.3-.2.2-.1 2.5-.6 4-.8 4.2-.9-21.4 18.9"/><path class="st0" d="M168.8 229.3l13.8-15.7 15.7-14.4.7 5.4-.2.2-3 3.2-2.1 2.5-8.2 9.9-7.8 5.9-8.3 3.8"/><path class="st5" d="M266.3 244.3l-1.5-4.6.4-4.9.1-.2-1.3-23.1-.6-3.1-1.2-7.4 4.5 4.1 2.3 15.4-.5 20.1-1.8 5.6"/><path class="st1" d="M181.9 244.1l.2-.4 4.7-7-.2-.4 8.8-9.8h-.1l1.1-1.3 1-1.1.8-.6v.1l12.8-9.7h-.1l1.3-1.1 3.1-1.3 24.2.6-6 5.4-2 4.7 1 6.2.2 6.8-9.4 4.8-6.7 12.2-1.2 1.5-.7-.4-8.9-4.2-15.4 8.8-8.5-13.8zm20.9-5.3l-2.8 3.6 14-2.3 1.4-2.3-4.1-9-8.5 10z"/><path class="st3" d="M244.6 291.1l2.4-4.4.1-.3-2.5-1.6-1.1-.1-.4-.2.1-.5-3.6-1.5-.2-1.3-5.3 3.2 1.6-8 1.7-3.1.1-.2-3.8-1.8-.5 4.5-1.3 1.5-5.1-2.7.2.5-.3-.2 1.3 3.4-6.7-1.6.5.6-.6-.2 4.7 6-2.5 2.8v.2l-.8.8-.6-1.5-3.4-8.6-1.8-2.4-6.2-7.8-1.1-1.3v.1l-1.1-1.4v-.1l-.4-2 15.4-3.3h.2l.2-9.7 5.5-2.9 6.7-2.4-3.6-9.1.4-.2 11.2-6.6-.2-7.5.1-4.3v-1.1l7.3-1.9 5-.3.2.4.7 3.3-.1 6.5 3.3-2.5.5-3.1 3.1-1.4 2.4 18.9-.4 4.8-2.9 11-4 .7.6 5.2-10.4 15.3v.4l-.1.1v1.2l-6.1 4.1h.9v.5l2.4.1 1.2 3.3-.9 1.8.1.1-.1.2 2.2 1.6-.9 5.1-.3 1.9-3-1zm-1-24.6l2.3-1.5-7 .1 4.7 1.4zm-3-5.7l10.9-3.4 7.3-6.4-5 .8-7 .9-6.4 7.1.1.1-.3.4.4.5zm18-21l-2.8-2.8 5.1-1.5-5.7-.5 2.6-2-1.6-.4v-.1l-1.9 4.7-.9 1.3 5.2 1.3z"/><path class="st2" d="M197.2 223.8l.2-9.6 14.8-1.3 1.7-.1-16.7 12.7"/><path class="st4" d="M231.5 228.8v-.2l.3-7.3.6-2.7 12.3-3.7-.1 5.5.2 8-11.7 6.9-.5.2-.1-.1-.8.3"/><path class="st3" d="M174.1 264.3v-.4l1-.1v.6l-.1.1m-46.3 1.7l-.1-.1.1.1"/><path class="st3" d="M8.5 273.2l-9.3-.9h-1l-.5-.1v-.9l-10.5-7v-1.4h-.3l-.3-1.1.3.1-6.9-17.1-.2.2-.4-.8-4.9-7.4.6-1.2.1.1 3.7-6.5-.5-.1-.2-.3-6.7-10.3 5.8 1.4 7.8 5.9 12 15.3-6.4-1-3.1-3.5-3.1 13.1h.1v.2l9.5 1.7 1.4 11.3.1.2 12.2 6.5 8.8 6.6-1-2.2-1.4-4.3 2.3-9-.5-1.5-.9-2.2-3.5 7.1-.9-1.6-3.8-6.8-.6-1.1 8.8-.1 17 .4 47.9-4.6.9.1h.2l1.1-.1 48 4.6 17-.4 8.7.1-.5 1.1-3.8 6.7-1 1.6-3.4-7-.9 2.1-.5 1.6 2.3 9-1.4 4.3-1 2.2 8.7-6.6 12.3-6.5v-.2l.1-.1 1.3-11.3 9.6-1.6v-.2h.1l-3.2-13.1-3 3.5-6.4 1 12-15.4 7.8-5.9 5.7-1.4-.5 1-6.1 9.4-.2.3-.5.1h-.1l3.8 6.4.1-.1.6 1.3-4.9 7.4-.5.8-.1-.3-6.9 17.1.3-.1-.3 1.1-.3.1-.1 1.3-10.4 7.1v.8l-.4.1h-1.1l-9.3 1-2.5 9.5-15.8-6.3 5.4-8.6-.2-.1.1-.1-4.5-3.1-7.7 2.1-4.4-.2-.2.2-.4-.3-1.6-1.5-11.1-3-.3.1-1.3-.6-3.7-1.1-3.1 2.6h.3l-1.3 1.3-.5.1-5.5-.3-.2.1-.5-.1-13.2 2.5v.2l-.6-.1-13.5-2.6-.6.1h-.2l-5.4.3-.5-.1-1.3-1.4.3.1-3.1-2.7-3.7 1.1-1.4.7-.2-.1-11.1 2.9-2 1.9-.2-.2-4.5.2-7.6-2.2-4.5 3.1.1.1-.2.1 5.4 8.7-15.9 6.2"/><path class="st8" d="M81.6 250.8h-1 1"/><path class="st2" d="M182.2 229.1l.6-.8.7-.1 13-3 1.6-.4-10.8 12-.4.5"/><path class="st1" d="M160.9 237.1l8-7.7 8.4-3.9.6.7-11.3 14.5-.7 1-12.1 4"/><path class="st5" d="M202.1 238.1l9.5-11.1 4.9 10.8-1.8 3.1-16.8 2.7"/><path class="st6" d="M251.8 239.1l1.7-2.3 2.7-6.5.9.1v1.5l2.8.8-2.2 1.6 5.7.5.1.9-5.9 1.8 4 4"/><path class="st2" d="M222.4 239.5l9.5-4.8 1.1-.5.3.6 3.8 9.5-1.1.5-10.6-5.3-.6 8.2-10 5.7"/><path class="st6" d="M144.7 276.2l1.1-2.7 1.4-4.2-2.3-9 .5-1.6 1.2-2.7.6-1.3 3.5 7.3.1-.2 3.8-6.7.3-.6.3-.6 10-12.9.7-1.1h.2l5-.8 4-4.7 3.9 15.9-.7.1-9.3 1.7-1.4 11.3-.2.1-12.4 6.6-11.4 8.7"/><path class="st4" d="M214.4 253.3l1.3-1.5 8.2-4.6.7-9.2 12.6 6.3-7.6 2.8-5.1 2.5-.2 9.9-1.1.2m23.6 21.6l-1-2.9-2-.1-3.8-.1 8.1-5.5.1-1v-.5l10.5-15.4-.4-3.5-6.3 5.5-11.5 3.6-1.1-1-.5-.4 7.4-8.1 7.3-.9 8.6-1.5 2.6-10.1.4-1.4.5 1.4 1.6 4.9-6.5 14-4.8 9.6-.3 1.7-.4 1.6h-.9l-.1-.4-.2-1.6-1.3 1.8-.3 1-1 3.1-3.1 7.1"/><path class="st3" d="M155 254.1l-1.4-9.4 1.5-.4 11.8-3.9-11.7 15"/><path class="st4" d="M182.1 242.6l.7 1.1 8.1 13.5.3.5-17.4 5.6"/><path class="st2" d="M146.3 255.1l8.1-11.3 1.6 10.4-.5 1"/><path class="st5" d="M213.7 254.6h.1m-24.9 39.6l-7.4-2.3 1.1-12-.1-.3-.9-1.5-4.7-8.5 13.3-12.5 15.5-8.9 9.9 4.7-1.1 1.6-.4.5-12.8 4.7-4.9 6.2 13.9 8-11.1 8.4-1.4 10.5-12.1 9.1"/><path class="st2" d="M213.4 254.3l.3-.4 1.1-1.5.6.5 9.1 6.6-17.2 3.7"/><path class="st1" d="M186.7 352.7h-.3l-.3-1 .7.1 1.6.2-1.4.7h-.1m27.8-52.6l-1-.2 1.2-1.1.3.6.3.8"/><path class="st1" d="M182.1 337.2l15.4 7.5-.1-.1-9.2-18.3-6.8-10.3-.2-2.5.3-6.7-5.3.6 1.2-1.7 1.5-2.3 1.8-3.1-6-3.8 5.8-4.5.1-.1-8.1-5 5.9-4.4 5-4.1-1.2 12.5 7.6 2.4-2.3 5.6 9.2-6.9 1.4-10.5 10.3-7.8-13.7-7.8 5.7-7.2 14.3-5.2-.8 1.2-5.4 7.7.3 1.4 1.2 8.2-1 14 5.9 13 13.1 2.6-.5.6-9.1 10.4-.3-.3-12.7-4.2-3.5 2.8-3.8 9.8.3 6.3 9.1 11.4 7.7 10.3-16.1-2-12.9 6-4.1-15.5zm6.3-25.6l-1.5-6.5-3 1.2 4.5 5.3zm17.8-5.4l7.7-6.3-13.9-2.7 6.2 9zM174.1 264l.1-1.8 16.1-5.2.5.8-13.4 12.6"/><path class="st4" d="M105.4 259.1l7.2 2.2-1.9.5-9.1 2.1-2.2.4"/><path class="st2" d="M91.4 271.5l1.3-7.8 2.5-.7h.2l5.6.3.1-.1 9.5-2.2.3-.1 11.5 3 2.4 2.3-12.4 4.9-6.4-.6-8.7 4.3"/><path class="st4" d="M235.8 265.1l.2-.9 13.2-.1-5.4 3.5M214.6 300l-6.2-13.7 1-14.1-1.2-8.1-.2-1.6 3.3 3.9 6.2 7.8 1.9 2.5 3.4 8.7.2.7 1.3 5.5 11.5 3.7v-.2l.2.1 2-6.1 6.4 6.2-15.5 3-11 2.3"/><path class="st2" d="M173.8 297l-.5-.6-4.1-2.2 3.7 7.7-7.4-1.5-1.9-11.3-.7-1.1-6.9-6.3-5 .8-.5-.2.1-.4 2.4-9.6 10-1h1.1l3.8.1-2.7 3.5 8.7 1.1v-.1l.1-2.5.1-9v-.4l.9-.3 2.9 5.7 4.5 8.2 1.3 2.2-1 .8-3.6 2.9-4.8 3.6 8.1 5-.6.5-5.3 4.1 5.6 3.6-2.3 3.9-1.5 2.3-.8 1h-.4l-1.3.3"/><path class="st4" d="M174.2 276.8l-10.6-1.4 2.6-3.3-4.5-.1 13.3-9 .1 1.3-.1 9.1-.2 3.5"/><path class="st2" d="M149 329.3l-4-4.3-7.6 3.2-3.9 1.2 6.9-10-6.1-7.7-8.4 10.2-3.6 2.3-6.3 1.3-1.3.2.7-3.2.8-4.9-11.6 2.5L93 308.4l-2.9 7.4-.9-.2-1.6-17.3 6.7-13.9.5.5.1.2 4 9.5.7 2 1 2.7 7.9.8 13.6-2.1 1.6-11.6.1-.8-1-4.3-2.4-4.4-1.8-3 15 .9-5.4-8.5-.3-.5 8.6-2.5 5.5 3.9-.3.5-5.3 8.5 6.1 12.3 8.7 10.7 9.5 5.5-1 6.7 6.8 9.7-10-3.3V328l-6.5 1.2.1.1-.8.1"/><path class="st1" d="M99.9 300.2l-1.1-3.3-.8-2-3.9-9.4-6.3-5.6-1-.7.2-.4 4.7-8.3.4.2 5.2 2.9 8.5-4.1 6.4.6 11.5-4.6v-.1h.3l4.9.2 6.5 10.3-15.1-.9.9 1.4 2.5 4.6 1 4.5v1l-1.8 12.4-14.4 2.1"/><path class="st2" d="M255.6 279l-.6-.8v-.3l-.5-6.1-.1-.6.9-4.6.6 1.4.1.1 2.2 13.4-.8.3"/><path class="st3" d="M255.3 298.7l-.1-3.3-1.6-20.2-1.7-4.3 2.8-4 .6 3.7.1 1 .6 6.3h-.1l1.3 8.2-1 12.6"/><path class="st2" d="M236 296.2l-12.3-3.9-1.3-5.8-.1-.4 2.5-2.8-4.8-6.2-1.3-1.5 7.9 1.8-1.7-4.5 6.7 3.5.6-.7.5-4.4.4-1 5.6 2.8-.4.7-1.8 3.3-1.1 5.8 4.7-2.8.4 2.1 4.6 1.9-.2.9-1.5-.1-8.1-.1h-.1l3.5 4.9.2.2-2.2 6.5-.7-.2zm-10.1-14.1l2.3-2.6-3.6-.1 1.3 2.7z"/><path class="st7" d="M247.5 282.1l3.2-7.2 1.4-4.9.6.8v.1l1.8 4.2-1.2 9"/><path class="st6" d="M250.7 301.3l-.2-8.4-3.3-1-.4-.2.2-1.6.9-4.9-2.5-1.8 1.2-2.3.3-.6 1.4.8 4.2 1.4 1-7.7h1l1.5 21.4-3.3-3.3v.2l-.2-.2-.9 8.2"/><path class="st4" d="M198.2 345.8l-15.8-7.7v-.2l-4.1-10.6-5.8-2.9-2.8 15.7-17.1-3-1.1-.3-2.5-7.7-.3-.6 6.8-1.2.1-10.8 8.6 2.9-5.5-7.8v-.2l1-6.3-9.1-5.3-8.9-10.9-6.6-13.4.8.1h.4l14.8 5.9 5.2-1 7.4 6.8.7 1.3 1.8 10.9 5 1-4.2-8.7 6.8 3.8.7.7 2 10.3.5-.1 5.6-.7-.1.8-.3 6.9.1 2.2 6.8 10.1 10.4 20.6"/><path class="st5" d="M256.2 286.2l-1.3-8.4.9-.3.6.9 1.9 2.9.4 15.9-1 .1"/><path class="st3" d="M223.1 278.5l7.2.1-4.6 5.2"/><path class="st1" d="M243.5 301.5l-.5-5.4v-.9l-5.1-5-.1-.1-4.5-6.3h1l9.3.1 1.2.1 3.5 2.2-.4.6-2 3.8 1.5.5h.1l4.2 1.3-7.6 14.2"/><path class="st4" d="M246.3 315.2l.3.1 2.6-9.2.9.1.2 2.7 5-9.7v-.5l.9-12.6h1l1.5 11.2-2.6 9.9-9.8 11.2"/><path class="st7" d="M249.7 310.2l-.4-4.2 1.5-4.5 1-9.2v-1.4l4 4 .4.3v3.6l.1.8-6.4 12.2"/><path class="st2" d="M246.6 316.3l-1.5-.6.1-.4-1.3-10.3v-.2l7.5-14 .3 10.9-1.6 4.5-.1.2-2.8 10.1"/><path class="st3" d="M244.6 317.2l1.3 1.1-2 .5"/><path class="st3" d="M218.3 312.6v-.1l-.3-.3 8.5-9.7-8.7-1.8v-.9l10.9-2.3 15.2-2.9v1.8l-3.3 2.9-6.8 8 11.8 10.8-13.2 4.7-5.9 2"/><path class="st4" d="M244.7 318.2l-12.1-11 7.3-8.6 3.2-2.9.8-.8.6 6.4.4 3.7 1.3 10.4-.1.1-.6 3.5"/><path class="st5" d="M198.8 296.7l-.6-1 17.6 3.5-.7.6-.4-.3.3.4-9 7.4m-23.6-1.3l5.2-2.2 2.1 9.4-.8.5"/><path class="st4" d="M197.8 327.5l-.3-6.7 3.9-10.2 4.1-3.3 13.3 4.4.5.5-.3 1.4-2.3 14.4 5.3 5 .3.5-.5.2-6.9 3.2-7.6 2.5"/><path class="st1" d="M73.2 350.2l-1.1-13-1.1-2.7-3.2-6-1-1.8-3.3-6.5-7-.1 12.6-12.7.6-.5 3.4 8.7 8 18 8.1-18 3.4-8.8.6.6 12.6 12.6-7 .1-3.3 6.6-1 1.8-3.3 6-1.1 2.7-1 12.9-.9.2-7-12.4-7.1 12.4m39.3-19.6l1.4-5.5.1-.4.9-.1 6.2-1.2 3.3-2.2 9-10.9.4.5 6.8 8.5-6.6 9.6-7.2 4.1-8.1 10.1"/><path class="st6" d="M222.6 335.7l-.1-.2.9-.3.1.1-.8.5m-.1-.1l-1.1-2-.3-.3-5.5-5.2 2.7-17.2.7 1.1 7.8 11.5 5.2-1.8 12.4-4.5 1.1-.2-.5 1.1-7.9 18.2-5.9 5.9"/><path class="st5" d="M113.5 330.7l-1.9-2.6-4.7-5.8-12.5 4.9 4-8h6.4l11.8-2.5.8-.4-.2.9-.1 1-.8 4.4-.6 2.7-1.6 6.6"/><path class="st0" d="M112.7 360.5l-4.6-6.3v-.3l-.2-4.7-8-.1-10.7-12 1.2-2.9 3.3-6.1 1.2-2 .3-.2 11.9-4.6.3.4 4.9 5.9 2 2.7 5.9 12.1.1.1.1.1.1.3v.7l-.1-.1.3 8.9-6.4 9-.2.2-.3.4"/><path class="st2" d="M186.7 352.7l-10.6-2.8-2.8-2.1-4.4-8.1 3-16.5 7 3.4.2.2 4.1 10.8.1.3 4.1 14.6-.4.2h-.3"/><path class="st1" d="M137.3 329.2l-.4-1-.3-.7 8.6-3.6.2.2 4.4 4.6 2.9 8.8"/><path class="st5" d="M135.3 342.7l-8.5-10.1 7.7-4.4 3-.9.2.6.4.9 3.7 10.2-.2.2-6.1 3.7"/><path class="st0" d="M164.2 374.6l-1.1-1.6h-5.2l.6-1.6 1.4-8.6.9-1.4 11.1 2.4-11.4-11.3-13.7-.3-5.7-5.8-.3-7.5-4-10.9 15.3 8.2 1 .4 1.6 6.3 5.5-5.2.4.1.2.1 6 6.2 7 3.1 2.8 2.1 3.1 6 8.9 7.3 4.9 12.9-8.3 3.5"/><path class="st2" d="M228.1 347.1l-13.4 1.7h-.3l-7.7-10.2 7.9-2.6 7.2-3.3.3.3 1.3 2.2.1.2 2.7 7.2 1.6 2.9.7.1 4.8.1h.1l1.6-.1.9-5.3 1 .1-.6 5.1 4.6 11.7m-111.2-9.5l-.1.1-.2-.2-9.6-4.2-.2-.1v-.1l-.5-.8.2-.2 8.2-10.2 8.2 9.7 6-3.7.4 8.3v1.4l-.2-.2-.2 10.7"/><path class="st3" d="M228.4 346.6l-1.2-.4-1.8-3.2-3.4-8.9 9.2 7.1 6.3-6.1-.6 5.3-1.1 6.1-2.5.1"/><path class="st1" d="M166.2 344.7l-7-7.2 10.4 1.8 5.1 9.3"/><path class="st1" d="M152 336.2l9.3 1.6-7.1 6.6"/><path class="st1" d="M159.4 338.5l.5-.7.5-.4.3.3 1.2 1.2"/><path class="st5" d="M88 350.7l.1-.6 1.2-14.1 10.9 12.3 8.6.2.3 5.3-.1 1.6-.4-.5-3.7 5.9h-.4l-4.3.7"/><path class="st1" d="M114.2 361.6l-.1.1-.9-.3.3-.5 6.2-8.8-.3-9.8.7.2 10.5 4.6-8.2 4 9.1 3.6-2.6 10.5"/><path class="st5" d="M187.8 363l-8.9-7.1-3.6-7.1 11.4 3.1 12.6-5.9 15.3 1.9 13.7-1.7 11.8 9.2.7.3-.5 2-12.1 3.1-13.2-10.6-.6.1-9.9 18-11.8 7.6M161 362.3l-.4-.1-6-7.4v.1-.1l-8.4 8.2-.6.5-4.9-6.1v-.4l.3-12.1.9 1.1 5.2 5.2 13.6.3 12.7 12.6.8 1.1"/><path class="st0" d="M219.3 368.7l-2.4-.3h-13.4l10.4-19 1.4-.3 13.2 10.6 12.2-3-3 19.3h-.4l-4.3.2-4.7 1.1"/><path class="st2" d="M106.4 367.3l-9.1 3.5-3.8-7.6-7.7 2.7-1.1.3 3.5-16.7.6.6 11.7 10.4 3.9-.7h1.9l-.2.1h1.3l-.3 5.4 6.3-4.3.1-.2.4-.4 14.8 3.7.8.1-3.8 7.7-8.9-2.2-5.2 3.1"/><path class="st1" d="M143.2 378.1v-.2h-2.3l2.2-2.1 2-1.8-3-4.2v.1l-.8-1.1.2-.4 4.3-4.7-.7-.8.4-.4 9.1-8.9.4.3 6.4 7.9-.9 1.4-2.2 3.1-3.8 5.4-1.1 4.9-1.2 1-1.6.1.1-.1-6.2.4-.6.1h-.7zm10.8-8.4l.7-6.6-7.5.8 6.8 5.8zm-47.9-3.5l.3-5.3h-3.6l1.5-.9 4.3-6.7.4.6 4.4 6 1.1 1.4-.3.4-8.1 5.6"/><path class="st3" d="M130.7 354.7l11.4 3.9-4 5.7-3.6 4.2"/><path class="st6" d="M134.3 367.6l3.1-3.8 4.5-6.4-.5 10.8-6.7 8.4"/><path class="st5" d="M153.7 371.2l3.9-5.5 2.3-3.1.8.3-1.3 8.7-.1.5h3.3l-1 1.5-.2.4-.7-.2-3.3.3-2.1 1v.1l-2.9 2.1m80.8 11.4v-.1l-6.5-9.8-7.2 6.8-11 3.4-3.4-14.6-1.5-6.8H217l2.6.3 8.9 8.5 4.4-1 4.7-.1-3.7 14.6"/><path class="st2" d="M196.5 378.7l-10.2 1h.1-.3l2.2 1.5-.3.9-5.9-.6 2.8-3.4 7.8-3.4 11.8-7.5 1.5 6.9 3.4 14.5-.1.1.8 2.5m-78.6-10.4l-3-8.1 1 .4 9.9 4.4 2.4-10.1 4.6 6.6-.8.8-1.8 1.6-.6.5h1.3l.1.9-1.2.2-6.8 6-1.9 3.4m19.7-11.4v-1.3l2.9-1.5.8.7 2.7-.8.7-1h2.1l1.6 2.2-11 5"/><path class="st2" d="M107.5 393.1l-.2-.5-.2-.6.8-1.9h.4l8.8-1.4 1.5-8.9 6.7-8 1.8.4.2.1 2.6 1.1-2.3 5-2 4-7.9 9.1-5.5 15.7"/><path class="st6" d="M156.9 374.1l-.7-.7 1-.1 4.7-.4-.5.9-.2.2-3.3.9"/><path class="st3" d="M145.3 381.8l1.4-1.1 5.1-4 1-.8 2.6-1.9v1l-.2 2.8 9.2-4.2 21.7 4.6-3.1 3.5-8.7-.7-6.9-2.3-7.6 1.3-14.2 2.7"/><path class="st5" d="M117 391l7.9-9.1 4.5-9.6.3 1.2 2.6 7 3 6-.2.3-3.1 8.4-.2.2-5.4 3.9-5.9 4.5-9 2.8"/><path class="st4" d="M135.7 383.7l8-6.5.7-.1 9.1-.6-1.2 1-6.5 5.2-.2.1-10.6 8.3"/><path class="st1" d="M216.7 397.3l-1.9-1.9-3.8-3.6-2.2-1.7-.7-2.1.7-.2 10.2-3.2 7.9-7.4 7.3 11.2-4 13.2"/><path class="st3" d="M198.5 394.3v-.1l-11.1-3.8h-.1l-.6-.1.2-.6.1-.2.1-.1.5-.4v.1l6.5-7.3.1-.2 1.5-2.8.3-.7.3-.6.5.4 13.1 12-5.8 3.8-.4.2-.2.1-2.1.9"/><path class="st6" d="M191.4 382.2H188l-.3-.2-4.2-2.8 1.5-.3 12.3-1.1-.4.8-2 3.7"/><path class="st7" d="M162.6 384.2l-.3-.1-.2-.6.5-.2.4-.2.4 1.3"/><path class="st7" d="M121.5 441.2l-1.4-18.6-.2.3v-2.1l.1-.1 3.3-5.3.6-1.4 6.8-17.7-.1.1.5-1.5 3.1-8.4.1-.2 1.4-2.6.9.3-.5 5.1 9-7.1.3-.1 14.1-2.7 7.9-1.3 7 2.3 8.4.7h.1l5.3.5 3.2-.1 3.3.2.9.1-8.3 9.4-.4-.9-3.7-7.5-4.4.2 1.9 7.7-3.9 11.6-11.5 12.2-2.1-.6-.3-.1-2.8-.4 8-7.6 2.7-9.2-1.1-5.5v-.1l-.2-.4h.1l-2.3-4.8-5.8-1.5h.1l-10.1.5-14 8-3.1 4.4-.1.2-.1.1-1 7.1 3.6 5.7 10.6 6 11.8-2.2 4.5.6v.9l-14.9 3.6 8.2 1.1h.1v.9l-2 .2-12.6.8-5.4 3.7-9.6-3.1-4.2-1.5v.4l5.6 15.7-1.9 7.1-5.5-3.1zm44.4-30.2l3.1-2 1.3-2.7-4.4 4.7zm6.8-9.8l1.9-4 .1-4.8-3.2-7 1.2 15.8z"/><path class="st6" d="M146.1 419.3v-.9l14.9-3.6-3-.4.8-.7 2.1-1.5h.3l2 .3h.2l.1.1 1.6.4 11-11.6 3.7-11.2-2.1-8.5 6-.2.2.3 3.9 7.8.2.5-.5.2-1.8 3.8-10.4 16.5-9.4 7.5-1 .5-.5.3-1 .4-6.3 1.4h-.2m-16.7-26l-3.8-2.8 14.9-8.5 12.1-.6.2.9-.9.4-2.5 1.6-.1 2.8-3.4-.3h-.1l-4.7 1.4.3 4.3 4 .2-4.9 10-11.1-9.4zm9.5 4.8l2.8-2.7-4.4-1.3-2.2.9 3.8 3.1zm-5.4-3.9l-.1-2.6-2.2 1.2 1 1.1 1.3.3zm1-.1l2.5-1 2.1-1-.2-3.4-4.5 2.5.1 2.9zm-8.5-3.2l-.5-.3.5-.4.7.6-.2.3"/><path class="st3" d="M170.3 383.2l-.6-1.5 1.5 1 4.4 9.7v5.2l-3.6 7.2"/><path class="st3" d="M162.9 412.7l8.8-9.3.7.5-2.7 5.7-.1.1-6 3.9-1.9.3"/><path class="st8" d="M171.2 383.1l1.6 19.9-.9.1-1.6-19.9.9-.1z"/><path class="st3" d="M171.6 403.5l1.1-2.2.2 2.2-.5.6"/><path class="st4" d="M164.4 390.3L162 383l.8.1 5.2 1.4 2.9 6-5.5 2.2"/><path class="st5" d="M150.4 409.8l11-11.4-.4-.1-1.2-.6-1.5-.7 3.3-3.8-2.5-4.4.2-1 .1-2.7 3.6-2.3.1.6 2.2 6.6.9 2.4-.2.1-1.5 8.6-11.9 8.8"/><path class="st1" d="M151.3 394.7l-.3-5.9 5.5-1.6h.1l3.6.3-.1 1.3-.3 1.1-.1-.1-.6 3.1-3.6 2"/><path class="st2" d="M221.8 422.2l.1-.7 2.8-12.1v-.1l-7.3 5.1h-.8l-.6-.1-3.9-1.2-.7-.2-.3-.1-.2-.1-.2-.2-2.7-8.9-7.9-8.7.3-.2h-.4l1.3-.7 2-.9.4-.2 5.5-3.6 2.4 1.8 3.8 3.6 1.8 1.7 13.1 4.5-.7 20.3-.8 5.7"/><path class="st9" d="M158.2 392.7v-.1l1-4.8.7.9 2.8 4.7-4.1 4.6"/><path class="st10" d="M144.3 392.8l4-2.8-.1-.1 1.2-.8 1.2-.8.3 5.6-2.7 1.4-3.8 1.4"/><path class="st11" d="M142.5 396.2l-2-2.2 9-4.8h1.5l-5.8 4.3.1 3.4"/><path class="st4" d="M81 501.7l-12.2-2-9.6-7.9.5-.8 12.1 4.1 8.4-.6.7.1.2-.1h1l8.4.6 12.1-4.1.4.8-9.5 7.9-11.9 1.9v.2M55 461.7l-.9-19.1-7.8-13.5 7.5-1.4.1-.2.7-2.2 1.7-6.2.5-1.9-12.4 4.6.1-2.3.2-.3 4.8-12.9h-.1l.2-.7 4.6-13.9.7.4 2.1 1.7 10.6-4.8.9 6.7 9-3.4 3.6 5.6 3.7-5.6 9 3.3.9-6.6 10.6 4.7 2.1-1.7.6-.4 4.9 14.6-.1.1 4.8 12.9.1.3.2 2.2-12.4-4.5.5 1.9 1.7 6.1.7 2.3v.1l7.6 1.5-7.9 13.5-.8 19-2.8 16-16.2-22.9-.8.2.1-.4h-6l-.5.1h-6.4l.1.3-.8-.1-16.2 22.8m129.3-88.1l.4.1 11.4 3.9-.1.9-8.8-.1-.1-.4v.4l-5.2.1"/><path class="st0" d="M140.3 410.3l-4.2.2-3.9-6.2v-.2l1.3-9 .7 1.3 11.5 11 5.8 1.5h.8l11.4-8.3 1.5-8.7.2-.1 5.2-2.1.1.6 1.2 5.9-2.9 9.6-7.6 7.1-2 1.5-12.3 2.3"/><path class="st11" d="M144.1 408.1l4-1.9 2.5-3v-.1l4.4-8.9.2-.1 3.9-2.2.3 4.7.8.3 1.2.6 1.5.7-11.4 11.8"/><path class="st10" d="M133.5 397l-.1-.4.1-.2 3.3-4.7.3-.4.4.3 3.3 2.4 10.9 9.3-.3.4v.1l-2.7 3.2-3.2 1.4"/><path class="st1" d="M188.8 393.5l10 .1 2.7.6 1.1.3-1.8 1.2h-.1l-4.8 4-.3.5"/><path class="st0" d="M200.3 415.5l-11.9-6.2-10.3 9.5-.2.3-.8.8-.3-1.3h.1l-1.9-7.3-.1.1-.3-1 .1-.3 10.4-16.6 4.9-.1.2.1 5.8 6-.8 2.4v.1l13.5 1.2 3 9.5-5.5 13.6"/><path class="st5" d="M194 402.7l.1-.6.9-2.8.1-.1.1-.1 5.5-4.7.4.4 8.4 9.2"/><path class="st7" d="M144.1 396.1l4-1.5 6.2 1.8-4.6 4.4"/><path class="st3" d="M103.9 476.7l-.1-.2v-.3l2.5-14.8.9-19.2 7.4-12.7-6.9-1.3-.2-.3-.7-2.5-1.7-6.2-1-3.6 12.8 4.7-.1-.8v-.1l3.1-16.2 5-3.9.9-.7 5.4-3.8 1.4-.9-7.8 20.4-.6 1.5-3.4 5.5-4.3 8.2 4.6 9.9-6 1.5 6.4 10 4.7-7.2.1-.4 1.7-6.5 1.5-5.4-.7-2.1-3.8-.1 2.4-7.7 9.5 3 5.2-3.5 13.3-.8 1.7 10-3.3-.5.4.4-2-.3-10.4 2.6-2.7 7.5-2.8 10.4-.7-.8v-.1l-5.4-7.3 2.7 11.4-5.6 13.8-6-13.9-9.8 15.1 7.6 6.6-7.9 6"/><path class="st1" d="M116.7 419.7l-5.1-14.1.6-.1 8.6-2.7-3.5 18.4"/><path class="st5" d="M149.5 484.1l-5.7-9.1 6.7-.4v-.4h.1l-.5-3.4 12.8-9.5v-.4l.1-.1 1.6-10 9-.1v-.5h.2l1.2-14.4-6.9 1.5-.1-5.8-9.4 4.3-6.1-6-1.3-1.4 5.9.8.4.1v.2l8 .6 6.9-1.3 14.1 2.2.2-.2.2.3 7.8 4.1v-.3l-2.7-13.6-14.2-1.3-.6-.9-.4-.4.4-.3 11-10.2 12.8 6.6 5.1 9.4 4.9-12.3.4.1 1 .4 3.8 1.1h.4l.6.1 7.9-5.6 1-.8-3.3 14.6 5.3 3.6.6-4.6 1 .1-.6 18.6-5.7-7.1-.3 11.7-3.8-2.6-1.7 13.5v.3l3.8 8.8-9.3 11.1-4.5-21.1.5-3.8 1.2-9.8-8.6 16.9-1.8-4.5-8.4 10.1-2.4.6-5-5.2-.7-.7-13.7 8.8-5.4 3.4-.8 8.2-9.4 9.5"/><path class="st1" d="M164.7 418.2l10.1-8.1v-.1l.6-.6 2.7 9.8-.7.2"/><path class="st11" d="M134.9 409.8l5.9-.3 7.8 7.2h-1.5"/><path class="st2" d="M172.4 429.7l-6.9 1.3-8.7-.6-.2-.9.7-.2 8-4.9-2.6-5.7 3-1.3 11.9 1.1.8 1 4.2 5.9 4.1 5.4 1 1.3"/><path class="st1" d="M186.3 431.7l-.4-.4-4.1-5.4-4.8-6.8 15.7 1.4 3 15 .2 1.3"/><path class="st4" d="M156.2 429.7l-1.7-9.6 2.5-.2 6.6-1.5 2.8 6.2-9 5.5-.6.2-.5.2"/><path class="st6" d="M128 437.1l-5.6-15.6v-1.8l5.9 2.1-.2.4-1.9 6.1 3.3.1.9 3-1.8 6.9m-7.6 13.5l-7.3-11.4 6.2-1.7-4.3-9.3 4.4-8.4.8-1.5 1.6 21.2 5.2 2.6-6.1 9.2"/><path class="st0" d="M150 471.2l-5.4-6.4v.1l-.7-.7.1-.3-4.1-5.4 4.6-12.7-6.2-6 2.9-8.1 11.2-2.9.2.2 6 6.2 10.1-4.7.1 6.2 7-1.5-1.3 15.5-.1.9-9.1.1-1.5 9.5-.1.6-12.8 9.6-.8.5m70.3-7.7l-3.8-8.8v-.3l1.9-15 3.7 2.6.4-12.5 6.4 8 .5.3-2.2 13.5-6.5 13.4"/><path class="st2" d="M199.2 451.5l1.6 3.9 8.7-17.3 1 .2-1.5 12.1-.6 4.2-8.7 6.3-10.7 2.8"/><path class="st5" d="M134.8 452.7l.9-3.6 2.8-10.3 7.1 6.7-5 13.9"/><path class="st4" d="M138.7 490.2l-4.3 8.9-2.6-11-.1.1v-.1l-7.1 5-.9-4.2-20.8 2.3.9-14.9h.3l.4-.4 6.7 4 6.4-5-7.3-6.3.2-.4 11-16.8 5.8 13.3 4.6-11.4-3-13.1-.1-.2.9-.3 6.9 9.4-.9 3.3 3.8 13.4-6.4 11.3 6.8 9.1 1.5 14.9-2 2.2"/><path class="st1" d="M188.1 487l-11.4 5.2 11.1-18.2 2.8-3.3 4.8-5.7 2.9-3.5h-.1l1.1-1.4 9.1-6.5 4.5 20.9-14.7 16.6-11.1 4.4"/><path class="st2" d="M86.2 464.6l-.9-2.5 2.6-8 .3-1.1 16.4 23.1.2.2-1 14.6-.1.2-.8 1"/><path class="st1" d="M59.2 491.7l-.1-.1H59l-.2-.3.2-.3 16.3-26.9.7-2-2.4-7.7-.3-.9h15.6l-.3.8-2.3 7.7.7 2.1 16.5 27.1-.2.3-.1.1v.1h-.2l-12.4 4.2-8.5-.6h-.5v.1h-1.4l-8.6.6m92.8-16.9l-2.7-.5.8-8.8 5.8-3.6 14.4-9.2 1.2 1.2.8 16-13-4.7 6.6 7.8-12.6 1.9-.2.1"/><path class="st4" d="M172.1 503.3l-11.2-2.2 7.6-13.7-5.1-7.3.7-.8 1.2-1.1 11.3-1.7-6.6-7.7-1.1-1.4 14.8 5.4-.7-15.8 5.5 5.7 1.8-.3 9.1-2.4 1.5-.5-4.8 6-4.8 5.8-2.8 3.2-10.2 16.8-.1.1-.2.3-.9 1.3-4.5 10v.4"/><path class="st1" d="M141.6 480.2l1-6.9-.1-2.4 1.5-7 .1-.2.2-.8 6.6 7.8.7 4.7-6.4.4 5.4 8.6-11.7 2.6"/><path class="st1" d="M139.2 486.2l.5-1.3.5 1.9-.5.1-.8.3"/><path class="st2" d="M140.5 501l-1.3-14.3-7.1-9.4 6.5-11.5-3.8-13.1.8-.5 5.1 5.9 4.3 5.7-.2.4-1.3 6.9.1 2.3-1.1 7.1-2.1 5.3 9.6-2.1.2.1 2.9 2.8 8.8-9 .4.1 4 .7-1.5 1.6-.2.3 4.9 7.2-.1.3-7.5 13.6-.4-.1h-.1l-.1-.1-.2-.1-8.6-11.4-5.8 5.9-6.1 6.4"/><path class="st5" d="M186.6 495l-10.7-1.8 1.3-2 .3-.3 11.7-5.3v.8l-1 8.4-.1.5-2 .2"/><path class="st3" d="M39.4 517.7l-.4-1.4-.6-1.4-.3-.7-.6-1.5-.6-1.5-.3-.9 4.3-7-7.1-7-4.8 1.9-.7 4.5-12.4 4.6h-.2l2.7 4.5L8 509.6l-6.3 1.8-.1.1-.4.2-.2-.1-7.4-3.6-4.7 10-.6 1.5-4.8-8.3 1.2.2-.1-.1 1.3.2.1.1 3.5 1.6.2-7.6-.1-3.1 10.9-2.1.3-.1 1.3-.5-.1.2 14.1-5.2 5.5 5.8.5.5.6-12.6.9-.2.1.3 3.9 7.8 2.3-9.8.7.5 6.5 4.5.7-3.7h.5l20.8 2.4.6.7h.1l.1.1 9.3 7.8 11.8 1.9 12.1-2 9.3-7.8.2-.1.5-.7 21.3-2.3.1.4.7 3.3 6.6-4.6.6-.4 2.3 9.8 3.9-7.9.1-.2.9.1.6 12.6.4-.5 5.6-5.8 14.1 5.2-.1-.2 1.5.6 11 2.2-.1 3.1.2 7.5 3.5-1.6 1.3-.3-.1.2 1.3-.3-4.8 8.4-.6-1.6-4.7-9.9-7.6 3.7-.4-.2-.1-.2-6.3-1.8-10.4 2.2 2.7-4.4-.2-.1-12.4-4.5-.7-4.5-4.8-2-7.1 7 4.3 7-.3.9-.6 1.5-.6 1.4-.3.7-.6 1.5-.5 1.4-.6 5.5-2.5-2.7-2.4-6.1 1.3-5.1-7.6-4.6-2.3-.2-10.7 2-1.4.2-.4-1.8-.2.2-.1-.1-5.2 7.5 6.3 6.8-4.9 1.3-2.1-2.2-.5 4-6.6-1.2-2.3 2v-.9l-1.2-1.1-6.6 1.3-.5-4-2.2 2.1-4.9-1.3 6.4-6.7-5.3-7.5v.1l-.2-.3-.4 1.8-1.4-.1v-.1.1l-10.7-2-2.4.2-7.6 4.5 1.4 5.1-2.4 6.2-2.6 2.7"/><path class="st4" d="M146.1 495.7l-.5-.3.4-.5 6.5-6.6.3.3.1.1 8.8 11.7 1 1.4"/><path class="st2" d="M176.2 511.7l11.2-17.3 10.3-4.1.5.8-20 21.1h-.2l-2.6.5"/><path class="st1" d="M171.6 505.7l.1-2.8.1-.1 4.6-10.5 12.3 2.2-.8.7-11.1 17.2-4.9 2.3"/><path class="st6" d="M143.6 567.5l6.9-3.1-4.7-11.3h-.1l-.2-.5-.2-.4.4-.2 6.5-3.1.5-.3.2-.1.2-.1.2.1 9.9-3.1h-.1l-7.4-2.9 12-13.4-8.8.3-1.5-5.5-.2.1v-.2l-3.6 1.7-.1-10.1-.2.1v-.1l-7 2.2-7 5.8.5-9.5-2.2-.8-2 .1-.5-.1-3.6 8.3-1.3-.9-.5-.4-1.1-.7-3.8-9-4.5-7.2.1-.3 7.9-7.8 5.8 2.4.7 4.5 13 4.7-2.3 3.7 8.8-1.8 7.1 2 .2.8 3.4 6.2 7.9-.1-.1-.1 1.1-.3.4 1.1 3.3 8.9-2.7 13.3-8.3 15.7-1.1-9.2-10.3 8.9 1.5 12.2-10.3 7.4"/><path class="st4" d="M117.4 518.5l-12.6-1.2-8.3 2.1-.5.1-6.5-6.9 6.9-9.9.3 1.3.5 2 1.2 6.9 12.6-1.5-1.4-2-11.8-2.9v-.9l10.8-2 2.6.2 8.4 5-1.4 5.6 2.1 5.5-.7.5"/><path class="st4" d="M117 518.2l.1-.4.9.3-.3.9"/><path class="st2" d="M97.6 513.4l-1.3-7.6 1.6-.1 12.3 2.9 1.7 2.5.7 1-14.9 1.9"/><path class="st7" d="M160.3 511.2l.5-.3 8.2-4 4.9 10.7.4.9-9.9.1"/><path class="st3" d="M152.7 549.4l-4.6-4.9-2.1-8.6 14.9-.2-1.8-4.5h-.2l-8.8.3-1.2.1h-.2l-1.6.3-11.9 1.3h-.4l-13.9 4.2-2.6.7 10.4-13.8-3.6-8.4 1.5 1.1 2.6 1.7 1 .7.5.3.5.3 3.4-7.8h3.1l3.1 1-.5 8.4 5.8-4.8 7.6-2.3.7-.2.2 9.9 2.9-1.4.5-.2 1.6 6 9.1-.4 1.1-.1-12.5 14.1 7.5 2.8 1.2.5-12.9 4.1"/><path class="st6" d="M111.2 521.5l-6.7-4.3.3-.8 13.4 1.2-.2.8-1.5 4.2m-11.6 16.9l13.2-9 3.4 1.5 1.8-10.1 6.7 2.3-10.5 13.5-4.8 2.5"/><path class="st4" d="M139.8 542.4l-.1.1-.3-.6-.2-.3.3-.3.3-.2.1-.3.5-.4v.1l7.6-9.2.4-.6h.2l1.4-.1 9.5-.3.1.3 2.5 6-15.1.2 1.7 7.2 5 5.2-.5.4-7.1 3.4-.7.4"/><path class="st1" d="M139.9 541.2l-5.3-8.3-.6-.7h.9l12.2-1.4 2.8-.4-9.6 11.6"/><path class="st0" d="M102.4 552.4l.1.9m19.9 20.4l-9.1-2.2-8.3 2.4-.4.1-.4.1-.7-.9h.2l-2.3-3h-.1l-7.4-9v-1.9l.9-.6 7.3-5.6-4.6-2.6-.4-.2-.4-.2.2-.5.5-.8 1.1-.5 1.3-.7 14.6-8.3 4.6-2.4 1.8-.4 9.4 2.4 1.9-1.9 2.7-5.2.5.6 5.4 8.5.2.4-.9.7-4.2 4.7 3.3 11.1-8.7-2.5h-.2v9.2l-4.6 9.7"/><path class="st5" d="M119.1 537l16.7-5.1-2.9 5.7-2.4 2.4"/><path class="st4" d="M97.3 549l3-8.9 5.9-1.4 9.4.7-.7.7-14.6 8.3-3.2 1.6"/><path class="st1" d="M138.1 557.2l-3.1-10.9 4.5-5.1.5-.4 6.2 12-.4.2-2.7 1.8-3.8 2.7-.1.1-.8.8"/><path class="st7" d="M154.3 555.7l11.9-10.3.2.8.9 8.3.1.2v1l-8.6.9-.7 9.7-2.1 2.8"/><path class="st2" d="M97.3 549.4l.3.1 6.4 3.7-1.5.1-9.3.8"/><path class="st3" d="M141.5 576.9h.1l-1.2-7.2.3-4.7.2-.2.4-1.2-3-6.4 4.3-3.1 1.7-1.1 1.9-1.1.2.5 5.3 12.6-6.9 3.1 2.2 6.5.3.6-5.5 2.8"/><path class="st5" d="M94 559.7l-1.1-5.6 1.2-1 8.4-.7h.2l1.2.5-9.7 7.6m30.4 13.4l.4-.4 4.3-9.2.1-10.1.6.1 8.5 2.5h.3l.5.8-5.2 5 6.9.4v-.1l1.5.1-.8 2.3-.1.2-.1-.1-3.6 5.4-7.3 2-4.2 7.1"/><path class="st1" d="M87.3 558.2l6.3-4.8 1.2 6.2.1 1.6-.3 6.8"/><path class="st6" d="M158 555.9l10.1-1-10.9 12.8"/><path class="st4" d="M131.9 563.2l1-1 5.4-5 .7-.8 3.2 6.9.3.7m-58.2 9.2l-.7-1.8-1.5-4.1h-.7l6.6-10 6.7 9.1v1.4l-.3.2-8 3.9.2 2.1"/><path class="st5" d="M93.9 568.4h-.1l-.1-.7v-1l.3-6.8 8.1 9.9-7.9 4.3"/><path class="st2" d="M134.2 576l3-5.9 3.6-5.3.9.3-.1.2-.3 4.4 1.3 7.9-.4.1-9.3 2"/><path class="st1" d="M85.7 573.7l-.3-2.1.3-.3 8.4-4.1.6-.3.3 5.7 6.1-3.4.5-.3 3.7 4.8-.9.3-9.5 2.7m.4 9.7l-1.1.7-2.2 1.3-.6.3-.1.1-.1.1H91l-9.5.8-.3-.9 9-5.6 29.2-4.1 4.7 2.5 2-2.7-.1-.2.1-.2 3.9-6.4 8.5-2.5-3.4 6.8-1.2 2.8v.3l-.3.2-1.5.6-2.1 3.4-3.2 4-3.9 1.1-2.3.6-2.9.4 1.6-4.7-8.8 3.4-4.1-3.1-6.2 1.9-.8.9-.4.5-2.6 3.7"/><path class="st1" d="M110.3 588.4l.6-.7-.5.8"/><path class="st5" d="M104 573.2l9.2-2.7h.2l9.2 2.2v.9h-.1l-10.6 4.2"/><path class="st1" d="M112 577.9h-.2l-1.2-.4 11.7-4.7 4 .6-1.1 1.1-6 4.6"/><path class="st2" d="M80.7 589.7l-.1-.1-8.9-5.6-28.6-4-5.1 2.8-2.8-3.8 1.8-5.7 6.1 4.8 7-1.2 6.8-3.9.2-.2.2.1.6.2h.2l9.6 2.8 1.4 1.8.6.8.9 1 .2.2 1.8 1.7h4.9l.1.4 1.3 3.8h4.4l1.5-4.2h4.9l1.8-1.7.2-.2.9-1.1.6-.8 1.4-1.8 9.6-2.8h.2l.8-.3.2.2 6.7 4h.1l7 1.2 6.1-4.8 1.8 5.6-2.8 3.9-5.1-2.9-28.6 4.1-9 5.6-.5.1"/><path class="st3" d="M78.4 586.7l-.2-.4-1.3-3.8h-4.7l-2.1-2-.2-.3-.9-1-.7-.8-1.7-2.2 9.5-3.1 1.7-.7 3.3 6 3.4-6 1.7.6 9.5 3.1-1.8 2.1-.6.8-.9 1.1-.2.2-2.1 2h-4.7l-1.4 4.2h-2.4l-.5.1"/><path class="st0" d="M117.7 598.4l-.5-1 6.6-4.5 2.1-4.9-.1.1.4-.9.1-.2 3.9-4.9.6 9.6-2-.9 2.6 4.8-6.2-.8 2.3 3.3-4.4-1.3 1 3-2.5-.8-.4 1.7"/><path class="st5" d="M62.5 606.5l-2.2 3-.3-3.9-2.3 3.7-.1-4.6-1.4 1.6-3.4-.1.1-1.5-2.6 3.7.5-5.9-3.5 3.2.8-4.9-3.7 3.4.7-3.9-2.8 1.6 1.5-4 .1-.2-6.2-4.2-2.9-6.9 1.1.3 3.8 1 2.2.6 1.3.2-1.8-5.1 11.2 4.2-3.6 3 5.8 1.2-.1 4.5v.1h5l4.5 3 1.4-4.5 6.9 4.1v-.2l-.3-6.1-1.6-5 10.2.8h.6l10.3-.9-1.6 5.1-.3 6.1v.1l6.9-4.1 1.3 4.5 4.5-2.9h5.1l-.1-4.6 5.8-1.2-.1-.1-3.5-2.8.7-.4 10.5-3.9-1.8 5.1 1.3-.2 2.2-.6 3.9-1.1.9-.2-.3.8-2.5 6.1-6.2 4.1.1.2 1.5 4.1-2.9-1.6.8 3.9-3.7-3.5.8 4.9-3.5-3.2.5 5.9-2.6-3.6.1 1.4-3.4.1-1.4-1.5-.1 4.6-2.4-3.7-.2 3.9-2.2-3.1-.5 5.3-2.8-6-8.9-4.3-.1 4.9-.9.1-.4-.8-1.1 5.2-1.8-3.2-2-1.3h-.2l-2.1 1.3-1.8 3.2-1.1-5.2-.4.9-.9-.2-.1-4.8-8.9 4.2-2.8 6.1"/><path class="st0" d="M96.1 596.5l-7.3 4.3v-.9l.4-7.1 1.5-4.7.2-.2.7-.3 2.1-1.3 2.2-1.4 1 5.2 1.4-1.8.4-.6 1-1.2 6.9-2.1 4.3 3.3 4.5 3.6-1 .2-5.9 1.2.1 4.8h-5.8l-5.3 3.5"/><path class="st1" d="M93.2 607.5l-.6 4.9-3.1-6.4-3 5.3v-5.1l.2-6.1.7.2 10 4.8-2.9 7.6"/><path class="st4" d="M44.4 389.6l-1.6-9.3-6.1-7.4-1.2.3-.2.1-2.1.9-10.9 4.8-2.4-10-3.9-4.3-.1-.1-8.3 7-.9-9.3 8.9.9h.2l.2-.2-.1-.1.6-.7.2.1 4.1-5.1v-.2l11.8-10.4.4.2 8.8 4.4-10.3 4 2.3 9.4 3.1 6.4 8.6-2.1 4.8 2.9.2-.2.1.1 5-5.3 8.7 3.4.1-.2.3.1 3.7-7.4 7.9 2.7v-.2l.3.1-3-13.9-.1-.3-.1-.3v-.3l7.4-13.1v-1.8l8.4 14.8.1.1v.2l-.1.4-.2.6-2.9 13.7.3-.1v.2l7.9-2.7 3.7 7.4.3-.1.1.2 8.7-3.4 5 5.3.1-.1.2.2 4.8-2.9 8.6 2.1 3.1-6.5 2.3-9.3-10.3-4 8.9-4.5.3-.1 11.8 10.4v.2l4.1 5.1.2-.2.6.7-.1.1.2.2h.2l8.9-.9-.9 9.3-8.3-7-.1.1-3.9 4.3-2.4 10-10.9-4.8-2.1-.9h-.2l-1.2-.3-6.1 7.4-1.6 9.3-10.3 1.6 4-11-9.3-5.7-.1.2-.2-.2-2.7 3.8-5.2-1.5-4.1-2.7-7.1-8.8-1.7-2-1.7 2-7.1 8.8-4.1 2.7-5.2 1.5-2.7-3.8-.2.2-.1-.2-9.3 5.7 4 11-10.8-1.7zm-17.1-22.9l2.8-10.4-8.8 3 .4 8.6 5.1 6.2.2-6.2m108.2-.1l.3 6.2 5-6.2.4-8.6-8.8-3 2.8 10.4"/></svg>