<svg xmlns="http://www.w3.org/2000/svg" width="347.8" height="82.3" viewBox="0 0 347.8 82.3"><path fill="none" d="M202.7 28.5c-3.8 0-7.1 1.4-9.9 4.1-1.3 1.4-2.4 2.9-3 4.5-.7 1.6-1 3.4-1 5.3 0 3.7 1.3 7 4 9.8 2.7 2.7 6 4 9.9 4 3.8 0 7.1-1.3 9.7-4 2.7-2.7 4.1-6 4.1-9.8 0-3.8-1.4-7.1-4.1-9.8-2.6-2.7-5.9-4.1-9.7-4.1zm-44.6 0c-3.8 0-7.1 1.4-9.9 4.1-1.3 1.4-2.4 2.9-3 4.5-.7 1.6-1 3.4-1 5.3 0 3.7 1.3 7 4 9.8 2.7 2.7 6 4 9.9 4 3.8 0 7.1-1.3 9.7-4 2.7-2.7 4.1-6 4.1-9.8 0-3.8-1.4-7.1-4.1-9.8-2.7-2.7-5.9-4.1-9.7-4.1z"/><path fill="#212121" d="M33.7 15.9c5.6 0 10.3 1.9 14.2 5.8l4.5-4.4C47.3 12.2 41 9.6 33.7 9.6c-7.3 0-13.5 2.6-18.7 7.8C9.9 22.6 7.3 28.8 7.3 36c0 7.2 2.6 13.4 7.7 18.7 5.2 5.2 11.5 7.8 18.7 7.8 7.3 0 13.5-2.6 18.7-7.8l-4.5-4.3c-3.9 3.8-8.7 5.8-14.2 5.8s-10.2-2-14.2-5.9c-4-3.9-6-8.7-6-14.3 0-5.6 2-10.3 6-14.3 3.9-3.8 8.7-5.8 14.2-5.8zm93.6 30.2c0 2.8-1 5.2-3 7.1-2 2-4.3 3-7.1 3-2.7 0-5.1-1-7.1-3-2-1.9-3-4.3-3-7.1V23.5h-6.3v22.7c0 4.4 1.4 8.2 4.2 11.4 3 3.4 6.6 5 10.9 5 4.6 0 8.3-1.8 11.3-5.5v4.2h6.3V23.5h-6.3v22.6zm44.6-15.8c-1.7-2.4-3.9-4.4-6.6-5.9-2.7-1.4-5.5-2.2-8.6-2.2-5.3 0-9.8 2-13.5 6-3.6 4-5.4 8.7-5.4 14.1 0 5.5 1.8 10.2 5.3 14 3.7 4.1 8.3 6.1 13.5 6.1 3 0 5.8-.7 8.6-2.2 2.7-1.5 4.9-3.4 6.6-5.8 0 2-.3 3.9-1 5.6-.6 1.7-1.6 3.3-2.9 4.6-2.6 2.7-5.9 4.1-9.9 4.1-4.3 0-7.9-1.7-10.7-5l-4.8 4c4.1 4.9 9.3 7.3 15.6 7.3 5.4 0 10.2-2 14.3-6 3.9-3.9 5.9-8.7 5.9-14.2V23.5H172v6.8zm-4.1 21.9c-2.6 2.7-5.9 4-9.7 4-3.9 0-7.2-1.3-9.9-4-2.7-2.8-4-6-4-9.8 0-2 .3-3.7 1-5.3.7-1.6 1.7-3.1 3-4.5 2.7-2.7 6-4.1 9.9-4.1 3.8 0 7 1.4 9.7 4.1 2.7 2.7 4.1 6 4.1 9.8 0 3.8-1.3 7.1-4.1 9.8zm48.8-21.9c-3.7-5.4-8.8-8.1-15.1-8.1-5.4 0-9.9 2-13.5 6-3.6 4-5.4 8.7-5.4 14.1 0 5.5 1.8 10.2 5.3 14 3.6 4.1 8.2 6.1 13.5 6.1 6.3 0 11.3-2.7 15.1-8.1v6.8h6.3V23.5h-6.3v6.8zm-4.1 21.9c-2.6 2.7-5.9 4-9.7 4-3.9 0-7.2-1.3-9.9-4-2.7-2.8-4-6-4-9.8 0-2 .3-3.7 1-5.3.7-1.6 1.7-3.1 3-4.5 2.7-2.7 6-4.1 9.9-4.1 3.8 0 7 1.4 9.7 4.1 2.7 2.7 4.1 6 4.1 9.8 0 3.8-1.4 7.1-4.1 9.8zm33.9-30c-4.7 0-8.4 1.8-11.4 5.5v-4.3h-6.3v37.8h6.3V38.6c0-2.8 1-5.2 3-7.1 2-2 4.3-3 7.1-3 .7 0 1.3.1 1.9.2.6.1 1.2.3 1.8.5v-6.8c-.4-.1-.8-.1-1.2-.1-.4-.1-.8-.1-1.2-.1z"/><path fill="#C8202F" d="M280.4 15.9c5.6 0 10.3 1.9 14.2 5.8l4.5-4.4c-5.1-5.1-11.4-7.7-18.7-7.7-7.3 0-13.5 2.6-18.7 7.8-5.1 5.2-7.7 11.4-7.7 18.6 0 7.2 2.6 13.4 7.7 18.7 5.2 5.2 11.5 7.8 18.7 7.8 7.3 0 13.5-2.6 18.7-7.8l-4.5-4.3c-3.9 3.8-8.7 5.8-14.2 5.8s-10.2-2-14.2-5.9c-4-3.9-6-8.7-6-14.3 0-5.6 2-10.3 6-14.3 4-3.8 8.7-5.8 14.2-5.8zm55.2 19.6l-15.8-3.2c-5.7-1.3-8.5-4-8.5-7.9 0-2.8 1.5-5 4.4-6.6 1.2-.6 2.5-1 3.8-1.3 1.3-.3 2.8-.5 4.4-.5 3.1 0 5.8.6 8.2 1.9 2.9 1.5 4.4 3.7 4.4 6.6h6.3c0-4.6-2.1-8.2-6.2-11-3.7-2.4-7.9-3.7-12.7-3.7-4.8 0-9 1.2-12.7 3.7-4.2 2.8-6.3 6.5-6.3 11 0 6.1 2.9 10.3 8.6 12.5 2.6.5 5.2 1.1 7.8 1.6 2.6.5 5.3 1.1 7.8 1.6 5.7 1.3 8.5 3.9 8.5 7.7 0 3.1-1.6 5.4-4.9 6.8-2.4 1.2-5.4 1.7-8.9 1.7s-6.4-.6-8.9-1.7c-3.3-1.5-5-3.8-5-6.8h-6.3c0 4.8 2.3 8.5 6.8 11.3 3.9 2.4 8.4 3.6 13.4 3.6s9.4-1.2 13.3-3.5c4.6-2.9 6.8-6.7 6.8-11.4.2-6.2-2.7-10.3-8.3-12.4z"/><path fill="#222" d="M82.8 23.3v6.9c2.5 1.4 4.7 3.6 6 6.2 1.4 2.8 1.7 6.2 1 9.2-.8 3.4-3 6.3-5.9 8.3-3.2 2.2-7.2 2.7-10.9 1.9-5.4-1.2-9.7-6-10.4-11.4-.4-3.1.1-6.3 1.8-9 1.4-2.3 3.4-4.2 5.8-5.4v-6.8c-4.6 1.4-8.6 4.7-11.1 8.8-2.7 4.4-3.4 9.9-2.4 14.9.9 4.2 3.4 8 6.7 10.8 3.4 3 7.8 4.7 12.3 4.8h1.2c9.1-.1 17.6-7.1 19.3-16 .9-4.7.3-9.9-2.2-14.1-2.6-4.2-6.6-7.6-11.2-9.1z"/><path fill="#C8202F" d="M79.6 17.8h-6.3v24.6h6.3V17.8z"/></svg>