<?xml version="1.0" encoding="utf-8"?>
<!-- Generator: Adobe Illustrator 19.0.0, SVG Export Plug-In . SVG Version: 6.00 Build 0)  -->
<svg version="1.1" id="Layer_1" xmlns="http://www.w3.org/2000/svg" xmlns:xlink="http://www.w3.org/1999/xlink" x="0px" y="0px"
	 viewBox="-112 172 387 449" style="enable-background:new -112 172 387 449;" xml:space="preserve">
<style type="text/css">
	.st0{fill:#CACACA;}
	.st1{fill:#949494;}
	.st2{fill:#5F5F5F;}
	.st3{fill:#313131;}
	.st4{fill:#4A4A4A;}
	.st5{fill:#AFAFAF;}
	.st6{fill:#232323;}
	.st7{fill:#151515;}
	.st8{fill:none;}
	.st9{fill:#E4E4E4;}
	.st10{fill:#404040;}
	.st11{fill:#797979;}
</style>
<path class="st0" d="M-52.6,192.1l-10.7-6.6l-2.3-0.8l-6.9-1.2l-5.4-1.3l0.1-1l12.8-0.9l20.3,11.9l-0.3,0.9"/>
<path class="st0" d="M-79.1,180.8l1.4,0.3v1h-0.5l-0.8-0.2l-0.2,0.3l-1.5,0.1"/>
<path class="st0" d="M-101.8,194.8l5.9-8.4l6.6-4.5l11.1-0.7l-3.6,3.4l-3.5,2.1l-0.5-0.3l-1.6,1.5l-6.7,4h-0.1l-6,10.6l-0.4,0.3
	l-2.6,2.4l-1.5,1.3"/>
<path class="st1" d="M-77.6,185.1h-1l-2.8-0.2h-0.7l-1.1-0.2l4-3.7l6.8,1.6l6.7,1.3l-0.1,0.9l-9.1,0.4"/>
<path class="st2" d="M-95,191.5l6.9-4.1l0.6,0.7l-4.3,3.9l-1.9,2 M-86.3,186.3l4-2.4h0.2l0.7,0.1l2.8,0.1l1.1,0.1h2.6l9.1-0.3
	l0.4-0.1l3.8,1.3l-11.7,4.1l-3.7,1.1"/>
<path class="st3" d="M-87.9,195.8l-4.9-0.2l-1.3-2.4l1.6-1.9l6.5-5.8l10.6,4.5l-4.2,0.8l0.3,2.8l-5.9,0.1l0.2,0.7l0.7,2.1l0.9,2.5"
	/>
<path class="st4" d="M-103.9,234.6l1.2-23.6l9.3-0.2l-2.1-7.5l-3.6-2.6l5.3-0.4l-0.1-0.1h0.3l-3.5-1.8l2.6-8l1.3,2.6l1,1.6l4.7,0.2
	l2.3,1.7l-0.7-1.8l-0.7-2l6.3-0.1l-0.3-2.5l0.4-0.2l3.1-0.7l3.4-1l10.7-3.7l10.9,6.6l7.3,8.1l-8.7-1.8l16.4,14.6l-0.1-0.3l0.2,0.1
	l-2.7-9.4l3.1,1.6l0.1-0.4l0.7,0.7l3,3.2l2.1,2.5l9,11l-4.7-1.2l0.1,0.2l-0.2-0.1l6.1,9.4l-14.2-3.3l-1-1.1l-0.1-0.1l-0.2-0.3V224
	l-0.2-9l-14.1-1.2l-3.2-1.4l-3.1-15.2l-15.9,9.1l-6.9,6l-9.5,1.9l-4.3-0.3v0.1l-0.6,2.9v7.7l-4.9-3.3l-0.5-3l-0.2-0.1l-0.1-0.4
	l-1.4-0.6l-2.2,17.5"/>
<path class="st5" d="M-36.4,205.1l-3-1.5l-1.7-0.9l-5-3.4l-0.3-0.3l-7.2-8l8.9,1.2l9.5,7.9l-0.5,4.3v0.3l-0.1,0.6"/>
<path class="st2" d="M-102.7,211.3l0.7-3.2l0.9-6l0.1-0.1l6.1-10.6l0.8,0.3L-96,198l4,2l1.8,0.8l-6.5,0.6l1.9,1.3l2.3,8.3l0.4,0.6
	l-0.8,0.1l-9.8,0.2 M-70.2,228.8l-0.2-7.4l-0.5-2L-82,216l-7-1.7v-1l9.2-1.7l6.9-6l17-9.7l3.5,16.8l-22.3,0.5l4.4,4l2.1,5.2l-1,6.5"
	/>
<path class="st3" d="M-56.7,195.8l4.2,0.9l4,0.8l2.6,0.6l0.4,0.3l4.8,3.4l2,1l3,10.4l0.4,1.5"/>
<path class="st0" d="M-15.4,226.3l-7.8-5.9l-8.3-10l-2-2.3l-3.2-3.4v-0.3l0.6-5.2l15.7,14.5l13.9,15.7l-0.6,0.7"/>
<path class="st5" d="M-104.9,244.6l-1.3-3.9l-0.6-20.1l2.4-15.4l4.5-4.1l-1.2,7.3l-0.6,3.1l-1.3,23.1l0.1,0.2l0.4,5l-1.5,4.6v0.1
	l-0.4,1.7"/>
<path class="st1" d="M-43.3,249.1l-9,4.2l-0.6,0.4l-1.2-1.4l-6.8-12.2l-9.4-4.8l0.2-6.7l1-6.2l-2-4.7l-6-5.4l24.2-0.6l3.1,1.3
	l1.3,1.1h-0.1l12.7,9.7v-0.2l0.8,0.6l0.1,0.1l0.9,1l1,1.2l8.8,9.8l-0.2,0.4l4.6,7l0.2,0.4l-8.4,14L-43.3,249.1L-43.3,249.1z
	 M-37.8,242.5l-2.8-3.7l-8.5-9.9l-4.1,9l1.4,2.3C-51.8,240.1-37.8,242.5-37.8,242.5L-37.8,242.5z"/>
<path class="st3" d="M-85.6,290.2l-0.9-5.2l2.2-1.6l-0.1-0.2l0.1-0.1l-0.9-1.8l1.2-3.3l2.4-0.1v-0.5h0.9l-6.1-4.1v-1.2l-0.1-0.1
	v-0.4l-10.3-15.3l0.6-5.2l-4-0.7l-2.7-10.4l-0.4-4.8l2.4-19l3.1,1.4l0.5,3.1l3.3,2.5l-0.1-6.5l0.7-3.7l5,0.3l7.4,1.9l0.1,5.3
	l-0.2,7.5l11.2,6.6l0.4,0.2l-0.2,0.4l-3.5,8.6l6.6,2.4l5.6,3l0.2,9.7h0.2l15.5,3.3l-0.4,2.2l-1.1,1.3l-1.1,1.4l-6.2,7.8l-1.8,2.3
	l-3.4,8.6l-0.6,1.5l-0.8-0.8v-0.2l-2.5-2.8l4.7-6l-0.6,0.2l0.5-0.6l-6.7,1.6l1.3-3.4l-0.3,0.2l0.2-0.5l-5.1,2.7l-1.3-1.5l-0.5-4.5
	l-3.7,1.8l0.1,0.2l-0.1,0.1l1.7,3.1l1.6,8l-5.5-3.5l-0.2,1.3l-3.6,1.5l0.1,0.5l-0.4,0.2l-1.1,0.1l-2.5,1.6l0.1,0.2h-0.1l2.4,4.4
	l-3.1,1L-85.6,290.2L-85.6,290.2z M-81.3,266.6l4.6-1.4l-7-0.1L-81.3,266.6z M-78.3,261l0.5-0.5l-0.3-0.4l0.1-0.1l-6.4-7.1l-7-0.9
	l-5-0.8l7.3,6.4C-89.1,257.6-78.3,261-78.3,261z M-93.5,237.1l-2.8,2.8l5.2-1.2l-0.9-1.3l-0.9-2.3l-5.7,0.5
	C-98.6,235.6-93.5,237.1-93.5,237.1z M-92.9,235.1l-1-2.5v0.1l-1.6,0.4L-92.9,235.1z"/>
<path class="st2" d="M-51.6,212.8l1.7,0.1l14.8,1.4l0.2,11.3"/>
<path class="st4" d="M-70.3,235.5v0.1l-0.5-0.2l-11.7-6.8l0.2-8.1l-0.1-5.4l12.3,3.6l0.6,2.6l0.3,7.6l-0.2,7"/>
<path class="st3" d="M-12.8,264.6V264h1l-0.1,1.5 M34.1,266.3l-0.1,0.2l-0.8-0.5l0.1-0.2L34.1,266.3z"/>
<path class="st2" d="M-25.1,236.6l-10.7-11.9l1.6,0.5l13,2.9l0.7,0.2l0.6,0.8l-4.7,8.1"/>
<path class="st1" d="M-3.6,241.8l-0.7-1l-11.3-14.5l0.6-0.7l8.4,3.8l7.9,7.8l7.2,8.6"/>
<path class="st5" d="M-52.4,241l-1.8-3.1l4.9-10.8l9.5,11.1l4.2,5.5"/>
<path class="st6" d="M-95.3,237.5l-5.9-1.8l0.1-0.9l5.6-0.5l-2.1-1.6l2.8-0.8v-1.4l0.9-0.2l2.7,6.6l1.7,2.3l-9.8,2.3"/>
<path class="st2" d="M-62.5,247.8l-0.6-8.3l-10.6,5.3l-1.1-0.4l3.8-9.6l0.3-0.5l1.1,0.5l9.4,4.7l7.7,13.9"/>
<path class="st6" d="M7.2,270.2l-12.5-6.7l-0.1-0.2l-1.3-11.1l-9.5-1.6l-0.5-0.1l3.9-15.9l3.9,4.7l5.2,0.8l0.2,0.1l0.6,0.9l10,12.9
	l0.6,1.3l3.8,6.7l0.1,0.1l3.5-7.3l0.6,1.3l1.2,2.7l0.5,1.7l-2.3,9l1.4,4.2l1.1,2.6l1.1,2.6"/>
<path class="st4" d="M-62.1,259.6l-0.2-9.9l-5.1-2.6l-7.5-2.7l12.6-6.3l0.6,9.1l8.3,4.6l1.3,1.6l-8.8,6.4 M-89.2,275.2l-1.1-3.5
	l-0.2-0.5V271l-1.3-1.8l-0.2,1.6l-0.1,0.5H-93l-0.5-2.3l-0.2-0.7V268l-4.8-9.6l-6.5-14l0.1-0.2l1.9-6.3l3.1,11.7l8.6,1.4l7.3,1
	l7.4,8.1l-0.6,0.4l-1,0.9l-11.5-3.6l-6.3-5.5l-0.4,3.5l10.5,15.5v1.4l8.2,5.5l-3.8,0.1l-2,0.1l-1,2.9l-1.6,1"/>
<path class="st3" d="M6.4,254.6l-11-14.1l11.8,3.9l1.5,0.4l-1.4,9.3v0.2l-0.2,1.1"/>
<path class="st4" d="M-28.9,257.7l0.4-0.7l8-13.2l0.7-1.1l8.3,20.6"/>
<path class="st2" d="M6.3,254.3v-0.2l1.6-10.2l8.1,11.3l-9.2,0.1"/>
<path class="st5" d="M-51.9,255l0.8-0.6L-51.9,255 M-35.5,292.8l-1.4-10.5l-11.1-8.5l13.9-7.9l-4.9-6.2l-12.8-4.7l-0.4-0.5l-1.1-1.7
	l9.9-4.6l15.5,8.8l13.3,12.5l-4.7,8.5l-0.9,1.5l-0.1,0.3l1.1,12l-7.4,2.4l3.2,7.6"/>
<path class="st2" d="M-62.2,259.6l9-6.6l0.7-0.4l1.1,1.5l0.3,0.3l6,8.9"/>
<path class="st1" d="M-24.7,352.7l-1.5-0.7l2.3-0.3l-0.1,0.7l-0.1,0.3l-0.3,0.1h-0.1 M-52.9,299.5l0.2-0.7l1.3,1.1l-0.9,0.2
	l-0.8,0.2"/>
<path class="st1" d="M-37.2,347l-16.1,2l7.7-10.3l9.1-11.4l0.3-6.3l-3.8-9.8l-3.5-2.8l-12.7,4.2l-0.3,0.3l-0.4-0.3l-9.3-10.6
	l0.8-0.2l12.4-2.5l5.9-13l-1-14l1.2-8.1l0.3-1.4l-6.2-8.9l1.4,0.5l12.9,4.7l5.7,7.2l-13.7,7.8l10.3,7.8l1.4,10.5l9.2,6.9l-2.3-5.5
	l7.6-2.4l-1.2-12.5l5,4.1l5.8,4.4l-8.1,5l0.1,0.1l5.8,4.5l-6,3.8l1.8,3.1l1.5,2.2l1.2,1.7l-5.3-0.6v0.2l0.3,6.4l-0.2,2.5l-6.9,10.3
	l-9.2,18.3v0.1l15.4-7.5l-4.4,15.7L-37.2,347L-37.2,347z M-26.1,311.6l4.5-5.3l-3-1.2L-26.1,311.6z M-43.9,306.2l6.2-9l-13.9,2.7
	C-51.6,299.8-43.9,306.2-43.9,306.2z M-28.5,257.7l0.4-0.7l16.1,5.2l0.2,1.8l-3.3,6.4"/>
<path class="st4" d="M60.8,264l-9.2-2.2l-1.9-0.5l7.2-2.1l5.9,5.1"/>
<path class="st2" d="M56.3,270.6l-6.4,0.6l-12.4-5l2.4-2.2l11.5-3.1l0.3,0.1l9.5,2.3h0.1l5.6-0.3l0.2,0.1l2.5,0.6l1.3,7.9l-5.9,3.2"
	/>
<path class="st4" d="M80.8,334.8l-0.1,0.1l-0.1-0.1l-8.4-18.9l1.6-17.4l-6.5-13.4l6.6-5.8l0.5-0.4l-4.3-7.6l-1.2-7.1l-1.6-0.4
	l-0.6-0.2l0.2-0.9l14.1,2.8l14.4-2.8l0.2,0.9l-0.6,0.2l-1.6,0.3l-1.2,7.1l-4.3,7.6l0.1,0.1l0.3,0.3L95,285l-6.5,13.4l1.6,17.4
	L81.5,335 M-86.9,264.1l13.2,0.1l0.1,0.9l-7.9,2.5 M-66.6,298.3l-15.5-3l6.4-6.2l2,6h0.2v0.1l11.5-3.7l1.2-5.4l0.3-0.7l3.4-8.7
	l1.9-2.5l6.2-7.9l3.3-3.9l-0.3,1.8l-1.1,7.9l1,14.2l-6.2,13.6l-3.3,0.7"/>
<path class="st2" d="M-14.9,307.6l-0.3-0.1l-0.8-1l-1.5-2.3l-2.3-3.9l5.6-3.5l-5.4-4.2l-0.5-0.4l8.1-5l-4.8-3.7l-3.6-2.9l-1-0.8
	l0.2-0.3l1.1-1.8l4.5-8.2l2.9-5.7l0.9,0.2v9.5l0.1,2.6h0.1l8.6-1.2l-2.6-3.4l3.7-0.2h1.1l10.1,1.1l2.5,10l-0.5,0.2h-0.2l-4.9-0.9
	l-6.9,6.4l-0.7,1.1l-1.8,11.2l-7.4,1.6l3.7-7.8l-4.1,2.3l-0.5,0.5l-2,10.8"/>
<path class="st4" d="M-12.7,273.5l-0.1-9.1v-1.3l13.4,9l-4.5,0.1l2.6,3.4l-10.8,1.4h-0.4"/>
<path class="st2" d="M12.2,329.3l-6.4-1.2l-0.1-10.3l-9.9,3.4l6.8-9.7l-1-6.8l9.5-5.5l8.7-10.7l6.1-12.3l-5.3-8.5l-0.3-0.4l5.5-3.9
	l8.6,2.4l-0.4,0.7l-5.4,8.4l15.1-0.9l-1.8,3l-2.4,4.4l-1,4.2l0.1,0.9l1.6,11.6l13.6,2l7.9-0.7l1-2.8l0.7-1.9l4-9.7l0.5-0.5l0.4,0.6
	l6.4,13.2l-1.6,17.4l-0.9,0.1l-2.9-7.3l-0.1,0.1v-0.1l-11.5,11.7l-11.6-2.4v0.3l0.8,4.5l0.7,3.3l-1.3-0.3l-6.3-1.2l-3.6-2.3
	L28,311.9l-6.1,7.6l6.9,10.1l-3.8-1.3l-7.7-3.1l-4.2,4.4"/>
<path class="st1" d="M39.4,299l-1.8-12.3v-1.1l1-4.5l2.5-4.5l0.9-1.5L26.9,276l6.5-10.3l5.1-0.2l0.1,0.2l11.5,4.5l6.4-0.6l8.5,4.2
	l5.6-3.1l0.2,0.4l4.7,8.2l-0.3,0.3l-0.7,0.5l-6.3,5.6l-3.9,9.4l-0.8,2l-1.2,3.2l-8.5,0.9"/>
<path class="st2" d="M-96,281.5l2.3-13.4l0.6-1.4l0.4,1.4l0.6,3.2l-0.1,0.6l-0.6,6.3l-0.5,0.9l-1.8,2.8"/>
<path class="st3" d="M-94.9,286.2l1.3-8.2l-0.1-0.1l0.5-6.2l0.2-1l0.6-3.7l2.8,3.9l-1.7,4.3l-1.6,20.2l-0.1,3.3l-0.9,0.1"/>
<path class="st2" d="M-76.5,289.8l0.2-0.3l3.5-4.9h-0.1l-8.1,0.1l-1.5,0.1l-0.2-0.9l4.6-1.9l0.4-2.1l4.7,2.8l-1.1-5.8l-1.8-3.3
	l-0.4-0.7l5.6-2.8l0.4,1l0.5,4.4l0.6,0.7l6.7-3.5l-1.7,4.5l7.9-1.8l-1.3,1.5l-4.8,6.2l2.5,2.8l-0.1,0.4l-1.3,5.8l-12.5,4l-0.4,0.1
	L-76.5,289.8L-76.5,289.8z M-63.6,282.2l1.3-2.7l-3.6,0.1L-63.6,282.2z"/>
<path class="st7" d="M-92.2,275.1l1.8-4.2l0.6-0.8l0.2,0.9l1.2,4l3.2,7.2l-5.8,1.9"/>
<path class="st6" d="M-90.2,293.2l-0.2,0.3v-0.3l-3.4,3.3l1.6-21.3l1-0.1l1,7.8l4.2-1.4l1.4-0.9l0.3,0.6l1.2,2.3l-2.5,1.8l0.9,4.8
	l0.2,1.8l-0.4,0.1l-3.3,1l-0.2,8.4l-1,0.1"/>
<path class="st4" d="M-26.8,326l6.7-10.2l0.2-2.2l-0.4-7.6l5.6,0.6l0.5,0.1l2-10.2l0.6-0.8l6.9-3.7l-4.3,8.6l5.1-1l1.8-10.9l0.7-1.2
	l7.4-6.8l5.2,0.9l14.8-5.8l1.1-0.1l-0.3,0.7l-6.2,12.7L11.7,300l-9.1,5.2l1,6.5l-5.5,7.8l8.6-2.8l0.1,10.7l6.8,1.2l-0.3,0.7
	l-2.5,7.7l-1.1,0.3l-17.1,2.9l-2.8-15.6l-5.8,2.9l-4.1,10.7l-0.2,0.2l-15.6,7.6l-1.3,0.6"/>
<path class="st5" d="M-96.4,297.3l0.4-15.9l1.9-3l0.6-0.9l0.9,0.4l-1.3,8.4l-1.5,11.1"/>
<path class="st3" d="M-68,278.7l7.1-0.2l-2.5,5.3"/>
<path class="st1" d="M-89.4,292.3l4.2-1.2l1.6-0.6l-2.1-3.7l-0.3-0.7l3.4-2.2l1.3-0.1l9.2-0.1l1.1,0.1l-4.5,6.3l-5.2,5.1v0.8
	l-0.5,5.5l-0.6,5.1"/>
<path class="st4" d="M-93.8,307.2l-2.6-9.9l1.5-11.2l1,0.1l0.9,12.5v0.6l5,9.6l0.2-2.7l0.9-0.1l2.6,9.2l0.3-0.1v3.2"/>
<path class="st7" d="M-88.3,310.5l-5.7-10.9l0.1-0.8v-3.5l0.4-0.3l3.9-4l0.1,1.4l1,9.2l1.5,4.4l-0.6,5.9"/>
<path class="st2" d="M-87.8,306.5v-0.1l-1.6-4.5v-0.5l0.3-10.5l7.5,14.1v0.2l-1.3,10.3v0.3l-0.3,0.2l-1.2,0.4l-0.5,0.2"/>
<path class="st3" d="M-83.6,318.2l1.3-1.1l0.7,1.6"/>
<path class="st3" d="M-70.2,322.7l-13.1-4.7l11.8-10.7l-6.8-8.1l-3.3-2.9v-1.8l15.2,2.9l10.9,2.3v1l-8.7,1.7l8.5,9.8l-0.3,0.3
	l-8.2,12.3"/>
<path class="st4" d="M-83.9,315.5v-0.1l1.3-10.4l0.4-3.5l0.6-6.4l0.8,0.8l3.2,2.8l7.2,8.6l-12,11l-0.8,0.9"/>
<path class="st5" d="M-53.4,299.3l0.8-0.3l16.7-3.3l-0.5,1l-7.3,10.7 M-27.5,313.2l2.2-9.4l5.2,2.1l-6.5,7.7"/>
<path class="st4" d="M-52.6,337l-7.4-3.5l0.3-0.5h0.1l5.2-5l-2.3-14.4l-0.1,0.1l-0.2-1.5l0.4-0.4h0.2l13.2-4.4l4.1,3.2l3.9,10.2
	l-0.3,6.8l-9.5,11.8"/>
<path class="st1" d="M34.6,333.2l-7.2-4.1l-6.6-9.6l6.8-8.5l0.4-0.5l9,10.8l3.3,2.2l6.2,1.2l0.9,0.2l0.1,0.4l1.4,5.4l-6.2,12.5"/>
<path class="st6" d="M-61.2,335.5l0.1-0.3l0.8,0.4v0.2l-0.1,0.1 M-74.9,336.6l-8-18.4l-0.4-0.9l0.9,0.1l0.1,0.1l12.5,4.5l5.2,1.7
	l7.7-11.4l0.8-1.1l2.7,17.2l-5.5,5.2l-0.2,0.3h-0.1l-1.1,1.9l-8.7,6.7"/>
<path class="st5" d="M46.5,325.5l-0.5-2.7l-0.8-4.4l-0.3-1.9l0.8,0.4l11.9,2.4h6.3l4,8l-12.5-4.8l-0.1,0.1l-4.6,5.7l-1.9,2.6
	l-0.6,1.1"/>
<path class="st0" d="M48.1,361.5l-6.5-9.1l0.3-8.8l-0.2,0.1l0.2-1l0.1-0.1v-0.1l0.2-0.3l5.8-11.8v-0.1l1.9-2.6l5-6.1l0.3-0.3
	l11.9,4.7l0.3,0.1l1.2,2.1l3.3,6l1.1,3l-10.6,12l-8.1,0.1l-0.1,4.6v0.4l-4.6,6.2l-1.1,1.5"/>
<path class="st2" d="M-25.1,352.6l4.1-14.5v-0.3l4.2-10.9l0.2-0.2l6.9-3.4l3.1,16.6l-4.4,8l-2.8,2.1l-10.6,2.8l-0.2,0.1"/>
<path class="st1" d="M12.5,328.8l4.6-4.9l8.6,3.6l-0.3,0.7l-0.4,1l-15.4,8.4"/>
<path class="st5" d="M26.4,342.7l-6-3.7l3.8-10.3l0.4-0.8l0.2-0.7l2.9,1l7.8,4.4l-8.5,10l-0.3,0.3"/>
<path class="st0" d="M-31.2,375.6l4.9-13l8.9-7.2l3.1-6l2.8-2.1l7-3.2l6.1-6.3H2l0.3,0.1l5.2,5l1.7-6.3l1-0.3l15.3-8.3l-4,11
	l-0.3,7.5l-5.7,5.8l-13.7,0.3l-11.4,11.3l11-2.5l0.9,1.4l1.5,8.8l0.3,0.8l0.2,0.7h-5.2l-1,1.5l-21,4.5"/>
<path class="st2" d="M-74,345.5l-0.6-5l1-0.2l0.9,5.3l1.5,0.1h5l0.7-0.2l1.6-2.9l2.8-7.4l1.5-2.6l0.4,0.2l6.9,3.2l7.9,2.6l-7.7,10.1
	l-0.2,0.1h-0.2l-13.3-1.7l-12.8,10 M20.4,347.5l-0.2,0.3v-1.6l0.4-8.2l0.6,0.4l5.4,3.3l8.2-9.7l8.3,10.3l-0.1,0.3l-0.4,0.7l-0.2,0.1
	l-9.5,4.1l-0.1,0.2l-0.2-0.1l-12,10.5"/>
<path class="st3" d="M-71.2,346.7l-2.3-0.2l-1.1-6l-0.6-5.4l6.2,6.2l9.3-7.2L-63,343l-1.8,3.1l-0.1,0.2l-0.2,0.1l-1,0.2L-71.2,346.7
	"/>
<path class="st4" d="M33,373.7"/>
<path class="st1" d="M-7.3,339.3l10.4-1.8l-7,7.2l-8.5,3.8 M1,337.8l9.2-1.6l-2.1,8.3"/>
<path class="st1" d="M1.8,337.5l0.4,0.3l0.8,0.7l-0.9,0.2l-0.3-0.4l0.1,0.4L0.4,339"/>
<path class="st5" d="M57.7,360.8h-0.3l-3.7-5.8l-0.4,0.7l-0.1-1.9l0.3-5.4l8.6-0.2L73,336l1.2,14.1l0.1,0.6L62,361.5"/>
<path class="st1" d="M30.7,354.7l9.1-3.5l-8.1-4l10.4-4.6l0.2-0.1l0.6-0.1l-0.3,9.8l6.5,9.2l-0.8,0.3l-0.2-0.1l-14.7,3.6"/>
<path class="st5" d="M-42.3,368.2l-9.8-18l-0.6-0.1l-13.2,10.6l-12.1-3l-0.6-2l0.8-0.4l11.8-9.2l13.7,1.7l15.3-1.9l12.5,5.9l11.5-3
	l-3.6,7l-8.9,7.2l-4.9,12.8 M-11.1,364.2l12.7-12.7l13.6-0.3l5.2-5.2l0.8-1l0.3,12.1l0.1,0.3l-4.9,6.2l-0.6-0.5l-8.3-8.2H7.7l-6,7.3
	l-0.3,0.1l-13.4,2.9"/>
<path class="st0" d="M-70.8,376.3l-4.1-0.2h-0.5l-3-19.3l12.2,3l13.2-10.6l1.4,0.3l10.4,19h-13.5l-2.3,0.2l-9.1,8.7"/>
<path class="st2" d="M45.5,369.8l-9,2.1l-3.7-7.7l0.8-0.1l14.7-3.6l0.7,0.7l6.2,4.2v-0.1l-0.3-5.4h1.3l-0.2-0.1h1.8l4,0.7l12.3-10.9
	l0.2,0.8l3.3,15.9l-1.1-0.4l-7.7-2.6l-3.8,7.6l-9.1-3.5l-5.2,5.5"/>
<path class="st1" d="M18.4,378.2l-0.7-0.1l-6.1-0.4l0.1,0.1l-1.6-0.1l-0.1-0.1l-1.1-0.9l-1.1-4.9L4,366.4l-2.2-3.1l-0.9-1.4l6.7-8.3
	l9.3,9.1l0.3,0.3l-0.7,0.8l4.6,5l-0.8,1.1v-0.1l-3,4.3l2,1.8l2.2,2.1h-2.3v0.2H18.4L18.4,378.2z M8.3,369.8l6.9-5.8l-7.5-0.8
	L8.3,369.8L8.3,369.8z M47.7,361.5l0.3-0.4l0.5,0.2l-0.4-0.3l0.8-1l4.8-6.6l0.4,0.5l3.9,6.2l1.4,0.9h-3.5l0.3,6.3"/>
<path class="st3" d="M24.2,364.5l-4-5.7l11.4-3.9l-3.8,13.8"/>
<path class="st6" d="M20.8,368.2l-0.4-10.9l4.5,6.5l3.1,3.7l-0.4,9.1"/>
<path class="st3" d="M81.1,399.2l-0.4,0.8l-0.1-1.5l-3.3-5.1l-9.4,3.4l-0.9-6.5l-10,4.5l-2.5-2.4l-0.6-1.6l-4.1-11.1l10.1-6.1
	l0.2-0.2l0.4-0.3l2.9,4.1l4.4-1.3l4.2-2.7l6.7-8.5l1.9-2.3v-1.2l2.9,3.4l6.8,8.6l4.2,2.7l4.4,1.2l2.9-4l0.6,0.5l10.1,6l-4.1,11.1
	l-0.6,1.6l-2.5,2.4l-10-4.5l-0.9,6.6l-9.4-3.5l-3.4,5.1v1.6"/>
<path class="st5" d="M7,375.3l-0.1-0.1l-2-1l-3.4-0.3H1.3L1,374l-0.3-0.3v-0.1l-1-1.5H3l-0.1-0.4L1.5,363l0.9-0.4l2.3,3.1l3.9,5.6
	l1.3,6.1 M-71.9,388.7l-3.4-13.5l4.6,0.1l4.5,1.1l8.9-8.5l2.6-0.3l12.8-0.1h0.6l-1.5,6.8l-3.4,14.6l-11-3.4l-7.2-6.8l-6.5,9.9
	l-0.1,0.2l-0.5,1"/>
<path class="st2" d="M-47,388.7l3.3-14.6l1.5-6.9l11.9,7.6l7.7,3.3l2.8,3.5l-5.9,0.5l-0.3-0.8l2.2-1.5h-0.3l0.1-0.1l-10.2-0.9
	l-13.7,12.5 M25.7,384.2l-6.8-6.1l-1.2-0.1l0.1-1H19l-0.5-0.4l-1.8-1.7l-0.8-0.7l4.6-6.6l2.4,10l10.9-4.7l-0.4,0.9l-2.6,7.1
	l-3.2,6.6 M-2.9,374.3l1.6-2.3h2.1l0.7,1.1l2.7,0.8l0.8-0.7l2.9,1.4v1.3l0.2,3.3"/>
<path class="st2" d="M44.6,391.5l-7.9-9l-2-4.1l-2.3-4.9l2.5-1.1l0.3-0.1l1.8-0.4l6.6,8l1.6,8.9l8.8,1.3l0.4,0.1l0.8,1.9l-0.4,1.1
	v-0.1l-4.7,14.1"/>
<path class="st6" d="M0.9,374l-0.5-1h0.8l5,0.4l-0.8,0.7l-1,0.9"/>
<path class="st3" d="M2.5,380.2l-7.7-1.3l-6.8,2.3l-8.7,0.7l-3.1-3.6l21.7-4.6l9.2,4.3l-0.2-3.8l0.8,0.5l1.8,1.3l1,0.8l5,4L17,382
	l-0.4,0.8"/>
<path class="st5" d="M41.8,403.7l-5.9-4.4l-5.6-4v-0.2l-3.1-8.4l-0.1-0.1l-0.1-0.2l3-6l2.9-8l0.5,1l4,8.4l7.9,9.2l5.4,15.5"/>
<path class="st4" d="M16.7,382.7h-0.2l-7.7-6.3l9,0.6l0.8,0.2l7.9,6.5l0.8,7.3"/>
<path class="st1" d="M-71.9,388.6l0.1-0.3l7.2-10.9l7.8,7.4l10.4,3.2l0.6,0.2l-0.7,2.1l-2.2,1.7l-3.8,3.5l-2,1.9l-13.4,4.4"/>
<path class="st3" d="M-41.2,394.2l-0.2-0.1l-0.4-0.2l-5.9-3.8l13.6-12.4l0.3,0.5l0.5,0.8h-0.1l1.6,3l6.4,7.2h0.1l0.6,0.4v0.1
	l0.4,0.7l-0.6,0.2h-0.2l-11.1,3.8l-2.9,0.7"/>
<path class="st6" d="M-35,378h0.8l11.5,1.1l1.5,0.2l-4.3,2.9l-0.2,0.1l-0.3,0.1l-3.1-0.1l-3.5,0.2"/>
<path class="st7" d="M-0.7,383l0.8,0.6l-0.2,0.6l-0.2,0.1l-0.9,0.2"/>
<path class="st7" d="M33.3,436.8l5.6-15.6v-0.4l-4.2,1.5l-9.6,3.1l-5.4-3.7l-12.6-0.8l-2-0.2v-0.9h0.2l8.2-1.1l-14.9-3.6v-0.9
	l4.5-0.6l11.8,2.2l10.6-6l3.6-5.7l-1.1-7.2l-0.2-0.3l-3.1-4.4l-14-8l-10.1-0.5h0.1l-5.8,1.5l-2.3,4.8l-0.1,0.4l-0.1,0.2l-1,5.5
	l2.7,9.2l8,7.6l-2.9,0.4l-0.3,0.1l-2.1,0.6l-11.5-12.2l-3.9-11.6l1.9-7.7l-4.4-0.2l-3.7,7.5l-0.3,0.9l-8.3-9.4l1.1-0.1l3.2-0.2
	l3.1,0.1l5.3-0.5l8.4-0.7l7-2.3l7.9,1.3l14.1,2.7l0.3,0.1l9,7.1l-0.5-5.1l0.9-0.3l1.5,2.7l3.2,8.6l0.5,1.4l-0.1-0.1l6.8,17.7
	l0.6,1.5l3.4,5.4v2.1l-0.2-0.3L40.7,441l-5.6,2.7L33.3,436.8L33.3,436.8z M-3.6,411l-4.4-4.7l1.3,2.7L-3.6,411z M-10.4,401.2
	l1.2-15.7l-3.2,7l0.1,4.8L-10.4,401.2L-10.4,401.2z"/>
<path class="st6" d="M5.2,420.8l-6.2-1.4l-1.1-0.5l-0.5-0.2l-1.1-0.5l-9.4-7.6l-10.3-16.5l-1.9-3.8l-0.3-0.1l0.1-0.5l3.8-7.8
	l0.1-0.2l0.2-0.2l6,0.3l-2.1,8.5l3.7,11.2l10.9,11.6l1.8-0.5l0.2-0.1l1.9-0.2l0.4-0.1l3,2.2l-3.2,0.4l15,3.6v1L5.2,420.8 M6.2,394.2
	l4-0.2l0.3-4.3l-4.7-1.4l-3.5,0.3l-0.1-2.8l-2.6-1.7l-0.8-0.4l0.2-0.9l12.1,0.6l14.9,8.5l-3.9,2.8l-11,9.3
	C11.1,404,6.2,394.2,6.2,394.2z M12.6,399.6l3.8-3.1l-2.2-0.9l-4.4,1.3L12.6,399.6L12.6,399.6z M18,395.7l1.3-0.3l1-1.1l-2.2-1.2
	L18,395.7z M14.5,394.6l2.4,0.9l0.1-2.9l-4.5-2.5l-0.2,3.4L14.5,394.6z M24.8,392.3l0.6-0.7l0.5,0.4l-0.4,0.4l-0.4,0.2"/>
<path class="st3" d="M-13.3,397.6l-0.1-5.2l4.5-9.6l1.4-0.8l-0.5,1.2l-1.7,21.6"/>
<path class="st3" d="M-1,413.7l-0.3-0.1l-6-3.8l-0.1-0.1l-2.8-5.7l0.8-0.5l9.7,10.3"/>
<path class="st3" d="M-10.6,403.6l0.2-2.3l1.1,2.3l-0.8,0.5"/>
<path class="st8" d="M-9,383.1l0.9,0.1l-1.6,19.9l-0.9-0.1L-9,383.1z"/>
<path class="st4" d="M-8.6,390.7l0.2-0.5l2.7-5.6l6-1.6L0,384l-2.1,6.4l-1,2.5"/>
<path class="st5" d="M-2.2,401.2l-1.5-8.6h-0.2l0.1-0.5L-3,390l2.1-6.4l0.2-0.6l0.6,0.2l3,1.9L3,388l0.2,0.9l-2.5,4.3l3.3,3.9
	l-1.5,0.6l-1.2,0.6l-0.4,0.2l11,11.3l-2.2,0.1"/>
<path class="st1" d="M3.2,393l-0.7-3v0.1L2.2,389l-0.1-1.3l3.6-0.4l5.6,1.7l-0.4,5.8l-4.1,0.3"/>
<path class="st2" d="M-67.3,421.3L-68,401l13-4.5l1.8-1.8l3.9-3.5l2.4-1.9l5.6,3.7l0.3,0.2l2,0.9l1.2,0.6l-0.3,0.1l0.2,0.2l-7.8,8.6
	l-2.8,9.2l-0.7,0.2l-0.6,0.2l-3.9,1.1l-0.5,0.1l-0.9,0.1l-7.3-5.2l2.8,12.3l0.1,0.6l-7,4.8"/>
<path class="st9" d="M-0.4,393.5l2.7-4.7l0.1-0.2l0.6-0.8l1.1,4.9L3.7,398"/>
<path class="st10" d="M14.1,395.3l-2.7-1.3l0.3-5.6l1.1,0.7l1.3,0.9H14l4,2.9l-0.2,3.9"/>
<path class="st11" d="M17.1,393.5l-5.9-4.2l1.6-0.1l9,4.9l-2.1,2.1l-2.7,0.7"/>
<path class="st4" d="M-27.7,394.3l-8.8,0.1l-0.2-0.9l11.8-4.1l2.5,5"/>
<path class="st0" d="M2.9,414.5l-2-1.4l-7.6-7.1l-2.9-9.6l1.2-6.5l0.6,0.2L-3,392l0.2,0.3l1.4,8.4l11.4,8.4l0.8-0.1l5.8-1.4l11.5-11
	l0.6-1.3l0.3,1.4l1.1,7.7l-3.9,6.3l-4.2-0.2l-6.9,6.3"/>
<path class="st11" d="M-0.6,398.2l1.5-0.7l1.2-0.6l0.8-0.3l0.3-4.7l0.6,0.3l3.5,2v0.1l4.4,8.8l2.5,3.1l4,1.8l-7.4,1.9"/>
<path class="st10" d="M13.6,407l-2.7-3.2l-0.4-0.4l11-9.4l3.7-2.6l0.4,0.4l3.3,4.9l-0.1,0.3l-0.1,0.1l-11.9,11.4"/>
<path class="st1" d="M-33.6,399.7l-4.8-4.1v0.1l-0.3-0.2l-1.6-1.1l1.1-0.3l2.6-0.6l10-0.1l-6.7,6.8"/>
<path class="st0" d="M-49.4,412.7l2.9-9.4l13.6-1.2l-0.1-0.2h0.1l-0.8-2.4l5.9-6.1l5,0.1l10.5,16.8l-0.3,1.1l-0.1-0.1l-1.9,7.3h0.1
	l-0.3,1.2l-0.6-0.5l-0.5-0.4v-0.1l-10.2-9.5l-12,6.1l-5.8,10.9"/>
<path class="st5" d="M-38.7,394.7l0.3-0.3l5.6,4.7v0.1l0.1,0.2l1,3.2l-0.5,0.1l-15.1,1.3"/>
<path class="st7" d="M8,396.5l6.2-1.9l4,1.6l-5.6,4.6"/>
<path class="st3" d="M43.2,475.2l7.6-6.6L41,453.5l-6,13.8l-5.6-13.7l2.7-11.5l-5.4,7.3l-0.1,0.3l-0.6,0.6l-0.3-0.8l-2.6-9.6
	l-2.7-7.4l-10.3-2.6l-2,0.2l0.4-0.4l-3.3,0.5l1.7-10l13.3,0.8l5.2,3.6l9.5-3.1l2.4,7.8l-3.8,0.1l-0.7,2.1l1.5,5.4l1.7,6.5l0.1,0.4
	l4.7,7.2l6.4-10l-6.1-1.6l4.7-9.9l-4.3-8.2l-3.4-5.3l-0.6-1.6l-7.9-20.5l1.4,0.9l5.5,3.8l0.9,0.7l5,3.9l3.1,16.4l-0.1,0.8l12.8-4.6
	l-1,3.5l-1.7,6.2l-0.8,2.8l-0.3,0.1l-6.7,1.2l7.4,12.8l0.9,19.2l2.5,14.9l-0.1,0.3h-0.1l-7.2,4.4"/>
<path class="st1" d="M44.6,419.7l-3.1-16.9l8.6,2.7l0.6,0.2l-5.2,14.1"/>
<path class="st5" d="M-0.2,478.1L-1,470l-5.4-3.4l-13.7-8.9l-0.7,0.6l-5.1,5.2l-2.4-0.6l-8.4-10l-1.8,4.4l-8.5-16.9l1.2,9.8l0.5,3.8
	l-4.5,21.1l-9.3-11l3.8-8.9v-0.3l-1.7-13.5l-3.8,2.7l-0.3-11.6l-5.7,7.1l-0.6-18.7l1-0.1l0.6,4.7l5.3-3.6l-3.3-14.7l1.1,0.8l7.7,5.5
	h0.7l0.4-0.1l3.8-1.1l1.3-0.5l0.2,0.4l4.8,11.9l5.1-9.3l12.8-6.7l11.4,10.6l-0.4,0.3l-0.6,0.9l-14.2,1.3l-2.8,13.7l0.1-0.1v0.4
	l7.8-4.2l0.2-0.3l0.2,0.2l14.1-2.2l6.9,1.3l8-0.5v-0.3h0.4v-0.1l5.9-0.7l-1.3,1.3l-6.1,6.1l-9.4-4.4l-0.1,5.9l-6.9-1.5l1.2,14.3h0.1
	l0.1,0.5l9,0.1l1.5,10.1l0.2,0.1v0.3l12.8,9.5l-0.5,3.5v0.4l6.8,0.4l-5.7,9.1l-3.6,3.5"/>
<path class="st1" d="M-15.8,419.2l2.7-9.8l0.6,0.8l10.1,8.1l-12.7,1.1"/>
<path class="st11" d="M13.8,416.8l0.8-0.8l6.9-6.5l5.9,0.3l-12.2,7"/>
<path class="st2" d="M-24.4,430.7l4.1-5.3l4.2-6l0.8-0.9l11.9-1.2l3,1.4l-2.6,5.6l8.1,5l0.6,0.2l-0.2,0.9l-8.7,0.6l-6.9-1.3
	l-15.3,2.3"/>
<path class="st1" d="M-33.4,435.7l3-15l15.7-1.5l-4.8,6.8l-4.1,5.4l-0.4,0.5l-9.6,5"/>
<path class="st4" d="M5,430.2l-9.1-5.5l2.8-6.2l6.6,1.4l2.4,0.3L6.1,430L6,430.5"/>
<path class="st6" d="M33.3,437.1l-1.5-5.7l1-3l3.3-0.1l-2.1-6.5l0.4-0.1l5.5-2v1.8l-6.2,17 M34.7,443.3l5.2-2.5l1.5-21.2l0.9,1.4
	l4.4,8.5l-4.3,9.3l6.1,1.6l-7.2,11.4l-0.5,0.7"/>
<path class="st0" d="M11.5,471.5l-0.1-0.1l-12.8-9.5l-0.1-0.6l-1.5-9.5l-9.1-0.1l-0.1-0.9l-1.3-15.6l6.9,1.5l0.1-6.1l10.2,4.6
	l6.1-6.3h0.3l11,2.8l2.9,8.2l-6.3,5.9l4.7,12.8l-4.1,5.4l0.1,0.2l-0.6,0.9l-0.1-0.2l-5.5,6.4v0.6 M-65.1,452l-2.1-13.4l0.5-0.3
	l6.4-8.1l0.3,12.5l3.8-2.5l1.9,14.9v0.4l-3.8,8.7l-0.5,1.2"/>
<path class="st2" d="M-37.4,460.8l-8.7-6.2l-0.6-4.2l-1.5-12.1l0.9-0.3l8.8,17.4l1.6-4l10.2,12.2"/>
<path class="st5" d="M16.7,445.6l7-6.8l0.3,0.8l2.6,9.6l0.9,3.5l-5.8,6.7"/>
<path class="st4" d="M20.9,501.2l1.4-15l6.8-9l-6.3-11.3l3.8-13.4l-0.9-3.3l0.1-0.3l6.8-9.2l0.9,0.4l-0.1,0.1l-3,13.2l4.6,11.4
	l5.8-13.4L52,468.6l-0.3,0.3l-7.1,6.1l6.5,4.9l6.7-4l0.4,0.5h0.3l0.9,14.8l-20.7-2.3h-0.1l-0.9,4.2l-7.2-5l-2.6,11l-4.3-8.8l-0.7,13
	"/>
<path class="st1" d="M-35.9,491.2l-14.7-16.7l4.5-20.9l9.1,6.6l1.1,1.3H-36l2.9,3.5l4.8,5.8l2.8,3.2l11.1,18.2l-11.5-5.1l1,8.4"/>
<path class="st2" d="M58.4,491l-0.9-14.6l0.2-0.2L74,453.1l0.4,1.1l2.6,8l-0.9,2.4l-16.7,27.5"/>
<path class="st1" d="M-3.4,479.2l-12.6-1.8l6.6-7.9l-13,4.8l0.7-16l1.3-1.3l14.4,9.2l5.7,3.6l0.9,8.8l-3.1,0.6l-0.4,0.1l-0.3,0.1"/>
<path class="st4" d="M-10.3,503.1l-4.5-10l-1.1-1.5l-0.1-0.2l-10.3-16.9l-2.7-3.1l-4.8-5.8l-4.8-5.9l1.5,0.5l9.1,2.3l1.7,0.4
	l5.6-5.7l-0.7,15.7l14.8-5.4l-1.1,1.4l-6.6,7.8l11.3,1.7l1.1,1l0.8,0.8l-5.1,7.4l7.6,13.6l-11.6,2.3"/>
<path class="st1" d="M11.7,484.5l5.4-8.6l-6.4-0.4l0.7-4.6v-0.1l6.5-7.7l0.4,0.9l1.5,7l-0.1,2.5l1,6.8l2.7,6.8 M22.6,487l-0.5-0.1
	l0.5-1.8l0.5,1.3l0.3,0.8"/>
<path class="st2" d="M21,501.2l-5.5-5.7l-5.7-5.8l-8.7,11.5H0.9l-0.1,0.1H0.4L0.2,501l-7.5-13.5l5-7.3l-0.3-0.3l-1.4-1.4l0.8-0.3
	l3.2-0.5l0.3-0.1l8.9,8.9l3.1-2.9l9.6,2.1l-2.1-5.3l-1.1-6.9l0.1-2.5l-1.4-6.9V464l-0.1-0.3l4.2-5.6l5.1-5.9l0.9,0.4l-3.8,13.1
	l6.5,11.5l-7.1,9.4l-1.4,15.3"/>
<path class="st5" d="M-25.8,495.2l-0.1-0.4l-1.1-9.2l0.8,0.3l11,4.9l0.3,0.4l1.3,1.9l-10.8,1.9l0.5,0.4"/>
<path class="st4" d="M0.5,500.6l8.9-11.8l0.4-0.4l7.1,7.3l-0.8,0.2l-16.5,6"/>
<path class="st2" d="M-15.7,512.4l-0.2-0.1l-20-21.1l0.5-0.7l10.3,4l11.2,17.3l0.8,1.1"/>
<path class="st1" d="M-14.5,512.5l-11.1-17.3l-0.8-0.7l12.3-2.1l4.6,10.4v0.1l0.1,0.1v2.7l-0.3,9"/>
<path class="st6" d="M5.6,568l1.5-12.1L-3.2,547v0.3l-1.1,8.8l-8.3-15.6l-2.7-13.3l3.3-9l0.4-1.1l1.1,0.3l-0.1,0.1l7.9,0.1l3.5-6.3
	v-0.2l0.1-0.5l7.1-2l8.8,1.9l-2.3-3.7l13-4.8l0.7-4.4l5.8-2.5l8,8l-0.1,0.3l-4.4,7.1l-3.8,8.9l-0.2,0.2l-0.9,0.6l-0.5,0.3l-1.3,1
	l-3.6-8.3h-2.5l-2.2,0.7l0.5,9.6l-7-5.9l-7-2.2v0.1H8.8l-0.1,10l-3.6-1.6v0.1H4.9l-1.5,5.5l-8.8-0.4l12,13.5l-7.5,2.8l9.9,3.2
	l0.1-0.1h0.3l0.1,0.1l0.6,0.3l6.9,3.3l-0.4,1l-0.1-0.1l-4.7,11.4l6.9,3l-2.8,7.9"/>
<path class="st4" d="M41.9,520l2.2-5.5l-1.4-5.6l8.4-5.1l2.5-0.2l10.9,2v1l-11.8,2.8l-1.4,2l12.5,1.6v-0.1h0.1l1.1-6.8l0.6-2.1
	l0.3-1.3l6.9,9.9l-6.5,7l-0.5-0.1l-8.3-2.1l-12.6,1.2l-2.2,1.9"/>
<path class="st4" d="M44.3,518.2l0.8-0.4l0.2,0.5l-0.7,0.7"/>
<path class="st2" d="M49.7,512.2l0.7-1.1l1.7-2.4l12.3-3l1.5,0.2l-1.2,7.7l-0.1,0.4"/>
<path class="st7" d="M-12,518.5l0.4-1l4.9-10.6l8.6,4.2l-0.2,0.4l-3.8,7.1 M79.6,567.2l-5.8-8.8l-5.2-4l-0.9-0.7l-3.2-3.7l-0.5-0.8
	l-2.9-8.5l-5.4-1.3l-11.8-8l-4,1.7L38.1,523l-6,2.1l2.9-6.6l-2.9,1.9l4.9-11.3l0.7,1.8l0.6,1.4l0.6,1.4l0.3,0.7l0.6,1.5l0.5,1.5
	l0.4,3.7l1.1-1.2l0.2-0.2l2.8-2.5l1.5,4.3l4.3-0.9l6.7-4.3l8.6,2.1l3.8,1l3.1-3.1l0.7,4.8l6-1.2l1.5,1.3l1.5-1.4l6,1.2l0.7-4.8
	l3.1,3.1l3.8-1l8.6-2.2l6.7,4.3l4.3,0.9l1.5-4.3l2.8,2.5l0.2,0.1l1.1,1.2l0.4-3.6l0.5-1.6l0.6-1.5l0.3-0.7l0.6-1.4l0.6-1.4l0.7-1.8
	l4.9,11.4l-2.9-1.9l2.9,6.6l-6-2.1l-1.8,10.1l-4-1.7l-11.8,8l-5.4,1.3l-2.8,8.5l-0.4,0.8l-3.2,3.7l-1,0.8l-5.2,4l-5.8,8.8h-2.9
	L79.6,567.2L79.6,567.2z M74.8,548.5l5.9-2.9l0.3-0.1h0.1l0.3-0.1l6.1,3.1h0.1l5.2-3.5l8.8-13l-6.1-6.5l-5.6-2.4l-0.1,0.1l-2.2,3.5
	l-6.1,1.7h-0.2l-0.3,0.1l-6.1-1.7l-2.2-3.5l-0.1-0.1l-5.7,2.5l-6.1,6.5l8.8,13L74.8,548.5L74.8,548.5z"/>
<path class="st3" d="M-3.7,545.5l1.5-0.5l7.2-2.8l-12.5-14h1.4l8.7,0.4l1.7-6l0.6,0.3l2.8,1.4l0.1-10l0.8,0.2l7.6,2.4l5.8,4.8
	l-0.5-8.4l3.1-1.1l2.1,0.1l1-0.1l0.1,0.3l3.3,7.6l0.5-0.3l0.5-0.4l0.9-0.7l2.7-1.7l1.5-1l-3.7,8.3L44,538.1l-2.6-0.6l-13.9-4.3h-0.3
	l-0.1-0.1l-12-1.3l-1.8-0.3l-1.1-0.1l-8.8-0.2H3.2l-1.8,4.4l14.9,0.2l-2.1,8.6l-4.6,4.9l-0.4,0.3"/>
<path class="st6" d="M44.3,518.2l-0.3-0.6l13.5-1.3l0.3,0.9l-6.7,4.2l-5.3,1.1 M42.8,537.7l-10.5-13.5l6.7-2.3l1.8,10l3.4-1.4
	l13.2,9l-9.8,0.7 M74.4,549.4l-5.5-3.7l-9.3-13.8l0.3-0.4l6.4-6.8l6.5-2.8l2.5,3.9l5.3,1.5v-0.1l0.6,0.1h0.2l5.6-1.5l2.4-4l6.6,2.9
	l6.4,6.8l0.3,0.4l-9.3,13.7l-5.8,3.9l-6.3-3.2l-0.1,0.1l-0.1-0.1l-6.4,3.2"/>
<path class="st4" d="M16.2,553l-7.7-3.7l0.5-0.4l4.6-4.8l1.7-7.2l-15.1-0.2l2.6-6.4h0.3l9.1,0.3l1.7,0.2l0.3,0.6l7.6,9.1v-0.1
	l0.7,0.7l0.6,0.5l-0.5,0.9h-0.1l-5.6,10.9"/>
<path class="st1" d="M12.4,530.5l2.9,0.4l13,1.4l-0.7,0.7l-5.2,8.3L22,542"/>
<path class="st0" d="M59.8,553.4v-1l0.1,1"/>
<path class="st0" d="M32.1,564.5l-0.1-9.1h-0.1v-0.1l-8.7,2.6l3.3-11.2l-4.2-4.7h-0.1l-0.8-0.7l0.2-0.4l5.4-8.4l0.5-0.6l2.6,5.2
	L32,539l9.5-2.5l1.8,0.5l4.6,2.4l14.6,8.3l1.6,0.8l0.6,0.2l0.2,0.1l0.7,1.3l-0.7,0.4l-4.7,2.6l7.4,5.8l0.5,0.3l0.3,0.2v1.9l-7.4,8.9
	h-0.1l-2.3,3l0.2,0.1l-0.7,0.9l-0.4-0.1l-0.4-0.2H57l-8.1-2.3l-9,2.2l-3.2,0.5"/>
<path class="st5" d="M29.4,537.7l-2.9-5.7l16.7,5.1l-11.4,3"/>
<path class="st4" d="M62,548.5l-14.5-8.3l0.2-0.9l8.3-0.6l6,1.4l2.9,8.9l0.3,1.1"/>
<path class="st1" d="M23,557.5l-3.9-2.7l-3-2l0.2-0.3l6-11.7l0.5,0.6l4.5,5l-3.2,10.8l-0.2,1.2"/>
<path class="st7" d="M4.1,566.5l-0.6-9.8l-8.6-0.9v-1.1l1.1-9.3l0.7,0.7L8,555.8l-1.7,13.5"/>
<path class="st2" d="M58.3,553.2l1.3-0.7l5.4-3.1l0.3,0.3l3.8,4.5"/>
<path class="st3" d="M20,577.7l-5-2.6l0.2-0.6l2.3-6.4l-6.9-3.2l5.5-13.1L18,553l1.7,1.1l4.3,3l-3,6.5l0.4,1.2l0.2,0.2l0.3,4.7
	l-1.2,7.1l0.1,0.1l-0.1,0.4l-0.2,0.6"/>
<path class="st5" d="M67.5,560l-9.1-7.1l1.3-0.6l8.5,0.7l1.2,1l-1.3,6.4 M31.7,572.9l-7.3-2.1l-3.6-5.3h-0.1l-0.1-0.2l-0.9-2.2
	l1.6-0.1v0.1l6.9-0.5l-5.2-4.9l0.5-0.8l0.3-0.1l9.1-2.6v0.6l0.1,9.6l4.3,9.1l0.4,0.5l-1.8,5.9"/>
<path class="st1" d="M67.4,561.2v-1.5l1.3-6.2l6.3,4.7l-7.3,9.8"/>
<path class="st6" d="M-5.8,554.9l10,1.1l0.9,11.8"/>
<path class="st4" d="M20.1,563.2l3.2-6.7l0.7,0.8l5.4,5l0.9,1L19.7,564 M75.9,572.2l-8.3-4.2v-1.5l0.1-0.1l6.6-8.9l6.6,10h-0.7
	l-1.5,4.1l-0.7,1.8l-2.4,0.8"/>
<path class="st5" d="M60.2,569.7l8.1-9.8l0.3,6.6v1.9l-0.2-0.1l-0.3,5.8"/>
<path class="st2" d="M19.7,577.7v-0.5l1.3-7.4l-0.3-4.5l-0.1-0.1l0.9-0.4l3.6,5.3l3,5.9l1.3,3.7"/>
<path class="st6" d="M80.9,579.5l-0.2,0.1l-3.6-6.6l0.7-1.8l1.8-4.7h3.1l1.8,4.7l0.7,1.8l-3.7,6.7"/>
<path class="st1" d="M57.9,574l-0.9-0.2l3.7-4.8l0.5,0.3l6.1,3.3l0.3-5.6l9.3,4.5v0.4l-0.3,1.9l-9.2,3 M63.3,588.7l-0.4-0.5
	l-0.8-0.8l-0.1-0.1l-6.1-1.9l-4.1,3.1l-8.8-3.3l1.6,4.7l-2.9-0.5l-2.3-0.5l-3.9-1.1l-3.2-4l-2.1-3.4l-1.8-0.8v-0.3l-1.2-3l-3.4-6.7
	l8.5,2.4l3.9,6.5l0.1,0.2l-0.1,0.1l2,2.8l4.7-2.6l29.2,4.2l9,5.6l-0.3,0.9l-9.6-0.8l-0.3-0.2l-0.6-0.4l-2.2-1.3l-1.1-0.6l-1.1,6"/>
<path class="st1" d="M51.3,587.7l0.1-0.1l0.6,0.8"/>
<path class="st5" d="M39.8,573.7h-0.1v-1l9.2-2.2H49l0.1,0.1l9.2,2.6l-7.9,4.7"/>
<path class="st1" d="M37.1,574.5l-1.1-1.1l3.9-0.7l0.2,0.1l11.6,4.6l-1.4,0.4l-7.3,1.3"/>
<path class="st0" d="M40.7,599l-2.5,0.8l1-3l-4.4,1.3l2.3-3.2l-6.3,0.8l2.7-4.8l-2,0.8l0.6-9.5L36,587l0.1,0.2l0.4,0.9h-0.1l2.1,4.9
	l6.6,4.4l-0.5,1l-3.5,2.4 M59.5,597.5h-5.8l0.1-4.8l-6.8-1.4l0.7-0.7l3.6-2.9l4.4-3.3l6.9,2.1l1,1.1l0.4,0.6l1.4,1.9l1-5.3l2.2,1.4
	l2.1,1.3l0.9,0.5l0.1,0.3l1.4,4.5l0.4,8l-0.7-0.5l-6.6-3.9l-1.4,4.5"/>
<path class="st1" d="M64.9,605.2l9.9-4.8H75l0.5-0.2l0.3,6.3v4.8l-3-5.3l-3.1,6.4l-0.6-4.8l-1.3,5.1"/>
<path class="st0" d="M207,192.1l20.3-11.8l12.8,0.9l0.1,0.9l-5.4,1.3l-6.9,1.3l-2.3,0.8l-10.8,6.5l-7.6,1 M241.5,182.1l-0.2-0.2
	l-0.8,0.1H240l-0.1-0.8l1.5-0.4l1.6,1.5"/>
<path class="st0" d="M265.5,205.1l-2.6-2.3l-0.4-0.4l-6.1-10.5v-0.1l-6.7-3.9l-1.6-1.5l-0.5,0.2l-3.5-2.1l-3.7-3.4l11.1,0.8l6.7,4.4
	l5.9,8.5l2.9,11.7"/>
<path class="st1" d="M228.1,184.6l-0.1-0.9l6.7-1.2l6.8-1.7l4,3.8l-1.1,0.1l-0.7,0.1l-2.8,0.1l-1,0.1h-2.7"/>
<path class="st2" d="M254.1,191.8l-4.3-3.8l0.6-0.8l6.9,4.1l-1.3,2.6 M235.7,189.1l-11.8-4.1l3.8-1.2h0.5l9,0.4l2.6-0.1h1.1l2.8-0.2
	h1l3.9,2.4l-9.3,3.9"/>
<path class="st3" d="M246.6,196.3l0.7-2.1l0.3-0.7l-6-0.1l0.3-2.8l-4.2-0.8l10.6-4.5l6.4,5.9l1.7,1.9l-1.3,2.3l-5,0.2l-4.4,3.3"/>
<path class="st4" d="M263.1,217.1l-1.5,0.7v0.4l-0.2,0.1l-0.5,2.9l-4.9,3.3v-7.8l-0.6-2.9l-4.3,0.3l-9.5-1.8l-7-6.1l-15.8-9
	l-3.1,15.2l-3.2,1.3l-14.2,1.3l-0.1,8.9v0.7l-0.2,0.2l-0.1,0.1l-1,1.1l-14.2,3.2l6.1-9.3h-0.1l0.1-0.1l-4.9,1.1l9.1-11l2.1-2.4
	l3.7-4l0.1,0.4l3.1-1.5l-2.7,9.4l0.1-0.1v0.3l16.4-14.5h-0.2l-8.5,1.8l7.3-8.1l10.9-6.7l10.6,3.7l3.5,1.1l3.5,0.7l-0.3,2.6l6.2,0.1
	l-0.6,1.9l-0.7,1.9l2.3-1.7l4.7-0.2l0.9-1.6l1.4-2.6l0.3,1l2.3,7l-3.5,1.7l0.3,0.1h-0.1l5.3,0.5l-3.6,2.5l-2.1,7.6l9.2,0.2l1.3,23.6
	l-0.9,0.1"/>
<path class="st5" d="M198,204.3l-0.5-4.3l9.5-8l8.9-1.2l-7.3,8l-0.2,0.3l-4.9,3.4l-1.7,0.9l-0.2,0.1l-3.5,1.8"/>
<path class="st2" d="M254.4,211.6l0.4-0.7l2.3-8.2l1.9-1.4l-6.5-0.5l1.8-0.9l4-2l-1.9-6.1l0.8-0.5l6.1,10.6v0.2l1,6l0.7,3.1v0.6
	 M230.5,222.3l2.1-5.3l4.4-3.9l-22.3-0.6l3.5-16.8l16.9,9.7l7,6l9.2,1.8v0.9l-7,1.8l-11.1,3.3l-0.5,2.2l-0.2,7.2l-1,0.1"/>
<path class="st3" d="M198.1,213.1l2.9-10.2l0.2-0.2l1.8-0.9l4.8-3.4l0.3-0.2l0.2-0.1l2.5-0.6l4-0.8l4.2-0.9l-21.4,18.9"/>
<path class="st0" d="M168.8,229.3l13.8-15.7l15.7-14.4l0.7,5.4l-0.2,0.2l-3,3.2l-2.1,2.5l-8.2,9.9l-7.8,5.9l-8.3,3.8"/>
<path class="st5" d="M266.3,244.3l-1.5-4.6l0.4-4.9l0.1-0.2l-1.3-23.1l-0.6-3.1l-1.2-7.4l4.5,4.1l2.3,15.4l-0.5,20.1l-1.8,5.6"/>
<path class="st1" d="M181.9,244.1l0.2-0.4l4.7-7l-0.2-0.4l8.8-9.8h-0.1l1.1-1.3l1-1.1l0.8-0.6v0.1l12.8-9.7h-0.1l1.3-1.1l3.1-1.3
	l24.2,0.6l-6,5.4l-2,4.7l1,6.2l0.2,6.8l-9.4,4.8l-6.7,12.2l-1.2,1.5l-0.7-0.4l-8.9-4.2l-15.4,8.8L181.9,244.1L181.9,244.1z
	 M202.8,238.8l-2.8,3.6l14-2.3l1.4-2.3l-4.1-9L202.8,238.8z"/>
<path class="st3" d="M244.6,291.1l2.4-4.4l0.1-0.3l-2.5-1.6l-1.1-0.1l-0.4-0.2l0.1-0.5l-3.6-1.5l-0.2-1.3l-5.3,3.2l1.6-8l1.7-3.1
	l0.1-0.2l-3.8-1.8l-0.5,4.5l-1.3,1.5l-5.1-2.7l0.2,0.5l-0.3-0.2l1.3,3.4l-6.7-1.6l0.5,0.6l-0.6-0.2l4.7,6l-2.5,2.8v0.2l-0.8,0.8
	l-0.6-1.5l-3.4-8.6l-1.8-2.4l-6.2-7.8l-1.1-1.3v0.1l-1.1-1.4v-0.1l-0.4-2l15.4-3.3h0.2l0.2-9.7l5.5-2.9l6.7-2.4l-3.6-9.1l0.4-0.2
	l11.2-6.6l-0.2-7.5l0.1-4.3v-1.1l7.3-1.9l5-0.3l0.2,0.4l0.7,3.3l-0.1,6.5l3.3-2.5l0.5-3.1l3.1-1.4l2.4,18.9l-0.4,4.8l-2.9,11l-4,0.7
	l0.6,5.2l-10.4,15.3v0.4l-0.1,0.1v1.2l-6.1,4.1h0.9v0.5l2.4,0.1l1.2,3.3l-0.9,1.8l0.1,0.1l-0.1,0.2l2.2,1.6l-0.9,5.1l-0.3,1.9
	L244.6,291.1L244.6,291.1z M243.6,266.5l2.3-1.5l-7,0.1L243.6,266.5z M240.6,260.8l10.9-3.4l7.3-6.4l-5,0.8l-7,0.9l-6.4,7.1l0.1,0.1
	l-0.3,0.4L240.6,260.8z M258.6,239.8l-2.8-2.8l5.1-1.5l-5.7-0.5l2.6-2l-1.6-0.4v-0.1l-1.9,4.7l-0.9,1.3L258.6,239.8L258.6,239.8z"/>
<path class="st2" d="M197.2,223.8l0.2-9.6l14.8-1.3l1.7-0.1l-16.7,12.7"/>
<path class="st4" d="M231.5,228.8v-0.2l0.3-7.3l0.6-2.7l12.3-3.7l-0.1,5.5l0.2,8l-11.7,6.9l-0.5,0.2l-0.1-0.1l-0.8,0.3"/>
<path class="st3" d="M174.1,264.3v-0.4l1-0.1v0.6l-0.1,0.1 M128.7,266.2l-0.1-0.1L128.7,266.2"/>
<path class="st3" d="M8.5,273.2l-9.3-0.9h-1l-0.5-0.1v-0.9l-10.5-7v-1.4h-0.3l-0.3-1.1l0.3,0.1l-6.9-17.1l-0.2,0.2l-0.4-0.8
	l-4.9-7.4l0.6-1.2l0.1,0.1l3.7-6.5l-0.5-0.1l-0.2-0.3l-6.7-10.3l5.8,1.4l7.8,5.9l12,15.3l-6.4-1l-3.1-3.5l-3.1,13.1h0.1v0.2l9.5,1.7
	l1.4,11.3l0.1,0.2l12.2,6.5l8.8,6.6l-1-2.2l-1.4-4.3l2.3-9l-0.5-1.5l-0.9-2.2l-3.5,7.1l-0.9-1.6l-3.8-6.8l-0.6-1.1l8.8-0.1l17,0.4
	l47.9-4.6l0.9,0.1h0.2l1.1-0.1l48,4.6l17-0.4l8.7,0.1l-0.5,1.1l-3.8,6.7l-1,1.6l-3.4-7l-0.9,2.1l-0.5,1.6l2.3,9l-1.4,4.3l-1,2.2
	l8.7-6.6l12.3-6.5v-0.2l0.1-0.1l1.3-11.3l9.6-1.6v-0.2h0.1l-3.2-13.1l-3,3.5l-6.4,1l12-15.4l7.8-5.9l5.7-1.4l-0.5,1l-6.1,9.4
	l-0.2,0.3l-0.5,0.1h-0.1l3.8,6.4l0.1-0.1l0.6,1.3l-4.9,7.4l-0.5,0.8l-0.1-0.3l-6.9,17.1l0.3-0.1l-0.3,1.1l-0.3,0.1l-0.1,1.3
	l-10.4,7.1v0.8l-0.4,0.1h-1.1l-9.3,1l-2.5,9.5l-15.8-6.3l5.4-8.6l-0.2-0.1l0.1-0.1l-4.5-3.1l-7.7,2.1l-4.4-0.2l-0.2,0.2l-0.4-0.3
	l-1.6-1.5l-11.1-3l-0.3,0.1l-1.3-0.6l-3.7-1.1l-3.1,2.6h0.3l-1.3,1.3l-0.5,0.1l-5.5-0.3l-0.2,0.1l-0.5-0.1l-13.2,2.5v0.2l-0.6-0.1
	l-13.5-2.6l-0.6,0.1h-0.2l-5.4,0.3l-0.5-0.1l-1.3-1.4l0.3,0.1l-3.1-2.7l-3.7,1.1l-1.4,0.7l-0.2-0.1l-11.1,2.9l-2,1.9l-0.2-0.2
	l-4.5,0.2l-7.6-2.2l-4.5,3.1l0.1,0.1l-0.2,0.1l5.4,8.7l-15.9,6.2"/>
<path class="st8" d="M81.6,250.8h-1H81.6"/>
<path class="st2" d="M182.2,229.1l0.6-0.8l0.7-0.1l13-3l1.6-0.4l-10.8,12l-0.4,0.5"/>
<path class="st1" d="M160.9,237.1l8-7.7l8.4-3.9l0.6,0.7l-11.3,14.5l-0.7,1l-12.1,4"/>
<path class="st5" d="M202.1,238.1l9.5-11.1l4.9,10.8l-1.8,3.1l-16.8,2.7"/>
<path class="st6" d="M251.8,239.1l1.7-2.3l2.7-6.5l0.9,0.1v1.5l2.8,0.8l-2.2,1.6l5.7,0.5l0.1,0.9l-5.9,1.8l4,4"/>
<path class="st2" d="M222.4,239.5l9.5-4.8l1.1-0.5l0.3,0.6l3.8,9.5l-1.1,0.5l-10.6-5.3l-0.6,8.2l-10,5.7"/>
<path class="st6" d="M144.7,276.2l1.1-2.7l1.4-4.2l-2.3-9l0.5-1.6l1.2-2.7l0.6-1.3l3.5,7.3l0.1-0.2l3.8-6.7l0.3-0.6l0.3-0.6l10-12.9
	l0.7-1.1h0.2l5-0.8l4-4.7l3.9,15.9l-0.7,0.1l-9.3,1.7l-1.4,11.3l-0.2,0.1l-12.4,6.6l-11.4,8.7"/>
<path class="st4" d="M214.4,253.3l1.3-1.5l8.2-4.6l0.7-9.2l12.6,6.3l-7.6,2.8l-5.1,2.5l-0.2,9.9l-1.1,0.2 M246.8,281.3l-1-2.9
	l-2-0.1l-3.8-0.1l8.1-5.5l0.1-1v-0.5l10.5-15.4l-0.4-3.5l-6.3,5.5l-11.5,3.6l-1.1-1l-0.5-0.4l7.4-8.1l7.3-0.9l8.6-1.5l2.6-10.1
	l0.4-1.4l0.5,1.4l1.6,4.9l-6.5,14l-4.8,9.6l-0.3,1.7l-0.4,1.6h-0.9l-0.1-0.4l-0.2-1.6l-1.3,1.8l-0.3,1l-1,3.1l-3.1,7.1"/>
<path class="st3" d="M155,254.1l-1.4-9.4l1.5-0.4l11.8-3.9l-11.7,15"/>
<path class="st4" d="M182.1,242.6l0.7,1.1l8.1,13.5l0.3,0.5l-17.4,5.6"/>
<path class="st2" d="M146.3,255.1l8.1-11.3l1.6,10.4l-0.5,1"/>
<path class="st5" d="M213.7,254.6h0.1 M188.9,294.2l-7.4-2.3l1.1-12l-0.1-0.3l-0.9-1.5l-4.7-8.5l13.3-12.5l15.5-8.9l9.9,4.7
	l-1.1,1.6l-0.4,0.5l-12.8,4.7l-4.9,6.2l13.9,8l-11.1,8.4l-1.4,10.5l-12.1,9.1"/>
<path class="st2" d="M213.4,254.3l0.3-0.4l1.1-1.5l0.6,0.5l9.1,6.6l-17.2,3.7"/>
<path class="st1" d="M186.7,352.7h-0.3l-0.3-1l0.7,0.1l1.6,0.2l-1.4,0.7h-0.1 M214.7,300.1l-1-0.2l1.2-1.1l0.3,0.6l0.3,0.8"/>
<path class="st1" d="M182.1,337.2l15.4,7.5l-0.1-0.1l-9.2-18.3l-6.8-10.3l-0.2-2.5l0.3-6.7l-5.3,0.6l1.2-1.7l1.5-2.3l1.8-3.1l-6-3.8
	l5.8-4.5l0.1-0.1l-8.1-5l5.9-4.4l5-4.1l-1.2,12.5l7.6,2.4l-2.3,5.6l9.2-6.9l1.4-10.5l10.3-7.8l-13.7-7.8l5.7-7.2l14.3-5.2l-0.8,1.2
	l-5.4,7.7l0.3,1.4l1.2,8.2l-1,14l5.9,13l13.1,2.6l-0.5,0.6l-9.1,10.4l-0.3-0.3l-12.7-4.2l-3.5,2.8l-3.8,9.8l0.3,6.3l9.1,11.4
	l7.7,10.3l-16.1-2l-12.9,6L182.1,337.2L182.1,337.2z M188.4,311.6l-1.5-6.5l-3,1.2L188.4,311.6z M206.2,306.2l7.7-6.3l-13.9-2.7
	L206.2,306.2L206.2,306.2z M174.1,264l0.1-1.8l16.1-5.2l0.5,0.8l-13.4,12.6"/>
<path class="st4" d="M105.4,259.1l7.2,2.2l-1.9,0.5l-9.1,2.1l-2.2,0.4"/>
<path class="st2" d="M91.4,271.5l1.3-7.8l2.5-0.7h0.2l5.6,0.3l0.1-0.1l9.5-2.2l0.3-0.1l11.5,3l2.4,2.3l-12.4,4.9l-6.4-0.6l-8.7,4.3"
	/>
<path class="st4" d="M235.8,265.1l0.2-0.9l13.2-0.1l-5.4,3.5 M214.6,300l-6.2-13.7l1-14.1l-1.2-8.1l-0.2-1.6l3.3,3.9l6.2,7.8
	l1.9,2.5l3.4,8.7l0.2,0.7l1.3,5.5l11.5,3.7v-0.2l0.2,0.1l2-6.1l6.4,6.2l-15.5,3l-11,2.3"/>
<path class="st2" d="M173.8,297l-0.5-0.6l-4.1-2.2l3.7,7.7l-7.4-1.5l-1.9-11.3l-0.7-1.1l-6.9-6.3l-5,0.8l-0.5-0.2l0.1-0.4l2.4-9.6
	l10-1h1.1l3.8,0.1l-2.7,3.5l8.7,1.1v-0.1l0.1-2.5l0.1-9V264l0.9-0.3l2.9,5.7l4.5,8.2l1.3,2.2l-1,0.8l-3.6,2.9l-4.8,3.6l8.1,5
	l-0.6,0.5l-5.3,4.1l5.6,3.6l-2.3,3.9l-1.5,2.3l-0.8,1h-0.4l-1.3,0.3"/>
<path class="st4" d="M174.2,276.8l-10.6-1.4l2.6-3.3l-4.5-0.1l13.3-9l0.1,1.3l-0.1,9.1l-0.2,3.5"/>
<path class="st2" d="M149,329.3l-4-4.3l-7.6,3.2l-3.9,1.2l6.9-10l-6.1-7.7l-8.4,10.2l-3.6,2.3l-6.3,1.3l-1.3,0.2l0.7-3.2l0.8-4.9
	l-11.6,2.5L93,308.4l-2.9,7.4l-0.9-0.2l-1.6-17.3l6.7-13.9l0.5,0.5l0.1,0.2l4,9.5l0.7,2l1,2.7l7.9,0.8l13.6-2.1l1.6-11.6l0.1-0.8
	l-1-4.3l-2.4-4.4l-1.8-3l15,0.9l-5.4-8.5l-0.3-0.5l8.6-2.5l5.5,3.9l-0.3,0.5l-5.3,8.5l6.1,12.3l8.7,10.7l9.5,5.5l-1,6.7l6.8,9.7
	l-10-3.3V328l-6.5,1.2l0.1,0.1l-0.8,0.1"/>
<path class="st1" d="M99.9,300.2l-1.1-3.3l-0.8-2l-3.9-9.4l-6.3-5.6l-1-0.7l0.2-0.4l4.7-8.3l0.4,0.2l5.2,2.9l8.5-4.1l6.4,0.6
	l11.5-4.6v-0.1h0.3l4.9,0.2l6.5,10.3l-15.1-0.9l0.9,1.4l2.5,4.6l1,4.5v1l-1.8,12.4l-14.4,2.1"/>
<path class="st2" d="M255.6,279l-0.6-0.8v-0.3l-0.5-6.1l-0.1-0.6l0.9-4.6l0.6,1.4l0.1,0.1l2.2,13.4l-0.8,0.3"/>
<path class="st3" d="M255.3,298.7l-0.1-3.3l-1.6-20.2l-1.7-4.3l2.8-4l0.6,3.7l0.1,1l0.6,6.3h-0.1l1.3,8.2l-1,12.6"/>
<path class="st2" d="M236,296.2l-12.3-3.9l-1.3-5.8l-0.1-0.4l2.5-2.8l-4.8-6.2l-1.3-1.5l7.9,1.8l-1.7-4.5l6.7,3.5l0.6-0.7l0.5-4.4
	l0.4-1l5.6,2.8l-0.4,0.7l-1.8,3.3l-1.1,5.8l4.7-2.8l0.4,2.1l4.6,1.9l-0.2,0.9l-1.5-0.1l-8.1-0.1h-0.1l3.5,4.9l0.2,0.2l-2.2,6.5
	L236,296.2L236,296.2z M225.9,282.1l2.3-2.6l-3.6-0.1L225.9,282.1L225.9,282.1z"/>
<path class="st7" d="M247.5,282.1l3.2-7.2l1.4-4.9l0.6,0.8v0.1l1.8,4.2l-1.2,9"/>
<path class="st6" d="M250.7,301.3l-0.2-8.4l-3.3-1l-0.4-0.2l0.2-1.6l0.9-4.9l-2.5-1.8l1.2-2.3l0.3-0.6l1.4,0.8l4.2,1.4l1-7.7h1
	l1.5,21.4l-3.3-3.3v0.2l-0.2-0.2l-0.9,8.2"/>
<path class="st4" d="M198.2,345.8l-15.8-7.7v-0.2l-4.1-10.6l-5.8-2.9l-2.8,15.7l-17.1-3l-1.1-0.3l-2.5-7.7l-0.3-0.6l6.8-1.2
	l0.1-10.8l8.6,2.9l-5.5-7.8v-0.2l1-6.3l-9.1-5.3l-8.9-10.9l-6.6-13.4l0.8,0.1h0.4l14.8,5.9l5.2-1l7.4,6.8l0.7,1.3l1.8,10.9l5,1
	l-4.2-8.7l6.8,3.8l0.7,0.7l2,10.3l0.5-0.1l5.6-0.7l-0.1,0.8l-0.3,6.9l0.1,2.2l6.8,10.1l10.4,20.6"/>
<path class="st5" d="M256.2,286.2l-1.3-8.4l0.9-0.3l0.6,0.9l1.9,2.9l0.4,15.9l-1,0.1"/>
<path class="st3" d="M223.1,278.5l7.2,0.1l-4.6,5.2"/>
<path class="st1" d="M243.5,301.5l-0.5-5.4v-0.9l-5.1-5l-0.1-0.1l-4.5-6.3h1l9.3,0.1l1.2,0.1l3.5,2.2l-0.4,0.6l-2,3.8l1.5,0.5h0.1
	l4.2,1.3l-7.6,14.2"/>
<path class="st4" d="M246.3,315.2l0.3,0.1l2.6-9.2l0.9,0.1l0.2,2.7l5-9.7v-0.5l0.9-12.6h1l1.5,11.2l-2.6,9.9l-9.8,11.2"/>
<path class="st7" d="M249.7,310.2l-0.4-4.2l1.5-4.5l1-9.2v-1.4l4,4l0.4,0.3v3.6l0.1,0.8l-6.4,12.2"/>
<path class="st2" d="M246.6,316.3l-1.5-0.6l0.1-0.4l-1.3-10.3v-0.2l7.5-14l0.3,10.9l-1.6,4.5l-0.1,0.2l-2.8,10.1"/>
<path class="st3" d="M244.6,317.2l1.3,1.1l-2,0.5"/>
<path class="st3" d="M218.3,312.6v-0.1l-0.3-0.3l8.5-9.7l-8.7-1.8v-0.9l10.9-2.3l15.2-2.9v1.8l-3.3,2.9l-6.8,8l11.8,10.8l-13.2,4.7
	l-5.9,2"/>
<path class="st4" d="M244.7,318.2l-12.1-11l7.3-8.6l3.2-2.9l0.8-0.8l0.6,6.4l0.4,3.7l1.3,10.4l-0.1,0.1l-0.6,3.5"/>
<path class="st5" d="M198.8,296.7l-0.6-1l17.6,3.5l-0.7,0.6l-0.4-0.3l0.3,0.4l-9,7.4 M182.4,306l5.2-2.2l2.1,9.4l-0.8,0.5"/>
<path class="st4" d="M197.8,327.5l-0.3-6.7l3.9-10.2l4.1-3.3l13.3,4.4l0.5,0.5l-0.3,1.4l-2.3,14.4l5.3,5l0.3,0.5l-0.5,0.2l-6.9,3.2
	l-7.6,2.5"/>
<path class="st1" d="M73.2,350.2l-1.1-13l-1.1-2.7l-3.2-6l-1-1.8l-3.3-6.5l-7-0.1l12.6-12.7l0.6-0.5l3.4,8.7l8,18l8.1-18l3.4-8.8
	l0.6,0.6l12.6,12.6l-7,0.1l-3.3,6.6l-1,1.8l-3.3,6l-1.1,2.7l-1,12.9l-0.9,0.2l-7-12.4l-7.1,12.4 M113.4,330.7l1.4-5.5l0.1-0.4
	l0.9-0.1l6.2-1.2l3.3-2.2l9-10.9l0.4,0.5l6.8,8.5l-6.6,9.6l-7.2,4.1l-8.1,10.1"/>
<path class="st6" d="M222.6,335.7l-0.1-0.2l0.9-0.3l0.1,0.1l-0.8,0.5 M222.6,335.7l-1.1-2l-0.3-0.3l-5.5-5.2l2.7-17.2l0.7,1.1
	l7.8,11.5l5.2-1.8l12.4-4.5l1.1-0.2l-0.5,1.1l-7.9,18.2l-5.9,5.9"/>
<path class="st5" d="M113.5,330.7l-1.9-2.6l-4.7-5.8l-12.5,4.9l4-8h6.4l11.8-2.5l0.8-0.4l-0.2,0.9l-0.1,1l-0.8,4.4l-0.6,2.7
	l-1.6,6.6"/>
<path class="st0" d="M112.7,360.5l-4.6-6.3v-0.3l-0.2-4.7l-8-0.1l-10.7-12l1.2-2.9l3.3-6.1l1.2-2l0.3-0.2l11.9-4.6l0.3,0.4l4.9,5.9
	l2,2.7l5.9,12.1l0.1,0.1l0.1,0.1l0.1,0.3v0.7l-0.1-0.1l0.3,8.9l-6.4,9l-0.2,0.2l-0.3,0.4"/>
<path class="st2" d="M186.7,352.7l-10.6-2.8l-2.8-2.1l-4.4-8.1l3-16.5l7,3.4l0.2,0.2l4.1,10.8l0.1,0.3l4.1,14.6l-0.4,0.2H186.7"/>
<path class="st1" d="M137.3,329.2l-0.4-1l-0.3-0.7l8.6-3.6l0.2,0.2l4.4,4.6l2.9,8.8"/>
<path class="st5" d="M135.3,342.7l-8.5-10.1l7.7-4.4l3-0.9l0.2,0.6l0.4,0.9l3.7,10.2l-0.2,0.2l-6.1,3.7"/>
<path class="st0" d="M164.2,374.6l-1.1-1.6h-5.2l0.6-1.6l1.4-8.6l0.9-1.4l11.1,2.4l-11.4-11.3l-13.7-0.3l-5.7-5.8l-0.3-7.5l-4-10.9
	l15.3,8.2l1,0.4l1.6,6.3l5.5-5.2l0.4,0.1l0.2,0.1l6,6.2l7,3.1l2.8,2.1l3.1,6l8.9,7.3l4.9,12.9l-8.3,3.5"/>
<path class="st2" d="M228.1,347.1l-13.4,1.7h-0.3l-7.7-10.2l7.9-2.6l7.2-3.3l0.3,0.3l1.3,2.2l0.1,0.2l2.7,7.2l1.6,2.9l0.7,0.1
	l4.8,0.1h0.1l1.6-0.1l0.9-5.3l1,0.1l-0.6,5.1l4.6,11.7 M129.7,347.7l-0.1,0.1l-0.2-0.2l-9.6-4.2l-0.2-0.1v-0.1l-0.5-0.8l0.2-0.2
	l8.2-10.2l8.2,9.7l6-3.7l0.4,8.3v1.4l-0.2-0.2l-0.2,10.7"/>
<path class="st3" d="M228.4,346.6l-1.2-0.4l-1.8-3.2l-3.4-8.9l9.2,7.1l6.3-6.1l-0.6,5.3l-1.1,6.1l-2.5,0.1"/>
<path class="st1" d="M166.2,344.7l-7-7.2l10.4,1.8l5.1,9.3"/>
<path class="st1" d="M152,336.2l9.3,1.6l-7.1,6.6"/>
<path class="st1" d="M159.4,338.5l0.5-0.7l0.5-0.4l0.3,0.3l1.2,1.2"/>
<path class="st5" d="M88,350.7l0.1-0.6l1.2-14.1l10.9,12.3l8.6,0.2l0.3,5.3l-0.1,1.6l-0.4-0.5l-3.7,5.9h-0.4l-4.3,0.7"/>
<path class="st1" d="M114.2,361.6l-0.1,0.1l-0.9-0.3l0.3-0.5l6.2-8.8l-0.3-9.8l0.7,0.2l10.5,4.6l-8.2,4l9.1,3.6l-2.6,10.5"/>
<path class="st5" d="M187.8,363l-8.9-7.1l-3.6-7.1l11.4,3.1l12.6-5.9l15.3,1.9l13.7-1.7l11.8,9.2l0.7,0.3l-0.5,2l-12.1,3.1
	L215,350.2l-0.6,0.1l-9.9,18l-11.8,7.6 M161,362.3l-0.4-0.1l-6-7.4v0.1v-0.1l-8.4,8.2l-0.6,0.5l-4.9-6.1V357l0.3-12.1l0.9,1.1
	l5.2,5.2l13.6,0.3l12.7,12.6l0.8,1.1"/>
<path class="st0" d="M219.3,368.7l-2.4-0.3h-13.4l10.4-19l1.4-0.3l13.2,10.6l12.2-3l-3,19.3h-0.4l-4.3,0.2l-4.7,1.1"/>
<path class="st2" d="M106.4,367.3l-9.1,3.5l-3.8-7.6l-7.7,2.7l-1.1,0.3l3.5-16.7l0.6,0.6l11.7,10.4l3.9-0.7h1.9l-0.2,0.1h1.3
	l-0.3,5.4l6.3-4.3l0.1-0.2l0.4-0.4l14.8,3.7l0.8,0.1l-3.8,7.7l-8.9-2.2l-5.2,3.1"/>
<path class="st1" d="M143.2,378.1v-0.2h-2.3l2.2-2.1l2-1.8l-3-4.2v0.1l-0.8-1.1l0.2-0.4l4.3-4.7l-0.7-0.8l0.4-0.4l9.1-8.9l0.4,0.3
	l6.4,7.9l-0.9,1.4l-2.2,3.1l-3.8,5.4l-1.1,4.9l-1.2,1l-1.6,0.1l0.1-0.1l-6.2,0.4l-0.6,0.1L143.2,378.1L143.2,378.1z M154,369.7
	l0.7-6.6l-7.5,0.8L154,369.7L154,369.7z M106.1,366.2l0.3-5.3h-3.6l1.5-0.9l4.3-6.7l0.4,0.6l4.4,6l1.1,1.4l-0.3,0.4l-8.1,5.6"/>
<path class="st3" d="M130.7,354.7l11.4,3.9l-4,5.7l-3.6,4.2"/>
<path class="st6" d="M134.3,367.6l3.1-3.8l4.5-6.4l-0.5,10.8l-6.7,8.4"/>
<path class="st5" d="M153.7,371.2l3.9-5.5l2.3-3.1l0.8,0.3l-1.3,8.7l-0.1,0.5h3.3l-1,1.5l-0.2,0.4l-0.7-0.2l-3.3,0.3l-2.1,1v0.1
	l-2.9,2.1 M233.2,388.7v-0.1l-6.5-9.8l-7.2,6.8l-11,3.4l-3.4-14.6l-1.5-6.8H217l2.6,0.3l8.9,8.5l4.4-1l4.7-0.1l-3.7,14.6"/>
<path class="st2" d="M196.5,378.7l-10.2,1h0.1h-0.3l2.2,1.5l-0.3,0.9l-5.9-0.6l2.8-3.4l7.8-3.4l11.8-7.5l1.5,6.9l3.4,14.5l-0.1,0.1
	l0.8,2.5 M131.5,380.8l-3-8.1l1,0.4l9.9,4.4l2.4-10.1l4.6,6.6l-0.8,0.8l-1.8,1.6l-0.6,0.5h1.3l0.1,0.9l-1.2,0.2l-6.8,6l-1.9,3.4
	 M154.4,376v-1.3l2.9-1.5l0.8,0.7l2.7-0.8l0.7-1h2.1l1.6,2.2l-11,5"/>
<path class="st2" d="M107.5,393.1l-0.2-0.5l-0.2-0.6l0.8-1.9h0.4l8.8-1.4l1.5-8.9l6.7-8l1.8,0.4l0.2,0.1l2.6,1.1l-2.3,5l-2,4
	l-7.9,9.1l-5.5,15.7"/>
<path class="st6" d="M156.9,374.1l-0.7-0.7l1-0.1l4.7-0.4l-0.5,0.9l-0.2,0.2l-3.3,0.9"/>
<path class="st3" d="M145.3,381.8l1.4-1.1l5.1-4l1-0.8l2.6-1.9v1l-0.2,2.8l9.2-4.2l21.7,4.6l-3.1,3.5l-8.7-0.7l-6.9-2.3l-7.6,1.3
	l-14.2,2.7"/>
<path class="st5" d="M117,391l7.9-9.1l4.5-9.6l0.3,1.2l2.6,7l3,6l-0.2,0.3l-3.1,8.4l-0.2,0.2l-5.4,3.9l-5.9,4.5l-9,2.8"/>
<path class="st4" d="M135.7,383.7l8-6.5l0.7-0.1l9.1-0.6l-1.2,1l-6.5,5.2l-0.2,0.1l-10.6,8.3"/>
<path class="st1" d="M216.7,397.3l-1.9-1.9l-3.8-3.6l-2.2-1.7l-0.7-2.1l0.7-0.2l10.2-3.2l7.9-7.4l7.3,11.2l-4,13.2"/>
<path class="st3" d="M198.5,394.3v-0.1l-11.1-3.8h-0.1l-0.6-0.1l0.2-0.6l0.1-0.2l0.1-0.1l0.5-0.4v0.1l6.5-7.3l0.1-0.2l1.5-2.8
	l0.3-0.7l0.3-0.6l0.5,0.4l13.1,12l-5.8,3.8l-0.4,0.2l-0.2,0.1l-2.1,0.9"/>
<path class="st6" d="M191.4,382.2H188l-0.3-0.2l-4.2-2.8l1.5-0.3l12.3-1.1l-0.4,0.8l-2,3.7"/>
<path class="st7" d="M162.6,384.2l-0.3-0.1l-0.2-0.6l0.5-0.2l0.4-0.2l0.4,1.3"/>
<path class="st7" d="M121.5,441.2l-1.4-18.6l-0.2,0.3v-2.1l0.1-0.1l3.3-5.3l0.6-1.4l6.8-17.7l-0.1,0.1l0.5-1.5l3.1-8.4l0.1-0.2
	l1.4-2.6l0.9,0.3l-0.5,5.1l9-7.1l0.3-0.1l14.1-2.7l7.9-1.3l7,2.3l8.4,0.7h0.1l5.3,0.5l3.2-0.1l3.3,0.2l0.9,0.1l-8.3,9.4l-0.4-0.9
	l-3.7-7.5l-4.4,0.2l1.9,7.7l-3.9,11.6l-11.5,12.2l-2.1-0.6l-0.3-0.1l-2.8-0.4l8-7.6l2.7-9.2l-1.1-5.5v-0.1l-0.2-0.4h0.1l-2.3-4.8
	l-5.8-1.5h0.1l-10.1,0.5l-14,8l-3.1,4.4l-0.1,0.2l-0.1,0.1l-1,7.1l3.6,5.7l10.6,6l11.8-2.2l4.5,0.6v0.9l-14.9,3.6l8.2,1.1h0.1v0.9
	l-2,0.2l-12.6,0.8l-5.4,3.7l-9.6-3.1l-4.2-1.5v0.4l5.6,15.7l-1.9,7.1L121.5,441.2z M165.9,411l3.1-2l1.3-2.7L165.9,411z
	 M172.7,401.2l1.9-4l0.1-4.8l-3.2-7L172.7,401.2z"/>
<path class="st6" d="M146.1,419.3v-0.9l14.9-3.6l-3-0.4l0.8-0.7l2.1-1.5h0.3l2,0.3h0.2l0.1,0.1l1.6,0.4l11-11.6l3.7-11.2l-2.1-8.5
	l6-0.2l0.2,0.3l3.9,7.8l0.2,0.5l-0.5,0.2l-1.8,3.8l-10.4,16.5l-9.4,7.5l-1,0.5l-0.5,0.3l-1,0.4l-6.3,1.4h-0.2 M140.2,394.7l-3.8-2.8
	l14.9-8.5l12.1-0.6l0.2,0.9l-0.9,0.4l-2.5,1.6l-0.1,2.8l-3.4-0.3h-0.1l-4.7,1.4l0.3,4.3l4,0.2l-4.9,10L140.2,394.7z M149.7,399.5
	l2.8-2.7l-4.4-1.3l-2.2,0.9L149.7,399.5L149.7,399.5z M144.3,395.6l-0.1-2.6l-2.2,1.2l1,1.1L144.3,395.6L144.3,395.6z M145.3,395.5
	l2.5-1l2.1-1l-0.2-3.4l-4.5,2.5L145.3,395.5z M136.8,392.3l-0.5-0.3l0.5-0.4l0.7,0.6l-0.2,0.3"/>
<path class="st3" d="M170.3,383.2l-0.6-1.5l1.5,1l4.4,9.7v5.2l-3.6,7.2"/>
<path class="st3" d="M162.9,412.7l8.8-9.3l0.7,0.5l-2.7,5.7l-0.1,0.1l-6,3.9l-1.9,0.3"/>
<path class="st8" d="M171.2,383.1l1.6,19.9l-0.9,0.1l-1.6-19.9L171.2,383.1z"/>
<path class="st3" d="M171.6,403.5l1.1-2.2l0.2,2.2l-0.5,0.6"/>
<path class="st4" d="M164.4,390.3L162,383l0.8,0.1l5.2,1.4l2.9,6l-5.5,2.2"/>
<path class="st5" d="M150.4,409.8l11-11.4l-0.4-0.1l-1.2-0.6l-1.5-0.7l3.3-3.8l-2.5-4.4l0.2-1l0.1-2.7l3.6-2.3l0.1,0.6l2.2,6.6
	l0.9,2.4l-0.2,0.1l-1.5,8.6l-11.9,8.8"/>
<path class="st1" d="M151.3,394.7l-0.3-5.9l5.5-1.6h0.1l3.6,0.3l-0.1,1.3l-0.3,1.1l-0.1-0.1l-0.6,3.1l-3.6,2"/>
<path class="st2" d="M221.8,422.2l0.1-0.7l2.8-12.1v-0.1l-7.3,5.1h-0.8l-0.6-0.1l-3.9-1.2l-0.7-0.2l-0.3-0.1l-0.2-0.1l-0.2-0.2
	l-2.7-8.9l-7.9-8.7l0.3-0.2H200l1.3-0.7l2-0.9l0.4-0.2l5.5-3.6l2.4,1.8l3.8,3.6l1.8,1.7l13.1,4.5l-0.7,20.3l-0.8,5.7"/>
<path class="st9" d="M158.2,392.7v-0.1l1-4.8l0.7,0.9l2.8,4.7l-4.1,4.6"/>
<path class="st10" d="M144.3,392.8l4-2.8l-0.1-0.1l1.2-0.8l1.2-0.8l0.3,5.6l-2.7,1.4l-3.8,1.4"/>
<path class="st11" d="M142.5,396.2l-2-2.2l9-4.8h1.5l-5.8,4.3l0.1,3.4"/>
<path class="st4" d="M81,501.7l-12.2-2l-9.6-7.9l0.5-0.8l12.1,4.1l8.4-0.6l0.7,0.1l0.2-0.1h1l8.4,0.6l12.1-4.1l0.4,0.8l-9.5,7.9
	l-11.9,1.9v0.2 M55,461.7l-0.9-19.1l-7.8-13.5l7.5-1.4l0.1-0.2l0.7-2.2l1.7-6.2l0.5-1.9l-12.4,4.6l0.1-2.3l0.2-0.3l4.8-12.9h-0.1
	l0.2-0.7l4.6-13.9l0.7,0.4l2.1,1.7l10.6-4.8l0.9,6.7l9-3.4l3.6,5.6l3.7-5.6l9,3.3l0.9-6.6l10.6,4.7l2.1-1.7l0.6-0.4l4.9,14.6
	l-0.1,0.1l4.8,12.9l0.1,0.3l0.2,2.2l-12.4-4.5l0.5,1.9l1.7,6.1l0.7,2.3v0.1l7.6,1.5l-7.9,13.5l-0.8,19l-2.8,16l-16.2-22.9l-0.8,0.2
	l0.1-0.4h-6l-0.5,0.1h-6.4l0.1,0.3l-0.8-0.1l-16.2,22.8 M187.1,389.5l0.4,0.1l11.4,3.9l-0.1,0.9l-8.8-0.1l-0.1-0.4v0.4l-5.2,0.1"/>
<path class="st0" d="M140.3,410.3l-4.2,0.2l-3.9-6.2v-0.2l1.3-9l0.7,1.3l11.5,11l5.8,1.5h0.8l11.4-8.3l1.5-8.7l0.2-0.1l5.2-2.1
	l0.1,0.6l1.2,5.9l-2.9,9.6l-7.6,7.1l-2,1.5l-12.3,2.3"/>
<path class="st11" d="M144.1,408.1l4-1.9l2.5-3v-0.1l4.4-8.9l0.2-0.1l3.9-2.2l0.3,4.7l0.8,0.3l1.2,0.6l1.5,0.7L151.5,410"/>
<path class="st10" d="M133.5,397l-0.1-0.4l0.1-0.2l3.3-4.7l0.3-0.4l0.4,0.3l3.3,2.4l10.9,9.3l-0.3,0.4v0.1l-2.7,3.2l-3.2,1.4"/>
<path class="st1" d="M188.8,393.5l10,0.1l2.7,0.6l1.1,0.3l-1.8,1.2h-0.1l-4.8,4l-0.3,0.5"/>
<path class="st0" d="M200.3,415.5l-11.9-6.2l-10.3,9.5l-0.2,0.3l-0.8,0.8l-0.3-1.3h0.1l-1.9-7.3l-0.1,0.1l-0.3-1l0.1-0.3l10.4-16.6
	l4.9-0.1l0.2,0.1l5.8,6l-0.8,2.4v0.1l13.5,1.2l3,9.5l-5.5,13.6"/>
<path class="st5" d="M194,402.7l0.1-0.6l0.9-2.8l0.1-0.1l0.1-0.1l5.5-4.7l0.4,0.4l8.4,9.2"/>
<path class="st7" d="M144.1,396.1l4-1.5l6.2,1.8l-4.6,4.4"/>
<path class="st3" d="M103.9,476.7l-0.1-0.2v-0.3l2.5-14.8l0.9-19.2l7.4-12.7l-6.9-1.3l-0.2-0.3l-0.7-2.5l-1.7-6.2l-1-3.6l12.8,4.7
	l-0.1-0.8v-0.1l3.1-16.2l5-3.9l0.9-0.7l5.4-3.8l1.4-0.9l-7.8,20.4l-0.6,1.5l-3.4,5.5l-4.3,8.2l4.6,9.9l-6,1.5l6.4,10l4.7-7.2
	l0.1-0.4l1.7-6.5l1.5-5.4l-0.7-2.1l-3.8-0.1l2.4-7.7l9.5,3l5.2-3.5l13.3-0.8l1.7,10l-3.3-0.5l0.4,0.4l-2-0.3l-10.4,2.6l-2.7,7.5
	l-2.8,10.4l-0.7-0.8v-0.1l-5.4-7.3l2.7,11.4l-5.6,13.8l-6-13.9l-9.8,15.1l7.6,6.6l-7.9,6"/>
<path class="st1" d="M116.7,419.7l-5.1-14.1l0.6-0.1l8.6-2.7l-3.5,18.4"/>
<path class="st5" d="M149.5,484.1l-5.7-9.1l6.7-0.4v-0.4h0.1l-0.5-3.4l12.8-9.5v-0.4l0.1-0.1l1.6-10l9-0.1v-0.5h0.2l1.2-14.4
	l-6.9,1.5l-0.1-5.8l-9.4,4.3l-6.1-6l-1.3-1.4l5.9,0.8l0.4,0.1v0.2l8,0.6l6.9-1.3l14.1,2.2l0.2-0.2l0.2,0.3l7.8,4.1v-0.3l-2.7-13.6
	l-14.2-1.3l-0.6-0.9l-0.4-0.4l0.4-0.3l11-10.2l12.8,6.6l5.1,9.4l4.9-12.3l0.4,0.1l1,0.4l3.8,1.1h0.4l0.6,0.1l7.9-5.6l1-0.8
	l-3.3,14.6l5.3,3.6l0.6-4.6l1,0.1l-0.6,18.6l-5.7-7.1l-0.3,11.7l-3.8-2.6l-1.7,13.5v0.3l3.8,8.8l-9.3,11.1l-4.5-21.1l0.5-3.8
	l1.2-9.8l-8.6,16.9l-1.8-4.5l-8.4,10.1l-2.4,0.6l-5-5.2l-0.7-0.7l-13.7,8.8l-5.4,3.4l-0.8,8.2l-9.4,9.5"/>
<path class="st1" d="M164.7,418.2l10.1-8.1V410l0.6-0.6l2.7,9.8l-0.7,0.2"/>
<path class="st11" d="M134.9,409.8l5.9-0.3l7.8,7.2h-1.5"/>
<path class="st2" d="M172.4,429.7l-6.9,1.3l-8.7-0.6l-0.2-0.9l0.7-0.2l8-4.9l-2.6-5.7l3-1.3l11.9,1.1l0.8,1l4.2,5.9l4.1,5.4l1,1.3"
	/>
<path class="st1" d="M186.3,431.7l-0.4-0.4l-4.1-5.4l-4.8-6.8l15.7,1.4l3,15l0.2,1.3"/>
<path class="st4" d="M156.2,429.7l-1.7-9.6l2.5-0.2l6.6-1.5l2.8,6.2l-9,5.5l-0.6,0.2l-0.5,0.2"/>
<path class="st6" d="M128,437.1l-5.6-15.6v-1.8l5.9,2.1l-0.2,0.4l-1.9,6.1l3.3,0.1l0.9,3l-1.8,6.9 M121,451.8l-7.3-11.4l6.2-1.7
	l-4.3-9.3l4.4-8.4l0.8-1.5l1.6,21.2l5.2,2.6l-6.1,9.2"/>
<path class="st0" d="M150,471.2l-5.4-6.4v0.1l-0.7-0.7l0.1-0.3l-4.1-5.4l4.6-12.7l-6.2-6l2.9-8.1l11.2-2.9l0.2,0.2l6,6.2l10.1-4.7
	l0.1,6.2l7-1.5l-1.3,15.5l-0.1,0.9l-9.1,0.1l-1.5,9.5l-0.1,0.6l-12.8,9.6l-0.8,0.5 M220.4,464.2l-3.8-8.8v-0.3l1.9-15l3.7,2.6
	l0.4-12.5l6.4,8l0.5,0.3l-2.2,13.5l-6.5,13.4"/>
<path class="st2" d="M199.2,451.5l1.6,3.9l8.7-17.3l1,0.2l-1.5,12.1l-0.6,4.2l-8.7,6.3l-10.7,2.8"/>
<path class="st5" d="M134.8,452.7l0.9-3.6l2.8-10.3l7.1,6.7l-5,13.9"/>
<path class="st4" d="M138.7,490.2l-4.3,8.9l-2.6-11l-0.1,0.1v-0.1l-7.1,5l-0.9-4.2l-20.8,2.3l0.9-14.9h0.3l0.4-0.4l6.7,4l6.4-5
	l-7.3-6.3l0.2-0.4l11-16.8l5.8,13.3l4.6-11.4l-3-13.1l-0.1-0.2l0.9-0.3l6.9,9.4l-0.9,3.3l3.8,13.4l-6.4,11.3l6.8,9.1l1.5,14.9
	l-2,2.2"/>
<path class="st1" d="M188.1,487l-11.4,5.2l11.1-18.2l2.8-3.3l4.8-5.7l2.9-3.5h-0.1l1.1-1.4l9.1-6.5l4.5,20.9l-14.7,16.6l-11.1,4.4"
	/>
<path class="st2" d="M86.2,464.6l-0.9-2.5l2.6-8l0.3-1.1l16.4,23.1l0.2,0.2l-1,14.6l-0.1,0.2l-0.8,1"/>
<path class="st1" d="M59.2,491.7l-0.1-0.1H59l-0.2-0.3L59,491l16.3-26.9l0.7-2l-2.4-7.7l-0.3-0.9h15.6l-0.3,0.8l-2.3,7.7l0.7,2.1
	l16.5,27.1l-0.2,0.3l-0.1,0.1v0.1H103l-12.4,4.2l-8.5-0.6h-0.5v0.1h-1.4l-8.6,0.6 M164.4,479.1l-2.7-0.5l0.8-8.8l5.8-3.6l14.4-9.2
	l1.2,1.2l0.8,16l-13-4.7l6.6,7.8l-12.6,1.9l-0.2,0.1"/>
<path class="st4" d="M172.1,503.3l-11.2-2.2l7.6-13.7l-5.1-7.3l0.7-0.8l1.2-1.1l11.3-1.7l-6.6-7.7l-1.1-1.4l14.8,5.4L183,457
	l5.5,5.7l1.8-0.3l9.1-2.4l1.5-0.5l-4.8,6l-4.8,5.8l-2.8,3.2l-10.2,16.8l-0.1,0.1l-0.2,0.3l-0.9,1.3l-4.5,10v0.4"/>
<path class="st1" d="M141.6,480.2l1-6.9l-0.1-2.4l1.5-7l0.1-0.2l0.2-0.8l6.6,7.8l0.7,4.7l-6.4,0.4l5.4,8.6l-11.7,2.6"/>
<path class="st1" d="M139.2,486.2l0.5-1.3l0.5,1.9l-0.5,0.1l-0.8,0.3"/>
<path class="st2" d="M140.5,501l-1.3-14.3l-7.1-9.4l6.5-11.5l-3.8-13.1l0.8-0.5l5.1,5.9l4.3,5.7l-0.2,0.4l-1.3,6.9l0.1,2.3l-1.1,7.1
	l-2.1,5.3l9.6-2.1l0.2,0.1l2.9,2.8l8.8-9l0.4,0.1l4,0.7l-1.5,1.6l-0.2,0.3l4.9,7.2l-0.1,0.3l-7.5,13.6l-0.4-0.1h-0.1l-0.1-0.1
	l-0.2-0.1l-8.6-11.4l-5.8,5.9l-6.1,6.4"/>
<path class="st5" d="M186.6,495l-10.7-1.8l1.3-2l0.3-0.3l11.7-5.3v0.8l-1,8.4l-0.1,0.5l-2,0.2"/>
<path class="st3" d="M39.4,517.7l-0.4-1.4l-0.6-1.4l-0.3-0.7l-0.6-1.5l-0.6-1.5l-0.3-0.9l4.3-7l-7.1-7l-4.8,1.9l-0.7,4.5l-12.4,4.6
	h-0.2l2.7,4.5L8,509.6l-6.3,1.8l-0.1,0.1l-0.4,0.2L1,511.6l-7.4-3.6l-4.7,10l-0.6,1.5l-4.8-8.3l1.2,0.2l-0.1-0.1l1.3,0.2l0.1,0.1
	l3.5,1.6l0.2-7.6l-0.1-3.1l10.9-2.1l0.3-0.1l1.3-0.5L2,500l14.1-5.2l5.5,5.8l0.5,0.5l0.6-12.6l0.9-0.2l0.1,0.3l3.9,7.8l2.3-9.8
	l0.7,0.5l6.5,4.5l0.7-3.7h0.5l20.8,2.4l0.6,0.7h0.1l0.1,0.1l9.3,7.8l11.8,1.9l12.1-2l9.3-7.8l0.2-0.1l0.5-0.7l21.3-2.3l0.1,0.4
	l0.7,3.3l6.6-4.6l0.6-0.4l2.3,9.8l3.9-7.9l0.1-0.2l0.9,0.1l0.6,12.6l0.4-0.5l5.6-5.8l14.1,5.2l-0.1-0.2l1.5,0.6l11,2.2l-0.1,3.1
	l0.2,7.5l3.5-1.6l1.3-0.3l-0.1,0.2l1.3-0.3l-4.8,8.4l-0.6-1.6l-4.7-9.9l-7.6,3.7l-0.4-0.2l-0.1-0.2l-6.3-1.8l-10.4,2.2l2.7-4.4
	l-0.2-0.1l-12.4-4.5l-0.7-4.5l-4.8-2l-7.1,7l4.3,7l-0.3,0.9l-0.6,1.5l-0.6,1.4l-0.3,0.7l-0.6,1.5l-0.5,1.4l-0.6,5.5l-2.5-2.7
	l-2.4-6.1l1.3-5.1l-7.6-4.6l-2.3-0.2l-10.7,2l-1.4,0.2l-0.4-1.8L96,505l-0.1-0.1l-5.2,7.5l6.3,6.8l-4.9,1.3l-2.1-2.2l-0.5,4
	l-6.6-1.2l-2.3,2v-0.9l-1.2-1.1l-6.6,1.3l-0.5-4l-2.2,2.1l-4.9-1.3l6.4-6.7l-5.3-7.5v0.1l-0.2-0.3l-0.4,1.8l-1.4-0.1v-0.1v0.1
	l-10.7-2l-2.4,0.2l-7.6,4.5l1.4,5.1l-2.4,6.2l-2.6,2.7"/>
<path class="st4" d="M146.1,495.7l-0.5-0.3l0.4-0.5l6.5-6.6l0.3,0.3l0.1,0.1l8.8,11.7l1,1.4"/>
<path class="st2" d="M176.2,511.7l11.2-17.3l10.3-4.1l0.5,0.8l-20,21.1H178l-2.6,0.5"/>
<path class="st1" d="M171.6,505.7l0.1-2.8l0.1-0.1l4.6-10.5l12.3,2.2l-0.8,0.7l-11.1,17.2l-4.9,2.3"/>
<path class="st6" d="M143.6,567.5l6.9-3.1l-4.7-11.3h-0.1l-0.2-0.5l-0.2-0.4l0.4-0.2l6.5-3.1l0.5-0.3l0.2-0.1l0.2-0.1l0.2,0.1
	l9.9-3.1h-0.1l-7.4-2.9l12-13.4l-8.8,0.3l-1.5-5.5l-0.2,0.1v-0.2l-3.6,1.7l-0.1-10.1l-0.2,0.1v-0.1l-7,2.2l-7,5.8l0.5-9.5l-2.2-0.8
	l-2,0.1l-0.5-0.1l-3.6,8.3l-1.3-0.9l-0.5-0.4l-1.1-0.7l-3.8-9l-4.5-7.2l0.1-0.3l7.9-7.8l5.8,2.4l0.7,4.5l13,4.7l-2.3,3.7l8.8-1.8
	l7.1,2l0.2,0.8l3.4,6.2l7.9-0.1l-0.1-0.1l1.1-0.3l0.4,1.1l3.3,8.9l-2.7,13.3l-8.3,15.7l-1.1-9.2l-10.3,8.9l1.5,12.2l-10.3,7.4"/>
<path class="st4" d="M117.4,518.5l-12.6-1.2l-8.3,2.1l-0.5,0.1l-6.5-6.9l6.9-9.9l0.3,1.3l0.5,2l1.2,6.9l12.6-1.5l-1.4-2l-11.8-2.9
	v-0.9l10.8-2l2.6,0.2l8.4,5l-1.4,5.6l2.1,5.5l-0.7,0.5"/>
<path class="st4" d="M117,518.2l0.1-0.4l0.9,0.3l-0.3,0.9"/>
<path class="st2" d="M97.6,513.4l-1.3-7.6l1.6-0.1l12.3,2.9l1.7,2.5l0.7,1L97.7,514"/>
<path class="st7" d="M160.3,511.2l0.5-0.3l8.2-4l4.9,10.7l0.4,0.9l-9.9,0.1"/>
<path class="st3" d="M152.7,549.4l-4.6-4.9l-2.1-8.6l14.9-0.2l-1.8-4.5h-0.2l-8.8,0.3l-1.2,0.1h-0.2l-1.6,0.3l-11.9,1.3h-0.4
	l-13.9,4.2l-2.6,0.7l10.4-13.8l-3.6-8.4l1.5,1.1l2.6,1.7l1,0.7l0.5,0.3l0.5,0.3l3.4-7.8h3.1l3.1,1l-0.5,8.4l5.8-4.8l7.6-2.3l0.7-0.2
	l0.2,9.9l2.9-1.4l0.5-0.2l1.6,6l9.1-0.4l1.1-0.1l-12.5,14.1l7.5,2.8l1.2,0.5l-12.9,4.1"/>
<path class="st6" d="M111.2,521.5l-6.7-4.3l0.3-0.8l13.4,1.2l-0.2,0.8l-1.5,4.2 M104.9,539.5l13.2-9l3.4,1.5l1.8-10.1l6.7,2.3
	l-10.5,13.5l-4.8,2.5"/>
<path class="st4" d="M139.8,542.4l-0.1,0.1l-0.3-0.6l-0.2-0.3l0.3-0.3l0.3-0.2l0.1-0.3l0.5-0.4v0.1l7.6-9.2l0.4-0.6h0.2l1.4-0.1
	l9.5-0.3l0.1,0.3l2.5,6l-15.1,0.2l1.7,7.2l5,5.2l-0.5,0.4l-7.1,3.4l-0.7,0.4"/>
<path class="st1" d="M139.9,541.2l-5.3-8.3l-0.6-0.7h0.9l12.2-1.4l2.8-0.4l-9.6,11.6"/>
<path class="st0" d="M102.4,552.4l0.1,0.9 M122.4,573.7l-9.1-2.2l-8.3,2.4l-0.4,0.1l-0.4,0.1l-0.7-0.9h0.2l-2.3-3h-0.1l-7.4-9v-1.9
	l0.9-0.6l7.3-5.6l-4.6-2.6l-0.4-0.2l-0.4-0.2l0.2-0.5l0.5-0.8l1.1-0.5l1.3-0.7l14.6-8.3l4.6-2.4l1.8-0.4l9.4,2.4l1.9-1.9l2.7-5.2
	l0.5,0.6l5.4,8.5l0.2,0.4L140,542l-4.2,4.7l3.3,11.1l-8.7-2.5h-0.2v9.2l-4.6,9.7"/>
<path class="st5" d="M119.1,537l16.7-5.1l-2.9,5.7l-2.4,2.4"/>
<path class="st4" d="M97.3,549l3-8.9l5.9-1.4l9.4,0.7l-0.7,0.7l-14.6,8.3l-3.2,1.6"/>
<path class="st1" d="M138.1,557.2l-3.1-10.9l4.5-5.1l0.5-0.4l6.2,12l-0.4,0.2l-2.7,1.8l-3.8,2.7l-0.1,0.1l-0.8,0.8"/>
<path class="st7" d="M154.3,555.7l11.9-10.3l0.2,0.8l0.9,8.3l0.1,0.2v1l-8.6,0.9l-0.7,9.7l-2.1,2.8"/>
<path class="st2" d="M97.3,549.4l0.3,0.1l6.4,3.7l-1.5,0.1l-9.3,0.8"/>
<path class="st3" d="M141.5,576.9h0.1l-1.2-7.2l0.3-4.7l0.2-0.2l0.4-1.2l-3-6.4l4.3-3.1l1.7-1.1l1.9-1.1l0.2,0.5l5.3,12.6l-6.9,3.1
	l2.2,6.5l0.3,0.6l-5.5,2.8"/>
<path class="st5" d="M94,559.7l-1.1-5.6l1.2-1l8.4-0.7h0.2l1.2,0.5l-9.7,7.6 M124.6,573.9l0.4-0.4l4.3-9.2l0.1-10.1l0.6,0.1l8.5,2.5
	h0.3l0.5,0.8l-5.2,5l6.9,0.4v-0.1l1.5,0.1l-0.8,2.3l-0.1,0.2l-0.1-0.1l-3.6,5.4l-7.3,2l-4.2,7.1"/>
<path class="st1" d="M87.3,558.2l6.3-4.8l1.2,6.2l0.1,1.6l-0.3,6.8"/>
<path class="st6" d="M158,555.9l10.1-1l-10.9,12.8"/>
<path class="st4" d="M131.9,563.2l1-1l5.4-5l0.7-0.8l3.2,6.9l0.3,0.7 M84.3,573.2l-0.7-1.8l-1.5-4.1h-0.7l6.6-10l6.7,9.1v1.4
	l-0.3,0.2l-8,3.9l0.2,2.1"/>
<path class="st5" d="M93.9,568.4h-0.1l-0.1-0.7v-1l0.3-6.8l8.1,9.9l-7.9,4.3"/>
<path class="st2" d="M134.2,576l3-5.9l3.6-5.3l0.9,0.3l-0.1,0.2l-0.3,4.4l1.3,7.9l-0.4,0.1l-9.3,2"/>
<path class="st1" d="M85.7,573.7l-0.3-2.1l0.3-0.3l8.4-4.1l0.6-0.3l0.3,5.7l6.1-3.4l0.5-0.3l3.7,4.8l-0.9,0.3l-9.5,2.7 M95.3,586.4
	l-1.1,0.7l-2.2,1.3l-0.6,0.3l-0.1,0.1l-0.1,0.1H91l-9.5,0.8l-0.3-0.9l9-5.6l29.2-4.1l4.7,2.5l2-2.7l-0.1-0.2l0.1-0.2l3.9-6.4
	l8.5-2.5l-3.4,6.8l-1.2,2.8v0.3l-0.3,0.2l-1.5,0.6l-2.1,3.4l-3.2,4l-3.9,1.1l-2.3,0.6l-2.9,0.4l1.6-4.7l-8.8,3.4l-4.1-3.1l-6.2,1.9
	l-0.8,0.9l-0.4,0.5l-2.6,3.7"/>
<path class="st1" d="M110.3,588.4l0.6-0.7l-0.5,0.8"/>
<path class="st5" d="M104,573.2l9.2-2.7h0.2l9.2,2.2v0.9h-0.1l-10.6,4.2"/>
<path class="st1" d="M112,577.9h-0.2l-1.2-0.4l11.7-4.7l4,0.6l-1.1,1.1l-6,4.6"/>
<path class="st2" d="M80.7,589.7l-0.1-0.1l-8.9-5.6l-28.6-4l-5.1,2.8l-2.8-3.8l1.8-5.7l6.1,4.8l7-1.2l6.8-3.9l0.2-0.2l0.2,0.1
	l0.6,0.2h0.2l9.6,2.8l1.4,1.8l0.6,0.8l0.9,1l0.2,0.2l1.8,1.7h4.9l0.1,0.4l1.3,3.8h4.4l1.5-4.2h4.9l1.8-1.7l0.2-0.2l0.9-1.1l0.6-0.8
	l1.4-1.8l9.6-2.8h0.2l0.8-0.3l0.2,0.2l6.7,4h0.1l7,1.2l6.1-4.8l1.8,5.6l-2.8,3.9l-5.1-2.9L90.6,584l-9,5.6l-0.5,0.1"/>
<path class="st3" d="M78.4,586.7l-0.2-0.4l-1.3-3.8h-4.7l-2.1-2l-0.2-0.3l-0.9-1l-0.7-0.8l-1.7-2.2l9.5-3.1l1.7-0.7l3.3,6l3.4-6
	l1.7,0.6l9.5,3.1l-1.8,2.1l-0.6,0.8l-0.9,1.1l-0.2,0.2l-2.1,2h-4.7l-1.4,4.2h-2.4l-0.5,0.1"/>
<path class="st0" d="M117.7,598.4l-0.5-1l6.6-4.5l2.1-4.9l-0.1,0.1l0.4-0.9l0.1-0.2l3.9-4.9l0.6,9.6l-2-0.9l2.6,4.8l-6.2-0.8
	l2.3,3.3l-4.4-1.3l1,3l-2.5-0.8l-0.4,1.7"/>
<path class="st5" d="M62.5,606.5l-2.2,3l-0.3-3.9l-2.3,3.7l-0.1-4.6l-1.4,1.6l-3.4-0.1l0.1-1.5l-2.6,3.7l0.5-5.9l-3.5,3.2l0.8-4.9
	l-3.7,3.4l0.7-3.9l-2.8,1.6l1.5-4l0.1-0.2l-6.2-4.2l-2.9-6.9l1.1,0.3l3.8,1l2.2,0.6l1.3,0.2l-1.8-5.1l11.2,4.2l-3.6,3l5.8,1.2
	l-0.1,4.5v0.1h5l4.5,3l1.4-4.5l6.9,4.1V599l-0.3-6.1l-1.6-5l10.2,0.8h0.6l10.3-0.9l-1.6,5.1l-0.3,6.1v0.1l6.9-4.1l1.3,4.5l4.5-2.9
	h5.1l-0.1-4.6l5.8-1.2l-0.1-0.1l-3.5-2.8l0.7-0.4l10.5-3.9l-1.8,5.1l1.3-0.2l2.2-0.6l3.9-1.1l0.9-0.2l-0.3,0.8l-2.5,6.1l-6.2,4.1
	l0.1,0.2l1.5,4.1l-2.9-1.6l0.8,3.9l-3.7-3.5l0.8,4.9l-3.5-3.2l0.5,5.9l-2.6-3.6l0.1,1.4l-3.4,0.1l-1.4-1.5l-0.1,4.6l-2.4-3.7
	l-0.2,3.9l-2.2-3.1l-0.5,5.3l-2.8-6l-8.9-4.3l-0.1,4.9l-0.9,0.1l-0.4-0.8l-1.1,5.2l-1.8-3.2l-2-1.3h-0.2l-2.1,1.3l-1.8,3.2l-1.1-5.2
	l-0.4,0.9l-0.9-0.2l-0.1-4.8l-8.9,4.2l-2.8,6.1"/>
<path class="st0" d="M96.1,596.5l-7.3,4.3v-0.9l0.4-7.1l1.5-4.7l0.2-0.2l0.7-0.3l2.1-1.3l2.2-1.4l1,5.2l1.4-1.8l0.4-0.6l1-1.2
	l6.9-2.1l4.3,3.3l4.5,3.6l-1,0.2l-5.9,1.2l0.1,4.8h-5.8l-5.3,3.5"/>
<path class="st1" d="M93.2,607.5l-0.6,4.9l-3.1-6.4l-3,5.3v-5.1l0.2-6.1l0.7,0.2l10,4.8l-2.9,7.6"/>
<path class="st4" d="M44.4,389.6l-1.6-9.3l-6.1-7.4l-1.2,0.3l-0.2,0.1l-2.1,0.9L22.3,379l-2.4-10l-3.9-4.3l-0.1-0.1l-8.3,7l-0.9-9.3
	l8.9,0.9h0.2L16,363l-0.1-0.1l0.6-0.7l0.2,0.1l4.1-5.1V357l11.8-10.4l0.4,0.2l8.8,4.4l-10.3,4l2.3,9.4l3.1,6.4l8.6-2.1l4.8,2.9
	l0.2-0.2l0.1,0.1l5-5.3l8.7,3.4l0.1-0.2l0.3,0.1l3.7-7.4l7.9,2.7v-0.2l0.3,0.1l-3-13.9l-0.1-0.3l-0.1-0.3v-0.3l7.4-13.1v-1.8
	l8.4,14.8l0.1,0.1v0.2l-0.1,0.4l-0.2,0.6L86.1,365l0.3-0.1v0.2l7.9-2.7l3.7,7.4l0.3-0.1l0.1,0.2l8.7-3.4l5,5.3l0.1-0.1l0.2,0.2
	l4.8-2.9l8.6,2.1l3.1-6.5l2.3-9.3l-10.3-4l8.9-4.5l0.3-0.1l11.8,10.4v0.2l4.1,5.1l0.2-0.2l0.6,0.7l-0.1,0.1l0.2,0.2h0.2l8.9-0.9
	l-0.9,9.3l-8.3-7l-0.1,0.1l-3.9,4.3l-2.4,10l-10.9-4.8l-2.1-0.9h-0.2L126,373l-6.1,7.4l-1.6,9.3l-10.3,1.6l4-11l-9.3-5.7l-0.1,0.2
	l-0.2-0.2l-2.7,3.8l-5.2-1.5l-4.1-2.7l-7.1-8.8l-1.7-2l-1.7,2l-7.1,8.8l-4.1,2.7l-5.2,1.5l-2.7-3.8l-0.2,0.2l-0.1-0.2l-9.3,5.7l4,11
	L44.4,389.6L44.4,389.6z M27.3,366.7l2.8-10.4l-8.8,3l0.4,8.6l5.1,6.2l0.2-6.2 M135.2,367.8l0.3,6.2l5-6.2l0.4-8.6l-8.8-3l2.8,10.4"
	/>
</svg>
