<svg id="Layer_1" xmlns="http://www.w3.org/2000/svg" viewBox="6 172 387 449"><style>.st0{fill:#F9B4BF;} .st1{fill:#F3687F;} .st2{fill:#ED1D3F;} .st3{fill:#840B1F;} .st4{fill:#C8102E;} .st5{fill:#F68E9F;} .st6{fill:#5E0816;} .st7{fill:#39050D;} .st8{fill:none;} .st9{fill:#FCD9DF;} .st10{fill:#AA0E28;} .st11{fill:#F0425F;}</style><path class="st0" d="M66.5 192.9l-10.7-6.6-2.3-.8-6.9-1.2-5.4-1.3.1-1 12.8-.9L74.4 193l-.3.9"/><path class="st0" d="M40 181.6l1.4.3v1h-.5l-.8-.2-.2.3-1.5.1"/><path class="st0" d="M17.3 195.6l5.9-8.4 6.6-4.5 11.1-.7-3.6 3.4-3.5 2.1-.5-.3-1.6 1.5-6.7 4h-.1l-6 10.6-.4.3-2.6 2.4-1.5 1.3"/><path class="st1" d="M41.5 185.9h-1l-2.8-.2H37l-1.1-.2 4-3.7 6.8 1.6 6.7 1.3-.1.9-9.1.4"/><path class="st2" d="M24.1 192.3l6.9-4.1.6.7-4.3 3.9-1.9 2m7.4-7.7l4-2.4h.2l.7.1 2.8.1 1.1.1h2.6l9.1-.3.4-.1 3.8 1.3-11.7 4.1-3.7 1.1"/><path class="st3" d="M31.2 196.6l-4.9-.2L25 194l1.6-1.9 6.5-5.8 10.6 4.5-4.2.8.3 2.8-5.9.1.2.7.7 2.1.9 2.5"/><path class="st4" d="M15.2 235.4l1.2-23.6 9.3-.2-2.1-7.5-3.6-2.6 5.3-.4-.1-.1h.3l-3.5-1.8 2.6-8 1.3 2.6 1 1.6 4.7.2 2.3 1.7-.7-1.8-.7-2 6.3-.1-.3-2.5.4-.2 3.1-.7 3.4-1 10.7-3.7 10.9 6.6 7.3 8.1-8.7-1.8L82 212.8l-.1-.3.2.1-2.7-9.4 3.1 1.6.1-.4.7.7 3 3.2 2.1 2.5 9 11-4.7-1.2.1.2-.2-.1 6.1 9.4-14.2-3.3-1-1.1-.1-.1-.2-.3v-.5l-.2-9-14.1-1.2-3.2-1.4-3.1-15.2-15.9 9.1-6.9 6-9.5 1.9-4.3-.3v.1l-.6 2.9v7.7l-4.9-3.3-.5-3-.2-.1-.1-.4-1.4-.6-2.2 17.5"/><path class="st5" d="M82.7 205.9l-3-1.5-1.7-.9-5-3.4-.3-.3-7.2-8 8.9 1.2 9.5 7.9-.5 4.3v.3l-.1.6"/><path class="st2" d="M16.4 212.1l.7-3.2.9-6 .1-.1 6.1-10.6.8.3-1.9 6.3 4 2 1.8.8-6.5.6 1.9 1.3 2.3 8.3.4.6-.8.1-9.8.2m32.5 16.9l-.2-7.4-.5-2-11.1-3.4-7-1.7v-1l9.2-1.7 6.9-6 17-9.7 3.5 16.8-22.3.5 4.4 4 2.1 5.2-1 6.5"/><path class="st3" d="M62.4 196.6l4.2.9 4 .8 2.6.6.4.3 4.8 3.4 2 1 3 10.4.4 1.5"/><path class="st0" d="M103.7 227.1l-7.8-5.9-8.3-10-2-2.3-3.2-3.4v-.3l.6-5.2 15.7 14.5 13.9 15.7-.6.7"/><path class="st5" d="M14.2 245.4l-1.3-3.9-.6-20.1 2.4-15.4 4.5-4.1-1.2 7.3-.6 3.1-1.3 23.1.1.2.4 5-1.5 4.6v.1l-.4 1.7"/><path class="st1" d="M75.8 249.9l-9 4.2-.6.4-1.2-1.4-6.8-12.2-9.4-4.8.2-6.7 1-6.2-2-4.7-6-5.4 24.2-.6 3.1 1.3 1.3 1.1h-.1l12.7 9.7v-.2l.8.6.1.1.9 1 1 1.2 8.8 9.8-.2.4 4.6 7 .2.4-8.4 14-15.2-9zm5.5-6.6l-2.8-3.7-8.5-9.9-4.1 9 1.4 2.3c0-.1 14 2.3 14 2.3z"/><path class="st3" d="M33.5 291l-.9-5.2 2.2-1.6-.1-.2.1-.1-.9-1.8 1.2-3.3 2.4-.1v-.5h.9l-6.1-4.1v-1.2l-.1-.1v-.4l-10.3-15.3.6-5.2-4-.7-2.7-10.4-.4-4.8 2.4-19 3.1 1.4.5 3.1 3.3 2.5-.1-6.5.7-3.7 5 .3 7.4 1.9.1 5.3-.2 7.5 11.2 6.6.4.2-.2.4-3.5 8.6 6.6 2.4 5.6 3 .2 9.7h.2l15.5 3.3-.4 2.2-1.1 1.3-1.1 1.4-6.2 7.8L63 278l-3.4 8.6-.6 1.5-.8-.8v-.2l-2.5-2.8 4.7-6-.6.2.5-.6-6.7 1.6 1.3-3.4-.3.2.2-.5-5.1 2.7-1.3-1.5-.5-4.5-3.7 1.8.1.2-.1.1 1.7 3.1 1.6 8-5.5-3.5-.2 1.3-3.6 1.5.1.5-.4.2-1.1.1-2.5 1.6.1.2h-.1l2.4 4.4-3.1 1-.1-2zm4.3-23.6l4.6-1.4-7-.1 2.4 1.5zm3-5.6l.5-.5-.3-.4.1-.1-6.4-7.1-7-.9-5-.8 7.3 6.4 10.8 3.4zm-15.2-23.9l-2.8 2.8 5.2-1.2-.9-1.3-.9-2.3-5.7.5 5.1 1.5zm.6-2l-1-2.5v.1l-1.6.4 2.6 2z"/><path class="st2" d="M67.5 213.6l1.7.1 14.8 1.4.2 11.3"/><path class="st4" d="M48.8 236.3v.1l-.5-.2-11.7-6.8.2-8.1-.1-5.4 12.3 3.6.6 2.6.3 7.6-.2 7"/><path class="st3" d="M106.3 265.4v-.6h1l-.1 1.5m46 .8l-.1.2-.8-.5.1-.2.8.5z"/><path class="st2" d="M94 237.4l-10.7-11.9 1.6.5 13 2.9.7.2.6.8-4.7 8.1"/><path class="st1" d="M115.5 242.6l-.7-1-11.3-14.5.6-.7 8.4 3.8 7.9 7.8 7.2 8.6"/><path class="st5" d="M66.7 241.8l-1.8-3.1 4.9-10.8 9.5 11.1 4.2 5.5"/><path class="st6" d="M23.8 238.3l-5.9-1.8.1-.9 5.6-.5-2.1-1.6 2.8-.8v-1.4l.9-.2 2.7 6.6 1.7 2.3-9.8 2.3"/><path class="st2" d="M56.6 248.6l-.6-8.3-10.6 5.3-1.1-.4 3.8-9.6.3-.5 1.1.5 9.4 4.7 7.7 13.9"/><path class="st6" d="M126.3 271l-12.5-6.7-.1-.2-1.3-11.1-9.5-1.6-.5-.1 3.9-15.9 3.9 4.7 5.2.8.2.1.6.9 10 12.9.6 1.3 3.8 6.7.1.1 3.5-7.3.6 1.3 1.2 2.7.5 1.7-2.3 9 1.4 4.2 1.1 2.6 1.1 2.6"/><path class="st4" d="M57 260.4l-.2-9.9-5.1-2.6-7.5-2.7 12.6-6.3.6 9.1 8.3 4.6 1.3 1.6-8.8 6.4M29.9 276l-1.1-3.5-.2-.5v-.2l-1.3-1.8-.2 1.6-.1.5h-.9l-.5-2.3-.2-.7v-.3l-4.8-9.6-6.5-14 .1-.2 1.9-6.3 3.1 11.7 8.6 1.4 7.3 1 7.4 8.1-.6.4-1 .9-11.5-3.6-6.3-5.5-.4 3.5 10.5 15.5v1.4l8.2 5.5-3.8.1-2 .1-1 2.9-1.6 1"/><path class="st3" d="M125.5 255.4l-11-14.1 11.8 3.9 1.5.4-1.4 9.3v.2l-.2 1.1"/><path class="st4" d="M90.2 258.5l.4-.7 8-13.2.7-1.1 8.3 20.6"/><path class="st2" d="M125.4 255.1v-.2l1.6-10.2 8.1 11.3-9.2.1"/><path class="st5" d="M67.2 255.8l.8-.6-.8.6m16.4 37.8l-1.4-10.5-11.1-8.5 13.9-7.9-4.9-6.2-12.8-4.7-.4-.5-1.1-1.7 9.9-4.6 15.5 8.8 13.3 12.5-4.7 8.5-.9 1.5-.1.3 1.1 12-7.4 2.4 3.2 7.6"/><path class="st2" d="M56.9 260.4l9-6.6.7-.4 1.1 1.5.3.3 6 8.9"/><path class="st1" d="M94.4 353.5l-1.5-.7 2.3-.3-.1.7-.1.3-.3.1h-.1m-28.4-53.3l.2-.7 1.3 1.1-.9.2-.8.2"/><path class="st1" d="M81.9 347.8l-16.1 2 7.7-10.3 9.1-11.4.3-6.3-3.8-9.8-3.5-2.8-12.7 4.2-.3.3-.4-.3-9.3-10.6.8-.2 12.4-2.5 5.9-13-1-14 1.2-8.1.3-1.4-6.2-8.9 1.4.5 12.9 4.7 5.7 7.2-13.7 7.8 10.3 7.8 1.4 10.5 9.2 6.9-2.3-5.5 7.6-2.4-1.2-12.5 5 4.1 5.8 4.4-8.1 5 .1.1 5.8 4.5-6 3.8 1.8 3.1 1.5 2.2 1.2 1.7-5.3-.6v.2l.3 6.4-.2 2.5-6.9 10.3-9.2 18.3v.1l15.4-7.5-4.4 15.7-12.5-6.2zM93 312.4l4.5-5.3-3-1.2-1.5 6.5zM75.2 307l6.2-9-13.9 2.7c0-.1 7.7 6.3 7.7 6.3zm15.4-48.5l.4-.7 16.1 5.2.2 1.8-3.3 6.4"/><path class="st4" d="M179.9 264.8l-9.2-2.2-1.9-.5 7.2-2.1 5.9 5.1"/><path class="st2" d="M175.4 271.4l-6.4.6-12.4-5 2.4-2.2 11.5-3.1.3.1 9.5 2.3h.1l5.6-.3.2.1 2.5.6 1.3 7.9-5.9 3.2"/><path class="st4" d="M199.9 335.6l-.1.1-.1-.1-8.4-18.9 1.6-17.4-6.5-13.4 6.6-5.8.5-.4-4.3-7.6-1.2-7.1-1.6-.4-.6-.2.2-.9 14.1 2.8 14.4-2.8.2.9-.6.2-1.6.3-1.2 7.1-4.3 7.6.1.1.3.3 6.7 5.8-6.5 13.4 1.6 17.4-8.6 19.2M32.2 264.9l13.2.1.1.9-7.9 2.5m14.9 30.7l-15.5-3 6.4-6.2 2 6h.2v.1l11.5-3.7 1.2-5.4.3-.7 3.4-8.7 1.9-2.5 6.2-7.9 3.3-3.9-.3 1.8-1.1 7.9 1 14.2-6.2 13.6-3.3.7"/><path class="st2" d="M104.2 308.4l-.3-.1-.8-1-1.5-2.3-2.3-3.9 5.6-3.5-5.4-4.2-.5-.4 8.1-5-4.8-3.7-3.6-2.9-1-.8.2-.3 1.1-1.8 4.5-8.2 2.9-5.7.9.2v9.5l.1 2.6h.1l8.6-1.2-2.6-3.4 3.7-.2h1.1l10.1 1.1 2.5 10-.5.2h-.2l-4.9-.9-6.9 6.4-.7 1.1-1.8 11.2-7.4 1.6 3.7-7.8-4.1 2.3-.5.5-2 10.8"/><path class="st4" d="M106.4 274.3l-.1-9.1v-1.3l13.4 9-4.5.1 2.6 3.4-10.8 1.4h-.4"/><path class="st2" d="M131.3 330.1l-6.4-1.2-.1-10.3-9.9 3.4 6.8-9.7-1-6.8 9.5-5.5 8.7-10.7L145 277l-5.3-8.5-.3-.4 5.5-3.9 8.6 2.4-.4.7-5.4 8.4 15.1-.9-1.8 3-2.4 4.4-1 4.2.1.9 1.6 11.6 13.6 2 7.9-.7 1-2.8.7-1.9 4-9.7.5-.5.4.6 6.4 13.2-1.6 17.4-.9.1-2.9-7.3-.1.1v-.1L176.8 321l-11.6-2.4v.3l.8 4.5.7 3.3-1.3-.3-6.3-1.2-3.6-2.3-8.4-10.2-6.1 7.6 6.9 10.1-3.8-1.3-7.7-3.1-4.2 4.4"/><path class="st1" d="M158.5 299.8l-1.8-12.3v-1.1l1-4.5 2.5-4.5.9-1.5-15.1.9 6.5-10.3 5.1-.2.1.2 11.5 4.5 6.4-.6 8.5 4.2 5.6-3.1.2.4 4.7 8.2-.3.3-.7.5-6.3 5.6-3.9 9.4-.8 2-1.2 3.2-8.5.9"/><path class="st2" d="M23.1 282.3l2.3-13.4.6-1.4.4 1.4.6 3.2-.1.6-.6 6.3-.5.9-1.8 2.8"/><path class="st3" d="M24.2 287l1.3-8.2-.1-.1.5-6.2.2-1 .6-3.7 2.8 3.9-1.7 4.3-1.6 20.2-.1 3.3-.9.1"/><path class="st2" d="M42.6 290.6l.2-.3 3.5-4.9h-.1l-8.1.1-1.5.1-.2-.9 4.6-1.9.4-2.1 4.7 2.8-1.1-5.8-1.8-3.3-.4-.7 5.6-2.8.4 1 .5 4.4.6.7 6.7-3.5-1.7 4.5 7.9-1.8-1.3 1.5-4.8 6.2 2.5 2.8-.1.4-1.3 5.8-12.5 4-.4.1-2.3-6.4zm12.9-7.6l1.3-2.7-3.6.1 2.3 2.6z"/><path class="st7" d="M26.9 275.9l1.8-4.2.6-.8.2.9 1.2 4 3.2 7.2-5.8 1.9"/><path class="st6" d="M28.9 294l-.2.3v-.3l-3.4 3.3 1.6-21.3 1-.1 1 7.8 4.2-1.4 1.4-.9.3.6 1.2 2.3-2.5 1.8.9 4.8.2 1.8-.4.1-3.3 1-.2 8.4-1 .1"/><path class="st4" d="M92.3 326.8l6.7-10.2.2-2.2-.4-7.6 5.6.6.5.1 2-10.2.6-.8 6.9-3.7-4.3 8.6 5.1-1 1.8-10.9.7-1.2 7.4-6.8 5.2.9 14.8-5.8 1.1-.1-.3.7-6.2 12.7-8.9 10.9-9.1 5.2 1 6.5-5.5 7.8 8.6-2.8.1 10.7 6.8 1.2-.3.7-2.5 7.7-1.1.3-17.1 2.9-2.8-15.6-5.8 2.9L99 339l-.2.2-15.6 7.6-1.3.6"/><path class="st5" d="M22.7 298.1l.4-15.9 1.9-3 .6-.9.9.4-1.3 8.4-1.5 11.1"/><path class="st3" d="M51.1 279.5l7.1-.2-2.5 5.3"/><path class="st1" d="M29.7 293.1l4.2-1.2 1.6-.6-2.1-3.7-.3-.7 3.4-2.2 1.3-.1 9.2-.1 1.1.1-4.5 6.3-5.2 5.1v.8l-.5 5.5-.6 5.1"/><path class="st4" d="M25.3 308l-2.6-9.9 1.5-11.2 1 .1.9 12.5v.6l5 9.6.2-2.7.9-.1 2.6 9.2.3-.1v3.2"/><path class="st7" d="M30.8 311.3l-5.7-10.9.1-.8v-3.5l.4-.3 3.9-4 .1 1.4 1 9.2 1.5 4.4-.6 5.9"/><path class="st2" d="M31.3 307.3v-.1l-1.6-4.5v-.5l.3-10.5 7.5 14.1v.2l-1.3 10.3v.3l-.3.2-1.2.4-.5.2"/><path class="st3" d="M35.5 319l1.3-1.1.7 1.6"/><path class="st3" d="M48.9 323.5l-13.1-4.7 11.8-10.7-6.8-8.1-3.3-2.9v-1.8l15.2 2.9 10.9 2.3v1l-8.7 1.7 8.5 9.8-.3.3-8.2 12.3"/><path class="st4" d="M35.2 316.3v-.1l1.3-10.4.4-3.5.6-6.4.8.8 3.2 2.8 7.2 8.6-12 11-.8.9"/><path class="st5" d="M65.7 300.1l.8-.3 16.7-3.3-.5 1-7.3 10.7m16.2 5.8l2.2-9.4 5.2 2.1-6.5 7.7"/><path class="st4" d="M66.5 337.8l-7.4-3.5.3-.5h.1l5.2-5-2.3-14.4-.1.1-.2-1.5.4-.4h.2l13.2-4.4 4.1 3.2 3.9 10.2-.3 6.8-9.5 11.8"/><path class="st1" d="M153.7 334l-7.2-4.1-6.6-9.6 6.8-8.5.4-.5 9 10.8 3.3 2.2 6.2 1.2.9.2.1.4 1.4 5.4-6.2 12.5"/><path class="st6" d="M57.9 336.3l.1-.3.8.4v.2l-.1.1m-14.5.7l-8-18.4-.4-.9.9.1.1.1 12.5 4.5 5.2 1.7 7.7-11.4.8-1.1 2.7 17.2-5.5 5.2-.2.3h-.1l-1.1 1.9-8.7 6.7"/><path class="st5" d="M165.6 326.3l-.5-2.7-.8-4.4-.3-1.9.8.4 11.9 2.4h6.3l4 8-12.5-4.8-.1.1-4.6 5.7-1.9 2.6-.6 1.1"/><path class="st0" d="M167.2 362.3l-6.5-9.1.3-8.8-.2.1.2-1 .1-.1v-.1l.2-.3 5.8-11.8v-.1l1.9-2.6 5-6.1.3-.3 11.9 4.7.3.1 1.2 2.1 3.3 6 1.1 3-10.6 12-8.1.1-.1 4.6v.4l-4.6 6.2-1.1 1.5"/><path class="st2" d="M94 353.4l4.1-14.5v-.3l4.2-10.9.2-.2 6.9-3.4 3.1 16.6-4.4 8-2.8 2.1-10.6 2.8-.2.1"/><path class="st1" d="M131.6 329.6l4.6-4.9 8.6 3.6-.3.7-.4 1-15.4 8.4"/><path class="st5" d="M145.5 343.5l-6-3.7 3.8-10.3.4-.8.2-.7 2.9 1 7.8 4.4-8.5 10-.3.3"/><path class="st0" d="M87.9 376.4l4.9-13 8.9-7.2 3.1-6 2.8-2.1 7-3.2 6.1-6.3h.4l.3.1 5.2 5 1.7-6.3 1-.3 15.3-8.3-4 11-.3 7.5-5.7 5.8-13.7.3-11.4 11.3 11-2.5.9 1.4 1.5 8.8.3.8.2.7h-5.2l-1 1.5-21 4.5"/><path class="st2" d="M45.1 346.3l-.6-5 1-.2.9 5.3 1.5.1h5l.7-.2 1.6-2.9L58 336l1.5-2.6.4.2 6.9 3.2 7.9 2.6-7.7 10.1-.2.1h-.2l-13.3-1.7-12.8 10m99-9.6l-.2.3V347l.4-8.2.6.4 5.4 3.3 8.2-9.7 8.3 10.3-.1.3-.4.7-.2.1-9.5 4.1-.1.2-.2-.1-12 10.5"/><path class="st3" d="M47.9 347.5l-2.3-.2-1.1-6-.6-5.4 6.2 6.2 9.3-7.2-3.3 8.9-1.8 3.1-.1.2-.2.1-1 .2-5.1.1"/><path class="st4" d="M152.1 374.5"/><path class="st1" d="M111.8 340.1l10.4-1.8-7 7.2-8.5 3.8m13.4-10.7l9.2-1.6-2.1 8.3"/><path class="st1" d="M120.9 338.3l.4.3.8.7-.9.2-.3-.4.1.4-1.5.3"/><path class="st5" d="M176.8 361.6h-.3l-3.7-5.8-.4.7-.1-1.9.3-5.4 8.6-.2 10.9-12.2 1.2 14.1.1.6-12.3 10.8"/><path class="st1" d="M149.8 355.5l9.1-3.5-8.1-4 10.4-4.6.2-.1.6-.1-.3 9.8 6.5 9.2-.8.3-.2-.1-14.7 3.6"/><path class="st5" d="M76.8 369L67 351l-.6-.1-13.2 10.6-12.1-3-.6-2 .8-.4 11.8-9.2 13.7 1.7 15.3-1.9 12.5 5.9 11.5-3-3.6 7-8.9 7.2-4.9 12.8M108 365l12.7-12.7 13.6-.3 5.2-5.2.8-1 .3 12.1.1.3-4.9 6.2-.6-.5-8.3-8.2h-.1l-6 7.3-.3.1-13.4 2.9"/><path class="st0" d="M48.3 377.1l-4.1-.2h-.5l-3-19.3 12.2 3L66.1 350l1.4.3 10.4 19H64.4l-2.3.2-9.1 8.7"/><path class="st2" d="M164.6 370.6l-9 2.1-3.7-7.7.8-.1 14.7-3.6.7.7 6.2 4.2v-.1l-.3-5.4h1.3l-.2-.1h1.8l4 .7 12.3-10.9.2.8 3.3 15.9-1.1-.4-7.7-2.6-3.8 7.6-9.1-3.5-5.2 5.5"/><path class="st1" d="M137.5 379l-.7-.1-6.1-.4.1.1-1.6-.1-.1-.1-1.1-.9-1.1-4.9-3.8-5.4-2.2-3.1-.9-1.4 6.7-8.3 9.3 9.1.3.3-.7.8 4.6 5-.8 1.1v-.1l-3 4.3 2 1.8 2.2 2.1h-2.3v.2h-.8zm-10.1-8.4l6.9-5.8-7.5-.8.6 6.6zm39.4-8.3l.3-.4.5.2-.4-.3.8-1 4.8-6.6.4.5 3.9 6.2 1.4.9H175l.3 6.3"/><path class="st3" d="M143.3 365.3l-4-5.7 11.4-3.9-3.8 13.8"/><path class="st6" d="M139.9 369l-.4-10.9 4.5 6.5 3.1 3.7-.4 9.1"/><path class="st3" d="M200.2 400l-.4.8-.1-1.5-3.3-5.1-9.4 3.4-.9-6.5-10 4.5-2.5-2.4-.6-1.6-4.1-11.1 10.1-6.1.2-.2.4-.3 2.9 4.1 4.4-1.3 4.2-2.7 6.7-8.5 1.9-2.3V362l2.9 3.4 6.8 8.6 4.2 2.7 4.4 1.2 2.9-4 .6.5 10.1 6-4.1 11.1-.6 1.6-2.5 2.4-10-4.5-.9 6.6-9.4-3.5-3.4 5.1v1.6"/><path class="st5" d="M126.1 376.1l-.1-.1-2-1-3.4-.3h-.2l-.3.1-.3-.3v-.1l-1-1.5h3.3l-.1-.4-1.4-8.7.9-.4 2.3 3.1 3.9 5.6 1.3 6.1m-81.8 11.3L43.8 376l4.6.1 4.5 1.1 8.9-8.5 2.6-.3 12.8-.1h.6l-1.5 6.8-3.4 14.6-11-3.4-7.2-6.8-6.5 9.9-.1.2-.5 1"/><path class="st2" d="M72.1 389.5l3.3-14.6 1.5-6.9 11.9 7.6 7.7 3.3 2.8 3.5-5.9.5-.3-.8 2.2-1.5H95l.1-.1-10.2-.9-13.7 12.5m73.6-7.1l-6.8-6.1-1.2-.1.1-1h1.2l-.5-.4-1.8-1.7-.8-.7 4.6-6.6 2.4 10 10.9-4.7-.4.9-2.6 7.1-3.2 6.6m-30.5-13.2l1.6-2.3h2.1l.7 1.1 2.7.8.8-.7 2.9 1.4v1.3l.2 3.3"/><path class="st2" d="M163.7 392.3l-7.9-9-2-4.1-2.3-4.9 2.5-1.1.3-.1 1.8-.4 6.6 8 1.6 8.9 8.8 1.3.4.1.8 1.9-.4 1.1v-.1l-4.7 14.1"/><path class="st6" d="M120 374.8l-.5-1h.8l5 .4-.8.7-1 .9"/><path class="st3" d="M121.6 381l-7.7-1.3-6.8 2.3-8.7.7-3.1-3.6 21.7-4.6 9.2 4.3-.2-3.8.8.5 1.8 1.3 1 .8 5 4 1.5 1.2-.4.8"/><path class="st5" d="M160.9 404.5l-5.9-4.4-5.6-4v-.2l-3.1-8.4-.1-.1-.1-.2 3-6 2.9-8 .5 1 4 8.4 7.9 9.2 5.4 15.5"/><path class="st4" d="M135.8 383.5h-.2l-7.7-6.3 9 .6.8.2 7.9 6.5.8 7.3"/><path class="st1" d="M47.2 389.4l.1-.3 7.2-10.9 7.8 7.4 10.4 3.2.6.2-.7 2.1-2.2 1.7-3.8 3.5-2 1.9-13.4 4.4"/><path class="st3" d="M77.9 395l-.2-.1-.4-.2-5.9-3.8L85 378.5l.3.5.5.8h-.1l1.6 3 6.4 7.2h.1l.6.4v.1l.4.7-.6.2H94l-11.1 3.8-2.9.7"/><path class="st6" d="M84.1 378.8h.8l11.5 1.1 1.5.2-4.3 2.9-.2.1-.3.1-3.1-.1-3.5.2"/><path class="st7" d="M118.4 383.8l.8.6-.2.6-.2.1-.9.2"/><path class="st7" d="M152.4 437.6L158 422v-.4l-4.2 1.5-9.6 3.1-5.4-3.7-12.6-.8-2-.2v-.9h.2l8.2-1.1-14.9-3.6v-.9l4.5-.6 11.8 2.2 10.6-6 3.6-5.7-1.1-7.2-.2-.3-3.1-4.4-14-8-10.1-.5h.1L114 386l-2.3 4.8-.1.4-.1.2-1 5.5 2.7 9.2 8 7.6-2.9.4-.3.1-2.1.6-11.5-12.2-3.9-11.6 1.9-7.7-4.4-.2-3.7 7.5-.3.9-8.3-9.4 1.1-.1 3.2-.2 3.1.1 5.3-.5 8.4-.7 7-2.3 7.9 1.3 14.1 2.7.3.1 9 7.1-.5-5.1.9-.3 1.5 2.7 3.2 8.6.5 1.4-.1-.1 6.8 17.7.6 1.5 3.4 5.4v2.1l-.2-.3-1.4 18.6-5.6 2.7-1.8-6.9zm-36.9-25.8l-4.4-4.7 1.3 2.7 3.1 2zm-6.8-9.8l1.2-15.7-3.2 7 .1 4.8 1.9 3.9z"/><path class="st6" d="M124.3 421.6l-6.2-1.4-1.1-.5-.5-.2-1.1-.5-9.4-7.6-10.3-16.5-1.9-3.8-.3-.1.1-.5 3.8-7.8.1-.2.2-.2 6 .3-2.1 8.5 3.7 11.2 10.9 11.6 1.8-.5.2-.1 1.9-.2.4-.1 3 2.2-3.2.4 15 3.6v1l-11 1.4m1-26.6l4-.2.3-4.3-4.7-1.4-3.5.3-.1-2.8-2.6-1.7-.8-.4.2-.9 12.1.6 14.9 8.5-3.9 2.8-11 9.3-4.9-9.8zm6.4 5.4l3.8-3.1-2.2-.9-4.4 1.3 2.8 2.7zm5.4-3.9l1.3-.3 1-1.1-2.2-1.2-.1 2.6zm-3.5-1.1l2.4.9.1-2.9-4.5-2.5-.2 3.4 2.2 1.1zm10.3-2.3l.6-.7.5.4-.4.4-.4.2"/><path class="st3" d="M105.8 398.4l-.1-5.2 4.5-9.6 1.4-.8-.5 1.2-1.7 21.6"/><path class="st3" d="M118.1 414.5l-.3-.1-6-3.8-.1-.1-2.8-5.7.8-.5 9.7 10.3"/><path class="st3" d="M108.5 404.4l.2-2.3 1.1 2.3-.8.5"/><path class="st8" d="M110.1 383.9l.9.1-1.6 19.9-.9-.1 1.6-19.9z"/><path class="st4" d="M110.5 391.5l.2-.5 2.7-5.6 6-1.6-.3 1-2.1 6.4-1 2.5"/><path class="st5" d="M116.9 402l-1.5-8.6h-.2l.1-.5.8-2.1 2.1-6.4.2-.6.6.2 3 1.9.1 2.9.2.9-2.5 4.3 3.3 3.9-1.5.6-1.2.6-.4.2 11 11.3-2.2.1"/><path class="st1" d="M122.3 393.8l-.7-3v.1l-.3-1.1-.1-1.3 3.6-.4 5.6 1.7-.4 5.8-4.1.3"/><path class="st2" d="M51.8 422.1l-.7-20.3 13-4.5 1.8-1.8 3.9-3.5 2.4-1.9 5.6 3.7.3.2 2 .9 1.2.6-.3.1.2.2-7.8 8.6-2.8 9.2-.7.2-.6.2-3.9 1.1-.5.1-.9.1-7.3-5.2 2.8 12.3.1.6-7 4.8"/><path class="st9" d="M118.7 394.3l2.7-4.7.1-.2.6-.8 1.1 4.9-.4 5.3"/><path class="st10" d="M133.2 396.1l-2.7-1.3.3-5.6 1.1.7 1.3.9h-.1l4 2.9-.2 3.9"/><path class="st11" d="M136.2 394.3l-5.9-4.2 1.6-.1 9 4.9-2.1 2.1-2.7.7"/><path class="st4" d="M91.4 395.1l-8.8.1-.2-.9 11.8-4.1 2.5 5"/><path class="st0" d="M122 415.3l-2-1.4-7.6-7.1-2.9-9.6 1.2-6.5.6.2 4.8 1.9.2.3 1.4 8.4 11.4 8.4.8-.1 5.8-1.4 11.5-11 .6-1.3.3 1.4 1.1 7.7-3.9 6.3-4.2-.2-6.9 6.3"/><path class="st11" d="M118.5 399l1.5-.7 1.2-.6.8-.3.3-4.7.6.3 3.5 2v.1l4.4 8.8 2.5 3.1 4 1.8-7.4 1.9"/><path class="st10" d="M132.7 407.8l-2.7-3.2-.4-.4 11-9.4 3.7-2.6.4.4 3.3 4.9-.1.3-.1.1-11.9 11.4"/><path class="st1" d="M85.5 400.5l-4.8-4.1v.1l-.3-.2-1.6-1.1 1.1-.3 2.6-.6 10-.1-6.7 6.8"/><path class="st0" d="M69.7 413.5l2.9-9.4 13.6-1.2-.1-.2h.1l-.8-2.4 5.9-6.1 5 .1 10.5 16.8-.3 1.1-.1-.1-1.9 7.3h.1l-.3 1.2-.6-.5-.5-.4v-.1L93 410.1l-12 6.1-5.8 10.9"/><path class="st5" d="M80.4 395.5l.3-.3 5.6 4.7v.1l.1.2 1 3.2-.5.1-15.1 1.3"/><path class="st7" d="M127.1 397.3l6.2-1.9 4 1.6-5.6 4.6"/><path class="st3" d="M162.3 476l7.6-6.6-9.8-15.1-6 13.8-5.6-13.7 2.7-11.5-5.4 7.3-.1.3-.6.6-.3-.8-2.6-9.6-2.7-7.4-10.3-2.6-2 .2.4-.4-3.3.5 1.7-10 13.3.8 5.2 3.6 9.5-3.1 2.4 7.8-3.8.1-.7 2.1 1.5 5.4 1.7 6.5.1.4 4.7 7.2 6.4-10-6.1-1.6 4.7-9.9-4.3-8.2-3.4-5.3-.6-1.6-7.9-20.5 1.4.9 5.5 3.8.9.7 5 3.9 3.1 16.4-.1.8 12.8-4.6-1 3.5-1.7 6.2-.8 2.8-.3.1-6.7 1.2 7.4 12.8.9 19.2 2.5 14.9-.1.3h-.1l-7.2 4.4"/><path class="st1" d="M163.7 420.5l-3.1-16.9 8.6 2.7.6.2-5.2 14.1"/><path class="st5" d="M118.9 478.9l-.8-8.1-5.4-3.4-13.7-8.9-.7.6-5.1 5.2-2.4-.6-8.4-10-1.8 4.4-8.5-16.9 1.2 9.8.5 3.8-4.5 21.1-9.3-11 3.8-8.9v-.3l-1.7-13.5-3.8 2.7-.3-11.6-5.7 7.1-.6-18.7 1-.1.6 4.7 5.3-3.6-3.3-14.7 1.1.8 7.7 5.5h.7l.4-.1 3.8-1.1 1.3-.5.2.4 4.8 11.9 5.1-9.3 12.8-6.7 11.4 10.6-.4.3-.6.9-14.2 1.3-2.8 13.7.1-.1v.4l7.8-4.2.2-.3.2.2 14.1-2.2 6.9 1.3 8-.5v-.3h.4v-.1l5.9-.7-1.3 1.3-6.1 6.1-9.4-4.4-.1 5.9-6.9-1.5 1.2 14.3h.1l.1.5 9 .1 1.5 10.1.2.1v.3l12.8 9.5-.5 3.5v.4l6.8.4-5.7 9.1-3.6 3.5"/><path class="st1" d="M103.3 420l2.7-9.8.6.8 10.1 8.1-12.7 1.1"/><path class="st11" d="M132.9 417.6l.8-.8 6.9-6.5 5.9.3-12.2 7"/><path class="st2" d="M94.7 431.5l4.1-5.3 4.2-6 .8-.9 11.9-1.2 3 1.4-2.6 5.6 8.1 5 .6.2-.2.9-8.7.6-6.9-1.3-15.3 2.3"/><path class="st1" d="M85.7 436.5l3-15 15.7-1.5-4.8 6.8-4.1 5.4-.4.5-9.6 5"/><path class="st4" d="M124.1 431l-9.1-5.5 2.8-6.2 6.6 1.4 2.4.3-1.6 9.8-.1.5"/><path class="st6" d="M152.4 437.9l-1.5-5.7 1-3 3.3-.1-2.1-6.5.4-.1 5.5-2v1.8l-6.2 17m1 4.8l5.2-2.5 1.5-21.2.9 1.4 4.4 8.5-4.3 9.3 6.1 1.6-7.2 11.4-.5.7"/><path class="st0" d="M130.6 472.3l-.1-.1-12.8-9.5-.1-.6-1.5-9.5-9.1-.1-.1-.9-1.3-15.6 6.9 1.5.1-6.1 10.2 4.6 6.1-6.3h.3l11 2.8 2.9 8.2-6.3 5.9 4.7 12.8-4.1 5.4.1.2-.6.9-.1-.2-5.5 6.4v.6M54 452.8l-2.1-13.4.5-.3 6.4-8.1.3 12.5 3.8-2.5 1.9 14.9v.4L61 465l-.5 1.2"/><path class="st2" d="M81.7 461.6l-8.7-6.2-.6-4.2-1.5-12.1.9-.3 8.8 17.4 1.6-4 10.2 12.2"/><path class="st5" d="M135.8 446.4l7-6.8.3.8 2.6 9.6.9 3.5-5.8 6.7"/><path class="st4" d="M140 502l1.4-15 6.8-9-6.3-11.3 3.8-13.4-.9-3.3.1-.3 6.8-9.2.9.4-.1.1-3 13.2 4.6 11.4 5.8-13.4 11.2 17.2-.3.3-7.1 6.1 6.5 4.9 6.7-4 .4.5h.3l.9 14.8-20.7-2.3h-.1l-.9 4.2-7.2-5-2.6 11-4.3-8.8-.7 13"/><path class="st1" d="M83.2 492l-14.7-16.7 4.5-20.9 9.1 6.6 1.1 1.3h-.1l2.9 3.5 4.8 5.8 2.8 3.2 11.1 18.2-11.5-5.1 1 8.4"/><path class="st2" d="M177.5 491.8l-.9-14.6.2-.2 16.3-23.1.4 1.1 2.6 8-.9 2.4-16.7 27.5"/><path class="st1" d="M115.7 480l-12.6-1.8 6.6-7.9-13 4.8.7-16 1.3-1.3 14.4 9.2 5.7 3.6.9 8.8-3.1.6-.4.1-.3.1"/><path class="st4" d="M108.8 503.9l-4.5-10-1.1-1.5-.1-.2-10.3-16.9-2.7-3.1-4.8-5.8-4.8-5.9 1.5.5 9.1 2.3 1.7.4 5.6-5.7-.7 15.7 14.8-5.4-1.1 1.4-6.6 7.8 11.3 1.7 1.1 1 .8.8-5.1 7.4 7.6 13.6-11.6 2.3"/><path class="st1" d="M130.8 485.3l5.4-8.6-6.4-.4.7-4.6v-.1l6.5-7.7.4.9 1.5 7-.1 2.5 1 6.8 2.7 6.8m-.8-.1l-.5-.1.5-1.8.5 1.3.3.8"/><path class="st2" d="M140.1 502l-5.5-5.7-5.7-5.8-8.7 11.5h-.2l-.1.1h-.4l-.2-.3-7.5-13.5 5-7.3-.3-.3-1.4-1.4.8-.3 3.2-.5.3-.1 8.9 8.9 3.1-2.9 9.6 2.1-2.1-5.3-1.1-6.9.1-2.5-1.4-6.9v-.1l-.1-.3 4.2-5.6 5.1-5.9.9.4-3.8 13.1 6.5 11.5-7.1 9.4-1.4 15.3"/><path class="st5" d="M93.3 496l-.1-.4-1.1-9.2.8.3 11 4.9.3.4 1.3 1.9-10.8 1.9.5.4"/><path class="st4" d="M119.6 501.4l8.9-11.8.4-.4 7.1 7.3-.8.2-16.5 6"/><path class="st2" d="M103.4 513.2l-.2-.1-20-21.1.5-.7 10.3 4 11.2 17.3.8 1.1"/><path class="st1" d="M104.6 513.3L93.5 496l-.8-.7 12.3-2.1 4.6 10.4v.1l.1.1v2.7l-.3 9"/><path class="st6" d="M124.7 568.8l1.5-12.1-10.3-8.9v.3l-1.1 8.8-8.3-15.6-2.7-13.3 3.3-9 .4-1.1 1.1.3-.1.1 7.9.1 3.5-6.3v-.2l.1-.5 7.1-2 8.8 1.9-2.3-3.7 13-4.8.7-4.4 5.8-2.5 8 8-.1.3-4.4 7.1-3.8 8.9-.2.2-.9.6-.5.3-1.3 1-3.6-8.3h-2.5l-2.2.7.5 9.6-7-5.9-7-2.2v.1h-.2l-.1 10-3.6-1.6v.1h-.2l-1.5 5.5-8.8-.4 12 13.5-7.5 2.8 9.9 3.2.1-.1h.3l.1.1.6.3 6.9 3.3-.4 1-.1-.1-4.7 11.4 6.9 3-2.8 7.9"/><path class="st4" d="M161 520.8l2.2-5.5-1.4-5.6 8.4-5.1 2.5-.2 10.9 2v1l-11.8 2.8-1.4 2 12.5 1.6v-.1h.1l1.1-6.8.6-2.1.3-1.3 6.9 9.9-6.5 7-.5-.1-8.3-2.1-12.6 1.2-2.2 1.9"/><path class="st4" d="M163.4 519l.8-.4.2.5-.7.7"/><path class="st2" d="M168.8 513l.7-1.1 1.7-2.4 12.3-3 1.5.2-1.2 7.7-.1.4"/><path class="st7" d="M107.1 519.3l.4-1 4.9-10.6 8.6 4.2-.2.4-3.8 7.1m81.7 48.6l-5.8-8.8-5.2-4-.9-.7-3.2-3.7-.5-.8-2.9-8.5-5.4-1.3-11.8-8-4 1.7-1.8-10.1-6 2.1 2.9-6.6-2.9 1.9 4.9-11.3.7 1.8.6 1.4.6 1.4.3.7.6 1.5.5 1.5.4 3.7 1.1-1.2.2-.2 2.8-2.5 1.5 4.3 4.3-.9 6.7-4.3 8.6 2.1 3.8 1 3.1-3.1.7 4.8 6-1.2 1.5 1.3 1.5-1.4 6 1.2.7-4.8 3.1 3.1 3.8-1 8.6-2.2 6.7 4.3 4.3.9 1.5-4.3 2.8 2.5.2.1 1.1 1.2.4-3.6.5-1.6.6-1.5.3-.7.6-1.4.6-1.4.7-1.8L249 521l-2.9-1.9 2.9 6.6-6-2.1-1.8 10.1-4-1.7-11.8 8-5.4 1.3-2.8 8.5-.4.8-3.2 3.7-1 .8-5.2 4-5.8 8.8h-2.9v.1zm-4.8-18.7l5.9-2.9.3-.1h.1l.3-.1 6.1 3.1h.1l5.2-3.5 8.8-13-6.1-6.5-5.6-2.4-.1.1-2.2 3.5-6.1 1.7h-.2l-.3.1-6.1-1.7-2.2-3.5-.1-.1-5.7 2.5-6.1 6.5 8.8 13 5.2 3.3z"/><path class="st3" d="M115.4 546.3l1.5-.5 7.2-2.8-12.5-14h1.4l8.7.4 1.7-6 .6.3 2.8 1.4.1-10 .8.2 7.6 2.4 5.8 4.8-.5-8.4 3.1-1.1 2.1.1 1-.1.1.3 3.3 7.6.5-.3.5-.4.9-.7 2.7-1.7 1.5-1-3.7 8.3 10.5 13.8-2.6-.6-13.9-4.3h-.3l-.1-.1-12-1.3-1.8-.3-1.1-.1-8.8-.2h-.2l-1.8 4.4 14.9.2-2.1 8.6-4.6 4.9-.4.3"/><path class="st6" d="M163.4 519l-.3-.6 13.5-1.3.3.9-6.7 4.2-5.3 1.1m-3 15.2L151.4 525l6.7-2.3 1.8 10 3.4-1.4 13.2 9-9.8.7m26.8 9.2l-5.5-3.7-9.3-13.8.3-.4 6.4-6.8 6.5-2.8 2.5 3.9 5.3 1.5v-.1l.6.1h.2l5.6-1.5 2.4-4 6.6 2.9 6.4 6.8.3.4-9.3 13.7-5.8 3.9-6.3-3.2-.1.1-.1-.1-6.4 3.2"/><path class="st4" d="M135.3 553.8l-7.7-3.7.5-.4 4.6-4.8 1.7-7.2-15.1-.2 2.6-6.4h.3l9.1.3 1.7.2.3.6 7.6 9.1v-.1l.7.7.6.5-.5.9h-.1l-5.6 10.9"/><path class="st1" d="M131.5 531.3l2.9.4 13 1.4-.7.7-5.2 8.3-.4.7"/><path class="st0" d="M178.9 554.2v-1l.1 1"/><path class="st0" d="M151.2 565.3l-.1-9.1h-.1v-.1l-8.7 2.6 3.3-11.2-4.2-4.7h-.1l-.8-.7.2-.4 5.4-8.4.5-.6 2.6 5.2 1.9 1.9 9.5-2.5 1.8.5 4.6 2.4 14.6 8.3 1.6.8.6.2.2.1.7 1.3-.7.4-4.7 2.6 7.4 5.8.5.3.3.2v1.9l-7.4 8.9h-.1l-2.3 3 .2.1-.7.9-.4-.1-.4-.2h-.3l-8.1-2.3-9 2.2-3.2.5"/><path class="st5" d="M148.5 538.5l-2.9-5.7 16.7 5.1-11.4 3"/><path class="st4" d="M181.1 549.3l-14.5-8.3.2-.9 8.3-.6 6 1.4 2.9 8.9.3 1.1"/><path class="st1" d="M142.1 558.3l-3.9-2.7-3-2 .2-.3 6-11.7.5.6 4.5 5-3.2 10.8-.2 1.2"/><path class="st7" d="M123.2 567.3l-.6-9.8-8.6-.9v-1.1l1.1-9.3.7.7 11.3 9.7-1.7 13.5"/><path class="st2" d="M177.4 554l1.3-.7 5.4-3.1.3.3 3.8 4.5"/><path class="st3" d="M139.1 578.5l-5-2.6.2-.6 2.3-6.4-6.9-3.2 5.5-13.1 1.9 1.2 1.7 1.1 4.3 3-3 6.5.4 1.2.2.2.3 4.7-1.2 7.1.1.1-.1.4-.2.6"/><path class="st5" d="M186.6 560.8l-9.1-7.1 1.3-.6 8.5.7 1.2 1-1.3 6.4m-36.4 12.5l-7.3-2.1-3.6-5.3h-.1l-.1-.2-.9-2.2 1.6-.1v.1l6.9-.5-5.2-4.9.5-.8.3-.1 9.1-2.6v.6l.1 9.6 4.3 9.1.4.5-1.8 5.9"/><path class="st1" d="M186.5 562v-1.5l1.3-6.2 6.3 4.7-7.3 9.8"/><path class="st6" d="M113.3 555.7l10 1.1.9 11.8"/><path class="st4" d="M139.2 564l3.2-6.7.7.8 5.4 5 .9 1-10.6.7M195 573l-8.3-4.2v-1.5l.1-.1 6.6-8.9 6.6 10h-.7l-1.5 4.1-.7 1.8-2.4.8"/><path class="st5" d="M179.3 570.5l8.1-9.8.3 6.6v1.9l-.2-.1-.3 5.8"/><path class="st2" d="M138.8 578.5v-.5l1.3-7.4-.3-4.5-.1-.1.9-.4 3.6 5.3 3 5.9 1.3 3.7"/><path class="st6" d="M200 580.3l-.2.1-3.6-6.6.7-1.8 1.8-4.7h3.1l1.8 4.7.7 1.8-3.7 6.7"/><path class="st1" d="M177 574.8l-.9-.2 3.7-4.8.5.3 6.1 3.3.3-5.6 9.3 4.5v.4l-.3 1.9-9.2 3m-4.1 11.9l-.4-.5-.8-.8-.1-.1-6.1-1.9-4.1 3.1-8.8-3.3 1.6 4.7-2.9-.5-2.3-.5-3.9-1.1-3.2-4-2.1-3.4-1.8-.8v-.3l-1.2-3-3.4-6.7 8.5 2.4 3.9 6.5.1.2-.1.1 2 2.8 4.7-2.6 29.2 4.2 9 5.6-.3.9-9.6-.8-.3-.2-.6-.4-2.2-1.3-1.1-.6-1.1 6"/><path class="st1" d="M170.4 588.5l.1-.1.6.8"/><path class="st5" d="M158.9 574.5h-.1v-1l9.2-2.2h.1l.1.1 9.2 2.6-7.9 4.7"/><path class="st1" d="M156.2 575.3l-1.1-1.1 3.9-.7.2.1 11.6 4.6-1.4.4-7.3 1.3"/><path class="st0" d="M159.8 599.8l-2.5.8 1-3-4.4 1.3 2.3-3.2-6.3.8 2.7-4.8-2 .8.6-9.5 3.9 4.8.1.2.4.9h-.1l2.1 4.9 6.6 4.4-.5 1-3.5 2.4m18.4-3.3h-5.8l.1-4.8-6.8-1.4.7-.7 3.6-2.9 4.4-3.3 6.9 2.1 1 1.1.4.6 1.4 1.9 1-5.3 2.2 1.4 2.1 1.3.9.5.1.3 1.4 4.5.4 8-.7-.5-6.6-3.9-1.4 4.5"/><path class="st1" d="M184 606l9.9-4.8h.2l.5-.2.3 6.3v4.8l-3-5.3-3.1 6.4-.6-4.8-1.3 5.1"/><path class="st0" d="M326.1 192.9l20.3-11.8 12.8.9.1.9-5.4 1.3-6.9 1.3-2.3.8-10.8 6.5-7.6 1m34.3-10.9l-.2-.2-.8.1h-.5l-.1-.8 1.5-.4 1.6 1.5"/><path class="st0" d="M384.6 205.9l-2.6-2.3-.4-.4-6.1-10.5v-.1l-6.7-3.9-1.6-1.5-.5.2-3.5-2.1-3.7-3.4 11.1.8 6.7 4.4 5.9 8.5 2.9 11.7"/><path class="st1" d="M347.2 185.4l-.1-.9 6.7-1.2 6.8-1.7 4 3.8-1.1.1-.7.1-2.8.1-1 .1h-2.7"/><path class="st2" d="M373.2 192.6l-4.3-3.8.6-.8 6.9 4.1-1.3 2.6m-20.3-4.8l-11.8-4.1 3.8-1.2h.5l9 .4 2.6-.1h1.1l2.8-.2h1l3.9 2.4-9.3 3.9"/><path class="st3" d="M365.7 197.1l.7-2.1.3-.7-6-.1.3-2.8-4.2-.8 10.6-4.5 6.4 5.9 1.7 1.9-1.3 2.3-5 .2-4.4 3.3"/><path class="st4" d="M382.2 217.9l-1.5.7v.4l-.2.1-.5 2.9-4.9 3.3v-7.8l-.6-2.9-4.3.3-9.5-1.8-7-6.1-15.8-9-3.1 15.2-3.2 1.3-14.2 1.3-.1 8.9v.7l-.2.2-.1.1-1 1.1-14.2 3.2 6.1-9.3h-.1l.1-.1-4.9 1.1 9.1-11 2.1-2.4 3.7-4 .1.4 3.1-1.5-2.7 9.4.1-.1v.3l16.4-14.5h-.2l-8.5 1.8 7.3-8.1 10.9-6.7L355 189l3.5 1.1 3.5.7-.3 2.6 6.2.1-.6 1.9-.7 1.9 2.3-1.7 4.7-.2.9-1.6 1.4-2.6.3 1 2.3 7-3.5 1.7.3.1h-.1l5.3.5-3.6 2.5-2.1 7.6 9.2.2 1.3 23.6-.9.1"/><path class="st5" d="M317.1 205.1l-.5-4.3 9.5-8 8.9-1.2-7.3 8-.2.3-4.9 3.4-1.7.9-.2.1-3.5 1.8"/><path class="st2" d="M373.5 212.4l.4-.7 2.3-8.2 1.9-1.4-6.5-.5 1.8-.9 4-2-1.9-6.1.8-.5 6.1 10.6v.2l1 6 .7 3.1v.6m-34.5 10.5l2.1-5.3 4.4-3.9-22.3-.6 3.5-16.8 16.9 9.7 7 6 9.2 1.8v.9l-7 1.8-11.1 3.3-.5 2.2-.2 7.2-1 .1"/><path class="st3" d="M317.2 213.9l2.9-10.2.2-.2 1.8-.9 4.8-3.4.3-.2.2-.1 2.5-.6 4-.8 4.2-.9-21.4 18.9"/><path class="st0" d="M287.9 230.1l13.8-15.7 15.7-14.4.7 5.4-.2.2-3 3.2-2.1 2.5-8.2 9.9-7.8 5.9-8.3 3.8"/><path class="st5" d="M385.4 245.1l-1.5-4.6.4-4.9.1-.2-1.3-23.1-.6-3.1-1.2-7.4 4.5 4.1 2.3 15.4-.5 20.1-1.8 5.6"/><path class="st1" d="M301 244.9l.2-.4 4.7-7-.2-.4 8.8-9.8h-.1l1.1-1.3 1-1.1.8-.6v.1l12.8-9.7h-.1l1.3-1.1 3.1-1.3 24.2.6-6 5.4-2 4.7 1 6.2.2 6.8-9.4 4.8-6.7 12.2-1.2 1.5-.7-.4-8.9-4.2-15.4 8.8-8.5-13.8zm20.9-5.3l-2.8 3.6 14-2.3 1.4-2.3-4.1-9-8.5 10z"/><path class="st3" d="M363.7 291.9l2.4-4.4.1-.3-2.5-1.6-1.1-.1-.4-.2.1-.5-3.6-1.5-.2-1.3-5.3 3.2 1.6-8 1.7-3.1.1-.2-3.8-1.8-.5 4.5-1.3 1.5-5.1-2.7.2.5-.3-.2 1.3 3.4-6.7-1.6.5.6-.6-.2 4.7 6-2.5 2.8v.2l-.8.8-.6-1.5-3.4-8.6-1.8-2.4-6.2-7.8-1.1-1.3v.1l-1.1-1.4v-.1l-.4-2 15.4-3.3h.2l.2-9.7 5.5-2.9 6.7-2.4-3.6-9.1.4-.2 11.2-6.6-.2-7.5.1-4.3v-1.1l7.3-1.9 5-.3.2.4.7 3.3-.1 6.5 3.3-2.5.5-3.1 3.1-1.4 2.4 18.9-.4 4.8-2.9 11-4 .7.6 5.2-10.4 15.3v.4l-.1.1v1.2l-6.1 4.1h.9v.5l2.4.1 1.2 3.3-.9 1.8.1.1-.1.2 2.2 1.6-.9 5.1-.3 1.9-3-1zm-1-24.6l2.3-1.5-7 .1 4.7 1.4zm-3-5.7l10.9-3.4 7.3-6.4-5 .8-7 .9-6.4 7.1.1.1-.3.4.4.5zm18-21l-2.8-2.8 5.1-1.5-5.7-.5 2.6-2-1.6-.4v-.1l-1.9 4.7-.9 1.3 5.2 1.3z"/><path class="st2" d="M316.3 224.6l.2-9.6 14.8-1.3 1.7-.1-16.7 12.7"/><path class="st4" d="M350.6 229.6v-.2l.3-7.3.6-2.7 12.3-3.7-.1 5.5.2 8-11.7 6.9-.5.2-.1-.1-.8.3"/><path class="st3" d="M293.2 265.1v-.4l1-.1v.6l-.1.1m-46.3 1.7l-.1-.1.1.1"/><path class="st3" d="M127.6 274l-9.3-.9h-1l-.5-.1v-.9l-10.5-7v-1.4h-.3l-.3-1.1.3.1-6.9-17.1-.2.2-.4-.8-4.9-7.4.6-1.2.1.1L98 230l-.5-.1-.2-.3-6.7-10.3 5.8 1.4 7.8 5.9 12 15.3-6.4-1-3.1-3.5-3.1 13.1h.1v.2l9.5 1.7 1.4 11.3.1.2 12.2 6.5 8.8 6.6-1-2.2-1.4-4.3 2.3-9-.5-1.5-.9-2.2-3.5 7.1-.9-1.6-3.8-6.8-.6-1.1 8.8-.1 17 .4 47.9-4.6.9.1h.2l1.1-.1 48 4.6 17-.4 8.7.1-.5 1.1-3.8 6.7-1 1.6-3.4-7-.9 2.1-.5 1.6 2.3 9-1.4 4.3-1 2.2 8.7-6.6 12.3-6.5v-.2l.1-.1 1.3-11.3 9.6-1.6v-.2h.1l-3.2-13.1-3 3.5-6.4 1 12-15.4 7.8-5.9 5.7-1.4-.5 1-6.1 9.4-.2.3-.5.1h-.1l3.8 6.4.1-.1.6 1.3-4.9 7.4-.5.8-.1-.3-6.9 17.1.3-.1-.3 1.1-.3.1-.1 1.3-10.4 7.1v.8l-.4.1h-1.1l-9.3 1-2.5 9.5-15.8-6.3 5.4-8.6-.2-.1.1-.1-4.5-3.1-7.7 2.1-4.4-.2-.2.2-.4-.3-1.6-1.5-11.1-3-.3.1-1.3-.6-3.7-1.1-3.1 2.6h.3l-1.3 1.3-.5.1-5.5-.3-.2.1-.5-.1-13.2 2.5v.2l-.6-.1-13.5-2.6-.6.1h-.2l-5.4.3-.5-.1-1.3-1.4.3.1-3.1-2.7-3.7 1.1-1.4.7-.2-.1-11.1 2.9-2 1.9-.2-.2-4.5.2-7.6-2.2-4.5 3.1.1.1-.2.1 5.4 8.7-15.9 6.2"/><path class="st8" d="M200.7 251.6h-1 1"/><path class="st2" d="M301.3 229.9l.6-.8.7-.1 13-3 1.6-.4-10.8 12-.4.5"/><path class="st1" d="M280 237.9l8-7.7 8.4-3.9.6.7-11.3 14.5-.7 1-12.1 4"/><path class="st5" d="M321.2 238.9l9.5-11.1 4.9 10.8-1.8 3.1-16.8 2.7"/><path class="st6" d="M370.9 239.9l1.7-2.3 2.7-6.5.9.1v1.5l2.8.8-2.2 1.6 5.7.5.1.9-5.9 1.8 4 4"/><path class="st2" d="M341.5 240.3l9.5-4.8 1.1-.5.3.6 3.8 9.5-1.1.5-10.6-5.3-.6 8.2-10 5.7"/><path class="st6" d="M263.8 277l1.1-2.7 1.4-4.2-2.3-9 .5-1.6 1.2-2.7.6-1.3 3.5 7.3.1-.2 3.8-6.7.3-.6.3-.6 10-12.9.7-1.1h.2l5-.8 4-4.7 3.9 15.9-.7.1-9.3 1.7-1.4 11.3-.2.1-12.4 6.6-11.4 8.7"/><path class="st4" d="M333.5 254.1l1.3-1.5 8.2-4.6.7-9.2 12.6 6.3-7.6 2.8-5.1 2.5-.2 9.9-1.1.2m23.6 21.6l-1-2.9-2-.1-3.8-.1 8.1-5.5.1-1v-.5l10.5-15.4-.4-3.5-6.3 5.5-11.5 3.6-1.1-1-.5-.4 7.4-8.1 7.3-.9 8.6-1.5 2.6-10.1.4-1.4.5 1.4 1.6 4.9-6.5 14-4.8 9.6-.3 1.7-.4 1.6h-.9l-.1-.4-.2-1.6-1.3 1.8-.3 1-1 3.1-3.1 7.1"/><path class="st3" d="M274.1 254.9l-1.4-9.4 1.5-.4 11.8-3.9-11.7 15"/><path class="st4" d="M301.2 243.4l.7 1.1L310 258l.3.5-17.4 5.6"/><path class="st2" d="M265.4 255.9l8.1-11.3 1.6 10.4-.5 1"/><path class="st5" d="M332.8 255.4h.1M308 295l-7.4-2.3 1.1-12-.1-.3-.9-1.5-4.7-8.5 13.3-12.5 15.5-8.9 9.9 4.7-1.1 1.6-.4.5-12.8 4.7-4.9 6.2 13.9 8-11.1 8.4-1.4 10.5-12.1 9.1"/><path class="st2" d="M332.5 255.1l.3-.4 1.1-1.5.6.5 9.1 6.6-17.2 3.7"/><path class="st1" d="M305.8 353.5h-.3l-.3-1 .7.1 1.6.2-1.4.7h-.1m27.8-52.6l-1-.2 1.2-1.1.3.6.3.8"/><path class="st1" d="M301.2 338l15.4 7.5-.1-.1-9.2-18.3-6.8-10.3-.2-2.5.3-6.7-5.3.6 1.2-1.7 1.5-2.3 1.8-3.1-6-3.8 5.8-4.5.1-.1-8.1-5 5.9-4.4 5-4.1-1.2 12.5 7.6 2.4-2.3 5.6 9.2-6.9 1.4-10.5 10.3-7.8-13.7-7.8 5.7-7.2 14.3-5.2-.8 1.2-5.4 7.7.3 1.4 1.2 8.2-1 14 5.9 13 13.1 2.6-.5.6-9.1 10.4-.3-.3-12.7-4.2-3.5 2.8-3.8 9.8.3 6.3 9.1 11.4 7.7 10.3-16.1-2-12.9 6-4.1-15.5zm6.3-25.6l-1.5-6.5-3 1.2 4.5 5.3zm17.8-5.4l7.7-6.3-13.9-2.7 6.2 9zm-32.1-42.2l.1-1.8 16.1-5.2.5.8-13.4 12.6"/><path class="st4" d="M224.5 259.9l7.2 2.2-1.9.5-9.1 2.1-2.2.4"/><path class="st2" d="M210.5 272.3l1.3-7.8 2.5-.7h.2l5.6.3.1-.1 9.5-2.2.3-.1 11.5 3 2.4 2.3-12.4 4.9-6.4-.6-8.7 4.3"/><path class="st4" d="M354.9 265.9l.2-.9 13.2-.1-5.4 3.5m-29.2 32.4l-6.2-13.7 1-14.1-1.2-8.1-.2-1.6 3.3 3.9 6.2 7.8 1.9 2.5 3.4 8.7.2.7 1.3 5.5 11.5 3.7v-.2l.2.1 2-6.1 6.4 6.2-15.5 3-11 2.3"/><path class="st2" d="M292.9 297.8l-.5-.6-4.1-2.2 3.7 7.7-7.4-1.5-1.9-11.3-.7-1.1-6.9-6.3-5 .8-.5-.2.1-.4 2.4-9.6 10-1h1.1l3.8.1-2.7 3.5 8.7 1.1v-.1l.1-2.5.1-9v-.4l.9-.3 2.9 5.7 4.5 8.2 1.3 2.2-1 .8-3.6 2.9-4.8 3.6 8.1 5-.6.5-5.3 4.1 5.6 3.6-2.3 3.9-1.5 2.3-.8 1h-.4l-1.3.3"/><path class="st4" d="M293.3 277.6l-10.6-1.4 2.6-3.3-4.5-.1 13.3-9 .1 1.3-.1 9.1-.2 3.5"/><path class="st2" d="M268.1 330.1l-4-4.3-7.6 3.2-3.9 1.2 6.9-10-6.1-7.7-8.4 10.2-3.6 2.3-6.3 1.3-1.3.2.7-3.2.8-4.9-11.6 2.5-11.6-11.7-2.9 7.4-.9-.2-1.6-17.3 6.7-13.9.5.5.1.2 4 9.5.7 2 1 2.7 7.9.8 13.6-2.1 1.6-11.6.1-.8-1-4.3-2.4-4.4-1.8-3 15 .9-5.4-8.5-.3-.5 8.6-2.5 5.5 3.9-.3.5-5.3 8.5 6.1 12.3 8.7 10.7 9.5 5.5-1 6.7 6.8 9.7-10-3.3v10.2l-6.5 1.2.1.1-.8.1"/><path class="st1" d="M219 301l-1.1-3.3-.8-2-3.9-9.4-6.3-5.6-1-.7.2-.4 4.7-8.3.4.2 5.2 2.9 8.5-4.1 6.4.6 11.5-4.6v-.1h.3l4.9.2 6.5 10.3-15.1-.9.9 1.4 2.5 4.6 1 4.5v1l-1.8 12.4-14.4 2.1"/><path class="st2" d="M374.7 279.8l-.6-.8v-.3l-.5-6.1-.1-.6.9-4.6.6 1.4.1.1 2.2 13.4-.8.3"/><path class="st3" d="M374.4 299.5l-.1-3.3-1.6-20.2-1.7-4.3 2.8-4 .6 3.7.1 1 .6 6.3h-.1l1.3 8.2-1 12.6"/><path class="st2" d="M355.1 297l-12.3-3.9-1.3-5.8-.1-.4 2.5-2.8-4.8-6.2-1.3-1.5 7.9 1.8-1.7-4.5 6.7 3.5.6-.7.5-4.4.4-1 5.6 2.8-.4.7-1.8 3.3-1.1 5.8 4.7-2.8.4 2.1 4.6 1.9-.2.9-1.5-.1-8.1-.1h-.1l3.5 4.9.2.2-2.2 6.5-.7-.2zM345 282.9l2.3-2.6-3.6-.1 1.3 2.7z"/><path class="st7" d="M366.6 282.9l3.2-7.2 1.4-4.9.6.8v.1l1.8 4.2-1.2 9"/><path class="st6" d="M369.8 302.1l-.2-8.4-3.3-1-.4-.2.2-1.6.9-4.9-2.5-1.8 1.2-2.3.3-.6 1.4.8 4.2 1.4 1-7.7h1l1.5 21.4-3.3-3.3v.2l-.2-.2-.9 8.2"/><path class="st4" d="M317.3 346.6l-15.8-7.7v-.2l-4.1-10.6-5.8-2.9-2.8 15.7-17.1-3-1.1-.3-2.5-7.7-.3-.6 6.8-1.2.1-10.8 8.6 2.9-5.5-7.8v-.2l1-6.3-9.1-5.3-8.9-10.9-6.6-13.4.8.1h.4l14.8 5.9 5.2-1 7.4 6.8.7 1.3 1.8 10.9 5 1-4.2-8.7 6.8 3.8.7.7 2 10.3.5-.1 5.6-.7-.1.8-.3 6.9.1 2.2 6.8 10.1 10.4 20.6"/><path class="st5" d="M375.3 287l-1.3-8.4.9-.3.6.9 1.9 2.9.4 15.9-1 .1"/><path class="st3" d="M342.2 279.3l7.2.1-4.6 5.2"/><path class="st1" d="M362.6 302.3l-.5-5.4v-.9l-5.1-5-.1-.1-4.5-6.3h1l9.3.1 1.2.1 3.5 2.2-.4.6-2 3.8 1.5.5h.1l4.2 1.3-7.6 14.2"/><path class="st4" d="M365.4 316l.3.1 2.6-9.2.9.1.2 2.7 5-9.7v-.5l.9-12.6h1l1.5 11.2-2.6 9.9-9.8 11.2"/><path class="st7" d="M368.8 311l-.4-4.2 1.5-4.5 1-9.2v-1.4l4 4 .4.3v3.6l.1.8-6.4 12.2"/><path class="st2" d="M365.7 317.1l-1.5-.6.1-.4-1.3-10.3v-.2l7.5-14 .3 10.9-1.6 4.5-.1.2-2.8 10.1"/><path class="st3" d="M363.7 318l1.3 1.1-2 .5"/><path class="st3" d="M337.4 313.4v-.1l-.3-.3 8.5-9.7-8.7-1.8v-.9l10.9-2.3 15.2-2.9v1.8l-3.3 2.9-6.8 8 11.8 10.8-13.2 4.7-5.9 2"/><path class="st4" d="M363.8 319l-12.1-11 7.3-8.6 3.2-2.9.8-.8.6 6.4.4 3.7 1.3 10.4-.1.1-.6 3.5"/><path class="st5" d="M317.9 297.5l-.6-1 17.6 3.5-.7.6-.4-.3.3.4-9 7.4m-23.6-1.3l5.2-2.2 2.1 9.4-.8.5"/><path class="st4" d="M316.9 328.3l-.3-6.7 3.9-10.2 4.1-3.3 13.3 4.4.5.5-.3 1.4-2.3 14.4 5.3 5 .3.5-.5.2-6.9 3.2-7.6 2.5"/><path class="st1" d="M192.3 351l-1.1-13-1.1-2.7-3.2-6-1-1.8-3.3-6.5-7-.1 12.6-12.7.6-.5 3.4 8.7 8 18 8.1-18 3.4-8.8.6.6 12.6 12.6-7 .1-3.3 6.6-1 1.8-3.3 6-1.1 2.7-1 12.9-.9.2-7-12.4-7.1 12.4m39.3-19.6l1.4-5.5.1-.4.9-.1 6.2-1.2 3.3-2.2 9-10.9.4.5 6.8 8.5-6.6 9.6-7.2 4.1-8.1 10.1"/><path class="st6" d="M341.7 336.5l-.1-.2.9-.3.1.1-.8.5m-.1-.1l-1.1-2-.3-.3-5.5-5.2 2.7-17.2.7 1.1 7.8 11.5 5.2-1.8 12.4-4.5 1.1-.2-.5 1.1-7.9 18.2-5.9 5.9"/><path class="st5" d="M232.6 331.5l-1.9-2.6-4.7-5.8-12.5 4.9 4-8h6.4l11.8-2.5.8-.4-.2.9-.1 1-.8 4.4-.6 2.7-1.6 6.6"/><path class="st0" d="M231.8 361.3l-4.6-6.3v-.3l-.2-4.7-8-.1-10.7-12 1.2-2.9 3.3-6.1 1.2-2 .3-.2 11.9-4.6.3.4 4.9 5.9 2 2.7 5.9 12.1.1.1.1.1.1.3v.7l-.1-.1.3 8.9-6.4 9-.2.2-.3.4"/><path class="st2" d="M305.8 353.5l-10.6-2.8-2.8-2.1-4.4-8.1 3-16.5 7 3.4.2.2 4.1 10.8.1.3 4.1 14.6-.4.2h-.3"/><path class="st1" d="M256.4 330l-.4-1-.3-.7 8.6-3.6.2.2 4.4 4.6 2.9 8.8"/><path class="st5" d="M254.4 343.5l-8.5-10.1 7.7-4.4 3-.9.2.6.4.9 3.7 10.2-.2.2-6.1 3.7"/><path class="st0" d="M283.3 375.4l-1.1-1.6H277l.6-1.6 1.4-8.6.9-1.4 11.1 2.4-11.4-11.3-13.7-.3-5.7-5.8-.3-7.5-4-10.9 15.3 8.2 1 .4 1.6 6.3 5.5-5.2.4.1.2.1 6 6.2 7 3.1 2.8 2.1 3.1 6 8.9 7.3 4.9 12.9-8.3 3.5"/><path class="st2" d="M347.2 347.9l-13.4 1.7h-.3l-7.7-10.2 7.9-2.6 7.2-3.3.3.3 1.3 2.2.1.2 2.7 7.2 1.6 2.9.7.1 4.8.1h.1l1.6-.1.9-5.3 1 .1-.6 5.1L360 358m-111.2-9.5l-.1.1-.2-.2-9.6-4.2-.2-.1v-.1l-.5-.8.2-.2 8.2-10.2 8.2 9.7 6-3.7.4 8.3v1.4l-.2-.2-.2 10.7"/><path class="st3" d="M347.5 347.4l-1.2-.4-1.8-3.2-3.4-8.9 9.2 7.1 6.3-6.1-.6 5.3-1.1 6.1-2.5.1"/><path class="st1" d="M285.3 345.5l-7-7.2 10.4 1.8 5.1 9.3"/><path class="st1" d="M271.1 337l9.3 1.6-7.1 6.6"/><path class="st1" d="M278.5 339.3l.5-.7.5-.4.3.3 1.2 1.2"/><path class="st5" d="M207.1 351.5l.1-.6 1.2-14.1 10.9 12.3 8.6.2.3 5.3-.1 1.6-.4-.5-3.7 5.9h-.4l-4.3.7"/><path class="st1" d="M233.3 362.4l-.1.1-.9-.3.3-.5 6.2-8.8-.3-9.8.7.2 10.5 4.6-8.2 4 9.1 3.6L248 366"/><path class="st5" d="M306.9 363.8l-8.9-7.1-3.6-7.1 11.4 3.1 12.6-5.9 15.3 1.9 13.7-1.7 11.8 9.2.7.3-.5 2-12.1 3.1-13.2-10.6-.6.1-9.9 18-11.8 7.6m-31.7-13.6l-.4-.1-6-7.4v.1-.1l-8.4 8.2-.6.5-4.9-6.1v-.4l.3-12.1.9 1.1 5.2 5.2 13.6.3 12.7 12.6.8 1.1"/><path class="st0" d="M338.4 369.5l-2.4-.3h-13.4l10.4-19 1.4-.3 13.2 10.6 12.2-3-3 19.3h-.4l-4.3.2-4.7 1.1"/><path class="st2" d="M225.5 368.1l-9.1 3.5-3.8-7.6-7.7 2.7-1.1.3 3.5-16.7.6.6 11.7 10.4 3.9-.7h1.9l-.2.1h1.3l-.3 5.4 6.3-4.3.1-.2.4-.4 14.8 3.7.8.1-3.8 7.7-8.9-2.2-5.2 3.1"/><path class="st1" d="M262.3 378.9v-.2H260l2.2-2.1 2-1.8-3-4.2v.1l-.8-1.1.2-.4 4.3-4.7-.7-.8.4-.4 9.1-8.9.4.3 6.4 7.9-.9 1.4-2.2 3.1-3.8 5.4-1.1 4.9-1.2 1-1.6.1.1-.1-6.2.4-.6.1h-.7zm10.8-8.4l.7-6.6-7.5.8 6.8 5.8zm-47.9-3.5l.3-5.3h-3.6l1.5-.9 4.3-6.7.4.6 4.4 6 1.1 1.4-.3.4-8.1 5.6"/><path class="st3" d="M249.8 355.5l11.4 3.9-4 5.7-3.6 4.2"/><path class="st6" d="M253.4 368.4l3.1-3.8 4.5-6.4-.5 10.8-6.7 8.4"/><path class="st5" d="M272.8 372l3.9-5.5 2.3-3.1.8.3-1.3 8.7-.1.5h3.3l-1 1.5-.2.4-.7-.2-3.3.3-2.1 1v.1l-2.9 2.1m80.8 11.4v-.1l-6.5-9.8-7.2 6.8-11 3.4-3.4-14.6-1.5-6.8h13.4l2.6.3 8.9 8.5 4.4-1 4.7-.1-3.7 14.6"/><path class="st2" d="M315.6 379.5l-10.2 1h.1-.3l2.2 1.5-.3.9-5.9-.6 2.8-3.4 7.8-3.4 11.8-7.5 1.5 6.9 3.4 14.5-.1.1.8 2.5m-78.6-10.4l-3-8.1 1 .4 9.9 4.4 2.4-10.1 4.6 6.6-.8.8-1.8 1.6-.6.5h1.3l.1.9-1.2.2-6.8 6-1.9 3.4m19.7-11.4v-1.3l2.9-1.5.8.7 2.7-.8.7-1h2.1l1.6 2.2-11 5"/><path class="st2" d="M226.6 393.9l-.2-.5-.2-.6.8-1.9h.4l8.8-1.4 1.5-8.9 6.7-8 1.8.4.2.1 2.6 1.1-2.3 5-2 4-7.9 9.1-5.5 15.7"/><path class="st6" d="M276 374.9l-.7-.7 1-.1 4.7-.4-.5.9-.2.2-3.3.9"/><path class="st3" d="M264.4 382.6l1.4-1.1 5.1-4 1-.8 2.6-1.9v1l-.2 2.8 9.2-4.2 21.7 4.6-3.1 3.5-8.7-.7-6.9-2.3-7.6 1.3-14.2 2.7"/><path class="st5" d="M236.1 391.8l7.9-9.1 4.5-9.6.3 1.2 2.6 7 3 6-.2.3-3.1 8.4-.2.2-5.4 3.9-5.9 4.5-9 2.8"/><path class="st4" d="M254.8 384.5l8-6.5.7-.1 9.1-.6-1.2 1-6.5 5.2-.2.1-10.6 8.3"/><path class="st1" d="M335.8 398.1l-1.9-1.9-3.8-3.6-2.2-1.7-.7-2.1.7-.2 10.2-3.2 7.9-7.4 7.3 11.2-4 13.2"/><path class="st3" d="M317.6 395.1v-.1l-11.1-3.8h-.1l-.6-.1.2-.6.1-.2.1-.1.5-.4v.1l6.5-7.3.1-.2 1.5-2.8.3-.7.3-.6.5.4 13.1 12-5.8 3.8-.4.2-.2.1-2.1.9"/><path class="st6" d="M310.5 383h-3.4l-.3-.2-4.2-2.8 1.5-.3 12.3-1.1-.4.8-2 3.7"/><path class="st7" d="M281.7 385l-.3-.1-.2-.6.5-.2.4-.2.4 1.3"/><path class="st7" d="M240.6 442l-1.4-18.6-.2.3v-2.1l.1-.1 3.3-5.3.6-1.4 6.8-17.7-.1.1.5-1.5 3.1-8.4.1-.2 1.4-2.6.9.3-.5 5.1 9-7.1.3-.1 14.1-2.7 7.9-1.3 7 2.3 8.4.7h.1l5.3.5 3.2-.1 3.3.2.9.1-8.3 9.4-.4-.9-3.7-7.5-4.4.2 1.9 7.7-3.9 11.6-11.5 12.2-2.1-.6-.3-.1-2.8-.4 8-7.6 2.7-9.2-1.1-5.5v-.1l-.2-.4h.1l-2.3-4.8-5.8-1.5h.1l-10.1.5-14 8-3.1 4.4-.1.2-.1.1-1 7.1 3.6 5.7 10.6 6 11.8-2.2 4.5.6v.9l-14.9 3.6 8.2 1.1h.1v.9l-2 .2-12.6.8-5.4 3.7-9.6-3.1-4.2-1.5v.4L248 438l-1.9 7.1-5.5-3.1zm44.4-30.2l3.1-2 1.3-2.7-4.4 4.7zm6.8-9.8l1.9-4 .1-4.8-3.2-7 1.2 15.8z"/><path class="st6" d="M265.2 420.1v-.9l14.9-3.6-3-.4.8-.7 2.1-1.5h.3l2 .3h.2l.1.1 1.6.4 11-11.6 3.7-11.2-2.1-8.5 6-.2.2.3 3.9 7.8.2.5-.5.2-1.8 3.8-10.4 16.5-9.4 7.5-1 .5-.5.3-1 .4-6.3 1.4h-.2m-16.7-26l-3.8-2.8 14.9-8.5 12.1-.6.2.9-.9.4-2.5 1.6-.1 2.8-3.4-.3h-.1l-4.7 1.4.3 4.3 4 .2-4.9 10-11.1-9.4zm9.5 4.8l2.8-2.7-4.4-1.3-2.2.9 3.8 3.1zm-5.4-3.9l-.1-2.6-2.2 1.2 1 1.1 1.3.3zm1-.1l2.5-1 2.1-1-.2-3.4-4.5 2.5.1 2.9zm-8.5-3.2l-.5-.3.5-.4.7.6-.2.3"/><path class="st3" d="M289.4 384l-.6-1.5 1.5 1 4.4 9.7v5.2l-3.6 7.2"/><path class="st3" d="M282 413.5l8.8-9.3.7.5-2.7 5.7-.1.1-6 3.9-1.9.3"/><path class="st8" d="M290.3 383.9l1.6 19.9-.9.1-1.6-19.9.9-.1z"/><path class="st3" d="M290.7 404.3l1.1-2.2.2 2.2-.5.6"/><path class="st4" d="M283.5 391.1l-2.4-7.3.8.1 5.2 1.4 2.9 6-5.5 2.2"/><path class="st5" d="M269.5 410.6l11-11.4-.4-.1-1.2-.6-1.5-.7 3.3-3.8-2.5-4.4.2-1 .1-2.7 3.6-2.3.1.6 2.2 6.6.9 2.4-.2.1-1.5 8.6-11.9 8.8"/><path class="st1" d="M270.4 395.5l-.3-5.9 5.5-1.6h.1l3.6.3-.1 1.3-.3 1.1-.1-.1-.6 3.1-3.6 2"/><path class="st2" d="M340.9 423l.1-.7 2.8-12.1v-.1l-7.3 5.1h-.8l-.6-.1-3.9-1.2-.7-.2-.3-.1-.2-.1-.2-.2-2.7-8.9-7.9-8.7.3-.2h-.4l1.3-.7 2-.9.4-.2 5.5-3.6 2.4 1.8 3.8 3.6 1.8 1.7 13.1 4.5-.7 20.3-.8 5.7"/><path class="st9" d="M277.3 393.5v-.1l1-4.8.7.9 2.8 4.7-4.1 4.6"/><path class="st10" d="M263.4 393.6l4-2.8-.1-.1 1.2-.8 1.2-.8.3 5.6-2.7 1.4-3.8 1.4"/><path class="st11" d="M261.6 397l-2-2.2 9-4.8h1.5l-5.8 4.3.1 3.4"/><path class="st4" d="M200.1 502.5l-12.2-2-9.6-7.9.5-.8 12.1 4.1 8.4-.6.7.1.2-.1h1l8.4.6 12.1-4.1.4.8-9.5 7.9-11.9 1.9v.2m-26.6-40.1l-.9-19.1-7.8-13.5 7.5-1.4.1-.2.7-2.2 1.7-6.2.5-1.9-12.4 4.6.1-2.3.2-.3 4.8-12.9h-.1l.2-.7 4.6-13.9.7.4 2.1 1.7 10.6-4.8.9 6.7 9-3.4 3.6 5.6 3.7-5.6 9 3.3.9-6.6 10.6 4.7 2.1-1.7.6-.4L232 407l-.1.1 4.8 12.9.1.3.2 2.2-12.4-4.5.5 1.9 1.7 6.1.7 2.3v.1l7.6 1.5-7.9 13.5-.8 19-2.8 16-16.2-22.9-.8.2.1-.4h-6l-.5.1h-6.4l.1.3-.8-.1-16.2 22.8m129.3-88.1l.4.1 11.4 3.9-.1.9-8.8-.1-.1-.4v.4l-5.2.1"/><path class="st0" d="M259.4 411.1l-4.2.2-3.9-6.2v-.2l1.3-9 .7 1.3 11.5 11 5.8 1.5h.8l11.4-8.3 1.5-8.7.2-.1 5.2-2.1.1.6 1.2 5.9-2.9 9.6-7.6 7.1-2 1.5-12.3 2.3"/><path class="st11" d="M263.2 408.9l4-1.9 2.5-3v-.1l4.4-8.9.2-.1 3.9-2.2.3 4.7.8.3 1.2.6 1.5.7-11.4 11.8"/><path class="st10" d="M252.6 397.8l-.1-.4.1-.2 3.3-4.7.3-.4.4.3 3.3 2.4 10.9 9.3-.3.4v.1l-2.7 3.2-3.2 1.4"/><path class="st1" d="M307.9 394.3l10 .1 2.7.6 1.1.3-1.8 1.2h-.1l-4.8 4-.3.5"/><path class="st0" d="M319.4 416.3l-11.9-6.2-10.3 9.5-.2.3-.8.8-.3-1.3h.1l-1.9-7.3-.1.1-.3-1 .1-.3 10.4-16.6 4.9-.1.2.1 5.8 6-.8 2.4v.1l13.5 1.2 3 9.5-5.5 13.6"/><path class="st5" d="M313.1 403.5l.1-.6.9-2.8.1-.1.1-.1 5.5-4.7.4.4 8.4 9.2"/><path class="st7" d="M263.2 396.9l4-1.5 6.2 1.8-4.6 4.4"/><path class="st3" d="M223 477.5l-.1-.2v-.3l2.5-14.8.9-19.2 7.4-12.7-6.9-1.3-.2-.3-.7-2.5-1.7-6.2-1-3.6 12.8 4.7-.1-.8v-.1L239 404l5-3.9.9-.7 5.4-3.8 1.4-.9-7.8 20.4-.6 1.5-3.4 5.5-4.3 8.2 4.6 9.9-6 1.5 6.4 10 4.7-7.2.1-.4 1.7-6.5 1.5-5.4-.7-2.1-3.8-.1 2.4-7.7 9.5 3 5.2-3.5 13.3-.8 1.7 10-3.3-.5.4.4-2-.3-10.4 2.6-2.7 7.5-2.8 10.4-.7-.8v-.1l-5.4-7.3 2.7 11.4-5.6 13.8-6-13.9-9.8 15.1 7.6 6.6-7.9 6"/><path class="st1" d="M235.8 420.5l-5.1-14.1.6-.1 8.6-2.7-3.5 18.4"/><path class="st5" d="M268.6 484.9l-5.7-9.1 6.7-.4v-.4h.1l-.5-3.4 12.8-9.5v-.4l.1-.1 1.6-10 9-.1v-.5h.2l1.2-14.4-6.9 1.5-.1-5.8-9.4 4.3-6.1-6-1.3-1.4 5.9.8.4.1v.2l8 .6 6.9-1.3 14.1 2.2.2-.2.2.3 7.8 4.1v-.3l-2.7-13.6-14.2-1.3-.6-.9-.4-.4.4-.3 11-10.2 12.8 6.6 5.1 9.4 4.9-12.3.4.1 1 .4 3.8 1.1h.4l.6.1 7.9-5.6 1-.8-3.3 14.6 5.3 3.6.6-4.6 1 .1-.6 18.6-5.7-7.1-.3 11.7-3.8-2.6-1.7 13.5v.3l3.8 8.8-9.3 11.1-4.5-21.1.5-3.8 1.2-9.8-8.6 16.9-1.8-4.5-8.4 10.1-2.4.6-5-5.2-.7-.7-13.7 8.8-5.4 3.4-.8 8.2-9.4 9.5"/><path class="st1" d="M283.8 419l10.1-8.1v-.1l.6-.6 2.7 9.8-.7.2"/><path class="st11" d="M254 410.6l5.9-.3 7.8 7.2h-1.5"/><path class="st2" d="M291.5 430.5l-6.9 1.3-8.7-.6-.2-.9.7-.2 8-4.9-2.6-5.7 3-1.3 11.9 1.1.8 1 4.2 5.9 4.1 5.4 1 1.3"/><path class="st1" d="M305.4 432.5l-.4-.4-4.1-5.4-4.8-6.8 15.7 1.4 3 15 .2 1.3"/><path class="st4" d="M275.3 430.5l-1.7-9.6 2.5-.2 6.6-1.5 2.8 6.2-9 5.5-.6.2-.5.2"/><path class="st6" d="M247.1 437.9l-5.6-15.6v-1.8l5.9 2.1-.2.4-1.9 6.1 3.3.1.9 3-1.8 6.9m-7.6 13.5l-7.3-11.4 6.2-1.7-4.3-9.3 4.4-8.4.8-1.5 1.6 21.2 5.2 2.6-6.1 9.2"/><path class="st0" d="M269.1 472l-5.4-6.4v.1l-.7-.7.1-.3-4.1-5.4 4.6-12.7-6.2-6 2.9-8.1 11.2-2.9.2.2 6 6.2 10.1-4.7.1 6.2 7-1.5-1.3 15.5-.1.9-9.1.1-1.5 9.5-.1.6-12.8 9.6-.8.5m70.3-7.7l-3.8-8.8v-.3l1.9-15 3.7 2.6.4-12.5 6.4 8 .5.3-2.2 13.5-6.5 13.4"/><path class="st2" d="M318.3 452.3l1.6 3.9 8.7-17.3 1 .2-1.5 12.1-.6 4.2-8.7 6.3-10.7 2.8"/><path class="st5" d="M253.9 453.5l.9-3.6 2.8-10.3 7.1 6.7-5 13.9"/><path class="st4" d="M257.8 491l-4.3 8.9-2.6-11-.1.1v-.1l-7.1 5-.9-4.2L222 492l.9-14.9h.3l.4-.4 6.7 4 6.4-5-7.3-6.3.2-.4 11-16.8 5.8 13.3 4.6-11.4-3-13.1-.1-.2.9-.3 6.9 9.4-.9 3.3 3.8 13.4-6.4 11.3 6.8 9.1 1.5 14.9-2 2.2"/><path class="st1" d="M307.2 487.8l-11.4 5.2 11.1-18.2 2.8-3.3 4.8-5.7 2.9-3.5h-.1l1.1-1.4 9.1-6.5 4.5 20.9-14.7 16.6-11.1 4.4"/><path class="st2" d="M205.3 465.4l-.9-2.5 2.6-8 .3-1.1 16.4 23.1.2.2-1 14.6-.1.2-.8 1"/><path class="st1" d="M178.3 492.5l-.1-.1h-.1l-.2-.3.2-.3 16.3-26.9.7-2-2.4-7.7-.3-.9H208l-.3.8-2.3 7.7.7 2.1 16.5 27.1-.2.3-.1.1v.1h-.2l-12.4 4.2-8.5-.6h-.5v.1h-1.4l-8.6.6m92.8-16.9l-2.7-.5.8-8.8 5.8-3.6 14.4-9.2 1.2 1.2.8 16-13-4.7 6.6 7.8-12.6 1.9-.2.1"/><path class="st4" d="M291.2 504.1l-11.2-2.2 7.6-13.7-5.1-7.3.7-.8 1.2-1.1 11.3-1.7-6.6-7.7-1.1-1.4 14.8 5.4-.7-15.8 5.5 5.7 1.8-.3 9.1-2.4 1.5-.5-4.8 6-4.8 5.8-2.8 3.2-10.2 16.8-.1.1-.2.3-.9 1.3-4.5 10v.4"/><path class="st1" d="M260.7 481l1-6.9-.1-2.4 1.5-7 .1-.2.2-.8 6.6 7.8.7 4.7-6.4.4 5.4 8.6-11.7 2.6"/><path class="st1" d="M258.3 487l.5-1.3.5 1.9-.5.1-.8.3"/><path class="st2" d="M259.6 501.8l-1.3-14.3-7.1-9.4 6.5-11.5-3.8-13.1.8-.5 5.1 5.9 4.3 5.7-.2.4-1.3 6.9.1 2.3-1.1 7.1-2.1 5.3 9.6-2.1.2.1 2.9 2.8 8.8-9 .4.1 4 .7-1.5 1.6-.2.3 4.9 7.2-.1.3-7.5 13.6-.4-.1h-.1l-.1-.1-.2-.1-8.6-11.4-5.8 5.9-6.1 6.4"/><path class="st5" d="M305.7 495.8L295 494l1.3-2 .3-.3 11.7-5.3v.8l-1 8.4-.1.5-2 .2"/><path class="st3" d="M158.5 518.5l-.4-1.4-.6-1.4-.3-.7-.6-1.5-.6-1.5-.3-.9 4.3-7-7.1-7-4.8 1.9-.7 4.5-12.4 4.6h-.2l2.7 4.5-10.4-2.2-6.3 1.8-.1.1-.4.2-.2-.1-7.4-3.6-4.7 10-.6 1.5-4.8-8.3 1.2.2-.1-.1 1.3.2.1.1 3.5 1.6.2-7.6-.1-3.1 10.9-2.1.3-.1 1.3-.5-.1.2 14.1-5.2 5.5 5.8.5.5.6-12.6.9-.2.1.3 3.9 7.8 2.3-9.8.7.5 6.5 4.5.7-3.7h.5l20.8 2.4.6.7h.1l.1.1 9.3 7.8 11.8 1.9 12.1-2 9.3-7.8.2-.1.5-.7 21.3-2.3.1.4.7 3.3 6.6-4.6.6-.4 2.3 9.8 3.9-7.9.1-.2.9.1.6 12.6.4-.5 5.6-5.8 14.1 5.2-.1-.2 1.5.6 11 2.2-.1 3.1.2 7.5 3.5-1.6 1.3-.3-.1.2 1.3-.3-4.8 8.4-.6-1.6-4.7-9.9-7.6 3.7-.4-.2-.1-.2-6.3-1.8-10.4 2.2 2.7-4.4-.2-.1-12.4-4.5-.7-4.5-4.8-2-7.1 7 4.3 7-.3.9-.6 1.5-.6 1.4-.3.7-.6 1.5-.5 1.4-.6 5.5-2.5-2.7-2.4-6.1 1.3-5.1-7.6-4.6-2.3-.2-10.7 2-1.4.2-.4-1.8-.2.2-.1-.1-5.2 7.5 6.3 6.8-4.9 1.3-2.1-2.2-.5 4-6.6-1.2-2.3 2v-.9l-1.2-1.1-6.6 1.3-.5-4-2.2 2.1-4.9-1.3 6.4-6.7-5.3-7.5v.1l-.2-.3-.4 1.8-1.4-.1v-.1.1l-10.7-2-2.4.2-7.6 4.5 1.4 5.1-2.4 6.2-2.6 2.7"/><path class="st4" d="M265.2 496.5l-.5-.3.4-.5 6.5-6.6.3.3.1.1 8.8 11.7 1 1.4"/><path class="st2" d="M295.3 512.5l11.2-17.3 10.3-4.1.5.8-20 21.1h-.2l-2.6.5"/><path class="st1" d="M290.7 506.5l.1-2.8.1-.1 4.6-10.5 12.3 2.2-.8.7-11.1 17.2-4.9 2.3"/><path class="st6" d="M262.7 568.3l6.9-3.1-4.7-11.3h-.1l-.2-.5-.2-.4.4-.2 6.5-3.1.5-.3.2-.1.2-.1.2.1 9.9-3.1h-.1l-7.4-2.9 12-13.4-8.8.3-1.5-5.5-.2.1v-.2l-3.6 1.7-.1-10.1-.2.1v-.1l-7 2.2-7 5.8.5-9.5-2.2-.8-2 .1-.5-.1-3.6 8.3-1.3-.9-.5-.4-1.1-.7-3.8-9-4.5-7.2.1-.3 7.9-7.8 5.8 2.4.7 4.5 13 4.7-2.3 3.7 8.8-1.8 7.1 2 .2.8 3.4 6.2 7.9-.1-.1-.1 1.1-.3.4 1.1 3.3 8.9-2.7 13.3-8.3 15.7-1.1-9.2-10.3 8.9 1.5 12.2-10.3 7.4"/><path class="st4" d="M236.5 519.3l-12.6-1.2-8.3 2.1-.5.1-6.5-6.9 6.9-9.9.3 1.3.5 2 1.2 6.9 12.6-1.5-1.4-2-11.8-2.9v-.9l10.8-2 2.6.2 8.4 5-1.4 5.6 2.1 5.5-.7.5"/><path class="st4" d="M236.1 519l.1-.4.9.3-.3.9"/><path class="st2" d="M216.7 514.2l-1.3-7.6 1.6-.1 12.3 2.9 1.7 2.5.7 1-14.9 1.9"/><path class="st7" d="M279.4 512l.5-.3 8.2-4 4.9 10.7.4.9-9.9.1"/><path class="st3" d="M271.8 550.2l-4.6-4.9-2.1-8.6 14.9-.2-1.8-4.5h-.2l-8.8.3-1.2.1h-.2l-1.6.3-11.9 1.3h-.4l-13.9 4.2-2.6.7 10.4-13.8-3.6-8.4 1.5 1.1 2.6 1.7 1 .7.5.3.5.3 3.4-7.8h3.1l3.1 1-.5 8.4 5.8-4.8 7.6-2.3.7-.2.2 9.9 2.9-1.4.5-.2 1.6 6 9.1-.4 1.1-.1-12.5 14.1 7.5 2.8 1.2.5-12.9 4.1"/><path class="st6" d="M230.3 522.3l-6.7-4.3.3-.8 13.4 1.2-.2.8-1.5 4.2M224 540.3l13.2-9 3.4 1.5 1.8-10.1 6.7 2.3-10.5 13.5-4.8 2.5"/><path class="st4" d="M258.9 543.2l-.1.1-.3-.6-.2-.3.3-.3.3-.2.1-.3.5-.4v.1l7.6-9.2.4-.6h.2l1.4-.1 9.5-.3.1.3 2.5 6-15.1.2 1.7 7.2 5 5.2-.5.4-7.1 3.4-.7.4"/><path class="st1" d="M259 542l-5.3-8.3-.6-.7h.9l12.2-1.4 2.8-.4-9.6 11.6"/><path class="st0" d="M221.5 553.2l.1.9m19.9 20.4l-9.1-2.2-8.3 2.4-.4.1-.4.1-.7-.9h.2l-2.3-3h-.1l-7.4-9v-1.9l.9-.6 7.3-5.6-4.6-2.6-.4-.2-.4-.2.2-.5.5-.8 1.1-.5 1.3-.7 14.6-8.3 4.6-2.4 1.8-.4 9.4 2.4 1.9-1.9 2.7-5.2.5.6 5.4 8.5.2.4-.9.7-4.2 4.7 3.3 11.1-8.7-2.5h-.2v9.2l-4.6 9.7"/><path class="st5" d="M238.2 537.8l16.7-5.1-2.9 5.7-2.4 2.4"/><path class="st4" d="M216.4 549.8l3-8.9 5.9-1.4 9.4.7-.7.7-14.6 8.3-3.2 1.6"/><path class="st1" d="M257.2 558l-3.1-10.9 4.5-5.1.5-.4 6.2 12-.4.2-2.7 1.8-3.8 2.7-.1.1-.8.8"/><path class="st7" d="M273.4 556.5l11.9-10.3.2.8.9 8.3.1.2v1l-8.6.9-.7 9.7-2.1 2.8"/><path class="st2" d="M216.4 550.2l.3.1 6.4 3.7-1.5.1-9.3.8"/><path class="st3" d="M260.6 577.7h.1l-1.2-7.2.3-4.7.2-.2.4-1.2-3-6.4 4.3-3.1 1.7-1.1 1.9-1.1.2.5 5.3 12.6-6.9 3.1 2.2 6.5.3.6-5.5 2.8"/><path class="st5" d="M213.1 560.5l-1.1-5.6 1.2-1 8.4-.7h.2l1.2.5-9.7 7.6m30.4 13.4l.4-.4 4.3-9.2.1-10.1.6.1 8.5 2.5h.3l.5.8-5.2 5 6.9.4v-.1l1.5.1-.8 2.3-.1.2-.1-.1-3.6 5.4-7.3 2-4.2 7.1"/><path class="st1" d="M206.4 559l6.3-4.8 1.2 6.2.1 1.6-.3 6.8"/><path class="st6" d="M277.1 556.7l10.1-1-10.9 12.8"/><path class="st4" d="M251 564l1-1 5.4-5 .7-.8 3.2 6.9.3.7m-58.2 9.2l-.7-1.8-1.5-4.1h-.7l6.6-10 6.7 9.1v1.4l-.3.2-8 3.9.2 2.1"/><path class="st5" d="M213 569.2h-.1l-.1-.7v-1l.3-6.8 8.1 9.9-7.9 4.3"/><path class="st2" d="M253.3 576.8l3-5.9 3.6-5.3.9.3-.1.2-.3 4.4 1.3 7.9-.4.1-9.3 2"/><path class="st1" d="M204.8 574.5l-.3-2.1.3-.3 8.4-4.1.6-.3.3 5.7 6.1-3.4.5-.3 3.7 4.8-.9.3-9.5 2.7m.4 9.7l-1.1.7-2.2 1.3-.6.3-.1.1-.1.1h-.2l-9.5.8-.3-.9 9-5.6 29.2-4.1 4.7 2.5 2-2.7-.1-.2.1-.2 3.9-6.4 8.5-2.5-3.4 6.8-1.2 2.8v.3l-.3.2-1.5.6-2.1 3.4-3.2 4-3.9 1.1-2.3.6-2.9.4 1.6-4.7-8.8 3.4-4.1-3.1-6.2 1.9-.8.9-.4.5-2.6 3.7"/><path class="st1" d="M229.4 589.2l.6-.7-.5.8"/><path class="st5" d="M223.1 574l9.2-2.7h.2l9.2 2.2v.9h-.1l-10.6 4.2"/><path class="st1" d="M231.1 578.7h-.2l-1.2-.4 11.7-4.7 4 .6-1.1 1.1-6 4.6"/><path class="st2" d="M199.8 590.5l-.1-.1-8.9-5.6-28.6-4-5.1 2.8-2.8-3.8 1.8-5.7 6.1 4.8 7-1.2 6.8-3.9.2-.2.2.1.6.2h.2l9.6 2.8 1.4 1.8.6.8.9 1 .2.2 1.8 1.7h4.9l.1.4 1.3 3.8h4.4l1.5-4.2h4.9l1.8-1.7.2-.2.9-1.1.6-.8 1.4-1.8 9.6-2.8h.2l.8-.3.2.2 6.7 4h.1l7 1.2 6.1-4.8 1.8 5.6-2.8 3.9-5.1-2.9-28.6 4.1-9 5.6-.5.1"/><path class="st3" d="M197.5 587.5l-.2-.4-1.3-3.8h-4.7l-2.1-2-.2-.3-.9-1-.7-.8-1.7-2.2 9.5-3.1 1.7-.7 3.3 6 3.4-6 1.7.6 9.5 3.1-1.8 2.1-.6.8-.9 1.1-.2.2-2.1 2h-4.7l-1.4 4.2h-2.4l-.5.1"/><path class="st0" d="M236.8 599.2l-.5-1 6.6-4.5 2.1-4.9-.1.1.4-.9.1-.2 3.9-4.9.6 9.6-2-.9 2.6 4.8-6.2-.8 2.3 3.3-4.4-1.3 1 3-2.5-.8-.4 1.7"/><path class="st5" d="M181.6 607.3l-2.2 3-.3-3.9-2.3 3.7-.1-4.6-1.4 1.6-3.4-.1.1-1.5-2.6 3.7.5-5.9-3.5 3.2.8-4.9-3.7 3.4.7-3.9-2.8 1.6 1.5-4 .1-.2-6.2-4.2-2.9-6.9 1.1.3 3.8 1 2.2.6 1.3.2-1.8-5.1 11.2 4.2-3.6 3 5.8 1.2-.1 4.5v.1h5l4.5 3 1.4-4.5 6.9 4.1v-.2l-.3-6.1-1.6-5 10.2.8h.6l10.3-.9-1.6 5.1-.3 6.1v.1l6.9-4.1 1.3 4.5 4.5-2.9h5.1l-.1-4.6 5.8-1.2-.1-.1-3.5-2.8.7-.4 10.5-3.9-1.8 5.1 1.3-.2 2.2-.6 3.9-1.1.9-.2-.3.8-2.5 6.1-6.2 4.1.1.2 1.5 4.1-2.9-1.6.8 3.9-3.7-3.5.8 4.9-3.5-3.2.5 5.9-2.6-3.6.1 1.4-3.4.1-1.4-1.5-.1 4.6-2.4-3.7-.2 3.9-2.2-3.1-.5 5.3-2.8-6-8.9-4.3-.1 4.9-.9.1-.4-.8-1.1 5.2-1.8-3.2-2-1.3h-.2l-2.1 1.3-1.8 3.2-1.1-5.2-.4.9-.9-.2-.1-4.8-8.9 4.2-2.8 6.1"/><path class="st0" d="M215.2 597.3l-7.3 4.3v-.9l.4-7.1 1.5-4.7.2-.2.7-.3 2.1-1.3 2.2-1.4 1 5.2 1.4-1.8.4-.6 1-1.2 6.9-2.1 4.3 3.3 4.5 3.6-1 .2-5.9 1.2.1 4.8h-5.8l-5.3 3.5"/><path class="st1" d="M212.3 608.3l-.6 4.9-3.1-6.4-3 5.3V607l.2-6.1.7.2 10 4.8-2.9 7.6"/><path class="st4" d="M163.5 390.4l-1.6-9.3-6.1-7.4-1.2.3-.2.1-2.1.9-10.9 4.8-2.4-10-3.9-4.3-.1-.1-8.3 7-.9-9.3 8.9.9h.2l.2-.2-.1-.1.6-.7.2.1 4.1-5.1v-.2l11.8-10.4.4.2 8.8 4.4-10.3 4 2.3 9.4 3.1 6.4 8.6-2.1 4.8 2.9.2-.2.1.1 5-5.3 8.7 3.4.1-.2.3.1 3.7-7.4 7.9 2.7v-.2l.3.1-3-13.9-.1-.3-.1-.3v-.3l7.4-13.1V336l8.4 14.8.1.1v.2l-.1.4-.2.6-2.9 13.7.3-.1v.2l7.9-2.7 3.7 7.4.3-.1.1.2 8.7-3.4 5 5.3.1-.1.2.2 4.8-2.9 8.6 2.1 3.1-6.5 2.3-9.3-10.3-4 8.9-4.5.3-.1 11.8 10.4v.2l4.1 5.1.2-.2.6.7-.1.1.2.2h.2l8.9-.9-.9 9.3-8.3-7-.1.1-3.9 4.3-2.4 10-10.9-4.8-2.1-.9h-.2l-1.2-.3-6.1 7.4-1.6 9.3-10.3 1.6 4-11-9.3-5.7-.1.2-.2-.2-2.7 3.8-5.2-1.5-4.1-2.7-7.1-8.8-1.7-2-1.7 2-7.1 8.8-4.1 2.7-5.2 1.5-2.7-3.8-.2.2-.1-.2-9.3 5.7 4 11-10.8-1.7zm-17.1-22.9l2.8-10.4-8.8 3 .4 8.6 5.1 6.2.2-6.2m108.2-.1l.3 6.2 5-6.2.4-8.6-8.8-3 2.8 10.4"/></svg>