<?xml version="1.0" encoding="utf-8"?>
<!-- Generator: Adobe Illustrator 18.0.0, SVG Export Plug-In . SVG Version: 6.00 Build 0)  -->
<!DOCTYPE svg PUBLIC "-//W3C//DTD SVG 1.1//EN" "http://www.w3.org/Graphics/SVG/1.1/DTD/svg11.dtd">
<svg version="1.1" id="Layer_2" xmlns="http://www.w3.org/2000/svg" xmlns:xlink="http://www.w3.org/1999/xlink" x="0px" y="0px"
	 width="347.8px" height="82.3px" viewBox="0 0 347.8 82.3" enable-background="new 0 0 347.8 82.3" xml:space="preserve">
<g>
	<path fill="none" d="M202.7,28.5c-3.8,0-7.1,1.4-9.9,4.1c-1.3,1.4-2.4,2.9-3,4.5c-0.7,1.6-1,3.4-1,5.3c0,3.7,1.3,7,4,9.8
		c2.7,2.7,6,4,9.9,4c3.8,0,7.1-1.3,9.7-4c2.7-2.7,4.1-6,4.1-9.8c0-3.8-1.4-7.1-4.1-9.8C209.8,29.9,206.5,28.5,202.7,28.5z"/>
	<path fill="none" d="M158.1,28.5c-3.8,0-7.1,1.4-9.9,4.1c-1.3,1.4-2.4,2.9-3,4.5c-0.7,1.6-1,3.4-1,5.3c0,3.7,1.3,7,4,9.8
		c2.7,2.7,6,4,9.9,4c3.8,0,7.1-1.3,9.7-4c2.7-2.7,4.1-6,4.1-9.8c0-3.8-1.4-7.1-4.1-9.8C165.1,29.9,161.9,28.5,158.1,28.5z"/>
	<path fill="#212121" d="M33.7,15.9c5.6,0,10.3,1.9,14.2,5.8l4.5-4.4C47.3,12.2,41,9.6,33.7,9.6c-7.3,0-13.5,2.6-18.7,7.8
		c-5.1,5.2-7.7,11.4-7.7,18.6c0,7.2,2.6,13.4,7.7,18.7c5.2,5.2,11.5,7.8,18.7,7.8c7.3,0,13.5-2.6,18.7-7.8l-4.5-4.3
		c-3.9,3.8-8.7,5.8-14.2,5.8c-5.5,0-10.2-2-14.2-5.9c-4-3.9-6-8.7-6-14.3c0-5.6,2-10.3,6-14.3C23.4,17.9,28.2,15.9,33.7,15.9z"/>
	<path fill="#212121" d="M127.3,46.1c0,2.8-1,5.2-3,7.1c-2,2-4.3,3-7.1,3c-2.7,0-5.1-1-7.1-3c-2-1.9-3-4.3-3-7.1V23.5h-6.3v22.7
		c0,4.4,1.4,8.2,4.2,11.4c3,3.4,6.6,5,10.9,5c4.6,0,8.3-1.8,11.3-5.5v4.2h6.3V23.5h-6.3V46.1z"/>
	<path fill="#212121" d="M171.9,30.3c-1.7-2.4-3.9-4.4-6.6-5.9c-2.7-1.4-5.5-2.2-8.6-2.2c-5.3,0-9.8,2-13.5,6
		c-3.6,4-5.4,8.7-5.4,14.1c0,5.5,1.8,10.2,5.3,14c3.7,4.1,8.3,6.1,13.5,6.1c3,0,5.8-0.7,8.6-2.2c2.7-1.5,4.9-3.4,6.6-5.8
		c0,2-0.3,3.9-1,5.6c-0.6,1.7-1.6,3.3-2.9,4.6c-2.6,2.7-5.9,4.1-9.9,4.1c-4.3,0-7.9-1.7-10.7-5l-4.8,4c4.1,4.9,9.3,7.3,15.6,7.3
		c5.4,0,10.2-2,14.3-6c3.9-3.9,5.9-8.7,5.9-14.2V23.5h-6.3V30.3z M167.8,52.2c-2.6,2.7-5.9,4-9.7,4c-3.9,0-7.2-1.3-9.9-4
		c-2.7-2.8-4-6-4-9.8c0-2,0.3-3.7,1-5.3c0.7-1.6,1.7-3.1,3-4.5c2.7-2.7,6-4.1,9.9-4.1c3.8,0,7,1.4,9.7,4.1c2.7,2.7,4.1,6,4.1,9.8
		C171.9,46.2,170.6,49.5,167.8,52.2z"/>
	<path fill="#212121" d="M216.6,30.3c-3.7-5.4-8.8-8.1-15.1-8.1c-5.4,0-9.9,2-13.5,6c-3.6,4-5.4,8.7-5.4,14.1c0,5.5,1.8,10.2,5.3,14
		c3.6,4.1,8.2,6.1,13.5,6.1c6.3,0,11.3-2.7,15.1-8.1v6.8h6.3V23.5h-6.3V30.3z M212.5,52.2c-2.6,2.7-5.9,4-9.7,4
		c-3.9,0-7.2-1.3-9.9-4c-2.7-2.8-4-6-4-9.8c0-2,0.3-3.7,1-5.3c0.7-1.6,1.7-3.1,3-4.5c2.7-2.7,6-4.1,9.9-4.1c3.8,0,7,1.4,9.7,4.1
		c2.7,2.7,4.1,6,4.1,9.8C216.6,46.2,215.2,49.5,212.5,52.2z"/>
	<path fill="#212121" d="M246.4,22.2c-4.7,0-8.4,1.8-11.4,5.5v-4.3h-6.3v37.8h6.3V38.6c0-2.8,1-5.2,3-7.1c2-2,4.3-3,7.1-3
		c0.7,0,1.3,0.1,1.9,0.2c0.6,0.1,1.2,0.3,1.8,0.5v-6.8c-0.4-0.1-0.8-0.1-1.2-0.1C247.2,22.2,246.8,22.2,246.4,22.2z"/>
	<path fill="#C8202F" d="M280.4,15.9c5.6,0,10.3,1.9,14.2,5.8l4.5-4.4c-5.1-5.1-11.4-7.7-18.7-7.7c-7.3,0-13.5,2.6-18.7,7.8
		c-5.1,5.2-7.7,11.4-7.7,18.6c0,7.2,2.6,13.4,7.7,18.7c5.2,5.2,11.5,7.8,18.7,7.8c7.3,0,13.5-2.6,18.7-7.8l-4.5-4.3
		c-3.9,3.8-8.7,5.8-14.2,5.8s-10.2-2-14.2-5.9c-4-3.9-6-8.7-6-14.3c0-5.6,2-10.3,6-14.3C270.2,17.9,274.9,15.9,280.4,15.9z"/>
	<path fill="#C8202F" d="M335.6,35.5l-15.8-3.2c-5.7-1.3-8.5-4-8.5-7.9c0-2.8,1.5-5,4.4-6.6c1.2-0.6,2.5-1,3.8-1.3
		c1.3-0.3,2.8-0.5,4.4-0.5c3.1,0,5.8,0.6,8.2,1.9c2.9,1.5,4.4,3.7,4.4,6.6h6.3c0-4.6-2.1-8.2-6.2-11c-3.7-2.4-7.9-3.7-12.7-3.7
		c-4.8,0-9,1.2-12.7,3.7c-4.2,2.8-6.3,6.5-6.3,11c0,6.1,2.9,10.3,8.6,12.5c2.6,0.5,5.2,1.1,7.8,1.6c2.6,0.5,5.3,1.1,7.8,1.6
		c5.7,1.3,8.5,3.9,8.5,7.7c0,3.1-1.6,5.4-4.9,6.8c-2.4,1.2-5.4,1.7-8.9,1.7c-3.5,0-6.4-0.6-8.9-1.7c-3.3-1.5-5-3.8-5-6.8h-6.3
		c0,4.8,2.3,8.5,6.8,11.3c3.9,2.4,8.4,3.6,13.4,3.6c5,0,9.4-1.2,13.3-3.5c4.6-2.9,6.8-6.7,6.8-11.4
		C344.1,41.7,341.2,37.6,335.6,35.5z"/>
	<path fill="#222222" d="M82.8,23.3c0,2.3,0,4.6,0,6.9c2.5,1.4,4.7,3.6,6,6.2c1.4,2.8,1.7,6.2,1,9.2c-0.8,3.4-3,6.3-5.9,8.3
		c-3.2,2.2-7.2,2.7-10.9,1.9c-5.4-1.2-9.7-6-10.4-11.4c-0.4-3.1,0.1-6.3,1.8-9c1.4-2.3,3.4-4.2,5.8-5.4c0-2.3,0-4.6,0-6.8
		c-4.6,1.4-8.6,4.7-11.1,8.8c-2.7,4.4-3.4,9.9-2.4,14.9c0.9,4.2,3.4,8,6.7,10.8c3.4,3,7.8,4.7,12.3,4.8h1.2
		c9.1-0.1,17.6-7.1,19.3-16c0.9-4.7,0.3-9.9-2.2-14.1C91.4,28.2,87.4,24.8,82.8,23.3z"/>
	<path fill="#C8202F" d="M79.6,17.8c-2.1,0-4.2,0-6.3,0c0,8.2,0,16.4,0,24.6c2.1,0,4.2,0,6.3,0C79.6,34.3,79.6,26.1,79.6,17.8z"/>
</g>
</svg>
