<?xml version="1.0" encoding="UTF-8" ?>
<!DOCTYPE svg PUBLIC "-//W3C//DTD SVG 1.1//EN" "http://www.w3.org/Graphics/SVG/1.1/DTD/svg11.dtd">
<svg width="521pt" height="461pt" viewBox="0 0 521 461" version="1.1" xmlns="http://www.w3.org/2000/svg">
<g id="#e63e28ff">
<path fill="#e63e28" opacity="1.00" d=" M 247.52 8.32 C 251.33 5.66 255.32 3.26 259.02 0.43 C 260.62 0.63 262.44 0.15 263.88 1.06 C 268.69 4.01 273.16 7.50 278.04 10.35 C 285.71 12.05 292.05 6.61 299.05 4.66 C 303.48 3.28 305.85 8.17 308.73 10.54 C 320.15 10.45 331.56 10.53 342.98 10.49 C 346.30 10.08 348.63 13.08 350.27 15.52 C 350.85 21.28 350.60 27.16 351.63 32.89 C 352.06 33.84 352.69 34.68 353.24 35.57 C 358.16 35.58 363.18 35.01 368.02 36.20 C 370.66 36.80 373.49 36.08 376.08 36.95 C 378.14 39.01 378.51 42.19 379.63 44.81 C 381.43 49.22 382.88 53.75 384.45 58.25 C 391.84 60.32 399.46 61.75 406.70 64.33 C 409.13 71.64 408.43 79.68 410.87 86.98 C 417.10 90.59 424.01 92.97 430.09 96.84 C 432.83 98.93 430.46 102.19 430.54 104.92 C 430.55 110.18 430.63 115.45 429.45 120.62 C 435.83 124.93 441.93 129.71 447.59 134.92 C 445.92 142.39 443.53 149.73 441.32 157.07 C 446.06 161.93 450.03 167.47 454.56 172.52 C 455.80 173.64 455.79 175.45 455.02 176.84 C 452.17 183.06 448.84 189.02 445.41 194.94 C 448.29 201.55 452.65 207.39 455.37 214.08 C 456.13 215.83 454.73 217.33 453.78 218.64 C 449.67 223.65 445.39 228.51 441.40 233.62 C 443.79 239.96 445.17 246.63 447.30 253.07 C 448.09 254.80 446.93 256.55 445.55 257.55 C 440.12 261.67 434.63 265.74 429.53 270.26 C 431.37 276.73 429.58 283.55 431.40 290.01 C 431.87 292.10 429.76 293.60 428.14 294.41 C 422.32 297.33 416.48 300.22 410.65 303.13 C 409.25 310.03 408.97 317.11 407.32 323.95 C 407.17 326.19 404.67 326.62 402.97 327.26 C 396.93 328.67 391.03 330.58 384.99 331.96 C 381.54 338.56 379.76 345.91 376.77 352.73 C 374.92 353.49 373.10 354.62 371.02 354.50 C 365.10 354.57 359.17 354.38 353.25 354.61 C 350.97 358.54 348.35 362.25 346.09 366.19 C 344.42 368.55 343.20 371.36 340.87 373.16 C 338.22 374.03 335.41 373.31 332.77 372.79 C 327.80 371.97 322.83 371.09 317.86 370.29 C 312.37 375.51 307.37 381.21 302.05 386.56 C 294.48 384.49 287.59 380.44 280.01 378.46 C 274.63 381.82 269.37 385.41 264.19 389.08 C 263.04 390.02 261.60 390.37 260.21 390.76 C 254.35 386.40 248.34 382.17 242.04 378.47 C 234.79 380.37 228.06 383.93 221.05 386.57 C 214.78 381.89 210.02 375.53 204.07 370.48 C 196.99 370.77 190.17 373.61 183.07 373.52 C 179.95 373.73 178.87 370.38 177.51 368.24 C 174.50 363.69 171.91 358.86 168.67 354.46 C 162.77 354.53 156.86 354.52 150.96 354.50 C 148.92 354.63 147.04 353.71 145.40 352.61 C 142.35 345.81 140.40 338.58 137.49 331.72 C 131.28 330.44 125.16 328.73 118.99 327.25 C 117.46 326.64 115.03 326.26 114.76 324.29 C 113.97 318.23 112.88 312.21 112.33 306.13 C 112.17 305.14 111.86 304.21 111.37 303.34 C 105.12 299.45 97.88 297.14 91.83 292.97 C 91.15 288.68 91.54 284.28 91.55 279.95 C 92.07 276.60 92.75 273.27 92.56 269.86 C 87.38 266.03 82.57 261.72 77.31 257.99 C 76.27 257.10 74.84 256.41 74.49 254.97 C 76.40 247.62 79.16 240.40 80.50 232.97 C 76.24 228.06 72.20 222.97 67.93 218.07 C 66.82 217.09 66.63 215.61 66.29 214.26 C 70.56 208.34 73.02 201.36 76.55 195.00 C 74.06 190.28 72.00 185.31 69.05 180.84 C 67.73 178.77 66.79 176.48 66.20 174.10 C 71.20 168.58 75.73 162.65 80.64 157.04 C 78.68 149.62 76.28 142.31 74.48 134.84 C 80.22 129.88 86.23 125.14 92.40 120.69 C 92.59 117.76 92.60 114.79 91.80 111.94 C 91.11 107.18 91.69 102.35 91.44 97.57 C 97.43 93.00 104.76 90.78 111.42 87.40 C 113.35 79.84 113.24 71.79 115.34 64.33 C 122.49 61.62 130.15 60.51 137.48 58.34 C 140.50 51.49 142.56 44.26 145.39 37.33 C 147.92 35.74 151.17 36.96 153.97 36.21 C 159.05 34.97 164.30 35.63 169.47 35.54 C 169.84 29.44 169.57 23.30 170.14 17.23 C 170.30 13.38 173.54 10.55 177.17 9.91 C 182.36 9.01 187.75 9.40 192.92 10.30 C 199.80 10.52 206.69 10.32 213.57 10.37 C 216.12 8.13 218.15 3.91 222.11 4.49 C 229.19 6.05 235.44 11.24 243.01 10.39 C 244.77 10.48 246.10 9.17 247.52 8.32 M 250.96 12.56 C 257.86 12.24 264.74 12.96 271.64 12.69 C 268.19 10.29 264.65 8.04 261.21 5.63 C 257.86 8.03 254.41 10.30 250.96 12.56 M 221.31 9.62 C 220.49 10.60 219.67 11.57 218.85 12.54 C 222.56 12.50 226.28 12.39 229.99 12.62 C 227.01 11.88 224.15 10.76 221.31 9.62 M 293.58 12.65 C 296.90 12.77 300.22 12.75 303.54 12.80 C 302.56 11.74 301.59 10.67 300.63 9.60 C 298.24 10.53 295.87 11.49 293.58 12.65 M 212.93 15.28 C 203.96 15.35 194.90 15.93 186.00 14.52 C 182.61 14.54 178.17 13.76 175.70 16.52 C 173.93 24.17 175.50 32.22 173.94 39.95 C 172.91 53.61 173.81 67.36 172.81 81.03 C 172.56 96.02 172.20 111.00 172.21 126.00 C 171.69 128.77 174.57 130.59 177.04 130.45 C 233.04 130.80 289.05 130.79 345.05 130.73 C 347.21 131.11 348.95 129.13 348.74 127.05 C 348.70 101.35 347.52 75.69 347.37 49.99 C 347.61 39.01 345.38 28.17 345.55 17.19 C 344.39 16.60 343.39 15.48 342.00 15.55 C 331.01 15.35 320.00 15.66 309.01 15.44 C 301.09 14.04 292.92 14.09 285.00 15.43 C 278.93 16.26 273.04 14.08 266.98 14.48 C 259.96 14.56 252.84 13.52 245.90 14.98 C 240.97 16.07 236.00 14.85 231.09 14.35 C 225.02 14.11 218.89 13.93 212.93 15.28 M 348.80 39.86 C 348.83 42.90 348.82 45.95 348.82 48.99 C 371.75 62.65 391.53 81.60 405.92 104.10 C 423.79 131.85 433.28 164.97 432.60 197.99 C 432.47 237.30 417.70 276.27 392.14 306.09 C 373.03 328.70 347.84 346.12 319.99 356.12 C 288.39 367.57 253.40 369.31 220.79 361.23 C 187.26 353.04 156.44 334.23 133.68 308.30 C 112.25 284.03 97.89 253.54 93.15 221.48 C 88.52 191.07 92.21 159.39 104.01 130.95 C 117.44 98.09 141.61 69.84 171.71 51.09 C 171.69 47.52 171.63 43.93 172.06 40.38 C 166.69 40.75 161.23 39.96 155.93 41.18 C 153.81 41.59 151.64 41.49 149.49 41.48 C 147.62 46.56 145.72 51.63 143.99 56.76 C 142.84 59.23 141.96 62.56 138.98 63.35 C 132.60 65.30 126.04 66.59 119.60 68.33 C 118.92 74.21 117.85 80.05 117.23 85.95 C 116.71 88.16 116.23 90.87 113.94 91.95 C 108.18 94.97 102.30 97.78 96.48 100.68 C 95.72 108.12 98.73 115.48 97.11 122.86 C 95.15 125.66 92.13 127.38 89.57 129.57 C 86.56 131.91 83.74 134.53 80.42 136.45 C 81.81 144.00 85.89 151.17 85.41 158.97 C 81.59 164.86 76.81 170.14 72.00 175.25 C 75.26 180.45 78.03 185.92 80.69 191.45 C 81.88 193.64 81.86 196.40 80.67 198.60 C 77.96 204.11 75.15 209.58 72.40 215.09 C 76.47 219.57 80.20 224.35 84.11 228.98 C 86.20 231.05 85.62 234.29 85.25 236.91 C 83.66 242.42 82.06 247.93 80.44 253.43 C 85.37 257.19 90.13 261.16 95.05 264.94 C 95.95 265.81 97.22 266.61 97.35 267.99 C 98.39 275.32 95.75 282.49 96.50 289.83 C 102.87 293.05 109.38 296.01 115.62 299.48 C 117.01 301.68 117.34 304.39 117.59 306.94 C 118.20 311.97 119.11 316.95 119.65 321.99 C 126.01 323.47 132.32 325.13 138.68 326.64 C 140.06 326.90 141.34 327.69 141.95 329.00 C 145.23 335.53 146.82 342.74 149.89 349.36 C 157.22 349.86 164.63 348.98 171.93 349.83 C 176.37 355.80 180.15 362.28 183.87 368.71 C 189.55 367.44 195.27 366.32 201.04 365.52 C 203.41 365.50 206.33 364.89 208.10 366.92 C 212.70 371.43 217.18 376.06 221.77 380.59 C 226.34 378.46 231.08 376.74 235.72 374.80 C 239.02 373.42 243.10 372.58 246.28 374.69 C 251.26 377.85 256.15 381.18 261.00 384.55 C 265.83 381.19 270.70 377.88 275.66 374.72 C 278.63 372.73 282.50 373.28 285.63 374.56 C 290.51 376.55 295.45 378.38 300.23 380.59 C 304.81 376.06 309.30 371.43 313.90 366.93 C 315.96 364.71 319.30 365.53 321.97 365.63 C 327.35 366.67 332.83 367.23 338.14 368.59 C 342.65 362.52 345.43 355.03 351.08 349.92 C 357.78 348.78 364.70 350.08 371.46 349.30 C 373.16 349.02 373.22 346.98 373.82 345.73 C 375.99 339.95 377.88 334.04 380.42 328.41 C 383.99 326.05 388.48 325.98 392.42 324.54 C 395.62 323.36 399.26 323.16 402.27 321.70 C 404.50 314.50 403.79 306.55 406.36 299.49 C 412.65 296.02 419.18 292.98 425.63 289.81 C 425.26 284.21 426.06 278.51 424.65 273.01 C 424.50 270.69 423.77 267.60 425.93 265.98 C 431.25 261.85 436.40 257.50 441.82 253.52 C 440.14 247.66 438.47 241.80 436.75 235.95 C 436.42 233.86 435.91 231.26 437.45 229.52 C 441.77 224.72 445.77 219.63 449.92 214.69 C 446.84 208.77 443.13 203.17 440.67 196.95 C 439.70 193.73 441.52 190.72 443.11 188.07 C 445.75 184.00 447.73 179.55 449.91 175.22 C 445.70 170.69 441.93 165.78 437.93 161.06 C 435.97 159.25 436.28 156.38 436.76 154.02 C 438.43 148.25 440.12 142.50 441.72 136.71 C 436.85 132.77 431.80 129.06 426.91 125.15 C 423.89 123.12 424.19 119.21 424.81 116.07 C 426.06 110.87 425.23 105.48 425.63 100.20 C 419.93 97.11 413.75 95.07 408.07 91.97 C 405.66 90.91 405.48 88.09 404.96 85.86 C 404.11 80.02 403.43 74.14 402.41 68.32 C 395.81 66.70 389.20 65.08 382.69 63.14 C 380.00 62.49 379.29 59.43 378.41 57.20 C 376.85 51.90 374.48 46.89 372.97 41.58 C 370.36 41.53 367.74 41.56 365.19 41.00 C 359.78 39.84 354.18 41.21 348.80 39.86 M 349.26 55.59 C 349.30 59.61 349.50 63.63 349.48 67.66 C 377.66 86.89 399.40 115.51 409.81 148.05 C 419.31 177.33 419.76 209.44 411.21 239.00 C 403.67 265.23 388.92 289.30 369.13 308.06 C 348.08 328.14 321.28 342.15 292.73 347.81 C 262.54 353.81 230.52 350.89 202.12 338.92 C 171.01 326.06 144.39 302.68 127.52 273.57 C 113.65 249.88 106.41 222.40 106.64 194.97 C 106.70 169.90 112.99 144.88 124.87 122.80 C 135.99 101.92 152.04 83.71 171.24 69.91 C 171.43 65.78 171.59 61.66 171.51 57.53 C 152.30 70.19 135.64 86.74 123.13 106.06 C 104.42 134.55 95.11 169.02 96.64 203.06 C 97.76 227.99 104.54 252.67 116.55 274.56 C 130.81 300.75 152.29 322.91 177.98 338.04 C 208.70 356.30 245.50 364.05 280.99 359.85 C 312.69 356.28 343.20 343.16 367.70 322.75 C 379.59 312.64 390.38 301.14 399.08 288.15 C 417.06 261.74 427.10 229.97 427.37 198.02 C 427.81 171.78 421.79 145.45 409.96 122.03 C 396.37 94.84 375.11 71.57 349.26 55.59 M 349.75 74.31 C 349.43 85.89 350.26 97.46 350.39 109.04 C 350.19 116.17 351.33 123.37 350.13 130.45 C 351.44 130.96 352.84 131.32 354.00 132.15 C 367.78 143.37 381.87 154.21 395.83 165.20 C 396.55 166.05 398.22 166.60 397.86 167.99 C 398.02 171.58 394.17 173.73 390.96 173.49 C 372.59 173.51 354.23 173.51 335.87 173.49 C 335.09 175.10 334.31 176.71 333.50 178.32 C 340.35 181.80 346.72 186.33 351.85 192.09 C 358.60 199.79 364.16 209.49 363.82 220.04 C 364.04 229.13 359.67 237.99 353.03 244.06 C 346.46 250.22 337.54 253.40 328.63 253.90 C 328.66 279.30 328.57 304.69 328.68 330.09 C 342.14 323.03 354.92 314.47 365.77 303.76 C 385.61 284.99 400.03 260.58 407.02 234.18 C 414.62 205.64 413.54 174.84 403.80 146.94 C 393.86 117.89 374.53 92.34 349.75 74.31 M 112.16 196.04 C 111.64 222.19 119.05 248.28 132.12 270.84 C 146.63 295.77 168.41 316.49 194.24 329.36 C 194.30 303.94 194.22 278.52 194.28 253.10 C 189.32 253.62 184.23 253.81 179.39 252.45 C 168.04 249.30 158.39 239.73 156.11 228.05 C 154.86 222.42 155.98 216.59 157.47 211.13 C 161.82 196.60 173.28 184.95 186.79 178.49 C 186.08 176.82 185.37 175.16 184.67 173.49 C 166.44 173.49 148.20 173.54 129.97 173.48 C 126.21 173.82 123.57 170.61 123.14 167.15 C 136.23 156.89 149.28 146.58 162.36 136.29 C 165.34 134.03 167.99 130.79 172.05 130.71 C 171.16 129.29 170.03 127.85 170.25 126.06 C 170.27 109.59 170.94 93.14 171.17 76.68 C 134.36 104.32 111.17 149.84 112.16 196.04 M 167.48 134.51 C 154.26 145.32 140.53 155.50 127.39 166.41 C 159.31 166.67 191.25 166.32 223.17 166.58 C 219.49 164.24 222.75 160.43 223.49 157.43 C 224.67 155.06 224.81 151.81 227.10 150.20 C 249.09 150.05 271.09 149.87 293.08 150.05 C 294.74 149.88 295.67 151.43 296.15 152.76 C 297.70 156.75 299.31 160.77 299.93 165.03 C 290.00 165.56 280.05 165.05 270.12 165.32 L 270.27 166.56 C 311.57 166.38 352.88 166.60 394.19 166.45 C 382.11 156.61 369.68 147.19 357.52 137.44 C 355.41 135.82 353.58 133.70 351.10 132.63 C 346.24 132.27 341.35 132.57 336.49 132.55 C 341.36 137.47 346.57 142.06 351.15 147.26 C 346.27 149.30 341.06 147.41 336.02 147.85 C 328.75 148.61 321.43 148.09 314.14 148.23 C 311.42 148.25 308.69 148.25 305.97 148.19 C 301.29 147.54 296.55 148.79 291.90 147.75 C 290.60 147.91 289.32 148.07 288.03 148.24 C 282.35 148.37 276.66 148.08 270.98 148.17 C 268.33 148.24 265.69 148.25 263.05 148.21 C 260.05 148.19 257.05 148.20 254.05 148.20 C 250.70 148.18 247.34 148.17 243.99 148.30 C 242.29 148.17 240.59 147.98 238.90 147.78 C 233.26 147.67 227.60 148.95 221.99 147.78 C 217.31 147.69 212.65 148.47 207.96 148.20 C 197.62 148.06 187.29 148.65 176.95 148.51 C 175.21 148.60 173.61 147.87 172.04 147.25 C 177.06 142.16 182.58 137.60 187.87 132.81 C 182.23 132.78 176.59 132.62 170.96 132.81 C 169.58 132.75 168.52 133.77 167.48 134.51 M 186.73 136.08 C 189.52 136.19 192.32 136.03 195.12 136.23 C 192.89 138.14 189.09 136.88 186.26 137.28 L 186.13 138.52 C 190.40 138.37 194.69 138.75 198.93 138.11 C 198.53 137.77 197.73 137.09 197.33 136.75 C 197.24 136.46 197.05 135.88 196.95 135.59 C 199.78 136.09 202.65 136.17 205.52 136.16 L 205.49 134.80 C 203.09 134.80 200.68 134.80 198.28 134.82 C 198.45 134.42 198.77 133.62 198.93 133.22 C 195.34 136.22 190.26 133.30 186.73 136.08 M 206.64 134.58 C 206.25 135.43 205.85 136.28 205.45 137.13 C 204.18 137.24 201.65 137.46 200.38 137.57 C 203.19 138.88 206.33 138.40 209.32 138.56 C 209.17 138.07 208.88 137.10 208.74 136.61 C 208.21 136.44 207.14 136.11 206.61 135.94 C 210.01 135.78 213.43 136.26 216.81 135.64 C 216.98 135.96 217.32 136.60 217.49 136.92 C 215.00 136.86 212.50 136.72 210.02 136.45 C 210.05 137.51 210.10 138.58 210.15 139.64 L 210.66 139.56 C 211.19 139.84 212.27 140.42 212.81 140.71 C 212.76 139.87 212.63 139.04 212.42 138.23 C 215.43 138.19 218.45 138.30 221.47 138.19 C 219.94 137.37 218.42 136.54 216.91 135.70 C 219.25 135.80 221.58 136.36 223.93 136.06 C 228.34 135.34 232.77 136.47 237.20 135.90 C 237.52 136.19 238.15 136.78 238.47 137.08 C 233.43 137.60 228.42 136.55 223.39 137.04 L 223.41 138.56 C 226.13 138.39 228.85 138.21 231.58 138.06 L 231.59 139.17 C 228.98 139.19 226.14 139.12 224.15 141.11 L 226.95 141.17 C 226.88 141.47 226.76 142.05 226.69 142.35 C 223.63 141.59 220.47 141.68 217.35 141.82 L 217.29 140.83 C 219.00 141.33 220.28 141.06 221.14 140.01 C 221.03 139.77 220.80 139.29 220.69 139.04 C 219.07 139.52 213.75 138.43 214.63 141.31 L 214.81 141.75 C 211.97 141.71 209.14 141.76 206.30 141.79 L 206.39 140.76 C 207.60 140.69 210.02 140.57 211.23 140.50 C 208.52 138.92 205.30 139.64 202.34 139.73 C 202.92 140.12 204.06 140.92 204.64 141.32 C 204.17 142.29 203.73 143.28 203.28 144.27 C 200.44 144.59 196.45 143.12 194.77 146.31 C 199.25 146.60 203.74 146.28 208.21 146.68 C 214.16 146.25 220.14 146.40 226.10 146.63 C 245.97 146.43 265.89 146.24 285.75 146.72 C 290.04 146.32 294.34 146.46 298.64 146.51 L 298.70 144.51 C 294.49 144.54 290.29 144.50 286.09 144.58 C 286.03 144.29 285.92 143.71 285.86 143.42 C 289.26 143.46 292.66 143.42 296.06 143.72 C 299.58 143.51 303.15 143.55 306.57 142.53 C 306.64 142.96 306.77 143.84 306.83 144.28 C 304.18 144.45 301.52 144.58 298.90 144.14 C 299.14 145.19 299.39 146.25 299.63 147.31 C 303.37 145.93 307.39 146.62 311.27 146.34 C 310.67 145.72 309.48 144.48 308.88 143.86 C 308.48 142.46 307.77 141.21 306.57 140.33 C 307.40 140.35 309.06 140.40 309.89 140.42 C 309.40 139.81 308.42 138.59 307.93 137.98 C 311.48 138.69 315.10 138.48 318.66 137.98 C 316.92 139.38 314.66 139.64 312.58 140.13 C 314.23 140.39 315.88 140.62 317.55 140.83 C 317.84 141.72 318.08 142.62 318.28 143.54 C 315.65 143.70 313.01 143.85 310.38 143.96 C 310.86 145.09 311.33 146.22 311.81 147.35 L 313.76 147.21 C 313.63 146.74 313.38 145.79 313.25 145.32 C 316.28 145.47 319.32 145.48 322.36 145.48 C 323.41 146.30 324.48 147.10 325.56 147.89 C 325.12 146.42 324.67 144.95 324.22 143.49 C 322.83 143.53 321.44 143.58 320.06 143.63 C 319.45 142.19 319.00 140.71 320.95 140.11 C 319.77 138.75 318.60 137.38 317.44 136.02 C 324.08 134.50 331.49 138.55 337.53 134.49 C 333.46 134.80 329.39 134.84 325.31 134.87 C 325.36 134.43 325.45 133.55 325.50 133.10 C 325.25 133.14 324.76 133.20 324.51 133.23 C 324.55 133.63 324.65 134.42 324.70 134.82 C 317.90 134.52 311.07 134.51 304.28 134.94 C 304.37 134.57 304.55 133.82 304.64 133.45 C 300.55 133.53 296.47 133.47 292.39 133.43 L 292.88 135.10 C 288.22 132.75 282.99 133.73 278.00 133.48 C 275.68 133.46 273.24 133.29 271.09 134.35 C 268.24 134.66 265.38 134.82 262.53 134.94 C 262.38 134.29 262.10 132.99 261.96 132.34 C 261.84 132.95 261.60 134.17 261.48 134.78 C 251.05 135.36 240.66 134.23 230.24 134.90 C 230.37 134.47 230.64 133.62 230.78 133.20 C 227.22 135.12 223.15 134.89 219.24 134.82 C 219.39 134.44 219.68 133.69 219.83 133.31 C 216.66 135.29 212.87 134.77 209.33 134.87 C 209.41 134.41 209.58 133.48 209.66 133.02 C 208.65 133.54 207.65 134.06 206.64 134.58 M 320.35 137.39 C 321.39 139.03 324.80 138.41 326.57 137.94 C 325.28 136.64 322.11 136.64 320.35 137.39 M 328.46 137.46 C 328.17 138.86 328.72 139.40 330.10 139.05 C 330.41 137.67 329.86 137.14 328.46 137.46 M 199.73 137.74 C 200.32 138.34 200.32 138.34 199.73 137.74 M 200.20 140.02 C 200.82 141.26 201.55 141.27 202.37 140.04 C 201.73 138.76 201.00 138.75 200.20 140.02 M 223.39 138.98 C 222.06 139.95 222.03 140.73 223.30 141.33 C 224.40 140.50 224.43 139.72 223.39 138.98 M 311.05 139.34 C 309.35 142.21 314.47 139.67 311.05 139.34 M 321.85 139.47 C 321.55 140.88 322.08 141.38 323.45 140.97 C 323.77 139.55 323.23 139.04 321.85 139.47 M 181.45 140.30 C 182.01 140.88 182.01 140.88 181.45 140.30 M 195.25 139.88 C 195.08 141.35 198.67 141.33 198.55 139.88 C 197.45 139.15 196.35 139.15 195.25 139.88 M 180.64 141.15 C 178.19 142.87 175.99 144.89 173.81 146.92 C 174.41 147.17 175.63 147.65 176.24 147.89 C 176.36 147.22 176.59 145.89 176.71 145.22 C 177.48 145.59 178.23 145.98 178.96 146.41 C 183.98 146.68 189.09 145.92 194.02 147.09 C 194.56 146.06 195.10 145.03 195.65 144.01 C 189.88 145.25 183.92 143.92 178.11 144.92 C 179.20 143.84 180.04 142.56 180.64 141.15 M 180.09 143.30 C 187.64 143.50 195.29 143.80 202.77 142.82 C 202.80 142.54 202.84 141.99 202.86 141.71 C 196.53 141.73 190.21 141.45 183.88 141.51 C 182.29 141.14 181.21 142.47 180.09 143.30 M 316.79 143.06 C 316.78 142.85 316.78 142.41 316.77 142.20 C 314.13 141.59 311.41 141.55 308.72 141.43 C 309.89 144.88 314.13 142.87 316.79 143.06 M 226.96 151.34 C 225.50 155.76 223.74 160.06 222.26 164.48 C 247.81 164.67 273.35 164.30 298.89 164.18 C 297.54 159.73 295.84 155.39 294.11 151.08 C 271.73 150.92 249.34 150.91 226.96 151.34 M 124.67 168.55 C 127.48 172.75 132.68 171.68 136.97 171.76 C 171.55 171.78 206.14 171.65 240.72 171.83 C 240.57 170.61 240.43 169.40 240.30 168.19 C 203.20 168.35 166.10 168.18 129.00 168.27 C 127.55 168.31 126.11 168.41 124.67 168.55 M 241.07 168.52 C 241.49 169.96 242.08 171.90 243.99 171.69 C 255.30 171.75 266.64 171.88 277.94 171.63 C 279.92 171.63 279.44 169.57 279.69 168.23 C 266.82 168.45 253.93 167.90 241.07 168.52 M 280.59 168.38 C 280.61 169.24 280.64 170.96 280.65 171.81 C 315.41 171.67 350.17 171.77 384.93 171.76 C 388.97 171.69 394.20 172.79 396.45 168.41 C 387.62 168.07 378.78 168.34 369.94 168.25 C 340.16 168.34 310.37 168.09 280.59 168.38 M 188.91 173.54 C 189.71 175.49 190.56 177.41 191.47 179.31 C 237.36 179.14 283.25 179.31 329.15 179.23 C 329.96 177.31 330.80 175.40 331.65 173.50 C 284.07 173.53 236.49 173.45 188.91 173.54 M 167.48 203.41 C 163.80 210.35 161.45 218.60 163.52 226.40 C 165.63 235.38 172.91 242.29 181.00 246.19 C 187.01 249.09 194.38 250.62 200.66 247.63 C 205.98 245.18 209.10 239.65 210.39 234.14 C 211.81 228.15 212.32 221.38 209.30 215.78 C 206.35 211.02 200.69 207.97 195.06 208.48 C 187.77 208.79 181.95 215.95 182.32 223.07 C 182.23 230.41 192.96 235.37 198.12 229.91 C 199.24 227.11 198.61 222.37 195.03 221.84 C 194.26 222.80 193.56 223.81 192.93 224.86 C 193.69 225.44 195.22 226.60 195.98 227.17 C 194.23 228.51 192.39 230.11 190.04 230.03 C 186.85 230.08 184.04 226.10 186.20 223.32 C 188.88 219.56 193.44 217.20 197.99 216.72 C 201.85 216.28 205.90 219.02 206.37 222.98 C 206.66 227.29 204.46 231.52 201.37 234.42 C 196.71 238.69 189.57 238.12 184.09 235.92 C 178.30 233.58 173.74 227.31 174.98 220.92 C 175.63 216.46 178.12 212.36 181.78 209.75 C 188.21 205.04 196.67 203.08 204.49 204.72 C 209.71 205.77 213.35 210.11 218.30 211.83 C 242.48 222.35 270.04 220.47 294.99 213.77 C 299.60 212.29 304.76 211.79 308.63 208.62 C 311.32 206.54 314.57 205.20 317.97 204.90 C 325.24 204.14 333.10 205.40 339.02 209.93 C 343.55 213.34 345.47 219.61 343.84 225.02 C 341.43 235.49 327.99 241.26 318.63 236.28 C 312.44 233.08 311.37 223.32 317.13 219.20 C 322.38 214.73 331.69 217.41 333.62 224.03 C 334.03 229.30 327.03 231.35 323.24 228.66 C 324.02 228.06 325.58 226.86 326.36 226.26 C 325.16 224.28 323.44 222.05 320.81 222.51 C 319.21 226.64 321.50 232.37 326.11 233.27 C 331.52 234.45 337.07 229.54 336.70 224.03 C 337.80 212.29 320.96 204.31 312.67 212.72 C 304.66 220.98 306.28 235.81 314.99 243.00 C 324.60 252.03 341.16 250.40 349.65 240.61 C 356.25 233.96 356.64 223.87 355.23 215.15 C 352.28 201.83 342.84 190.49 331.05 183.90 C 329.24 182.74 327.01 183.04 324.98 182.97 C 279.03 183.17 233.05 182.72 187.11 183.20 C 178.74 187.72 172.06 195.13 167.48 203.41 M 293.07 216.97 C 295.39 220.49 297.72 224.00 300.30 227.33 C 300.59 222.67 301.59 218.06 303.74 213.89 C 300.20 214.99 296.64 215.98 293.07 216.97 M 217.71 217.07 C 218.45 219.72 218.71 222.46 218.95 225.20 C 220.67 223.21 222.24 221.09 223.79 218.97 C 221.76 218.34 219.73 217.72 217.71 217.07 M 273.06 220.98 C 275.22 223.49 277.32 226.05 279.50 228.54 C 282.75 225.17 285.55 221.41 288.79 218.04 C 283.57 219.15 278.33 220.15 273.06 220.98 M 230.38 220.54 C 232.29 223.63 234.22 226.72 236.03 229.87 C 238.69 227.40 241.25 224.82 243.80 222.23 C 239.30 221.87 234.83 221.28 230.38 220.54 M 220.03 230.72 C 224.04 230.77 228.06 230.76 232.07 230.72 C 230.29 227.80 228.49 224.88 226.83 221.88 C 224.24 224.57 222.16 227.68 220.03 230.72 M 253.45 222.65 C 255.07 224.57 256.71 226.47 258.44 228.28 C 260.53 226.17 262.62 224.07 264.73 221.98 C 260.96 222.18 257.21 222.40 253.45 222.65 M 282.88 230.71 C 287.84 230.78 292.80 230.72 297.76 230.77 C 295.56 227.50 293.30 224.26 291.12 220.98 C 288.48 224.31 285.61 227.45 282.88 230.71 M 240.96 230.76 C 245.72 230.74 250.50 230.79 255.27 230.68 C 253.08 228.16 250.86 225.66 248.79 223.04 C 246.09 225.52 243.50 228.12 240.96 230.76 M 261.39 230.73 C 266.34 230.75 271.30 230.78 276.26 230.70 C 274.01 228.07 271.72 225.48 269.58 222.77 C 266.70 225.27 264.05 228.01 261.39 230.73 M 217.60 234.46 C 217.08 235.80 216.57 237.14 216.06 238.49 C 244.67 238.54 273.28 238.43 301.89 238.54 C 301.68 237.22 301.47 235.89 301.26 234.57 C 273.38 234.39 245.49 234.61 217.60 234.46 M 207.17 248.18 C 204.23 250.10 200.88 251.19 197.68 252.56 C 197.83 278.75 197.72 304.93 197.74 331.12 C 203.25 333.80 208.96 336.01 214.74 338.03 C 214.69 305.90 214.91 273.76 214.63 241.64 C 212.17 243.85 209.97 246.39 207.17 248.18 M 218.63 242.25 C 218.55 274.57 218.62 306.90 218.60 339.23 C 224.47 340.92 230.42 342.34 236.44 343.45 C 236.48 309.70 236.45 275.96 236.45 242.22 C 230.51 242.28 224.57 242.25 218.63 242.25 M 240.34 242.22 C 240.31 276.15 240.36 310.08 240.32 344.01 C 246.37 344.90 252.48 345.33 258.59 345.62 C 258.72 311.15 258.62 276.69 258.64 242.23 C 252.54 242.27 246.44 242.27 240.34 242.22 M 262.51 242.22 C 262.52 276.66 262.50 311.11 262.52 345.55 C 268.68 345.60 274.81 345.07 280.93 344.43 C 281.55 336.31 281.04 328.15 281.20 320.01 C 281.26 295.34 281.17 270.67 281.25 246.00 C 281.27 244.78 281.15 243.57 280.86 242.39 C 274.76 242.02 268.63 242.38 262.51 242.22 M 284.72 242.25 C 284.64 276.11 284.71 309.96 284.68 343.82 C 290.03 343.04 295.32 341.87 300.58 340.60 C 300.57 307.81 300.58 275.02 300.57 242.23 C 295.29 242.27 290.00 242.25 284.72 242.25 M 304.45 242.59 C 304.37 274.90 304.40 307.22 304.44 339.53 C 311.34 337.36 318.15 334.86 324.74 331.85 C 324.72 305.81 324.74 279.77 324.73 253.73 C 316.80 252.77 309.57 248.68 304.45 242.59 Z" />
<path fill="#e63e28" opacity="1.00" d=" M 176.71 124.45 C 177.61 89.88 178.26 55.28 179.43 20.71 C 233.70 20.82 287.98 20.68 342.26 20.78 C 342.78 55.19 343.70 89.59 344.50 124.00 C 325.32 123.99 306.15 124.01 286.98 123.99 C 258.33 124.69 229.65 123.82 201.00 124.51 C 192.91 124.47 184.81 124.56 176.71 124.45 M 181.35 22.47 C 180.65 27.63 180.77 32.85 180.61 38.04 C 180.44 59.05 179.30 80.02 179.24 101.03 C 178.83 108.26 178.52 115.50 178.59 122.75 C 195.71 122.94 212.82 122.37 229.95 122.50 C 267.53 122.63 305.09 122.05 342.67 122.24 C 342.46 106.83 341.62 91.45 341.60 76.04 C 341.27 58.19 340.57 40.37 340.39 22.53 C 287.37 22.45 234.36 22.57 181.35 22.47 Z" />
<path fill="#e63e28" opacity="1.00" d=" M 220.35 52.39 C 226.16 48.52 233.90 49.20 240.05 51.89 C 240.58 51.35 241.63 50.25 242.15 49.70 C 243.62 53.20 244.46 56.92 245.32 60.61 C 241.44 58.60 239.48 53.82 234.95 52.94 C 230.81 51.98 225.51 52.00 222.74 55.77 C 217.22 63.32 217.00 74.26 221.91 82.15 C 225.48 87.39 233.07 87.01 237.99 84.04 C 241.01 82.43 242.40 79.16 243.73 76.20 C 244.20 76.26 245.14 76.37 245.61 76.43 C 244.08 80.29 242.54 84.65 238.64 86.74 C 232.51 90.19 223.80 90.58 218.45 85.46 C 214.17 81.55 212.98 75.49 212.76 69.94 C 212.89 63.47 214.82 56.31 220.35 52.39 Z" />
<path fill="#e63e28" opacity="1.00" d=" M 251.89 55.09 C 254.62 49.27 262.59 48.28 267.54 51.83 C 267.96 51.13 268.81 49.73 269.24 49.03 C 270.10 51.43 270.66 53.92 270.93 56.46 C 268.04 55.02 265.45 52.43 261.98 52.70 C 254.75 52.14 254.58 63.47 260.56 65.48 C 263.94 67.32 267.83 68.62 270.33 71.71 C 274.06 76.45 272.63 84.21 267.47 87.33 C 263.38 90.07 257.94 89.74 253.69 87.55 C 253.18 88.14 252.16 89.33 251.65 89.92 C 250.53 87.03 249.94 83.97 249.52 80.91 C 252.66 83.34 255.70 86.63 260.06 86.28 C 266.92 87.29 269.01 76.42 263.61 73.44 C 260.66 71.64 257.00 71.03 254.50 68.50 C 250.71 65.26 250.50 59.51 251.89 55.09 Z" />
<path fill="#e63e28" opacity="1.00" d=" M 283.35 53.35 C 288.79 48.36 297.22 48.99 303.50 51.94 C 303.97 51.23 304.90 49.81 305.37 49.10 C 307.20 52.70 308.16 56.66 308.80 60.62 C 305.49 58.57 303.60 54.67 299.79 53.36 C 295.02 51.67 288.69 52.05 285.59 56.55 C 281.19 63.33 281.35 72.37 284.18 79.72 C 286.13 85.77 294.43 88.23 299.46 84.49 C 302.14 82.03 303.19 78.00 302.51 74.48 C 301.33 73.55 300.03 72.76 298.80 71.90 C 302.04 71.73 305.29 71.73 308.54 71.71 C 308.56 77.78 308.79 83.86 308.37 89.92 C 306.80 88.87 305.39 87.63 304.15 86.22 C 299.44 89.22 293.56 89.92 288.15 88.84 C 283.01 87.50 278.97 83.04 277.62 77.96 C 275.01 69.56 276.75 59.47 283.35 53.35 Z" />
<path fill="#e63e28" opacity="1.00" d=" M 272.90 134.64 C 273.98 133.45 277.93 133.46 279.04 134.65 C 277.12 135.29 274.80 135.31 272.90 134.64 Z" />
<path fill="#e63e28" opacity="1.00" d=" M 280.86 134.23 C 281.45 134.82 281.45 134.82 280.86 134.23 Z" />
<path fill="#e63e28" opacity="1.00" d=" M 283.90 134.29 C 285.36 133.87 288.24 133.32 289.09 134.68 C 287.63 135.17 284.74 135.64 283.90 134.29 Z" />
<path fill="#e63e28" opacity="1.00" d=" M 294.25 134.18 C 295.78 133.70 298.80 133.26 299.71 134.71 C 298.21 135.34 295.11 135.67 294.25 134.18 Z" />
<path fill="#e63e28" opacity="1.00" d=" M 301.61 134.13 C 304.69 132.63 301.80 137.41 301.61 134.13 Z" />
<path fill="#e63e28" opacity="1.00" d=" M 243.85 137.36 C 242.89 136.81 238.10 137.52 239.69 135.98 C 246.80 135.82 253.89 136.18 260.99 135.78 C 262.48 135.47 263.80 136.31 264.83 137.27 C 262.93 137.19 261.05 137.02 259.18 136.74 C 254.41 137.73 249.60 136.81 244.82 136.55 C 244.84 137.04 244.88 138.02 244.90 138.50 C 247.99 138.17 251.11 138.07 254.19 138.49 C 251.27 139.68 248.07 139.21 245.01 139.26 C 244.67 140.06 244.57 140.93 244.47 141.78 C 242.90 141.96 241.33 142.12 239.76 142.26 C 240.83 140.81 242.67 140.60 244.25 140.00 C 241.56 139.73 238.23 138.56 235.95 140.51 C 236.75 140.82 238.34 141.44 239.14 141.76 C 235.38 141.71 231.61 141.86 227.87 141.47 C 230.11 140.72 232.49 140.60 234.83 140.81 C 234.91 140.60 235.07 140.18 235.15 139.97 C 234.54 139.51 233.31 138.60 232.70 138.15 C 236.20 138.44 239.72 138.39 243.20 138.98 C 243.36 138.58 243.69 137.77 243.85 137.36 Z" />
<path fill="#e63e28" opacity="1.00" d=" M 265.25 136.21 C 269.50 134.90 273.84 136.80 278.10 135.91 C 282.29 135.36 286.52 136.93 290.66 135.59 C 289.62 136.15 288.80 136.88 288.20 137.80 C 290.85 138.91 293.84 137.79 296.64 137.91 C 294.49 140.25 291.07 139.05 288.33 139.07 C 288.39 139.53 288.52 140.44 288.59 140.90 C 290.97 140.57 293.39 140.64 295.77 141.03 C 292.34 142.29 288.22 142.02 284.84 140.69 C 281.25 141.88 277.43 141.45 273.73 141.75 C 274.89 140.70 276.01 139.60 276.97 138.36 C 280.19 138.38 283.45 138.35 286.55 139.34 C 286.72 139.04 287.05 138.44 287.21 138.14 L 287.30 137.43 C 279.95 136.60 272.53 137.06 265.16 137.16 C 265.19 136.92 265.23 136.45 265.25 136.21 M 277.95 139.32 C 276.34 142.26 281.37 139.53 277.95 139.32 Z" />
<path fill="#e63e28" opacity="1.00" d=" M 291.26 135.69 C 293.10 135.95 294.97 136.40 296.85 136.16 C 301.99 135.43 307.16 136.46 312.32 135.83 C 310.19 137.24 307.66 137.54 305.19 137.16 C 300.66 136.50 296.11 137.38 291.57 137.37 L 291.26 135.69 Z" />
<path fill="#e63e28" opacity="1.00" d=" M 312.26 136.03 C 313.63 135.59 316.26 135.49 316.98 136.88 C 315.63 137.42 312.91 137.49 312.26 136.03 Z" />
<path fill="#e63e28" opacity="1.00" d=" M 253.34 139.22 C 256.96 137.93 261.19 137.61 264.85 138.92 C 261.03 139.41 257.17 139.41 253.34 139.22 Z" />
<path fill="#e63e28" opacity="1.00" d=" M 265.20 138.36 C 268.43 138.84 272.52 136.90 275.26 139.11 C 271.96 139.33 268.66 139.32 265.36 139.43 L 265.20 138.36 Z" />
<path fill="#e63e28" opacity="1.00" d=" M 296.76 138.27 C 300.37 138.50 304.06 137.76 307.60 138.70 C 306.17 139.39 303.73 138.38 302.85 139.99 C 303.54 141.32 305.40 141.10 306.58 141.78 C 302.99 141.71 299.40 141.62 295.82 141.88 C 296.73 141.41 298.55 140.46 299.46 139.99 C 298.79 139.56 297.44 138.70 296.76 138.27 M 300.14 139.06 L 299.67 139.85 C 300.31 142.38 302.37 139.07 300.14 139.06 Z" />
<path fill="#e63e28" opacity="1.00" d=" M 246.42 140.93 C 247.15 140.13 249.59 140.19 249.46 141.59 C 248.74 142.47 246.25 142.37 246.42 140.93 Z" />
<path fill="#e63e28" opacity="1.00" d=" M 251.50 141.60 C 251.91 140.17 254.59 140.22 255.68 140.96 C 255.27 142.43 252.60 142.29 251.50 141.60 Z" />
<path fill="#e63e28" opacity="1.00" d=" M 257.41 140.95 C 258.44 140.22 259.46 140.25 260.49 141.04 C 260.79 142.60 257.18 142.47 257.41 140.95 Z" />
<path fill="#e63e28" opacity="1.00" d=" M 263.47 141.05 C 264.48 140.25 265.52 140.21 266.57 140.93 C 266.86 142.45 263.26 142.59 263.47 141.05 Z" />
<path fill="#e63e28" opacity="1.00" d=" M 268.44 140.93 C 269.20 140.16 271.67 140.18 271.57 141.59 C 270.80 142.38 268.31 142.36 268.44 140.93 Z" />
<path fill="#e63e28" opacity="1.00" d=" M 205.07 144.31 C 205.24 143.87 205.58 142.99 205.74 142.55 C 209.11 144.40 213.25 141.84 216.34 144.08 C 212.59 144.38 208.83 144.43 205.07 144.31 Z" />
<path fill="#e63e28" opacity="1.00" d=" M 217.13 144.26 C 217.15 143.82 217.20 142.94 217.23 142.51 C 220.41 143.48 224.12 142.45 227.00 144.30 C 223.71 144.38 220.42 144.24 217.13 144.26 Z" />
<path fill="#e63e28" opacity="1.00" d=" M 228.45 142.62 C 231.97 143.23 235.55 143.16 239.10 143.58 C 235.59 144.62 231.90 144.19 228.30 144.40 L 228.45 142.62 Z" />
<path fill="#e63e28" opacity="1.00" d=" M 238.57 144.00 C 242.54 142.72 247.02 142.77 251.00 143.99 C 246.87 144.42 242.70 144.40 238.57 144.00 Z" />
<path fill="#e63e28" opacity="1.00" d=" M 251.42 144.33 C 251.43 143.91 251.46 143.09 251.47 142.67 C 254.97 143.29 258.63 142.86 262.05 143.94 C 258.53 144.39 254.97 144.27 251.42 144.33 Z" />
<path fill="#e63e28" opacity="1.00" d=" M 263.05 143.20 C 266.23 143.21 269.41 143.20 272.59 143.17 L 272.72 144.31 C 269.48 144.26 266.25 144.26 263.01 144.26 L 263.05 143.20 Z" />
<path fill="#e63e28" opacity="1.00" d=" M 273.30 143.94 C 276.58 142.82 280.11 143.30 283.49 142.68 L 283.83 144.45 C 280.32 144.24 276.79 144.38 273.30 143.94 Z" />
</g>
<g id="#ffffffff">
<path fill="#ffffff" opacity="1.00" d=" M 250.96 12.56 C 254.41 10.30 257.86 8.03 261.21 5.63 C 264.65 8.04 268.19 10.29 271.64 12.69 C 264.74 12.96 257.86 12.24 250.96 12.56 Z" />
<path fill="#ffffff" opacity="1.00" d=" M 221.31 9.62 C 224.15 10.76 227.01 11.88 229.99 12.62 C 226.28 12.39 222.56 12.50 218.85 12.54 C 219.67 11.57 220.49 10.60 221.31 9.62 Z" />
<path fill="#ffffff" opacity="1.00" d=" M 293.58 12.65 C 295.87 11.49 298.24 10.53 300.63 9.60 C 301.59 10.67 302.56 11.74 303.54 12.80 C 300.22 12.75 296.90 12.77 293.58 12.65 Z" />
<path fill="#ffffff" opacity="1.00" d=" M 212.93 15.28 C 218.89 13.93 225.02 14.11 231.09 14.35 C 236.00 14.85 240.97 16.07 245.90 14.98 C 252.84 13.52 259.96 14.56 266.98 14.48 C 273.04 14.08 278.93 16.26 285.00 15.43 C 292.92 14.09 301.09 14.04 309.01 15.44 C 320.00 15.66 331.01 15.35 342.00 15.55 C 343.39 15.48 344.39 16.60 345.55 17.19 C 345.38 28.17 347.61 39.01 347.37 49.99 C 347.52 75.69 348.70 101.35 348.74 127.05 C 348.95 129.13 347.21 131.11 345.05 130.73 C 289.05 130.79 233.04 130.80 177.04 130.45 C 174.57 130.59 171.69 128.77 172.21 126.00 C 172.20 111.00 172.56 96.02 172.81 81.03 C 173.81 67.36 172.91 53.61 173.94 39.95 C 175.50 32.22 173.93 24.17 175.70 16.52 C 178.17 13.76 182.61 14.54 186.00 14.52 C 194.90 15.93 203.96 15.35 212.93 15.28 M 176.71 124.45 C 184.81 124.56 192.91 124.47 201.00 124.51 C 229.65 123.82 258.33 124.69 286.98 123.99 C 306.15 124.01 325.32 123.99 344.50 124.00 C 343.70 89.59 342.78 55.19 342.26 20.78 C 287.98 20.68 233.70 20.82 179.43 20.71 C 178.26 55.28 177.61 89.88 176.71 124.45 Z" />
<path fill="#ffffff" opacity="1.00" d=" M 181.35 22.47 C 234.36 22.57 287.37 22.45 340.39 22.53 C 340.57 40.37 341.27 58.19 341.60 76.04 C 341.62 91.45 342.46 106.83 342.67 122.24 C 305.09 122.05 267.53 122.63 229.95 122.50 C 212.82 122.37 195.71 122.94 178.59 122.75 C 178.52 115.50 178.83 108.26 179.24 101.03 C 179.30 80.02 180.44 59.05 180.61 38.04 C 180.77 32.85 180.65 27.63 181.35 22.47 M 220.35 52.39 C 214.82 56.31 212.89 63.47 212.76 69.94 C 212.98 75.49 214.17 81.55 218.45 85.46 C 223.80 90.58 232.51 90.19 238.64 86.74 C 242.54 84.65 244.08 80.29 245.61 76.43 C 245.14 76.37 244.20 76.26 243.73 76.20 C 242.40 79.16 241.01 82.43 237.99 84.04 C 233.07 87.01 225.48 87.39 221.91 82.15 C 217.00 74.26 217.22 63.32 222.74 55.77 C 225.51 52.00 230.81 51.98 234.95 52.94 C 239.48 53.82 241.44 58.60 245.32 60.61 C 244.46 56.92 243.62 53.20 242.15 49.70 C 241.63 50.25 240.58 51.35 240.05 51.89 C 233.90 49.20 226.16 48.52 220.35 52.39 M 251.89 55.09 C 250.50 59.51 250.71 65.26 254.50 68.50 C 257.00 71.03 260.66 71.64 263.61 73.44 C 269.01 76.42 266.92 87.29 260.06 86.28 C 255.70 86.63 252.66 83.34 249.52 80.91 C 249.94 83.97 250.53 87.03 251.65 89.92 C 252.16 89.33 253.18 88.14 253.69 87.55 C 257.94 89.74 263.38 90.07 267.47 87.33 C 272.63 84.21 274.06 76.45 270.33 71.71 C 267.83 68.62 263.94 67.32 260.56 65.48 C 254.58 63.47 254.75 52.14 261.98 52.70 C 265.45 52.43 268.04 55.02 270.93 56.46 C 270.66 53.92 270.10 51.43 269.24 49.03 C 268.81 49.73 267.96 51.13 267.54 51.83 C 262.59 48.28 254.62 49.27 251.89 55.09 M 283.35 53.35 C 276.75 59.47 275.01 69.56 277.62 77.96 C 278.97 83.04 283.01 87.50 288.15 88.84 C 293.56 89.92 299.44 89.22 304.15 86.22 C 305.39 87.63 306.80 88.87 308.37 89.92 C 308.79 83.86 308.56 77.78 308.54 71.71 C 305.29 71.73 302.04 71.73 298.80 71.90 C 300.03 72.76 301.33 73.55 302.51 74.48 C 303.19 78.00 302.14 82.03 299.46 84.49 C 294.43 88.23 286.13 85.77 284.18 79.72 C 281.35 72.37 281.19 63.33 285.59 56.55 C 288.69 52.05 295.02 51.67 299.79 53.36 C 303.60 54.67 305.49 58.57 308.80 60.62 C 308.16 56.66 307.20 52.70 305.37 49.10 C 304.90 49.81 303.97 51.23 303.50 51.94 C 297.22 48.99 288.79 48.36 283.35 53.35 Z" />
<path fill="#ffffff" opacity="1.00" d=" M 348.80 39.86 C 354.18 41.21 359.78 39.84 365.19 41.00 C 367.74 41.56 370.36 41.53 372.97 41.58 C 374.48 46.89 376.85 51.90 378.41 57.20 C 379.29 59.43 380.00 62.49 382.69 63.14 C 389.20 65.08 395.81 66.70 402.41 68.32 C 403.43 74.14 404.11 80.02 404.96 85.86 C 405.48 88.09 405.66 90.91 408.07 91.97 C 413.75 95.07 419.93 97.11 425.63 100.20 C 425.23 105.48 426.06 110.87 424.81 116.07 C 424.19 119.21 423.89 123.12 426.91 125.15 C 431.80 129.06 436.85 132.77 441.72 136.71 C 440.12 142.50 438.43 148.25 436.76 154.02 C 436.28 156.38 435.97 159.25 437.93 161.06 C 441.93 165.78 445.70 170.69 449.91 175.22 C 447.73 179.55 445.75 184.00 443.11 188.07 C 441.52 190.72 439.70 193.73 440.67 196.95 C 443.13 203.17 446.84 208.77 449.92 214.69 C 445.77 219.63 441.77 224.72 437.45 229.52 C 435.91 231.26 436.42 233.86 436.75 235.95 C 438.47 241.80 440.14 247.66 441.82 253.52 C 436.40 257.50 431.25 261.85 425.93 265.98 C 423.77 267.60 424.50 270.69 424.65 273.01 C 426.06 278.51 425.26 284.21 425.63 289.81 C 419.18 292.98 412.65 296.02 406.36 299.49 C 403.79 306.55 404.50 314.50 402.27 321.70 C 399.26 323.16 395.62 323.36 392.42 324.54 C 388.48 325.98 383.99 326.05 380.42 328.41 C 377.88 334.04 375.99 339.95 373.82 345.73 C 373.22 346.98 373.16 349.02 371.46 349.30 C 364.70 350.08 357.78 348.78 351.08 349.92 C 345.43 355.03 342.65 362.52 338.14 368.59 C 332.83 367.23 327.35 366.67 321.97 365.63 C 319.30 365.53 315.96 364.71 313.90 366.93 C 309.30 371.43 304.81 376.06 300.23 380.59 C 295.45 378.38 290.51 376.55 285.63 374.56 C 282.50 373.28 278.63 372.73 275.66 374.72 C 270.70 377.88 265.83 381.19 261.00 384.55 C 256.15 381.18 251.26 377.85 246.28 374.69 C 243.10 372.58 239.02 373.42 235.72 374.80 C 231.08 376.74 226.34 378.46 221.77 380.59 C 217.18 376.06 212.70 371.43 208.10 366.92 C 206.33 364.89 203.41 365.50 201.04 365.52 C 195.27 366.32 189.55 367.44 183.87 368.71 C 180.15 362.28 176.37 355.80 171.93 349.83 C 164.63 348.98 157.22 349.86 149.89 349.36 C 146.82 342.74 145.23 335.53 141.95 329.00 C 141.34 327.69 140.06 326.90 138.68 326.64 C 132.32 325.13 126.01 323.47 119.65 321.99 C 119.11 316.95 118.20 311.97 117.59 306.94 C 117.34 304.39 117.01 301.68 115.62 299.48 C 109.38 296.01 102.87 293.05 96.50 289.83 C 95.75 282.49 98.39 275.32 97.35 267.99 C 97.22 266.61 95.95 265.81 95.05 264.94 C 90.13 261.16 85.37 257.19 80.44 253.43 C 82.06 247.93 83.66 242.42 85.25 236.91 C 85.62 234.29 86.20 231.05 84.11 228.98 C 80.20 224.35 76.47 219.57 72.40 215.09 C 75.15 209.58 77.96 204.11 80.67 198.60 C 81.86 196.40 81.88 193.64 80.69 191.45 C 78.03 185.92 75.26 180.45 72.00 175.25 C 76.81 170.14 81.59 164.86 85.41 158.97 C 85.89 151.17 81.81 144.00 80.42 136.45 C 83.74 134.53 86.56 131.91 89.57 129.57 C 92.13 127.38 95.15 125.66 97.11 122.86 C 98.73 115.48 95.72 108.12 96.48 100.68 C 102.30 97.78 108.18 94.97 113.94 91.95 C 116.23 90.87 116.71 88.16 117.23 85.95 C 117.85 80.05 118.92 74.21 119.60 68.33 C 126.04 66.59 132.60 65.30 138.98 63.35 C 141.96 62.56 142.84 59.23 143.99 56.76 C 145.72 51.63 147.62 46.56 149.49 41.48 C 151.64 41.49 153.81 41.59 155.93 41.18 C 161.23 39.96 166.69 40.75 172.06 40.38 C 171.63 43.93 171.69 47.52 171.71 51.09 C 141.61 69.84 117.44 98.09 104.01 130.95 C 92.21 159.39 88.52 191.07 93.15 221.48 C 97.89 253.54 112.25 284.03 133.68 308.30 C 156.44 334.23 187.26 353.04 220.79 361.23 C 253.40 369.31 288.39 367.57 319.99 356.12 C 347.84 346.12 373.03 328.70 392.14 306.09 C 417.70 276.27 432.47 237.30 432.60 197.99 C 433.28 164.97 423.79 131.85 405.92 104.10 C 391.53 81.60 371.75 62.65 348.82 48.99 C 348.82 45.95 348.83 42.90 348.80 39.86 Z" />
<path fill="#ffffff" opacity="1.00" d=" M 349.26 55.59 C 375.11 71.57 396.37 94.84 409.96 122.03 C 421.79 145.45 427.81 171.78 427.37 198.02 C 427.10 229.97 417.06 261.74 399.08 288.15 C 390.38 301.14 379.59 312.64 367.70 322.75 C 343.20 343.16 312.69 356.28 280.99 359.85 C 245.50 364.05 208.70 356.30 177.98 338.04 C 152.29 322.91 130.81 300.75 116.55 274.56 C 104.54 252.67 97.76 227.99 96.64 203.06 C 95.11 169.02 104.42 134.55 123.13 106.06 C 135.64 86.74 152.30 70.19 171.51 57.53 C 171.59 61.66 171.43 65.78 171.24 69.91 C 152.04 83.71 135.99 101.92 124.87 122.80 C 112.99 144.88 106.70 169.90 106.64 194.97 C 106.41 222.40 113.65 249.88 127.52 273.57 C 144.39 302.68 171.01 326.06 202.12 338.92 C 230.52 350.89 262.54 353.81 292.73 347.81 C 321.28 342.15 348.08 328.14 369.13 308.06 C 388.92 289.30 403.67 265.23 411.21 239.00 C 419.76 209.44 419.31 177.33 409.81 148.05 C 399.40 115.51 377.66 86.89 349.48 67.66 C 349.50 63.63 349.30 59.61 349.26 55.59 Z" />
<path fill="#ffffff" opacity="1.00" d=" M 349.75 74.31 C 374.53 92.34 393.86 117.89 403.80 146.94 C 413.54 174.84 414.62 205.64 407.02 234.18 C 400.03 260.58 385.61 284.99 365.77 303.76 C 354.92 314.47 342.14 323.03 328.68 330.09 C 328.57 304.69 328.66 279.30 328.63 253.90 C 337.54 253.40 346.46 250.22 353.03 244.06 C 359.67 237.99 364.04 229.13 363.82 220.04 C 364.16 209.49 358.60 199.79 351.85 192.09 C 346.72 186.33 340.35 181.80 333.50 178.32 C 334.31 176.71 335.09 175.10 335.87 173.49 C 354.23 173.51 372.59 173.51 390.96 173.49 C 394.17 173.73 398.02 171.58 397.86 167.99 C 398.22 166.60 396.55 166.05 395.83 165.20 C 381.87 154.21 367.78 143.37 354.00 132.15 C 352.84 131.32 351.44 130.96 350.13 130.45 C 351.33 123.37 350.19 116.17 350.39 109.04 C 350.26 97.46 349.43 85.89 349.75 74.31 Z" />
<path fill="#ffffff" opacity="1.00" d=" M 112.16 196.04 C 111.17 149.84 134.36 104.32 171.17 76.68 C 170.94 93.14 170.27 109.59 170.25 126.06 C 170.03 127.85 171.16 129.29 172.05 130.71 C 167.99 130.79 165.34 134.03 162.36 136.29 C 149.28 146.58 136.23 156.89 123.14 167.15 C 123.57 170.61 126.21 173.82 129.97 173.48 C 148.20 173.54 166.44 173.49 184.67 173.49 C 185.37 175.16 186.08 176.82 186.79 178.49 C 173.28 184.95 161.82 196.60 157.47 211.13 C 155.98 216.59 154.86 222.42 156.11 228.05 C 158.39 239.73 168.04 249.30 179.39 252.45 C 184.23 253.81 189.32 253.62 194.28 253.10 C 194.22 278.52 194.30 303.94 194.24 329.36 C 168.41 316.49 146.63 295.77 132.12 270.84 C 119.05 248.28 111.64 222.19 112.16 196.04 Z" />
<path fill="#ffffff" opacity="1.00" d=" M 167.48 134.51 C 168.52 133.77 169.58 132.75 170.96 132.81 C 176.59 132.62 182.23 132.78 187.87 132.81 C 182.58 137.60 177.06 142.16 172.04 147.25 C 173.61 147.87 175.21 148.60 176.95 148.51 C 187.29 148.65 197.62 148.06 207.96 148.20 C 212.65 148.47 217.31 147.69 221.99 147.78 C 227.60 148.95 233.26 147.67 238.90 147.78 C 240.59 147.98 242.29 148.17 243.99 148.30 C 247.34 148.17 250.70 148.18 254.05 148.20 C 257.05 148.20 260.05 148.19 263.05 148.21 C 265.69 148.25 268.33 148.24 270.98 148.17 C 276.66 148.08 282.35 148.37 288.03 148.24 C 289.32 148.07 290.60 147.91 291.90 147.75 C 296.55 148.79 301.29 147.54 305.97 148.19 C 308.69 148.25 311.42 148.25 314.14 148.23 C 321.43 148.09 328.75 148.61 336.02 147.85 C 341.06 147.41 346.27 149.30 351.15 147.26 C 346.57 142.06 341.36 137.47 336.49 132.55 C 341.35 132.57 346.24 132.27 351.10 132.63 C 353.58 133.70 355.41 135.82 357.52 137.44 C 369.68 147.19 382.11 156.61 394.19 166.45 C 352.88 166.60 311.57 166.38 270.27 166.56 L 270.12 165.32 C 280.05 165.05 290.00 165.56 299.93 165.03 C 299.31 160.77 297.70 156.75 296.15 152.76 C 295.67 151.43 294.74 149.88 293.08 150.05 C 271.09 149.87 249.09 150.05 227.10 150.20 C 224.81 151.81 224.67 155.06 223.49 157.43 C 222.75 160.43 219.49 164.24 223.17 166.58 C 191.25 166.32 159.31 166.67 127.39 166.41 C 140.53 155.50 154.26 145.32 167.48 134.51 Z" />
<path fill="#ffffff" opacity="1.00" d=" M 186.73 136.08 C 190.26 133.30 195.34 136.22 198.93 133.22 C 198.77 133.62 198.45 134.42 198.28 134.82 C 200.68 134.80 203.09 134.80 205.49 134.80 L 205.52 136.16 C 202.65 136.17 199.78 136.09 196.95 135.59 C 197.05 135.88 197.24 136.46 197.33 136.75 C 197.73 137.09 198.53 137.77 198.93 138.11 C 194.69 138.75 190.40 138.37 186.13 138.52 L 186.26 137.28 C 189.09 136.88 192.89 138.14 195.12 136.23 C 192.32 136.03 189.52 136.19 186.73 136.08 Z" />
<path fill="#ffffff" opacity="1.00" d=" M 206.64 134.58 C 207.65 134.06 208.65 133.54 209.66 133.02 C 209.58 133.48 209.41 134.41 209.33 134.87 C 212.87 134.77 216.66 135.29 219.83 133.31 C 219.68 133.69 219.39 134.44 219.24 134.82 C 223.15 134.89 227.22 135.12 230.78 133.20 C 230.64 133.62 230.37 134.47 230.24 134.90 C 240.66 134.23 251.05 135.36 261.48 134.78 C 261.60 134.17 261.84 132.95 261.96 132.34 C 262.10 132.99 262.38 134.29 262.53 134.94 C 265.38 134.82 268.24 134.66 271.09 134.35 C 273.24 133.29 275.68 133.46 278.00 133.48 C 282.99 133.73 288.22 132.75 292.88 135.10 L 292.39 133.43 C 296.47 133.47 300.55 133.53 304.64 133.45 C 304.55 133.82 304.37 134.57 304.28 134.94 C 311.07 134.51 317.90 134.52 324.70 134.82 C 324.65 134.42 324.55 133.63 324.51 133.23 C 324.76 133.20 325.25 133.14 325.50 133.10 C 325.45 133.55 325.36 134.43 325.31 134.87 C 329.39 134.84 333.46 134.80 337.53 134.49 C 331.49 138.55 324.08 134.50 317.44 136.02 C 318.60 137.38 319.77 138.75 320.95 140.11 C 319.00 140.71 319.45 142.19 320.06 143.63 C 321.44 143.58 322.83 143.53 324.22 143.49 C 324.67 144.95 325.12 146.42 325.56 147.89 C 324.48 147.10 323.41 146.30 322.36 145.48 C 319.32 145.48 316.28 145.47 313.25 145.32 C 313.38 145.79 313.63 146.74 313.76 147.21 L 311.81 147.35 C 311.33 146.22 310.86 145.09 310.38 143.96 C 313.01 143.85 315.65 143.70 318.28 143.54 C 318.08 142.62 317.84 141.72 317.55 140.83 C 315.88 140.62 314.23 140.39 312.58 140.13 C 314.66 139.64 316.92 139.38 318.66 137.98 C 315.10 138.48 311.48 138.69 307.93 137.98 C 308.42 138.59 309.40 139.81 309.89 140.42 C 309.06 140.40 307.40 140.35 306.57 140.33 C 307.77 141.21 308.48 142.46 308.88 143.86 C 309.48 144.48 310.67 145.72 311.27 146.34 C 307.39 146.62 303.37 145.93 299.63 147.31 C 299.39 146.25 299.14 145.19 298.90 144.14 C 301.52 144.58 304.18 144.45 306.83 144.28 C 306.77 143.84 306.64 142.96 306.57 142.53 C 303.15 143.55 299.58 143.51 296.06 143.72 C 292.66 143.42 289.26 143.46 285.86 143.42 C 285.92 143.71 286.03 144.29 286.09 144.58 C 290.29 144.50 294.49 144.54 298.70 144.51 L 298.64 146.51 C 294.34 146.46 290.04 146.32 285.75 146.72 C 265.89 146.24 245.97 146.43 226.10 146.63 C 220.14 146.40 214.16 146.25 208.21 146.68 C 203.74 146.28 199.25 146.60 194.77 146.31 C 196.45 143.12 200.44 144.59 203.28 144.27 C 203.73 143.28 204.17 142.29 204.64 141.32 C 204.06 140.92 202.92 140.12 202.34 139.73 C 205.30 139.64 208.52 138.92 211.23 140.50 C 210.02 140.57 207.60 140.69 206.39 140.76 L 206.30 141.79 C 209.14 141.76 211.97 141.71 214.81 141.75 L 214.63 141.31 C 213.75 138.43 219.07 139.52 220.69 139.04 C 220.80 139.29 221.03 139.77 221.14 140.01 C 220.28 141.06 219.00 141.33 217.29 140.83 L 217.35 141.82 C 220.47 141.68 223.63 141.59 226.69 142.35 C 226.76 142.05 226.88 141.47 226.95 141.17 L 224.15 141.11 C 226.14 139.12 228.98 139.19 231.59 139.17 L 231.58 138.06 C 228.85 138.21 226.13 138.39 223.41 138.56 L 223.39 137.04 C 228.42 136.55 233.43 137.60 238.47 137.08 C 238.15 136.78 237.52 136.19 237.20 135.90 C 232.77 136.47 228.34 135.34 223.93 136.06 C 221.58 136.36 219.25 135.80 216.91 135.70 C 218.42 136.54 219.94 137.37 221.47 138.19 C 218.45 138.30 215.43 138.19 212.42 138.23 C 212.63 139.04 212.76 139.87 212.81 140.71 C 212.27 140.42 211.19 139.84 210.66 139.56 L 210.15 139.64 C 210.10 138.58 210.05 137.51 210.02 136.45 C 212.50 136.72 215.00 136.86 217.49 136.92 C 217.32 136.60 216.98 135.96 216.81 135.64 C 213.43 136.26 210.01 135.78 206.61 135.94 C 207.14 136.11 208.21 136.44 208.74 136.61 C 208.88 137.10 209.17 138.07 209.32 138.56 C 206.33 138.40 203.19 138.88 200.38 137.57 C 201.65 137.46 204.18 137.24 205.45 137.13 C 205.85 136.28 206.25 135.43 206.64 134.58 M 272.90 134.64 C 274.80 135.31 277.12 135.29 279.04 134.65 C 277.93 133.46 273.98 133.45 272.90 134.64 M 280.86 134.23 C 281.45 134.82 281.45 134.82 280.86 134.23 M 283.90 134.29 C 284.74 135.64 287.63 135.17 289.09 134.68 C 288.24 133.32 285.36 133.87 283.90 134.29 M 294.25 134.18 C 295.11 135.67 298.21 135.34 299.71 134.71 C 298.80 133.26 295.78 133.70 294.25 134.18 M 301.61 134.13 C 301.80 137.41 304.69 132.63 301.61 134.13 M 243.85 137.36 C 243.69 137.77 243.36 138.58 243.20 138.98 C 239.72 138.39 236.20 138.44 232.70 138.15 C 233.31 138.60 234.54 139.51 235.15 139.97 C 235.07 140.18 234.91 140.60 234.83 140.81 C 232.49 140.60 230.11 140.72 227.87 141.47 C 231.61 141.86 235.38 141.71 239.14 141.76 C 238.34 141.44 236.75 140.82 235.95 140.51 C 238.23 138.56 241.56 139.73 244.25 140.00 C 242.67 140.60 240.83 140.81 239.76 142.26 C 241.33 142.12 242.90 141.96 244.47 141.78 C 244.57 140.93 244.67 140.06 245.01 139.26 C 248.07 139.21 251.27 139.68 254.19 138.49 C 251.11 138.07 247.99 138.17 244.90 138.50 C 244.88 138.02 244.84 137.04 244.82 136.55 C 249.60 136.81 254.41 137.73 259.18 136.74 C 261.05 137.02 262.93 137.19 264.83 137.27 C 263.80 136.31 262.48 135.47 260.99 135.78 C 253.89 136.18 246.80 135.82 239.69 135.98 C 238.10 137.52 242.89 136.81 243.85 137.36 M 265.25 136.21 C 265.23 136.45 265.19 136.92 265.16 137.16 C 272.53 137.06 279.95 136.60 287.30 137.43 L 287.21 138.14 C 287.05 138.44 286.72 139.04 286.55 139.34 C 283.45 138.35 280.19 138.38 276.97 138.36 C 276.01 139.60 274.89 140.70 273.73 141.75 C 277.43 141.45 281.25 141.88 284.84 140.69 C 288.22 142.02 292.34 142.29 295.77 141.03 C 293.39 140.64 290.97 140.57 288.59 140.90 C 288.52 140.44 288.39 139.53 288.33 139.07 C 291.07 139.05 294.49 140.25 296.64 137.91 C 293.84 137.79 290.85 138.91 288.20 137.80 C 288.80 136.88 289.62 136.15 290.66 135.59 C 286.52 136.93 282.29 135.36 278.10 135.91 C 273.84 136.80 269.50 134.90 265.25 136.21 M 291.26 135.69 L 291.57 137.37 C 296.11 137.38 300.66 136.50 305.19 137.16 C 307.66 137.54 310.19 137.24 312.32 135.83 C 307.16 136.46 301.99 135.43 296.85 136.16 C 294.97 136.40 293.10 135.95 291.26 135.69 M 312.26 136.03 C 312.91 137.49 315.63 137.42 316.98 136.88 C 316.26 135.49 313.63 135.59 312.26 136.03 M 253.34 139.22 C 257.17 139.41 261.03 139.41 264.85 138.92 C 261.19 137.61 256.96 137.93 253.34 139.22 M 265.20 138.36 L 265.36 139.43 C 268.66 139.32 271.96 139.33 275.26 139.11 C 272.52 136.90 268.43 138.84 265.20 138.36 M 296.76 138.27 C 297.44 138.70 298.79 139.56 299.46 139.99 C 298.55 140.46 296.73 141.41 295.82 141.88 C 299.40 141.62 302.99 141.71 306.58 141.78 C 305.40 141.10 303.54 141.32 302.85 139.99 C 303.73 138.38 306.17 139.39 307.60 138.70 C 304.06 137.76 300.37 138.50 296.76 138.27 M 246.42 140.93 C 246.25 142.37 248.74 142.47 249.46 141.59 C 249.59 140.19 247.15 140.13 246.42 140.93 M 251.50 141.60 C 252.60 142.29 255.27 142.43 255.68 140.96 C 254.59 140.22 251.91 140.17 251.50 141.60 M 257.41 140.95 C 257.18 142.47 260.79 142.60 260.49 141.04 C 259.46 140.25 258.44 140.22 257.41 140.95 M 263.47 141.05 C 263.26 142.59 266.86 142.45 266.57 140.93 C 265.52 140.21 264.48 140.25 263.47 141.05 M 268.44 140.93 C 268.31 142.36 270.80 142.38 271.57 141.59 C 271.67 140.18 269.20 140.16 268.44 140.93 M 205.07 144.31 C 208.83 144.43 212.59 144.38 216.34 144.08 C 213.25 141.84 209.11 144.40 205.74 142.55 C 205.58 142.99 205.24 143.87 205.07 144.31 M 217.13 144.26 C 220.42 144.24 223.71 144.38 227.00 144.30 C 224.12 142.45 220.41 143.48 217.23 142.51 C 217.20 142.94 217.15 143.82 217.13 144.26 M 228.45 142.62 L 228.30 144.40 C 231.90 144.19 235.59 144.62 239.10 143.58 C 235.55 143.16 231.97 143.23 228.45 142.62 M 238.57 144.00 C 242.70 144.40 246.87 144.42 251.00 143.99 C 247.02 142.77 242.54 142.72 238.57 144.00 M 251.42 144.33 C 254.97 144.27 258.53 144.39 262.05 143.94 C 258.63 142.86 254.97 143.29 251.47 142.67 C 251.46 143.09 251.43 143.91 251.42 144.33 M 263.05 143.20 L 263.01 144.26 C 266.25 144.26 269.48 144.26 272.72 144.31 L 272.59 143.17 C 269.41 143.20 266.23 143.21 263.05 143.20 M 273.30 143.94 C 276.79 144.38 280.32 144.24 283.83 144.45 L 283.49 142.68 C 280.11 143.30 276.58 142.82 273.30 143.94 Z" />
<path fill="#ffffff" opacity="1.00" d=" M 320.35 137.39 C 322.11 136.64 325.28 136.64 326.57 137.94 C 324.80 138.41 321.39 139.03 320.35 137.39 Z" />
<path fill="#ffffff" opacity="1.00" d=" M 328.46 137.46 C 329.86 137.14 330.41 137.67 330.10 139.05 C 328.72 139.40 328.17 138.86 328.46 137.46 Z" />
<path fill="#ffffff" opacity="1.00" d=" M 199.73 137.74 C 200.32 138.34 200.32 138.34 199.73 137.74 Z" />
<path fill="#ffffff" opacity="1.00" d=" M 200.20 140.02 C 201.00 138.75 201.73 138.76 202.37 140.04 C 201.55 141.27 200.82 141.26 200.20 140.02 Z" />
<path fill="#ffffff" opacity="1.00" d=" M 223.39 138.98 C 224.43 139.72 224.40 140.50 223.30 141.33 C 222.03 140.73 222.06 139.95 223.39 138.98 Z" />
<path fill="#ffffff" opacity="1.00" d=" M 277.95 139.32 C 281.37 139.53 276.34 142.26 277.95 139.32 Z" />
<path fill="#ffffff" opacity="1.00" d=" M 300.14 139.06 C 302.37 139.07 300.31 142.38 299.67 139.85 L 300.14 139.06 Z" />
<path fill="#ffffff" opacity="1.00" d=" M 311.05 139.34 C 314.47 139.67 309.35 142.21 311.05 139.34 Z" />
<path fill="#ffffff" opacity="1.00" d=" M 321.85 139.47 C 323.23 139.04 323.77 139.55 323.45 140.97 C 322.08 141.38 321.55 140.88 321.85 139.47 Z" />
<path fill="#ffffff" opacity="1.00" d=" M 181.45 140.30 C 182.01 140.88 182.01 140.88 181.45 140.30 Z" />
<path fill="#ffffff" opacity="1.00" d=" M 195.25 139.88 C 196.35 139.15 197.45 139.15 198.55 139.88 C 198.67 141.33 195.08 141.35 195.25 139.88 Z" />
<path fill="#ffffff" opacity="1.00" d=" M 180.64 141.15 C 180.04 142.56 179.20 143.84 178.11 144.92 C 183.92 143.92 189.88 145.25 195.65 144.01 C 195.10 145.03 194.56 146.06 194.02 147.09 C 189.09 145.92 183.98 146.68 178.96 146.41 C 178.23 145.98 177.48 145.59 176.71 145.22 C 176.59 145.89 176.36 147.22 176.24 147.89 C 175.63 147.65 174.41 147.17 173.81 146.92 C 175.99 144.89 178.19 142.87 180.64 141.15 Z" />
<path fill="#ffffff" opacity="1.00" d=" M 180.09 143.30 C 181.21 142.47 182.29 141.14 183.88 141.51 C 190.21 141.45 196.53 141.73 202.86 141.71 C 202.84 141.99 202.80 142.54 202.77 142.82 C 195.29 143.80 187.64 143.50 180.09 143.30 Z" />
<path fill="#ffffff" opacity="1.00" d=" M 316.79 143.06 C 314.13 142.87 309.89 144.88 308.72 141.43 C 311.41 141.55 314.13 141.59 316.77 142.20 C 316.78 142.41 316.78 142.85 316.79 143.06 Z" />
<path fill="#ffffff" opacity="1.00" d=" M 226.96 151.34 C 249.34 150.91 271.73 150.92 294.11 151.08 C 295.84 155.39 297.54 159.73 298.89 164.18 C 273.35 164.30 247.81 164.67 222.26 164.48 C 223.74 160.06 225.50 155.76 226.96 151.34 Z" />
<path fill="#ffffff" opacity="1.00" d=" M 124.67 168.55 C 126.11 168.41 127.55 168.31 129.00 168.27 C 166.10 168.18 203.20 168.35 240.30 168.19 C 240.43 169.40 240.57 170.61 240.72 171.83 C 206.14 171.65 171.55 171.78 136.97 171.76 C 132.68 171.68 127.48 172.75 124.67 168.55 Z" />
<path fill="#ffffff" opacity="1.00" d=" M 241.07 168.52 C 253.93 167.90 266.82 168.45 279.69 168.23 C 279.44 169.57 279.92 171.63 277.94 171.63 C 266.64 171.88 255.30 171.75 243.99 171.69 C 242.08 171.90 241.49 169.96 241.07 168.52 Z" />
<path fill="#ffffff" opacity="1.00" d=" M 280.59 168.38 C 310.37 168.09 340.16 168.34 369.94 168.25 C 378.78 168.34 387.62 168.07 396.45 168.41 C 394.20 172.79 388.97 171.69 384.93 171.76 C 350.17 171.77 315.41 171.67 280.65 171.81 C 280.64 170.96 280.61 169.24 280.59 168.38 Z" />
<path fill="#ffffff" opacity="1.00" d=" M 188.91 173.54 C 236.49 173.45 284.07 173.53 331.65 173.50 C 330.80 175.40 329.96 177.31 329.15 179.23 C 283.25 179.31 237.36 179.14 191.47 179.31 C 190.56 177.41 189.71 175.49 188.91 173.54 Z" />
<path fill="#ffffff" opacity="1.00" d=" M 167.48 203.41 C 172.06 195.13 178.74 187.72 187.11 183.20 C 233.05 182.72 279.03 183.17 324.98 182.97 C 327.01 183.04 329.24 182.74 331.05 183.90 C 342.84 190.49 352.28 201.83 355.23 215.15 C 356.64 223.87 356.25 233.96 349.65 240.61 C 341.16 250.40 324.60 252.03 314.99 243.00 C 306.28 235.81 304.66 220.98 312.67 212.72 C 320.96 204.31 337.80 212.29 336.70 224.03 C 337.07 229.54 331.52 234.45 326.11 233.27 C 321.50 232.37 319.21 226.64 320.81 222.51 C 323.44 222.05 325.16 224.28 326.36 226.26 C 325.58 226.86 324.02 228.06 323.24 228.66 C 327.03 231.35 334.03 229.30 333.62 224.03 C 331.69 217.41 322.38 214.73 317.13 219.20 C 311.37 223.32 312.44 233.08 318.63 236.28 C 327.99 241.26 341.43 235.49 343.84 225.02 C 345.47 219.61 343.55 213.34 339.02 209.93 C 333.10 205.40 325.24 204.14 317.97 204.90 C 314.57 205.20 311.32 206.54 308.63 208.62 C 304.76 211.79 299.60 212.29 294.99 213.77 C 270.04 220.47 242.48 222.35 218.30 211.83 C 213.35 210.11 209.71 205.77 204.49 204.72 C 196.67 203.08 188.21 205.04 181.78 209.75 C 178.12 212.36 175.63 216.46 174.98 220.92 C 173.74 227.31 178.30 233.58 184.09 235.92 C 189.57 238.12 196.71 238.69 201.37 234.42 C 204.46 231.52 206.66 227.29 206.37 222.98 C 205.90 219.02 201.85 216.28 197.99 216.72 C 193.44 217.20 188.88 219.56 186.20 223.32 C 184.04 226.10 186.85 230.08 190.04 230.03 C 192.39 230.11 194.23 228.51 195.98 227.17 C 195.22 226.60 193.69 225.44 192.93 224.86 C 193.56 223.81 194.26 222.80 195.03 221.84 C 198.61 222.37 199.24 227.11 198.12 229.91 C 192.96 235.37 182.23 230.41 182.32 223.07 C 181.95 215.95 187.77 208.79 195.06 208.48 C 200.69 207.97 206.35 211.02 209.30 215.78 C 212.32 221.38 211.81 228.15 210.39 234.14 C 209.10 239.65 205.98 245.18 200.66 247.63 C 194.38 250.62 187.01 249.09 181.00 246.19 C 172.91 242.29 165.63 235.38 163.52 226.40 C 161.45 218.60 163.80 210.35 167.48 203.41 Z" />
<path fill="#ffffff" opacity="1.00" d=" M 293.07 216.97 C 296.64 215.98 300.20 214.99 303.74 213.89 C 301.59 218.06 300.59 222.67 300.30 227.33 C 297.72 224.00 295.39 220.49 293.07 216.97 Z" />
<path fill="#ffffff" opacity="1.00" d=" M 217.71 217.07 C 219.73 217.72 221.76 218.34 223.79 218.97 C 222.24 221.09 220.67 223.21 218.95 225.20 C 218.71 222.46 218.45 219.72 217.71 217.07 Z" />
<path fill="#ffffff" opacity="1.00" d=" M 273.06 220.98 C 278.33 220.15 283.57 219.15 288.79 218.04 C 285.55 221.41 282.75 225.17 279.50 228.54 C 277.32 226.05 275.22 223.49 273.06 220.98 Z" />
<path fill="#ffffff" opacity="1.00" d=" M 230.38 220.54 C 234.83 221.28 239.30 221.87 243.80 222.23 C 241.25 224.82 238.69 227.40 236.03 229.87 C 234.22 226.72 232.29 223.63 230.38 220.54 Z" />
<path fill="#ffffff" opacity="1.00" d=" M 220.03 230.72 C 222.16 227.68 224.24 224.57 226.83 221.88 C 228.49 224.88 230.29 227.80 232.07 230.72 C 228.06 230.76 224.04 230.77 220.03 230.72 Z" />
<path fill="#ffffff" opacity="1.00" d=" M 253.45 222.65 C 257.21 222.40 260.96 222.18 264.73 221.98 C 262.62 224.07 260.53 226.17 258.44 228.28 C 256.71 226.47 255.07 224.57 253.45 222.65 Z" />
<path fill="#ffffff" opacity="1.00" d=" M 282.88 230.71 C 285.61 227.45 288.48 224.31 291.12 220.98 C 293.30 224.26 295.56 227.50 297.76 230.77 C 292.80 230.72 287.84 230.78 282.88 230.71 Z" />
<path fill="#ffffff" opacity="1.00" d=" M 240.96 230.76 C 243.50 228.12 246.09 225.52 248.79 223.04 C 250.86 225.66 253.08 228.16 255.27 230.68 C 250.50 230.79 245.72 230.74 240.96 230.76 Z" />
<path fill="#ffffff" opacity="1.00" d=" M 261.39 230.73 C 264.05 228.01 266.70 225.27 269.58 222.77 C 271.72 225.48 274.01 228.07 276.26 230.70 C 271.30 230.78 266.34 230.75 261.39 230.73 Z" />
<path fill="#ffffff" opacity="1.00" d=" M 217.60 234.46 C 245.49 234.61 273.38 234.39 301.26 234.57 C 301.47 235.89 301.68 237.22 301.89 238.54 C 273.28 238.43 244.67 238.54 216.06 238.49 C 216.57 237.14 217.08 235.80 217.60 234.46 Z" />
<path fill="#ffffff" opacity="1.00" d=" M 207.17 248.18 C 209.97 246.39 212.17 243.85 214.63 241.64 C 214.91 273.76 214.69 305.90 214.74 338.03 C 208.96 336.01 203.25 333.80 197.74 331.12 C 197.72 304.93 197.83 278.75 197.68 252.56 C 200.88 251.19 204.23 250.10 207.17 248.18 Z" />
<path fill="#ffffff" opacity="1.00" d=" M 218.63 242.25 C 224.57 242.25 230.51 242.28 236.45 242.22 C 236.45 275.96 236.48 309.70 236.44 343.45 C 230.42 342.34 224.47 340.92 218.60 339.23 C 218.62 306.90 218.55 274.57 218.63 242.25 Z" />
<path fill="#ffffff" opacity="1.00" d=" M 240.34 242.22 C 246.44 242.27 252.54 242.27 258.64 242.23 C 258.62 276.69 258.72 311.15 258.59 345.62 C 252.48 345.33 246.37 344.90 240.32 344.01 C 240.36 310.08 240.31 276.15 240.34 242.22 Z" />
<path fill="#ffffff" opacity="1.00" d=" M 262.51 242.22 C 268.63 242.38 274.76 242.02 280.86 242.39 C 281.15 243.57 281.27 244.78 281.25 246.00 C 281.17 270.67 281.26 295.34 281.20 320.01 C 281.04 328.15 281.55 336.31 280.93 344.43 C 274.81 345.07 268.68 345.60 262.52 345.55 C 262.50 311.11 262.52 276.66 262.51 242.22 Z" />
<path fill="#ffffff" opacity="1.00" d=" M 284.72 242.25 C 290.00 242.25 295.29 242.27 300.57 242.23 C 300.58 275.02 300.57 307.81 300.58 340.60 C 295.32 341.87 290.03 343.04 284.68 343.82 C 284.71 309.96 284.64 276.11 284.72 242.25 Z" />
<path fill="#ffffff" opacity="1.00" d=" M 304.45 242.59 C 309.57 248.68 316.80 252.77 324.73 253.73 C 324.74 279.77 324.72 305.81 324.74 331.85 C 318.15 334.86 311.34 337.36 304.44 339.53 C 304.40 307.22 304.37 274.90 304.45 242.59 Z" />
</g>
<g id="#1c8945ff">
<path fill="#1c8945" opacity="1.00" d=" M 469.90 220.88 C 470.70 220.42 471.50 219.95 472.31 219.49 C 479.36 225.00 483.70 233.38 486.09 241.86 C 488.41 251.44 486.82 262.59 479.55 269.72 C 480.55 275.57 480.33 281.51 480.16 287.42 C 485.36 284.83 490.12 281.15 495.95 280.00 C 503.84 278.38 512.43 277.44 520.08 280.60 C 518.48 287.43 513.12 292.55 507.71 296.62 C 499.13 302.77 487.86 304.25 477.65 302.38 C 475.76 310.16 472.22 317.35 469.70 324.92 C 477.92 320.85 487.27 320.53 496.20 321.77 C 501.13 322.55 505.95 324.16 510.12 326.96 C 506.09 334.69 497.65 339.15 489.54 341.39 C 480.31 343.05 470.10 342.34 462.06 337.13 C 457.00 344.56 451.27 351.51 445.04 357.97 C 442.78 360.29 440.33 362.45 438.48 365.14 C 442.96 364.31 447.41 363.03 452.02 363.22 C 459.52 362.95 466.80 365.39 473.48 368.59 C 476.27 369.89 478.55 372.00 480.67 374.19 C 469.00 386.65 448.11 387.08 434.52 377.53 C 432.32 376.05 431.11 373.62 430.91 371.01 C 424.61 375.34 418.58 380.09 411.90 383.84 C 409.67 385.28 406.77 386.16 405.58 388.75 C 417.80 390.02 428.25 397.87 435.36 407.52 C 436.69 409.21 437.38 411.27 437.96 413.32 C 429.03 417.06 418.64 416.05 410.02 411.99 C 402.60 407.91 395.49 402.04 392.56 393.84 C 375.54 400.66 357.37 405.79 338.89 405.11 C 339.92 403.92 341.27 403.10 342.89 403.31 C 353.65 403.13 364.31 401.14 374.63 398.12 C 370.14 392.03 370.13 384.01 371.26 376.86 C 373.21 366.92 378.96 357.98 386.43 351.25 C 387.41 351.26 388.39 351.27 389.38 351.29 C 393.49 358.77 394.47 367.66 393.06 376.00 C 391.67 382.68 387.61 388.29 384.59 394.28 C 388.57 393.53 392.19 391.69 395.77 389.88 C 403.66 386.59 411.01 382.18 418.09 377.42 C 410.37 369.95 409.42 358.09 411.12 348.04 C 412.55 341.97 414.00 335.35 418.72 330.90 C 424.38 336.84 427.48 344.93 428.07 353.05 C 428.40 359.70 426.12 366.03 424.78 372.44 C 434.21 365.68 443.09 357.84 450.06 348.51 C 441.90 344.94 437.10 336.41 434.74 328.18 C 432.95 319.27 432.29 309.35 436.43 300.97 C 443.90 304.10 449.57 310.67 453.12 317.81 C 456.61 324.53 456.61 332.28 456.81 339.66 C 464.49 329.37 470.40 317.64 473.62 305.19 C 464.65 305.05 457.36 298.62 452.18 291.86 C 447.05 284.01 443.44 274.67 444.28 265.15 C 452.94 265.31 460.87 270.19 466.63 276.38 C 470.76 280.58 473.09 286.10 475.25 291.49 C 477.00 290.61 476.77 288.59 476.94 287.00 C 477.16 281.35 477.24 275.67 476.48 270.06 C 469.36 267.34 466.50 259.27 464.85 252.45 C 463.32 241.81 464.79 230.43 469.90 220.88 Z" />
<path fill="#1c8945" opacity="1.00" d=" M 46.16 222.21 C 46.82 222.22 48.14 222.22 48.80 222.23 C 53.10 228.29 54.42 235.86 55.27 243.09 C 56.30 251.68 54.49 260.74 49.38 267.82 C 47.88 270.00 45.62 271.43 43.32 272.63 C 42.93 279.95 42.58 287.43 44.38 294.61 C 47.40 288.70 49.40 282.02 54.41 277.37 C 60.13 271.80 67.62 266.89 75.89 267.10 C 76.60 281.73 69.17 296.76 56.59 304.47 C 53.70 306.32 50.30 307.01 46.95 307.47 C 50.24 318.14 54.99 328.38 61.36 337.56 C 62.19 338.68 63.20 339.64 64.19 340.62 C 64.47 336.82 64.27 333.00 64.71 329.22 C 66.02 319.93 71.29 311.40 78.62 305.64 C 80.23 304.30 82.19 303.54 84.18 302.97 C 86.74 307.92 87.32 313.53 87.11 319.02 C 87.54 331.11 82.26 344.50 71.27 350.53 C 78.60 359.14 86.98 366.85 96.22 373.37 C 95.21 367.57 93.03 361.97 93.00 356.01 C 93.07 348.74 95.38 341.50 99.44 335.48 C 100.28 334.04 101.78 333.36 103.29 332.85 C 109.64 343.20 112.93 356.21 109.40 368.11 C 108.47 372.09 106.31 375.60 103.79 378.76 C 114.29 385.49 125.37 391.68 137.36 395.29 C 133.93 389.75 130.09 384.28 128.54 377.84 C 126.32 369.20 127.85 359.92 131.81 352.02 C 135.34 351.98 137.51 354.98 139.68 357.30 C 146.26 365.02 150.92 374.77 151.06 385.04 C 151.18 389.88 149.50 394.50 147.77 398.94 C 156.92 401.58 166.37 403.22 175.89 403.70 C 178.17 403.82 180.50 403.93 182.62 404.89 C 180.78 405.47 178.89 405.90 176.95 405.87 C 160.41 405.24 144.17 401.16 128.79 395.17 C 126.70 402.71 120.32 407.97 114.02 412.06 C 105.23 417.52 93.98 418.46 84.18 415.38 C 84.39 411.69 86.62 408.61 88.96 405.92 C 93.40 400.98 98.36 396.31 104.41 393.42 C 108.21 391.56 112.40 390.80 116.46 389.75 C 107.69 384.41 98.75 379.32 90.60 373.03 C 89.39 380.01 81.81 382.53 75.94 384.41 C 64.52 388.38 51.76 385.39 42.13 378.48 C 42.20 377.12 42.20 375.76 42.46 374.44 C 53.53 365.51 68.95 363.10 82.53 366.89 C 79.38 363.23 75.79 359.99 72.43 356.52 C 67.27 351.23 62.95 345.21 58.45 339.37 C 51.29 344.05 42.39 345.00 34.05 344.16 C 25.23 343.05 17.13 338.24 11.34 331.58 C 11.30 330.97 11.22 329.76 11.18 329.16 C 18.82 324.36 28.20 323.06 37.07 323.37 C 41.62 323.61 45.89 325.31 50.31 326.23 C 47.89 319.17 44.82 312.33 42.65 305.18 C 38.55 304.76 33.87 306.59 29.53 305.26 C 18.48 304.45 8.47 297.96 2.33 288.88 C 1.28 287.19 0.64 285.29 0.01 283.42 C 5.60 280.60 12.03 281.24 18.06 281.49 C 26.11 281.98 33.62 285.45 40.03 290.19 C 39.60 284.09 39.87 278.00 40.27 271.92 C 32.84 264.37 31.12 252.74 33.90 242.79 C 36.12 235.04 40.19 227.71 46.16 222.21 Z" />
<path fill="#1c8945" opacity="1.00" d=" M 151.13 428.11 C 153.58 424.00 158.17 421.52 162.91 421.35 C 166.74 420.92 170.41 422.18 174.08 423.05 C 174.59 422.52 175.62 421.46 176.13 420.92 C 177.25 424.33 178.35 427.76 179.06 431.29 C 176.28 428.60 173.91 425.03 169.96 424.01 C 165.72 422.97 160.38 422.81 157.18 426.28 C 154.07 430.12 152.70 435.14 152.39 440.00 C 152.72 445.40 153.32 451.56 157.59 455.41 C 161.79 458.99 168.05 458.14 172.57 455.65 C 176.00 454.06 176.96 450.11 179.22 447.40 C 178.47 451.21 176.64 455.09 173.31 457.30 C 169.22 460.14 163.90 460.65 159.11 459.74 C 153.31 458.39 149.37 452.83 148.37 447.18 C 146.75 440.79 147.80 433.79 151.13 428.11 Z" />
<path fill="#1c8945" opacity="1.00" d=" M 188.76 423.84 C 192.38 420.13 198.18 421.01 202.24 423.46 C 202.77 422.54 203.30 421.63 203.83 420.72 C 204.14 422.90 204.48 425.08 204.83 427.26 C 201.71 424.40 197.73 423.29 193.55 423.65 C 191.25 425.72 189.26 428.68 190.42 431.91 C 191.81 437.35 198.21 437.98 202.06 441.01 C 208.10 444.87 207.44 454.91 201.42 458.48 C 197.32 461.19 192.15 460.11 187.82 458.61 C 187.36 459.07 186.44 459.97 185.98 460.42 C 185.42 457.89 184.86 455.34 184.37 452.80 C 187.95 457.14 193.70 458.92 199.10 457.30 C 201.29 454.14 201.54 449.96 200.46 446.38 C 197.72 442.80 192.48 442.84 189.43 439.60 C 185.06 435.67 184.19 427.96 188.76 423.84 Z" />
<path fill="#1c8945" opacity="1.00" d=" M 218.58 424.63 C 224.04 419.91 232.23 420.65 238.35 423.66 C 238.75 422.92 239.56 421.44 239.96 420.71 C 241.11 424.22 242.17 427.78 242.99 431.39 C 240.26 428.62 237.84 425.08 233.86 424.06 C 229.01 422.63 222.79 423.27 219.74 427.77 C 215.19 434.75 215.45 443.90 218.50 451.42 C 220.72 457.07 228.22 459.57 233.46 456.62 C 237.10 454.32 238.47 449.33 237.55 445.28 C 236.43 444.59 235.20 444.12 234.01 443.60 C 236.99 443.46 239.97 443.29 242.96 443.28 C 243.00 449.02 243.26 454.77 242.71 460.49 C 241.39 459.44 240.15 458.27 238.96 457.07 C 233.97 460.19 227.82 460.89 222.15 459.55 C 217.76 458.13 214.45 454.27 213.02 449.97 C 209.91 441.42 211.79 430.91 218.58 424.63 Z" />
<path fill="#1c8945" opacity="1.00" d=" M 253.98 421.72 C 258.32 421.23 262.69 421.31 267.05 421.32 C 265.79 421.96 264.50 422.56 263.33 423.35 C 262.97 425.55 263.17 427.78 263.24 430.00 C 270.15 429.83 275.15 437.61 272.88 443.93 C 271.30 448.08 267.52 451.04 263.15 451.73 C 263.17 453.92 262.94 456.16 263.47 458.31 C 264.67 458.82 265.88 459.30 267.12 459.72 C 263.44 459.99 259.76 460.19 256.07 460.19 C 258.40 457.99 257.97 454.75 258.06 451.86 C 252.70 450.93 247.77 446.62 247.66 440.93 C 247.70 435.23 252.56 430.76 257.92 429.74 C 257.94 427.46 257.93 425.18 257.88 422.91 C 256.58 422.51 255.28 422.12 253.98 421.72 M 257.54 449.02 C 257.75 443.50 257.71 437.98 257.60 432.47 C 251.39 435.44 251.42 445.94 257.54 449.02 M 263.53 449.25 C 270.05 445.98 270.24 435.31 263.61 432.10 C 263.27 437.81 263.37 443.53 263.53 449.25 Z" />
<path fill="#1c8945" opacity="1.00" d=" M 276.01 421.72 C 283.08 421.34 290.49 420.42 297.35 422.71 C 302.73 424.69 303.25 431.82 301.63 436.52 C 300.68 439.71 297.51 441.19 294.76 442.53 C 297.36 447.40 300.14 452.20 303.24 456.77 C 304.35 458.63 306.65 458.90 308.47 459.69 C 303.88 460.15 299.25 460.35 294.69 459.53 C 295.59 459.27 297.41 458.76 298.31 458.51 C 296.69 452.56 291.62 448.23 290.45 442.11 C 288.74 441.97 287.03 441.83 285.32 441.70 C 285.13 446.78 284.99 451.88 285.25 456.97 C 285.06 459.10 287.77 459.04 289.08 459.95 C 285.41 460.13 281.75 460.14 278.08 460.17 C 278.95 458.89 280.17 457.68 279.96 456.01 C 279.97 444.99 280.07 433.96 279.88 422.94 C 278.58 422.53 277.29 422.13 276.01 421.72 M 285.37 423.72 C 285.38 428.97 285.38 434.22 285.38 439.47 C 288.79 439.12 293.03 440.40 295.73 437.69 C 298.08 434.15 297.61 429.55 296.49 425.65 C 293.14 423.54 289.17 423.65 285.37 423.72 Z" />
<path fill="#1c8945" opacity="1.00" d=" M 310.98 421.38 C 315.45 421.45 319.93 420.98 324.38 421.53 C 323.09 422.32 321.63 422.69 320.22 423.14 C 319.75 434.68 320.08 446.27 320.05 457.82 C 325.08 457.74 330.17 458.27 335.16 457.50 C 338.58 456.85 339.81 453.11 341.68 450.64 C 341.22 453.88 340.38 457.06 339.43 460.19 C 329.82 460.01 320.21 460.26 310.60 460.05 C 312.30 459.07 315.29 458.73 314.78 456.09 C 314.80 445.70 314.87 435.30 314.75 424.90 C 315.10 422.66 312.33 422.41 310.98 421.38 Z" />
<path fill="#1c8945" opacity="1.00" d=" M 352.11 422.13 C 355.83 420.25 359.81 422.18 363.35 423.51 C 363.48 422.77 363.75 421.30 363.88 420.56 C 364.51 422.82 365.09 425.10 365.56 427.41 C 362.69 425.40 359.63 423.01 355.87 423.79 C 350.51 423.82 349.76 431.15 352.24 434.65 C 355.41 438.14 360.57 438.76 363.92 442.08 C 368.76 446.57 367.38 455.56 361.64 458.66 C 357.66 460.97 352.72 460.31 348.69 458.47 C 347.94 459.01 347.18 459.55 346.44 460.10 C 345.89 457.59 345.33 455.09 344.81 452.59 C 347.82 456.01 352.14 458.63 356.87 457.78 C 361.97 456.92 363.07 450.11 360.85 446.25 C 357.93 442.75 352.60 442.77 349.56 439.35 C 344.50 434.70 345.31 424.71 352.11 422.13 Z" />
</g>
</svg>
