<svg width="521pt" height="461pt" viewBox="0 0 521 461" xmlns="http://www.w3.org/2000/svg"><g fill="#e63e28"><path d="M247.52 8.32c3.81-2.66 7.8-5.06 11.5-7.89 1.6.2 3.42-.28 4.86.63 4.81 2.95 9.28 6.44 14.16 9.29 7.67 1.7 14.01-3.74 21.01-5.69 4.43-1.38 6.8 3.51 9.68 5.88 11.42-.09 22.83-.01 34.25-.05 3.32-.41 5.65 2.59 7.29 5.03.58 5.76.33 11.64 1.36 17.37.43.95 1.06 1.79 1.61 2.68 4.92.01 9.94-.56 14.78.63 2.64.6 5.47-.12 8.06.75 2.06 2.06 2.43 5.24 3.55 7.86 1.8 4.41 3.25 8.94 4.82 13.44 7.39 2.07 15.01 3.5 22.25 6.08 2.43 7.31 1.73 15.35 4.17 22.65 6.23 3.61 13.14 5.99 19.22 9.86 2.74 2.09.37 5.35.45 8.08.01 5.26.09 10.53-1.09 15.7 6.38 4.31 12.48 9.09 18.14 14.3-1.67 7.47-4.06 14.81-6.27 22.15 4.74 4.86 8.71 10.4 13.24 15.45 1.24 1.12 1.23 2.93.46 4.32-2.85 6.22-6.18 12.18-9.61 18.1 2.88 6.61 7.24 12.45 9.96 19.14.76 1.75-.64 3.25-1.59 4.56-4.11 5.01-8.39 9.87-12.38 14.98 2.39 6.34 3.77 13.01 5.9 19.45.79 1.73-.37 3.48-1.75 4.48-5.43 4.12-10.92 8.19-16.02 12.71 1.84 6.47.05 13.29 1.87 19.75.47 2.09-1.64 3.59-3.26 4.4-5.82 2.92-11.66 5.81-17.49 8.72-1.4 6.9-1.68 13.98-3.33 20.82-.15 2.24-2.65 2.67-4.35 3.31-6.04 1.41-11.94 3.32-17.98 4.7-3.45 6.6-5.23 13.95-8.22 20.77-1.85.76-3.67 1.89-5.75 1.77-5.92.07-11.85-.12-17.77.11-2.28 3.93-4.9 7.64-7.16 11.58-1.67 2.36-2.89 5.17-5.22 6.97-2.65.87-5.46.15-8.1-.37-4.97-.82-9.94-1.7-14.91-2.5-5.49 5.22-10.49 10.92-15.81 16.27-7.57-2.07-14.46-6.12-22.04-8.1-5.38 3.36-10.64 6.95-15.82 10.62-1.15.94-2.59 1.29-3.98 1.68-5.86-4.36-11.87-8.59-18.17-12.29-7.25 1.9-13.98 5.46-20.99 8.1-6.27-4.68-11.03-11.04-16.98-16.09-7.08.29-13.9 3.13-21 3.04-3.12.21-4.2-3.14-5.56-5.28-3.01-4.55-5.6-9.38-8.84-13.78-5.9.07-11.81.06-17.71.04-2.04.13-3.92-.79-5.56-1.89-3.05-6.8-5-14.03-7.91-20.89-6.21-1.28-12.33-2.99-18.5-4.47-1.53-.61-3.96-.99-4.23-2.96-.79-6.06-1.88-12.08-2.43-18.16-.16-.99-.47-1.92-.96-2.79-6.25-3.89-13.49-6.2-19.54-10.37-.68-4.29-.29-8.69-.28-13.02.52-3.35 1.2-6.68 1.01-10.09-5.18-3.83-9.99-8.14-15.25-11.87-1.04-.89-2.47-1.58-2.82-3.02 1.91-7.35 4.67-14.57 6.01-22-4.26-4.91-8.3-10-12.57-14.9-1.11-.98-1.3-2.46-1.64-3.81 4.27-5.92 6.73-12.9 10.26-19.26-2.49-4.72-4.55-9.69-7.5-14.16-1.32-2.07-2.26-4.36-2.85-6.74 5-5.52 9.53-11.45 14.44-17.06-1.96-7.42-4.36-14.73-6.16-22.2 5.74-4.96 11.75-9.7 17.92-14.15.19-2.93.2-5.9-.6-8.75-.69-4.76-.11-9.59-.36-14.37 5.99-4.57 13.32-6.79 19.98-10.17 1.93-7.56 1.82-15.61 3.92-23.07 7.15-2.71 14.81-3.82 22.14-5.99 3.02-6.85 5.08-14.08 7.91-21.01 2.53-1.59 5.78-.37 8.58-1.12 5.08-1.24 10.33-.58 15.5-.67.37-6.1.1-12.24.67-18.31.16-3.85 3.4-6.68 7.03-7.32 5.19-.9 10.58-.51 15.75.39 6.88.22 13.77.02 20.65.07 2.55-2.24 4.58-6.46 8.54-5.88 7.08 1.56 13.33 6.75 20.9 5.9 1.76.09 3.09-1.22 4.51-2.07m3.44 4.24c6.9-.32 13.78.4 20.68.13-3.45-2.4-6.99-4.65-10.43-7.06-3.35 2.4-6.8 4.67-10.25 6.93m-29.65-2.94c-.82.98-1.64 1.95-2.46 2.92 3.71-.04 7.43-.15 11.14.08-2.98-.74-5.84-1.86-8.68-3m72.27 3.03c3.32.12 6.64.1 9.96.15-.98-1.06-1.95-2.13-2.91-3.2-2.39.93-4.76 1.89-7.05 3.05m-80.65 2.63c-8.97.07-18.03.65-26.93-.76-3.39.02-7.83-.76-10.3 2-1.77 7.65-.2 15.7-1.76 23.43-1.03 13.66-.13 27.41-1.13 41.08-.25 14.99-.61 29.97-.6 44.97-.52 2.77 2.36 4.59 4.83 4.45 56 .35 112.01.34 168.01.28 2.16.38 3.9-1.6 3.69-3.68-.04-25.7-1.22-51.36-1.37-77.06.24-10.98-1.99-21.82-1.82-32.8-1.16-.59-2.16-1.71-3.55-1.64-10.99-.2-22 .11-32.99-.11-7.92-1.4-16.09-1.35-24.01-.01-6.07.83-11.96-1.35-18.02-.95-7.02.08-14.14-.96-21.08.5-4.93 1.09-9.9-.13-14.81-.63-6.07-.24-12.2-.42-18.16.93M348.8 39.86c.03 3.04.02 6.09.02 9.13 22.93 13.66 42.71 32.61 57.1 55.11 17.87 27.75 27.36 60.87 26.68 93.89-.13 39.31-14.9 78.28-40.46 108.1-19.11 22.61-44.3 40.03-72.15 50.03-31.6 11.45-66.59 13.19-99.2 5.11-33.53-8.19-64.35-27-87.11-52.93-21.43-24.27-35.79-54.76-40.53-86.82-4.63-30.41-.94-62.09 10.86-90.53 13.43-32.86 37.6-61.11 67.7-79.86-.02-3.57-.08-7.16.35-10.71-5.37.37-10.83-.42-16.13.8-2.12.41-4.29.31-6.44.3-1.87 5.08-3.77 10.15-5.5 15.28-1.15 2.47-2.03 5.8-5.01 6.59-6.38 1.95-12.94 3.24-19.38 4.98-.68 5.88-1.75 11.72-2.37 17.62-.52 2.21-1 4.92-3.29 6-5.76 3.02-11.64 5.83-17.46 8.73-.76 7.44 2.25 14.8.63 22.18-1.96 2.8-4.98 4.52-7.54 6.71-3.01 2.34-5.83 4.96-9.15 6.88 1.39 7.55 5.47 14.72 4.99 22.52-3.82 5.89-8.6 11.17-13.41 16.28 3.26 5.2 6.03 10.67 8.69 16.2 1.19 2.19 1.17 4.95-.02 7.15-2.71 5.51-5.52 10.98-8.27 16.49 4.07 4.48 7.8 9.26 11.71 13.89 2.09 2.07 1.51 5.31 1.14 7.93-1.59 5.51-3.19 11.02-4.81 16.52 4.93 3.76 9.69 7.73 14.61 11.51.9.87 2.17 1.67 2.3 3.05 1.04 7.33-1.6 14.5-.85 21.84 6.37 3.22 12.88 6.18 19.12 9.65 1.39 2.2 1.72 4.91 1.97 7.46.61 5.03 1.52 10.01 2.06 15.05 6.36 1.48 12.67 3.14 19.03 4.65 1.38.26 2.66 1.05 3.27 2.36 3.28 6.53 4.87 13.74 7.94 20.36 7.33.5 14.74-.38 22.04.47 4.44 5.97 8.22 12.45 11.94 18.88 5.68-1.27 11.4-2.39 17.17-3.19 2.37-.02 5.29-.63 7.06 1.4 4.6 4.51 9.08 9.14 13.67 13.67 4.57-2.13 9.31-3.85 13.95-5.79 3.3-1.38 7.38-2.22 10.56-.11 4.98 3.16 9.87 6.49 14.72 9.86 4.83-3.36 9.7-6.67 14.66-9.83 2.97-1.99 6.84-1.44 9.97-.16 4.88 1.99 9.82 3.82 14.6 6.03 4.58-4.53 9.07-9.16 13.67-13.66 2.06-2.22 5.4-1.4 8.07-1.3 5.38 1.04 10.86 1.6 16.17 2.96 4.51-6.07 7.29-13.56 12.94-18.67 6.7-1.14 13.62.16 20.38-.62 1.7-.28 1.76-2.32 2.36-3.57 2.17-5.78 4.06-11.69 6.6-17.32 3.57-2.36 8.06-2.43 12-3.87 3.2-1.18 6.84-1.38 9.85-2.84 2.23-7.2 1.52-15.15 4.09-22.21 6.29-3.47 12.82-6.51 19.27-9.68-.37-5.6.43-11.3-.98-16.8-.15-2.32-.88-5.41 1.28-7.03 5.32-4.13 10.47-8.48 15.89-12.46-1.68-5.86-3.35-11.72-5.07-17.57-.33-2.09-.84-4.69.7-6.43 4.32-4.8 8.32-9.89 12.47-14.83-3.08-5.92-6.79-11.52-9.25-17.74-.97-3.22.85-6.23 2.44-8.88 2.64-4.07 4.62-8.52 6.8-12.85-4.21-4.53-7.98-9.44-11.98-14.16-1.96-1.81-1.65-4.68-1.17-7.04 1.67-5.77 3.36-11.52 4.96-17.31-4.87-3.94-9.92-7.65-14.81-11.56-3.02-2.03-2.72-5.94-2.1-9.08 1.25-5.2.42-10.59.82-15.87-5.7-3.09-11.88-5.13-17.56-8.23-2.41-1.06-2.59-3.88-3.11-6.11-.85-5.84-1.53-11.72-2.55-17.54-6.6-1.62-13.21-3.24-19.72-5.18-2.69-.65-3.4-3.71-4.28-5.94-1.56-5.3-3.93-10.31-5.44-15.62-2.61-.05-5.23-.02-7.78-.58-5.41-1.16-11.01.21-16.39-1.14m.46 15.73c.04 4.02.24 8.04.22 12.07 28.18 19.23 49.92 47.85 60.33 80.39 9.5 29.28 9.95 61.39 1.4 90.95-7.54 26.23-22.29 50.3-42.08 69.06-21.05 20.08-47.85 34.09-76.4 39.75-30.19 6-62.21 3.08-90.61-8.89-31.11-12.86-57.73-36.24-74.6-65.35-13.87-23.69-21.11-51.17-20.88-78.6.06-25.07 6.35-50.09 18.23-72.17 11.12-20.88 27.17-39.09 46.37-52.89.19-4.13.35-8.25.27-12.38-19.21 12.66-35.87 29.21-48.38 48.53-18.71 28.49-28.02 62.96-26.49 97 1.12 24.93 7.9 49.61 19.91 71.5 14.26 26.19 35.74 48.35 61.43 63.48 30.72 18.26 67.52 26.01 103.01 21.81 31.7-3.57 62.21-16.69 86.71-37.1 11.89-10.11 22.68-21.61 31.38-34.6 17.98-26.41 28.02-58.18 28.29-90.13.44-26.24-5.58-52.57-17.41-75.99-13.59-27.19-34.85-50.46-60.7-66.44m.49 18.72c-.32 11.58.51 23.15.64 34.73-.2 7.13.94 14.33-.26 21.41 1.31.51 2.71.87 3.87 1.7 13.78 11.22 27.87 22.06 41.83 33.05.72.85 2.39 1.4 2.03 2.79.16 3.59-3.69 5.74-6.9 5.5-18.37.02-36.73.02-55.09 0-.78 1.61-1.56 3.22-2.37 4.83 6.85 3.48 13.22 8.01 18.35 13.77 6.75 7.7 12.31 17.4 11.97 27.95.22 9.09-4.15 17.95-10.79 24.02-6.57 6.16-15.49 9.34-24.4 9.84.03 25.4-.06 50.79.05 76.19 13.46-7.06 26.24-15.62 37.09-26.33 19.84-18.77 34.26-43.18 41.25-69.58 7.6-28.54 6.52-59.34-3.22-87.24-9.94-29.05-29.27-54.6-54.05-72.63M112.16 196.04c-.52 26.15 6.89 52.24 19.96 74.8 14.51 24.93 36.29 45.65 62.12 58.52.06-25.42-.02-50.84.04-76.26-4.96.52-10.05.71-14.89-.65-11.35-3.15-21-12.72-23.28-24.4-1.25-5.63-.13-11.46 1.36-16.92 4.35-14.53 15.81-26.18 29.32-32.64-.71-1.67-1.42-3.33-2.12-5-18.23 0-36.47.05-54.7-.01-3.76.34-6.4-2.87-6.83-6.33 13.09-10.26 26.14-20.57 39.22-30.86 2.98-2.26 5.63-5.5 9.69-5.58-.89-1.42-2.02-2.86-1.8-4.65.02-16.47.69-32.92.92-49.38-36.81 27.64-60 73.16-59.01 119.36m55.32-61.53c-13.22 10.81-26.95 20.99-40.09 31.9 31.92.26 63.86-.09 95.78.17-3.68-2.34-.42-6.15.32-9.15 1.18-2.37 1.32-5.62 3.61-7.23 21.99-.15 43.99-.33 65.98-.15 1.66-.17 2.59 1.38 3.07 2.71 1.55 3.99 3.16 8.01 3.78 12.27-9.93.53-19.88.02-29.81.29l.15 1.24c41.3-.18 82.61.04 123.92-.11-12.08-9.84-24.51-19.26-36.67-29.01-2.11-1.62-3.94-3.74-6.42-4.81-4.86-.36-9.75-.06-14.61-.08 4.87 4.92 10.08 9.51 14.66 14.71-4.88 2.04-10.09.15-15.13.59-7.27.76-14.59.24-21.88.38-2.72.02-5.45.02-8.17-.04-4.68-.65-9.42.6-14.07-.44-1.3.16-2.58.32-3.87.49-5.68.13-11.37-.16-17.05-.07-2.65.07-5.29.08-7.93.04-3-.02-6-.01-9-.01-3.35-.02-6.71-.03-10.06.1-1.7-.13-3.4-.32-5.09-.52-5.64-.11-11.3 1.17-16.91 0-4.68-.09-9.34.69-14.03.42-10.34-.14-20.67.45-31.01.31-1.74.09-3.34-.64-4.91-1.26 5.02-5.09 10.54-9.65 15.83-14.44-5.64-.03-11.28-.19-16.91 0-1.38-.06-2.44.96-3.48 1.7m19.25 1.57c2.79.11 5.59-.05 8.39.15-2.23 1.91-6.03.65-8.86 1.05l-.13 1.24c4.27-.15 8.56.23 12.8-.41l-1.6-1.36c-.09-.29-.28-.87-.38-1.16 2.83.5 5.7.58 8.57.57l-.03-1.36c-2.4 0-4.81 0-7.21.02.17-.4.49-1.2.65-1.6-3.59 3-8.67.08-12.2 2.86m19.91-1.5c-.39.85-.79 1.7-1.19 2.55l-5.07.44c2.81 1.31 5.95.83 8.94.99-.15-.49-.44-1.46-.58-1.95-.53-.17-1.6-.5-2.13-.67 3.4-.16 6.82.32 10.2-.3l.68 1.28c-2.49-.06-4.99-.2-7.47-.47.03 1.06.08 2.13.13 3.19l.51-.08c.53.28 1.61.86 2.15 1.15-.05-.84-.18-1.67-.39-2.48 3.01-.04 6.03.07 9.05-.04-1.53-.82-3.05-1.65-4.56-2.49 2.34.1 4.67.66 7.02.36 4.41-.72 8.84.41 13.27-.16.32.29.95.88 1.27 1.18-5.04.52-10.05-.53-15.08-.04l.02 1.52c2.72-.17 5.44-.35 8.17-.5l.01 1.11c-2.61.02-5.45-.05-7.44 1.94l2.8.06c-.07.3-.19.88-.26 1.18-3.06-.76-6.22-.67-9.34-.53l-.06-.99c1.71.5 2.99.23 3.85-.82-.11-.24-.34-.72-.45-.97-1.62.48-6.94-.61-6.06 2.27l.18.44c-2.84-.04-5.67.01-8.51.04l.09-1.03c1.21-.07 3.63-.19 4.84-.26-2.71-1.58-5.93-.86-8.89-.77.58.39 1.72 1.19 2.3 1.59-.47.97-.91 1.96-1.36 2.95-2.84.32-6.83-1.15-8.51 2.04 4.48.29 8.97-.03 13.44.37 5.95-.43 11.93-.28 17.89-.05 19.87-.2 39.79-.39 59.65.09 4.29-.4 8.59-.26 12.89-.21l.06-2c-4.21.03-8.41-.01-12.61.07-.06-.29-.17-.87-.23-1.16 3.4.04 6.8 0 10.2.3 3.52-.21 7.09-.17 10.51-1.19.07.43.2 1.31.26 1.75-2.65.17-5.31.3-7.93-.14.24 1.05.49 2.11.73 3.17 3.74-1.38 7.76-.69 11.64-.97-.6-.62-1.79-1.86-2.39-2.48-.4-1.4-1.11-2.65-2.31-3.53.83.02 2.49.07 3.32.09l-1.96-2.44c3.55.71 7.17.5 10.73 0-1.74 1.4-4 1.66-6.08 2.15 1.65.26 3.3.49 4.97.7.29.89.53 1.79.73 2.71-2.63.16-5.27.31-7.9.42.48 1.13.95 2.26 1.43 3.39l1.95-.14c-.13-.47-.38-1.42-.51-1.89 3.03.15 6.07.16 9.11.16 1.05.82 2.12 1.62 3.2 2.41-.44-1.47-.89-2.94-1.34-4.4-1.39.04-2.78.09-4.16.14-.61-1.44-1.06-2.92.89-3.52-1.18-1.36-2.35-2.73-3.51-4.09 6.64-1.52 14.05 2.53 20.09-1.53-4.07.31-8.14.35-12.22.38.05-.44.14-1.32.19-1.77-.25.04-.74.1-.99.13.04.4.14 1.19.19 1.59-6.8-.3-13.63-.31-20.42.12l.36-1.49c-4.09.08-8.17.02-12.25-.02l.49 1.67c-4.66-2.35-9.89-1.37-14.88-1.62-2.32-.02-4.76-.19-6.91.87-2.85.31-5.71.47-8.56.59-.15-.65-.43-1.95-.57-2.6l-.48 2.44c-10.43.58-20.82-.55-31.24.12.13-.43.4-1.28.54-1.7-3.56 1.92-7.63 1.69-11.54 1.62.15-.38.44-1.13.59-1.51-3.17 1.98-6.96 1.46-10.5 1.56.08-.46.25-1.39.33-1.85-1.01.52-2.01 1.04-3.02 1.56m113.71 2.81c1.04 1.64 4.45 1.02 6.22.55-1.29-1.3-4.46-1.3-6.22-.55m8.11.07c-.29 1.4.26 1.94 1.64 1.59.31-1.38-.24-1.91-1.64-1.59m-128.73.28c.59.6.59.6 0 0m.47 2.28c.62 1.24 1.35 1.25 2.17.02-.64-1.28-1.37-1.29-2.17-.02m23.19-1.04c-1.33.97-1.36 1.75-.09 2.35 1.1-.83 1.13-1.61.09-2.35m87.66.36c-1.7 2.87 3.42.33 0 0m10.8.13c-.3 1.41.23 1.91 1.6 1.5.32-1.42-.22-1.93-1.6-1.5m-140.4.83c.56.58.56.58 0 0m13.8-.42c-.17 1.47 3.42 1.45 3.3 0-1.1-.73-2.2-.73-3.3 0m-14.61 1.27c-2.45 1.72-4.65 3.74-6.83 5.77.6.25 1.82.73 2.43.97.12-.67.35-2 .47-2.67.77.37 1.52.76 2.25 1.19 5.02.27 10.13-.49 15.06.68.54-1.03 1.08-2.06 1.63-3.08-5.77 1.24-11.73-.09-17.54.91 1.09-1.08 1.93-2.36 2.53-3.77m-.55 2.15c7.55.2 15.2.5 22.68-.48.03-.28.07-.83.09-1.11-6.33.02-12.65-.26-18.98-.2-1.59-.37-2.67.96-3.79 1.79m136.7-.24c-.01-.21-.01-.65-.02-.86-2.64-.61-5.36-.65-8.05-.77 1.17 3.45 5.41 1.44 8.07 1.63m-89.83 8.28c-1.46 4.42-3.22 8.72-4.7 13.14 25.55.19 51.09-.18 76.63-.3-1.35-4.45-3.05-8.79-4.78-13.1-22.38-.16-44.77-.17-67.15.26m-102.29 17.21c2.81 4.2 8.01 3.13 12.3 3.21 34.58.02 69.17-.11 103.75.07-.15-1.22-.29-2.43-.42-3.64-37.1.16-74.2-.01-111.3.08-1.45.04-2.89.14-4.33.28m116.4-.03c.42 1.44 1.01 3.38 2.92 3.17 11.31.06 22.65.19 33.95-.06 1.98 0 1.5-2.06 1.75-3.4-12.87.22-25.76-.33-38.62.29m39.52-.14c.02.86.05 2.58.06 3.43 34.76-.14 69.52-.04 104.28-.05 4.04-.07 9.27 1.03 11.52-3.35-8.83-.34-17.67-.07-26.51-.16-29.78.09-59.57-.16-89.35.13m-91.68 5.16c.8 1.95 1.65 3.87 2.56 5.77 45.89-.17 91.78 0 137.68-.08.81-1.92 1.65-3.83 2.5-5.73-47.58.03-95.16-.05-142.74.04m-21.43 29.87c-3.68 6.94-6.03 15.19-3.96 22.99 2.11 8.98 9.39 15.89 17.48 19.79 6.01 2.9 13.38 4.43 19.66 1.44 5.32-2.45 8.44-7.98 9.73-13.49 1.42-5.99 1.93-12.76-1.09-18.36-2.95-4.76-8.61-7.81-14.24-7.3-7.29.31-13.11 7.47-12.74 14.59-.09 7.34 10.64 12.3 15.8 6.84 1.12-2.8.49-7.54-3.09-8.07-.77.96-1.47 1.97-2.1 3.02.76.58 2.29 1.74 3.05 2.31-1.75 1.34-3.59 2.94-5.94 2.86-3.19.05-6-3.93-3.84-6.71 2.68-3.76 7.24-6.12 11.79-6.6 3.86-.44 7.91 2.3 8.38 6.26.29 4.31-1.91 8.54-5 11.44-4.66 4.27-11.8 3.7-17.28 1.5-5.79-2.34-10.35-8.61-9.11-15 .65-4.46 3.14-8.56 6.8-11.17 6.43-4.71 14.89-6.67 22.71-5.03 5.22 1.05 8.86 5.39 13.81 7.11 24.18 10.52 51.74 8.64 76.69 1.94 4.61-1.48 9.77-1.98 13.64-5.15 2.69-2.08 5.94-3.42 9.34-3.72 7.27-.76 15.13.5 21.05 5.03 4.53 3.41 6.45 9.68 4.82 15.09-2.41 10.47-15.85 16.24-25.21 11.26-6.19-3.2-7.26-12.96-1.5-17.08 5.25-4.47 14.56-1.79 16.49 4.83.41 5.27-6.59 7.32-10.38 4.63l3.12-2.4c-1.2-1.98-2.92-4.21-5.55-3.75-1.6 4.13.69 9.86 5.3 10.76 5.41 1.18 10.96-3.73 10.59-9.24 1.1-11.74-15.74-19.72-24.03-11.31-8.01 8.26-6.39 23.09 2.32 30.28 9.61 9.03 26.17 7.4 34.66-2.39 6.6-6.65 6.99-16.74 5.58-25.46-2.95-13.32-12.39-24.66-24.18-31.25-1.81-1.16-4.04-.86-6.07-.93-45.95.2-91.93-.25-137.87.23-8.37 4.52-15.05 11.93-19.63 20.21m125.59 13.56c2.32 3.52 4.65 7.03 7.23 10.36.29-4.66 1.29-9.27 3.44-13.44-3.54 1.1-7.1 2.09-10.67 3.08m-75.36.1c.74 2.65 1 5.39 1.24 8.13 1.72-1.99 3.29-4.11 4.84-6.23-2.03-.63-4.06-1.25-6.08-1.9m55.35 3.91c2.16 2.51 4.26 5.07 6.44 7.56 3.25-3.37 6.05-7.13 9.29-10.5-5.22 1.11-10.46 2.11-15.73 2.94m-42.68-.44c1.91 3.09 3.84 6.18 5.65 9.33 2.66-2.47 5.22-5.05 7.77-7.64-4.5-.36-8.97-.95-13.42-1.69m-10.35 10.18c4.01.05 8.03.04 12.04 0-1.78-2.92-3.58-5.84-5.24-8.84-2.59 2.69-4.67 5.8-6.8 8.84m33.42-8.07c1.62 1.92 3.26 3.82 4.99 5.63 2.09-2.11 4.18-4.21 6.29-6.3-3.77.2-7.52.42-11.28.67m29.43 8.06c4.96.07 9.92.01 14.88.06-2.2-3.27-4.46-6.51-6.64-9.79-2.64 3.33-5.51 6.47-8.24 9.73m-41.92.05c4.76-.02 9.54.03 14.31-.08-2.19-2.52-4.41-5.02-6.48-7.64-2.7 2.48-5.29 5.08-7.83 7.72m20.43-.03c4.95.02 9.91.05 14.87-.03-2.25-2.63-4.54-5.22-6.68-7.93-2.88 2.5-5.53 5.24-8.19 7.96m-43.79 3.73c-.52 1.34-1.03 2.68-1.54 4.03 28.61.05 57.22-.06 85.83.05l-.63-3.97c-27.88-.18-55.77.04-83.66-.11m-10.43 13.72c-2.94 1.92-6.29 3.01-9.49 4.38.15 26.19.04 52.37.06 78.56 5.51 2.68 11.22 4.89 17 6.91-.05-32.13.17-64.27-.11-96.39-2.46 2.21-4.66 4.75-7.46 6.54m11.46-5.93c-.08 32.32-.01 64.65-.03 96.98 5.87 1.69 11.82 3.11 17.84 4.22.04-33.75.01-67.49.01-101.23-5.94.06-11.88.03-17.82.03m21.71-.03c-.03 33.93.02 67.86-.02 101.79 6.05.89 12.16 1.32 18.27 1.61.13-34.47.03-68.93.05-103.39-6.1.04-12.2.04-18.3-.01m22.17 0c.01 34.44-.01 68.89.01 103.33 6.16.05 12.29-.48 18.41-1.12.62-8.12.11-16.28.27-24.42.06-24.67-.03-49.34.05-74.01.02-1.22-.1-2.43-.39-3.61-6.1-.37-12.23-.01-18.35-.17m22.21.03c-.08 33.86-.01 67.71-.04 101.57 5.35-.78 10.64-1.95 15.9-3.22-.01-32.79 0-65.58-.01-98.37-5.28.04-10.57.02-15.85.02m19.73.34c-.08 32.31-.05 64.63-.01 96.94 6.9-2.17 13.71-4.67 20.3-7.68-.02-26.04 0-52.08-.01-78.12-7.93-.96-15.16-5.05-20.28-11.14z"/><path d="M176.71 124.45c.9-34.57 1.55-69.17 2.72-103.74 54.27.11 108.55-.03 162.83.07.52 34.41 1.44 68.81 2.24 103.22-19.18-.01-38.35.01-57.52-.01-28.65.7-57.33-.17-85.98.52-8.09-.04-16.19.05-24.29-.06m4.64-101.98c-.7 5.16-.58 10.38-.74 15.57-.17 21.01-1.31 41.98-1.37 62.99-.41 7.23-.72 14.47-.65 21.72 17.12.19 34.23-.38 51.36-.25 37.58.13 75.14-.45 112.72-.26-.21-15.41-1.05-30.79-1.07-46.2-.33-17.85-1.03-35.67-1.21-53.51-53.02-.08-106.03.04-159.04-.06z"/><path d="M220.35 52.39c5.81-3.87 13.55-3.19 19.7-.5.53-.54 1.58-1.64 2.1-2.19 1.47 3.5 2.31 7.22 3.17 10.91-3.88-2.01-5.84-6.79-10.37-7.67-4.14-.96-9.44-.94-12.21 2.83-5.52 7.55-5.74 18.49-.83 26.38 3.57 5.24 11.16 4.86 16.08 1.89 3.02-1.61 4.41-4.88 5.74-7.84.47.06 1.41.17 1.88.23-1.53 3.86-3.07 8.22-6.97 10.31-6.13 3.45-14.84 3.84-20.19-1.28-4.28-3.91-5.47-9.97-5.69-15.52.13-6.47 2.06-13.63 7.59-17.55zm31.54 2.7c2.73-5.82 10.7-6.81 15.65-3.26.42-.7 1.27-2.1 1.7-2.8.86 2.4 1.42 4.89 1.69 7.43-2.89-1.44-5.48-4.03-8.95-3.76-7.23-.56-7.4 10.77-1.42 12.78 3.38 1.84 7.27 3.14 9.77 6.23 3.73 4.74 2.3 12.5-2.86 15.62-4.09 2.74-9.53 2.41-13.78.22-.51.59-1.53 1.78-2.04 2.37-1.12-2.89-1.71-5.95-2.13-9.01 3.14 2.43 6.18 5.72 10.54 5.37 6.86 1.01 8.95-9.86 3.55-12.84-2.95-1.8-6.61-2.41-9.11-4.94-3.79-3.24-4-8.99-2.61-13.41zm31.46-1.74c5.44-4.99 13.87-4.36 20.15-1.41.47-.71 1.4-2.13 1.87-2.84 1.83 3.6 2.79 7.56 3.43 11.52-3.31-2.05-5.2-5.95-9.01-7.26-4.77-1.69-11.1-1.31-14.2 3.19-4.4 6.78-4.24 15.82-1.41 23.17 1.95 6.05 10.25 8.51 15.28 4.77 2.68-2.46 3.73-6.49 3.05-10.01-1.18-.93-2.48-1.72-3.71-2.58 3.24-.17 6.49-.17 9.74-.19.02 6.07.25 12.15-.17 18.21-1.57-1.05-2.98-2.29-4.22-3.7-4.71 3-10.59 3.7-16 2.62-5.14-1.34-9.18-5.8-10.53-10.88-2.61-8.4-.87-18.49 5.73-24.61zm-10.45 81.29c1.08-1.19 5.03-1.18 6.14.01-1.92.64-4.24.66-6.14-.01zm7.96-.41c.59.59.59.59 0 0zm3.04.06c1.46-.42 4.34-.97 5.19.39-1.46.49-4.35.96-5.19-.39zm10.35-.11c1.53-.48 4.55-.92 5.46.53-1.5.63-4.6.96-5.46-.53zm7.36-.05c3.08-1.5.19 3.28 0 0zm-57.76 3.23c-.96-.55-5.75.16-4.16-1.38 7.11-.16 14.2.2 21.3-.2 1.49-.31 2.81.53 3.84 1.49-1.9-.08-3.78-.25-5.65-.53-4.77.99-9.58.07-14.36-.19l.08 1.95c3.09-.33 6.21-.43 9.29-.01-2.92 1.19-6.12.72-9.18.77-.34.8-.44 1.67-.54 2.52-1.57.18-3.14.34-4.71.48 1.07-1.45 2.91-1.66 4.49-2.26-2.69-.27-6.02-1.44-8.3.51.8.31 2.39.93 3.19 1.25-3.76-.05-7.53.1-11.27-.29 2.24-.75 4.62-.87 6.96-.66l.32-.84c-.61-.46-1.84-1.37-2.45-1.82 3.5.29 7.02.24 10.5.83.16-.4.49-1.21.65-1.62zm21.4-1.15c4.25-1.31 8.59.59 12.85-.3 4.19-.55 8.42 1.02 12.56-.32-1.04.56-1.86 1.29-2.46 2.21 2.65 1.11 5.64-.01 8.44.11-2.15 2.34-5.57 1.14-8.31 1.16.06.46.19 1.37.26 1.83 2.38-.33 4.8-.26 7.18.13-3.43 1.26-7.55.99-10.93-.34-3.59 1.19-7.41.76-11.11 1.06 1.16-1.05 2.28-2.15 3.24-3.39 3.22.02 6.48-.01 9.58.98.17-.3.5-.9.66-1.2l.09-.71c-7.35-.83-14.77-.37-22.14-.27.03-.24.07-.71.09-.95m12.7 3.11c-1.61 2.94 3.42.21 0 0z"/><path d="M291.26 135.69c1.84.26 3.71.71 5.59.47 5.14-.73 10.31.3 15.47-.33-2.13 1.41-4.66 1.71-7.13 1.33-4.53-.66-9.08.22-13.62.21l-.31-1.68zm21 .34c1.37-.44 4-.54 4.72.85-1.35.54-4.07.61-4.72-.85zm-58.92 3.19c3.62-1.29 7.85-1.61 11.51-.3-3.82.49-7.68.49-11.51.3zm11.86-.86c3.23.48 7.32-1.46 10.06.75-3.3.22-6.6.21-9.9.32l-.16-1.07zm31.56-.09c3.61.23 7.3-.51 10.84.43-1.43.69-3.87-.32-4.75 1.29.69 1.33 2.55 1.11 3.73 1.79-3.59-.07-7.18-.16-10.76.1.91-.47 2.73-1.42 3.64-1.89-.67-.43-2.02-1.29-2.7-1.72m3.38.79l-.47.79c.64 2.53 2.7-.78.47-.79zm-53.72 1.87c.73-.8 3.17-.74 3.04.66-.72.88-3.21.78-3.04-.66zm5.08.67c.41-1.43 3.09-1.38 4.18-.64-.41 1.47-3.08 1.33-4.18.64zm5.91-.65c1.03-.73 2.05-.7 3.08.09.3 1.56-3.31 1.43-3.08-.09zm6.06.1c1.01-.8 2.05-.84 3.1-.12.29 1.52-3.31 1.66-3.1.12zm4.97-.12c.76-.77 3.23-.75 3.13.66-.77.79-3.26.77-3.13-.66zm-63.37 3.38c.17-.44.51-1.32.67-1.76 3.37 1.85 7.51-.71 10.6 1.53-3.75.3-7.51.35-11.27.23zm12.06-.05c.02-.44.07-1.32.1-1.75 3.18.97 6.89-.06 9.77 1.79-3.29.08-6.58-.06-9.87-.04zm11.32-1.64c3.52.61 7.1.54 10.65.96-3.51 1.04-7.2.61-10.8.82l.15-1.78zm10.12 1.38c3.97-1.28 8.45-1.23 12.43-.01-4.13.43-8.3.41-12.43.01zm12.85.33c.01-.42.04-1.24.05-1.66 3.5.62 7.16.19 10.58 1.27-3.52.45-7.08.33-10.63.39zm11.63-1.13c3.18.01 6.36 0 9.54-.03l.13 1.14c-3.24-.05-6.47-.05-9.71-.05l.04-1.06zm10.25.74c3.28-1.12 6.81-.64 10.19-1.26l.34 1.77c-3.51-.21-7.04-.07-10.53-.51z"/></g><g fill="#fff"><path d="M250.96 12.56c3.45-2.26 6.9-4.53 10.25-6.93 3.44 2.41 6.98 4.66 10.43 7.06-6.9.27-13.78-.45-20.68-.13zm-29.65-2.94c2.84 1.14 5.7 2.26 8.68 3-3.71-.23-7.43-.12-11.14-.08.82-.97 1.64-1.94 2.46-2.92zm72.27 3.03c2.29-1.16 4.66-2.12 7.05-3.05.96 1.07 1.93 2.14 2.91 3.2-3.32-.05-6.64-.03-9.96-.15zm-80.65 2.63c5.96-1.35 12.09-1.17 18.16-.93 4.91.5 9.88 1.72 14.81.63 6.94-1.46 14.06-.42 21.08-.5 6.06-.4 11.95 1.78 18.02.95 7.92-1.34 16.09-1.39 24.01.01 10.99.22 22-.09 32.99.11 1.39-.07 2.39 1.05 3.55 1.64-.17 10.98 2.06 21.82 1.82 32.8.15 25.7 1.33 51.36 1.37 77.06.21 2.08-1.53 4.06-3.69 3.68-56 .06-112.01.07-168.01-.28-2.47.14-5.35-1.68-4.83-4.45-.01-15 .35-29.98.6-44.97 1-13.67.1-27.42 1.13-41.08 1.56-7.73-.01-15.78 1.76-23.43 2.47-2.76 6.91-1.98 10.3-2 8.9 1.41 17.96.83 26.93.76m-36.22 109.17c8.1.11 16.2.02 24.29.06 28.65-.69 57.33.18 85.98-.52 19.17.02 38.34 0 57.52.01-.8-34.41-1.72-68.81-2.24-103.22-54.28-.1-108.56.04-162.83-.07-1.17 34.57-1.82 69.17-2.72 103.74z"/><path d="M181.35 22.47c53.01.1 106.02-.02 159.04.06.18 17.84.88 35.66 1.21 53.51.02 15.41.86 30.79 1.07 46.2-37.58-.19-75.14.39-112.72.26-17.13-.13-34.24.44-51.36.25-.07-7.25.24-14.49.65-21.72.06-21.01 1.2-41.98 1.37-62.99.16-5.19.04-10.41.74-15.57m39 29.92c-5.53 3.92-7.46 11.08-7.59 17.55.22 5.55 1.41 11.61 5.69 15.52 5.35 5.12 14.06 4.73 20.19 1.28 3.9-2.09 5.44-6.45 6.97-10.31-.47-.06-1.41-.17-1.88-.23-1.33 2.96-2.72 6.23-5.74 7.84-4.92 2.97-12.51 3.35-16.08-1.89-4.91-7.89-4.69-18.83.83-26.38 2.77-3.77 8.07-3.79 12.21-2.83 4.53.88 6.49 5.66 10.37 7.67-.86-3.69-1.7-7.41-3.17-10.91-.52.55-1.57 1.65-2.1 2.19-6.15-2.69-13.89-3.37-19.7.5m31.54 2.7c-1.39 4.42-1.18 10.17 2.61 13.41 2.5 2.53 6.16 3.14 9.11 4.94 5.4 2.98 3.31 13.85-3.55 12.84-4.36.35-7.4-2.94-10.54-5.37.42 3.06 1.01 6.12 2.13 9.01.51-.59 1.53-1.78 2.04-2.37 4.25 2.19 9.69 2.52 13.78-.22 5.16-3.12 6.59-10.88 2.86-15.62-2.5-3.09-6.39-4.39-9.77-6.23-5.98-2.01-5.81-13.34 1.42-12.78 3.47-.27 6.06 2.32 8.95 3.76-.27-2.54-.83-5.03-1.69-7.43-.43.7-1.28 2.1-1.7 2.8-4.95-3.55-12.92-2.56-15.65 3.26m31.46-1.74c-6.6 6.12-8.34 16.21-5.73 24.61 1.35 5.08 5.39 9.54 10.53 10.88 5.41 1.08 11.29.38 16-2.62 1.24 1.41 2.65 2.65 4.22 3.7.42-6.06.19-12.14.17-18.21-3.25.02-6.5.02-9.74.19 1.23.86 2.53 1.65 3.71 2.58.68 3.52-.37 7.55-3.05 10.01-5.03 3.74-13.33 1.28-15.28-4.77-2.83-7.35-2.99-16.39 1.41-23.17 3.1-4.5 9.43-4.88 14.2-3.19 3.81 1.31 5.7 5.21 9.01 7.26-.64-3.96-1.6-7.92-3.43-11.52-.47.71-1.4 2.13-1.87 2.84-6.28-2.95-14.71-3.58-20.15 1.41z"/><path d="M348.8 39.86c5.38 1.35 10.98-.02 16.39 1.14 2.55.56 5.17.53 7.78.58 1.51 5.31 3.88 10.32 5.44 15.62.88 2.23 1.59 5.29 4.28 5.94 6.51 1.94 13.12 3.56 19.72 5.18 1.02 5.82 1.7 11.7 2.55 17.54.52 2.23.7 5.05 3.11 6.11 5.68 3.1 11.86 5.14 17.56 8.23-.4 5.28.43 10.67-.82 15.87-.62 3.14-.92 7.05 2.1 9.08 4.89 3.91 9.94 7.62 14.81 11.56-1.6 5.79-3.29 11.54-4.96 17.31-.48 2.36-.79 5.23 1.17 7.04 4 4.72 7.77 9.63 11.98 14.16-2.18 4.33-4.16 8.78-6.8 12.85-1.59 2.65-3.41 5.66-2.44 8.88 2.46 6.22 6.17 11.82 9.25 17.74-4.15 4.94-8.15 10.03-12.47 14.83-1.54 1.74-1.03 4.34-.7 6.43 1.72 5.85 3.39 11.71 5.07 17.57-5.42 3.98-10.57 8.33-15.89 12.46-2.16 1.62-1.43 4.71-1.28 7.03 1.41 5.5.61 11.2.98 16.8-6.45 3.17-12.98 6.21-19.27 9.68-2.57 7.06-1.86 15.01-4.09 22.21-3.01 1.46-6.65 1.66-9.85 2.84-3.94 1.44-8.43 1.51-12 3.87-2.54 5.63-4.43 11.54-6.6 17.32-.6 1.25-.66 3.29-2.36 3.57-6.76.78-13.68-.52-20.38.62-5.65 5.11-8.43 12.6-12.94 18.67-5.31-1.36-10.79-1.92-16.17-2.96-2.67-.1-6.01-.92-8.07 1.3-4.6 4.5-9.09 9.13-13.67 13.66-4.78-2.21-9.72-4.04-14.6-6.03-3.13-1.28-7-1.83-9.97.16-4.96 3.16-9.83 6.47-14.66 9.83-4.85-3.37-9.74-6.7-14.72-9.86-3.18-2.11-7.26-1.27-10.56.11-4.64 1.94-9.38 3.66-13.95 5.79-4.59-4.53-9.07-9.16-13.67-13.67-1.77-2.03-4.69-1.42-7.06-1.4-5.77.8-11.49 1.92-17.17 3.19-3.72-6.43-7.5-12.91-11.94-18.88-7.3-.85-14.71.03-22.04-.47-3.07-6.62-4.66-13.83-7.94-20.36-.61-1.31-1.89-2.1-3.27-2.36-6.36-1.51-12.67-3.17-19.03-4.65-.54-5.04-1.45-10.02-2.06-15.05-.25-2.55-.58-5.26-1.97-7.46-6.24-3.47-12.75-6.43-19.12-9.65-.75-7.34 1.89-14.51.85-21.84-.13-1.38-1.4-2.18-2.3-3.05-4.92-3.78-9.68-7.75-14.61-11.51 1.62-5.5 3.22-11.01 4.81-16.52.37-2.62.95-5.86-1.14-7.93-3.91-4.63-7.64-9.41-11.71-13.89 2.75-5.51 5.56-10.98 8.27-16.49 1.19-2.2 1.21-4.96.02-7.15-2.66-5.53-5.43-11-8.69-16.2 4.81-5.11 9.59-10.39 13.41-16.28.48-7.8-3.6-14.97-4.99-22.52 3.32-1.92 6.14-4.54 9.15-6.88 2.56-2.19 5.58-3.91 7.54-6.71 1.62-7.38-1.39-14.74-.63-22.18 5.82-2.9 11.7-5.71 17.46-8.73 2.29-1.08 2.77-3.79 3.29-6 .62-5.9 1.69-11.74 2.37-17.62 6.44-1.74 13-3.03 19.38-4.98 2.98-.79 3.86-4.12 5.01-6.59 1.73-5.13 3.63-10.2 5.5-15.28 2.15.01 4.32.11 6.44-.3 5.3-1.22 10.76-.43 16.13-.8-.43 3.55-.37 7.14-.35 10.71-30.1 18.75-54.27 47-67.7 79.86-11.8 28.44-15.49 60.12-10.86 90.53 4.74 32.06 19.1 62.55 40.53 86.82 22.76 25.93 53.58 44.74 87.11 52.93 32.61 8.08 67.6 6.34 99.2-5.11 27.85-10 53.04-27.42 72.15-50.03 25.56-29.82 40.33-68.79 40.46-108.1.68-33.02-8.81-66.14-26.68-93.89-14.39-22.5-34.17-41.45-57.1-55.11 0-3.04.01-6.09-.02-9.13z"/><path d="M349.26 55.59c25.85 15.98 47.11 39.25 60.7 66.44 11.83 23.42 17.85 49.75 17.41 75.99-.27 31.95-10.31 63.72-28.29 90.13-8.7 12.99-19.49 24.49-31.38 34.6-24.5 20.41-55.01 33.53-86.71 37.1-35.49 4.2-72.29-3.55-103.01-21.81-25.69-15.13-47.17-37.29-61.43-63.48-12.01-21.89-18.79-46.57-19.91-71.5-1.53-34.04 7.78-68.51 26.49-97 12.51-19.32 29.17-35.87 48.38-48.53.08 4.13-.08 8.25-.27 12.38-19.2 13.8-35.25 32.01-46.37 52.89-11.88 22.08-18.17 47.1-18.23 72.17-.23 27.43 7.01 54.91 20.88 78.6 16.87 29.11 43.49 52.49 74.6 65.35 28.4 11.97 60.42 14.89 90.61 8.89 28.55-5.66 55.35-19.67 76.4-39.75 19.79-18.76 34.54-42.83 42.08-69.06 8.55-29.56 8.1-61.67-1.4-90.95-10.41-32.54-32.15-61.16-60.33-80.39.02-4.03-.18-8.05-.22-12.07z"/><path d="M349.75 74.31c24.78 18.03 44.11 43.58 54.05 72.63 9.74 27.9 10.82 58.7 3.22 87.24-6.99 26.4-21.41 50.81-41.25 69.58-10.85 10.71-23.63 19.27-37.09 26.33-.11-25.4-.02-50.79-.05-76.19 8.91-.5 17.83-3.68 24.4-9.84 6.64-6.07 11.01-14.93 10.79-24.02.34-10.55-5.22-20.25-11.97-27.95-5.13-5.76-11.5-10.29-18.35-13.77.81-1.61 1.59-3.22 2.37-4.83 18.36.02 36.72.02 55.09 0 3.21.24 7.06-1.91 6.9-5.5.36-1.39-1.31-1.94-2.03-2.79-13.96-10.99-28.05-21.83-41.83-33.05-1.16-.83-2.56-1.19-3.87-1.7 1.2-7.08.06-14.28.26-21.41-.13-11.58-.96-23.15-.64-34.73zM112.16 196.04c-.99-46.2 22.2-91.72 59.01-119.36-.23 16.46-.9 32.91-.92 49.38-.22 1.79.91 3.23 1.8 4.65-4.06.08-6.71 3.32-9.69 5.58-13.08 10.29-26.13 20.6-39.22 30.86.43 3.46 3.07 6.67 6.83 6.33 18.23.06 36.47.01 54.7.01.7 1.67 1.41 3.33 2.12 5-13.51 6.46-24.97 18.11-29.32 32.64-1.49 5.46-2.61 11.29-1.36 16.92 2.28 11.68 11.93 21.25 23.28 24.4 4.84 1.36 9.93 1.17 14.89.65-.06 25.42.02 50.84-.04 76.26-25.83-12.87-47.61-33.59-62.12-58.52-13.07-22.56-20.48-48.65-19.96-74.8z"/><path d="M167.48 134.51c1.04-.74 2.1-1.76 3.48-1.7 5.63-.19 11.27-.03 16.91 0-5.29 4.79-10.81 9.35-15.83 14.44 1.57.62 3.17 1.35 4.91 1.26 10.34.14 20.67-.45 31.01-.31 4.69.27 9.35-.51 14.03-.42 5.61 1.17 11.27-.11 16.91 0 1.69.2 3.39.39 5.09.52 3.35-.13 6.71-.12 10.06-.1 3 0 6-.01 9 .01 2.64.04 5.28.03 7.93-.04 5.68-.09 11.37.2 17.05.07 1.29-.17 2.57-.33 3.87-.49 4.65 1.04 9.39-.21 14.07.44 2.72.06 5.45.06 8.17.04 7.29-.14 14.61.38 21.88-.38 5.04-.44 10.25 1.45 15.13-.59-4.58-5.2-9.79-9.79-14.66-14.71 4.86.02 9.75-.28 14.61.08 2.48 1.07 4.31 3.19 6.42 4.81 12.16 9.75 24.59 19.17 36.67 29.01-41.31.15-82.62-.07-123.92.11l-.15-1.24c9.93-.27 19.88.24 29.81-.29-.62-4.26-2.23-8.28-3.78-12.27-.48-1.33-1.41-2.88-3.07-2.71-21.99-.18-43.99 0-65.98.15-2.29 1.61-2.43 4.86-3.61 7.23-.74 3-4 6.81-.32 9.15-31.92-.26-63.86.09-95.78-.17 13.14-10.91 26.87-21.09 40.09-31.9z"/><path d="M186.73 136.08c3.53-2.78 8.61.14 12.2-2.86-.16.4-.48 1.2-.65 1.6 2.4-.02 4.81-.02 7.21-.02l.03 1.36c-2.87.01-5.74-.07-8.57-.57.1.29.29.87.38 1.16l1.6 1.36c-4.24.64-8.53.26-12.8.41l.13-1.24c2.83-.4 6.63.86 8.86-1.05-2.8-.2-5.6-.04-8.39-.15z"/><path d="M206.64 134.58c1.01-.52 2.01-1.04 3.02-1.56-.08.46-.25 1.39-.33 1.85 3.54-.1 7.33.42 10.5-1.56-.15.38-.44 1.13-.59 1.51 3.91.07 7.98.3 11.54-1.62-.14.42-.41 1.27-.54 1.7 10.42-.67 20.81.46 31.24-.12l.48-2.44c.14.65.42 1.95.57 2.6 2.85-.12 5.71-.28 8.56-.59 2.15-1.06 4.59-.89 6.91-.87 4.99.25 10.22-.73 14.88 1.62l-.49-1.67c4.08.04 8.16.1 12.25.02l-.36 1.49c6.79-.43 13.62-.42 20.42-.12-.05-.4-.15-1.19-.19-1.59.25-.03.74-.09.99-.13-.05.45-.14 1.33-.19 1.77 4.08-.03 8.15-.07 12.22-.38-6.04 4.06-13.45.01-20.09 1.53 1.16 1.36 2.33 2.73 3.51 4.09-1.95.6-1.5 2.08-.89 3.52 1.38-.05 2.77-.1 4.16-.14.45 1.46.9 2.93 1.34 4.4-1.08-.79-2.15-1.59-3.2-2.41-3.04 0-6.08-.01-9.11-.16.13.47.38 1.42.51 1.89l-1.95.14c-.48-1.13-.95-2.26-1.43-3.39 2.63-.11 5.27-.26 7.9-.42-.2-.92-.44-1.82-.73-2.71-1.67-.21-3.32-.44-4.97-.7 2.08-.49 4.34-.75 6.08-2.15-3.56.5-7.18.71-10.73 0l1.96 2.44c-.83-.02-2.49-.07-3.32-.09 1.2.88 1.91 2.13 2.31 3.53.6.62 1.79 1.86 2.39 2.48-3.88.28-7.9-.41-11.64.97-.24-1.06-.49-2.12-.73-3.17 2.62.44 5.28.31 7.93.14-.06-.44-.19-1.32-.26-1.75-3.42 1.02-6.99.98-10.51 1.19-3.4-.3-6.8-.26-10.2-.3.06.29.17.87.23 1.16 4.2-.08 8.4-.04 12.61-.07l-.06 2c-4.3-.05-8.6-.19-12.89.21-19.86-.48-39.78-.29-59.65-.09-5.96-.23-11.94-.38-17.89.05-4.47-.4-8.96-.08-13.44-.37 1.68-3.19 5.67-1.72 8.51-2.04.45-.99.89-1.98 1.36-2.95-.58-.4-1.72-1.2-2.3-1.59 2.96-.09 6.18-.81 8.89.77-1.21.07-3.63.19-4.84.26l-.09 1.03c2.84-.03 5.67-.08 8.51-.04l-.18-.44c-.88-2.88 4.44-1.79 6.06-2.27.11.25.34.73.45.97-.86 1.05-2.14 1.32-3.85.82l.06.99c3.12-.14 6.28-.23 9.34.53.07-.3.19-.88.26-1.18l-2.8-.06c1.99-1.99 4.83-1.92 7.44-1.94l-.01-1.11c-2.73.15-5.45.33-8.17.5l-.02-1.52c5.03-.49 10.04.56 15.08.04-.32-.3-.95-.89-1.27-1.18-4.43.57-8.86-.56-13.27.16-2.35.3-4.68-.26-7.02-.36 1.51.84 3.03 1.67 4.56 2.49-3.02.11-6.04 0-9.05.04.21.81.34 1.64.39 2.48-.54-.29-1.62-.87-2.15-1.15l-.51.08c-.05-1.06-.1-2.13-.13-3.19 2.48.27 4.98.41 7.47.47l-.68-1.28c-3.38.62-6.8.14-10.2.3.53.17 1.6.5 2.13.67.14.49.43 1.46.58 1.95-2.99-.16-6.13.32-8.94-.99l5.07-.44c.4-.85.8-1.7 1.19-2.55m66.26.06c1.9.67 4.22.65 6.14.01-1.11-1.19-5.06-1.2-6.14-.01m7.96-.41c.59.59.59.59 0 0m3.04.06c.84 1.35 3.73.88 5.19.39-.85-1.36-3.73-.81-5.19-.39m10.35-.11c.86 1.49 3.96 1.16 5.46.53-.91-1.45-3.93-1.01-5.46-.53m7.36-.05c.19 3.28 3.08-1.5 0 0m-57.76 3.23c-.16.41-.49 1.22-.65 1.62-3.48-.59-7-.54-10.5-.83.61.45 1.84 1.36 2.45 1.82l-.32.84c-2.34-.21-4.72-.09-6.96.66 3.74.39 7.51.24 11.27.29-.8-.32-2.39-.94-3.19-1.25 2.28-1.95 5.61-.78 8.3-.51-1.58.6-3.42.81-4.49 2.26 1.57-.14 3.14-.3 4.71-.48.1-.85.2-1.72.54-2.52 3.06-.05 6.26.42 9.18-.77-3.08-.42-6.2-.32-9.29.01l-.08-1.95c4.78.26 9.59 1.18 14.36.19 1.87.28 3.75.45 5.65.53-1.03-.96-2.35-1.8-3.84-1.49-7.1.4-14.19.04-21.3.2-1.59 1.54 3.2.83 4.16 1.38m21.4-1.15c-.02.24-.06.71-.09.95 7.37-.1 14.79-.56 22.14.27l-.09.71c-.16.3-.49.9-.66 1.2-3.1-.99-6.36-.96-9.58-.98-.96 1.24-2.08 2.34-3.24 3.39 3.7-.3 7.52.13 11.11-1.06 3.38 1.33 7.5 1.6 10.93.34-2.38-.39-4.8-.46-7.18-.13-.07-.46-.2-1.37-.26-1.83 2.74-.02 6.16 1.18 8.31-1.16-2.8-.12-5.79 1-8.44-.11.6-.92 1.42-1.65 2.46-2.21-4.14 1.34-8.37-.23-12.56.32-4.26.89-8.6-1.01-12.85.3m26.01-.52l.31 1.68c4.54.01 9.09-.87 13.62-.21 2.47.38 5 .08 7.13-1.33-5.16.63-10.33-.4-15.47.33-1.88.24-3.75-.21-5.59-.47m21 .34c.65 1.46 3.37 1.39 4.72.85-.72-1.39-3.35-1.29-4.72-.85m-58.92 3.19c3.83.19 7.69.19 11.51-.3-3.66-1.31-7.89-.99-11.51.3m11.86-.86l.16 1.07c3.3-.11 6.6-.1 9.9-.32-2.74-2.21-6.83-.27-10.06-.75m31.56-.09c.68.43 2.03 1.29 2.7 1.72-.91.47-2.73 1.42-3.64 1.89 3.58-.26 7.17-.17 10.76-.1-1.18-.68-3.04-.46-3.73-1.79.88-1.61 3.32-.6 4.75-1.29-3.54-.94-7.23-.2-10.84-.43m-50.34 2.66c-.17 1.44 2.32 1.54 3.04.66.13-1.4-2.31-1.46-3.04-.66m5.08.67c1.1.69 3.77.83 4.18-.64-1.09-.74-3.77-.79-4.18.64m5.91-.65c-.23 1.52 3.38 1.65 3.08.09-1.03-.79-2.05-.82-3.08-.09m6.06.1c-.21 1.54 3.39 1.4 3.1-.12-1.05-.72-2.09-.68-3.1.12m4.97-.12c-.13 1.43 2.36 1.45 3.13.66.1-1.41-2.37-1.43-3.13-.66m-63.37 3.38c3.76.12 7.52.07 11.27-.23-3.09-2.24-7.23.32-10.6-1.53-.16.44-.5 1.32-.67 1.76m12.06-.05c3.29-.02 6.58.12 9.87.04-2.88-1.85-6.59-.82-9.77-1.79-.03.43-.08 1.31-.1 1.75m11.32-1.64l-.15 1.78c3.6-.21 7.29.22 10.8-.82-3.55-.42-7.13-.35-10.65-.96m10.12 1.38c4.13.4 8.3.42 12.43-.01-3.98-1.22-8.46-1.27-12.43.01m12.85.33c3.55-.06 7.11.06 10.63-.39-3.42-1.08-7.08-.65-10.58-1.27-.01.42-.04 1.24-.05 1.66m11.63-1.13l-.04 1.06c3.24 0 6.47 0 9.71.05l-.13-1.14c-3.18.03-6.36.04-9.54.03m10.25.74c3.49.44 7.02.3 10.53.51l-.34-1.77c-3.38.62-6.91.14-10.19 1.26z"/><path d="M320.35 137.39c1.76-.75 4.93-.75 6.22.55-1.77.47-5.18 1.09-6.22-.55zm8.11.07c1.4-.32 1.95.21 1.64 1.59-1.38.35-1.93-.19-1.64-1.59zm-128.73.28c.59.6.59.6 0 0zm.47 2.28c.8-1.27 1.53-1.26 2.17.02-.82 1.23-1.55 1.22-2.17-.02zm23.19-1.04c1.04.74 1.01 1.52-.09 2.35-1.27-.6-1.24-1.38.09-2.35zm54.56.34c3.42.21-1.61 2.94 0 0zm22.19-.26c2.23.01.17 3.32-.47.79l.47-.79zm10.91.28c3.42.33-1.7 2.87 0 0zm10.8.13c1.38-.43 1.92.08 1.6 1.5-1.37.41-1.9-.09-1.6-1.5zm-140.4.83c.56.58.56.58 0 0zm13.8-.42c1.1-.73 2.2-.73 3.3 0 .12 1.45-3.47 1.47-3.3 0zm-14.61 1.27c-.6 1.41-1.44 2.69-2.53 3.77 5.81-1 11.77.33 17.54-.91-.55 1.02-1.09 2.05-1.63 3.08-4.93-1.17-10.04-.41-15.06-.68-.73-.43-1.48-.82-2.25-1.19-.12.67-.35 2-.47 2.67-.61-.24-1.83-.72-2.43-.97 2.18-2.03 4.38-4.05 6.83-5.77z"/><path d="M180.09 143.3c1.12-.83 2.2-2.16 3.79-1.79 6.33-.06 12.65.22 18.98.2-.02.28-.06.83-.09 1.11-7.48.98-15.13.68-22.68.48zm136.7-.24c-2.66-.19-6.9 1.82-8.07-1.63 2.69.12 5.41.16 8.05.77.01.21.01.65.02.86zm-89.83 8.28c22.38-.43 44.77-.42 67.15-.26 1.73 4.31 3.43 8.65 4.78 13.1-25.54.12-51.08.49-76.63.3 1.48-4.42 3.24-8.72 4.7-13.14zm-102.29 17.21c1.44-.14 2.88-.24 4.33-.28 37.1-.09 74.2.08 111.3-.08.13 1.21.27 2.42.42 3.64-34.58-.18-69.17-.05-103.75-.07-4.29-.08-9.49.99-12.3-3.21zm116.4-.03c12.86-.62 25.75-.07 38.62-.29-.25 1.34.23 3.4-1.75 3.4-11.3.25-22.64.12-33.95.06-1.91.21-2.5-1.73-2.92-3.17zm39.52-.14c29.78-.29 59.57-.04 89.35-.13 8.84.09 17.68-.18 26.51.16-2.25 4.38-7.48 3.28-11.52 3.35-34.76.01-69.52-.09-104.28.05-.01-.85-.04-2.57-.06-3.43zm-91.68 5.16c47.58-.09 95.16-.01 142.74-.04-.85 1.9-1.69 3.81-2.5 5.73-45.9.08-91.79-.09-137.68.08-.91-1.9-1.76-3.82-2.56-5.77zm-21.43 29.87c4.58-8.28 11.26-15.69 19.63-20.21 45.94-.48 91.92-.03 137.87-.23 2.03.07 4.26-.23 6.07.93 11.79 6.59 21.23 17.93 24.18 31.25 1.41 8.72 1.02 18.81-5.58 25.46-8.49 9.79-25.05 11.42-34.66 2.39-8.71-7.19-10.33-22.02-2.32-30.28 8.29-8.41 25.13-.43 24.03 11.31.37 5.51-5.18 10.42-10.59 9.24-4.61-.9-6.9-6.63-5.3-10.76 2.63-.46 4.35 1.77 5.55 3.75l-3.12 2.4c3.79 2.69 10.79.64 10.38-4.63-1.93-6.62-11.24-9.3-16.49-4.83-5.76 4.12-4.69 13.88 1.5 17.08 9.36 4.98 22.8-.79 25.21-11.26 1.63-5.41-.29-11.68-4.82-15.09-5.92-4.53-13.78-5.79-21.05-5.03-3.4.3-6.65 1.64-9.34 3.72-3.87 3.17-9.03 3.67-13.64 5.15-24.95 6.7-52.51 8.58-76.69-1.94-4.95-1.72-8.59-6.06-13.81-7.11-7.82-1.64-16.28.32-22.71 5.03-3.66 2.61-6.15 6.71-6.8 11.17-1.24 6.39 3.32 12.66 9.11 15 5.48 2.2 12.62 2.77 17.28-1.5 3.09-2.9 5.29-7.13 5-11.44-.47-3.96-4.52-6.7-8.38-6.26-4.55.48-9.11 2.84-11.79 6.6-2.16 2.78.65 6.76 3.84 6.71 2.35.08 4.19-1.52 5.94-2.86-.76-.57-2.29-1.73-3.05-2.31.63-1.05 1.33-2.06 2.1-3.02 3.58.53 4.21 5.27 3.09 8.07-5.16 5.46-15.89.5-15.8-6.84-.37-7.12 5.45-14.28 12.74-14.59 5.63-.51 11.29 2.54 14.24 7.3 3.02 5.6 2.51 12.37 1.09 18.36-1.29 5.51-4.41 11.04-9.73 13.49-6.28 2.99-13.65 1.46-19.66-1.44-8.09-3.9-15.37-10.81-17.48-19.79-2.07-7.8.28-16.05 3.96-22.99z"/><path d="M293.07 216.97c3.57-.99 7.13-1.98 10.67-3.08-2.15 4.17-3.15 8.78-3.44 13.44-2.58-3.33-4.91-6.84-7.23-10.36zm-75.36.1c2.02.65 4.05 1.27 6.08 1.9-1.55 2.12-3.12 4.24-4.84 6.23-.24-2.74-.5-5.48-1.24-8.13zm55.35 3.91c5.27-.83 10.51-1.83 15.73-2.94-3.24 3.37-6.04 7.13-9.29 10.5-2.18-2.49-4.28-5.05-6.44-7.56zm-42.68-.44c4.45.74 8.92 1.33 13.42 1.69-2.55 2.59-5.11 5.17-7.77 7.64-1.81-3.15-3.74-6.24-5.65-9.33zm-10.35 10.18c2.13-3.04 4.21-6.15 6.8-8.84 1.66 3 3.46 5.92 5.24 8.84-4.01.04-8.03.05-12.04 0zm33.42-8.07c3.76-.25 7.51-.47 11.28-.67-2.11 2.09-4.2 4.19-6.29 6.3-1.73-1.81-3.37-3.71-4.99-5.63zm29.43 8.06c2.73-3.26 5.6-6.4 8.24-9.73 2.18 3.28 4.44 6.52 6.64 9.79-4.96-.05-9.92.01-14.88-.06zm-41.92.05c2.54-2.64 5.13-5.24 7.83-7.72 2.07 2.62 4.29 5.12 6.48 7.64-4.77.11-9.55.06-14.31.08zm20.43-.03c2.66-2.72 5.31-5.46 8.19-7.96 2.14 2.71 4.43 5.3 6.68 7.93-4.96.08-9.92.05-14.87.03zm-43.79 3.73c27.89.15 55.78-.07 83.66.11l.63 3.97c-28.61-.11-57.22 0-85.83-.05.51-1.35 1.02-2.69 1.54-4.03zm-10.43 13.72c2.8-1.79 5-4.33 7.46-6.54.28 32.12.06 64.26.11 96.39-5.78-2.02-11.49-4.23-17-6.91-.02-26.19.09-52.37-.06-78.56 3.2-1.37 6.55-2.46 9.49-4.38zm11.46-5.93c5.94 0 11.88.03 17.82-.03 0 33.74.03 67.48-.01 101.23-6.02-1.11-11.97-2.53-17.84-4.22.02-32.33-.05-64.66.03-96.98zm21.71-.03c6.1.05 12.2.05 18.3.01-.02 34.46.08 68.92-.05 103.39-6.11-.29-12.22-.72-18.27-1.61.04-33.93-.01-67.86.02-101.79zm22.17 0c6.12.16 12.25-.2 18.35.17.29 1.18.41 2.39.39 3.61-.08 24.67.01 49.34-.05 74.01-.16 8.14.35 16.3-.27 24.42-6.12.64-12.25 1.17-18.41 1.12-.02-34.44 0-68.89-.01-103.33zm22.21.03c5.28 0 10.57.02 15.85-.02.01 32.79 0 65.58.01 98.37-5.26 1.27-10.55 2.44-15.9 3.22.03-33.86-.04-67.71.04-101.57zm19.73.34c5.12 6.09 12.35 10.18 20.28 11.14.01 26.04-.01 52.08.01 78.12-6.59 3.01-13.4 5.51-20.3 7.68-.04-32.31-.07-64.63.01-96.94z"/></g><path d="M469.9 220.88c.8-.46 1.6-.93 2.41-1.39 7.05 5.51 11.39 13.89 13.78 22.37 2.32 9.58.73 20.73-6.54 27.86 1 5.85.78 11.79.61 17.7 5.2-2.59 9.96-6.27 15.79-7.42 7.89-1.62 16.48-2.56 24.13.6-1.6 6.83-6.96 11.95-12.37 16.02-8.58 6.15-19.85 7.63-30.06 5.76-1.89 7.78-5.43 14.97-7.95 22.54 8.22-4.07 17.57-4.39 26.5-3.15 4.93.78 9.75 2.39 13.92 5.19-4.03 7.73-12.47 12.19-20.58 14.43-9.23 1.66-19.44.95-27.48-4.26-5.06 7.43-10.79 14.38-17.02 20.84-2.26 2.32-4.71 4.48-6.56 7.17 4.48-.83 8.93-2.11 13.54-1.92 7.5-.27 14.78 2.17 21.46 5.37 2.79 1.3 5.07 3.41 7.19 5.6-11.67 12.46-32.56 12.89-46.15 3.34-2.2-1.48-3.41-3.91-3.61-6.52-6.3 4.33-12.33 9.08-19.01 12.83-2.23 1.44-5.13 2.32-6.32 4.91 12.22 1.27 22.67 9.12 29.78 18.77 1.33 1.69 2.02 3.75 2.6 5.8-8.93 3.74-19.32 2.73-27.94-1.33-7.42-4.08-14.53-9.95-17.46-18.15-17.02 6.82-35.19 11.95-53.67 11.27 1.03-1.19 2.38-2.01 4-1.8 10.76-.18 21.42-2.17 31.74-5.19-4.49-6.09-4.5-14.11-3.37-21.26 1.95-9.94 7.7-18.88 15.17-25.61.98.01 1.96.02 2.95.04 4.11 7.48 5.09 16.37 3.68 24.71-1.39 6.68-5.45 12.29-8.47 18.28 3.98-.75 7.6-2.59 11.18-4.4 7.89-3.29 15.24-7.7 22.32-12.46-7.72-7.47-8.67-19.33-6.97-29.38 1.43-6.07 2.88-12.69 7.6-17.14 5.66 5.94 8.76 14.03 9.35 22.15.33 6.65-1.95 12.98-3.29 19.39 9.43-6.76 18.31-14.6 25.28-23.93-8.16-3.57-12.96-12.1-15.32-20.33-1.79-8.91-2.45-18.83 1.69-27.21 7.47 3.13 13.14 9.7 16.69 16.84 3.49 6.72 3.49 14.47 3.69 21.85 7.68-10.29 13.59-22.02 16.81-34.47-8.97-.14-16.26-6.57-21.44-13.33-5.13-7.85-8.74-17.19-7.9-26.71 8.66.16 16.59 5.04 22.35 11.23 4.13 4.2 6.46 9.72 8.62 15.11 1.75-.88 1.52-2.9 1.69-4.49.22-5.65.3-11.33-.46-16.94-7.12-2.72-9.98-10.79-11.63-17.61-1.53-10.64-.06-22.02 5.05-31.57zm-423.74 1.33c.66.01 1.98.01 2.64.02 4.3 6.06 5.62 13.63 6.47 20.86 1.03 8.59-.78 17.65-5.89 24.73-1.5 2.18-3.76 3.61-6.06 4.81-.39 7.32-.74 14.8 1.06 21.98 3.02-5.91 5.02-12.59 10.03-17.24 5.72-5.57 13.21-10.48 21.48-10.27.71 14.63-6.72 29.66-19.3 37.37-2.89 1.85-6.29 2.54-9.64 3 3.29 10.67 8.04 20.91 14.41 30.09.83 1.12 1.84 2.08 2.83 3.06.28-3.8.08-7.62.52-11.4 1.31-9.29 6.58-17.82 13.91-23.58 1.61-1.34 3.57-2.1 5.56-2.67 2.56 4.95 3.14 10.56 2.93 16.05.43 12.09-4.85 25.48-15.84 31.51 7.33 8.61 15.71 16.32 24.95 22.84-1.01-5.8-3.19-11.4-3.22-17.36.07-7.27 2.38-14.51 6.44-20.53.84-1.44 2.34-2.12 3.85-2.63 6.35 10.35 9.64 23.36 6.11 35.26-.93 3.98-3.09 7.49-5.61 10.65 10.5 6.73 21.58 12.92 33.57 16.53-3.43-5.54-7.27-11.01-8.82-17.45-2.22-8.64-.69-17.92 3.27-25.82 3.53-.04 5.7 2.96 7.87 5.28 6.58 7.72 11.24 17.47 11.38 27.74.12 4.84-1.56 9.46-3.29 13.9 9.15 2.64 18.6 4.28 28.12 4.76 2.28.12 4.61.23 6.73 1.19-1.84.58-3.73 1.01-5.67.98-16.54-.63-32.78-4.71-48.16-10.7-2.09 7.54-8.47 12.8-14.77 16.89-8.79 5.46-20.04 6.4-29.84 3.32.21-3.69 2.44-6.77 4.78-9.46 4.44-4.94 9.4-9.61 15.45-12.5 3.8-1.86 7.99-2.62 12.05-3.67-8.77-5.34-17.71-10.43-25.86-16.72-1.21 6.98-8.79 9.5-14.66 11.38-11.42 3.97-24.18.98-33.81-5.93.07-1.36.07-2.72.33-4.04 11.07-8.93 26.49-11.34 40.07-7.55-3.15-3.66-6.74-6.9-10.1-10.37-5.16-5.29-9.48-11.31-13.98-17.15-7.16 4.68-16.06 5.63-24.4 4.79-8.82-1.11-16.92-5.92-22.71-12.58l-.16-2.42c7.64-4.8 17.02-6.1 25.89-5.79 4.55.24 8.82 1.94 13.24 2.86-2.42-7.06-5.49-13.9-7.66-21.05-4.1-.42-8.78 1.41-13.12.08-11.05-.81-21.06-7.3-27.2-16.38-1.05-1.69-1.69-3.59-2.32-5.46 5.59-2.82 12.02-2.18 18.05-1.93 8.05.49 15.56 3.96 21.97 8.7-.43-6.1-.16-12.19.24-18.27-7.43-7.55-9.15-19.18-6.37-29.13 2.22-7.75 6.29-15.08 12.26-20.58zm104.97 205.9c2.45-4.11 7.04-6.59 11.78-6.76 3.83-.43 7.5.83 11.17 1.7.51-.53 1.54-1.59 2.05-2.13 1.12 3.41 2.22 6.84 2.93 10.37-2.78-2.69-5.15-6.26-9.1-7.28-4.24-1.04-9.58-1.2-12.78 2.27-3.11 3.84-4.48 8.86-4.79 13.72.33 5.4.93 11.56 5.2 15.41 4.2 3.58 10.46 2.73 14.98.24 3.43-1.59 4.39-5.54 6.65-8.25-.75 3.81-2.58 7.69-5.91 9.9-4.09 2.84-9.41 3.35-14.2 2.44-5.8-1.35-9.74-6.91-10.74-12.56-1.62-6.39-.57-13.39 2.76-19.07zm37.63-4.27c3.62-3.71 9.42-2.83 13.48-.38.53-.92 1.06-1.83 1.59-2.74.31 2.18.65 4.36 1 6.54-3.12-2.86-7.1-3.97-11.28-3.61-2.3 2.07-4.29 5.03-3.13 8.26 1.39 5.44 7.79 6.07 11.64 9.1 6.04 3.86 5.38 13.9-.64 17.47-4.1 2.71-9.27 1.63-13.6.13-.46.46-1.38 1.36-1.84 1.81-.56-2.53-1.12-5.08-1.61-7.62 3.58 4.34 9.33 6.12 14.73 4.5 2.19-3.16 2.44-7.34 1.36-10.92-2.74-3.58-7.98-3.54-11.03-6.78-4.37-3.93-5.24-11.64-.67-15.76zm29.82.79c5.46-4.72 13.65-3.98 19.77-.97.4-.74 1.21-2.22 1.61-2.95 1.15 3.51 2.21 7.07 3.03 10.68-2.73-2.77-5.15-6.31-9.13-7.33-4.85-1.43-11.07-.79-14.12 3.71-4.55 6.98-4.29 16.13-1.24 23.65 2.22 5.65 9.72 8.15 14.96 5.2 3.64-2.3 5.01-7.29 4.09-11.34-1.12-.69-2.35-1.16-3.54-1.68 2.98-.14 5.96-.31 8.95-.32.04 5.74.3 11.49-.25 17.21-1.32-1.05-2.56-2.22-3.75-3.42-4.99 3.12-11.14 3.82-16.81 2.48-4.39-1.42-7.7-5.28-9.13-9.58-3.11-8.55-1.23-19.06 5.56-25.34zm35.4-2.91c4.34-.49 8.71-.41 13.07-.4-1.26.64-2.55 1.24-3.72 2.03-.36 2.2-.16 4.43-.09 6.65 6.91-.17 11.91 7.61 9.64 13.93-1.58 4.15-5.36 7.11-9.73 7.8.02 2.19-.21 4.43.32 6.58 1.2.51 2.41.99 3.65 1.41-3.68.27-7.36.47-11.05.47 2.33-2.2 1.9-5.44 1.99-8.33-5.36-.93-10.29-5.24-10.4-10.93.04-5.7 4.9-10.17 10.26-11.19.02-2.28.01-4.56-.04-6.83-1.3-.4-2.6-.79-3.9-1.19m3.56 27.3c.21-5.52.17-11.04.06-16.55-6.21 2.97-6.18 13.47-.06 16.55m5.99.23c6.52-3.27 6.71-13.94.08-17.15-.34 5.71-.24 11.43-.08 17.15zm12.48-27.53c7.07-.38 14.48-1.3 21.34.99 5.38 1.98 5.9 9.11 4.28 13.81-.95 3.19-4.12 4.67-6.87 6.01 2.6 4.87 5.38 9.67 8.48 14.24 1.11 1.86 3.41 2.13 5.23 2.92-4.59.46-9.22.66-13.78-.16.9-.26 2.72-.77 3.62-1.02-1.62-5.95-6.69-10.28-7.86-16.4-1.71-.14-3.42-.28-5.13-.41-.19 5.08-.33 10.18-.07 15.27-.19 2.13 2.52 2.07 3.83 2.98-3.67.18-7.33.19-11 .22.87-1.28 2.09-2.49 1.88-4.16.01-11.02.11-22.05-.08-33.07-1.3-.41-2.59-.81-3.87-1.22m9.36 2c.01 5.25.01 10.5.01 15.75 3.41-.35 7.65.93 10.35-1.78 2.35-3.54 1.88-8.14.76-12.04-3.35-2.11-7.32-2-11.12-1.93zm25.61-2.34c4.47.07 8.95-.4 13.4.15-1.29.79-2.75 1.16-4.16 1.61-.47 11.54-.14 23.13-.17 34.68 5.03-.08 10.12.45 15.11-.32 3.42-.65 4.65-4.39 6.52-6.86-.46 3.24-1.3 6.42-2.25 9.55-9.61-.18-19.22.07-28.83-.14 1.7-.98 4.69-1.32 4.18-3.96.02-10.39.09-20.79-.03-31.19.35-2.24-2.42-2.49-3.77-3.52zm41.13.75c3.72-1.88 7.7.05 11.24 1.38.13-.74.4-2.21.53-2.95.63 2.26 1.21 4.54 1.68 6.85-2.87-2.01-5.93-4.4-9.69-3.62-5.36.03-6.11 7.36-3.63 10.86 3.17 3.49 8.33 4.11 11.68 7.43 4.84 4.49 3.46 13.48-2.28 16.58-3.98 2.31-8.92 1.65-12.95-.19-.75.54-1.51 1.08-2.25 1.63-.55-2.51-1.11-5.01-1.63-7.51 3.01 3.42 7.33 6.04 12.06 5.19 5.1-.86 6.2-7.67 3.98-11.53-2.92-3.5-8.25-3.48-11.29-6.9-5.06-4.65-4.25-14.64 2.55-17.22z" fill="#1c8945"/></svg>