<svg xmlns="http://www.w3.org/2000/svg" width="631" height="138" viewBox="0 0 631 138"><path fill="#0A0A14" d="M91.264 4.333h79.04v79.004h-79.04z"/><path fill="#ED1B2F" d="M349.072 83.34V4.048h67.857c11.87 0 17.8 5.127 17.8 15.342v18.566c0 10.237-5.93 15.344-17.8 15.344h-10.44l36.58 30.04h-26.44L384.66 53.3h-17.52v30.04h-18.07zm59.53-65.732H367.14v22.128h41.46c2.86 0 4.852-.296 5.988-.913 1.545-.91 2.283-2.727 2.283-5.373v-9.553c0-2.666-.73-4.446-2.28-5.36-1.13-.636-3.13-.93-5.99-.93zM439.27 83.34V4.048h81.157v13.56h-62.61v17.63H518.1v13.554h-60.284V68.43h63.39v14.91H439.27zm85.63 0V4.048h50.998c14.637 0 25.87 3.44 33.637 10.293 7.768 6.89 11.68 16.51 11.68 28.9 0 7.9-1.793 15.06-5.385 21.51-3.89 6.75-9.307 11.63-16.27 14.6-6.36 2.66-15.82 4-28.428 4H524.9zm18.528-14.91h23.828c12.133 0 20.887-1.79 26.215-5.364 5.84-3.884 8.74-10.583 8.74-20.092 0-16.458-8.68-24.686-26.08-24.686h-32.7v50.14zm77.66-65.107c3.182 0 5.74 2.566 5.74 5.733 0 3.17-2.56 5.734-5.74 5.734-3.166 0-5.734-2.565-5.734-5.734 0-3.167 2.568-5.733 5.734-5.733zm0 10.685c2.738 0 4.967-2.223 4.967-4.952 0-2.733-2.23-4.957-4.967-4.957-2.73 0-4.955 2.22-4.955 4.95s2.224 4.95 4.955 4.95zm.047-4.577h-1.426v3.03h-.78V5.64h2.62c1.54 0 2.22.685 2.22 1.892 0 1.206-.79 1.74-1.71 1.9l2.02 3.028h-.93l-2.03-3.026zm-1.426-.68h1.67c.9.02 1.62-.26 1.62-1.23 0-.95-.8-1.19-1.63-1.19h-1.67v2.42z"/><path fill="#0A0A14" d="M5.334 4.333h79.04v79.004H5.334zm171.86 0h79.04v79.004h-79.04zm85.928 0h79.042v79.004h-79.042z"/><path fill="#FFF" d="M173.05 59.667V7.29h35.28c10.222 0 18.03 2.276 23.38 6.798 5.377 4.55 8.063 10.952 8.063 19.202 0 17.578-11.548 26.377-34.656 26.377H173.05zm12.922-9.79h16.432c8.46 0 14.52-1.15 18.148-3.433 4.038-2.67 6.05-7.256 6.05-13.772 0-10.64-6.05-15.99-18.143-15.99h-22.49v33.195zm68.26 9.44l.008-52.377h58.277v9.295h-43.32v11.38h43.207v9.033h-43.208v12.88h43.95v9.79h-58.913zm-167.25-39.63c0-4.964.95-8.26 2.854-9.914C91.72 8.096 95.31 7.29 100.6 7.29h40.474c5.29 0 8.863.806 10.765 2.483 1.91 1.652 2.84 4.95 2.84 9.913V47.28c0 4.874-.96 8.152-2.91 9.858-1.93 1.675-5.5 2.53-10.71 2.53H100.6c-5.29 0-8.88-.855-10.763-2.53-1.904-1.706-2.853-4.984-2.853-9.857V19.69zm12.785 29.94h42.12V16.93h-42.12v32.698zM70.744 49.2c0 3.883-.974 5.883-2.91 7.59-1.943 1.672-5.567 2.53-10.832 2.53H24.298c-5.283 0-8.34 0-10.78-2.593-2.683-2.85-2.85-5-2.85-9.792V19.337c0-4.876 0-7.196 2.85-9.866 2.71-2.54 5.497-2.53 10.78-2.53l46.053.04v9.61H23.48v32.7l47.266-.08z"/><path d="M13.21 112.69h3.697l6.013 9.343 6.013-9.344h3.698v19.76h-3.47v-14.18l-6.24 9.31h-.11l-6.18-9.26v14.11h-3.42v-19.76zm35.74-.142h3.218l8.695 19.9h-3.67l-2.004-4.77h-9.35l-2.04 4.77h-3.55l8.69-19.9zm4.968 12.054l-3.416-7.904-3.387 7.904h6.803zm12.902 4.968l2.09-2.484c1.89 1.637 3.81 2.57 6.238 2.57 2.145 0 3.5-1.018 3.5-2.485v-.05c0-1.41-.79-2.17-4.46-3.02-4.206-1.01-6.577-2.26-6.577-5.9v-.05c0-3.38 2.83-5.73 6.75-5.73 2.88 0 5.17.88 7.17 2.49l-1.86 2.627c-1.78-1.33-3.55-2.034-5.36-2.034-2.03 0-3.21 1.045-3.21 2.344v.053c0 1.523.907 2.2 4.718 3.104 4.178 1.017 6.323 2.51 6.323 5.788v.055c0 3.7-2.907 5.9-7.057 5.9-3.02 0-5.874-1.045-8.245-3.16zm22.02 0l2.09-2.484c1.892 1.637 3.81 2.57 6.24 2.57 2.144 0 3.5-1.018 3.5-2.485v-.05c0-1.41-.79-2.17-4.46-3.02-4.207-1.01-6.578-2.26-6.578-5.9v-.05c0-3.38 2.823-5.73 6.747-5.73 2.87 0 5.16.88 7.17 2.49l-1.87 2.627c-1.78-1.33-3.56-2.034-5.37-2.034-2.03 0-3.22 1.045-3.22 2.344v.053c0 1.523.9 2.2 4.71 3.104 4.18 1.017 6.32 2.51 6.32 5.788v.055c0 3.7-2.907 5.9-7.057 5.9-3.02 0-5.873-1.045-8.244-3.16zm36.333-16.88h3.218l10.59 13.662V112.69h3.42v19.76h-2.91l-10.89-14.06v14.06h-3.41v-19.76zm25.662 9.936v-.056c0-5.56 4.29-10.22 10.36-10.22s10.304 4.602 10.304 10.163v.057c0 5.56-4.3 10.22-10.36 10.22-6.07-.002-10.31-4.604-10.31-10.164zm17.022 0v-.056c0-3.84-2.795-7.03-6.72-7.03-3.922 0-6.66 3.135-6.66 6.974v.057c0 3.84 2.793 7 6.717 7s6.663-3.1 6.663-6.94zm15.867-6.72h-6.267v-3.217h16.034v3.21h-6.26v16.54h-3.5V115.9zm17.87-3.216h3.473v19.76h-3.472v-19.76zm12.986 0h14.707v3.16h-11.235v5.393h9.964v3.162h-9.964v8.045h-3.472v-19.76zm22.952 0h3.472v19.76h-3.472v-19.76zm12.11 9.936v-.056c0-5.618 4.207-10.22 10.19-10.22 3.644 0 5.845 1.27 7.736 3.078l-2.23 2.57c-1.58-1.47-3.274-2.457-5.532-2.457-3.755 0-6.52 3.11-6.52 6.98v.06c0 3.87 2.737 7 6.52 7 2.428 0 3.98-.96 5.674-2.54l2.23 2.26c-2.06 2.15-4.318 3.5-8.017 3.5-5.76 0-10.05-4.49-10.05-10.16zm32.945-10.078h3.22l8.693 19.9h-3.67l-2.004-4.77h-9.344l-2.033 4.77h-3.56l8.69-19.9zm4.97 12.054l-3.417-7.904-3.388 7.904h6.804zm16.88-8.695h-6.266v-3.218h16.04v3.21h-6.26v16.54h-3.5V115.9zm17.873-3.217h3.47v19.76h-3.47v-19.76zm12.11 9.936v-.056c0-5.56 4.29-10.22 10.36-10.22s10.303 4.602 10.303 10.163v.057c0 5.56-4.29 10.22-10.36 10.22-6.07-.002-10.304-4.604-10.304-10.164zm17.02 0v-.056c0-3.84-2.794-7.03-6.718-7.03s-6.662 3.135-6.662 6.974v.057c0 3.84 2.795 7 6.72 7s6.66-3.1 6.66-6.94zm12.086-9.936h3.218l10.586 13.662V112.69h3.415v19.76h-2.907l-10.897-14.06v14.06h-3.41v-19.76zm37.914 16.88l2.088-2.484c1.892 1.637 3.81 2.57 6.238 2.57 2.145 0 3.5-1.018 3.5-2.485v-.05c0-1.41-.79-2.17-4.46-3.02-4.206-1.01-6.577-2.26-6.577-5.9v-.05c0-3.38 2.82-5.73 6.74-5.73 2.88 0 5.16.88 7.17 2.49l-1.87 2.627c-1.78-1.33-3.56-2.034-5.37-2.034-2.033 0-3.22 1.045-3.22 2.344v.053c0 1.523.904 2.2 4.715 3.104 4.177 1.017 6.322 2.51 6.322 5.788v.055c0 3.7-2.91 5.9-7.06 5.9-3.02 0-5.87-1.045-8.243-3.16zm22.753-6.944v-.056c0-5.56 4.29-10.22 10.36-10.22s10.304 4.602 10.304 10.163v.057c0 5.56-4.29 10.22-10.36 10.22-6.07-.002-10.304-4.604-10.304-10.164zm17.023 0v-.056c0-3.84-2.795-7.03-6.72-7.03-3.923 0-6.66 3.135-6.66 6.974v.057c0 3.84 2.794 7 6.718 7s6.662-3.1 6.662-6.94zm12.084-9.936h3.472v16.598h10.39v3.162H453.3v-19.76zm20.835 11.375V112.69h3.472v11.234c0 3.67 1.892 5.617 4.996 5.617 3.077 0 4.97-1.83 4.97-5.47v-11.38h3.47v11.21c0 5.9-3.33 8.87-8.495 8.87-5.14 0-8.413-2.96-8.413-8.69zm30.77-8.158h-6.268v-3.218h16.034v3.21h-6.26v16.54h-3.5V115.9zm17.87-3.217h3.472v19.76h-3.472v-19.76zm12.11 9.936v-.056c0-5.56 4.29-10.22 10.36-10.22 6.07 0 10.305 4.602 10.305 10.163v.057c0 5.56-4.29 10.22-10.36 10.22-6.07-.002-10.304-4.604-10.304-10.164zm17.023 0v-.056c0-3.84-2.795-7.03-6.72-7.03-3.923 0-6.66 3.135-6.66 6.974v.057c0 3.84 2.794 7 6.718 7s6.662-3.1 6.662-6.94zm12.084-9.936h3.218l10.586 13.662V112.69h3.415v19.76h-2.9l-10.89-14.06v14.06H564v-19.76zm25.21 16.88l2.09-2.484c1.89 1.637 3.81 2.57 6.237 2.57 2.14 0 3.5-1.018 3.5-2.485v-.05c0-1.41-.79-2.17-4.46-3.02-4.21-1.01-6.58-2.26-6.58-5.9v-.05c0-3.38 2.82-5.73 6.74-5.73 2.88 0 5.16.88 7.17 2.49l-1.87 2.627c-1.78-1.33-3.56-2.034-5.368-2.034-2.03 0-3.218 1.045-3.218 2.344v.053c0 1.523.9 2.2 4.712 3.104 4.175 1.017 6.32 2.51 6.32 5.788v.055c0 3.7-2.91 5.9-7.06 5.9-3.02 0-5.87-1.045-8.24-3.16z"/></svg>