<?xml version="1.0" encoding="utf-8"?>
<!-- Generator: Adobe Illustrator 18.0.0, SVG Export Plug-In . SVG Version: 6.00 Build 0)  -->
<!DOCTYPE svg PUBLIC "-//W3C//DTD SVG 1.1//EN" "http://www.w3.org/Graphics/SVG/1.1/DTD/svg11.dtd">
<svg version="1.1" id="Layer_1" xmlns="http://www.w3.org/2000/svg" xmlns:xlink="http://www.w3.org/1999/xlink" x="0px" y="0px"
	 width="631px" height="138px" viewBox="0 0 631 138" enable-background="new 0 0 631 138" xml:space="preserve">
<g>
	<rect x="91.264" y="4.333" fill="#0A0A14" width="79.039" height="79.004"/>
	<path fill="#ED1B2F" d="M349.072,83.341V4.047h67.857c11.877,0,17.801,5.127,17.801,15.342v18.567
		c0,10.237-5.924,15.344-17.801,15.344h-10.432l36.582,30.041h-26.438L384.664,53.3h-17.525v30.041H349.072z M408.602,17.608
		h-41.463v22.128h41.463c2.859,0,4.852-0.296,5.988-0.913c1.545-0.911,2.283-2.727,2.283-5.373v-9.553
		c0-2.666-0.738-4.446-2.283-5.359C413.453,17.901,411.461,17.608,408.602,17.608z"/>
	<path fill="#ED1B2F" d="M439.271,83.341V4.047h81.156v13.561h-62.611v17.63h60.285v13.553h-60.285v19.637h63.391v14.913H439.271z"
		/>
	<path fill="#ED1B2F" d="M524.9,83.341V4.047h50.998c14.637,0,25.871,3.441,33.637,10.293c7.768,6.883,11.68,16.508,11.68,28.895
		c0,7.894-1.793,15.059-5.385,21.512c-3.889,6.75-9.307,11.63-16.27,14.598c-6.361,2.657-15.82,3.997-28.428,3.997H524.9z
		 M543.428,68.429h23.828c12.133,0,20.887-1.789,26.215-5.363c5.836-3.884,8.74-10.583,8.74-20.092
		c0-16.458-8.689-24.686-26.08-24.686h-32.703V68.429z"/>
	<g>
		<path fill="#ED1B2F" d="M621.088,3.323c3.182,0,5.74,2.566,5.74,5.733c0,3.169-2.559,5.734-5.74,5.734
			c-3.166,0-5.734-2.565-5.734-5.734C615.353,5.889,617.922,3.323,621.088,3.323z M621.088,14.008c2.738,0,4.967-2.223,4.967-4.952
			c0-2.733-2.229-4.957-4.967-4.957c-2.731,0-4.955,2.223-4.955,4.957C616.133,11.785,618.357,14.008,621.088,14.008z
			 M621.135,9.431h-1.426v3.026h-0.777v-6.82h2.625c1.545,0,2.219,0.686,2.219,1.893c0,1.205-0.787,1.74-1.705,1.901l2.02,3.026
			h-0.928L621.135,9.431z M619.709,8.743h1.674c0.904,0.018,1.623-0.263,1.623-1.228c0-0.957-0.795-1.193-1.623-1.193h-1.674V8.743z
			"/>
	</g>
	<rect x="5.334" y="4.333" fill="#0A0A14" width="79.04" height="79.004"/>
	<rect x="177.193" y="4.333" fill="#0A0A14" width="79.04" height="79.004"/>
	<rect x="263.122" y="4.333" fill="#0A0A14" width="79.042" height="79.004"/>
	<path fill="#FFFFFF" d="M173.051,59.667V7.291h35.278c10.223,0,18.032,2.275,23.381,6.797c5.377,4.55,8.063,10.952,8.063,19.202
		c0,17.578-11.548,26.377-34.656,26.377H173.051z M185.972,49.877h16.432c8.46,0,14.519-1.149,18.148-3.433
		c4.038-2.67,6.051-7.256,6.051-13.772c0-10.639-6.051-15.989-18.144-15.989h-22.486V49.877z"/>
	<path fill="#FFFFFF" d="M254.233,59.318L254.24,6.94h58.277v9.295h-43.321v11.381h43.208v9.032h-43.208v12.88h43.951v9.79H254.233z
		"/>
	<path fill="#FFFFFF" d="M86.983,19.686c0-4.963,0.949-8.261,2.853-9.913C91.72,8.096,95.31,7.291,100.6,7.291h40.474
		c5.29,0,8.863,0.805,10.765,2.482c1.918,1.652,2.842,4.95,2.842,9.913v27.595c0,4.873-0.962,8.151-2.903,9.857
		c-1.93,1.675-5.497,2.529-10.705,2.529H100.6c-5.289,0-8.879-0.854-10.763-2.529c-1.904-1.706-2.853-4.984-2.853-9.857V19.686z
		 M99.767,49.628h42.119V16.93H99.767V49.628z"/>
	<path fill="#FFFFFF" d="M70.744,49.201c0,3.882-0.974,5.882-2.911,7.589c-1.942,1.672-5.566,2.529-10.831,2.529H24.298
		c-5.283,0-8.34,0-10.78-2.592c-2.683-2.85-2.849-4.999-2.849-9.792V19.337c0-4.876,0-7.196,2.849-9.866
		c2.71-2.54,5.497-2.531,10.78-2.531l46.053,0.036v9.605H23.478v32.698L70.744,49.201z"/>
</g>
<g>
	<path d="M13.209,112.689h3.698l6.013,9.344l6.013-9.344h3.698v19.76h-3.472v-14.171l-6.238,9.316h-0.113l-6.182-9.259v14.114
		h-3.416V112.689z"/>
	<path d="M48.95,112.548h3.218l8.695,19.901h-3.67l-2.004-4.771h-9.344l-2.032,4.771h-3.557L48.95,112.548z M53.918,124.602
		l-3.416-7.904l-3.387,7.904H53.918z"/>
	<path d="M66.82,129.57l2.089-2.484c1.892,1.637,3.811,2.569,6.239,2.569c2.145,0,3.5-1.017,3.5-2.484v-0.057
		c0-1.411-0.79-2.173-4.46-3.02c-4.206-1.017-6.577-2.259-6.577-5.9v-0.057c0-3.387,2.823-5.73,6.747-5.73
		c2.879,0,5.166,0.875,7.17,2.484l-1.863,2.625c-1.779-1.327-3.557-2.032-5.364-2.032c-2.032,0-3.218,1.044-3.218,2.343v0.057
		c0,1.524,0.903,2.202,4.714,3.105c4.178,1.016,6.323,2.512,6.323,5.787v0.056c0,3.698-2.907,5.9-7.057,5.9
		C72.042,132.731,69.191,131.687,66.82,129.57z"/>
	<path d="M88.841,129.57l2.089-2.484c1.892,1.637,3.811,2.569,6.239,2.569c2.145,0,3.5-1.017,3.5-2.484v-0.057
		c0-1.411-0.79-2.173-4.46-3.02c-4.206-1.017-6.577-2.259-6.577-5.9v-0.057c0-3.387,2.823-5.73,6.747-5.73
		c2.879,0,5.166,0.875,7.17,2.484l-1.863,2.625c-1.779-1.327-3.557-2.032-5.364-2.032c-2.032,0-3.218,1.044-3.218,2.343v0.057
		c0,1.524,0.903,2.202,4.714,3.105c4.178,1.016,6.323,2.512,6.323,5.787v0.056c0,3.698-2.907,5.9-7.057,5.9
		C94.063,132.731,91.212,131.687,88.841,129.57z"/>
	<path d="M125.173,112.689h3.218l10.585,13.663v-13.663h3.416v19.76h-2.908l-10.896-14.058v14.058h-3.416V112.689z"/>
	<path d="M150.835,122.626v-0.056c0-5.561,4.291-10.219,10.36-10.219s10.304,4.601,10.304,10.162v0.057
		c0,5.561-4.291,10.219-10.36,10.219C155.07,132.788,150.835,128.186,150.835,122.626z M167.857,122.626v-0.056
		c0-3.839-2.795-7.029-6.719-7.029c-3.923,0-6.662,3.134-6.662,6.973v0.057c0,3.839,2.794,7,6.718,7
		S167.857,126.465,167.857,122.626z"/>
	<path d="M183.724,115.907h-6.267v-3.218h16.034v3.218h-6.267v16.542h-3.501V115.907z"/>
	<path d="M201.595,112.689h3.472v19.76h-3.472V112.689z"/>
	<path d="M214.58,112.689h14.707v3.162h-11.235v5.392h9.964v3.162h-9.964v8.045h-3.472V112.689z"/>
	<path d="M237.532,112.689h3.472v19.76h-3.472V112.689z"/>
	<path d="M249.643,122.626v-0.056c0-5.618,4.206-10.219,10.191-10.219c3.642,0,5.843,1.27,7.734,3.077l-2.23,2.569
		c-1.58-1.468-3.274-2.456-5.532-2.456c-3.755,0-6.521,3.105-6.521,6.973v0.057c0,3.867,2.738,7,6.521,7
		c2.428,0,3.98-0.959,5.674-2.54l2.23,2.258c-2.061,2.146-4.318,3.501-8.017,3.501C253.934,132.788,249.643,128.3,249.643,122.626z"
		/>
	<path d="M282.587,112.548h3.219l8.694,19.901h-3.67l-2.004-4.771h-9.344l-2.033,4.771h-3.557L282.587,112.548z M287.556,124.602
		l-3.416-7.904l-3.388,7.904H287.556z"/>
	<path d="M304.438,115.907h-6.267v-3.218h16.034v3.218h-6.267v16.542h-3.501V115.907z"/>
	<path d="M322.309,112.689h3.472v19.76h-3.472V112.689z"/>
	<path d="M334.419,122.626v-0.056c0-5.561,4.291-10.219,10.36-10.219s10.304,4.601,10.304,10.162v0.057
		c0,5.561-4.291,10.219-10.36,10.219C338.653,132.788,334.419,128.186,334.419,122.626z M351.441,122.626v-0.056
		c0-3.839-2.795-7.029-6.719-7.029c-3.924,0-6.662,3.134-6.662,6.973v0.057c0,3.839,2.795,7,6.719,7
		S351.441,126.465,351.441,122.626z"/>
	<path d="M363.526,112.689h3.218l10.586,13.663v-13.663h3.415v19.76h-2.907l-10.897-14.058v14.058h-3.415V112.689z"/>
	<path d="M401.439,129.57l2.089-2.484c1.892,1.637,3.811,2.569,6.238,2.569c2.145,0,3.501-1.017,3.501-2.484v-0.057
		c0-1.411-0.791-2.173-4.46-3.02c-4.207-1.017-6.578-2.259-6.578-5.9v-0.057c0-3.387,2.823-5.73,6.747-5.73
		c2.879,0,5.166,0.875,7.17,2.484l-1.863,2.625c-1.778-1.327-3.557-2.032-5.363-2.032c-2.032,0-3.218,1.044-3.218,2.343v0.057
		c0,1.524,0.903,2.202,4.714,3.105c4.178,1.016,6.323,2.512,6.323,5.787v0.056c0,3.698-2.907,5.9-7.057,5.9
		C406.662,132.731,403.81,131.687,401.439,129.57z"/>
	<path d="M424.193,122.626v-0.056c0-5.561,4.291-10.219,10.36-10.219s10.304,4.601,10.304,10.162v0.057
		c0,5.561-4.291,10.219-10.36,10.219C428.428,132.788,424.193,128.186,424.193,122.626z M441.216,122.626v-0.056
		c0-3.839-2.795-7.029-6.719-7.029c-3.924,0-6.662,3.134-6.662,6.973v0.057c0,3.839,2.795,7,6.719,7
		S441.216,126.465,441.216,122.626z"/>
	<path d="M453.3,112.689h3.472v16.599h10.389v3.162H453.3V112.689z"/>
	<path d="M474.135,124.065v-11.376h3.472v11.235c0,3.67,1.892,5.617,4.996,5.617c3.077,0,4.969-1.835,4.969-5.476v-11.376h3.472
		v11.207c0,5.9-3.331,8.864-8.496,8.864C477.409,132.76,474.135,129.796,474.135,124.065z"/>
	<path d="M504.904,115.907h-6.267v-3.218h16.034v3.218h-6.267v16.542h-3.501V115.907z"/>
	<path d="M522.775,112.689h3.472v19.76h-3.472V112.689z"/>
	<path d="M534.886,122.626v-0.056c0-5.561,4.291-10.219,10.36-10.219c6.069,0,10.304,4.601,10.304,10.162v0.057
		c0,5.561-4.291,10.219-10.36,10.219C539.12,132.788,534.886,128.186,534.886,122.626z M551.908,122.626v-0.056
		c0-3.839-2.795-7.029-6.719-7.029c-3.924,0-6.662,3.134-6.662,6.973v0.057c0,3.839,2.795,7,6.719,7
		C549.17,129.57,551.908,126.465,551.908,122.626z"/>
	<path d="M563.992,112.689h3.218l10.586,13.663v-13.663h3.415v19.76h-2.907l-10.897-14.058v14.058h-3.415V112.689z"/>
	<path d="M589.202,129.57l2.089-2.484c1.892,1.637,3.811,2.569,6.238,2.569c2.146,0,3.501-1.017,3.501-2.484v-0.057
		c0-1.411-0.791-2.173-4.461-3.02c-4.206-1.017-6.577-2.259-6.577-5.9v-0.057c0-3.387,2.823-5.73,6.747-5.73
		c2.879,0,5.166,0.875,7.17,2.484l-1.863,2.625c-1.778-1.327-3.557-2.032-5.363-2.032c-2.032,0-3.218,1.044-3.218,2.343v0.057
		c0,1.524,0.903,2.202,4.714,3.105c4.178,1.016,6.323,2.512,6.323,5.787v0.056c0,3.698-2.907,5.9-7.057,5.9
		C594.425,132.731,591.573,131.687,589.202,129.57z"/>
</g>
</svg>
