<?xml version="1.0" encoding="utf-8"?>
<!-- Generator: Adobe Illustrator 19.0.0, SVG Export Plug-In . SVG Version: 6.00 Build 0)  -->
<svg version="1.1" id="Layer_1" xmlns="http://www.w3.org/2000/svg" xmlns:xlink="http://www.w3.org/1999/xlink" x="0px" y="0px"
	 viewBox="-224 580 631 138" style="enable-background:new -224 580 631 138;" xml:space="preserve">
<style type="text/css">
	.st0{fill:#ED1B2F;}
	.st1{fill:none;}
	.st2{fill:#0A0A14;}
	.st3{fill:#FFFFFF;}
</style>
<path class="st0" d="M125.1,663.3V584h67.9c11.9,0,17.8,5.1,17.8,15.3V618c0,10.2-5.9,15.3-17.8,15.3h-10.4l36.6,30h-26.4l-32-30
	h-17.5v30H125.1L125.1,663.3z M184.6,597.6h-41.5v22.1h41.5c2.9,0,4.9-0.3,6-0.9c1.5-0.9,2.3-2.7,2.3-5.4v-9.6
	c0-2.7-0.7-4.4-2.3-5.4C189.5,597.9,187.5,597.6,184.6,597.6L184.6,597.6z M215.3,663.3V584h81.2v13.6h-62.6v17.6h60.3v13.6h-60.3
	v19.6h63.4v14.9H215.3z M300.9,663.3V584h51c14.6,0,25.9,3.4,33.6,10.3c7.8,6.9,11.7,16.5,11.7,28.9c0,7.9-1.8,15.1-5.4,21.5
	c-3.9,6.8-9.3,11.6-16.3,14.6c-6.4,2.7-15.8,4-28.4,4L300.9,663.3L300.9,663.3z M319.4,648.4h23.8c12.1,0,20.9-1.8,26.2-5.4
	c5.8-3.9,8.7-10.6,8.7-20.1c0-16.5-8.7-24.7-26.1-24.7h-32.7L319.4,648.4L319.4,648.4z M397.1,583.3c3.2,0,5.7,2.6,5.7,5.7
	c0,3.2-2.6,5.7-5.7,5.7c-3.2,0-5.7-2.6-5.7-5.7C391.4,585.9,393.9,583.3,397.1,583.3z M397.1,594c2.7,0,5-2.2,5-5c0-2.7-2.2-5-5-5
	c-2.7,0-5,2.2-5,5C392.1,591.8,394.4,594,397.1,594L397.1,594z M397.1,589.4h-1.4v3h-0.8v-6.8h2.6c1.5,0,2.2,0.7,2.2,1.9
	c0,1.2-0.8,1.7-1.7,1.9l2,3h-0.9L397.1,589.4L397.1,589.4z M395.7,588.8h1.7c0.9,0,1.6-0.3,1.6-1.2c0-1-0.8-1.2-1.6-1.2h-1.7
	L395.7,588.8L395.7,588.8z"/>
<g>
	<rect x="-124.2" y="596.9" class="st1" width="42.1" height="32.7"/>
	<path class="st2" d="M-218.7,663.3h79v-79h-79V663.3z M-213.3,599.3c0-4.9,0-7.2,2.8-9.9c2.7-2.5,5.5-2.5,10.8-2.5l46.1,0v9.6
		h-46.9v32.7l47.3-0.1c0,0,0,0,0,0l0,0h0c0,3.9-1,5.9-2.9,7.6c-1.9,1.7-5.6,2.5-10.8,2.5h-32.7c-5.3,0-8.3,0-10.8-2.6
		c-2.7-2.8-2.8-5-2.8-9.8V599.3z"/>
	<path class="st2" d="M30.2,639.3l0-52.4h2v-2.6h-79v3h31.1c10.2,0,18,2.3,23.4,6.8c5.4,4.5,8.1,11,8.1,19.2
		c0,17.6-11.5,26.4-34.7,26.4h-27.9v23.7h79v-24L30.2,639.3L30.2,639.3z"/>
	<path class="st2" d="M2.6,612.7c0-10.6-6-16-18.1-16H-38v33.2h0h16.4c8.5,0,14.5-1.2,18.1-3.4C0.6,623.8,2.6,619.2,2.6,612.7z"/>
	<polygon class="st2" points="39.1,584.3 39.1,586.9 88.5,586.9 88.5,596.2 45.2,596.2 45.2,607.6 88.4,607.6 88.4,616.6 
		45.2,616.6 45.2,629.5 89.1,629.5 89.1,639.3 39.1,639.3 39.1,663.3 118.2,663.3 118.2,584.3 	"/>
	<g>
		<rect x="-124.2" y="596.9" class="st2" width="42.1" height="32.7"/>
		<path class="st2" d="M-132.7,584.3v4.5c2.1-1,5.2-1.6,9.3-1.6h40.5c5.3,0,8.9,0.8,10.8,2.5c1.9,1.7,2.8,5,2.8,9.9v27.6
			c0,4.9-1,8.2-2.9,9.9c-1.9,1.7-5.5,2.5-10.7,2.5h-40.5c-4.2,0-7.3-0.5-9.3-1.6v25.3h79v-79H-132.7z"/>
	</g>
	<polygon class="st3" points="-153.3,629.2 -153.3,629.2 -153.3,629.2 	"/>
</g>
<path d="M-210.8,692.7h3.7l6,9.3l6-9.3h3.7v19.8h-3.5v-14.2l-6.2,9.3h-0.1l-6.2-9.3v14.1h-3.4L-210.8,692.7L-210.8,692.7z
	 M-175.1,692.5h3.2l8.7,19.9h-3.7l-2-4.8h-9.4l-2,4.8h-3.6L-175.1,692.5L-175.1,692.5z M-170.1,704.6l-3.4-7.9l-3.4,7.9H-170.1z
	 M-157.2,709.6l2.1-2.5c1.9,1.6,3.8,2.6,6.2,2.6c2.1,0,3.5-1,3.5-2.5v-0.1c0-1.4-0.8-2.2-4.5-3c-4.2-1-6.6-2.3-6.6-5.9v0
	c0-3.4,2.8-5.7,6.8-5.7c2.9,0,5.2,0.9,7.2,2.5l-1.9,2.6c-1.8-1.3-3.6-2-5.4-2c-2,0-3.2,1-3.2,2.3v0.1c0,1.5,0.9,2.2,4.7,3.1
	c4.2,1,6.3,2.5,6.3,5.8v0.1c0,3.7-2.9,5.9-7.1,5.9C-151.9,712.7-154.8,711.7-157.2,709.6L-157.2,709.6z M-135.2,709.6l2.1-2.5
	c1.9,1.6,3.8,2.6,6.2,2.6c2.1,0,3.5-1,3.5-2.5v-0.1c0-1.4-0.8-2.2-4.5-3c-4.2-1-6.6-2.3-6.6-5.9v0c0-3.4,2.8-5.7,6.7-5.7
	c2.9,0,5.2,0.9,7.2,2.5l-1.9,2.6c-1.8-1.3-3.6-2-5.4-2c-2,0-3.2,1-3.2,2.3v0.1c0,1.5,0.9,2.2,4.7,3.1c4.2,1,6.3,2.5,6.3,5.8v0.1
	c0,3.7-2.9,5.9-7.1,5.9C-130,712.7-132.8,711.7-135.2,709.6L-135.2,709.6z M-98.8,692.7h3.2l10.6,13.7v-13.7h3.4v19.8h-2.9
	l-10.9-14.1v14.1h-3.4L-98.8,692.7L-98.8,692.7z M-73.2,702.6L-73.2,702.6c0-5.6,4.3-10.3,10.4-10.3s10.3,4.6,10.3,10.2v0.1
	c0,5.6-4.3,10.2-10.4,10.2C-68.9,712.8-73.2,708.2-73.2,702.6L-73.2,702.6z M-56.1,702.6L-56.1,702.6c0-3.9-2.8-7.1-6.7-7.1
	c-3.9,0-6.7,3.1-6.7,7v0.1c0,3.8,2.8,7,6.7,7S-56.1,706.5-56.1,702.6L-56.1,702.6z M-40.3,695.9h-6.3v-3.2h16v3.2h-6.3v16.5h-3.5
	L-40.3,695.9L-40.3,695.9z M-22.4,692.7h3.5v19.8h-3.5L-22.4,692.7L-22.4,692.7z M-9.4,692.7H5.3v3.2H-5.9v5.4H4v3.2h-10v8h-3.5
	C-9.4,712.5-9.4,692.7-9.4,692.7z M13.5,692.7H17v19.8h-3.5C13.5,712.5,13.5,692.7,13.5,692.7z M25.6,702.6L25.6,702.6
	c0-5.7,4.2-10.3,10.2-10.3c3.6,0,5.8,1.3,7.7,3.1l-2.2,2.6c-1.6-1.5-3.3-2.5-5.5-2.5c-3.8,0-6.5,3.1-6.5,7v0.1c0,3.9,2.7,7,6.5,7
	c2.4,0,4-1,5.7-2.5l2.2,2.3c-2.1,2.1-4.3,3.5-8,3.5C29.9,712.8,25.6,708.3,25.6,702.6L25.6,702.6z M58.6,692.5h3.2l8.7,19.9h-3.7
	l-2-4.8h-9.3l-2,4.8h-3.6L58.6,692.5L58.6,692.5z M63.6,704.6l-3.4-7.9l-3.4,7.9H63.6L63.6,704.6z M80.4,695.9h-6.3v-3.2h16v3.2H84
	v16.5h-3.5L80.4,695.9L80.4,695.9z M98.3,692.7h3.5v19.8h-3.5V692.7z M110.4,702.6L110.4,702.6c0-5.6,4.3-10.3,10.4-10.3
	s10.3,4.6,10.3,10.2v0.1c0,5.6-4.3,10.2-10.4,10.2C114.7,712.8,110.4,708.2,110.4,702.6L110.4,702.6z M127.4,702.6L127.4,702.6
	c0-3.9-2.8-7.1-6.7-7.1s-6.7,3.1-6.7,7v0.1c0,3.8,2.8,7,6.7,7S127.4,706.5,127.4,702.6L127.4,702.6z M139.5,692.7h3.2l10.6,13.7
	v-13.7h3.4v19.8h-2.9l-10.9-14.1v14.1h-3.4L139.5,692.7L139.5,692.7z M177.4,709.6l2.1-2.5c1.9,1.6,3.8,2.6,6.2,2.6
	c2.1,0,3.5-1,3.5-2.5v-0.1c0-1.4-0.8-2.2-4.5-3c-4.2-1-6.6-2.3-6.6-5.9v0c0-3.4,2.8-5.7,6.7-5.7c2.9,0,5.2,0.9,7.2,2.5l-1.9,2.6
	c-1.8-1.3-3.6-2-5.4-2c-2,0-3.2,1-3.2,2.3v0.1c0,1.5,0.9,2.2,4.7,3.1c4.2,1,6.3,2.5,6.3,5.8v0.1c0,3.7-2.9,5.9-7.1,5.9
	C182.6,712.7,179.8,711.7,177.4,709.6L177.4,709.6z M200.2,702.6L200.2,702.6c0-5.6,4.3-10.3,10.4-10.3s10.3,4.6,10.3,10.2v0.1
	c0,5.6-4.3,10.2-10.4,10.2C204.4,712.8,200.2,708.2,200.2,702.6z M217.2,702.6L217.2,702.6c0-3.9-2.8-7.1-6.7-7.1
	c-3.9,0-6.7,3.1-6.7,7v0.1c0,3.8,2.8,7,6.7,7S217.2,706.5,217.2,702.6L217.2,702.6z M229.3,692.7h3.5v16.6h10.4v3.2h-13.9
	L229.3,692.7L229.3,692.7z M250.1,704.1v-11.4h3.5v11.2c0,3.7,1.9,5.6,5,5.6c3.1,0,5-1.8,5-5.5v-11.4h3.5v11.2
	c0,5.9-3.3,8.9-8.5,8.9C253.4,712.8,250.1,709.8,250.1,704.1L250.1,704.1z M280.9,695.9h-6.3v-3.2h16v3.2h-6.3v16.5h-3.5
	L280.9,695.9L280.9,695.9z M298.8,692.7h3.5v19.8h-3.5V692.7z M310.9,702.6L310.9,702.6c0-5.6,4.3-10.3,10.4-10.3
	s10.3,4.6,10.3,10.2v0.1c0,5.6-4.3,10.2-10.4,10.2C315.1,712.8,310.9,708.2,310.9,702.6L310.9,702.6z M327.9,702.6L327.9,702.6
	c0-3.9-2.8-7.1-6.7-7.1c-3.9,0-6.7,3.1-6.7,7v0.1c0,3.8,2.8,7,6.7,7S327.9,706.5,327.9,702.6L327.9,702.6z M340,692.7h3.2l10.6,13.7
	v-13.7h3.4v19.8h-2.9l-10.9-14.1v14.1H340L340,692.7L340,692.7z M365.2,709.6l2.1-2.5c1.9,1.6,3.8,2.6,6.2,2.6c2.1,0,3.5-1,3.5-2.5
	v-0.1c0-1.4-0.8-2.2-4.5-3c-4.2-1-6.6-2.3-6.6-5.9v0c0-3.4,2.8-5.7,6.7-5.7c2.9,0,5.2,0.9,7.2,2.5l-1.9,2.6c-1.8-1.3-3.6-2-5.4-2
	c-2,0-3.2,1-3.2,2.3v0.1c0,1.5,0.9,2.2,4.7,3.1c4.2,1,6.3,2.5,6.3,5.8v0.1c0,3.7-2.9,5.9-7.1,5.9
	C370.4,712.7,367.5,711.7,365.2,709.6L365.2,709.6z"/>
</svg>
