<?xml version="1.0" encoding="utf-8"?>
<!-- Generator: Adobe Illustrator 19.0.0, SVG Export Plug-In . SVG Version: 6.00 Build 0)  -->
<svg version="1.1" id="Layer_1" xmlns="http://www.w3.org/2000/svg" xmlns:xlink="http://www.w3.org/1999/xlink" x="0px" y="0px"
	 viewBox="0 0 115.3 15.9" style="enable-background:new 0 0 115.3 15.9;" xml:space="preserve">
<g>
	<g>
		<path d="M33.8,8.9h5.4l-0.8,4.4h-6.2c-0.6,0-1.2-0.3-1.6-0.9c-0.8-1-1.1-2.6-0.7-4.4c0.7-3.8,3.2-5.4,4.4-5.4H42l0.3-1.8h-7.8
			c-2.7,0-5.6,3.2-6.3,7.1c-0.4,2.4-0.1,4.5,1.1,5.9c0.7,0.8,1.6,1.3,2.6,1.3h7.7l1.5-8h-7L33.8,8.9z"/>
		<path d="M52.5,0.8h-4.1c-2.7,0-5.5,3.2-6.3,7.1c-0.4,2.4-0.1,4.5,1.1,5.9c0.7,0.8,1.6,1.3,2.6,1.3h4.1v0c2.7,0,5.5-3.2,6.3-7.1
			c0.4-2.4,0.1-4.5-1.1-5.9C54.4,1.3,53.5,0.8,52.5,0.8z M54.5,8c-0.7,3.7-3,5.4-4.4,5.4H46c-0.6,0-1.2-0.3-1.6-0.9
			c-0.8-1-1.1-2.6-0.7-4.4c0.7-3.8,3.2-5.4,4.4-5.4h4.1c0.6,0,1.2,0.3,1.6,0.9C54.3,4.1,55,5.4,54.5,8z"/>
		<path d="M94.6,2.1c-0.7-0.8-1.6-1.3-2.6-1.3h-4.1c-2.7,0-5.5,3.2-6.3,7.1c-0.4,2.4-0.1,4.5,1.1,5.9c0.7,0.8,1.6,1.3,2.6,1.3h4.1
			l0,0c2.7,0,5.5-3.2,6.3-7.1C96.1,5.6,95.7,3.5,94.6,2.1z M94,8c-0.7,3.7-3,5.4-4.4,5.4h-4.1c-0.6,0-1.2-0.3-1.6-0.9
			c-0.8-1-1.1-2.6-0.7-4.4c0.7-3.8,3.2-5.4,4.4-5.4h4.1c0.6,0,1.2,0.3,1.6,0.9C93.8,4.1,94.5,5.4,94,8z"/>
		<path d="M81.6,4.9c0.3-1.4,0.1-2.5-0.5-3.3c-0.4-0.5-1-0.8-1.6-0.8H56.3L56,2.6h5.5l-2.3,12.5h1.6l2.3-12.5h6.7l-2.3,12.5h1.7
			l2.3-12.5h7.7c0.2,0,0.4,0.1,0.5,0.3C80,3.3,80.1,4,80,4.8c-0.3,1.4-1.1,2.2-1.7,2.2h-6.5l-0.3,1.8l5.1,0c0.7,0,1.2,0.2,1.5,0.6
			c0.7,0.9,0.5,2.7,0,5.5l0,0.1h1.7l0-0.1c0.6-3.3,0.5-5.4-0.5-6.5C80.4,7.9,81.3,6.6,81.6,4.9z"/>
		<path d="M28.2,4.9c0.3-1.4,0.1-2.5-0.6-3.3c-0.4-0.5-1-0.8-1.6-0.8h-10l-2.7,14.3h1.7l2.3-12.5h8.4c0.2,0,0.4,0.1,0.5,0.3
			c0.3,0.4,0.4,1.1,0.3,1.9c-0.3,1.4-1.1,2.2-1.7,2.2h-7.2l-0.3,1.8l5.1,0c0.8,0,1.4,0.2,1.9,0.7c0.8,0.9,0.9,2.7,0.4,5.3l0,0.1h1.7
			l0-0.1c0.6-3.3,0.5-5.4-0.5-6.5C27.1,7.9,28,6.6,28.2,4.9z"/>
		<path d="M108.9,1.9c-0.6-0.7-1.4-1-2.5-1h-8.8l-2.7,14.3h1.7l2.3-12.5h7.2c0.5,0,1,0.2,1.4,0.7c0.4,0.5,0.5,1.1,0.4,1.7l-1.9,10.1
			h1.7l1.9-10.1C109.7,3.7,109.5,2.6,108.9,1.9z"/>
		<path d="M13.2,8.9l0.3-1.8H2.8c0.6-2.5,2.6-4.4,4.6-4.4h6.9l0.3-1.8h-7c-3,0-6,2.7-6.8,6.2L0.6,8.7l0,0.1h0
			c-0.3,1.8,0.2,3.5,1.2,4.7c0.8,1,2,1.5,3.3,1.5H12l0.3-1.8h-7c-0.8,0-1.6-0.3-2.1-1c-0.7-0.8-1-2.1-0.8-3.5H13.2z"/>
	</g>
	<path d="M114.1,1.9c0.3,0.3,0.5,0.8,0.5,1.3c0,0.5-0.2,0.9-0.5,1.3c-0.3,0.3-0.8,0.5-1.3,0.5c-0.5,0-0.9-0.2-1.3-0.5
		c-0.3-0.3-0.5-0.8-0.5-1.3c0-0.5,0.2-0.9,0.5-1.3c0.3-0.3,0.8-0.5,1.3-0.5C113.3,1.4,113.7,1.6,114.1,1.9z M114.3,1.7
		c-0.4-0.4-0.9-0.6-1.5-0.6c-0.6,0-1,0.2-1.5,0.6c-0.4,0.4-0.6,0.9-0.6,1.5c0,0.6,0.2,1.1,0.6,1.5c0.4,0.4,0.9,0.6,1.5,0.6
		s1.1-0.2,1.5-0.6c0.4-0.4,0.6-0.9,0.6-1.5C114.9,2.6,114.7,2.1,114.3,1.7z M113.1,3.1c-0.1,0-0.2,0.1-0.4,0.1h-0.4V2.3h0.3
		c0.2,0,0.4,0,0.5,0.1c0.1,0.1,0.2,0.2,0.2,0.3C113.4,2.9,113.3,3,113.1,3.1z M112,4.3h0.4V3.4h0.3c0.2,0,0.4,0,0.4,0.1
		c0.1,0.1,0.2,0.3,0.2,0.5v0.2l0,0.1c0,0,0,0,0,0c0,0,0,0,0,0h0.4l0,0c0,0,0-0.1,0-0.1c0-0.1,0-0.1,0-0.2V3.8c0-0.1,0-0.2-0.1-0.4
		c-0.1-0.1-0.2-0.2-0.4-0.2c0.1,0,0.2-0.1,0.3-0.1c0.1-0.1,0.2-0.2,0.2-0.4c0-0.3-0.1-0.5-0.3-0.6c-0.1-0.1-0.3-0.1-0.6-0.1H112V4.3
		z"/>
</g>
</svg>
