<svg xmlns="http://www.w3.org/2000/svg" viewBox="0 0 115.3 15.9"><path d="M33.8 8.9h5.4l-.8 4.4h-6.2c-.6 0-1.2-.3-1.6-.9-.8-1-1.1-2.6-.7-4.4.7-3.8 3.2-5.4 4.4-5.4H42l.3-1.8h-7.8c-2.7 0-5.6 3.2-6.3 7.1-.4 2.4-.1 4.5 1.1 5.9.7.8 1.6 1.3 2.6 1.3h7.7l1.5-8h-7l-.3 1.8zM52.5.8h-4.1c-2.7 0-5.5 3.2-6.3 7.1-.4 2.4-.1 4.5 1.1 5.9.7.8 1.6 1.3 2.6 1.3h4.1c2.7 0 5.5-3.2 6.3-7.1.4-2.4.1-4.5-1.1-5.9-.7-.8-1.6-1.3-2.6-1.3zm2 7.2c-.7 3.7-3 5.4-4.4 5.4H46c-.6 0-1.2-.3-1.6-.9-.8-1-1.1-2.6-.7-4.4.7-3.8 3.2-5.4 4.4-5.4h4.1c.6 0 1.2.3 1.6.9.5.5 1.2 1.8.7 4.4zm40.1-5.9C93.9 1.3 93 .8 92 .8h-4.1c-2.7 0-5.5 3.2-6.3 7.1-.4 2.4-.1 4.5 1.1 5.9.7.8 1.6 1.3 2.6 1.3h4.1c2.7 0 5.5-3.2 6.3-7.1.4-2.4 0-4.5-1.1-5.9zM94 8c-.7 3.7-3 5.4-4.4 5.4h-4.1c-.6 0-1.2-.3-1.6-.9-.8-1-1.1-2.6-.7-4.4.7-3.8 3.2-5.4 4.4-5.4h4.1c.6 0 1.2.3 1.6.9.5.5 1.2 1.8.7 4.4zM81.6 4.9c.3-1.4.1-2.5-.5-3.3-.4-.5-1-.8-1.6-.8H56.3L56 2.6h5.5l-2.3 12.5h1.6l2.3-12.5h6.7l-2.3 12.5h1.7l2.3-12.5h7.7c.2 0 .4.1.5.3.3.4.4 1.1.3 1.9-.3 1.4-1.1 2.2-1.7 2.2h-6.5l-.3 1.8h5.1c.7 0 1.2.2 1.5.6.7.9.5 2.7 0 5.5v.1h1.7v-.1c.6-3.3.5-5.4-.5-6.5 1.1-.5 2-1.8 2.3-3.5zm-53.4 0c.3-1.4.1-2.5-.6-3.3-.4-.5-1-.8-1.6-.8H16l-2.7 14.3H15l2.3-12.5h8.4c.2 0 .4.1.5.3.3.4.4 1.1.3 1.9-.3 1.4-1.1 2.2-1.7 2.2h-7.2l-.3 1.8h5.1c.8 0 1.4.2 1.9.7.8.9.9 2.7.4 5.3v.1h1.7v-.1c.6-3.3.5-5.4-.5-6.5 1.2-.4 2.1-1.7 2.3-3.4zm80.7-3c-.6-.7-1.4-1-2.5-1h-8.8l-2.7 14.3h1.7l2.3-12.5h7.2c.5 0 1 .2 1.4.7.4.5.5 1.1.4 1.7L106 15.2h1.7l1.9-10.1c.1-1.4-.1-2.5-.7-3.2zm-95.7 7l.3-1.8H2.8c.6-2.5 2.6-4.4 4.6-4.4h6.9l.3-1.8h-7c-3 0-6 2.7-6.8 6.2L.6 8.7v.1c-.3 1.8.2 3.5 1.2 4.7.8 1 2 1.5 3.3 1.5H12l.3-1.8h-7c-.8 0-1.6-.3-2.1-1-.7-.8-1-2.1-.8-3.5h10.8zm100.9-7c.3.3.5.8.5 1.3s-.2.9-.5 1.3c-.3.3-.8.5-1.3.5s-.9-.2-1.3-.5c-.3-.3-.5-.8-.5-1.3s.2-.9.5-1.3c.3-.3.8-.5 1.3-.5s.9.2 1.3.5zm.2-.2c-.4-.4-.9-.6-1.5-.6s-1 .2-1.5.6c-.4.4-.6.9-.6 1.5s.2 1.1.6 1.5c.4.4.9.6 1.5.6s1.1-.2 1.5-.6c.4-.4.6-.9.6-1.5s-.2-1.1-.6-1.5zm-1.2 1.4c-.1 0-.2.1-.4.1h-.4v-.9h.3c.2 0 .4 0 .5.1.1.1.2.2.2.3.1.2 0 .3-.2.4zM112 4.3h.4v-.9h.3c.2 0 .4 0 .4.1.1.1.2.3.2.5v.3h.4v-.5c0-.1 0-.2-.1-.4-.1-.1-.2-.2-.4-.2.1 0 .2-.1.3-.1.1-.1.2-.2.2-.4 0-.3-.1-.5-.3-.6-.1-.1-.3-.1-.6-.1h-.8v2.3z"/></svg>