<svg width="1387pt" height="278pt" viewBox="0 0 1387 278" xmlns="http://www.w3.org/2000/svg"><g fill="#fe000c"><path d="M10 11c40.92 0 81.84-.01 122.77 0-.01 11.58 0 23.16-.01 34.73-27 0-53.99 0-80.99.01-.01 12.88-.01 25.77 0 38.66 25.75-.02 51.51.04 77.27-.03.17 11.25.03 22.51.07 33.76-25.78.01-51.56 0-77.34 0-.01 14.84 0 29.69-.01 44.53 27 .02 54-.01 81.01.01-.01 11.62 0 23.24-.01 34.86-40.92 0-81.83 0-122.75.01C9.99 135.36 10 73.18 10 11zm697.53 0c22.02.01 44.04-.03 66.05.02 10.19 44.71 20.46 89.4 30.68 134.09.18 1.08.74 1.91 1.68 2.51 10.83-45.51 21.39-91.09 32.13-136.62h64.1c.01 62.18 0 124.35.01 186.52-13.08.02-26.16.01-39.23.01-.08-46.9.13-93.8-.1-140.7l-1-.46c-.25.4-.74 1.21-.99 1.61-11.52 46.49-22.87 93.04-34.33 139.55h-44.09c-11-45.89-22.06-91.76-33.02-137.66-.61-1.28-.29-4.01-2.59-3.36-.01 47.01 0 94.02-.01 141.02-13.1 0-26.2.01-39.29 0V11zm387.12 0h38.82c-.01 20.23.01 40.45-.01 60.68 12.69-10.93 30.11-14.83 46.52-13.76 17.32 1.16 33.7 10.14 44.65 23.51 15.93 19.18 20.69 46.62 13.23 70.28-7.53 24.52-29.18 44.85-54.92 48.35-17.29 2.07-35.89-1.76-49.52-13.03-.12 3.5-.27 7-.41 10.5-12.79 0-25.58.01-38.36 0V11m64.86 84.63c-5.91 1.1-11.53 3.77-16.06 7.73-13.3 11.29-15.22 33.02-4.6 46.74 8.32 11.26 23.92 15.79 37.2 11.88 9.59-2.65 17.73-9.9 21.51-19.1 5.58-13.09 2.55-29.69-8.25-39.23-7.88-7.29-19.36-9.94-29.8-8.02zM1264.89 11h40.46c0 11.58.01 23.16 0 34.74-13.49-.01-26.98 0-40.46-.01-.01-11.57-.01-23.15 0-34.73zm71.64 0H1377c-.01 62.18.01 124.36-.01 186.54-13.49-.02-26.98 0-40.46-.01V11zM276.26 27.46c15.61.02 31.22 0 46.83.01-22.42 28.3-44.9 56.54-67.31 84.85 8.74 8.75 17.45 17.54 26.19 26.3 20.14-25.88 40.33-51.7 60.4-77.63 15.69-.13 31.37-.03 47.06-.05-27.27 34.5-54.55 68.97-81.83 103.46 34.63 34.88 69.31 69.72 103.96 104.6-18.9.01-37.79-.01-56.68 0-24.12-24.54-48.22-49.11-72.36-73.64l-38.44 49.84h-46.96c20-25.08 40.03-50.15 60.03-75.22-8.74-8.87-17.48-17.72-26.24-26.56-14.05 18.03-28.05 36.1-42.11 54.12-15.59-.02-31.18 0-46.76-.01 21.21-26.59 42.45-53.15 63.66-79.74-18.75-18.95-37.53-37.89-56.27-56.85 18.2.01 36.42-.03 54.62.01 1.41-.25 2.22 1.07 3.13 1.86 7.66 7.99 15.39 15.9 23.08 23.85 15.34-19.73 30.64-39.5 46-59.2z"/><path d="M437.54 58.79c17.21-2.87 35.47.17 50.53 9.09 12.63 7.4 22.88 18.8 28.82 32.19 7.11 15.83 8.09 34.27 2.85 50.8-4.57 14.59-14.09 27.55-26.59 36.34-23.81 17.05-57.84 17.86-82.54 2.21-13.51-8.41-24.02-21.51-29.23-36.55-6.88-19.52-4.8-42.03 5.81-59.84 10.56-18.19 29.62-30.95 50.35-34.24m5.05 36.93c-12.36 2.64-22.33 13.11-24.91 25.4-3.38 14.12 2.62 30.32 15.34 37.74 13.9 8.58 33.94 5.28 43.84-7.89 10.72-13.49 9.55-34.94-3.02-46.86-8.05-8-20.31-10.93-31.25-8.39zm140.57-21.95c10.49-9.77 24.45-15.67 38.82-15.99 15.11-.84 30.67 5.07 40.63 16.62 9.26 10.51 13.28 24.78 12.98 38.61-.01 28.17 0 56.35 0 84.52-13.3 0-26.59.01-39.88 0-.01-24.51 0-49.02-.01-73.53.07-8.3-1.24-17.32-7.03-23.69-5.12-5.79-13.3-7.76-20.76-7.13-6.54.39-13.09 3.37-16.99 8.74-4.25 5.72-5.58 13.05-5.62 20.03-.01 25.19-.01 50.38-.01 75.58-13.31.01-26.62 0-39.93 0-.01-45.53-.01-91.06-.01-136.59 12.61-.01 25.22-.01 37.82 0 0 4.28.01 8.55-.01 12.83zM985.57 58.8c16.02-2.68 32.97-.32 47.4 7.25 13.2 6.83 24.17 17.89 30.79 31.21 8.14 16.16 9.69 35.47 4.42 52.76-4.48 14.99-14.19 28.31-26.98 37.28-23.42 16.67-56.68 17.71-81.23 2.83-13.05-7.8-23.49-19.91-29.18-34.03-7.4-18.11-6.9-39.27 1.39-57 9.65-21.21 30.42-36.67 53.39-40.3m4.98 36.96c-5.78 1.36-11.19 4.31-15.41 8.48-12.33 11.93-13.56 33.11-2.96 46.53 7.96 10.7 22.7 15.17 35.42 11.66 11.01-2.76 20.02-11.73 23.18-22.58 4.02-12.79.33-27.84-9.82-36.77-8.12-7.26-19.89-9.88-30.41-7.32zm274.34-34.82c13.48-.01 26.97-.01 40.46 0v136.59c-13.49.01-26.97 0-40.46 0-.02-45.53 0-91.06 0-136.59z"/></g></svg>