<?xml version="1.0" encoding="UTF-8" ?>
<!DOCTYPE svg PUBLIC "-//W3C//DTD SVG 1.1//EN" "http://www.w3.org/Graphics/SVG/1.1/DTD/svg11.dtd">
<svg width="1899pt" height="487pt" viewBox="0 0 1899 487" version="1.1" xmlns="http://www.w3.org/2000/svg">
<g id="#030505ff">
<path fill="#030505" opacity="1.00" d=" M 1641.47 0.00 L 1670.53 0.00 C 1707.00 2.81 1743.07 12.96 1774.99 30.99 C 1798.51 44.11 1819.63 61.38 1837.69 81.32 C 1841.83 86.05 1844.61 93.15 1840.94 98.97 C 1838.68 106.00 1830.03 108.32 1823.60 106.42 C 1814.70 101.65 1808.98 93.01 1801.63 86.38 C 1768.90 55.99 1726.49 35.96 1682.07 30.81 C 1602.97 19.90 1519.97 58.91 1477.02 126.00 C 1449.83 166.32 1438.07 216.23 1442.42 264.52 C 1446.88 305.92 1463.07 346.14 1489.64 378.34 C 1517.13 412.76 1555.76 437.88 1598.07 449.92 C 1637.79 460.81 1680.74 460.90 1720.00 447.97 C 1760.85 435.21 1797.59 409.69 1824.16 376.17 C 1852.83 339.60 1869.75 293.60 1870.03 247.01 C 1871.24 221.07 1864.90 193.52 1847.21 173.79 C 1826.76 150.87 1795.13 140.61 1765.02 141.00 C 1690.00 140.95 1614.98 141.06 1539.96 140.93 C 1526.99 139.25 1512.64 147.04 1508.92 159.87 C 1507.07 176.84 1507.86 193.99 1507.98 211.04 C 1507.69 225.05 1514.08 239.13 1525.04 247.92 C 1535.93 257.49 1551.05 260.06 1565.08 260.74 C 1579.10 262.15 1592.64 257.04 1604.96 250.90 C 1631.68 236.79 1654.19 216.36 1677.66 197.63 C 1696.30 182.68 1715.36 167.15 1738.32 159.38 C 1761.53 151.31 1789.07 154.06 1808.88 169.15 C 1820.83 177.74 1828.27 191.46 1831.42 205.63 C 1833.79 219.28 1832.87 233.22 1833.07 247.00 C 1832.64 271.98 1833.66 296.99 1832.69 321.96 C 1832.63 347.06 1811.68 369.25 1787.33 373.22 C 1780.56 374.01 1773.76 374.05 1767.01 374.13 C 1692.00 373.91 1616.99 373.95 1541.98 374.11 C 1533.71 373.98 1525.35 373.75 1517.34 371.68 C 1502.36 366.68 1489.43 355.44 1483.06 340.92 C 1477.49 327.30 1479.25 312.32 1478.90 298.00 C 1479.42 253.01 1478.38 208.01 1479.31 163.04 C 1479.53 134.17 1507.75 110.51 1535.97 112.05 C 1610.97 111.83 1685.99 112.18 1761.00 111.91 C 1797.20 110.21 1834.50 122.05 1861.62 146.40 C 1883.97 166.64 1895.23 196.26 1899.00 225.60 L 1899.00 264.51 C 1894.71 304.73 1881.89 344.43 1858.98 377.99 C 1831.88 419.19 1791.93 451.99 1745.93 469.88 C 1722.21 479.61 1696.82 484.21 1671.45 487.00 L 1640.55 487.00 C 1624.64 484.97 1608.64 483.01 1593.11 478.89 C 1554.26 468.77 1518.27 448.39 1488.90 421.09 C 1457.20 391.02 1433.46 352.46 1421.62 310.34 C 1409.27 267.16 1409.87 220.67 1421.41 177.38 C 1436.56 123.91 1470.30 75.75 1516.07 44.09 C 1552.56 17.79 1596.84 3.50 1641.47 0.00 M 1752.35 185.37 C 1742.74 188.15 1733.95 193.17 1725.63 198.60 C 1684.65 225.20 1651.60 263.89 1605.72 282.76 C 1574.14 295.09 1535.82 292.08 1507.99 272.12 C 1508.29 289.85 1507.08 307.66 1508.72 325.34 C 1511.84 337.93 1525.20 346.52 1537.98 345.07 C 1617.98 344.76 1698.00 345.35 1777.99 344.79 C 1791.24 344.98 1803.67 333.36 1803.95 320.03 C 1803.99 286.70 1804.27 253.34 1803.80 220.01 C 1803.88 208.23 1798.01 196.39 1788.06 189.94 C 1777.23 184.22 1764.27 182.53 1752.35 185.37 Z" />
<path fill="#030505" opacity="1.00" d=" M 0.00 88.00 C 43.67 88.01 87.34 87.97 131.01 88.01 C 130.96 100.67 130.99 113.33 131.03 125.99 C 103.02 126.03 75.02 125.97 47.02 126.01 C 46.96 145.00 46.97 164.00 47.02 182.99 C 73.69 182.99 100.35 183.01 127.02 183.00 C 126.95 195.66 126.98 208.33 127.03 220.99 C 100.36 220.99 73.69 221.01 47.01 221.00 C 46.95 255.00 47.05 288.99 46.98 322.98 C 31.32 323.00 15.66 323.01 0.00 323.01 L 0.00 88.00 Z" />
<path fill="#030505" opacity="1.00" d=" M 915.89 93.95 C 934.73 88.86 954.41 87.31 973.87 88.20 C 987.94 89.25 1001.67 92.85 1015.02 97.29 C 1014.26 110.68 1013.33 124.08 1011.80 137.41 C 997.29 130.02 981.29 125.51 964.95 125.34 C 938.15 123.63 910.14 137.17 897.11 161.08 C 886.44 178.51 883.90 199.68 885.26 219.71 C 887.56 232.58 890.57 245.89 898.20 256.80 C 906.69 270.01 919.57 280.63 934.63 285.41 C 960.51 293.63 989.01 290.12 1013.87 280.07 C 1013.81 293.41 1014.71 306.71 1015.69 320.00 C 985.91 326.88 954.50 330.36 924.37 323.67 C 902.97 319.30 882.19 309.88 866.23 294.77 C 853.53 281.94 844.06 265.68 840.08 247.99 C 835.12 229.97 835.48 211.02 836.44 192.53 C 838.82 172.63 844.47 152.64 856.05 136.04 C 869.78 115.10 892.00 100.65 915.89 93.95 Z" />
<path fill="#030505" opacity="1.00" d=" M 352.44 110.56 C 384.32 106.80 419.34 115.09 441.77 139.22 C 464.05 163.23 470.68 197.72 468.66 229.47 C 466.63 254.30 458.61 279.68 440.83 297.82 C 428.58 311.39 411.69 320.16 393.92 323.93 C 365.57 329.98 334.41 327.93 309.07 312.91 C 283.12 298.14 268.19 269.10 264.74 240.15 C 260.28 209.15 263.82 175.32 282.00 149.00 C 297.29 125.52 324.99 112.38 352.44 110.56 M 357.43 144.52 C 340.39 146.34 325.75 158.01 317.99 172.96 C 308.46 191.29 306.47 212.75 308.81 233.03 C 310.37 243.68 312.67 254.53 318.06 263.98 C 326.43 281.10 344.76 293.32 364.00 293.00 C 378.29 293.46 393.36 288.95 403.37 278.36 C 416.61 265.40 421.92 246.79 423.84 228.87 C 424.74 212.83 423.34 196.45 417.80 181.27 C 412.53 167.84 403.13 155.52 389.93 149.15 C 380.04 143.87 368.38 143.06 357.43 144.52 Z" />
<path fill="#030505" opacity="1.00" d=" M 146.01 113.01 C 160.34 112.98 174.67 112.98 189.00 113.01 C 189.02 171.67 188.97 230.33 189.01 288.99 C 216.01 289.04 243.00 288.96 270.00 289.01 C 270.00 300.34 269.99 311.66 270.00 322.99 C 228.67 323.01 187.34 323.01 146.01 322.99 C 145.99 253.00 145.99 183.01 146.01 113.01 Z" />
<path fill="#030505" opacity="1.00" d=" M 458.66 113.07 C 473.73 112.94 488.80 112.96 503.88 113.06 C 516.60 168.49 529.60 223.85 542.55 279.23 C 554.67 223.90 566.06 168.41 578.20 113.08 C 597.40 112.93 616.61 112.95 635.81 113.05 C 647.93 168.80 660.62 224.43 672.43 280.25 C 685.19 224.48 698.88 168.92 711.32 113.07 C 725.32 112.97 739.32 112.95 753.32 113.05 C 735.63 183.13 717.01 252.97 698.79 322.92 C 680.48 323.04 662.17 323.05 643.87 323.01 C 631.20 267.97 618.93 212.85 606.50 157.75 C 593.84 212.72 581.80 267.83 569.70 322.92 C 551.14 323.05 532.60 323.03 514.05 322.98 C 495.76 252.97 476.87 183.10 458.66 113.07 Z" />
<path fill="#030505" opacity="1.00" d=" M 1103.00 113.01 C 1119.00 112.96 1134.99 112.97 1151.00 113.01 C 1178.24 183.04 1206.00 252.87 1233.23 322.90 C 1217.27 323.10 1201.31 323.04 1185.37 322.91 C 1179.90 306.83 1173.40 291.12 1167.78 275.09 C 1139.93 274.93 1112.08 274.95 1084.24 275.06 C 1078.03 290.98 1072.23 307.06 1065.81 322.90 C 1050.87 323.04 1035.94 323.04 1021.01 323.00 C 1048.57 253.09 1075.56 182.96 1103.00 113.01 M 1096.07 242.00 C 1116.03 242.02 1135.99 242.02 1155.96 242.00 C 1145.62 213.94 1136.56 185.43 1125.81 157.53 C 1115.83 185.66 1106.18 213.91 1096.07 242.00 Z" />
<path fill="#030505" opacity="1.00" d=" M 1238.01 113.01 C 1252.33 112.98 1266.66 112.98 1281.00 113.01 C 1281.02 171.67 1280.97 230.33 1281.01 288.99 C 1308.00 289.04 1335.00 288.96 1362.00 289.01 C 1361.98 300.34 1361.98 311.66 1362.00 322.99 C 1320.66 323.01 1279.34 323.01 1238.01 322.99 C 1237.99 253.00 1237.99 183.01 1238.01 113.01 Z" />
<path fill="#030505" opacity="1.00" d=" M 740.00 217.00 C 766.00 216.99 792.00 216.98 818.01 217.00 C 818.00 229.33 817.99 241.67 818.00 254.00 C 791.99 254.01 765.99 254.01 739.99 254.00 C 739.99 241.66 739.99 229.33 740.00 217.00 Z" />
<path fill="#030505" opacity="1.00" d=" M 961.01 356.00 C 963.85 355.95 967.06 356.02 969.99 356.00 C 970.01 388.33 970.01 420.67 969.99 453.00 C 966.84 452.93 964.06 453.03 961.01 453.00 C 960.98 420.66 960.98 388.33 961.01 356.00 Z" />
<path fill="#030505" opacity="1.00" d=" M 986.00 359.00 C 988.84 358.94 992.06 359.02 995.00 359.00 C 994.98 362.99 994.98 366.99 995.00 371.00 C 991.84 370.94 989.06 371.02 986.00 371.00 C 985.98 366.99 985.98 362.99 986.00 359.00 Z" />
<path fill="#030505" opacity="1.00" d=" M 1164.00 359.00 C 1166.81 358.94 1170.07 359.02 1173.00 359.00 C 1172.97 362.99 1172.97 366.99 1173.00 371.00 C 1169.81 370.94 1167.07 371.02 1164.00 371.00 C 1163.98 366.99 1163.98 362.99 1164.00 359.00 Z" />
<path fill="#030505" opacity="1.00" d=" M 0.00 362.95 C 4.70 362.98 9.39 362.98 14.09 363.02 C 25.06 388.37 35.07 414.13 46.23 439.40 C 57.21 414.10 67.50 388.50 78.20 363.08 C 82.80 363.05 87.39 362.98 91.99 362.93 C 92.02 392.95 92.02 422.97 91.99 453.00 C 89.50 453.00 84.50 453.00 82.01 453.00 C 81.94 427.22 82.18 401.45 81.77 375.68 C 71.17 401.32 60.85 427.09 50.61 452.87 C 47.76 452.95 44.89 452.89 42.05 453.06 C 31.14 426.92 20.52 400.64 9.23 374.67 C 8.79 400.74 9.08 426.82 9.00 452.90 C 6.00 452.97 3.00 453.02 0.00 453.14 L 0.00 362.95 Z" />
<path fill="#030505" opacity="1.00" d=" M 771.41 363.16 C 775.18 363.12 778.96 363.09 782.76 363.06 C 794.47 393.21 806.89 423.10 818.30 453.36 C 815.22 451.47 808.96 455.09 807.15 450.93 C 803.64 443.83 801.39 436.18 798.07 428.99 C 783.45 428.95 768.84 428.96 754.24 429.06 C 750.93 436.78 748.90 445.18 744.42 452.32 C 742.00 452.58 737.14 453.11 734.72 453.38 C 746.83 423.26 759.57 393.38 771.41 363.16 M 776.45 373.85 C 770.17 389.17 764.58 404.77 758.09 420.01 C 770.35 420.02 782.63 420.02 794.91 420.01 C 788.41 404.76 782.97 389.09 776.45 373.85 Z" />
<path fill="#030505" opacity="1.00" d=" M 677.12 371.16 C 680.08 370.16 683.03 369.13 685.98 368.07 C 685.97 374.35 686.02 380.64 686.02 386.93 C 689.77 386.98 697.25 387.06 701.00 387.10 C 700.99 389.70 700.99 392.32 700.99 394.93 C 697.25 394.97 689.77 395.05 686.03 395.09 C 686.12 408.88 685.38 422.72 686.43 436.50 C 686.65 439.69 687.58 444.61 691.38 445.50 C 695.24 445.95 699.15 445.76 703.00 445.33 C 702.98 447.93 702.98 450.54 702.98 453.16 C 696.31 453.26 689.04 455.82 682.99 452.02 C 680.15 450.64 678.96 447.49 678.50 444.58 C 676.14 428.20 677.14 411.60 676.98 395.13 C 672.98 395.05 668.98 394.98 665.00 394.92 C 664.99 392.30 664.99 389.69 665.01 387.08 C 668.97 387.02 672.95 386.97 676.93 386.93 C 676.98 381.67 677.04 376.41 677.12 371.16 Z" />
<path fill="#030505" opacity="1.00" d=" M 1130.12 371.16 C 1133.08 370.16 1136.03 369.13 1138.98 368.07 C 1138.95 374.35 1139.02 380.64 1139.02 386.93 C 1142.77 386.98 1150.25 387.06 1154.00 387.10 C 1153.98 389.70 1153.98 392.32 1153.99 394.93 C 1150.25 394.97 1142.77 395.05 1139.03 395.09 C 1139.07 408.39 1138.55 421.70 1139.15 435.00 C 1138.70 439.18 1140.71 442.85 1142.73 446.27 C 1146.73 445.91 1150.85 445.60 1154.91 445.20 C 1155.12 447.78 1155.75 450.51 1156.08 453.13 C 1147.77 453.65 1136.22 456.92 1131.63 447.37 C 1128.22 430.20 1130.63 412.45 1130.00 395.06 C 1125.62 395.01 1121.33 394.98 1117.00 394.94 C 1116.98 392.31 1116.98 389.69 1117.00 387.07 C 1121.26 387.02 1125.62 386.98 1129.93 386.94 C 1129.97 381.68 1130.03 376.42 1130.12 371.16 Z" />
<path fill="#030505" opacity="1.00" d=" M 112.24 394.22 C 121.81 381.68 143.83 382.27 152.48 395.56 C 158.21 403.47 157.58 413.72 158.26 422.99 C 143.29 422.98 128.32 422.98 113.35 423.06 C 114.72 430.92 116.91 440.45 124.95 444.07 C 133.90 448.69 144.07 444.79 152.97 441.99 C 152.96 444.99 153.00 448.14 153.00 451.17 C 141.95 453.63 129.33 456.66 118.71 451.25 C 110.17 447.41 105.65 438.29 104.61 429.40 C 102.92 417.43 103.56 403.58 112.24 394.22 M 113.25 414.93 C 124.97 415.05 136.69 415.00 148.41 414.96 C 147.96 406.48 144.82 395.65 135.35 393.63 C 122.82 390.95 114.37 404.00 113.25 414.93 Z" />
<path fill="#030505" opacity="1.00" d=" M 171.95 389.66 C 182.48 386.17 194.45 382.51 205.08 387.88 C 211.57 390.37 213.74 398.15 214.48 404.39 C 215.70 420.56 214.84 436.80 214.98 453.00 C 212.33 452.99 209.69 452.99 207.06 453.00 C 207.01 449.96 207.04 447.11 207.01 444.12 C 202.76 447.58 198.88 452.09 193.36 453.39 C 185.19 454.63 175.61 454.94 169.15 448.84 C 161.85 440.63 162.32 426.15 171.25 419.28 C 181.24 411.65 194.80 413.04 206.60 411.70 C 204.48 406.17 206.03 397.24 199.01 394.98 C 190.09 390.36 180.21 395.01 171.93 398.76 C 171.91 395.69 171.95 392.71 171.95 389.66 M 177.68 426.67 C 173.66 430.07 173.17 436.12 175.37 440.66 C 180.24 448.57 192.18 447.80 198.81 442.79 C 205.85 437.35 205.71 427.77 206.45 419.77 C 196.83 420.87 185.30 419.39 177.68 426.67 Z" />
<path fill="#030505" opacity="1.00" d=" M 242.61 385.60 C 249.60 384.33 256.43 386.68 263.27 387.69 C 263.05 390.43 262.83 393.18 262.59 395.93 C 254.61 394.57 246.09 391.36 238.35 395.35 C 234.98 397.16 233.63 401.30 233.78 404.94 C 239.15 412.31 248.68 414.30 256.02 419.01 C 265.51 423.43 268.99 436.65 263.30 445.28 C 260.75 449.65 255.83 451.87 251.18 453.26 C 242.08 454.82 232.74 454.17 223.82 451.92 C 224.13 448.67 224.52 445.50 224.87 442.27 C 233.56 445.71 244.65 449.02 252.78 442.79 C 256.62 439.87 257.36 433.41 254.26 429.73 C 246.99 423.07 236.85 420.93 229.43 414.55 C 224.23 410.06 224.30 402.16 226.02 396.05 C 228.69 389.45 235.89 386.15 242.61 385.60 Z" />
<path fill="#030505" opacity="1.00" d=" M 352.29 396.86 C 356.43 389.16 365.53 382.53 374.51 386.20 C 374.76 388.48 375.26 393.03 375.51 395.31 C 370.38 395.87 364.10 393.99 360.01 397.99 C 356.31 401.84 354.00 407.07 353.51 412.38 C 352.44 425.89 353.05 439.46 353.00 453.00 C 349.94 452.93 347.02 453.03 343.99 453.00 C 343.67 430.85 344.87 408.63 343.10 386.52 C 345.83 386.75 348.81 386.84 351.56 387.41 C 351.74 389.77 352.11 394.50 352.29 396.86 Z" />
<path fill="#030505" opacity="1.00" d=" M 398.82 385.65 C 409.31 383.50 421.06 388.27 425.99 398.00 C 429.89 405.65 429.57 414.63 430.28 422.99 C 415.30 422.98 400.33 422.98 385.35 423.06 C 386.71 430.92 388.91 440.45 396.95 444.07 C 405.90 448.69 416.07 444.79 424.97 441.99 C 424.92 444.99 425.01 448.14 425.00 451.17 C 412.74 454.00 397.88 457.28 387.03 448.94 C 376.07 441.13 375.57 426.13 376.07 414.01 C 376.97 401.28 385.50 387.78 398.82 385.65 M 397.69 394.71 C 390.06 398.39 386.53 407.01 385.23 414.93 C 396.96 415.06 408.68 415.00 420.41 414.96 C 419.57 408.31 418.71 400.50 412.76 396.26 C 408.69 392.63 402.49 392.73 397.69 394.71 Z" />
<path fill="#030505" opacity="1.00" d=" M 460.62 386.55 C 466.49 384.96 473.13 384.39 478.73 387.27 C 482.35 389.56 484.89 393.16 487.34 396.62 C 491.08 391.80 495.48 386.71 501.97 385.93 C 512.12 382.70 525.23 388.57 527.60 399.38 C 530.49 417.08 528.52 435.15 528.98 453.00 C 525.90 452.93 523.02 453.03 519.99 453.00 C 519.91 438.04 520.46 423.07 519.70 408.13 C 519.17 404.10 518.58 399.52 515.25 396.74 C 510.07 391.33 500.78 392.93 495.71 397.70 C 491.97 402.24 490.04 408.01 489.69 413.84 C 488.55 426.86 489.00 439.95 488.99 453.00 C 485.91 452.93 483.02 453.03 479.99 453.00 C 479.80 436.39 480.64 419.76 479.62 403.18 C 478.69 396.50 471.86 392.18 465.40 393.52 C 456.69 394.62 451.20 403.35 450.63 411.59 C 449.37 425.35 450.07 439.20 450.00 453.00 C 446.93 452.93 444.04 453.03 441.01 453.00 C 440.97 431.00 440.98 409.00 441.02 387.00 C 443.66 386.99 446.31 387.00 448.96 387.01 C 448.95 389.49 448.91 394.46 448.90 396.94 C 452.31 393.02 455.35 388.05 460.62 386.55 Z" />
<path fill="#030505" opacity="1.00" d=" M 550.79 390.82 C 560.74 382.69 577.33 383.13 585.96 393.06 C 593.59 401.07 592.67 412.78 594.18 422.97 C 578.95 422.98 563.73 422.99 548.50 423.09 C 550.04 431.43 553.01 440.80 561.31 444.69 C 570.48 447.96 580.11 444.77 588.94 441.84 C 588.87 444.87 589.02 448.05 589.00 451.12 C 579.95 453.54 570.46 454.93 561.12 453.80 C 551.54 451.50 542.71 444.12 541.08 434.01 C 536.91 419.30 538.73 401.41 550.79 390.82 M 555.70 398.70 C 551.17 402.92 550.36 409.30 548.51 414.89 C 560.41 415.02 572.32 415.02 584.24 414.95 C 582.77 408.25 582.32 400.21 575.93 396.08 C 569.91 391.20 560.64 393.28 555.70 398.70 Z" />
<path fill="#030505" opacity="1.00" d=" M 629.60 385.54 C 640.38 383.20 653.04 389.43 655.23 400.82 C 656.97 418.14 655.68 435.61 655.97 453.00 C 652.88 452.93 650.02 453.03 646.99 453.00 C 646.92 437.98 647.34 422.97 646.93 407.96 C 646.55 401.46 642.37 394.23 635.35 393.58 C 625.75 391.35 615.85 399.15 614.73 408.67 C 613.33 423.39 614.07 438.22 614.01 453.00 C 610.91 452.93 608.04 453.03 605.00 453.00 C 604.53 431.02 606.08 408.94 604.05 387.02 C 606.92 386.96 610.02 387.03 612.94 387.00 C 612.85 389.90 613.02 392.97 612.99 395.92 C 617.17 390.70 622.39 385.55 629.60 385.54 Z" />
<path fill="#030505" opacity="1.00" d=" M 844.84 386.79 C 851.95 384.36 860.24 384.44 866.94 388.09 C 877.12 393.23 880.56 405.48 880.90 416.03 C 881.92 426.75 879.55 438.20 872.66 446.69 C 866.21 454.47 854.82 454.98 845.64 453.38 C 840.80 452.22 837.46 448.23 834.06 444.90 C 833.99 456.60 833.97 468.30 833.98 480.00 C 830.86 479.92 828.05 480.03 825.01 480.00 C 824.98 448.99 824.98 417.99 825.01 386.99 C 827.91 386.94 831.10 387.03 834.08 387.02 C 833.68 390.31 833.36 393.65 832.95 396.96 C 836.54 393.23 839.71 388.52 844.84 386.79 M 850.43 393.47 C 842.00 393.99 836.72 402.47 834.89 409.96 C 833.45 419.58 833.06 430.69 839.12 438.93 C 844.12 448.52 860.06 448.81 865.77 439.78 C 872.36 430.38 871.84 418.11 869.63 407.37 C 867.70 398.90 859.43 391.67 850.43 393.47 Z" />
<path fill="#030505" opacity="1.00" d=" M 917.59 385.52 C 928.94 383.25 941.33 389.58 945.47 400.58 C 949.02 411.47 950.32 423.62 946.73 434.69 C 944.20 441.68 940.03 448.79 932.98 451.96 C 921.99 457.07 906.74 454.33 900.92 443.00 C 901.01 455.33 901.00 467.66 900.99 480.00 C 897.85 479.92 895.06 480.03 892.01 480.00 C 891.98 449.00 891.98 417.99 892.01 386.99 C 894.84 386.94 898.02 387.03 900.94 387.00 C 900.79 389.90 901.03 392.96 900.98 395.90 C 905.76 391.43 910.57 385.91 917.59 385.52 M 917.44 393.54 C 912.52 394.21 908.22 397.61 905.98 401.97 C 899.56 413.44 899.57 428.90 907.29 439.74 C 912.55 447.32 924.61 448.52 931.33 442.33 C 940.05 432.89 940.21 418.71 937.05 406.98 C 934.80 398.65 926.44 391.38 917.44 393.54 Z" />
<path fill="#030505" opacity="1.00" d=" M 1015.15 394.15 C 1025.92 384.17 1041.72 383.54 1055.10 387.70 C 1054.59 390.62 1054.39 393.65 1053.95 396.59 C 1045.13 393.15 1034.36 391.31 1026.20 397.17 C 1012.63 407.48 1012.68 429.81 1024.68 441.32 C 1032.83 448.13 1044.28 446.33 1053.80 443.89 C 1054.28 446.72 1054.78 449.56 1055.25 452.40 C 1042.19 454.48 1026.64 456.89 1016.20 446.79 C 1002.65 432.94 1002.37 408.62 1015.15 394.15 Z" />
<path fill="#030505" opacity="1.00" d=" M 1066.95 389.66 C 1076.84 386.48 1087.80 382.86 1098.01 387.01 C 1105.25 388.84 1108.86 396.53 1109.50 403.38 C 1110.81 419.91 1109.41 436.51 1110.41 453.06 C 1107.49 452.97 1104.91 453.02 1102.08 452.99 C 1101.85 449.95 1102.10 447.11 1102.01 444.13 C 1097.56 447.73 1093.48 452.56 1087.58 453.53 C 1082.13 454.07 1076.37 454.64 1071.11 452.92 C 1057.16 448.89 1055.25 427.54 1066.26 419.29 C 1076.23 411.64 1089.81 413.05 1101.61 411.70 C 1099.63 406.13 1100.71 397.58 1094.25 394.77 C 1085.15 390.62 1075.27 394.85 1066.93 398.76 C 1066.81 395.69 1066.98 392.71 1066.95 389.66 M 1072.68 426.67 C 1068.66 430.07 1068.16 436.12 1070.37 440.66 C 1075.64 449.08 1089.11 447.94 1095.31 441.31 C 1101.17 435.79 1100.42 427.02 1101.37 419.79 C 1091.77 420.86 1080.28 419.40 1072.68 426.67 Z" />
<path fill="#030505" opacity="1.00" d=" M 1211.44 385.46 C 1220.42 384.05 1230.14 386.93 1236.57 393.43 C 1249.64 408.10 1249.31 433.43 1235.34 447.35 C 1225.36 456.08 1209.25 456.57 1198.06 449.91 C 1184.51 440.98 1181.84 422.30 1185.55 407.61 C 1188.45 395.80 1198.83 385.55 1211.44 385.46 M 1212.42 393.48 C 1208.63 393.88 1205.03 395.71 1202.16 398.15 C 1191.16 408.84 1191.41 427.82 1200.27 439.76 C 1207.41 448.66 1222.58 448.38 1229.75 439.77 C 1236.15 431.19 1237.44 419.56 1234.50 409.42 C 1232.13 399.85 1222.64 391.60 1212.42 393.48 Z" />
<path fill="#030505" opacity="1.00" d=" M 1277.37 386.36 C 1285.63 383.93 1295.65 384.74 1302.10 390.92 C 1305.70 395.02 1308.08 400.45 1307.83 406.00 C 1308.45 421.66 1307.87 437.33 1307.98 453.00 C 1304.78 452.93 1302.06 453.03 1298.99 453.00 C 1298.81 437.37 1299.56 421.71 1298.74 406.11 C 1297.50 401.00 1295.02 394.69 1289.00 393.96 C 1278.99 390.19 1268.23 398.90 1266.76 408.83 C 1265.26 423.49 1266.12 438.28 1266.00 453.00 C 1262.80 452.93 1260.07 453.03 1256.99 453.00 C 1256.66 431.01 1257.88 408.95 1256.11 387.01 C 1258.86 386.95 1262.07 387.03 1264.94 387.00 C 1264.73 389.90 1265.06 392.97 1264.99 395.91 C 1268.55 392.16 1271.91 387.33 1277.37 386.36 Z" />
<path fill="#030505" opacity="1.00" d=" M 1328.04 388.07 C 1337.38 383.13 1348.52 385.57 1358.24 387.79 C 1357.77 390.52 1357.27 393.25 1356.80 395.99 C 1349.11 394.44 1340.51 391.00 1333.12 395.11 C 1327.92 397.47 1327.14 405.92 1331.97 409.02 C 1339.14 413.70 1347.76 415.98 1354.27 421.72 C 1360.19 426.44 1362.49 435.37 1359.35 442.33 C 1357.04 447.80 1352.04 452.16 1346.13 453.17 C 1337.25 454.50 1327.99 454.87 1319.41 451.85 C 1319.20 449.43 1318.79 444.60 1318.58 442.18 C 1325.68 444.86 1333.22 446.75 1340.88 445.86 C 1345.83 445.08 1350.22 440.97 1350.77 435.90 C 1350.80 432.12 1348.31 428.76 1345.29 426.73 C 1338.92 422.51 1331.70 419.81 1325.35 415.60 C 1316.47 408.87 1318.23 393.18 1328.04 388.07 Z" />
<path fill="#030505" opacity="1.00" d=" M 276.03 387.00 C 278.98 386.94 282.03 387.02 285.01 387.00 C 285.15 402.13 284.29 417.32 285.62 432.42 C 285.86 439.78 292.08 447.33 300.04 446.03 C 310.37 447.32 317.87 436.81 318.34 427.40 C 319.62 413.97 318.94 400.46 319.00 387.00 C 321.95 386.94 325.01 387.02 327.99 387.00 C 328.02 409.00 328.02 431.00 327.98 453.00 C 325.34 452.99 322.69 452.99 320.06 452.99 C 320.04 450.50 320.01 445.51 319.99 443.02 C 316.11 447.05 312.62 452.68 306.59 453.54 C 299.11 454.13 290.10 455.65 284.12 449.87 C 278.72 446.43 276.88 439.89 276.38 433.88 C 275.34 418.28 276.16 402.62 276.03 387.00 Z" />
<path fill="#030505" opacity="1.00" d=" M 986.01 387.00 C 988.85 386.94 992.06 387.02 994.99 387.00 C 995.02 409.00 995.01 431.00 994.99 453.00 C 991.84 452.93 989.06 453.03 986.01 453.00 C 985.97 431.00 985.98 409.00 986.01 387.00 Z" />
<path fill="#030505" opacity="1.00" d=" M 1164.01 387.00 C 1166.82 386.94 1170.07 387.02 1172.99 387.00 C 1173.02 409.00 1173.01 431.00 1172.99 453.00 C 1169.81 452.93 1167.07 453.03 1164.01 453.00 C 1163.97 431.00 1163.97 409.00 1164.01 387.00 Z" />
<path fill="#030505" opacity="1.00" d=" M 1865.42 405.49 C 1878.27 401.96 1892.74 409.29 1897.19 421.85 C 1898.73 429.55 1898.98 438.40 1893.87 444.93 C 1884.60 460.05 1859.42 460.05 1850.01 445.00 C 1844.67 438.89 1845.71 430.04 1846.60 422.63 C 1849.18 414.18 1856.78 407.35 1865.42 405.49 M 1867.44 410.51 C 1858.34 412.20 1850.98 421.66 1852.07 430.97 C 1851.11 444.45 1866.66 455.03 1879.06 450.07 C 1889.29 446.29 1895.90 433.17 1890.94 423.00 C 1887.84 413.49 1877.03 408.09 1867.44 410.51 Z" />
<path fill="#030505" opacity="1.00" d=" M 1861.99 415.60 C 1867.89 416.58 1874.69 414.97 1880.25 417.75 C 1884.96 421.19 1881.32 427.32 1880.43 431.84 C 1881.02 436.92 1883.18 441.70 1884.35 446.68 C 1876.79 447.66 1877.69 439.65 1874.65 435.39 C 1872.50 434.49 1870.37 433.78 1868.24 433.24 C 1868.09 437.48 1867.98 441.74 1867.91 446.00 C 1866.43 446.00 1863.47 446.00 1861.99 446.00 C 1862.00 435.86 1862.00 425.73 1861.99 415.60 M 1868.12 419.14 C 1868.11 422.49 1867.85 425.76 1868.02 429.13 C 1870.75 428.72 1873.81 428.39 1876.67 428.00 C 1876.44 426.08 1876.89 423.89 1875.79 422.20 C 1873.68 420.54 1870.29 420.18 1868.12 419.14 Z" />
</g>
<g id="#1eb6eaff">
<path fill="#1eb6ea" opacity="1.00" d=" M 1752.35 185.37 C 1764.27 182.53 1777.23 184.22 1788.06 189.94 C 1798.01 196.39 1803.88 208.23 1803.80 220.01 C 1804.27 253.34 1803.99 286.70 1803.95 320.03 C 1803.67 333.36 1791.24 344.98 1777.99 344.79 C 1698.00 345.35 1617.98 344.76 1537.98 345.07 C 1525.20 346.52 1511.84 337.93 1508.72 325.34 C 1507.08 307.66 1508.29 289.85 1507.99 272.12 C 1535.82 292.08 1574.14 295.09 1605.72 282.76 C 1651.60 263.89 1684.65 225.20 1725.63 198.60 C 1733.95 193.17 1742.74 188.15 1752.35 185.37 Z" />
</g>
</svg>
