<?xml version="1.0" encoding="utf-8"?>
<!-- Generator: Adobe Illustrator 19.0.0, SVG Export Plug-In . SVG Version: 6.00 Build 0)  -->
<svg version="1.1" id="Layer_1" xmlns="http://www.w3.org/2000/svg" xmlns:xlink="http://www.w3.org/1999/xlink" x="0px" y="0px"
	 viewBox="0 0 1000 200" style="enable-background:new 0 0 1000 200;" xml:space="preserve">
<style type="text/css">
	.st0{fill:#323754;}
</style>
<g>
	<path class="st0" d="M259.9,120c0,7.7,0.2,15.3,1.1,21.6c0.2,0.7-0.4,1.4-1.2,1.4h-15.7c-0.5,0-1.1-0.5-1.2-1.1l-1.2-10.2h-0.5
		c-5.3,7.7-14.8,13.2-26.9,13.2c-18,0-28.3-13.4-28.3-28.2c0-23.7,20.3-35.6,52.8-36c0.7,0,1.2-0.5,1.2-1.2
		c-0.2-7.5-1.1-20.3-19.4-20.3c-8,0-16,2.3-22.1,5.9c-0.7,0.4-1.6,0-1.8-0.7l-3.6-11.1c-0.2-0.5,0-1.1,0.5-1.4
		c7-4.3,18-7.7,30.3-7.7c28.3,0,36.2,18.7,36.2,39.2V120z M240,95.8c0-0.7-0.5-1.2-1.2-1.2c-15.7,0.2-33.2,3.4-33.2,20.1
		c0,10.7,6.6,15.5,14.3,15.5c11.1,0,20.1-8.4,20.1-19.6L240,95.8L240,95.8z"/>
	<path class="st0" d="M343.8,139.1c0.2,0.5-0.2,1.1-0.7,1.2c-4.8,2-13.4,4.5-23.9,4.5c-27.8,0-46.2-19.1-46.2-49.2
		c0-29.2,18.9-51.3,49.9-51.3c8.6,0,16.2,2,20.7,3.9c0.5,0.2,0.9,0.9,0.7,1.4L341,62.8c-0.2,0.7-1.1,1.1-1.8,0.9
		c-3.6-1.6-8.7-3.2-16-3.2c-18.9,0-29.4,15.5-29.4,34.4c0,21.2,12.5,33.9,29.2,33.9c7.3,0,12.5-1.6,16.8-3.2
		c0.7-0.4,1.6,0.2,1.6,0.9L343.8,139.1z"/>
	<path class="st0" d="M434.6,145H413c-0.4,0-0.9-0.2-1.1-0.5l-26.4-42.2c-0.4-0.7-1.4-0.9-2-0.2l-6.6,8c-0.2,0.2-0.4,0.5-0.4,0.9v33
		c0,0.7-0.5,1.2-1.2,1.2h-17.8c-0.7,0-1.2-0.5-1.2-1.2V5.8c0-0.7,0.5-1.2,1.2-1.2h17.8c0.7,0,1.2,0.5,1.2,1.2v86.1h0.4
		c2.3-3.7,5-7.8,7.3-11.2L408,49c0.2-0.4,0.5-0.5,1.1-0.5h20.7c1.1,0,1.6,1.2,0.9,2l-31.7,36.9c-0.4,0.4-0.4,1.1-0.2,1.6l36.5,54
		C436.2,144,435.6,145,434.6,145z"/>
	<path class="st0" d="M524.6,138.2c0.2,0.5-0.2,1.1-0.7,1.4c-7,3-17.3,5.3-29.8,5.3c-29.1,0-45.8-19.4-45.8-48.8
		c0-28.7,16-51.7,43.5-51.7c27.1,0,38,22.6,38,46.3c0,2.9-0.2,5.3-0.4,7.5c-0.2,0.5-0.5,1.1-1.2,1.1h-58.8c-0.7,0-1.2,0.5-1.2,1.2
		c1.1,20.9,14.3,28.7,29.2,28.7c10,0,16.9-1.6,23-3.9c0.7-0.4,1.6,0.2,1.6,0.9L524.6,138.2z M509.3,84.9c0.7,0,1.2-0.5,1.2-1.2
		c-0.2-11.4-5.2-24.6-20.1-24.6c-14.3,0-20.7,13.5-22.1,24.6c-0.2,0.7,0.5,1.2,1.2,1.2H509.3L509.3,84.9z"/>
	<path class="st0" d="M591.3,65.2c0,0.7-0.5,1.2-1.4,1.2c-1.2-0.2-2.9-0.4-4.6-0.4c-13.5,0-22.3,11.2-22.3,28V144
		c0,0.7-0.5,1.2-1.2,1.2h-17.6c-0.7,0-1.2-0.5-1.2-1.2V78.2c0-10.7-0.2-19.6-0.5-28.2c0-0.7,0.5-1.2,1.2-1.2h15.2
		c0.5,0,1.2,0.5,1.2,1.2l0.5,14.1h0.7c4.5-12.3,14.6-17.3,25.1-17.3c1.6,0,2.9,0.2,3.9,0.4c0.5,0.2,1.1,0.5,1.1,1.2V65.2z"/>
	<path class="st0" d="M679.6,138.2c0.2,0.5-0.2,1.1-0.7,1.4c-7,3-17.3,5.3-29.8,5.3c-29.1,0-45.8-19.4-45.8-48.8
		c0-28.7,16-51.7,43.5-51.7c27.1,0,38,22.6,38,46.3c0,2.9-0.2,5.3-0.4,7.5c-0.2,0.5-0.5,1.1-1.2,1.1h-58.8c-0.7,0-1.2,0.5-1.2,1.2
		c1.1,20.9,14.3,28.7,29.2,28.7c10,0,16.9-1.6,23-3.9c0.7-0.4,1.6,0.2,1.6,0.9L679.6,138.2z M664.3,84.9c0.7,0,1.2-0.5,1.2-1.2
		c-0.2-11.4-5.2-24.6-20.1-24.6c-14.3,0-20.7,13.5-22.1,24.6c-0.2,0.7,0.5,1.2,1.2,1.2H664.3L664.3,84.9z"/>
	<path class="st0" d="M771.5,120.3c0,7.7,0.2,15.3,1.1,21.6c0.2,0.7-0.4,1.4-1.2,1.4h-15.7c-0.5,0-1.1-0.5-1.2-1.1l-1.2-10.2h-0.5
		c-5.3,7.7-14.8,13.2-26.9,13.2c-18,0-28.3-13.4-28.3-28.2c0-23.7,20.3-35.6,52.8-36c0.7,0,1.2-0.5,1.2-1.2
		c-0.2-7.5-1.1-20.3-19.4-20.3c-8,0-16,2.3-22.1,5.9c-0.7,0.4-1.6,0-1.8-0.7l-3.6-11.1c-0.2-0.5,0-1.1,0.5-1.4
		c7-4.3,18-7.7,30.3-7.7c28.3,0,36.2,18.7,36.2,39.2V120.3L771.5,120.3z M751.7,96c0-0.7-0.5-1.2-1.2-1.2
		c-15.7,0.2-33.2,3.4-33.2,20.1c0,10.7,6.6,15.5,14.3,15.5c11.1,0,20.1-8.4,20.1-19.6V96L751.7,96z"/>
	<path class="st0" d="M834.5,65.2c0,0.7-0.5,1.2-1.4,1.2c-1.2-0.2-2.9-0.4-4.6-0.4c-13.5,0-22.3,11.2-22.3,28V144
		c0,0.7-0.5,1.2-1.2,1.2h-17.8c-0.7,0-1.2-0.5-1.2-1.2V78.2c0-10.7-0.2-19.6-0.5-28.2c0-0.7,0.5-1.2,1.2-1.2h15.2
		c0.5,0,1.2,0.5,1.2,1.2l0.5,12.8h0.9c4.5-12.3,14.6-16,25.1-16c1.6,0,2.9,0.2,3.9,0.4c0.5,0.2,1.1,0.5,1.1,1.2V65.2z"/>
	<path class="st0" d="M859.9,28.7l17.6-5.5c0.9-0.2,1.6,0.4,1.6,1.2v20.9c0,0.7,0.5,1.2,1.2,1.2h20.5c0.7,0,1.2,0.5,1.2,1.2v12.8
		c0,0.7-0.5,1.2-1.2,1.2h-20.5c-0.7,0-1.2,0.5-1.2,1.2v47.6c0,11.9,3.7,17.6,12.3,17.6c3.2,0,5.3-0.4,7.5-0.9
		c0.7-0.2,1.6,0.4,1.6,1.1l0.5,13.2c0,0.5-0.4,1.1-0.9,1.2c-3.6,1.2-8.6,2-15,2c-8,0-14.8-2.7-19.1-7.3c-5-5.2-7.1-13.4-7.1-25.8
		V63.1c0-0.7-0.5-1.2-1.2-1.2h-11.2c-0.7,0-1.2-0.5-1.2-1.2V47.8c0-0.7,0.5-1.2,1.2-1.2H858c0.7,0,1.2-0.5,1.2-1.2V30
		C859,29.3,859.4,28.9,859.9,28.7z"/>
	<path class="st0" d="M992.8,145.2h-17.8c-0.7,0-1.2-0.5-1.2-1.2V88.7c0-13.9-4.6-24.2-18.4-24.2c-10,0-20.7,7-20.7,21.6v57.8
		c0,0.7-0.5,1.2-1.2,1.2h-17.8c-0.7,0-1.2-0.5-1.2-1.2V5.8c0-0.7,0.5-1.2,1.2-1.2h17.8c0.7,0,1.2,0.5,1.2,1.2v51h0.4
		c7.7-9.4,17.3-10.9,27.6-10.2c15.3,0.9,30.5,10.5,31.4,40.3v57C994,144.7,993.3,145.2,992.8,145.2z"/>
	<path class="st0" d="M160.8,5.2H71v51h0.8c7.7-10,17.3-11,27.7-10.2c15.4,0.9,30.5,10.5,31.5,40.5v57.4c0,0.7-0.4,1.4-1.1,1.4H112
		c-0.7,0-2-0.6-2-1.4V88.2c0-14-4.6-24.4-18.3-24.4c-10,0-20.7,7-20.7,21.7v58.1c0,0.7-0.1,0.6-0.8,0.6H52.3c-0.7,0-2.3,0.2-2.3-0.6
		V5.2H21.4C14.8,5.2,9,10.5,9,17.1v164.5c0,6.6,5.8,11.7,12.4,11.7h139.4c6.6,0,11.2-5.1,11.2-11.7V17.1
		C172,10.5,167.4,5.2,160.8,5.2z M141,169.2H40v-10h101V169.2z"/>
</g>
</svg>
