<?xml version="1.0" encoding="utf-8"?>
<!-- Generator: Adobe Illustrator 19.0.0, SVG Export Plug-In . SVG Version: 6.00 Build 0)  -->
<svg version="1.1" id="Layer_1" xmlns="http://www.w3.org/2000/svg" xmlns:xlink="http://www.w3.org/1999/xlink" x="0px" y="0px"
	 viewBox="97 414 1273 470" style="enable-background:new 97 414 1273 470;" xml:space="preserve">
<style type="text/css">
	.st0{fill:#A4D061;}
	.st1{fill:#131039;}
	.st2{fill:#57B7B5;}
</style>
<g id="_x23_a4d061ff">
	<path class="st0" d="M223.4,468.5c3.5-0.5,7.1-0.2,10.7-0.2c34,0,68,0,101.9,0c2.3-0.1,5,0.2,6.6,2.2c2,2.5,3.3,5.5,4.9,8.3
		c16.5,28.5,32.9,57,49.4,85.5c1.8,3.3,4.7,6.8,3.3,10.8c-1,3.5-4.8,5.1-8.1,4.8c-37-0.1-74.1,0.1-111.1-0.1c-4.7,0.1-6.5-4.6-8.4-8
		c-16.6-28.8-33.2-57.6-49.8-86.3c-1.4-2.5-3.1-4.9-4.2-7.6C216.9,474,219.4,469.2,223.4,468.5z"/>
</g>
<g id="_x23_131039ff">
	<path class="st1" d="M195.2,485.2c3.4-1.4,7.5,0.1,9.1,3.4c17.6,30.4,35.1,60.9,52.7,91.3c2.5,4.1,6.1,9.2,3,14.1
		c-17.8,30.9-35.6,61.7-53.4,92.5c-1.1,1.9-2.1,3.9-3.5,5.6c-2.5,3.1-7.9,3.2-10.4,0.1c-1.7-2.1-2.9-4.5-4.2-6.8
		c-16.7-29-33.4-57.9-50.2-86.9c-1.5-2.8-3.7-5.4-3.7-8.7c-0.3-3.3,2-6,3.5-8.8c17.2-29.8,34.4-59.6,51.6-89.5
		C191.2,489.3,192.3,486.3,195.2,485.2z"/>
	<path class="st1" d="M916.5,497.8c13.5,0,27,0,40.5,0c0,38.8,0,77.7,0,116.5c2,0,4.1,0,6.1,0c10.7-15.9,21.4-31.8,32.1-47.7
		c16.9-0.1,33.8,0,50.7,0c-15.2,21.5-30.6,42.8-45.7,64.2c15.3,27.2,30.4,54.5,45.6,81.8c-16,0-32,0-48,0
		c-11.6-21.8-23.2-43.5-34.8-65.3c-2,0-4,0-6,0c0,21.8,0,43.5,0,65.2c-13.5,0-27,0-40.5,0C916.5,640.9,916.5,569.3,916.5,497.8z"/>
	<path class="st1" d="M1203.8,511.5c13.5,0,27,0,40.5,0c0,67,0,134,0,201c-13.5,0-27,0-40.5,0
		C1203.8,645.5,1203.8,578.5,1203.8,511.5z"/>
	<path class="st1" d="M474.6,511.5c18.8,0,37.5,0,56.2,0c5.9,32.1,11.9,64.3,17.8,96.4c1.8,9.4,3.3,18.9,5.4,28.3
		c8.1-41.5,15.7-83.2,23.6-124.7c18.6,0,37.3,0,56,0c6,67,11.9,134,17.9,201c-13.3,0-26.5,0-39.8,0c-4.2-40.6-7.7-81.3-12.1-121.9
		c-7.3,40.7-15,81.3-22.5,121.9c-15.2,0-30.4,0-45.7,0c-5-25.5-9.8-51.1-14.8-76.6c-3-15.2-5.6-30.4-9-45.5c-0.2,0-0.6,0.1-0.8,0.1
		l0.7,1.2c-3.3,40.3-7,80.5-10.5,120.8c-13.4,0-26.7,0-40,0C463,645.5,468.8,578.5,474.6,511.5z"/>
	<path class="st1" d="M1134.8,511.5c13.5,0,27,0,40.5,0c0,67,0,134,0,201c-13.5,0-27,0-40.5,0
		C1134.8,645.5,1134.8,578.5,1134.8,511.5z"/>
	<path class="st1" d="M1272.7,511.5c13.5,0,27,0,40.5,0c0,67,0,134,0,201c-13.5,0-27,0-40.5,0
		C1272.7,645.5,1272.8,578.5,1272.7,511.5z"/>
	<path class="st1" d="M676.7,574c16.6-8,35.2-9.9,53.3-10c15.1-0.9,31.9,0.9,43.6,11.5c9.6,9.1,11.5,23.1,11.8,35.7
		c0,33.8,0,67.6,0,101.5c-10.8,0-21.5,0-32.2,0c-2.7-4.8-5.1-9.6-7.8-14.4c-1.8,0.9-2.6,2.9-4.1,4.2c-7.2,6.6-16.4,11.5-26.4,11.9
		c-10.5,0.5-22-1.7-29.9-9.3c-7.8-7.8-12.6-18.7-12.7-29.8c0-9.3-0.6-18.8,1.8-27.9c2.2-7.7,6.5-15.1,12.9-20
		c6.3-4.7,14.2-6.7,22-6.6c12,0.1,24,0,36,0c-0.1-6,0.8-12.7-2.5-18.1c-3-3.5-8.2-3.6-12.5-4c-17.8-0.2-35.5,1.7-53.2,2.9
		C676.8,592.3,676.8,583.1,676.7,574 M720.9,649.4c-4.3,0.5-7,4.5-7.6,8.5c-0.8,5.2-0.9,10.6,0.3,15.7c0.9,3.8,4.9,5.5,8.4,5.7
		c8.9,1,17.4-3.7,23-10.4c-0.1-7.3,0-14.6,0-22C737,647.8,728.9,648.4,720.9,649.4z"/>
	<path class="st1" d="M875.2,566.1c6.8-1.3,14.1-1.3,20.8,0.6c0,14.5,0,29.1,0,43.6c-7.7-0.5-15.4-0.2-23.1-0.2
		c-6.7,0.5-14.3,1.5-18.8,7.1c-2.5,3.4-5,7.4-4.7,11.9c0.1,27.8,0,55.6,0,83.5c-13.5,0-27,0-40.5,0c0-48.7,0-97.3,0-146
		c11.7,0,23.4,0,35.1,0c1.7,6,3.5,12,5.3,18C855.7,575.8,864.6,568.7,875.2,566.1z"/>
	<path class="st1" d="M956.6,747.8c2.6-4.8,8-7.2,13.2-7.6c10.1-0.5,20.5-0.3,30.2,3c0,4.6,0,9.1,0,13.7c-8.6-1-17.3-1.3-26-0.9
		c-2.8-0.1-4.9,2.4-4.5,5.2c0.2,2.9-1,7.5,2.5,8.7c6.2,1.8,12.8-0.3,19,1.4c4.5,1.2,7.7,5.1,9.4,9.2c2.3,5.6,2.1,11.7,1.9,17.6
		c-0.3,5.1-1.2,10.7-4.8,14.6c-3.6,4.1-9.4,5.2-14.6,5.2c-9.1,0-18.4-0.2-27-3.3c0-4.5,0-9.1,0-13.6c8.3,0.8,16.7,1.3,25.1,1.1
		c2.8,0,6.2-1.6,5.9-4.9c0.1-3,0.7-7.9-3-9c-7.1-1.1-15,1.3-21.6-2.5c-6.2-3.4-8.4-10.9-8.4-17.5
		C954.1,761.2,953.1,753.9,956.6,747.8z"/>
	<path class="st1" d="M1113.4,761.5c0.9-5.1,1.6-10.3,2.4-15.5c4.4,0,8.8,0,13.2,0c0,5.2,0,10.3,0,15.5c3.2,0,6.5,0,9.8,0
		c0,4.2,0,8.3,0,12.5c-3.3,0-6.5,0-9.8,0c0.2,8.4-0.3,16.8,0.3,25.2c0.3,4.7,5.4,6,9,7.5c0,3.4,0,6.8,0,10.1c-4.8,0-9.5,0.1-14.3,0
		c-3.3,0-6.4-2.2-7.9-5c-2.2-4.2-2.6-9-2.7-13.7c0-8,0-16,0-24c-2.5,0-5,0-7.5,0c0-3.1,0-6.1,0-9.2
		C1108.4,763.7,1110.9,762.5,1113.4,761.5z"/>
	<path class="st1" d="M1062.8,765.8c2.4-3.7,7-4.9,11.2-4.8c8.8,0.1,18-0.6,26.3,2.9c0,3.6,0,7.3,0,10.9c-8.1,0.2-16.3-0.5-24.3,0.4
		c-0.1,2.1-0.2,4.1-0.2,6.2c6.4,1.1,13.1-0.7,19.4,1.5c5.3,1.9,7.7,7.8,7.6,13.1c-0.1,5.9,0.9,12.8-3.1,17.6
		c-3.3,4-8.9,4.1-13.7,3.9c-7.9-0.5-16.4,0.4-23.7-3.3c0-3.6,0-7.1,0.1-10.7c7.7-0.1,15.5,0.2,23.2-0.1c2.9-0.7,1.4-4.5,1.6-6.5
		c-6.2-0.9-12.5,0.6-18.5-1.1c-5.4-1.6-8.3-7.3-8.3-12.6C1060.3,777.3,1059.3,770.8,1062.8,765.8z"/>
	<path class="st1" d="M1147.7,766c4.6-5,12.1-4.9,18.4-4.9c5.1,0.4,11.1,0.1,15.3,3.7c4.5,4.5,4.6,11.4,4.7,17.3
		c0.1,5.1-2,11-7.3,12.8c-6.7,2.1-13.8,0.8-20.7,1.3c0.2,2.8,0.6,6.7,3.9,7.5c7.6,1,15.4,0.3,23-0.6c0,3.9,0,7.9-0.1,11.8
		c-8,2.7-16.6,2.6-25,2.8c-5,0-10.8-1.3-13.4-6.1c-4.4-8.4-3.7-18.2-3.8-27.4C1143.1,777.8,1143.4,770.9,1147.7,766 M1159.1,776
		c-1.2,2.6-1,5.5-1.2,8.2c3.7,0,7.4,0.4,11-0.4c2-1.1,1.6-3.8,1.6-5.8c0-2-1.2-4.4-3.5-4.2C1164.3,773.7,1160.6,773.2,1159.1,776z"
		/>
	<path class="st1" d="M1215.4,761.3c6.6-1.6,14.9-0.7,18.5,5.8c4.2-3,8.8-6,14.1-6.3c4.2-0.2,8.9-0.1,12.2,2.9
		c4.3,3.8,4.7,10,5,15.3c0.1,12.6,0,25.1,0,37.7c-5.2,0-10.3,0-15.5,0c0-12.2,0-24.5,0-36.7c0-2.4-0.8-5.7-3.6-6
		c-3.7-0.2-7.9,0.8-10.3,3.9c0.3,12.9,0.1,25.9,0.2,38.8c-5.2,0-10.3,0-15.5,0c-0.1-11.9,0-23.9,0-35.8c-0.1-2.5-0.4-6.1-3.3-6.9
		c-3.9-0.6-8.7,1.1-10.4,4.7c-0.2,12.6,0,25.3-0.1,37.9c-5.2,0-10.3,0-15.5,0c0-18.4-0.1-36.9,0.1-55.3c4.2,0.1,8.5,0,12.7,0
		c0.9,1.8,1.8,3.7,2.6,5.5C1209.4,764.8,1212.1,762.5,1215.4,761.3z"/>
	<path class="st1" d="M1272.7,764.9c2.7-3.3,7.3-4,11.3-3.9c8.5,0.1,17.4-0.5,25.5,2.9c0,3.6,0,7.2,0,10.9c-7.5,0.1-15-0.2-22.4,0.1
		c-3.1-0.1-2.9,5-1.5,6.5c6.9,1.5,15-1.5,21.2,2.9c4.7,3.3,5.3,9.5,5.3,14.7c-0.1,5,0.1,10.8-3.4,14.8c-3.1,3.6-8.3,3.9-12.7,3.7
		c-8.3-0.5-17,0.4-24.7-3.3c0-3.6,0-7.1,0.1-10.7c8.3-0.1,16.6,0.5,24.8-0.3c0-2,1.3-5.2-1-6.4c-6.5-1-13.6,1.2-19.7-2
		c-4.9-2.6-6.3-8.6-6.3-13.8C1269.2,775.5,1268.9,769.3,1272.7,764.9z"/>
	<path class="st1" d="M1006.2,761.5c5.4,0,10.8,0,16.2,0c2.5,12.3,4.8,24.7,7.3,37.1c0.3,2.3,2.3,3.3,4.1,4.3
		c2.9-13.7,5.6-27.5,8.5-41.3c5.3,0,10.6,0,15.9,0c-6,27.8-12.1,55.7-18.1,83.5c-5.1,0-10.3,0-15.4,0c2.2-9.3,4.2-18.7,6.4-28.1
		c-3.2-0.2-6.4-0.7-9-2.7c-4.3-3.1-6.1-8.3-7.2-13.2C1012,787.8,1009.1,774.7,1006.2,761.5z"/>
</g>
<g id="_x23_57b7b5ff">
	<path class="st2" d="M281.5,596.5c3.1-0.5,6.4-0.2,9.5-0.3c34.4,0,68.7,0,103.1,0c2.6,0,5.5,0.4,7.1,2.7c1.9,2.4,1.9,5.9,0.3,8.5
		c-18.6,32.1-37.1,64.3-55.7,96.4c-1.6,3.2-5.3,4.6-8.8,4.4c-36.7-0.1-73.3,0-110,0c-5.6,0.7-9.9-6.3-6.7-10.9
		c18.4-31.9,36.9-63.8,55.2-95.7C276.8,599.2,278.7,597.1,281.5,596.5z"/>
</g>
</svg>
