<?xml version="1.0" encoding="utf-8"?>
<!-- Generator: Adobe Illustrator 18.0.0, SVG Export Plug-In . SVG Version: 6.00 Build 0)  -->
<!DOCTYPE svg PUBLIC "-//W3C//DTD SVG 1.1//EN" "http://www.w3.org/Graphics/SVG/1.1/DTD/svg11.dtd">
<svg version="1.1" id="svg5358" xmlns:svg="http://www.w3.org/2000/svg"
	 xmlns="http://www.w3.org/2000/svg" xmlns:xlink="http://www.w3.org/1999/xlink" x="0px" y="0px" width="1033.7px"
	 height="220.7px" viewBox="0 0 1033.7 220.7" enable-background="new 0 0 1033.7 220.7" xml:space="preserve">
<path id="path5056" fill="#706D6E" d="M1033.7,99.8V81.7h-22.6V53.4l-0.8,0.2l-21.2,6.5l-0.4,0.1v21.4h-33.5V69.7
	c0-5.6,1.2-9.8,3.7-12.6c2.4-2.8,5.9-4.2,10.3-4.2c3.2,0,6.5,0.8,9.8,2.2l0.8,0.4V36.3l-0.4-0.1c-3.1-1.1-7.3-1.7-12.5-1.7
	c-6.6,0-12.6,1.4-17.8,4.3c-5.2,2.8-9.3,6.9-12.2,12.1c-2.9,5.2-4.3,11.1-4.3,17.7v13.1H917v18.2h15.7v76.6h22.6V99.8h33.5v48.7
	c0,20,9.5,30.2,28.1,30.2c3.1,0,6.3-0.4,9.6-1.1c3.4-0.7,5.6-1.4,7-2.2l0.3-0.2v-18.3l-0.9,0.6c-1.2,0.8-2.8,1.5-4.5,2
	c-1.8,0.5-3.3,0.8-4.5,0.8c-4.4,0-7.6-1.2-9.6-3.5c-2-2.3-3.1-6.4-3.1-12.2V99.8L1033.7,99.8L1033.7,99.8z M866.6,160.3
	c-8.2,0-14.6-2.7-19.2-8.1c-4.6-5.4-6.9-13-6.9-22.8c0-10,2.3-17.9,6.9-23.4c4.6-5.4,11-8.2,19-8.2c7.8,0,14.1,2.6,18.5,7.8
	c4.5,5.2,6.8,13,6.8,23.2c0,10.3-2.1,18.2-6.4,23.5C881.2,157.6,874.9,160.3,866.6,160.3 M867.6,79.4c-15.6,0-28,4.6-36.9,13.6
	c-8.8,9-13.3,21.5-13.3,37.2c0,14.8,4.4,26.8,13,35.5c8.6,8.7,20.4,13.1,34.9,13.1c15.1,0,27.3-4.6,36.2-13.8
	c8.8-9.1,13.3-21.5,13.3-36.8c0-15.1-4.2-27.1-12.5-35.7C894,83.8,882.4,79.4,867.6,79.4 M781,79.4c-10.6,0-19.4,2.7-26.1,8.1
	c-6.8,5.4-10.2,12.5-10.2,21c0,4.4,0.7,8.4,2.2,11.8c1.5,3.4,3.7,6.3,6.7,8.8c3,2.5,7.6,5,13.7,7.7c5.1,2.1,9,3.9,11.4,5.3
	c2.4,1.4,4.1,2.8,5,4.1c0.9,1.3,1.4,3.1,1.4,5.4c0,6.4-4.8,9.5-14.6,9.5c-3.6,0-7.8-0.8-12.3-2.3c-4.5-1.5-8.8-3.6-12.6-6.4
	l-0.9-0.7v21.7l0.3,0.2c3.2,1.5,7.2,2.7,12,3.7c4.7,1,9,1.5,12.8,1.5c11.5,0,20.8-2.7,27.6-8.1c6.8-5.4,10.3-12.7,10.3-21.5
	c0-6.4-1.9-11.9-5.5-16.3c-3.6-4.4-10-8.4-18.8-12c-7-2.8-11.5-5.2-13.4-7c-1.8-1.7-2.7-4.2-2.7-7.3c0-2.8,1.1-5,3.4-6.8
	c2.3-1.8,5.6-2.7,9.6-2.7c3.8,0,7.6,0.6,11.4,1.8c3.8,1.2,7.2,2.7,10,4.6l0.9,0.6V83.5l-0.4-0.2c-2.6-1.1-6-2.1-10.1-2.8
	C788,79.8,784.3,79.4,781,79.4 M685.9,160.3c-8.2,0-14.6-2.7-19.2-8.1c-4.6-5.4-6.9-13-6.9-22.8c0-10,2.3-17.9,6.9-23.4
	c4.5-5.4,10.9-8.2,19-8.2c7.8,0,14.1,2.6,18.5,7.8c4.5,5.2,6.8,13,6.8,23.2c0,10.3-2.1,18.2-6.4,23.5
	C700.4,157.6,694.1,160.3,685.9,160.3 M686.9,79.4c-15.6,0-28,4.6-36.9,13.6c-8.8,9-13.3,21.5-13.3,37.2c0,14.8,4.4,26.8,13,35.5
	c8.6,8.7,20.4,13.1,34.9,13.1c15.1,0,27.3-4.6,36.2-13.8c8.8-9.1,13.3-21.5,13.3-36.8c0-15.1-4.2-27.1-12.5-35.7
	C713.3,83.8,701.6,79.4,686.9,79.4 M602.4,98.1V81.7h-22.3v94.8h22.3v-48.5c0-8.2,1.9-15,5.6-20.1c3.6-5.1,8.5-7.6,14.4-7.6
	c2,0,4.3,0.3,6.7,1c2.4,0.7,4.2,1.4,5.2,2.1l0.9,0.7V81.5l-0.4-0.2c-2.1-0.9-5-1.3-8.7-1.3c-5.6,0-10.6,1.8-14.9,5.3
	c-3.8,3.1-6.5,7.4-8.6,12.7C602.6,98.1,602.4,98.1,602.4,98.1z M540.2,79.4c-10.2,0-19.3,2.2-27.1,6.5c-7.8,4.3-13.8,10.5-17.9,18.4
	c-4.1,7.8-6.1,17-6.1,27.2c0,9,2,17.2,6,24.4c4,7.3,9.6,12.9,16.7,16.9c7.1,3.9,15.3,5.9,24.4,5.9c10.6,0,19.6-2.1,26.9-6.3l0.3-0.2
	v-20.4l-0.9,0.7c-3.3,2.4-7,4.3-10.9,5.7c-3.9,1.4-7.5,2.1-10.7,2.1c-8.7,0-15.8-2.7-20.9-8.1c-5.1-5.4-7.7-13-7.7-22.5
	c0-9.6,2.7-17.4,8-23.1c5.3-5.7,12.3-8.6,20.9-8.6c7.3,0,14.5,2.5,21.2,7.4l0.9,0.7V84.4l-0.3-0.2c-2.5-1.4-6-2.6-10.3-3.5
	C548.4,79.8,544.2,79.4,540.2,79.4 M473.7,81.7h-22.3v94.8h22.3V81.7z M462.8,41.3c-3.7,0-6.9,1.2-9.5,3.7c-2.6,2.5-4,5.6-4,9.3
	c0,3.6,1.3,6.7,3.9,9.1c2.6,2.4,5.8,3.6,9.5,3.6c3.7,0,7-1.2,9.6-3.6c2.6-2.4,4-5.5,4-9.1c0-3.6-1.3-6.7-3.9-9.2
	C469.9,42.6,466.7,41.3,462.8,41.3 M407.2,74.7v101.8h22.8V44.2h-31.5l-40,98.2l-38.8-98.2h-32.8v132.2h21.4V74.7h0.7l41,101.8h16.1
	l40.4-101.8L407.2,74.7L407.2,74.7z"/>
<path id="path5058" fill="#F1511B" d="M104.9,104.9H0V0h104.9V104.9z"/>
<path id="path5060" fill="#80CC28" d="M220.7,104.9H115.8V0h104.9V104.9z"/>
<path id="path5062" fill="#00ADEF" d="M104.9,220.7H0V115.8h104.9V220.7z"/>
<path id="path5064" fill="#FBBC09" d="M220.7,220.7H115.8V115.8h104.9V220.7z"/>
</svg>
