<?xml version="1.0" encoding="UTF-8" ?>
<!DOCTYPE svg PUBLIC "-//W3C//DTD SVG 1.1//EN" "http://www.w3.org/Graphics/SVG/1.1/DTD/svg11.dtd">
<svg width="516pt" height="303pt" viewBox="0 0 516 303" version="1.1" xmlns="http://www.w3.org/2000/svg">
<g id="#751b00ff">
<path fill="#751b00" opacity="1.00" d=" M 1.99 5.96 C 1.64 3.61 3.42 0.89 6.00 1.25 C 57.00 1.25 108.00 1.26 159.00 1.25 C 172.22 1.57 184.15 12.21 186.41 25.17 C 187.38 31.32 186.88 37.56 187.00 43.75 C 172.25 43.84 157.50 43.51 142.75 43.94 C 133.50 44.08 124.25 43.96 115.00 44.00 C 101.33 44.00 87.67 44.00 74.00 44.00 C 64.75 43.96 55.50 44.08 46.25 43.94 C 31.50 43.50 16.75 43.85 2.00 43.74 C 2.00 31.15 2.01 18.55 1.99 5.96 Z" />
</g>
<g id="#162f51ff">
<path fill="#162f51" opacity="1.00" d=" M 226.24 5.98 C 225.92 3.56 227.24 0.81 230.01 0.93 C 241.01 0.50 252.03 0.89 263.04 0.73 C 265.40 0.89 268.71 0.45 269.89 3.08 C 270.58 4.97 270.48 7.02 270.52 9.00 C 270.42 49.58 270.63 90.15 270.42 130.73 C 270.01 145.81 270.39 160.91 270.22 176.00 C 256.78 175.98 243.34 176.04 229.91 175.98 C 227.75 176.13 226.14 174.09 226.28 172.04 C 226.21 116.69 226.29 61.33 226.24 5.98 Z" />
</g>
<g id="#ecc700ff">
<path fill="#ecc700" opacity="1.00" d=" M 368.03 4.92 C 367.73 2.66 369.95 1.18 372.00 1.27 C 383.68 1.21 395.36 1.28 407.04 1.23 C 408.65 1.14 410.32 1.52 411.48 2.72 C 412.65 6.01 412.15 9.59 412.25 13.01 C 412.31 30.23 412.12 47.44 412.35 64.66 C 412.18 80.24 412.10 95.83 412.40 111.41 C 411.97 131.62 412.51 151.85 412.13 172.06 C 412.36 174.96 409.51 176.70 406.90 176.45 C 395.63 176.54 384.35 176.55 373.08 176.45 C 370.57 176.67 367.52 175.01 368.01 172.14 C 368.00 116.40 367.97 60.66 368.03 4.92 Z" />
<path fill="#ecc700" opacity="1.00" d=" M 470.01 5.94 C 469.64 3.22 472.33 0.78 475.00 1.23 C 486.66 1.29 498.33 1.21 509.99 1.27 C 511.94 1.03 513.04 2.87 514.30 4.00 C 514.17 60.02 514.31 116.04 514.23 172.06 C 514.36 174.90 511.39 176.57 508.87 176.49 C 497.62 176.50 486.36 176.56 475.12 176.46 C 472.62 176.57 469.85 174.79 470.02 172.06 C 469.85 152.00 470.25 131.94 469.81 111.89 C 470.27 99.27 469.84 86.64 470.06 74.01 C 470.15 70.90 469.83 67.79 469.49 64.70 C 469.57 62.79 470.09 60.93 470.01 59.01 C 470.00 41.32 469.99 23.63 470.01 5.94 Z" />
</g>
<g id="#c53c02ff">
<path fill="#c53c02" opacity="1.00" d=" M 2.00 43.74 C 16.75 43.85 31.50 43.50 46.25 43.94 C 46.26 84.28 46.24 124.62 46.26 164.96 C 46.18 168.14 46.62 171.46 45.52 174.52 C 44.09 176.62 41.25 176.46 39.00 176.52 C 28.33 176.44 17.66 176.58 6.99 176.46 C 4.47 176.62 1.58 174.98 2.03 172.10 C 1.96 129.32 2.02 86.53 2.00 43.74 Z" />
<path fill="#c53c02" opacity="1.00" d=" M 74.00 44.00 C 87.67 44.00 101.33 44.00 115.00 44.00 C 115.01 86.01 114.99 128.02 115.01 170.03 C 115.20 172.76 114.13 176.12 110.94 176.39 C 100.97 176.69 90.98 176.38 81.00 176.53 C 78.52 176.68 75.45 176.20 74.24 173.72 C 73.76 171.19 74.05 168.59 74.00 166.03 C 74.01 125.35 73.99 84.67 74.00 44.00 Z" />
<path fill="#c53c02" opacity="1.00" d=" M 142.75 43.94 C 157.50 43.51 172.25 43.84 187.00 43.75 C 186.98 86.19 187.04 128.63 186.97 171.06 C 187.13 173.80 184.89 176.63 182.00 176.40 C 170.65 176.61 159.28 176.50 147.93 176.46 C 145.38 176.67 142.55 174.82 142.78 172.04 C 142.72 129.34 142.76 86.64 142.75 43.94 Z" />
</g>
<g id="#fdee00ff">
<path fill="#fdee00" opacity="1.00" d=" M 412.40 111.41 C 412.10 95.83 412.18 80.24 412.35 64.66 C 413.85 66.11 415.83 66.84 417.91 66.73 C 433.61 66.76 449.30 66.76 465.00 66.73 C 466.76 66.82 468.15 65.66 469.49 64.70 C 469.83 67.79 470.15 70.90 470.06 74.01 C 469.84 86.64 470.27 99.27 469.81 111.89 C 468.66 110.99 467.66 109.36 466.00 109.52 C 449.65 109.48 433.31 109.49 416.96 109.51 C 415.15 109.26 413.75 110.40 412.40 111.41 Z" />
</g>
<g id="#265a8fff">
<path fill="#265a8f" opacity="1.00" d=" M 270.22 176.00 C 270.39 160.91 270.01 145.81 270.42 130.73 C 271.65 132.01 273.04 133.41 275.00 133.22 C 295.69 133.30 316.39 133.23 337.08 133.25 C 338.63 133.38 340.40 133.14 341.74 134.11 C 343.69 135.34 343.63 137.92 343.75 139.96 C 343.72 150.34 343.80 160.72 343.72 171.10 C 343.88 173.16 342.38 174.67 341.10 176.05 C 317.47 175.93 293.85 176.04 270.22 176.00 Z" />
<path fill="#265a8f" opacity="1.00" d=" M 380.72 254.73 L 382.28 254.70 C 382.31 270.80 382.29 286.90 382.29 303.00 L 380.71 303.00 C 380.71 286.91 380.69 270.82 380.72 254.73 Z" />
</g>
<g id="#353535ff">
<path fill="#353535" opacity="1.00" d=" M 0.77 193.77 C 8.87 193.76 16.97 193.71 25.06 193.77 C 27.47 193.52 29.72 195.61 29.68 198.02 C 29.86 205.69 29.70 213.37 29.73 221.05 C 27.41 221.25 25.08 221.28 22.76 221.20 C 22.70 214.28 22.85 207.36 22.67 200.44 C 21.62 200.46 19.54 200.50 18.50 200.52 C 18.53 207.37 18.43 214.22 18.56 221.07 C 16.39 221.27 14.21 221.26 12.04 221.12 C 11.96 214.24 12.02 207.37 12.00 200.50 C 10.67 200.50 9.33 200.50 8.00 200.50 C 7.96 207.38 8.09 214.25 7.92 221.12 C 5.55 221.25 3.17 221.25 0.80 221.15 C 0.70 212.02 0.76 202.89 0.77 193.77 Z" />
<path fill="#353535" opacity="1.00" d=" M 35.53 199.01 C 35.28 196.39 37.20 193.66 39.99 193.78 C 44.69 193.70 49.40 193.72 54.10 193.77 C 56.49 193.54 58.69 195.67 58.68 198.03 C 58.87 205.68 58.67 213.35 58.75 221.01 C 56.38 221.28 54.00 221.29 51.62 221.18 C 51.54 218.35 51.49 215.53 51.39 212.71 C 48.51 212.74 45.64 212.76 42.77 212.76 C 42.74 215.52 42.74 218.27 42.74 221.03 C 40.38 221.26 38.00 221.29 35.62 221.19 C 35.40 213.80 35.49 206.40 35.53 199.01 M 42.75 200.00 C 42.75 202.25 42.75 204.49 42.74 206.74 C 45.66 206.75 48.58 206.75 51.49 206.74 C 51.50 204.49 51.50 202.24 51.50 200.00 C 48.58 200.00 45.67 200.00 42.75 200.00 Z" />
<path fill="#353535" opacity="1.00" d=" M 76.24 214.22 C 76.39 207.37 75.97 200.51 76.48 193.67 C 78.73 193.73 80.98 193.76 83.23 193.78 C 83.23 201.54 83.32 209.30 83.22 217.06 C 83.25 219.72 80.49 221.40 78.05 221.22 C 73.73 221.18 69.32 221.64 65.06 220.82 C 60.35 218.16 62.80 211.70 62.35 207.32 C 64.65 207.28 66.95 207.24 69.24 207.18 C 69.46 209.55 69.56 211.93 69.64 214.31 C 71.84 214.26 74.04 214.24 76.24 214.22 Z" />
<path fill="#353535" opacity="1.00" d=" M 91.43 194.29 C 95.78 193.09 100.49 194.06 104.99 193.72 C 107.69 193.45 111.36 193.84 112.08 197.03 C 112.48 203.33 112.16 209.66 112.25 215.98 C 112.62 218.52 110.56 220.99 108.00 221.12 C 103.34 221.39 98.66 221.30 93.99 221.17 C 91.61 221.26 89.19 219.47 89.28 216.94 C 89.22 210.60 89.22 204.25 89.28 197.91 C 89.17 196.37 90.23 195.09 91.43 194.29 M 96.27 200.52 C 96.24 205.09 96.25 209.67 96.25 214.24 C 99.25 214.25 102.25 214.25 105.25 214.25 C 105.27 209.70 105.19 205.15 105.33 200.61 C 102.31 200.47 99.29 200.47 96.27 200.52 Z" />
<path fill="#353535" opacity="1.00" d=" M 117.76 193.77 C 123.83 193.76 129.90 193.69 135.96 193.77 C 138.31 193.51 140.71 195.48 140.72 197.87 C 140.81 201.59 140.80 205.31 140.72 209.02 C 140.89 211.08 138.92 212.20 137.65 213.44 C 139.21 215.92 140.67 218.46 141.98 221.09 C 139.40 221.15 136.72 221.65 134.19 220.90 C 132.32 218.50 131.13 215.66 129.60 213.04 C 127.98 213.02 126.36 213.00 124.75 212.99 C 124.74 215.68 124.75 218.38 124.77 221.08 C 122.43 221.26 120.09 221.26 117.75 221.13 C 117.76 212.01 117.73 202.89 117.76 193.77 M 124.62 200.16 C 124.53 202.33 124.47 204.50 124.43 206.67 C 127.54 206.76 130.64 206.78 133.75 206.74 C 133.75 204.58 133.75 202.41 133.75 200.25 C 130.70 200.27 127.66 200.26 124.62 200.16 Z" />
<path fill="#353535" opacity="1.00" d=" M 160.51 193.79 C 162.79 193.77 165.07 193.74 167.36 193.67 C 167.71 200.50 167.35 207.35 167.56 214.19 C 171.33 214.27 175.09 214.26 178.86 214.27 C 178.97 216.54 179.01 218.82 178.99 221.10 C 172.85 221.37 166.70 221.29 160.55 221.14 C 160.44 212.02 160.51 202.91 160.51 193.79 Z" />
<path fill="#353535" opacity="1.00" d=" M 182.52 198.05 C 182.42 195.69 184.58 193.60 186.93 193.78 C 192.44 193.67 197.94 193.78 203.45 193.77 C 203.47 195.92 203.47 198.07 203.45 200.23 C 198.79 200.27 194.13 200.20 189.47 200.31 C 189.48 201.36 189.50 203.46 189.51 204.51 C 193.41 204.59 197.33 204.26 201.21 204.68 C 201.82 206.50 201.44 208.45 201.35 210.33 C 197.38 210.20 193.41 210.21 189.45 210.33 C 189.47 211.37 189.50 213.46 189.52 214.50 C 194.21 214.61 198.92 214.22 203.59 214.76 C 203.51 216.89 203.45 219.03 203.37 221.17 C 197.92 221.23 192.46 221.41 187.01 221.14 C 184.72 221.19 182.46 219.39 182.53 216.98 C 182.46 210.67 182.47 204.36 182.52 198.05 Z" />
<path fill="#353535" opacity="1.00" d=" M 209.32 198.30 C 209.24 195.78 211.45 193.61 213.97 193.77 C 218.66 193.71 223.35 193.71 228.04 193.77 C 230.81 193.66 232.75 196.43 232.48 199.03 C 232.49 206.41 232.60 213.80 232.39 221.17 C 230.00 221.29 227.61 221.29 225.24 220.99 C 225.26 218.24 225.26 215.50 225.23 212.76 C 222.36 212.76 219.49 212.74 216.63 212.69 C 216.49 215.51 216.45 218.32 216.46 221.14 C 214.06 221.27 211.66 221.29 209.27 221.05 C 209.30 213.47 209.13 205.88 209.32 198.30 M 216.50 200.00 C 216.50 202.24 216.50 204.49 216.51 206.73 C 219.42 206.75 222.34 206.75 225.26 206.74 C 225.25 204.49 225.25 202.25 225.25 200.00 C 222.33 200.00 219.42 200.00 216.50 200.00 Z" />
<path fill="#353535" opacity="1.00" d=" M 238.27 198.88 C 238.05 196.60 239.54 194.02 241.98 193.84 C 247.90 193.60 253.83 193.78 259.75 193.80 C 259.74 196.02 259.74 198.24 259.72 200.47 C 255.00 200.50 250.28 200.55 245.55 200.43 C 244.96 204.97 245.35 209.55 245.26 214.11 C 248.23 214.28 251.20 214.29 254.17 214.24 C 254.24 211.50 254.27 208.77 254.29 206.04 C 256.60 206.01 258.91 206.01 261.22 206.04 C 261.20 209.71 261.37 213.37 261.22 217.04 C 261.20 219.22 259.17 221.11 257.00 221.12 C 252.35 221.38 247.68 221.31 243.02 221.17 C 240.72 221.24 238.28 219.39 238.32 216.98 C 238.16 210.95 238.26 204.91 238.27 198.88 Z" />
<path fill="#353535" opacity="1.00" d=" M 267.00 193.78 C 269.33 193.76 271.66 193.76 273.99 193.78 C 274.01 200.59 274.00 207.39 274.00 214.19 C 276.91 214.26 279.82 214.26 282.74 214.22 C 282.82 207.41 282.61 200.59 282.87 193.79 C 285.23 193.76 287.58 193.76 289.94 193.77 C 290.03 201.21 290.03 208.65 289.98 216.09 C 290.15 218.43 288.43 220.92 285.99 221.09 C 281.32 221.42 276.62 221.26 271.95 221.21 C 269.61 221.27 267.00 219.64 267.03 217.09 C 266.93 209.32 267.04 201.55 267.00 193.78 Z" />
<path fill="#353535" opacity="1.00" d=" M 295.75 199.00 C 295.42 196.47 297.30 193.76 299.98 193.78 C 305.56 193.67 311.15 193.77 316.74 193.79 C 316.74 195.93 316.74 198.07 316.74 200.21 C 312.11 200.27 307.49 200.27 302.86 200.22 C 302.80 201.65 302.75 203.07 302.70 204.50 C 306.72 204.50 310.74 204.44 314.75 204.60 C 314.74 206.47 314.73 208.34 314.73 210.22 C 310.76 210.26 306.78 210.26 302.81 210.25 C 302.78 211.66 302.74 213.07 302.72 214.49 C 307.35 214.50 311.98 214.52 316.61 214.48 C 316.72 216.65 316.76 218.83 316.77 221.02 C 311.51 221.44 306.22 221.26 300.95 221.21 C 298.51 221.33 295.75 219.59 295.83 216.93 C 295.63 210.96 295.78 204.97 295.75 199.00 Z" />
<path fill="#353535" opacity="1.00" d=" M 336.01 193.78 C 338.33 193.76 340.66 193.76 343.00 193.78 C 342.99 197.10 343.00 200.41 343.03 203.73 C 345.99 203.76 348.96 203.75 351.93 203.72 C 352.01 200.40 352.02 197.09 352.00 193.78 C 354.33 193.76 356.66 193.76 358.99 193.78 C 358.99 202.89 359.04 212.00 358.96 221.11 C 356.64 221.24 354.31 221.25 352.00 221.17 C 352.03 217.72 352.01 214.26 351.89 210.81 C 348.94 210.74 346.00 210.73 343.05 210.78 C 343.01 214.22 342.98 217.67 342.96 221.12 C 340.64 221.24 338.32 221.25 336.00 221.17 C 336.00 212.04 335.99 202.91 336.01 193.78 Z" />
<path fill="#353535" opacity="1.00" d=" M 365.03 197.90 C 364.96 195.81 366.89 193.80 368.99 193.81 C 373.67 193.66 378.36 193.75 383.04 193.76 C 385.44 193.48 387.93 195.39 387.93 197.88 C 388.10 205.62 387.98 213.37 387.96 221.11 C 385.60 221.25 383.23 221.25 380.87 221.17 C 380.75 218.37 380.72 215.57 380.73 212.78 C 377.82 212.74 374.91 212.74 372.01 212.79 C 372.00 215.56 371.99 218.34 371.96 221.11 C 369.64 221.24 367.32 221.25 365.00 221.17 C 365.03 213.41 364.93 205.65 365.03 197.90 M 372.00 200.00 C 372.00 202.25 372.00 204.50 372.01 206.76 C 374.92 206.75 377.83 206.75 380.75 206.75 C 380.74 204.50 380.75 202.25 380.76 200.01 C 377.83 200.00 374.91 200.00 372.00 200.00 Z" />
<path fill="#353535" opacity="1.00" d=" M 393.75 198.98 C 393.43 196.45 395.33 193.74 398.00 193.78 C 403.59 193.69 409.19 193.71 414.78 193.84 C 414.75 196.04 414.73 198.26 414.72 200.47 C 410.08 200.55 405.45 200.39 400.82 200.64 C 400.70 205.16 400.71 209.68 400.81 214.19 C 405.44 214.30 410.07 214.21 414.70 214.31 C 414.72 216.54 414.74 218.78 414.76 221.01 C 409.50 221.44 404.21 221.26 398.94 221.21 C 396.55 221.32 393.81 219.64 393.84 217.03 C 393.62 211.01 393.78 204.99 393.75 198.98 Z" />
<path fill="#353535" opacity="1.00" d=" M 420.77 193.75 C 423.09 193.75 425.42 193.76 427.75 193.80 C 427.74 197.76 427.73 201.72 427.78 205.68 C 431.21 201.72 434.58 197.69 438.02 193.74 C 440.70 193.74 443.37 193.75 446.06 193.80 C 443.10 197.96 439.42 201.53 436.41 205.64 C 439.67 210.70 442.85 215.82 445.83 221.06 C 443.21 221.22 440.57 221.47 437.97 221.10 C 435.26 217.71 433.71 213.55 431.41 209.89 C 430.20 211.26 429.00 212.64 427.79 214.01 C 427.75 216.36 427.74 218.72 427.76 221.08 C 425.43 221.26 423.08 221.26 420.75 221.14 C 420.76 212.01 420.72 202.88 420.77 193.75 Z" />
<path fill="#353535" opacity="1.00" d=" M 450.25 193.81 C 452.58 193.76 454.91 193.74 457.25 193.74 C 457.25 202.89 457.25 212.04 457.24 221.19 C 454.91 221.29 452.57 221.27 450.25 221.02 C 450.25 211.95 450.26 202.88 450.25 193.81 Z" />
<path fill="#353535" opacity="1.00" d=" M 463.25 193.81 C 469.50 193.74 475.76 193.69 482.02 193.78 C 484.22 193.74 486.27 195.80 486.22 198.00 C 486.29 205.71 486.27 213.43 486.20 221.14 C 483.88 221.28 481.56 221.28 479.25 221.02 C 479.22 214.20 479.34 207.38 479.18 200.56 C 476.19 200.45 473.19 200.42 470.22 200.71 C 470.29 207.52 470.23 214.32 470.25 221.13 C 467.91 221.26 465.56 221.26 463.23 221.08 C 463.28 211.99 463.24 202.90 463.25 193.81 Z" />
<path fill="#353535" opacity="1.00" d=" M 492.04 198.80 C 491.90 196.47 493.48 193.90 496.00 193.84 C 501.84 193.57 507.69 193.89 513.53 193.70 C 513.50 195.86 514.45 198.50 513.22 200.37 C 508.57 200.76 503.89 200.28 499.24 200.63 C 499.27 205.17 499.20 209.71 499.31 214.25 C 502.20 214.26 505.09 214.25 507.99 214.19 C 507.98 211.49 508.00 208.79 508.10 206.09 C 510.45 206.02 512.81 206.00 515.16 206.03 C 515.21 209.68 515.43 213.34 515.16 216.99 C 515.06 219.58 512.52 221.38 510.04 221.21 C 505.38 221.26 500.70 221.42 496.05 221.10 C 493.57 220.96 491.94 218.50 492.05 216.16 C 491.94 210.38 491.96 204.59 492.04 198.80 Z" />
<path fill="#353535" opacity="1.00" d=" M 67.25 264.02 C 71.13 264.12 75.23 263.44 78.92 264.96 C 83.95 266.91 84.08 275.03 79.62 277.67 C 76.47 279.68 72.56 279.20 69.01 279.26 C 69.00 282.84 68.99 286.42 69.00 290.01 C 68.56 290.00 67.69 289.99 67.25 289.99 C 67.25 281.33 67.26 272.67 67.25 264.02 M 69.03 265.47 C 68.98 269.57 68.99 273.67 69.01 277.77 C 72.19 277.67 75.67 278.18 78.53 276.49 C 81.30 274.71 81.28 270.68 80.01 267.99 C 77.39 264.69 72.71 265.65 69.03 265.47 Z" />
<path fill="#353535" opacity="1.00" d=" M 94.22 264.29 C 99.15 262.38 105.72 263.70 108.43 268.57 C 111.17 273.63 111.29 280.31 108.29 285.29 C 104.17 292.35 92.08 291.87 88.67 284.36 C 85.47 277.74 86.59 267.29 94.22 264.29 M 95.49 265.67 C 91.87 266.68 89.67 270.31 89.24 273.88 C 88.55 278.43 89.15 283.95 93.13 286.90 C 97.47 289.84 104.48 288.85 107.01 283.96 C 109.04 279.60 109.08 274.23 107.04 269.86 C 105.10 265.59 99.64 264.46 95.49 265.67 Z" />
<path fill="#353535" opacity="1.00" d=" M 113.41 263.75 C 113.87 263.87 114.78 264.11 115.23 264.23 C 117.58 271.69 119.45 279.31 121.44 286.88 C 123.14 279.20 125.65 271.74 127.54 264.11 C 128.08 264.09 129.16 264.03 129.70 264.01 C 131.78 271.79 134.28 279.45 136.24 287.26 C 137.94 279.50 140.07 271.82 142.33 264.22 C 142.76 264.11 143.63 263.90 144.07 263.79 C 141.81 272.66 139.21 281.44 136.84 290.29 C 135.13 290.15 134.98 288.44 134.57 287.14 C 132.69 280.09 130.51 273.13 128.68 266.06 C 126.56 274.19 124.31 282.28 121.94 290.34 C 120.80 289.98 120.16 289.20 120.00 288.01 C 117.82 279.92 115.49 271.87 113.41 263.75 Z" />
<path fill="#353535" opacity="1.00" d=" M 149.00 264.00 C 153.70 264.00 158.41 263.99 163.11 264.01 C 163.23 264.39 163.46 265.17 163.57 265.55 C 159.31 265.91 155.02 265.70 150.75 265.75 C 150.75 269.00 150.74 272.25 150.75 275.50 C 154.70 275.49 158.66 275.49 162.62 275.54 C 162.56 275.97 162.46 276.83 162.40 277.26 C 158.52 277.24 154.63 277.24 150.75 277.26 C 150.75 280.93 150.74 284.59 150.75 288.25 C 155.00 288.27 159.26 288.15 163.51 288.39 C 163.41 288.79 163.21 289.60 163.11 290.00 C 158.41 290.00 153.71 290.00 149.00 290.00 C 149.00 281.33 149.00 272.67 149.00 264.00 Z" />
<path fill="#353535" opacity="1.00" d=" M 169.00 264.01 C 173.77 264.24 179.64 262.90 183.35 266.71 C 186.51 270.77 183.99 276.86 179.18 278.19 C 181.53 282.17 183.96 286.11 186.19 290.17 C 185.67 290.08 184.65 289.90 184.13 289.82 C 181.46 286.31 179.62 282.25 177.30 278.52 C 175.11 278.50 172.93 278.50 170.74 278.50 C 170.75 282.33 170.75 286.16 170.75 290.00 C 170.31 290.00 169.44 290.00 169.00 290.00 C 168.99 281.34 169.00 272.67 169.00 264.01 M 170.75 265.51 C 170.75 269.34 170.75 273.17 170.75 277.01 C 173.77 276.89 176.99 277.45 179.85 276.21 C 183.30 274.63 183.69 269.43 181.10 266.94 C 178.06 264.90 174.20 265.61 170.75 265.51 Z" />
<path fill="#353535" opacity="1.00" d=" M 190.75 264.00 C 195.50 264.00 200.25 264.00 205.00 264.00 C 205.00 264.44 205.00 265.31 205.00 265.75 C 200.84 265.75 196.67 265.75 192.51 265.74 C 192.50 268.99 192.49 272.25 192.50 275.50 C 196.27 275.59 200.06 275.31 203.82 275.60 C 204.03 275.99 204.43 276.78 204.63 277.18 C 200.59 277.29 196.55 277.24 192.51 277.27 C 192.49 280.93 192.49 284.59 192.51 288.26 C 196.67 288.25 200.84 288.25 205.00 288.25 C 205.00 288.69 205.00 289.56 205.00 290.00 C 200.25 290.00 195.50 290.00 190.75 290.00 C 190.75 281.33 190.75 272.67 190.75 264.00 Z" />
<path fill="#353535" opacity="1.00" d=" M 210.75 264.01 C 216.74 264.04 224.42 262.91 228.34 268.63 C 231.58 274.09 231.44 282.14 226.83 286.82 C 222.46 290.78 216.17 289.95 210.75 289.99 C 210.75 281.33 210.75 272.67 210.75 264.01 M 212.50 265.50 C 212.50 273.17 212.50 280.83 212.50 288.50 C 217.50 288.63 224.01 288.90 226.87 283.89 C 229.30 279.07 229.29 272.47 225.60 268.27 C 222.12 264.92 216.93 265.50 212.50 265.50 Z" />
<path fill="#353535" opacity="1.00" d=" M 246.00 264.01 C 250.73 264.29 256.06 263.00 260.31 265.64 C 264.50 268.62 262.50 275.82 257.29 276.25 C 259.05 276.82 261.08 277.21 262.22 278.84 C 264.44 282.26 263.00 287.61 259.06 289.10 C 254.90 290.66 250.34 289.80 246.00 289.99 C 246.00 281.33 246.00 272.67 246.00 264.01 M 247.75 265.51 C 247.75 268.83 247.75 272.16 247.75 275.49 C 251.69 275.26 256.34 276.44 259.65 273.71 C 261.06 271.54 261.01 268.00 258.60 266.55 C 255.22 264.97 251.36 265.60 247.75 265.51 M 247.75 277.01 C 247.75 280.83 247.74 284.66 247.75 288.49 C 251.12 288.40 254.62 288.92 257.90 287.92 C 261.84 286.54 262.62 280.05 258.85 278.06 C 255.40 276.40 251.43 277.14 247.75 277.01 Z" />
<path fill="#353535" opacity="1.00" d=" M 265.21 263.95 C 265.78 263.99 266.93 264.09 267.50 264.13 C 269.84 268.89 272.46 273.50 274.89 278.21 C 277.55 273.63 279.72 268.77 282.53 264.28 C 283.03 264.15 284.04 263.90 284.54 263.77 C 281.84 269.32 278.48 274.53 275.91 280.12 C 275.52 283.40 275.82 286.70 275.76 289.99 C 275.32 290.00 274.44 290.00 274.00 290.00 C 273.92 286.73 274.23 283.43 273.84 280.17 C 271.24 274.63 268.06 269.37 265.21 263.95 Z" />
</g>
<g id="#0081c6ff">
<path fill="#0081c6" opacity="1.00" d=" M 334.47 255.73 C 345.90 251.93 359.30 258.14 363.79 269.29 C 367.43 277.82 365.61 288.39 359.18 295.11 C 353.06 301.79 343.01 304.28 334.42 301.55 C 324.48 298.55 317.11 288.49 317.72 278.05 C 317.68 267.99 324.89 258.60 334.47 255.73 M 335.42 258.47 C 325.27 261.40 318.48 272.77 321.01 283.09 C 322.87 292.35 331.56 299.61 341.00 299.77 C 350.08 300.20 358.84 293.99 361.68 285.41 C 364.57 277.24 361.65 267.46 354.80 262.18 C 349.48 257.84 341.97 256.35 335.42 258.47 Z" />
<path fill="#0081c6" opacity="1.00" d=" M 411.53 265.70 C 420.80 261.01 431.70 259.06 441.91 261.42 C 446.78 262.54 451.79 265.85 452.60 271.14 C 453.83 277.16 449.57 282.78 444.29 285.19 C 444.28 284.03 444.28 282.88 444.30 281.74 C 447.72 279.36 450.84 275.16 449.33 270.80 C 447.68 265.07 441.11 263.16 435.84 262.66 C 426.50 261.63 417.55 264.93 408.94 268.01 C 409.70 267.14 410.43 266.18 411.53 265.70 Z" />
<path fill="#0081c6" opacity="1.00" d=" M 405.48 269.26 C 406.49 269.26 407.51 269.25 408.53 269.25 C 408.50 270.25 408.47 271.25 408.45 272.25 C 407.47 272.24 406.50 272.23 405.53 272.22 C 405.51 271.23 405.49 270.24 405.48 269.26 Z" />
<path fill="#0081c6" opacity="1.00" d=" M 439.51 268.77 C 440.26 268.77 441.74 268.77 442.49 268.77 C 442.47 274.21 442.57 279.65 442.42 285.08 C 440.56 284.50 439.05 283.02 439.49 280.96 C 439.47 276.89 439.52 272.83 439.51 268.77 Z" />
<path fill="#0081c6" opacity="1.00" d=" M 444.43 271.27 C 443.30 270.26 444.51 268.11 445.97 268.63 C 447.06 269.34 447.23 270.23 446.48 271.30 C 445.96 271.30 444.94 271.28 444.43 271.27 Z" />
<path fill="#0081c6" opacity="1.00" d=" M 422.26 270.46 C 423.25 270.49 424.26 270.53 425.27 270.58 C 425.26 271.25 425.25 272.57 425.25 273.24 C 426.84 273.34 427.57 274.22 427.42 275.89 C 426.87 275.95 425.76 276.06 425.21 276.11 C 425.23 278.13 425.24 280.16 425.26 282.18 C 425.76 282.22 426.77 282.29 427.27 282.32 C 427.26 283.04 427.24 284.46 427.23 285.18 C 425.49 284.85 422.91 284.96 422.34 282.80 C 422.06 278.69 422.34 274.57 422.26 270.46 Z" />
<path fill="#0081c6" opacity="1.00" d=" M 398.95 288.87 C 395.53 282.60 398.31 274.39 404.04 270.50 C 403.33 274.23 399.79 276.87 399.99 280.89 C 399.08 286.86 404.60 291.19 409.93 292.12 C 421.27 294.42 433.34 292.04 443.52 286.72 C 443.49 288.25 443.49 289.78 443.48 291.32 C 433.79 295.90 422.74 297.96 412.09 296.38 C 407.05 295.53 401.64 293.51 398.95 288.87 Z" />
<path fill="#0081c6" opacity="1.00" d=" M 333.61 276.08 C 335.26 274.77 336.91 273.45 338.56 272.14 C 339.17 272.54 340.38 273.34 340.99 273.74 C 339.16 275.19 337.30 276.62 335.74 278.36 C 337.97 277.49 339.69 275.78 341.66 274.47 C 342.23 274.87 343.39 275.68 343.97 276.08 C 342.13 277.50 340.16 278.85 338.85 280.81 C 340.85 279.62 342.71 278.22 344.51 276.76 C 344.50 275.89 344.48 274.14 344.47 273.26 C 345.41 273.26 347.30 273.26 348.25 273.25 C 348.25 275.65 348.25 278.06 348.25 280.46 C 349.12 280.47 350.86 280.48 351.73 280.48 C 351.74 281.29 351.76 282.91 351.76 283.72 C 349.33 283.74 346.90 283.75 344.47 283.74 C 344.48 282.89 344.48 281.18 344.49 280.33 C 342.55 281.84 340.61 283.35 338.69 284.88 C 336.99 283.56 335.31 282.24 333.62 280.93 C 331.35 284.21 327.25 283.86 323.75 283.76 C 323.75 280.26 323.75 276.75 323.75 273.25 C 327.25 273.16 331.45 272.62 333.61 276.08 M 327.58 276.13 C 327.56 277.72 327.57 279.31 327.61 280.90 C 328.64 280.25 330.54 279.92 330.26 278.33 C 330.28 276.90 328.52 276.75 327.58 276.13 Z" />
<path fill="#0081c6" opacity="1.00" d=" M 410.76 273.54 C 413.79 273.87 417.79 272.29 419.97 275.11 C 420.56 278.36 420.15 281.69 420.24 284.98 C 419.49 284.99 417.99 285.00 417.25 285.00 C 417.28 282.02 417.27 279.04 417.10 276.07 C 416.32 276.04 414.77 275.99 413.99 275.97 C 413.99 278.98 413.98 281.99 413.99 285.00 C 413.18 285.00 411.56 284.99 410.75 284.98 C 410.75 281.17 410.74 277.35 410.76 273.54 Z" />
<path fill="#0081c6" opacity="1.00" d=" M 429.80 284.18 C 426.04 281.08 427.54 273.20 433.00 273.20 C 436.74 273.10 438.45 277.01 438.13 280.25 C 435.62 280.24 433.13 280.23 430.63 280.31 C 431.52 282.87 434.01 282.66 436.06 281.73 C 436.56 282.11 437.55 282.86 438.04 283.24 C 435.74 285.09 432.44 285.71 429.80 284.18 M 430.61 277.98 C 432.19 277.99 433.77 277.98 435.36 277.95 C 434.48 275.36 431.49 275.44 430.61 277.98 Z" />
<path fill="#0081c6" opacity="1.00" d=" M 352.48 273.26 C 353.49 273.26 355.51 273.26 356.52 273.26 C 356.52 275.66 356.53 278.07 356.52 280.48 C 357.68 280.47 358.84 280.47 360.01 280.47 C 360.00 281.29 360.00 282.93 359.99 283.75 C 357.50 283.74 355.02 283.75 352.53 283.80 C 352.45 280.28 352.45 276.77 352.48 273.26 Z" />
<path fill="#0081c6" opacity="1.00" d=" M 405.51 273.50 C 406.26 273.50 407.75 273.50 408.49 273.50 C 408.48 277.44 408.54 281.38 408.44 285.32 C 407.18 284.62 405.20 283.92 405.53 282.07 C 405.41 279.21 405.52 276.36 405.51 273.50 Z" />
</g>
</svg>
