<svg id="Layer_1" xmlns="http://www.w3.org/2000/svg" viewBox="0 0 346 117"><style>.st0{fill-rule:evenodd;clip-rule:evenodd;fill:#AEC90B;stroke:#000000;stroke-miterlimit:10;} .st1{fill-rule:evenodd;clip-rule:evenodd;fill:#1D1D1B;} .st2{fill-rule:evenodd;clip-rule:evenodd;fill:#FFFFFF;} .st3{fill-rule:evenodd;clip-rule:evenodd;}</style><path class="st0" d="M46.5 106.5v-.9l-.2-1-.1-.9-.2-.9-.2-.8-.4-.9-.4-.8-.4-.8-.5-.7-.6-.7-.1-.2-.1-.3v-.2l.1-.3.3-.6.4-.6.3-.5.2-.5v-.5l-.4-1.1-.2-1.1-.2-1.2-.1-1.2.2-1.7.2-1.8.1-.6v-.5l-.1-.5v-.5l-.1-.6-.2-.5-.2-.4-.4-1.1-.1-.5-.1-.7v-1.5l.1-.8.1-.7.1-1.5v-.7l-.1-.5-.2-.5-.2-.4-.3-.4-.6-.9-.4-.9-.2-.4v-.5l.1-.5.9-1.7.6-1.3.6-1.3.5-1.4.2-.9.3-.9.1-.9.1-1 .1-.8.2-.9.2-.8.3-.8.3-.5.2-.6v-1.3l-.2-.8-.2-.8-.3-.9-.3-.7-.4-.8-.2-.7-.2-.8-.1-.7-.1-.8v-.8l.1-.8v-.8l.3-.9.1-.9.2-1.9v-.6l-.1-.5v-.5l-.2-.5-.2-.5-.2-.5-.6-.9-.2-.2v-.2l-.1-.2-.1-.2.1-.5.1-.5.4-1.7.1-.5v-.4l-.1-.3-.1-.4-.3-.7-.1-.8-.1-.8.1-.8.1-.7.1-.8.2-1.2v-1.5l-.1-.2-.2-.4-.5-.6-.5-.4-.5-.6-.4-.5v-.2l-.1-.2-.1-.3V22l.2-.3.2-.4.4-.4.3-.5.1-.6v-.5l-.1-1.3-.3-1.2-.1-.7v-.6l-.1-.4-.1-.3-.6-.7-.6-.5-1.8-1.3-.8.4h-.3l-.3.1H37l-.3-.1-.3-.1-.2-.1-.2-.2-.2-.3-.8-.2h-.8l-.2-.2-.2-.1-.1-.2-.1-.3v-.3l-.3-.6.4-.4.5-.4.5-.4.6-.1.4-.3.3-.4.2-.4.1-.4.2-.2h.3l.3-.1h.3l.5.3.5.2h.5l.6-.2.6-.5.7-.4.7-.3.7-.3 3.3-.6 1.6-.6 1-.8.4-.2h.5l1.7 1.1 1.6 1.1 1.8 1 1.8.8.3.2.2.3.1.5v.5l.1.7.1.3.2.2.5.2h.4l1.1.1.3.2.3.3-.1.4-.1.4-.7.2-.8.1-.9.7-.8.7-.2.3-.1.3-.1.3-.1.3v.5l-.1.4-.2.4-.3.4-.9.9-.2.3-.3.4-.2.4-.2.4-.2.5-.3.6-.1.3.1.3.2.6.2.5.2.3.1.4v.3l-.1.4-.5.8-.1.3-.1.3v.4l.1.2.2.1.5.3.4.4.2.5.2.5-.1.5-.1.9-.3.9-.1.5v1.1l.1.5.4 1.3.4 1.3.2 1.3.3 1.3v.2l-.1.3-.1.2-.2.2-.7.7-.5.4-.1.3V40l-.1.9-.1 1-.3.9-.2.9v.9l-.1 1 .1.9.3.9.3.8.8 2.4.8 2.4.1.3v1.1l-.1.4-.3.7-.2.3-.9 1.3-1 1.1-.2.3-.1.4-.2.4v.4l-.2.9-.1.8-.6 1.4-.7 1.4-.5.9-.3 1-.2 1-.2 1 .1.6.1.7.1.7.1.7v.8l-.1.7v1.6l.1.9.1.8.3 1.1.1 1.1.1 1.1L50 80l-.6.9-.5 1 .3 1.4v1.4l-.1 1.5-.3 1.4v2.1l.2.7.2.7.2.7.4.7.4.6.2.5.2.5v.6l-.1.5-.1.5-.1.5-.2.7-.2.7-.1.7v.7l-.1.9-.1.5-.3.6v.5l.2 1.1v.6l-.1.2-.1.1-.3.2-.3 1v1.2l.1.6v.5l-.1.7-.1.6-.2.5-.2.6-.3.5-.3.5-1.3 2.5-.4.4-.4.3-.2-.3-.2-.3v-.9l.1-.5.2-.4.2-.6.2-.5.2-1.1.2-1.2.3-1.3zM27.7 95.8v1l.2.9.1.5.1.4.1.6v.4l.3 1.4.3.3.1.5.5.4.2.7-.5.9-.3.7.1.9.1.7-.8-.7-.4-1.3v-.8l.1-.8-.2-.8-.4-.9-.4-.5-.5-1.1-.5-1.6-.3-1.6-.3-1.6-.1-1.7-.2-1.5-.3-1.5-.3-1.6-.5-1.5-.6-1.3-.5-1.4-.1-.6v-.6l.1-.6.3-.5.1-.4v-.4l-.1-.4-.3-.4-.3-.6-.3-.6-.1-.3-.1-.3V78l.1-.3.3-1.1.1-.5-.1-.5-.2-.3-.4-.3-.9-.8-.3-.4-.1-.4.1-.8.3-.9.4-.8.5-.8.4-.6.3-.6.3-.6.3-.7.1-.7.1-.7v-1.4l-.3-1.6-.2-2.5-.1-.6-.2-.6-.2-.5-.5-.5-.1-.3-.2-.3.1-.4.1-.4.4-1.2.1-.3v-.9l-.2-.5v-2.6l-.1-1-.9-3.1-.9-3-.2-1-.4-.8-.7-1.1-.7-1.1-.2-.4-.2-.4-.1-.4-.1-.5.1-1.1 1.2-5.8.4-1 .4-1 .2-.6v-.7l-.3-1.2v-.8l.1-.4.2-.4.1-.4v-.5l-.2-.8-.2-.8-.3-.8-.1-.3-.1-.3-.4-.4-1-.6-.4-.3-.2-.3-.1-.2-.1-.2v-.2l.1-.2.3-.9.1-.5-.1-.4-.3-.9-.3-.5-.4-.5-.5-.3-.5-.3-1.6-.4-1.3-.2-1.4-.3-1.4-.3-1.3-.5-.2-.1H7l-.7.2H5.2l-.1-.2-.1-.3.3-.4.4-.5.3-.2.2-.1.3-.1h.3l.6.1.5-.1 1.3-.4.6-.2.6-.3.7-.4.8-.2.7-.2.8-.1 3.2-.2.8-.1.8-.2.7-.4.6-.4.4-.1h.4l.4-.4.4-.4.5-.4.5-.3h.2l.3.1.5.7.7.5.8.4.7.3h4.6l.3.2.2.3.3.5.4 1.3.3.9.1.1v.1l-.1.2-.1.1-.1.2.1.2.6.9.1.3.1.3-.3.3-.3.3-.1.3-.1.4v.6l.1.6v1.3l-.2.3-.4.3-.4.3-.9.5-.8.6-.3.3-.3.3-.3.7-.1 1.3v2.3l.1 1.2.2.8.9.2.5.3-.2.9-.2.7-.4.8-.4.7-.5.9-.5 1-.1.6-.1.7v.7l.2.7.3 1.3.1 1.4v1l-.1.6.1.5.1.6.3.5.5 1.1.4 1.1.2.6.1.5.1.5.1.4.2.4.3.4L31 48l.3.5.1.5.1.2v.3l-.1.3-.1.2-.5.9-.5.9-.4.9-.4.9-.1.5-.2.4v1l.2.9.1.5.2.4.2.3-.1.4-.1.5-.3.5-.4.8-.1.3.1.4.1.3.3.2.3.2.3.4.2.3.2.3.1.4.1.4v.4l-.1.4-.3 1.5-.5 1.4-1.2 4.7-.6 1.8-.2.7-.1.6v1.4l.1.6.1.7.2.7.2.6.2.6.1.7.1.6.1.7v.7l-.1.7-.2 1.3-.3 1.8-.2 1.8v1.8L28 91v2.4l-.1 1.2-.2 1.2z"/><path class="st0" d="M67.9 8.7l.8-.5.7-.3.7-.2.6-.4 1-.7.3.5.5.4.5.3.6.2 1.2.2 1.1.2.3.1.2.1.2.2.2.2.6 1 .3.4.3.2.2.2.3.1.3.2-.1.3-.1.4-.3.5v.3l.1.3.4.3.5.2.3.2.3.3.1.2.1.2.1.2v.3l-.1.8-.1.7-.1.5-.1.5.3.3.2.2.3.4.3.3-1.1 1.9-.2.4-.1.5-.1.4v.8l-.1.4-.1.3-.2.3-1 1-.2.4-.2.4-.6 2.2-.6 2.2-.3.9-.8 1.4-.2.5-.2.5-.1.5v.8l.1 1.1v2.2l-.2 1.1v.9l.2.3.3.3.6.5.2.2.1.3-.3 2-.2 1-.3 1-.3.9-.1.9v1.3l.2.6.3.6 1.5 2.2.4.7.2.8.2.8.1.7.1.8v.8l-.2.8-.1.7-.1.9-.3.9-.2.6-.3.7-.4.5-.7 1.1-.4.5-.1.6-.1.7.1.6.2.6 1 2.6.1.6.1.5v.6l-.1.5-.5.9-.5.8-.5.7-.3.8-.1.3v.3l.1.3.1.3.8 2.1.1.5.1.5v.5l-.1.5-.2.7-.2.6-.2.7-.1.7-.1.7v1.4l.1.7.8 2.6-.2.6-.3.6-.3.6-.4.5-.4 1.4-.8 1.3-.8 1.3-.6 1.4-.6 1.4v1.2l.2.6.3.5-.4.5-.3.6-.4.4-.4.4V99l-.1-1.1-.2-1.2-.3-1.2v-.3l-.1-.3.1-.4v-1.8l.4-2 .1-.3v-.9l-.1-.6-.1-.5-.2-.5-.5-.9-.4-1-.1-.5v-1l.2-.4.7-1.3.7-1.4.2-.3v-.4l.1-.4v-.4l-.1-.8-.5-1.4-.1-.7v-.6l.1-.6.1-.6.3-.6.5-.9.3-1 .2-.9v-1.7l-.1-.8-.1-.9v-1.6l.1-.9.3-1.5.1-1.5.1-1.5-.2-1.5-.1-1.2-.3-1-.4-1.1-.4-1-.2-.5-.1-.4-.1-.5-.1-.5v-1l.1-.4.1-.5.7-2.2.1-.4v-.5l-.1-.4-.2-.5-.7-1.4-.8-1.5-.5-.7-.3-.9-.2-.8-.2-.9.1-.7.1-.7.1-.6.1-.8.2-.6.1-.8V36l-.1-.2-.2-.2-.6-.7-.2-.2-.2-.3v-.3l.1-.2.5-.6 1.5-1.7.2-.4.2-.4v-.2l-.1-.2-.1-.2-.3-.4-.2-.5v-.7l.1-.4.1-.5.2-.3.1-.5v-.4l-.3-1.1v-.8l.2-.9.1-.9V21l-.1-.7-.2-.7-.3-.7-.4-.5-.7-.5-.7-.3-.7-.2-.8-.1h-2.7l-.6-.1-.7-.2-.6-.2-.5-.4-.3-.2-.2-.1-.7-.1h-1.9l-.2-.1-.2-.2.1-.5.2-.4.3-.4.3-.3.3-.3.4-.2.4-.2.4-.2h.4l1.4-.3 1.3-.4 1.3-.4 1.2-.5.5-.3.4-.2.8-.7.3-.4.3-.4.2-.5.2-.4z"/><path class="st1" d="M134.7 82.2v2.2h5v8h-21.1V74.2h21.1v8h-5zm95.7 6.1v4.1l-9.4-.2-.1-18h18.4l.6.2.7.4.7.6.7.6.4.7.4.7v7.7l-1 .9 6.2 5-.6 1.5-12.2-.1-4.8-4.1zm48.6-5.9l.1 5.5-.1.2-.1.9-.4.8-.4.7-.6.6-.4.4-.5.3-.6.3-.6.1-.3.2h-15.9l-.8-.3-.8-.3-.7-.5-.1-.1-.1-.1-.6-.8-.3-.5-.2-.5-.1-.4.1-11.1.3-.6.5-.8.7-.8.8-.6.8-.5.6-.3h16l.7.4.9.6.7.8.6.8.5 1v.2l.3.9v3.5zm12.5-8.2h5.8l3.6 3.5 3.7-3.5h10.5l.4.9-10.2 10-.1 7.4-9.4-.1v-7.3l-10.4-10 .4-.9h5.7zm-87.3 8v2.2h5v8h-21.1l-.1-2.9V74.2h21.1l.1 8h-5z"/><path class="st2" d="M121.5 89.5l-.1-12.5h15.4v2.3h-11.6l-.1 2.6h6.8l-.1 2.3h-6.7v3.1h11.7v2.2h-15.3zM223.7 77h15l.4.2.3.3.3.3.3.3v5.7l-.9.7-1 .3-1.1.3-1-.1 5.7 4.6-5.4-.1-5.5-4.5h-3.3v4.5h-3.7l-.1-12.5z"/><path class="st3" d="M227.5 79.3h8.4l.6.8v.3l.1.4v.8l-.3.5-.4.5-8.4.1v-3.4z"/><path class="st2" d="M260 77h14.5l.4.4.5.4.4.5.2.5.1.6.1.6-3.8.8v-1.5h-10.8v8h10.9v-2.7h-5.9v-2.3h9.6l.1 5.4-.2.4-.1.3-.2.4-.2.2-.5.3-.5.3h-14.9l-.7-.3-.2-.2-.3-.3-.1-.4.1-9.9.2-.5.8-.7.5-.3zm31.5 0h4.6l4.8 4.7 4.8-4.7h3.7l-7 6.9-.1 5.7h-3.6v-5.7l-7.2-6.9zM190.9 89.5V77h15.5v2.3h-11.7l-.1 2.6h6.8l-.1 2.3h-6.7l.1 3.1h11.7v2.2h-15.5z"/><path class="st3" d="M233.6 41.1l-.6.3-.7.2 3.2 2.4.4.4.3.5.3.8.2.8v.9l-.1.8-.1.4-1.4 3.1-1.4 2.9-1.6 3-1.6 2.8-.2.1-1.5 2.2-1.6 2-.2.2-1.5 1.3-1.4 1.1-1.6 1.1-1.7.9-.5.2-1.7.3-1.7.1-1.7-.2-1.7-.3-.6-.2-.6-.4-.4-.6-.3-.5-.2-.4-2.6-2.4-2.7-2.3-.5-.5-.3-.6-.2-.7v-.7l.1-.8.3-.8.5-.7.6-.6.7-.4.7-.4.9-.2h.8l.8.1.4.2.4.2 2.4 1.8 2.6 1.7h.6l.4-.1 1.3-1.3 1-1.5.9-2 .9-2.1.7-2.2.7-2.2-2.8-.1-2.7.1-.1.1-.3.4-.4.3-.4.3-.5.1-.6.2-.7.1h-.7l-.6-.1-.5-.2-.5-.2-.4-.3-.3-.4-2.9-4.1-2.7-4.1-.3-.5-.2-.6v-.6l.1-.6.4-.9.5-.8.4-.4.4-.4 1.2-.7 1.1-.7.5-.3.5-.1 1.2-.3 1.3.1h1.1l3.7-.8 3.7-.9 1.6-.6.8-.2.8-.1h.8l.8.1.4.1.5.2 2.9 1.6 3 1.3.5.3.5.4.3.4.3.5.1.3.5-.9.7-.9.7-.8.9-.6.6-.4.7-.4.6-.2.7-.1.6.1.7.1.7.3 21.9-.2h.1l.9-.3 1-.1.5.1.7.1.5.3.6.3.5.4.4.5.8 1.4.6 1.5.3 1.6.2 1.6v.6l-.2.6-.3.6-.4.4-.4.3-.4.3-.5.3-.5.1-.5.1-.5.1-1.1-.1-.5-.2-.6-.4-.4-.4-.8-1.1-.4-.4-.5-.4-.6-.2-5.3.1v21.5l-.2.5-.3.6-.4.4-.5.4-.6.4-.7.2h-1.3l-.6-.1-.7-.3-.5-.4-2.5-1.6-2.3-1.9-.5-.5-.4-.7-.2-.8v-1.7l.3-.8.2-.5.3-.5.4-.4.1-3.5.1-3.4v-3.5l-.1-3.5h-4l-.7.6-1.3 1.2-.5.7-.5.5-.5.4-.6.2-.6.1h-.9l-.8-.2-.8-.4-.8-.4-.4-.4-.3-.5-.2-.4-.2-.6z"/><path class="st2" d="M241.1 35.7l23.2-.1.6-.2.5-.2h.6l.4.1.3.2.5 1.1.5 1.2.3 1.2.2 1.2-.3.2-.3.2h-.7l-.4-.6-.4-.5-.5-.5-.5-.4-.5-.4-.6-.3-.6-.3-.7-.1h-8.4l-.1 12 .1 11.9-.4.1-.3.1-.3-.1-.3-.2-2.4-1.5-2.2-1.8-.2-.4v-.3l.2-.8 1-1.1.2-4.4.1-4.6-.1-4.4-.3-4.5-7.5-.1-1.2.8-.9.9-1 1-.8 1h-.8l-.6-.3V40l.2-.7.2-.6.3-.7.3-.6.4-.6.5-.5.6-.5.9-.5h.6l.3.2.3.2zm-23.2 3.1l-1.7-.1-1.7.1v.5l.1.6 2.3 3.5h10.8l1.1-.5h.7l.8.7 3.4 2.6.1.4.1.3v.3l-.1.3-1.2 3-1.5 2.8-1.4 2.9-1.7 2.7-1.5 2-1.5 2-1.3 1.1-1.3 1-1.4.9-1.4.8-1.3.3h-2.8l-1.3-.3-.2-1-3-2.7-3.1-2.6.1-.3.1-.2.2-.3.2-.2.5-.3.6-.1 2.7 1.9 2.8 1.9.9.2 1 .1 1-.2.9-.3.9-.9.8-.9.8-1 .7-1.1.7-1.4.6-1.5 1.2-3 .4-1.5.4-1.5.6-3.1-.3-.4-.5-.3-4.5-.1-4.5.1-.7.6-.6.7-.7.1h-.6l-2.8-4-2.7-4 .1-.4.3-.4 1.3-.7 1.2-.9.7-.1h.7l1 .1.9-.1 3.9-.8 3.9-1 1.8-.6.8-.2.8.1 1.6.8 1.6.8 3.1 1.5.3.6.1.6-3.5.2h-7.2l-3.6-.1z"/><path class="st3" d="M127.6 60.6l.2.2.3.5.3.4.1.5.1.6.1.5-.1.5v.5l-.2.5-.1.5-.2.4-.3.4-.3.3-.4.3-.3.2-1.1.5-1 .7-.9.7-.9.7-.4.4-.5.2-1 .3h-.9l-1-.2-.9-.5-.5-.4-.4-.6-.3-.6-.1-.8v-22l-2.6 3.5-2.6 3.6.5.5.3.7.1.7v.7l-.3.7-.3.7-.4.6-.5.6-.5.3-.6.2-.5.1h-.6l-.2.1-.6.4-.8.5-.5.1-.5.1-.5.1-1-.2-.5-.3-.4-.3-.3-.4-6.7-9.1v11.9l-.1.7-.2.6-.3.5-.4.4-.3.3-.4.2-.4.3-.5.1-.5.1h-1.1l-1-.4-.9-.6-.4-.5-.4-.7-.3-.6-.3-.5-.4-.4-.4-.4-.3-.3-.2-.4-.4-.8-.3-.8V57l.2-.8.4-1 .4-.9.2-.3.1-.4.1-3.3.1-3.4v-3.4l-.1-3.4-1-1.7-.2-.6-.1-.6v-.6l.2-.6.2-.5.4-.4.5-.4.6-.3.8-.4 1.6-.9.8-.6.4-.3.5-.3.5-.1h.6l.5.1.5.2.5.2.4.3 1.6 1.8 1.6 1.8 1.5 2 1.3 1.9 4.4 6 2.2-3 2.3-3 2.5-2.8 2.7-2.7v-.5l.2-.5.1-.5.4-.4.3-.4.4-.3.5-.2.5-.1.5-.1 1.4.1 1.4.3.7.3 1.4 1.2.9.6 1 .5 1 .5.5.2.5.4.4.4.3.6.2.6.1.6v1.3l-.2.7-.4.6-.6.6-.7.3.2 19.2zm18.6-27.3l.1-1.6-.5-.6-.3-.7-.1-.5-.1-.6v-.6l.1-.6.1-.5.2-.4.3-.4.3-.4.4-.3.4-.2.5-.1.5-.1.9-.1.9-.2.7-.3.6-.2h.7l.7.1.4.1.5.2.3.4.4.3.2.4.2.4.1.5.1.5v6.1h3l.9-.1.9-.1 1.8-.1h1l.8.2.5.2 1 .9.6.5.8.4.8.4.4.3.3.2.4.3.2.4.3.8.3.8v1.6l-.2 1-.6.7-.1.2-.1.6-.4 1.3-.2 1.3v1.9l-.1 1.9v.2l-.2.8-.2.7-.1.7v.9l-.1.7-.2.7-.2.6-.3.6-.4.6-.5.5-.5.4-.5.4-5.2 3-.2.1-2.2 1.1-2.1 1.2v2.1l.4.8.1.3.2.7.1.7-.1.7-.2.7-.2.7-.5.6-.5.6-.5.4-.6.4-1.3.2-1.3.1-1.3-.1-1.2-.3-.8-.5-.7-.6-.5-.7-.3-.8-.1-.9.1-.8.3-.9.5-.7.1-1.9-1.6-.8-1.4-.8-1.5-.9-1.3-1-1.1-.9-.9-1-1-1-.8-1-.8-1.2-.8-1.2-.7-1.1-.5-1.3-.6-1.3-.4-1.2-.4-1.3-.3-1.4-.2-1.4-.2-1.3v-2.8l-.2-.3-.3-.7-.2-.7.1-.7.2-.7.5-.9.8-.7.4-.4.6-.2.8-.3.7-.4.8-.5.7-.5.3-.3.3-.2.9-.2h1.6l.8.1.7.3h5.3z"/><path class="st2" d="M148.9 36.2l.4-5.6-1-1-.1-.5.1-.6 1.4-.1 1.6-.4.3-.2h.3v4.5l.1 4.5h2.2l2.2-.1 1.4.1 2.9-.3h1.4l.8.7.9.6.9.5 1 .5.1.3.2.4v.8l-.4.4-.3.5-.1.5-.2.5-.4 1.7-.2 1.7v1.9l-.2 1.8-.1.6-.2.6-.1 1v1.1l-.1.7-.3.6-.5.5-.5.5-5.1 2.9-3 1.5-3 1.7v2.3l.1 2.3.6 1.2.1.5-.1.6-.2.4-.4.3-.8.2-.7.1-.8-.1-.8-.2-.2-.2-.2-.2-.1-.2v-.3l.1-.3.2-.2.2-.1.3-.1.2-2.8v-2.8l-1.9-.7-1.7-.8-1.7-1-1.6-1.1-1.9-1.7-.8-1-.8-1-.8-1.1-.7-1-.5-1.2-.6-1.1-.4-1.2-.4-1.2-.3-1.2-.2-1.3-.3-2.5V41l.1-1.3-.7-.9.2-.5.4-.3 1.1-.4 1-.6 1-.5.8-.8h.6l.5.1.6.1.5.2 8.6.1z"/><path class="st3" d="M301.6 58.3l-.4 1.2-.5 1.1-.6 1-1.4 1.8-1.1.1-1 .1-.9-.1-1.6-.3-2.6.1-5.3-.1-2.7-.2-.2 1.1h-4.1l-.6-.5-1.2-.8-2.5-1.4-1.3-.6-.9-.4-.4-.9-.2-.9-.1-.9.2-.9.4-.9.6-.6.1-13.9-1.6.2v-2.8l.1-1.3.2-2.3 2.3-.1.7-.1.8-.2.6-.3.6-.5.7-.5.7-.6.6-.7.9-.2 1.2-.1 1.2.1 2.2.4-.1 1.2 8.3-.2.9-.2.9-.1h.9l.7.6.8.8.7.9.6.9.6 1 .4 1 .4 1 .2 1.1.2 1.1.2 1.4-1.1.9-.7.5-.7.4-.9.2-.9.1-1.3-.2-.7.9-.3.9-.2 1-.1 1-.1 1-.1 2.4-2.4.2h-.9l-.9-.1-1.6-.3-.4-1.7-3.6-.2.2 6.4 2.5.3 2.6.1h2.5l2.6-.2.7-.3.5-.5.4-.6.2-.8.2-2.2h5.7l.4 2.4.6-.3.1-12.5-1.8-.5-.1-2.1.1-1 .2-.9.4-1.1 1.1-.4 1.6-.7 1.6-.8 1.5-.8 1.5-.9 1.2-.2h1.3l2.1.3.1 1 1.2-.2 7.3-.2 1.6-.3h2.1l.9.4.6.4.5.5.7.6.6.7.6.8.4.9.1.5v1.1l-.2 1.1-.2.5-.2.5-.3.1-.4.3-.2.4-.1.4v.5l.2.8-.4.8-.2.4-.2.4-.3.3-.4.3-.4.3-.6.1-.9.2-.8.4 1 1.9 1.1 1.9 1.2 1.8 1.4 1.7 1.4 1.7 1.5 1.6 1.6 1.5 1.7 1.3.4.3.6.3 4.7 2-.3 2.2-5.1.7-.8.2-.8.4-.7.5-.6.6-.5.6-.8.3-1 .1-.9-.1-.9-.3-.9-.4-1.1-1.1-1.1-1.2-1.5-1.8-1.3-1.9-1.2-2-1-2.1-1.1-2-1.2-1.9-1.2-1.9-1.4-1.9-.2-.3-.3-.3-.7-.4-.6.1-.5.1-.5.2-.4.3L312 64l-2.5.1-1.4-.1-1.4-.1-.7-1.2-.6-.9-.7-.8-.8-.6-.9-.4-.6-.4-.4-.6-.4-.7zm-8.9-16.1l-.9-1.1-.7-.9-3.9-.1-3.8.1-.1 3.1 4.5-.1.4-1 1.5-.2h2.1l.9.2zm21.7-.6l1.4-.5 1.5-.4 1.5-.3 1.5-.3.7-.7-.9.1-.9.1-.9.8h-1.1l-.9-.1-.8-.3-.7.4-.6.4-.6.5-.6.5 1.4-.2zM201.1 55.5l.6.8.5.9.6 1.5-1 1.2-1.4 1.5-1.1 1.5-.6.7-.9.2-.7.2-.8.1-2.7.2V57l-14.5-11.6v17.3l-1.1.8-.7.2-.6.3-.6.1-.7-.1-.9-.4-1-.7-.8-.9-.8-1-.6-1.1-.2-.6-.2-.6-.1-1.2v-.7l.2-1.2.2-.6V39.4l-1.5-1.3.9-1.8.5-1.1.6-1 1.2-.3.6-.1.6-.3.6-.3.5-.4 1.6-1.6 16.6 13.6V30.1l-2.3-2 2.2-2 .9-.5 1-.5 1.5-.6 1.1 1.1 1.7 1.4 1.8 1.4 1.7 1.2-.8 1.9-.4.7-.5.7-.2 22.6z"/><path class="st2" d="M313.8 45.9l-.6.1-.6.2-.6.2-.6.3-.5.4-.5.4-.4.4-.4.5-.1 13.1h-1.2l-.7-1.2-.9-1-1.1-.9-1.2-.6-.3-.4-.1-.4.1-.5.1-.4.4-.3.3-.4.1-.4.2-.4V42l.1-1.6-.1-1.6-1.9-.2.1-.4.1-.5 1.6-.6 1.5-.8 1.5-.8 1.4-.9.7-.1h.6v.6l-.1.6-1.2.6.1 1.2.2 1.2 1.1-1.1.6-.5 1.2-.9.6-.3.7-.2.7-.2 4.3-.2 4.4-.1 1.6-.3.3.3.2.4.6.4.5.4.4.5.3.6.1.4v.4l-.1.4-.2.3-.4.4-.6.9-.2.5-.1.5-.1.5-.1.6.1.5-.2.2-.2.2-.2.1-.2.1-1.1.2-1.1.4-1.1.5-.9.6-1.1.1v-.2l-.1-.2-.1-.1-.2-.1h-.9l-.9.1-.1.3-.1.2.1.3.1.2.6.2h.6l1 .3 1 .4.8.6.7.8 1.1 2 1.2 2 1.3 1.9 1.4 1.8 1.5 1.8 1.6 1.7 1.7 1.5 1.8 1.5.7.5.8.4-.7.1-.7.2-1.2.5-.6.4-.6.4-.5.5-.4.5-.4.1-.7-.1-.3-.2-.9-.9-.9-1-1.4-1.7-1.2-1.8-1.1-1.9-.9-2-1.2-2-1.2-2-1.3-1.9-1.4-1.9-.4-.6-.5-.5-.6-.4-.6-.3-.4-.3-.4-.2-.5-.1-.4-.2zm1.4-1.9l2.6-.8 1.4-.3 1.4-.2.5-.2.5-.2.4-.3.4-.4.7-.8.3-.4.2-.4.1-.5.3-.5-.1-.5-.1-.5-.2-.5-.3-.4-1.2-.2-1.2-.1h-1.2l-1.2.2-.7.4-.6.4-.6-.2-.6-.3-1.5.6-1.4.8-1.2 1-.6.5-.5.6-.1.6-.1.7-.2.9-.1.9v.9l.1.9 2.4-.9 2.4-.8zm-39.4-5.1l-.9-.2h-.8l.1-1.1 1.2-.1 1.3-.3.9-.5.8-.6.5-.3.6-.4.4-.4.5-.5h1.4l-.1.5v.5l.3.4.3.3 10.9-.2.6-.2h.6l.6.6.5.6.5.7.4.7.4.8.3.8.2.8.1.9-.3.2-.4.2-.4.2h-.5l-.4-.5-.3-.6-.6-.9-.8-.8-.8-1-1-.8-4.6-.2-4.6.1-.7.3-.5.4-.5.5-.2.7-.1 6.4 8.2-.1.3-.2.3-.3.4-.6.8-.1.8.1-.3 1.2-.3 1.1-.2 1.2-.1 1.3h-.6l-.5-.1-.5-2.1-3.7-.2-3.6.1-.7.5-.2.4-.1.4V57l.5.5.5.5.6.4.7.3 2.8.3 2.9.1h2.8l2.9-.3.7-.3.7-.3.6-.5.5-.6.5-.6.3-.7.3-.7.2-.7h1.2v1.7l-.1.9-.2.8-.3.8-.4.8-.4.7-.6.7-.8-.1-.8-.1-3.5.1h-3.4l-3.5-.1-3.5-.4-.2.3-.3.3-.1.3v.3H280l-1.3-.8-1.3-.8-2.8-1.4-.1-.3v-.3l.1-.3v-.2l.4-.4.4-.4.2-.5.2-.5V38.9zm-77.3 17.9l.4.2.4.3.3.5.2.4-1.3 1.6-1.3 1.6-1.1.1v-5.7L176.6 40l-.4 21.4-.8-.5-.7-.6-.5-.6-.5-.9-.3-.6-.1-.7.1-1 .4-.9-.1-17.5-.8-.7.5-.9 1-.3.9-.4.9-.5.8-.7 19 15.6V29.3l-.5-.6-.5-.6.5-.3.6-.4 1.8 1.6 1.9 1.4-.4.7-.4.3-.4.3-.1 25.1z"/><path class="st1" d="M154.3 74.2h3.8l7.9 5.3v-5.3h9v18.2h-6.6l-7.9-5.4v5.4h-9l-.1-18.2h2.9z"/><path class="st2" d="M124.8 61.5l.9 1.2.1.4v.4l-.1.5-.1.3-1.3.7-1.1.7-1.2.8-1 .9-.3.1h-.7l-.2-.2V37.5l-3.2 3.6-2.9 3.7-2.9 3.9-2.7 4 .3.5.4.4.4.5.5.4-.1.5-.4.4h-.6l-.7.1-.6.3-.6.4-.8.4L94 40.5v20.6l-.2.3-.4.1-.4-.2-.3-.2-.4-.9-.5-.8-.6-.7-.7-.7-.2-.5v-.3l.1-.2.2-.6.3-.7.3-.4.1-.5.2-.5v-.4l.2-3.7V43l-.1-3.7-1.2-2.3 1.1-.4 1-.6 1-.6 1-.8 1.5 1.8 1.5 1.7 1.4 1.8 1.3 1.9 6.9 9.4 1.3-2.1 1.3-2 1.4-1.9 1.5-2 1.5-1.8 1.6-1.8 3.4-3.5.2-.8.2-.8h1l1.1.2 1.1 1 1.1.8 1.2.7 1.3.5.1.5v.5l-1.8.7.2 22.1z"/><path class="st1" d="M151.5 37.8h2l2.1.2 1.9.5 1.9.6.4 1.3.3 1.4.1.6v2L160 47l-.1 2.7v.8l-.1.8-.3.8-.4.7-.4.7-.5.7-.6.6-.6.5-1.8 1.2-.9.5-.9.4-1.1.4-1.1.1V47.8l.3-10zm-3.2-.3l-.2 19.6-1.5-1.2-1.3-1.3-1.3-1.5-1.1-1.6-1-1.6-.8-1.7-.7-1.8-.5-1.8-.3-1.2-.2-1.1v-1.2l.1-1.2.3-.5.5-.5.5-.2.6-.2.5.3.5.3.5.1.6.1.9-.8.9-1h3z"/><path class="st2" d="M154.3 77h2.9l11.7 8-.1-8h3.4v12.5h-2.9l-11.7-7.9v7.9h-3.3V77z"/></svg>