<svg xmlns="http://www.w3.org/2000/svg" width="504.73" height="137.89" viewBox="0 0 378.55 103.42"><defs><clipPath id="a"><path d="M11 .02h52V40H11z"/></clipPath><clipPath id="b"><path d="M114 .02h33V29h-33z"/></clipPath><clipPath id="c"><path d="M141 .02h40V29h-40z"/></clipPath><clipPath id="d"><path d="M183 .02h33V29h-33z"/></clipPath><clipPath id="e"><path d="M220 .02h7V29h-7z"/></clipPath><clipPath id="f"><path d="M229 .02h38V29h-38z"/></clipPath><clipPath id="g"><path d="M270 .02h29V29h-29z"/></clipPath><clipPath id="h"><path d="M303 .02h36V29h-36z"/></clipPath><clipPath id="i"><path d="M338 .02h40.55V29H338z"/></clipPath><clipPath id="j"><path d="M355 41h23.55v21H355z"/></clipPath><clipPath id="k"><path d="M144 87h14v16.42h-14z"/></clipPath><clipPath id="l"><path d="M155 87h13v16.42h-13z"/></clipPath><clipPath id="m"><path d="M168 91h12v12.42h-12z"/></clipPath><clipPath id="n"><path d="M187 87h15v16.42h-15z"/></clipPath><clipPath id="o"><path d="M203 91h12v12.42h-12z"/></clipPath><clipPath id="p"><path d="M214 91h12v12.42h-12z"/></clipPath><clipPath id="q"><path d="M226 87h6v16.42h-6z"/></clipPath><clipPath id="r"><path d="M231 91h12v12.42h-12z"/></clipPath><clipPath id="s"><path d="M244 91h11v12.42h-11z"/></clipPath><clipPath id="t"><path d="M256 91h11v12.42h-11z"/></clipPath><clipPath id="u"><path d="M267 91h11v12.42h-11z"/></clipPath><clipPath id="v"><path d="M285 91h12v12.42h-12z"/></clipPath><clipPath id="w"><path d="M297 86h9v17.42h-9z"/></clipPath><clipPath id="x"><path d="M310 87h6v16.42h-6z"/></clipPath><clipPath id="y"><path d="M317 87h14v16.42h-14z"/></clipPath></defs><path d="M65.98 34.1s-12.48.35-14.97.5c-2.4.17-6.4.96-9.6 2.08-3.2 1.1-8.5 2.84-8.5 2.84s-3.7 3.7-4.7 4c-1 .3-.5-2.52-.5-2.52s-1-2.3-3.8-2.4c-2.8-.07-2.8-1.9-.8-1.92 2.1 0 7.5.95 7.5.95S43 29.06 46.2 27.58c3.2-1.48 8.83-4.16 9.12-4.95.3-.8 1.08-2.82 0-3.7-1.1-.88.23-2.14 1.78-1.2 1.56.9 4.55 5.12 4.55 5.12s5.9-.43 12.5 1.05c6.6 1.5 10.8 3.92 11.7 5.45.85 1.52 3.3 1.3 3.2 2.32-.12 1.02-.93 1.35-3.6 1.08-2.64-.26-9.12-.5-9.12-.5s-3.8 3.9-7.3 4.35c-3.5.5-6-1.2-4.74-1.5 1.2-.23 1.7-1 1.7-1" fill-rule="evenodd" fill="#DEDEDE"/><g clip-path="url(#a)"><path d="M20.96 1.24c-.3-.3.06-.83.4-.9 2.43-.58 4.86-.38 7.22.36.96.3 1.97.9 2.95 1 1.76.18 6.58-.88 7.24-.97 5.35-.78 12.5-.75 17 2.76 1.7 1.3 2.63 3.1 4.4 4.3.38.2.7.5 1.13.6 1.03.4 1.13 2.1-.96 1.7-.47-.1-.93-.2-1.4-.2-3.58-.4-7.12.4-10.7.4-.7 1.2-1.76 2.4-2.9 3.3-1.02.7-6.28 3.1-6.82 1.4-.13-.4.83-.6 1.02-.8.88-.4 1.98-1.4 2.46-2.3-2.48.6-4.88 1.5-7.28 2.3-2.92 1-9.6 3.8-14.36 12.4-.54 1-1.04 2-1.55 3 .9.9 1.1 6.5.2 7.3-.8-.6-1.2-2.4-2.3-2-1.4.5-4.4 5-4.8 4-.3-.6 1.2-4.5 1.6-5.2.5-1 2-2.6 1.8-5.7-.4-5.9 1.6-10.6 4.4-15.7 1.9-3.5 8.5-8.8 1.5-11.4" fill-rule="evenodd" fill="#DEDEDE"/></g><path d="M65.14 61.43c17.86 0 22.22-3.98 22.22-3.98s-4.5 7.1-22.1 7.1c-13.94 0-29.8-14.05-43.04-14.05C5.98 50.5 0 53.7 0 53.7s5.83-5.54 22.1-5.54c13.37 0 29.22 13.27 43.04 13.27" fill="#1B619A"/><g clip-path="url(#b)"><path d="M139.83 12.77c.38-.26.7-.8.7-1.98V8.3c0-2.58-1.38-2.76-3.65-2.76h-16.1v7.85h16.4c1.3 0 2.13-.3 2.65-.7M120.8 28.8h-5.88V.4h22.73c5.97 0 8.63 1.97 8.63 8.25 0 7.2-1.56 9.9-9.3 9.9h-16.2v10.33" fill="#1B619A"/></g><g clip-path="url(#c)"><path d="M154.25 18.18h13.66l-6.8-11.55zm-6.3 10.7h-6.65L158.22.38h5.7l16.93 28.5h-6.65l-3.26-5.54H151.2l-3.25 5.54" fill="#1B619A"/></g><g clip-path="url(#d)"><path d="M189.18 5.54v7.82h15.9c2.1 0 4.5-.04 4.5-2.67V8.3c0-3.1-2.9-2.76-5.36-2.76zm23.7 10.7c1.6 1.12 2.18 2.93 2.18 4.8v7.84h-5.6v-6.9c0-3.2-1.2-3.46-4.08-3.46h-16.2v10.36h-5.8V.38h22.1c6.6 0 9.9 1.6 9.9 8.56v2.14c0 2.08-.62 4.06-2.5 5.16" fill="#1B619A"/></g><g clip-path="url(#e)"><path d="M221 28.88h5.8V.38H221z" fill="#1B619A"/></g><g clip-path="url(#f)"><path d="M251.13 28.88h-5.68L229.67.38h6.56l12.06 21.85 12-21.85h6.5L251 28.88" fill="#1B619A"/></g><g clip-path="url(#g)"><path d="M298.58 28.88H270.4V.38h28.03v5.16h-22.2v6.1h21.34v5.17h-21.35v7h22.36V29" fill="#1B619A"/></g><g clip-path="url(#h)"><path d="M325.67 28.88h-22.22V.38h22.34c10.4 0 12.3 4.55 12.3 14.25 0 9.47-2.2 14.25-12.5 14.25m6.1-8.46c.3-1.03.5-2.47.5-4.37v-2.68c0-4.7-.4-7.83-5.6-7.83h-17.4v18.2h16.9c2.8 0 4.7-.3 5.6-3.32" fill="#1B619A"/></g><g clip-path="url(#i)"><path d="M351.52 18.18h13.66l-6.83-11.55zm-6.3 10.7h-6.65L355.5.38h5.7l16.92 28.5h-6.65l-3.26-5.54h-19.7l-3.2 5.54" fill="#1B619A"/></g><path d="M115.66 58.92c-.5-.8-.7-1.77-.7-2.87v-2.23h4.13V56c0 1.8 1.7 1.74 3.1 1.74h7.6c2.2 0 3.7.08 3.7-2.47 0-2.12-1.2-1.97-3.1-1.97h-4.7c-5.1 0-10.9.53-10.9-6.2 0-5.37 4-5.98 8.4-5.98h5.3c4.2 0 8.5.5 8.5 5.72v1.53h-4c-.1-2.32.3-3.07-2.3-3.3-.9-.1-2.2-.13-3.7-.13h-2.7c-1.1 0-4.7-.18-5.3 1-.2.24-.3.67-.3 1.35 0 2.2 1.7 2 3.6 2h7.3c3.7 0 7.7.7 7.7 5.3v1.2c0 5.1-4.2 5.7-8.2 5.7h-6.9c-2.6 0-5.5-.3-7-2.7m31.9-1.8c-.3-1-.4-2.1-.4-3.3v-5c0-5.2 2-7.7 7.4-7.7H165c5.36 0 7.4 2.5 7.4 7.7v5c0 5.1-2.04 7.7-7.4 7.7h-10.5c-3.3 0-6.16-1-7.04-4.5m20.4-.7c.15-.4.25-.9.25-1.6v-6.8c0-2.4-1.2-3-3.4-3h-10c-2.1 0-3.4.6-3.4 3v6.9c0 2.4 1.2 3 3.4 3h10c1.3 0 2.6-.2 3.2-1.4m32.9 5h-18.4v-20h4.3v16.2h14.2v3.8m8.7-2.9c-.3-.8-.4-1.7-.4-2.7V41.3h4.3v14.53c0 1.93 1.4 1.9 3.1 1.9h8.7c1.7 0 3.1.03 3.1-1.9v-14.5h4.3v14.54c0 4.88-3.2 5.7-7.4 5.7h-8.4c-2.6 0-5.8-.24-6.9-3.06m44.7 2.9H250V45.2h-9.23v-3.8h22.7v3.8h-9.2v16.2m17.72 0h4.2V41.32H272zm14.6-4.3c-.3-.94-.4-2.03-.4-3.23v-5c0-5.2 2-7.72 7.4-7.72h10.5c5.3 0 7.4 2.57 7.4 7.74v5c0 5.1-2.1 7.7-7.4 7.7h-10.5c-3.3 0-6.2-1-7.1-4.5m20.4-.8c.1-.4.2-.9.2-1.6v-6.9c0-2.4-1.2-3-3.4-3h-10c-2.2 0-3.4.6-3.4 3v6.8c0 2.3 1.2 2.9 3.3 2.9h10c1.2 0 2.6-.2 3.1-1.4m18.5 5H321v-20h4.9L341.5 56V41.3h4.3v20.02H341l-15.43-14.8v14.8" fill="#D2D3D3"/><g clip-path="url(#j)"><path d="M356.48 58.92c-.48-.8-.68-1.77-.68-2.87v-2.23h4.1V56c0 1.8 1.74 1.74 3.15 1.74h7.65c2.2 0 3.74.08 3.74-2.47 0-2.12-1.22-1.97-3.08-1.97h-4.68c-5.07 0-10.9.53-10.9-6.2 0-5.37 4.04-5.98 8.45-5.98h5.32c4.23 0 8.56.5 8.56 5.72v1.53H374c-.05-2.32.38-3.07-2.24-3.3-.9-.1-2.13-.13-3.7-.13h-2.62c-1.05 0-4.7-.18-5.3 1-.14.24-.25.67-.25 1.35 0 2.2 1.6 2 3.6 2h7.3c3.7 0 7.7.7 7.7 5.3v1.2c0 5.1-4.2 5.7-8.3 5.7h-6.9c-2.5 0-5.5-.3-7-2.7" fill="#D2D3D3"/></g><g clip-path="url(#k)"><path d="M146.4 103.16l2.98-14.27h-5.28l.38-1.9h12.68l-.4 1.8h-5.22l-2.98 14.2h-2.15" fill="#1B619A"/></g><g clip-path="url(#l)"><path d="M155.88 103.16l3.36-16.1h2l-1.3 6.18c.74-.72 1.43-1.23 2.07-1.54.7-.3 1.3-.47 2-.47 1 0 1.7.25 2.3.76.6.5.8 1.1.8 2 0 .4-.1 1.1-.3 2.2l-1.4 6.9h-2l1.5-7.1c.2-1.1.3-1.7.3-2 0-.4-.1-.7-.4-1-.2-.3-.6-.4-1.1-.4-.7 0-1.4.2-2 .5-.6.4-1.1.9-1.5 1.6-.4.6-.7 1.7-1 3.1l-1 5h-2" fill="#1B619A"/></g><g clip-path="url(#m)"><path d="M171.14 96.3h6.54l.02-.44c0-1-.25-1.75-.75-2.28-.5-.53-1.14-.8-1.92-.8-.85 0-1.62.3-2.32.88-.7.6-1.2 1.47-1.5 2.64zm5.78 2.9l1.93.2c-.28.95-.92 1.86-1.92 2.72-1 .87-2.2 1.3-3.57 1.3-.86 0-1.66-.2-2.38-.6-.72-.4-1.27-.98-1.64-1.74-.38-.76-.57-1.63-.57-2.6 0-1.27.3-2.5.88-3.7.6-1.2 1.36-2.1 2.3-2.67.93-.5 1.94-.8 3.03-.8 1.4 0 2.5.5 3.34 1.3.83.9 1.24 2.1 1.24 3.6 0 .6-.05 1.2-.15 1.8h-8.5v.6c0 1.1.3 2 .8 2.5.5.6 1.1.9 1.9.9.7 0 1.4-.2 2-.6.7-.4 1.2-1.1 1.6-1.9" fill="#1B619A"/></g><g clip-path="url(#n)"><path d="M191.42 93.93h3.26c1.56 0 2.68-.25 3.37-.74.68-.5 1.02-1.3 1.02-2.2 0-.5-.1-.9-.3-1.2-.22-.4-.5-.6-.86-.7-.3-.2-1-.3-2-.3h-3.4zm-1.54 7.4h3.66c.98 0 1.63-.03 1.97-.1.7-.1 1.3-.3 1.7-.6.5-.28.8-.65 1-1.1.3-.47.4-.95.4-1.46 0-.75-.2-1.32-.7-1.7-.5-.4-1.4-.6-2.7-.6h-4.1zm-2.54 1.83l3.37-16.1h5c.9 0 1.6.04 2 .1.8.13 1.4.35 1.9.66.5.3.9.74 1.2 1.27.3.5.4 1.1.4 1.7 0 .9-.2 1.6-.7 2.3-.5.6-1.2 1.2-2.2 1.5.9.3 1.5.7 2 1.3.5.5.7 1.2.7 2 0 .9-.2 1.7-.8 2.5-.5.8-1.2 1.4-2 1.9-.8.4-1.8.6-2.8.6h-7.8" fill="#1B619A"/></g><g clip-path="url(#o)"><path d="M210.32 101.05c-1.4 1.58-2.82 2.37-4.3 2.37-.9 0-1.6-.26-2.17-.78-.55-.5-.83-1.14-.83-1.9 0-.48.13-1.32.37-2.5l1.4-6.75h2l-1.6 7.4c-.2.6-.2 1.1-.2 1.4 0 .4.1.7.4 1 .2.2.6.3 1.2.3.5 0 1.1-.2 1.6-.4s1-.7 1.3-1.1c.4-.5.7-1 .9-1.7.1-.4.3-1.1.5-2.1l1-5.1h2l-2.4 11.7h-1.9l.4-2.1" fill="#1B619A"/></g><g clip-path="url(#p)"><path d="M214.9 99.17l1.97-.12c0 .57.1 1.06.27 1.46.17.4.5.8.97 1 .5.3 1.1.4 1.7.4.9 0 1.6-.1 2-.5.5-.3.7-.7.7-1.2 0-.3-.1-.6-.4-.9-.2-.3-.9-.7-1.9-1.1-1-.4-1.7-.7-2-.9-.5-.3-.8-.6-1.1-1-.2-.4-.3-.8-.3-1.4 0-.9.4-1.7 1.1-2.3.8-.6 1.8-1 3.1-1 1.5 0 2.6.4 3.4 1.1s1.2 1.6 1.2 2.7l-1.9.2c0-.7-.3-1.2-.8-1.6-.4-.4-1.1-.6-2-.6-.6 0-1.2.15-1.6.46-.3.3-.5.65-.5 1s.2.7.5 1c.2.2.8.45 1.7.85 1.5.65 2.5 1.2 2.9 1.54.6.6.9 1.3.9 2.2 0 .6-.2 1.13-.5 1.7-.3.54-.9 1-1.6 1.3-.7.3-1.6.5-2.5.5-1.3 0-2.5-.33-3.4-1-.9-.7-1.4-1.75-1.3-3.25" fill="#1B619A"/></g><g clip-path="url(#q)"><path d="M228.98 89.3l.48-2.24h1.97l-.47 2.25zm-2.9 13.86l2.44-11.67h2l-2.45 11.6h-1.98" fill="#1B619A"/></g><g clip-path="url(#r)"><path d="M231.22 103.16l2.44-11.67h1.8l-.43 2c.8-.8 1.52-1.4 2.2-1.8.68-.4 1.38-.6 2.08-.6 1 0 1.7.2 2.3.7.6.5.8 1.2.8 2 0 .4-.1 1.1-.3 2l-1.5 7h-2l1.6-7.4c.2-.7.3-1.3.3-1.6 0-.4-.1-.7-.4-.9-.3-.3-.6-.4-1.1-.4-1 0-1.9.3-2.7 1.1-.8.7-1.4 2-1.7 3.7l-1.1 5.4h-2" fill="#1B619A"/></g><g clip-path="url(#s)"><path d="M246.47 96.3h6.55v-.44c0-1-.24-1.75-.74-2.28-.5-.53-1.14-.8-1.92-.8-.85 0-1.63.3-2.32.88-.7.6-1.23 1.47-1.57 2.64zm5.78 2.9l1.93.2c-.28.95-.92 1.86-1.92 2.72-1 .87-2.2 1.3-3.57 1.3-.9 0-1.7-.2-2.4-.6-.7-.4-1.3-.98-1.7-1.74-.4-.76-.6-1.63-.6-2.6 0-1.27.3-2.5.8-3.7.6-1.2 1.3-2.1 2.3-2.67.9-.5 1.9-.8 3-.8 1.4 0 2.5.5 3.3 1.3.8.9 1.2 2.1 1.2 3.6 0 .6-.1 1.2-.2 1.8H246l-.06.6c0 1.1.28 2 .78 2.5.5.6 1.12.9 1.84.9.7 0 1.35-.2 2-.6.67-.4 1.2-1.1 1.55-1.9" fill="#1B619A"/></g><g clip-path="url(#t)"><path d="M256.13 99.17l2-.12c0 .57.08 1.06.25 1.46.18.4.5.8.98 1 .47.3 1.02.4 1.65.4.9 0 1.6-.1 2-.5.5-.3.7-.7.7-1.2 0-.3-.1-.6-.4-.9-.2-.3-.9-.7-1.9-1.1-1-.4-1.7-.7-2-.9-.5-.3-.8-.6-1.1-1-.2-.4-.3-.8-.3-1.4 0-.9.4-1.7 1.1-2.3.7-.6 1.8-1 3.1-1 1.5 0 2.6.4 3.4 1.1.8.7 1.2 1.6 1.2 2.7l-1.9.2c0-.7-.3-1.2-.7-1.6-.5-.4-1.1-.6-2-.6-.7 0-1.2.15-1.6.46-.4.3-.6.65-.6 1s.2.7.5 1c.2.2.8.45 1.7.85 1.5.65 2.5 1.2 2.9 1.54.6.6.9 1.3.9 2.2 0 .6-.2 1.13-.5 1.7-.3.54-.9 1-1.6 1.3-.7.3-1.6.5-2.6.5-1.3 0-2.4-.33-3.4-1-.9-.7-1.4-1.75-1.3-3.25" fill="#1B619A"/></g><g clip-path="url(#u)"><path d="M267.36 99.17l2-.12c0 .57.08 1.06.25 1.46.2.4.5.8 1 1 .5.3 1 .4 1.7.4.9 0 1.6-.1 2-.5.5-.3.7-.7.7-1.2 0-.3-.1-.6-.4-.9-.2-.3-.9-.7-1.9-1.1-1-.4-1.7-.7-2-.9-.5-.3-.8-.6-1.1-1-.2-.4-.3-.8-.3-1.4 0-.9.4-1.7 1.1-2.3.8-.6 1.8-1 3.1-1 1.5 0 2.6.4 3.4 1.1s1.2 1.6 1.2 2.7l-1.9.2c0-.7-.3-1.2-.7-1.6-.4-.4-1.1-.6-2-.6-.7 0-1.2.15-1.6.46-.3.3-.5.65-.5 1s.2.7.5 1c.2.2.8.45 1.7.85 1.5.65 2.5 1.2 2.9 1.54.7.6 1 1.3 1 2.2 0 .6-.14 1.13-.5 1.7-.35.54-.9 1-1.62 1.3-.7.3-1.52.5-2.5.5-1.35 0-2.5-.33-3.44-1-.92-.7-1.4-1.75-1.32-3.25" fill="#1B619A"/></g><g clip-path="url(#v)"><path d="M287 98.54c0 1.1.27 1.92.8 2.5.53.56 1.2.84 2 .84.43 0 .85-.08 1.27-.25.42-.18.8-.44 1.16-.8.36-.34.67-.74.92-1.2.26-.44.46-.93.6-1.45.24-.72.35-1.42.35-2.1 0-1.04-.26-1.86-.8-2.44-.53-.58-1.2-.87-2-.87-.62 0-1.2.15-1.7.44-.5.3-.98.8-1.4 1.4-.4.6-.7 1.3-.9 2-.2.8-.3 1.4-.3 2zm-1.98.2c0-2.3.67-4.17 2-5.66 1.12-1.23 2.57-1.85 4.36-1.85 1.4 0 2.54.44 3.4 1.32.86.88 1.3 2.06 1.3 3.56 0 1.4-.28 2.6-.83 3.8-.54 1.2-1.3 2.1-2.3 2.7-1 .6-2.06 1-3.16 1-1 0-1.8-.2-2.5-.6-.8-.4-1.3-.9-1.7-1.6-.4-.7-.6-1.5-.6-2.4" fill="#1B619A"/></g><g clip-path="url(#w)"><path d="M297.44 103.16l2.1-10.13h-1.76l.32-1.54h1.77l.34-1.7c.2-.9.4-1.5.6-1.8.2-.4.5-.7.9-.9.5-.3 1-.4 1.8-.4.5 0 1.3.1 2.2.3l-.3 1.7c-.6-.2-1.2-.3-1.7-.3-.4 0-.6.1-.8.3-.2.2-.4.6-.5 1.3l-.2 1.3h2.2l-.3 1.5h-2.2l-2.1 10.1h-2" fill="#1B619A"/></g><g clip-path="url(#x)"><path d="M310.2 103.16l3.37-16.1h2.14l-3.3 16.1h-2.1" fill="#1B619A"/></g><g clip-path="url(#y)"><path d="M320.23 103.16l2.98-14.27H318l.38-1.9H331l-.38 1.8h-5.24L322.4 103h-2.1" fill="#1B619A"/></g><path d="M334.1 88.86h.74c.36 0 .6-.05.73-.16.13-.1.2-.25.2-.42 0-.1-.04-.2-.1-.3-.06-.1-.15-.16-.26-.2-.1-.05-.3-.07-.6-.07h-.7zm-.6 2.14v-3.8h1.3c.44 0 .76.03.96.1.2.08.36.2.48.37.12.18.18.36.18.56 0 .28-.1.52-.3.72-.2.2-.46.33-.8.35.15.06.25.13.34.2.15.15.34.4.56.75l.46.75h-.75l-.34-.6c-.3-.47-.5-.76-.7-.88-.1-.1-.3-.13-.5-.13h-.4V91zm1.54-4.9c-.5 0-.98.12-1.45.38-.5.25-.9.62-1.2 1.1-.3.46-.4.96-.4 1.47 0 .5.1 1 .4 1.46.2.5.6.9 1.1 1.1.4.3.9.4 1.4.4.5 0 1-.1 1.4-.4.4-.2.8-.6 1.1-1.1.2-.4.3-.9.3-1.4 0-.5-.2-1-.4-1.5-.3-.4-.6-.8-1.1-1.1-.5-.2-1-.4-1.5-.4zm0-.6c.6 0 1.17.16 1.73.47.57.3 1 .74 1.33 1.3.3.57.47 1.16.47 1.78 0 .6-.16 1.2-.47 1.75-.3.57-.74 1-1.3 1.3-.57.33-1.15.48-1.76.48-.6 0-1.2-.15-1.76-.47-.56-.3-1-.7-1.3-1.3-.32-.5-.48-1.1-.48-1.7 0-.6.16-1.2.48-1.8.3-.5.75-1 1.32-1.3.56-.3 1.14-.4 1.74-.4" fill="#1B619A"/></svg>