<?xml version="1.0" encoding="UTF-8"?>
<svg xmlns="http://www.w3.org/2000/svg" xmlns:xlink="http://www.w3.org/1999/xlink" width="378.55pt" height="103.42pt" viewBox="0 0 378.55 103.42" version="1.1">
<defs>
<clipPath id="clip1">
  <path d="M 11 0.0195312 L 63 0.0195312 L 63 40 L 11 40 Z "/>
</clipPath>
<clipPath id="clip2">
  <path d="M 114 0.0195312 L 147 0.0195312 L 147 29 L 114 29 Z "/>
</clipPath>
<clipPath id="clip3">
  <path d="M 141 0.0195312 L 181 0.0195312 L 181 29 L 141 29 Z "/>
</clipPath>
<clipPath id="clip4">
  <path d="M 183 0.0195312 L 216 0.0195312 L 216 29 L 183 29 Z "/>
</clipPath>
<clipPath id="clip5">
  <path d="M 220 0.0195312 L 227 0.0195312 L 227 29 L 220 29 Z "/>
</clipPath>
<clipPath id="clip6">
  <path d="M 229 0.0195312 L 267 0.0195312 L 267 29 L 229 29 Z "/>
</clipPath>
<clipPath id="clip7">
  <path d="M 270 0.0195312 L 299 0.0195312 L 299 29 L 270 29 Z "/>
</clipPath>
<clipPath id="clip8">
  <path d="M 303 0.0195312 L 339 0.0195312 L 339 29 L 303 29 Z "/>
</clipPath>
<clipPath id="clip9">
  <path d="M 338 0.0195312 L 378.550781 0.0195312 L 378.550781 29 L 338 29 Z "/>
</clipPath>
<clipPath id="clip10">
  <path d="M 355 41 L 378.550781 41 L 378.550781 62 L 355 62 Z "/>
</clipPath>
<clipPath id="clip11">
  <path d="M 144 87 L 158 87 L 158 103.421875 L 144 103.421875 Z "/>
</clipPath>
<clipPath id="clip12">
  <path d="M 155 87 L 168 87 L 168 103.421875 L 155 103.421875 Z "/>
</clipPath>
<clipPath id="clip13">
  <path d="M 168 91 L 180 91 L 180 103.421875 L 168 103.421875 Z "/>
</clipPath>
<clipPath id="clip14">
  <path d="M 187 87 L 202 87 L 202 103.421875 L 187 103.421875 Z "/>
</clipPath>
<clipPath id="clip15">
  <path d="M 203 91 L 215 91 L 215 103.421875 L 203 103.421875 Z "/>
</clipPath>
<clipPath id="clip16">
  <path d="M 214 91 L 226 91 L 226 103.421875 L 214 103.421875 Z "/>
</clipPath>
<clipPath id="clip17">
  <path d="M 226 87 L 232 87 L 232 103.421875 L 226 103.421875 Z "/>
</clipPath>
<clipPath id="clip18">
  <path d="M 231 91 L 243 91 L 243 103.421875 L 231 103.421875 Z "/>
</clipPath>
<clipPath id="clip19">
  <path d="M 244 91 L 255 91 L 255 103.421875 L 244 103.421875 Z "/>
</clipPath>
<clipPath id="clip20">
  <path d="M 256 91 L 267 91 L 267 103.421875 L 256 103.421875 Z "/>
</clipPath>
<clipPath id="clip21">
  <path d="M 267 91 L 278 91 L 278 103.421875 L 267 103.421875 Z "/>
</clipPath>
<clipPath id="clip22">
  <path d="M 285 91 L 297 91 L 297 103.421875 L 285 103.421875 Z "/>
</clipPath>
<clipPath id="clip23">
  <path d="M 297 86 L 306 86 L 306 103.421875 L 297 103.421875 Z "/>
</clipPath>
<clipPath id="clip24">
  <path d="M 310 87 L 316 87 L 316 103.421875 L 310 103.421875 Z "/>
</clipPath>
<clipPath id="clip25">
  <path d="M 317 87 L 331 87 L 331 103.421875 L 317 103.421875 Z "/>
</clipPath>
</defs>
<g id="surface1">
<path style=" stroke:none;fill-rule:evenodd;fill:rgb(87.14447%,86.911011%,86.968994%);fill-opacity:1;" d="M 65.980469 34.101562 C 65.980469 34.101562 53.503906 34.445312 51.011719 34.605469 C 48.515625 34.765625 44.605469 35.558594 41.386719 36.675781 C 38.167969 37.792969 32.867188 39.523438 32.867188 39.523438 C 32.867188 39.523438 29.15625 43.214844 28.144531 43.523438 C 27.128906 43.832031 27.59375 41 27.59375 41 C 27.59375 41 26.609375 38.6875 23.777344 38.609375 C 20.949219 38.53125 20.996094 36.6875 23.011719 36.683594 C 25.023438 36.675781 30.441406 37.632812 30.441406 37.632812 C 30.441406 37.632812 42.84375 29.058594 46.054688 27.578125 C 49.261719 26.101562 54.875 23.421875 55.167969 22.628906 C 55.460938 21.835938 56.253906 19.808594 55.160156 18.925781 C 54.070312 18.046875 55.398438 16.789062 56.945312 17.71875 C 58.496094 18.644531 61.492188 22.851562 61.492188 22.851562 C 61.492188 22.851562 67.421875 22.417969 74.023438 23.90625 C 80.621094 25.390625 84.84375 27.820312 85.707031 29.347656 C 86.570312 30.871094 89.023438 30.65625 88.910156 31.671875 C 88.796875 32.691406 87.988281 33.019531 85.332031 32.753906 C 82.675781 32.488281 76.199219 32.25 76.199219 32.25 C 76.199219 32.25 72.46875 36.144531 68.957031 36.613281 C 65.449219 37.082031 62.949219 35.394531 64.21875 35.109375 C 65.492188 34.824219 65.980469 34.101562 65.980469 34.101562 "/>
<g clip-path="url(#clip1)" clip-rule="nonzero">
<path style=" stroke:none;fill-rule:evenodd;fill:rgb(87.14447%,86.911011%,86.968994%);fill-opacity:1;" d="M 20.960938 1.238281 C 20.667969 0.925781 21.023438 0.414062 21.371094 0.332031 C 23.785156 -0.242188 26.21875 -0.0390625 28.582031 0.695312 C 29.535156 0.988281 30.546875 1.613281 31.53125 1.707031 C 33.292969 1.878906 38.113281 0.820312 38.765625 0.726562 C 44.117188 -0.046875 51.273438 -0.0195312 55.761719 3.492188 C 57.464844 4.828125 58.398438 6.605469 60.167969 7.8125 C 60.550781 8.078125 60.875 8.304688 61.304688 8.480469 C 62.332031 8.90625 62.433594 10.597656 60.339844 10.203125 C 59.867188 10.117188 59.410156 10.042969 58.945312 9.996094 C 55.359375 9.636719 51.824219 10.480469 48.246094 10.460938 C 47.550781 11.699219 46.484375 12.917969 45.347656 13.765625 C 44.316406 14.53125 39.0625 16.90625 38.519531 15.234375 C 38.394531 14.851562 39.351562 14.617188 39.542969 14.511719 C 40.421875 14.015625 41.515625 13.023438 41.996094 12.121094 C 39.523438 12.707031 37.121094 13.632812 34.71875 14.449219 C 31.796875 15.445312 25.128906 18.296875 20.363281 26.898438 C 19.824219 27.875 19.324219 28.890625 18.8125 29.890625 C 19.710938 30.792969 19.851562 36.472656 18.917969 37.207031 C 18.078125 36.605469 17.734375 34.835938 16.585938 35.265625 C 15.171875 35.796875 12.148438 40.226562 11.722656 39.28125 C 11.4375 38.652344 12.925781 34.808594 13.320312 34.050781 C 13.835938 33.054688 15.3125 31.425781 15.105469 28.351562 C 14.714844 22.5 16.730469 17.761719 19.449219 12.648438 C 21.316406 9.136719 27.917969 3.835938 20.960938 1.238281 "/>
</g>
<path style=" stroke:none;fill-rule:nonzero;fill:rgb(10.496521%,37.882996%,60.351562%);fill-opacity:1;" d="M 65.140625 61.425781 C 83.003906 61.425781 87.363281 57.445312 87.363281 57.445312 C 87.363281 57.445312 82.867188 64.535156 65.253906 64.535156 C 51.320312 64.535156 35.472656 50.496094 22.222656 50.496094 C 5.980469 50.496094 0 53.695312 0 53.695312 C 0 53.695312 5.828125 48.160156 22.109375 48.160156 C 35.472656 48.160156 51.320312 61.425781 65.140625 61.425781 "/>
<g clip-path="url(#clip2)" clip-rule="nonzero">
<path style=" stroke:none;fill-rule:nonzero;fill:rgb(10.496521%,37.882996%,60.351562%);fill-opacity:1;" d="M 139.832031 12.773438 C 140.207031 12.507812 140.535156 11.976562 140.535156 10.789062 L 140.535156 8.285156 C 140.535156 5.71875 139.152344 5.539062 136.878906 5.539062 L 120.792969 5.539062 L 120.792969 13.390625 L 137.167969 13.390625 C 138.46875 13.390625 139.3125 13.140625 139.832031 12.773438 M 120.792969 28.878906 L 114.984375 28.878906 L 114.984375 0.386719 L 137.714844 0.386719 C 143.679688 0.386719 146.34375 2.375 146.34375 8.652344 C 146.34375 15.847656 144.78125 18.550781 137.023438 18.550781 L 120.792969 18.550781 L 120.792969 28.878906 "/>
</g>
<g clip-path="url(#clip3)" clip-rule="nonzero">
<path style=" stroke:none;fill-rule:nonzero;fill:rgb(10.496521%,37.882996%,60.351562%);fill-opacity:1;" d="M 154.246094 18.183594 L 167.90625 18.183594 L 161.074219 6.628906 Z M 147.949219 28.878906 L 141.300781 28.878906 L 158.222656 0.386719 L 163.929688 0.386719 L 180.851562 28.878906 L 174.199219 28.878906 L 170.941406 23.335938 L 151.210938 23.335938 L 147.949219 28.878906 "/>
</g>
<g clip-path="url(#clip4)" clip-rule="nonzero">
<path style=" stroke:none;fill-rule:nonzero;fill:rgb(10.496521%,37.882996%,60.351562%);fill-opacity:1;" d="M 189.179688 5.539062 L 189.179688 13.359375 L 205.089844 13.359375 C 207.179688 13.359375 209.578125 13.320312 209.578125 10.6875 L 209.578125 8.285156 C 209.578125 5.1875 206.679688 5.539062 204.21875 5.539062 Z M 212.886719 16.242188 C 214.476562 17.359375 215.058594 19.167969 215.058594 21.042969 L 215.058594 28.878906 L 209.46875 28.878906 L 209.46875 21.988281 C 209.46875 18.789062 208.273438 18.515625 205.378906 18.515625 L 189.179688 18.515625 L 189.179688 28.878906 L 183.378906 28.878906 L 183.378906 0.386719 L 205.484375 0.386719 C 212.085938 0.386719 215.382812 1.972656 215.382812 8.941406 L 215.382812 11.078125 C 215.382812 13.164062 214.761719 15.140625 212.886719 16.242188 "/>
</g>
<g clip-path="url(#clip5)" clip-rule="nonzero">
<path style=" stroke:none;fill-rule:nonzero;fill:rgb(10.496521%,37.882996%,60.351562%);fill-opacity:1;" d="M 220.992188 28.878906 L 226.796875 28.878906 L 226.796875 0.382812 L 220.992188 0.382812 Z "/>
</g>
<g clip-path="url(#clip6)" clip-rule="nonzero">
<path style=" stroke:none;fill-rule:nonzero;fill:rgb(10.496521%,37.882996%,60.351562%);fill-opacity:1;" d="M 251.128906 28.878906 L 245.445312 28.878906 L 229.667969 0.382812 L 236.230469 0.382812 L 248.285156 22.230469 L 260.34375 0.382812 L 266.90625 0.382812 L 251.128906 28.878906 "/>
</g>
<g clip-path="url(#clip7)" clip-rule="nonzero">
<path style=" stroke:none;fill-rule:nonzero;fill:rgb(10.496521%,37.882996%,60.351562%);fill-opacity:1;" d="M 298.578125 28.878906 L 270.414062 28.878906 L 270.414062 0.382812 L 298.433594 0.382812 L 298.433594 5.539062 L 276.21875 5.539062 L 276.21875 11.648438 L 297.570312 11.648438 L 297.570312 16.8125 L 276.21875 16.8125 L 276.21875 23.726562 L 298.578125 23.726562 L 298.578125 28.878906 "/>
</g>
<g clip-path="url(#clip8)" clip-rule="nonzero">
<path style=" stroke:none;fill-rule:nonzero;fill:rgb(10.496521%,37.882996%,60.351562%);fill-opacity:1;" d="M 325.671875 28.878906 L 303.449219 28.878906 L 303.449219 0.382812 L 325.785156 0.382812 C 336.265625 0.382812 338.105469 4.929688 338.105469 14.628906 C 338.105469 24.097656 335.9375 28.878906 325.671875 28.878906 M 331.824219 20.417969 C 332.132812 19.390625 332.300781 17.953125 332.300781 16.050781 L 332.300781 13.367188 C 332.300781 8.664062 331.984375 5.539062 326.726562 5.539062 L 309.261719 5.539062 L 309.261719 23.726562 L 326.148438 23.726562 C 329.003906 23.726562 330.921875 23.4375 331.824219 20.417969 "/>
</g>
<g clip-path="url(#clip9)" clip-rule="nonzero">
<path style=" stroke:none;fill-rule:nonzero;fill:rgb(10.496521%,37.882996%,60.351562%);fill-opacity:1;" d="M 351.515625 18.183594 L 365.179688 18.183594 L 358.351562 6.628906 Z M 345.222656 28.878906 L 338.570312 28.878906 L 355.496094 0.386719 L 361.199219 0.386719 L 378.121094 28.878906 L 371.472656 28.878906 L 368.207031 23.335938 L 348.480469 23.335938 L 345.222656 28.878906 "/>
</g>
<path style=" stroke:none;fill-rule:nonzero;fill:rgb(82.441711%,82.710266%,82.618713%);fill-opacity:1;" d="M 115.65625 58.917969 C 115.171875 58.125 114.96875 57.148438 114.96875 56.054688 L 114.96875 53.816406 L 119.089844 53.816406 L 119.089844 56.003906 C 119.089844 57.785156 120.808594 57.738281 122.21875 57.738281 L 129.871094 57.738281 C 132.085938 57.738281 133.605469 57.816406 133.605469 55.273438 C 133.605469 53.152344 132.386719 53.304688 130.527344 53.304688 L 125.84375 53.304688 C 120.769531 53.304688 114.941406 53.832031 114.941406 47.105469 C 114.941406 41.730469 118.992188 41.125 123.398438 41.125 L 128.710938 41.125 C 132.949219 41.125 137.269531 41.617188 137.269531 46.839844 L 137.269531 48.367188 L 133.175781 48.367188 C 133.121094 46.050781 133.539062 45.300781 130.933594 45.0625 C 130.039062 44.976562 128.804688 44.941406 127.226562 44.941406 L 124.609375 44.941406 C 123.554688 44.941406 119.917969 44.757812 119.292969 45.933594 C 119.164062 46.179688 119.0625 46.609375 119.0625 47.285156 C 119.0625 49.574219 120.746094 49.285156 122.695312 49.285156 L 129.996094 49.285156 C 133.710938 49.285156 137.722656 50.070312 137.722656 54.667969 L 137.722656 55.855469 C 137.722656 60.980469 133.574219 61.5625 129.496094 61.5625 L 122.644531 61.5625 C 120.109375 61.5625 117.117188 61.308594 115.65625 58.917969 "/>
<path style=" stroke:none;fill-rule:nonzero;fill:rgb(82.441711%,82.710266%,82.618713%);fill-opacity:1;" d="M 147.554688 57.070312 C 147.320312 56.128906 147.214844 55.042969 147.214844 53.835938 L 147.214844 48.851562 C 147.214844 43.636719 149.226562 41.125 154.609375 41.125 L 165.113281 41.125 C 170.449219 41.125 172.511719 43.679688 172.511719 48.851562 L 172.511719 53.835938 C 172.511719 59.011719 170.449219 61.5625 165.113281 61.5625 L 154.609375 61.5625 C 151.292969 61.5625 148.429688 60.597656 147.554688 57.070312 M 167.984375 56.335938 C 168.140625 55.992188 168.242188 55.484375 168.242188 54.765625 L 168.242188 47.921875 C 168.242188 45.550781 167.039062 44.9375 164.863281 44.9375 L 154.859375 44.9375 C 152.6875 44.9375 151.480469 45.550781 151.480469 47.921875 L 151.480469 54.765625 C 151.480469 57.132812 152.6875 57.742188 154.859375 57.742188 L 164.863281 57.742188 C 166.097656 57.742188 167.414062 57.597656 167.984375 56.335938 "/>
<path style=" stroke:none;fill-rule:nonzero;fill:rgb(82.441711%,82.710266%,82.618713%);fill-opacity:1;" d="M 200.851562 61.355469 L 182.429688 61.355469 L 182.429688 41.328125 L 186.695312 41.328125 L 186.695312 57.546875 L 200.851562 57.546875 L 200.851562 61.355469 "/>
<path style=" stroke:none;fill-rule:nonzero;fill:rgb(82.441711%,82.710266%,82.618713%);fill-opacity:1;" d="M 209.546875 58.511719 C 209.246094 57.757812 209.117188 56.871094 209.117188 55.875 L 209.117188 41.324219 L 213.386719 41.324219 L 213.386719 55.851562 C 213.386719 57.78125 214.769531 57.742188 216.4375 57.742188 L 225.003906 57.742188 C 226.671875 57.742188 228.058594 57.78125 228.058594 55.851562 L 228.058594 41.324219 L 232.328125 41.324219 L 232.328125 55.875 C 232.328125 60.746094 229.101562 61.558594 224.929688 61.558594 L 216.515625 61.558594 C 213.914062 61.558594 210.664062 61.328125 209.546875 58.511719 "/>
<path style=" stroke:none;fill-rule:nonzero;fill:rgb(82.441711%,82.710266%,82.618713%);fill-opacity:1;" d="M 254.253906 61.355469 L 249.980469 61.355469 L 249.980469 45.140625 L 240.761719 45.140625 L 240.761719 41.328125 L 263.46875 41.328125 L 263.46875 45.140625 L 254.253906 45.140625 L 254.253906 61.355469 "/>
<path style=" stroke:none;fill-rule:nonzero;fill:rgb(82.441711%,82.710266%,82.618713%);fill-opacity:1;" d="M 271.980469 61.355469 L 276.246094 61.355469 L 276.246094 41.328125 L 271.980469 41.328125 Z "/>
<path style=" stroke:none;fill-rule:nonzero;fill:rgb(82.441711%,82.710266%,82.618713%);fill-opacity:1;" d="M 286.636719 57.070312 C 286.40625 56.128906 286.300781 55.042969 286.300781 53.835938 L 286.300781 48.851562 C 286.300781 43.636719 288.308594 41.125 293.699219 41.125 L 304.199219 41.125 C 309.539062 41.125 311.601562 43.679688 311.601562 48.851562 L 311.601562 53.835938 C 311.601562 59.011719 309.53125 61.5625 304.199219 61.5625 L 293.699219 61.5625 C 290.375 61.5625 287.515625 60.597656 286.636719 57.070312 M 307.066406 56.335938 C 307.226562 55.992188 307.332031 55.484375 307.332031 54.765625 L 307.332031 47.921875 C 307.332031 45.550781 306.128906 44.9375 303.949219 44.9375 L 293.953125 44.9375 C 291.769531 44.9375 290.566406 45.550781 290.566406 47.921875 L 290.566406 54.765625 C 290.566406 57.132812 291.769531 57.742188 293.953125 57.742188 L 303.949219 57.742188 C 305.1875 57.742188 306.5 57.597656 307.066406 56.335938 "/>
<path style=" stroke:none;fill-rule:nonzero;fill:rgb(82.441711%,82.710266%,82.618713%);fill-opacity:1;" d="M 325.632812 61.355469 L 321.363281 61.355469 L 321.363281 41.328125 L 326.300781 41.328125 L 341.734375 56.132812 L 341.734375 41.328125 L 346.011719 41.328125 L 346.011719 61.355469 L 341.070312 61.355469 L 325.632812 46.554688 L 325.632812 61.355469 "/>
<g clip-path="url(#clip10)" clip-rule="nonzero">
<path style=" stroke:none;fill-rule:nonzero;fill:rgb(82.441711%,82.710266%,82.618713%);fill-opacity:1;" d="M 356.484375 58.917969 C 356.003906 58.125 355.800781 57.148438 355.800781 56.054688 L 355.800781 53.816406 L 359.914062 53.816406 L 359.914062 56.003906 C 359.914062 57.785156 361.636719 57.738281 363.046875 57.738281 L 370.699219 57.738281 C 372.910156 57.738281 374.4375 57.816406 374.4375 55.273438 C 374.4375 53.152344 373.21875 53.304688 371.355469 53.304688 L 366.675781 53.304688 C 361.605469 53.304688 355.777344 53.832031 355.777344 47.105469 C 355.777344 41.730469 359.820312 41.125 364.234375 41.125 L 369.546875 41.125 C 373.777344 41.125 378.105469 41.617188 378.105469 46.839844 L 378.105469 48.367188 L 374.003906 48.367188 C 373.953125 46.050781 374.375 45.300781 371.761719 45.0625 C 370.871094 44.976562 369.632812 44.941406 368.058594 44.941406 L 365.4375 44.941406 C 364.386719 44.941406 360.75 44.757812 360.128906 45.933594 C 359.996094 46.179688 359.894531 46.609375 359.894531 47.285156 C 359.894531 49.574219 361.574219 49.285156 363.523438 49.285156 L 370.832031 49.285156 C 374.542969 49.285156 378.554688 50.070312 378.554688 54.667969 L 378.554688 55.855469 C 378.554688 60.980469 374.40625 61.5625 370.320312 61.5625 L 363.472656 61.5625 C 360.945312 61.5625 357.949219 61.308594 356.484375 58.917969 "/>
</g>
<g clip-path="url(#clip11)" clip-rule="nonzero">
<path style=" stroke:none;fill-rule:nonzero;fill:rgb(10.496521%,37.882996%,60.351562%);fill-opacity:1;" d="M 146.40625 103.15625 L 149.382812 88.894531 L 144.101562 88.894531 L 144.484375 87.058594 L 157.15625 87.058594 L 156.773438 88.894531 L 151.535156 88.894531 L 148.558594 103.15625 L 146.40625 103.15625 "/>
</g>
<g clip-path="url(#clip12)" clip-rule="nonzero">
<path style=" stroke:none;fill-rule:nonzero;fill:rgb(10.496521%,37.882996%,60.351562%);fill-opacity:1;" d="M 155.882812 103.15625 L 159.242188 87.058594 L 161.230469 87.058594 L 159.945312 93.242188 C 160.683594 92.523438 161.371094 92.007812 162.011719 91.699219 C 162.644531 91.386719 163.300781 91.230469 163.976562 91.230469 C 164.941406 91.230469 165.691406 91.484375 166.226562 91.992188 C 166.761719 92.503906 167.027344 93.175781 167.027344 94.007812 C 167.027344 94.417969 166.910156 95.171875 166.675781 96.269531 L 165.238281 103.15625 L 163.25 103.15625 L 164.734375 96.09375 C 164.945312 95.070312 165.050781 94.425781 165.050781 94.164062 C 165.050781 93.78125 164.921875 93.472656 164.65625 93.230469 C 164.390625 92.988281 164.011719 92.867188 163.515625 92.867188 C 162.796875 92.867188 162.113281 93.054688 161.460938 93.433594 C 160.808594 93.808594 160.300781 94.324219 159.929688 94.980469 C 159.558594 95.636719 159.222656 96.691406 158.914062 98.148438 L 157.871094 103.15625 L 155.882812 103.15625 "/>
</g>
<g clip-path="url(#clip13)" clip-rule="nonzero">
<path style=" stroke:none;fill-rule:nonzero;fill:rgb(10.496521%,37.882996%,60.351562%);fill-opacity:1;" d="M 171.140625 96.304688 L 177.683594 96.304688 C 177.691406 96.101562 177.695312 95.953125 177.695312 95.863281 C 177.695312 94.867188 177.449219 94.105469 176.949219 93.578125 C 176.453125 93.046875 175.8125 92.777344 175.027344 92.777344 C 174.179688 92.777344 173.40625 93.074219 172.707031 93.65625 C 172.007812 94.246094 171.484375 95.125 171.140625 96.304688 Z M 176.917969 99.191406 L 178.847656 99.390625 C 178.570312 100.347656 177.933594 101.257812 176.933594 102.125 C 175.933594 102.988281 174.742188 103.421875 173.359375 103.421875 C 172.496094 103.421875 171.703125 103.21875 170.980469 102.820312 C 170.261719 102.421875 169.710938 101.84375 169.335938 101.082031 C 168.957031 100.320312 168.769531 99.453125 168.769531 98.476562 C 168.769531 97.207031 169.0625 95.96875 169.652344 94.773438 C 170.242188 93.578125 171.007812 92.6875 171.941406 92.105469 C 172.878906 91.523438 173.894531 91.230469 174.984375 91.230469 C 176.375 91.230469 177.488281 91.664062 178.316406 92.527344 C 179.148438 93.390625 179.5625 94.570312 179.5625 96.0625 C 179.5625 96.632812 179.511719 97.21875 179.410156 97.820312 L 170.824219 97.820312 C 170.792969 98.046875 170.777344 98.253906 170.777344 98.433594 C 170.777344 99.523438 171.03125 100.355469 171.53125 100.933594 C 172.03125 101.507812 172.644531 101.792969 173.371094 101.792969 C 174.050781 101.792969 174.722656 101.570312 175.378906 101.125 C 176.039062 100.679688 176.550781 100.035156 176.917969 99.191406 "/>
</g>
<g clip-path="url(#clip14)" clip-rule="nonzero">
<path style=" stroke:none;fill-rule:nonzero;fill:rgb(10.496521%,37.882996%,60.351562%);fill-opacity:1;" d="M 191.421875 93.933594 L 194.683594 93.933594 C 196.242188 93.933594 197.363281 93.683594 198.050781 93.1875 C 198.730469 92.6875 199.074219 91.960938 199.074219 91.011719 C 199.074219 90.558594 198.96875 90.164062 198.757812 89.835938 C 198.546875 89.507812 198.261719 89.269531 197.90625 89.117188 C 197.550781 88.96875 196.882812 88.894531 195.902344 88.894531 L 192.476562 88.894531 Z M 189.875 101.335938 L 193.542969 101.335938 C 194.515625 101.335938 195.171875 101.300781 195.507812 101.234375 C 196.1875 101.117188 196.738281 100.917969 197.164062 100.636719 C 197.589844 100.351562 197.921875 99.984375 198.164062 99.519531 C 198.40625 99.058594 198.527344 98.578125 198.527344 98.070312 C 198.527344 97.316406 198.289062 96.746094 197.816406 96.355469 C 197.34375 95.960938 196.449219 95.765625 195.121094 95.765625 L 191.039062 95.765625 Z M 187.339844 103.15625 L 190.710938 87.058594 L 195.695312 87.058594 C 196.601562 87.058594 197.273438 87.097656 197.714844 87.167969 C 198.429688 87.292969 199.035156 87.511719 199.53125 87.820312 C 200.023438 88.132812 200.40625 88.558594 200.679688 89.09375 C 200.949219 89.636719 201.085938 90.226562 201.085938 90.878906 C 201.085938 91.765625 200.839844 92.546875 200.355469 93.21875 C 199.867188 93.894531 199.125 94.40625 198.121094 94.757812 C 198.988281 95.042969 199.640625 95.472656 200.074219 96.046875 C 200.507812 96.621094 200.722656 97.292969 200.722656 98.0625 C 200.722656 98.945312 200.46875 99.796875 199.960938 100.609375 C 199.449219 101.421875 198.777344 102.046875 197.9375 102.492188 C 197.101562 102.933594 196.164062 103.15625 195.132812 103.15625 L 187.339844 103.15625 "/>
</g>
<g clip-path="url(#clip15)" clip-rule="nonzero">
<path style=" stroke:none;fill-rule:nonzero;fill:rgb(10.496521%,37.882996%,60.351562%);fill-opacity:1;" d="M 210.324219 101.046875 C 208.925781 102.628906 207.496094 103.421875 206.03125 103.421875 C 205.132812 103.421875 204.40625 103.164062 203.851562 102.644531 C 203.300781 102.128906 203.023438 101.5 203.023438 100.75 C 203.023438 100.261719 203.148438 99.417969 203.394531 98.226562 L 204.800781 91.492188 L 206.789062 91.492188 L 205.230469 98.949219 C 205.097656 99.574219 205.03125 100.054688 205.03125 100.398438 C 205.03125 100.839844 205.164062 101.183594 205.433594 101.425781 C 205.699219 101.671875 206.09375 101.792969 206.613281 101.792969 C 207.171875 101.792969 207.714844 101.660156 208.246094 101.386719 C 208.773438 101.117188 209.230469 100.75 209.617188 100.292969 C 210 99.828125 210.316406 99.285156 210.554688 98.65625 C 210.71875 98.253906 210.902344 97.542969 211.117188 96.535156 L 212.171875 91.492188 L 214.15625 91.492188 L 211.71875 103.15625 L 209.886719 103.15625 L 210.324219 101.046875 "/>
</g>
<g clip-path="url(#clip16)" clip-rule="nonzero">
<path style=" stroke:none;fill-rule:nonzero;fill:rgb(10.496521%,37.882996%,60.351562%);fill-opacity:1;" d="M 214.886719 99.171875 L 216.871094 99.050781 C 216.871094 99.621094 216.960938 100.109375 217.136719 100.507812 C 217.3125 100.910156 217.636719 101.242188 218.109375 101.5 C 218.582031 101.753906 219.128906 101.882812 219.761719 101.882812 C 220.640625 101.882812 221.296875 101.707031 221.738281 101.355469 C 222.175781 101.003906 222.394531 100.589844 222.394531 100.113281 C 222.394531 99.769531 222.265625 99.445312 222.003906 99.136719 C 221.730469 98.828125 221.070312 98.449219 220.019531 98 C 218.96875 97.550781 218.296875 97.234375 218.003906 97.050781 C 217.511719 96.75 217.144531 96.398438 216.894531 95.992188 C 216.644531 95.585938 216.523438 95.117188 216.523438 94.59375 C 216.523438 93.667969 216.886719 92.878906 217.617188 92.21875 C 218.351562 91.5625 219.375 91.230469 220.695312 91.230469 C 222.15625 91.230469 223.273438 91.570312 224.039062 92.246094 C 224.800781 92.925781 225.199219 93.816406 225.230469 94.921875 L 223.285156 95.050781 C 223.253906 94.351562 223.007812 93.792969 222.539062 93.382812 C 222.070312 92.972656 221.40625 92.769531 220.550781 92.769531 C 219.863281 92.769531 219.328125 92.925781 218.945312 93.242188 C 218.566406 93.554688 218.378906 93.898438 218.378906 94.261719 C 218.378906 94.628906 218.539062 94.949219 218.871094 95.226562 C 219.089844 95.417969 219.65625 95.710938 220.574219 96.105469 C 222.09375 96.765625 223.054688 97.285156 223.449219 97.664062 C 224.078125 98.273438 224.394531 99.011719 224.394531 99.882812 C 224.394531 100.460938 224.21875 101.03125 223.859375 101.585938 C 223.507812 102.140625 222.964844 102.585938 222.238281 102.921875 C 221.507812 103.253906 220.648438 103.421875 219.660156 103.421875 C 218.3125 103.421875 217.167969 103.085938 216.226562 102.421875 C 215.28125 101.753906 214.835938 100.671875 214.886719 99.171875 "/>
</g>
<g clip-path="url(#clip17)" clip-rule="nonzero">
<path style=" stroke:none;fill-rule:nonzero;fill:rgb(10.496521%,37.882996%,60.351562%);fill-opacity:1;" d="M 228.984375 89.308594 L 229.457031 87.058594 L 231.433594 87.058594 L 230.960938 89.308594 Z M 226.085938 103.15625 L 228.523438 91.492188 L 230.511719 91.492188 L 228.074219 103.15625 L 226.085938 103.15625 "/>
</g>
<g clip-path="url(#clip18)" clip-rule="nonzero">
<path style=" stroke:none;fill-rule:nonzero;fill:rgb(10.496521%,37.882996%,60.351562%);fill-opacity:1;" d="M 231.222656 103.15625 L 233.660156 91.492188 L 235.460938 91.492188 L 235.03125 93.527344 C 235.816406 92.730469 236.546875 92.144531 237.226562 91.78125 C 237.910156 91.414062 238.605469 91.230469 239.3125 91.230469 C 240.257812 91.230469 241 91.488281 241.539062 92 C 242.078125 92.511719 242.347656 93.195312 242.347656 94.054688 C 242.347656 94.484375 242.25 95.167969 242.058594 96.09375 L 240.578125 103.15625 L 238.589844 103.15625 L 240.140625 95.765625 C 240.292969 95.046875 240.371094 94.515625 240.371094 94.171875 C 240.371094 93.785156 240.234375 93.472656 239.96875 93.230469 C 239.699219 92.988281 239.3125 92.867188 238.808594 92.867188 C 237.792969 92.867188 236.886719 93.234375 236.089844 93.964844 C 235.296875 94.699219 234.714844 95.953125 234.339844 97.730469 L 233.210938 103.15625 L 231.222656 103.15625 "/>
</g>
<g clip-path="url(#clip19)" clip-rule="nonzero">
<path style=" stroke:none;fill-rule:nonzero;fill:rgb(10.496521%,37.882996%,60.351562%);fill-opacity:1;" d="M 246.46875 96.304688 L 253.015625 96.304688 C 253.023438 96.101562 253.023438 95.953125 253.023438 95.863281 C 253.023438 94.867188 252.777344 94.105469 252.277344 93.578125 C 251.78125 93.046875 251.140625 92.777344 250.359375 92.777344 C 249.507812 92.777344 248.734375 93.074219 248.035156 93.65625 C 247.335938 94.246094 246.8125 95.125 246.46875 96.304688 Z M 252.246094 99.191406 L 254.179688 99.390625 C 253.902344 100.347656 253.261719 101.257812 252.261719 102.125 C 251.261719 102.988281 250.070312 103.421875 248.6875 103.421875 C 247.824219 103.421875 247.03125 103.21875 246.3125 102.820312 C 245.589844 102.421875 245.042969 101.84375 244.664062 101.082031 C 244.285156 100.320312 244.097656 99.453125 244.097656 98.476562 C 244.097656 97.207031 244.390625 95.96875 244.984375 94.773438 C 245.570312 93.578125 246.335938 92.6875 247.273438 92.105469 C 248.210938 91.523438 249.222656 91.230469 250.3125 91.230469 C 251.703125 91.230469 252.8125 91.664062 253.644531 92.527344 C 254.476562 93.390625 254.890625 94.570312 254.890625 96.0625 C 254.890625 96.632812 254.839844 97.21875 254.738281 97.820312 L 246.152344 97.820312 C 246.121094 98.046875 246.109375 98.253906 246.109375 98.433594 C 246.109375 99.523438 246.359375 100.355469 246.859375 100.933594 C 247.359375 101.507812 247.976562 101.792969 248.699219 101.792969 C 249.382812 101.792969 250.050781 101.570312 250.710938 101.125 C 251.367188 100.679688 251.878906 100.035156 252.246094 99.191406 "/>
</g>
<g clip-path="url(#clip20)" clip-rule="nonzero">
<path style=" stroke:none;fill-rule:nonzero;fill:rgb(10.496521%,37.882996%,60.351562%);fill-opacity:1;" d="M 256.132812 99.171875 L 258.121094 99.050781 C 258.121094 99.621094 258.210938 100.109375 258.382812 100.507812 C 258.5625 100.910156 258.882812 101.242188 259.355469 101.5 C 259.828125 101.753906 260.378906 101.882812 261.011719 101.882812 C 261.886719 101.882812 262.546875 101.707031 262.984375 101.355469 C 263.425781 101.003906 263.644531 100.589844 263.644531 100.113281 C 263.644531 99.769531 263.511719 99.445312 263.25 99.136719 C 262.976562 98.828125 262.316406 98.449219 261.269531 98 C 260.214844 97.550781 259.546875 97.234375 259.253906 97.050781 C 258.761719 96.75 258.390625 96.398438 258.140625 95.992188 C 257.894531 95.585938 257.769531 95.117188 257.769531 94.59375 C 257.769531 93.667969 258.136719 92.878906 258.867188 92.21875 C 259.601562 91.5625 260.625 91.230469 261.941406 91.230469 C 263.40625 91.230469 264.519531 91.570312 265.285156 92.246094 C 266.050781 92.925781 266.449219 93.816406 266.476562 94.921875 L 264.535156 95.050781 C 264.503906 94.351562 264.253906 93.792969 263.785156 93.382812 C 263.320312 92.972656 262.65625 92.769531 261.800781 92.769531 C 261.113281 92.769531 260.574219 92.925781 260.195312 93.242188 C 259.816406 93.554688 259.625 93.898438 259.625 94.261719 C 259.625 94.628906 259.789062 94.949219 260.121094 95.226562 C 260.339844 95.417969 260.90625 95.710938 261.820312 96.105469 C 263.34375 96.765625 264.304688 97.285156 264.699219 97.664062 C 265.328125 98.273438 265.640625 99.011719 265.640625 99.882812 C 265.640625 100.460938 265.464844 101.03125 265.109375 101.585938 C 264.753906 102.140625 264.214844 102.585938 263.484375 102.921875 C 262.757812 103.253906 261.898438 103.421875 260.910156 103.421875 C 259.5625 103.421875 258.417969 103.085938 257.472656 102.421875 C 256.527344 101.753906 256.082031 100.671875 256.132812 99.171875 "/>
</g>
<g clip-path="url(#clip21)" clip-rule="nonzero">
<path style=" stroke:none;fill-rule:nonzero;fill:rgb(10.496521%,37.882996%,60.351562%);fill-opacity:1;" d="M 267.363281 99.171875 L 269.351562 99.050781 C 269.351562 99.621094 269.441406 100.109375 269.613281 100.507812 C 269.792969 100.910156 270.113281 101.242188 270.585938 101.5 C 271.058594 101.753906 271.609375 101.882812 272.238281 101.882812 C 273.117188 101.882812 273.777344 101.707031 274.214844 101.355469 C 274.65625 101.003906 274.875 100.589844 274.875 100.113281 C 274.875 99.769531 274.742188 99.445312 274.480469 99.136719 C 274.207031 98.828125 273.546875 98.449219 272.5 98 C 271.445312 97.550781 270.777344 97.234375 270.484375 97.050781 C 269.992188 96.75 269.621094 96.398438 269.371094 95.992188 C 269.125 95.585938 269 95.117188 269 94.59375 C 269 93.667969 269.367188 92.878906 270.097656 92.21875 C 270.832031 91.5625 271.855469 91.230469 273.171875 91.230469 C 274.636719 91.230469 275.75 91.570312 276.515625 92.246094 C 277.28125 92.925781 277.679688 93.816406 277.707031 94.921875 L 275.765625 95.050781 C 275.734375 94.351562 275.484375 93.792969 275.019531 93.382812 C 274.550781 92.972656 273.886719 92.769531 273.027344 92.769531 C 272.34375 92.769531 271.808594 92.925781 271.425781 93.242188 C 271.046875 93.554688 270.855469 93.898438 270.855469 94.261719 C 270.855469 94.628906 271.019531 94.949219 271.351562 95.226562 C 271.570312 95.417969 272.136719 95.710938 273.050781 96.105469 C 274.574219 96.765625 275.535156 97.285156 275.929688 97.664062 C 276.558594 98.273438 276.871094 99.011719 276.871094 99.882812 C 276.871094 100.460938 276.695312 101.03125 276.339844 101.585938 C 275.984375 102.140625 275.445312 102.585938 274.714844 102.921875 C 273.988281 103.253906 273.128906 103.421875 272.140625 103.421875 C 270.792969 103.421875 269.648438 103.085938 268.703125 102.421875 C 267.761719 101.753906 267.3125 100.671875 267.363281 99.171875 "/>
</g>
<g clip-path="url(#clip22)" clip-rule="nonzero">
<path style=" stroke:none;fill-rule:nonzero;fill:rgb(10.496521%,37.882996%,60.351562%);fill-opacity:1;" d="M 287.007812 98.535156 C 287.007812 99.632812 287.269531 100.464844 287.800781 101.03125 C 288.328125 101.597656 288.996094 101.882812 289.808594 101.882812 C 290.234375 101.882812 290.652344 101.796875 291.070312 101.625 C 291.488281 101.453125 291.875 101.191406 292.234375 100.839844 C 292.59375 100.488281 292.898438 100.085938 293.152344 99.636719 C 293.40625 99.1875 293.605469 98.703125 293.761719 98.183594 C 293.988281 97.457031 294.101562 96.761719 294.101562 96.09375 C 294.101562 95.042969 293.835938 94.222656 293.304688 93.640625 C 292.773438 93.058594 292.109375 92.769531 291.300781 92.769531 C 290.679688 92.769531 290.109375 92.917969 289.597656 93.214844 C 289.085938 93.507812 288.625 93.941406 288.210938 94.515625 C 287.796875 95.085938 287.492188 95.75 287.300781 96.507812 C 287.105469 97.265625 287.007812 97.941406 287.007812 98.535156 Z M 285.019531 98.730469 C 285.019531 96.453125 285.691406 94.570312 287.027344 93.078125 C 288.136719 91.847656 289.585938 91.230469 291.378906 91.230469 C 292.785156 91.230469 293.917969 91.671875 294.777344 92.550781 C 295.636719 93.429688 296.066406 94.613281 296.066406 96.105469 C 296.066406 97.445312 295.796875 98.691406 295.253906 99.84375 C 294.710938 101 293.941406 101.882812 292.941406 102.5 C 291.941406 103.113281 290.890625 103.421875 289.785156 103.421875 C 288.878906 103.421875 288.054688 103.222656 287.308594 102.835938 C 286.566406 102.449219 286 101.898438 285.605469 101.191406 C 285.214844 100.480469 285.019531 99.660156 285.019531 98.730469 "/>
</g>
<g clip-path="url(#clip23)" clip-rule="nonzero">
<path style=" stroke:none;fill-rule:nonzero;fill:rgb(10.496521%,37.882996%,60.351562%);fill-opacity:1;" d="M 297.4375 103.15625 L 299.554688 93.03125 L 297.777344 93.03125 L 298.097656 91.492188 L 299.875 91.492188 L 300.214844 89.835938 C 300.390625 89.011719 300.570312 88.414062 300.757812 88.046875 C 300.945312 87.683594 301.246094 87.378906 301.667969 87.140625 C 302.089844 86.902344 302.664062 86.785156 303.386719 86.785156 C 303.890625 86.785156 304.625 86.890625 305.582031 87.101562 L 305.222656 88.835938 C 304.546875 88.664062 303.984375 88.574219 303.53125 88.574219 C 303.144531 88.574219 302.847656 88.671875 302.648438 88.863281 C 302.445312 89.058594 302.273438 89.519531 302.125 90.242188 L 301.863281 91.492188 L 304.078125 91.492188 L 303.761719 93.03125 L 301.542969 93.03125 L 299.425781 103.15625 L 297.4375 103.15625 "/>
</g>
<g clip-path="url(#clip24)" clip-rule="nonzero">
<path style=" stroke:none;fill-rule:nonzero;fill:rgb(10.496521%,37.882996%,60.351562%);fill-opacity:1;" d="M 310.195312 103.15625 L 313.566406 87.058594 L 315.707031 87.058594 L 312.347656 103.15625 L 310.195312 103.15625 "/>
</g>
<g clip-path="url(#clip25)" clip-rule="nonzero">
<path style=" stroke:none;fill-rule:nonzero;fill:rgb(10.496521%,37.882996%,60.351562%);fill-opacity:1;" d="M 320.230469 103.15625 L 323.207031 88.894531 L 317.929688 88.894531 L 318.3125 87.058594 L 330.980469 87.058594 L 330.597656 88.894531 L 325.359375 88.894531 L 322.386719 103.15625 L 320.230469 103.15625 "/>
</g>
<path style=" stroke:none;fill-rule:nonzero;fill:rgb(10.496521%,37.882996%,60.351562%);fill-opacity:1;" d="M 334.101562 88.859375 L 334.84375 88.859375 C 335.199219 88.859375 335.445312 88.808594 335.574219 88.703125 C 335.703125 88.597656 335.765625 88.453125 335.765625 88.28125 C 335.765625 88.167969 335.734375 88.066406 335.675781 87.976562 C 335.609375 87.886719 335.523438 87.820312 335.414062 87.777344 C 335.304688 87.734375 335.097656 87.714844 334.800781 87.714844 L 334.101562 87.714844 Z M 333.488281 91 L 333.488281 87.195312 L 334.792969 87.195312 C 335.238281 87.195312 335.5625 87.230469 335.761719 87.304688 C 335.964844 87.375 336.121094 87.496094 336.242188 87.667969 C 336.359375 87.847656 336.417969 88.03125 336.417969 88.226562 C 336.417969 88.507812 336.320312 88.746094 336.121094 88.953125 C 335.921875 89.160156 335.660156 89.277344 335.332031 89.300781 C 335.46875 89.355469 335.574219 89.425781 335.65625 89.5 C 335.808594 89.652344 335.996094 89.902344 336.21875 90.253906 L 336.679688 91 L 335.929688 91 L 335.59375 90.402344 C 335.328125 89.929688 335.113281 89.636719 334.953125 89.515625 C 334.839844 89.429688 334.675781 89.386719 334.460938 89.386719 L 334.101562 89.386719 L 334.101562 91 Z M 335.039062 86.09375 C 334.539062 86.09375 334.058594 86.222656 333.585938 86.476562 C 333.117188 86.730469 332.75 87.097656 332.484375 87.570312 C 332.21875 88.042969 332.085938 88.535156 332.085938 89.046875 C 332.085938 89.558594 332.21875 90.046875 332.476562 90.511719 C 332.738281 90.976562 333.101562 91.34375 333.570312 91.601562 C 334.039062 91.863281 334.527344 91.992188 335.039062 91.992188 C 335.546875 91.992188 336.035156 91.863281 336.503906 91.601562 C 336.972656 91.34375 337.335938 90.976562 337.59375 90.511719 C 337.851562 90.046875 337.984375 89.558594 337.984375 89.046875 C 337.984375 88.535156 337.851562 88.042969 337.589844 87.570312 C 337.324219 87.097656 336.957031 86.730469 336.484375 86.476562 C 336.011719 86.222656 335.53125 86.09375 335.039062 86.09375 Z M 335.039062 85.511719 C 335.628906 85.511719 336.210938 85.664062 336.773438 85.96875 C 337.339844 86.273438 337.78125 86.707031 338.097656 87.273438 C 338.410156 87.84375 338.570312 88.433594 338.570312 89.046875 C 338.570312 89.65625 338.414062 90.242188 338.101562 90.804688 C 337.792969 91.367188 337.359375 91.800781 336.796875 92.113281 C 336.234375 92.425781 335.648438 92.578125 335.039062 92.578125 C 334.425781 92.578125 333.839844 92.425781 333.277344 92.113281 C 332.71875 91.800781 332.28125 91.367188 331.96875 90.804688 C 331.65625 90.242188 331.5 89.65625 331.5 89.046875 C 331.5 88.433594 331.660156 87.84375 331.976562 87.273438 C 332.292969 86.707031 332.734375 86.273438 333.300781 85.96875 C 333.863281 85.664062 334.441406 85.511719 335.039062 85.511719 "/>
</g>
</svg>
