<?xml version="1.0" encoding="utf-8"?>
<!-- Generator: Adobe Illustrator 18.0.0, SVG Export Plug-In . SVG Version: 6.00 Build 0)  -->
<!DOCTYPE svg PUBLIC "-//W3C//DTD SVG 1.1//EN" "http://www.w3.org/Graphics/SVG/1.1/DTD/svg11.dtd">
<svg version="1.1" id="Objects" xmlns="http://www.w3.org/2000/svg" xmlns:xlink="http://www.w3.org/1999/xlink" x="0px" y="0px"
	 width="437.5px" height="437.5px" viewBox="0 0 437.5 437.5" enable-background="new 0 0 437.5 437.5" xml:space="preserve">
<g>
	<path fill-rule="evenodd" clip-rule="evenodd" fill="#37BDD3" d="M218.8,0c120.8,0,218.8,97.9,218.8,218.8s-97.9,218.8-218.8,218.8
		C97.9,437.5,0,339.6,0,218.8S97.9,0,218.8,0L218.8,0z"/>
	<path fill-rule="evenodd" clip-rule="evenodd" fill="#99DD5E" d="M383,74.3c33.9,38.5,54.5,89.1,54.5,144.5c0,4.5-0.1,9-0.4,13.4
		c-5.3,0.1-12.5,3.2-9.5,8.3c3,5.3,5.3,9.1,5.7,11.4c0.4,2.3-3.8,4.2-6.1,8.3c-2.3,4.2-5.3,1.9-8.3-1.5c-3-3.4-7.6-6.8-7.6-3.8
		c0,3,0,8.7,2.7,9.9c2.7,1.1,8,7.2,8,12.5c0,5.3-3.4-1.2-6.4-2.7c-3-1.5-1.9-8-4.9-9.9c-3-1.9-4.6-3.8-1.9-9.1
		c2.7-5.3-0.4-8.7-4.9-8.7c-4.5,0-1.1-6.8-4.9-9.1c-3.8-2.3-8-4.9-13.3-1.9c-5.3,3-11.4,8.7-13.3,9.1c-1.9,0.4-0.8,6.5-1.9,10.2
		c-1.1,3.8-3,6.8-5.7,6.5c-2.7-0.4-6.5-9.5-9.9-13.7c-3.4-4.2,1.5-15.5-1.9-15.5c-3.4,0-6.5-1.5-11.8-6.1c-5.3-4.5-4.9-3.8-11.8-3.8
		c-6.8,0-5.7,3-9.8,0c-4.2-3-8.4,0.4-11-5.7c-2.7-6.1-7.6-4.9-5.3-1.2c2.3,3.8,5.7,10.6,9.5,9.1c3.8-1.5,8.3-0.4,10.6,2.3
		c2.3,2.7-5.3,11.8-6.5,14.8c-1.1,3-11.4,4.9-14.8,7.2c-3.4,2.3-7.6,8.3-11,0.4c-3.4-8-11-16.7-13.6-23.9c-2.7-7.2-5.3-11.8-8-11.4
		c-2.7,0.4,3.4,14,6.1,19c2.7,4.9,5.7,12.9,10.3,17.5c4.5,4.5,9.5,6.4,13.6,4.9c4.2-1.5,8.7-1.9,5.7,5.3c-3,7.2-11,17.5-15.6,20.9
		c-4.5,3.4-5.7,11.4-8.3,12.5c-2.7,1.2,0.8,3,2.3,6.1c1.5,3,1.9,12.9,0,16.7c-1.9,3.8-5.3,8.3-8.3,8.7c-3,0.4-3.4,5.7-1.1,7.2
		c2.3,1.5-0.8,4.9-5.3,5.3c-4.5,0.4,0.4,14-3.8,14.4c-4.2,0.4-9.1,5.7-15.2,6.5c-6.1,0.8-13.3,3.4-15.9-1.5c-2.7-4.9,1.9-8-2.7-13.3
		c-4.6-5.3-1.9-9.9-5.3-14.8c-3.4-4.9-6.8-13.6-3.4-18.2c3.4-4.5,4.9-8,1.9-9.1c-3-1.1,1.5-6.5-2.7-9.1c-4.2-2.7-6.8-9.9-5.3-13.3
		c1.5-3.4,1.9-9.1-3-9.1c-4.9,0-12.9-3.8-17.8-2.3c-4.9,1.5-8.7,2.7-12.2,3.8c-3.4,1.1-9.5-5.7-14.4-10.6
		c-4.9-4.9-14-12.5-10.2-15.9c3.8-3.4,1.5-4.2-0.4-6.9c-1.9-2.7,0.8-8,2.7-10.6c1.9-2.7,3-11.8,6.8-12.2c3.8-0.4,6.5-4.6,6.5-8
		c0-3.4,2.7-6.5,6.5-7.2c3.8-0.8,4.5-3.4,11.4-3.4c6.9,0,8.7-3.4,16-3.4c7.2,0,12.5-2.7,11.8,3c-0.8,5.7,6.5,6.8,10.2,9.1
		c3.8,2.3,9.1,5.3,10.6,1.9c1.5-3.4,6.5-2.3,10.6-1.5c4.2,0.8,11.4,2.3,15.2,1.9c3.8-0.4,7.6-3.8,8-7.2c0.4-3.4-4.9-4.2-11.4-4.2
		s-9.1-1.1-8-4.9c1.1-3.8,3-7.2,6.4-8.7c3.4-1.5,6.5-2.3,9.9-2.3c3.4,0,8,2.7,12.2,2.3c4.2-0.4,2.7-4.2-1.5-6.4
		c-4.2-2.3-4.9-5.7-3-7.6c1.9-1.9,0.8-3.8-2.7-1.9c-3.4,1.9-8.3,6.9-9.5,3.8c-1.2-3-9.5-0.4-9.5,4.2c0,4.5,1.2,5.3-0.4,8.3
		c-1.5,3-4.9,5.3-8,4.9c-3-0.4,0.4,5.3-2.7,6.8c-3,1.5-4.5-2.3-6.5-6.1c-1.9-3.8-3.4-6.1-5.3-8.3c-1.9-2.3-3-3.4-5.7-5.7
		c-2.7-2.3-4.9-0.8-2.3,1.9c2.7,2.7,3.4,3.8,6.5,3.8c3,0,1.5,5.3,0.8,7.6c-0.8,2.3-4.9,9.5-4.9,4.2c0-5.3-0.4-9.1-4.6-10.6
		c-4.2-1.5-4.9-5.7-11-5.7c-6.1,0-13.3-1.5-12.2,2.7c1.2,4.2,0.4,8-1.9,8c-2.3,0-4.9,0.4-4.5,3c0.4,2.7-0.8,2.3-2.7,3.8
		c-1.9,1.5-4.9,3.4-8,1.5c-3-1.9-9.1,1.2-9.1-2.7c0-3.8-2.7-5.3-0.8-8.7c1.9-3.4,0-6.8,3.8-6.8c3.8,0,4.6,0.8,8.7,0.8
		s7.6-4.2,4.2-7.2c-3.4-3-2.3-7.2-0.4-10.6c1.9-3.4,3-1.9,7.6-3c4.5-1.2,9.1-4.6,11.8-7.2c2.7-2.7,1.9-8.3,4.9-8.3
		c3,0,1.1,3.4,6.1,3.4c4.9,0,6.1-1.9,10.3-1.9s7.2,3.4,10.2,0.8c3-2.7-2.3-7.2,2.3-7.2c4.5,0,8.3,0.4,4.9-3
		c-3.4-3.4,1.1-1.5,4.9-3.4c3.8-1.9,3.4-4.9-1.2-4.2c-4.5,0.8-8.3,3.4-10.2-1.1c-1.9-4.6,3.8-9.9,6.8-13.3c3-3.4-4.9-4.9-6.1-0.8
		c-1.1,4.2-5.7,6.1-7.2,10.2c-1.5,4.2,4.2,8,1.2,11c-3,3-4.2,6.4-6.9,6.4c-2.7,0-4.9,5.7-6.1,1.9c-1.1-3.8-3.4-8-6.1-6.1
		c-2.7,1.9-2.3,8.3-5.7,3c-3.4-5.3-6.5-12.9-2.7-17.1c3.8-4.2,9.1-7.6,12.1-11.8c3-4.2,10.3-14,15.6-15.2c5.3-1.2,12.9-8,19-5.3
		c6.1,2.7,8.3,1.9,12.9,5.3c4.5,3.4,4.2,5.3,9.1,6.1c4.9,0.8,6.1,7.2,0,7.2c-6.1,0-9.9-3.4-12.2-1.5c-2.3,1.9,2.3,3.8,4.5,6.5
		c2.3,2.7,6.5,4.5,8.3,3.4c1.9-1.1-3.8-4.9,0.4-3.8c4.2,1.2,8.3,1.5,5.7-0.8c-2.7-2.3,1.1-3,5.3-3c4.2,0-1.5-9.1,2.7-9.1
		c4.2,0,0.8,9.9,3.8,7.2c3-2.7,6.8-5.7,12.2-6.9c5.3-1.1-1.2,4.2,3.8,2.3c4.9-1.9,10.6-3.4,14-3.4c3.4,0,0.8-3.8,4.2-3.8
		c3.4,0,4.9,4.6,9.5,4.6c4.5,0,1.9-1.2,1.9-4.6c0-3.4,2.7-12.9,6.5-13.6c3.8-0.8,2.7,4.9,3.8,11c1.2,6.1-0.4,8.3-3,11.8
		c-2.7,3.4-0.8,6.1,4.5,3.8c5.3-2.3,2.7-6.1,5.3-6.1c2.7,0,5.3,4.5,9.1,4.5c3.8,0,0.4-5.7-3.8-7.6c-4.2-1.9-9.9-0.4-8.3-3.4
		c1.5-3-3.4-8.3,1.1-11c4.6-2.7-2.7,8.4,4.9,4.9c7.6-3.4,1.5-3,5.3-3.8c3.8-0.8,5,2.7,5.8,4.9c0.8,2.2,5.6,6.5,7.5,9.5
		c1.8,2.9,3.2,3.8,3.2,1.1c0-2.7-2.4-6.2-4-7.3c-1.6-1.1,0.5-7.4-3.1-8.9c-3.6-1.5-6-6-1.4-6.5C379.9,76.7,380.9,76.3,383,74.3
		L383,74.3z M436.7,236.9c-0.1,0.8-0.1,1.6-0.2,2.4c-0.2,0.2-0.5,0.3-0.9,0.2c-2.1-0.6-2.8-3.9-0.5-4.3
		C435.9,235.2,436.5,236,436.7,236.9L436.7,236.9z M425.5,290.3c-0.6,1.9-1.3,3.7-2,5.6c-2.8-0.3-7.2-3.2-9.6-6
		c-3.7-4.4-10.3-13.4-4.6-13.8C415.1,275.4,423.2,284.1,425.5,290.3L425.5,290.3z M65.4,374.7c-9.1-9-17.4-18.7-24.8-29.1
		c0-0.1,0-0.2,0-0.3c0-4.7,6.8-5.8,4.7-9.7c-2.1-4,0.4-8.7-2.1-10.8c-2.5-2.2-5.8-8.3-9.7-8.3c-3.9,0-3.2-3.9-3.2-7.2
		c0-3.2-7.9-9-10.1-13.3c-2.2-4.3-2.5-11.9,1.4-13.7c3.9-1.8,2.2-7.2,6.1-8.3c3.9-1.1,1.4-5.4,0-8.3c-1.4-2.9-10.4,0-12.2-2.9
		c-1.8-2.9-2.1-11.1-8.3-11.1c-1.8,0-3.3-0.5-4.7-1.2c-0.8-5.2-1.4-10.6-1.7-15.9c3.9-3.5,8.8-7.1,8.8-4.3c0,3.6-3.8,15.7,1.6,15.7
		c5.4,0,1.8,3.9,3.9,7.6c2.2,3.6,5.8,6.1,8.7,5c2.9-1.1,7.9,1.1,10.8-0.7c2.9-1.8,5.8-5.4,7.2-1.8c1.4,3.6,7.2,2.2,10.8,2.2
		c3.6,0,8.6-1.1,14.7,2.5c6.1,3.6,11.2,8.6,15.8,8.6c4.7,0,3.9,4.7,3.9,9.4c0,4.7,6.1,4.7,12.6,6.9c6.5,2.1,9.4,1.8,15.8,5.8
		c6.5,3.9,7.9,6.1,4.7,10.8c-3.2,4.7-10.1,11.9-10.4,18.7c-0.4,6.9-4.7,13.3-9.4,14c-4.7,0.7-9,4.3-9,7.6c0,3.2-4.3,1.8-4.7,7.9
		c-0.4,6.1-5.8,12.9-8.3,11.9c-2.5-1.1-11.5-6.1-7.9-1.1c3.6,5,4.3,7.6,0.4,9.4C69.1,371.2,67.2,373,65.4,374.7L65.4,374.7z
		 M0.1,214c0.5-24.8,5.2-48.5,13.3-70.6c3.3,1.2,5.6,2.5,5.6,4.3c0,3.2,4.3,11.9,4.7,5c0.3-6.9,0.3-11.2,3.2-11.2
		c2.9,0,0.3-3.6-0.7-8.6c-1.1-5-2.2-12.2,5-13c5.8-0.7,15.5,5.8,15.5,9c0,3.2,1.8,5,5.4,3.9c3.6-1.1,0.4-4.7,5-4.3
		c4.7,0.4,3.9,9,6.8,11.9c2.9,2.9,8.3,3.9,7.2,6.5c-1.1,2.5,7.9,8.6,1.8,8.6c-6.1,0-9,1.8-10.4,4.3c-1.4,2.5-2.1,0.4-4.7-1.4
		c-2.5-1.8-12.2,2.9-8.6,2.9c3.6,0,10.4,5.4,6.5,10.4c-4,5-8.3,5-10.8,7.6c-2.5,2.5-2.9,6.9-6.9,6.9c-3.9,0-6.1,9-6.1,12.2
		c0,3.2-6.8,5.4-8.6,8.3c-1.8,2.9-0.4,5.8-0.4,10.8c0,5-1.8,4.3-6.1-1.4c-4.3-5.8-11.1-3.9-14.7-2.5C1.4,213.8,0.7,213.9,0.1,214
		L0.1,214z M26.5,114.3c0.8-1.4,1.5-2.7,2.3-4c0.1,0,0.1,0,0.2,0c5.4-0.4,4-4.7,7.2-7.2c2.8-2.2,3.2-2.5,0-4.8
		c2.3-3.5,4.6-6.9,7.1-10.2c1.4,0.4,2.7,0.7,3.7,0.9c5.8,1.4,3.6,10.4,8.7,12.2c5,1.8,7.6,9.4,2.5,7.9c-5-1.4-8.6,0.3-3.9,4.7
		c4.7,4.3,1.4,9.7-2.2,8.3c-3.6-1.4-14.7-5.8-20.9-6.1C29,115.9,27.4,115.1,26.5,114.3L26.5,114.3z M59.1,69.2
		c10.7-11.5,22.7-21.8,35.7-30.7c8.2,4.7,1.4-1.7,5.8-1.7c2.1,0,1.6-1.4,1.3-3c1.9-1.2,3.8-2.4,5.8-3.5c6.4-0.5,7.2-4.7,16.7-4.7
		c12.6,0,35.3,10.5,23.8,9c-11.5-1.4-27-1.8-19.8,2.5c7.2,4.3,8.6-3.9,11.1,0c2.5,3.9,6.9,0,9.7,2.5c2.9,2.5,6.9,1.8,10.4,0
		c3.6-1.8,14.4,4.3,8.3,5c-6.1,0.7-15.8,0.7-12.6,3.6c3.2,2.9-5.4,5.4-0.7,7.9c4.7,2.5,3.2,8.3-1.4,8.3c-4.7,0,0.4,3.2-3.2,6.8
		c-3.6,3.6-2.5,6.1-7.6,6.1c-5,0,6.1,7.9,0.3,7.9c-5.8,0-7.6,7.2-1.8,6.5c5.8-0.7,5.4,1.8-0.7,4.7c-6.1,2.9-15.8,2.9-18.7,7.6
		c-2.9,4.7-13.7,4.3-13.7,8.6c0,4.3-1.8,20.2-10.1,17.3c-8.3-2.9-10.1-11.2-13.3-16.2c-3.2-5,1.8-10.4-1.4-12.2
		c-3.2-1.8,7.2-10.1,3.6-7.6c-3.6,2.5-9.4-1.1-4.3-2.1c5-1.1,3.2-6.1-0.4-5c-3.6,1.1-7.6-0.7-2.9-4.3c4.7-3.6,2.5-2.5-0.7-3.6
		c-3.2-1.1-1.8-7.9-8.3-9.3C66.5,68.8,62.6,69.2,59.1,69.2L59.1,69.2z M370.9,260.3c2.7-0.5,4.9,5.1,1.5,6.3
		C368.9,267.9,367.2,259.8,370.9,260.3L370.9,260.3z M355.3,264.5c1.2-0.6,2.2-0.1,1.9,1.1c-0.2,1.2-1.3,2.7-2.3,1.4
		C353.8,265.7,353.9,264.9,355.3,264.5L355.3,264.5z M358,267.4c1.2-0.6,2.2-0.1,1.9,1.1c-0.3,1.2-1.3,2.7-2.3,1.4
		C356.5,268.6,356.6,267.8,358,267.4L358,267.4z M356.7,272.1c1.2-0.6,2.2-0.1,1.9,1.1c-0.3,1.2-1.3,2.7-2.3,1.4
		C355.3,273.3,355.4,272.5,356.7,272.1L356.7,272.1z M358.5,276.7c1.2-0.6,2.2-0.1,1.9,1.1c-0.2,1.2-1.3,2.7-2.3,1.4
		C357,277.9,357.1,277.1,358.5,276.7L358.5,276.7z M309.2,254.2c1.2-0.6,2.2-0.1,1.9,1.1c-0.3,1.2-1.3,2.7-2.3,1.4
		C307.8,255.4,307.9,254.6,309.2,254.2L309.2,254.2z M354.3,253.9c1.2-0.6,2.2-0.1,1.9,1.1c-0.3,1.2-1.3,2.7-2.3,1.4
		C352.8,255.2,352.9,254.3,354.3,253.9L354.3,253.9z M399.6,263.3c1.2-0.6,2.2-0.1,1.9,1.1c-0.2,1.2-1.3,2.7-2.3,1.4
		C398.1,264.5,398.2,263.6,399.6,263.3L399.6,263.3z M313.6,265.7c1.2-0.6,2.2-0.1,1.9,1.1c-0.2,1.2-1.3,2.7-2.3,1.4
		C312.2,266.9,312.3,266.1,313.6,265.7L313.6,265.7z M302.8,309c4.4-0.3,4.4,5.1,1.5,7.6c-2.9,2.5,3,14.7-0.2,15.9
		c-3.2,1.2-5.4,9.1-9.3,9.8c-3.9,0.7-2.2-8.3-4.4-10.8c-2.2-2.5-0.2-9.8,2-11.5C294.5,318.3,299.6,309.3,302.8,309L302.8,309z
		 M289.9,307.6c1.2-0.6,2.2-0.1,1.9,1.1c-0.3,1.2-1.3,2.7-2.3,1.4C288.4,308.8,288.5,308,289.9,307.6L289.9,307.6z M316.1,290.7
		c1.2-0.6,2.2-0.1,1.9,1.1c-0.3,1.2-1.3,2.7-2.3,1.4C314.6,291.9,314.7,291.1,316.1,290.7L316.1,290.7z M196.8,138.1
		c1.2-0.6,2.2-0.1,1.9,1.1c-0.3,1.2-1.3,2.7-2.3,1.4C195.3,139.3,195.4,138.5,196.8,138.1L196.8,138.1z M199.3,150.8
		c1.2-0.6,2.2-0.1,1.9,1.1c-0.2,1.2-1.3,2.7-2.3,1.4C197.8,152,197.9,151.2,199.3,150.8L199.3,150.8z M158.1,212.8
		c1.2-0.6,2.2-0.1,1.9,1.1c-0.3,1.2-1.3,2.7-2.3,1.4C156.7,214,156.8,213.2,158.1,212.8L158.1,212.8z M160.7,203.5
		c1.2-0.6,2.2-0.1,1.9,1.1c-0.3,1.2-1.3,2.7-2.3,1.4C159.2,204.7,159.3,203.9,160.7,203.5L160.7,203.5z M153.9,205.2
		c1.2-0.6,2.2-0.1,1.9,1.1c-0.2,1.2-1.3,2.7-2.3,1.4C152.5,206.4,152.5,205.6,153.9,205.2L153.9,205.2z M340.1,62.6
		c5.6-0.4,0.9,6.4-3.9,6.4c-4.7,0-15.8,9.4-17.1,14.2c-1.3,4.7-0.8,11.2-5.6,6.9c-4.7-4.3-4.7-13.3,1.3-14.6c6-1.3,3.4-10.7,12-10.7
		C335.4,64.8,330.2,60.1,340.1,62.6L340.1,62.6z M187.8,134.3c6-0.8,6.4,6.9,5.6,9.9c-0.8,3,5.2,12.4-0.4,12.4
		c-5.6,0-9.9,6-10.7,0.4c-0.9-5.6-1.3-5.1,3.9-7.3C191.2,147.6,184,133.8,187.8,134.3L187.8,134.3z M178.8,143.3
		c3.4-0.5,3.4,6.4,1.7,10.3c-1.7,3.8-6.4,2.6-5.6-1.3C175.8,148.4,172.8,142.4,178.8,143.3L178.8,143.3z M158.6,108.1
		c5.6-1.7,8.6,2.6,5.6,6c-3,3.4-9.4,7.3-15.5,2.6c-6-4.7-2.1-12,1.7-10.3C154.3,108.1,155.6,107.7,158.6,108.1L158.6,108.1z
		 M179.2,86.2c3,0,5.2,5.1,1.3,5.1S174.1,85.8,179.2,86.2L179.2,86.2z M236.7,48.9c9,0,6.4,2.1,10.7,5.2c4.3,3-1.3,10.3-7.3,6
		c-6-4.3-2.6,6-7.7,2.1c-5.1-3.9-6-6.9-0.4-7.3c5.6-0.4-5.1-4.7-7.7-1.7c-2.6,3-8.1-7.3-0.4-7.3C231.6,45.9,229.8,46.3,236.7,48.9
		L236.7,48.9z M72.9,157.3c5.7-0.3,6.5,4,8.1,7.5c1.6,3.5,0.5,7-4.9,4.6c-5.4-2.4-8.4-2.4-6.2-7.6C72.1,156.8,69.4,157,72.9,157.3
		L72.9,157.3z M59.2,172.1c3.5-1.1,4.3,4.6,1.3,4.6C57.6,176.7,56,172.7,59.2,172.1L59.2,172.1z M54.7,175c2.6-0.8,3.2,3.4,1,3.4
		C53.5,178.5,52.3,175.5,54.7,175L54.7,175z M27.8,222.2c4.5,0,8.4,7.1,5.2,5.2c-3.2-1.9-5,1.1-7.1,0
		C23.9,226.4,24.5,222.8,27.8,222.2L27.8,222.2z M20,228.2c3.9,0,6.5,4.5,2.4,4.1C18.3,232,15.5,227.7,20,228.2L20,228.2z
		 M28.7,232.7c3.7-0.2,6.7,3.2,3,3.2C28,235.9,25,232.7,28.7,232.7L28.7,232.7z M43.7,237.2c3.2-0.2,2.8,5-0.6,5
		C39.7,242.2,36,237.2,43.7,237.2L43.7,237.2z M51.7,240.3c3,0,6,2.6,1.7,2.4C49,242.6,46.2,240,51.7,240.3L51.7,240.3z
		 M300.6,171.6c-5.1,3.8-6.4,7.7-1.3,12.2c5.1,4.5-2.6,7.7,8.3,9.6c10.9,1.9,23.6-7.7,8.8-11.6C301.7,178,320.7,169.3,300.6,171.6
		L300.6,171.6z"/>
</g>
</svg>
