<svg xmlns="http://www.w3.org/2000/svg" width="437.5" height="437.5"><g fill-rule="evenodd" clip-rule="evenodd"><path fill="#37BDD3" d="M218.8 0c120.8 0 218.8 97.9 218.8 218.8s-97.9 218.8-218.8 218.8C97.9 437.5 0 339.6 0 218.8S97.9 0 218.8 0z"/><path fill="#99DD5E" d="M383 74.3c33.9 38.5 54.5 89.1 54.5 144.5 0 4.5-.1 9-.4 13.4-5.3.1-12.5 3.2-9.5 8.3 3 5.3 5.3 9.1 5.7 11.4.4 2.3-3.8 4.2-6.1 8.3-2.3 4.2-5.3 1.9-8.3-1.5-3-3.4-7.6-6.8-7.6-3.8s0 8.7 2.7 9.9c2.7 1.1 8 7.2 8 12.5s-3.4-1.2-6.4-2.7c-3-1.5-1.9-8-4.9-9.9-3-1.9-4.6-3.8-1.9-9.1 2.7-5.3-.4-8.7-4.9-8.7s-1.1-6.8-4.9-9.1c-3.8-2.3-8-4.9-13.3-1.9-5.3 3-11.4 8.7-13.3 9.1-1.9.4-.8 6.5-1.9 10.2-1.1 3.8-3 6.8-5.7 6.5-2.7-.4-6.5-9.5-9.9-13.7-3.4-4.2 1.5-15.5-1.9-15.5s-6.5-1.5-11.8-6.1c-5.3-4.5-4.9-3.8-11.8-3.8-6.8 0-5.7 3-9.8 0-4.2-3-8.4.4-11-5.7-2.7-6.1-7.6-4.9-5.3-1.2 2.3 3.8 5.7 10.6 9.5 9.1s8.3-.4 10.6 2.3c2.3 2.7-5.3 11.8-6.5 14.8-1.1 3-11.4 4.9-14.8 7.2-3.4 2.3-7.6 8.3-11 .4-3.4-8-11-16.7-13.6-23.9-2.7-7.2-5.3-11.8-8-11.4-2.7.4 3.4 14 6.1 19 2.7 4.9 5.7 12.9 10.3 17.5 4.5 4.5 9.5 6.4 13.6 4.9 4.2-1.5 8.7-1.9 5.7 5.3-3 7.2-11 17.5-15.6 20.9-4.5 3.4-5.7 11.4-8.3 12.5-2.7 1.2.8 3 2.3 6.1 1.5 3 1.9 12.9 0 16.7-1.9 3.8-5.3 8.3-8.3 8.7-3 .4-3.4 5.7-1.1 7.2s-.8 4.9-5.3 5.3c-4.5.4.4 14-3.8 14.4-4.2.4-9.1 5.7-15.2 6.5-6.1.8-13.3 3.4-15.9-1.5-2.7-4.9 1.9-8-2.7-13.3-4.6-5.3-1.9-9.9-5.3-14.8s-6.8-13.6-3.4-18.2c3.4-4.5 4.9-8 1.9-9.1-3-1.1 1.5-6.5-2.7-9.1-4.2-2.7-6.8-9.9-5.3-13.3 1.5-3.4 1.9-9.1-3-9.1s-12.9-3.8-17.8-2.3-8.7 2.7-12.2 3.8c-3.4 1.1-9.5-5.7-14.4-10.6-4.9-4.9-14-12.5-10.2-15.9 3.8-3.4 1.5-4.2-.4-6.9s.8-8 2.7-10.6c1.9-2.7 3-11.8 6.8-12.2 3.8-.4 6.5-4.6 6.5-8 0-3.4 2.7-6.5 6.5-7.2 3.8-.8 4.5-3.4 11.4-3.4s8.7-3.4 16-3.4c7.2 0 12.5-2.7 11.8 3-.8 5.7 6.5 6.8 10.2 9.1 3.8 2.3 9.1 5.3 10.6 1.9s6.5-2.3 10.6-1.5c4.2.8 11.4 2.3 15.2 1.9 3.8-.4 7.6-3.8 8-7.2.4-3.4-4.9-4.2-11.4-4.2s-9.1-1.1-8-4.9c1.1-3.8 3-7.2 6.4-8.7 3.4-1.5 6.5-2.3 9.9-2.3 3.4 0 8 2.7 12.2 2.3 4.2-.4 2.7-4.2-1.5-6.4-4.2-2.3-4.9-5.7-3-7.6 1.9-1.9.8-3.8-2.7-1.9-3.4 1.9-8.3 6.9-9.5 3.8-1.2-3-9.5-.4-9.5 4.2 0 4.5 1.2 5.3-.4 8.3-1.5 3-4.9 5.3-8 4.9-3-.4.4 5.3-2.7 6.8-3 1.5-4.5-2.3-6.5-6.1-1.9-3.8-3.4-6.1-5.3-8.3-1.9-2.3-3-3.4-5.7-5.7-2.7-2.3-4.9-.8-2.3 1.9 2.7 2.7 3.4 3.8 6.5 3.8 3 0 1.5 5.3.8 7.6-.8 2.3-4.9 9.5-4.9 4.2s-.4-9.1-4.6-10.6c-4.2-1.5-4.9-5.7-11-5.7s-13.3-1.5-12.2 2.7c1.2 4.2.4 8-1.9 8s-4.9.4-4.5 3c.4 2.7-.8 2.3-2.7 3.8-1.9 1.5-4.9 3.4-8 1.5-3-1.9-9.1 1.2-9.1-2.7 0-3.8-2.7-5.3-.8-8.7 1.9-3.4 0-6.8 3.8-6.8s4.6.8 8.7.8 7.6-4.2 4.2-7.2c-3.4-3-2.3-7.2-.4-10.6 1.9-3.4 3-1.9 7.6-3 4.5-1.2 9.1-4.6 11.8-7.2 2.7-2.7 1.9-8.3 4.9-8.3 3 0 1.1 3.4 6.1 3.4 4.9 0 6.1-1.9 10.3-1.9s7.2 3.4 10.2.8c3-2.7-2.3-7.2 2.3-7.2 4.5 0 8.3.4 4.9-3-3.4-3.4 1.1-1.5 4.9-3.4 3.8-1.9 3.4-4.9-1.2-4.2-4.5.8-8.3 3.4-10.2-1.1-1.9-4.6 3.8-9.9 6.8-13.3 3-3.4-4.9-4.9-6.1-.8-1.1 4.2-5.7 6.1-7.2 10.2-1.5 4.2 4.2 8 1.2 11s-4.2 6.4-6.9 6.4-4.9 5.7-6.1 1.9c-1.1-3.8-3.4-8-6.1-6.1-2.7 1.9-2.3 8.3-5.7 3-3.4-5.3-6.5-12.9-2.7-17.1 3.8-4.2 9.1-7.6 12.1-11.8 3-4.2 10.3-14 15.6-15.2 5.3-1.2 12.9-8 19-5.3s8.3 1.9 12.9 5.3c4.5 3.4 4.2 5.3 9.1 6.1 4.9.8 6.1 7.2 0 7.2s-9.9-3.4-12.2-1.5c-2.3 1.9 2.3 3.8 4.5 6.5 2.3 2.7 6.5 4.5 8.3 3.4 1.9-1.1-3.8-4.9.4-3.8 4.2 1.2 8.3 1.5 5.7-.8-2.7-2.3 1.1-3 5.3-3 4.2 0-1.5-9.1 2.7-9.1s.8 9.9 3.8 7.2 6.8-5.7 12.2-6.9c5.3-1.1-1.2 4.2 3.8 2.3 4.9-1.9 10.6-3.4 14-3.4 3.4 0 .8-3.8 4.2-3.8 3.4 0 4.9 4.6 9.5 4.6 4.5 0 1.9-1.2 1.9-4.6 0-3.4 2.7-12.9 6.5-13.6 3.8-.8 2.7 4.9 3.8 11 1.2 6.1-.4 8.3-3 11.8-2.7 3.4-.8 6.1 4.5 3.8s2.7-6.1 5.3-6.1c2.7 0 5.3 4.5 9.1 4.5s.4-5.7-3.8-7.6c-4.2-1.9-9.9-.4-8.3-3.4 1.5-3-3.4-8.3 1.1-11 4.6-2.7-2.7 8.4 4.9 4.9 7.6-3.4 1.5-3 5.3-3.8 3.8-.8 5 2.7 5.8 4.9.8 2.2 5.6 6.5 7.5 9.5 1.8 2.9 3.2 3.8 3.2 1.1 0-2.7-2.4-6.2-4-7.3-1.6-1.1.5-7.4-3.1-8.9s-6-6-1.4-6.5c4.2-.6 5.2-1 7.3-3zm53.7 162.6c-.1.8-.1 1.6-.2 2.4-.2.2-.5.3-.9.2-2.1-.6-2.8-3.9-.5-4.3.8 0 1.4.8 1.6 1.7zm-11.2 53.4c-.6 1.9-1.3 3.7-2 5.6-2.8-.3-7.2-3.2-9.6-6-3.7-4.4-10.3-13.4-4.6-13.8 5.8-.7 13.9 8 16.2 14.2zM65.4 374.7c-9.1-9-17.4-18.7-24.8-29.1v-.3c0-4.7 6.8-5.8 4.7-9.7-2.1-4 .4-8.7-2.1-10.8-2.5-2.2-5.8-8.3-9.7-8.3-3.9 0-3.2-3.9-3.2-7.2 0-3.2-7.9-9-10.1-13.3-2.2-4.3-2.5-11.9 1.4-13.7 3.9-1.8 2.2-7.2 6.1-8.3 3.9-1.1 1.4-5.4 0-8.3-1.4-2.9-10.4 0-12.2-2.9-1.8-2.9-2.1-11.1-8.3-11.1-1.8 0-3.3-.5-4.7-1.2-.8-5.2-1.4-10.6-1.7-15.9 3.9-3.5 8.8-7.1 8.8-4.3 0 3.6-3.8 15.7 1.6 15.7s1.8 3.9 3.9 7.6c2.2 3.6 5.8 6.1 8.7 5 2.9-1.1 7.9 1.1 10.8-.7 2.9-1.8 5.8-5.4 7.2-1.8 1.4 3.6 7.2 2.2 10.8 2.2 3.6 0 8.6-1.1 14.7 2.5s11.2 8.6 15.8 8.6c4.7 0 3.9 4.7 3.9 9.4s6.1 4.7 12.6 6.9c6.5 2.1 9.4 1.8 15.8 5.8 6.5 3.9 7.9 6.1 4.7 10.8-3.2 4.7-10.1 11.9-10.4 18.7-.4 6.9-4.7 13.3-9.4 14-4.7.7-9 4.3-9 7.6 0 3.2-4.3 1.8-4.7 7.9-.4 6.1-5.8 12.9-8.3 11.9-2.5-1.1-11.5-6.1-7.9-1.1 3.6 5 4.3 7.6.4 9.4-1.7.5-3.6 2.3-5.4 4zM.1 214c.5-24.8 5.2-48.5 13.3-70.6 3.3 1.2 5.6 2.5 5.6 4.3 0 3.2 4.3 11.9 4.7 5 .3-6.9.3-11.2 3.2-11.2 2.9 0 .3-3.6-.7-8.6-1.1-5-2.2-12.2 5-13 5.8-.7 15.5 5.8 15.5 9s1.8 5 5.4 3.9c3.6-1.1.4-4.7 5-4.3 4.7.4 3.9 9 6.8 11.9 2.9 2.9 8.3 3.9 7.2 6.5-1.1 2.5 7.9 8.6 1.8 8.6-6.1 0-9 1.8-10.4 4.3-1.4 2.5-2.1.4-4.7-1.4-2.5-1.8-12.2 2.9-8.6 2.9 3.6 0 10.4 5.4 6.5 10.4-4 5-8.3 5-10.8 7.6-2.5 2.5-2.9 6.9-6.9 6.9-3.9 0-6.1 9-6.1 12.2 0 3.2-6.8 5.4-8.6 8.3-1.8 2.9-.4 5.8-.4 10.8 0 5-1.8 4.3-6.1-1.4-4.3-5.8-11.1-3.9-14.7-2.5-.7.2-1.4.3-2 .4zm26.4-99.7c.8-1.4 1.5-2.7 2.3-4h.2c5.4-.4 4-4.7 7.2-7.2 2.8-2.2 3.2-2.5 0-4.8 2.3-3.5 4.6-6.9 7.1-10.2 1.4.4 2.7.7 3.7.9 5.8 1.4 3.6 10.4 8.7 12.2 5 1.8 7.6 9.4 2.5 7.9-5-1.4-8.6.3-3.9 4.7 4.7 4.3 1.4 9.7-2.2 8.3-3.6-1.4-14.7-5.8-20.9-6.1-2.2-.1-3.8-.9-4.7-1.7zm32.6-45.1c10.7-11.5 22.7-21.8 35.7-30.7 8.2 4.7 1.4-1.7 5.8-1.7 2.1 0 1.6-1.4 1.3-3 1.9-1.2 3.8-2.4 5.8-3.5 6.4-.5 7.2-4.7 16.7-4.7 12.6 0 35.3 10.5 23.8 9-11.5-1.4-27-1.8-19.8 2.5 7.2 4.3 8.6-3.9 11.1 0s6.9 0 9.7 2.5c2.9 2.5 6.9 1.8 10.4 0 3.6-1.8 14.4 4.3 8.3 5-6.1.7-15.8.7-12.6 3.6 3.2 2.9-5.4 5.4-.7 7.9s3.2 8.3-1.4 8.3c-4.7 0 .4 3.2-3.2 6.8-3.6 3.6-2.5 6.1-7.6 6.1-5 0 6.1 7.9.3 7.9s-7.6 7.2-1.8 6.5c5.8-.7 5.4 1.8-.7 4.7-6.1 2.9-15.8 2.9-18.7 7.6-2.9 4.7-13.7 4.3-13.7 8.6s-1.8 20.2-10.1 17.3c-8.3-2.9-10.1-11.2-13.3-16.2-3.2-5 1.8-10.4-1.4-12.2-3.2-1.8 7.2-10.1 3.6-7.6s-9.4-1.1-4.3-2.1c5-1.1 3.2-6.1-.4-5-3.6 1.1-7.6-.7-2.9-4.3 4.7-3.6 2.5-2.5-.7-3.6S76.5 71 70 69.6c-3.5-.8-7.4-.4-10.9-.4zm311.8 191.1c2.7-.5 4.9 5.1 1.5 6.3-3.5 1.3-5.2-6.8-1.5-6.3zm-15.6 4.2c1.2-.6 2.2-.1 1.9 1.1-.2 1.2-1.3 2.7-2.3 1.4-1.1-1.3-1-2.1.4-2.5zm2.7 2.9c1.2-.6 2.2-.1 1.9 1.1-.3 1.2-1.3 2.7-2.3 1.4-1.1-1.3-1-2.1.4-2.5zm-1.3 4.7c1.2-.6 2.2-.1 1.9 1.1-.3 1.2-1.3 2.7-2.3 1.4-1-1.3-.9-2.1.4-2.5zm1.8 4.6c1.2-.6 2.2-.1 1.9 1.1-.2 1.2-1.3 2.7-2.3 1.4-1.1-1.3-1-2.1.4-2.5zm-49.3-22.5c1.2-.6 2.2-.1 1.9 1.1-.3 1.2-1.3 2.7-2.3 1.4-1-1.3-.9-2.1.4-2.5zm45.1-.3c1.2-.6 2.2-.1 1.9 1.1-.3 1.2-1.3 2.7-2.3 1.4-1.1-1.2-1-2.1.4-2.5zm45.3 9.4c1.2-.6 2.2-.1 1.9 1.1-.2 1.2-1.3 2.7-2.3 1.4-1.1-1.3-1-2.2.4-2.5zm-86 2.4c1.2-.6 2.2-.1 1.9 1.1-.2 1.2-1.3 2.7-2.3 1.4-1-1.3-.9-2.1.4-2.5zM302.8 309c4.4-.3 4.4 5.1 1.5 7.6-2.9 2.5 3 14.7-.2 15.9-3.2 1.2-5.4 9.1-9.3 9.8-3.9.7-2.2-8.3-4.4-10.8s-.2-9.8 2-11.5c2.1-1.7 7.2-10.7 10.4-11zm-12.9-1.4c1.2-.6 2.2-.1 1.9 1.1-.3 1.2-1.3 2.7-2.3 1.4-1.1-1.3-1-2.1.4-2.5zm26.2-16.9c1.2-.6 2.2-.1 1.9 1.1-.3 1.2-1.3 2.7-2.3 1.4-1.1-1.3-1-2.1.4-2.5zM196.8 138.1c1.2-.6 2.2-.1 1.9 1.1-.3 1.2-1.3 2.7-2.3 1.4-1.1-1.3-1-2.1.4-2.5zm2.5 12.7c1.2-.6 2.2-.1 1.9 1.1-.2 1.2-1.3 2.7-2.3 1.4-1.1-1.3-1-2.1.4-2.5zm-41.2 62c1.2-.6 2.2-.1 1.9 1.1-.3 1.2-1.3 2.7-2.3 1.4-1-1.3-.9-2.1.4-2.5zm2.6-9.3c1.2-.6 2.2-.1 1.9 1.1-.3 1.2-1.3 2.7-2.3 1.4-1.1-1.3-1-2.1.4-2.5zm-6.8 1.7c1.2-.6 2.2-.1 1.9 1.1-.2 1.2-1.3 2.7-2.3 1.4-1-1.3-1-2.1.4-2.5zM340.1 62.6c5.6-.4.9 6.4-3.9 6.4-4.7 0-15.8 9.4-17.1 14.2-1.3 4.7-.8 11.2-5.6 6.9-4.7-4.3-4.7-13.3 1.3-14.6 6-1.3 3.4-10.7 12-10.7s3.4-4.7 13.3-2.2zm-152.3 71.7c6-.8 6.4 6.9 5.6 9.9-.8 3 5.2 12.4-.4 12.4-5.6 0-9.9 6-10.7.4-.9-5.6-1.3-5.1 3.9-7.3 5-2.1-2.2-15.9 1.6-15.4zm-9 9c3.4-.5 3.4 6.4 1.7 10.3-1.7 3.8-6.4 2.6-5.6-1.3.9-3.9-2.1-9.9 3.9-9zm-20.2-35.2c5.6-1.7 8.6 2.6 5.6 6s-9.4 7.3-15.5 2.6c-6-4.7-2.1-12 1.7-10.3 3.9 1.7 5.2 1.3 8.2 1.7zm20.6-21.9c3 0 5.2 5.1 1.3 5.1s-6.4-5.5-1.3-5.1zm57.5-37.3c9 0 6.4 2.1 10.7 5.2 4.3 3-1.3 10.3-7.3 6-6-4.3-2.6 6-7.7 2.1s-6-6.9-.4-7.3c5.6-.4-5.1-4.7-7.7-1.7-2.6 3-8.1-7.3-.4-7.3 7.7 0 5.9.4 12.8 3zM72.9 157.3c5.7-.3 6.5 4 8.1 7.5 1.6 3.5.5 7-4.9 4.6-5.4-2.4-8.4-2.4-6.2-7.6 2.2-5-.5-4.8 3-4.5zm-13.7 14.8c3.5-1.1 4.3 4.6 1.3 4.6-2.9 0-4.5-4-1.3-4.6zm-4.5 2.9c2.6-.8 3.2 3.4 1 3.4-2.2.1-3.4-2.9-1-3.4zm-26.9 47.2c4.5 0 8.4 7.1 5.2 5.2-3.2-1.9-5 1.1-7.1 0-2-1-1.4-4.6 1.9-5.2zm-7.8 6c3.9 0 6.5 4.5 2.4 4.1-4.1-.3-6.9-4.6-2.4-4.1zm8.7 4.5c3.7-.2 6.7 3.2 3 3.2s-6.7-3.2-3-3.2zm15 4.5c3.2-.2 2.8 5-.6 5s-7.1-5 .6-5zm8 3.1c3 0 6 2.6 1.7 2.4-4.4-.1-7.2-2.7-1.7-2.4zm248.9-68.7c-5.1 3.8-6.4 7.7-1.3 12.2 5.1 4.5-2.6 7.7 8.3 9.6 10.9 1.9 23.6-7.7 8.8-11.6-14.7-3.8 4.3-12.5-15.8-10.2z"/></g></svg>