<?xml version="1.0" encoding="utf-8"?>
<!-- Generator: Adobe Illustrator 19.0.0, SVG Export Plug-In . SVG Version: 6.00 Build 0)  -->
<svg version="1.1" id="Layer_1" xmlns="http://www.w3.org/2000/svg" xmlns:xlink="http://www.w3.org/1999/xlink" x="0px" y="0px"
	 viewBox="-425.3 611.3 236.5 75.3" style="enable-background:new -425.3 611.3 236.5 75.3;" xml:space="preserve">
<style type="text/css">
	.st0{fill:#00A3E3;}
</style>
<g id="_x23_00a3e3ff">
	<path class="st0" d="M-282,613c2.5-0.2,5-0.2,7.5,0l0.1,0c13.3,1.3,25.9,9.9,31,22.4c-5.7,1.9-11.4,3.5-17.1,5.2
		c-2.1-3.5-4.6-6.8-8.3-8.7c-7.2-4.3-17.1-2.7-22.8,3.4c-3.6,3.5-5.1,8.6-5.2,13.5c-5.9,1.1-11.8,2-17.7,2.9
		c-1.1-8.5,1.2-17.4,6.5-24.2C-301.9,619.3-292,614.3-282,613L-282,613z"/>
	<path class="st0" d="M-213,613.3c5.4,0.6,8.9,1,14,2.9c-12.1,6.8-24.8,12.4-37.8,16.9c0.8-4.1,2-8.3,4.7-11.6
		C-227.7,615.7-220.1,613-213,613.3"/>
	<path class="st0" d="M-422.9,615.1c9,0,18-0.1,27,0c7,0.1,14.6,2,19.1,7.7c5,6.4,5.2,15.4,3.4,23c-1.5,6.3-6.7,12.7-13.6,12.5
		c-12,0.5-24,0.6-36,0.4v-43.6 M-405.6,628.7c0,5.6,0,11.2,0,16.8c3.3,0,6.7-0.2,10-0.2c5.8-1.8,6.7-9.6,3.4-14
		C-395.7,627.8-401.1,629-405.6,628.7z"/>
	<path class="st0" d="M-367.4,615.1c9.2,0,18.4-0.1,27.5,0.1c7.5,0.2,15.8,3.3,19.2,10.5c3.6,7.6,3,17.5-2.6,24
		c-1.8,1.9-4,3.8-6.7,4.1c-12.5,1.5-25,2.7-37.5,3.5C-367.4,643.2-367.4,629.2-367.4,615.1 M-350,627.9c0,5.8,0,11.7,0,17.5
		c3.3-0.1,6.9,0,9.9-1.6c4.2-2.2,4.6-8.2,2.5-12C-340.4,627.9-345.8,628.2-350,627.9z"/>
	<path class="st0" d="M-208.3,628.5c5-2.4,9.8-5.2,14.5-8c-2.1,4.1-4.1,8.2-6.2,12.3C-202.5,630.9-205.3,629.5-208.3,628.5z"/>
	<path class="st0" d="M-214.6,684.8c-9.4-0.2-17.5-2.3-25.1-7.9c2.5-4.7,5-9.5,7.5-14.2c5.3,4.5,12.6,8.8,19.7,6
		c4-1.4,5.4-7.4,1.7-9.9c-6-4-13.9-4-19.8-8.2c-3.4-2.1-5.2-6.1-6.2-10c5.8-2.2,11.7-4.4,17.4-6.9c1,2.1,2.2,4.3,4.5,5.1
		c6.7,2.9,14.6,3.6,19.9,9.1c5.9,6,5.3,15.5,2.8,22.9c-2.9,8.4-11.9,12.5-20.1,13.8"/>
	<path class="st0" d="M-277.9,685c-4.7-0.1-8.6-0.6-12.4-1.8c-3.8-1.2-7.4-3-10.6-5.5c-6.1-4.6-10.3-11.3-12.4-18.6
		c6-1.1,12-2,18-3.1c2.1,4.4,5.4,8.5,10,10.5c7,3.3,15.8,1.2,20.8-4.5c3.6-3.9,4.9-9.2,5.3-14.3c5.9-1.7,11.8-3.5,17.6-5.3
		c1.5,11.6-1.7,24.3-10.3,32.6c-5.7,5.8-14.2,9.2-21.3,10"/>
	<path class="st0" d="M-346,663.1c5.9-0.6,11.8-1.3,17.7-2c5.4,7.3,11,14.4,16.3,21.8c-7.2,0-14.4,0-21.6,0
		C-337.8,676.3-341.9,669.7-346,663.1z"/>
	<path class="st0" d="M-367.4,664.9c5.8-0.6,11.6-0.9,17.4-1.4c0,6.5,0,12.9,0,19.4c-5.8,0.1-11.6,0-17.4,0
		C-367.4,676.9-367.4,670.9-367.4,664.9z"/>
	<path class="st0" d="M-422.9,666.2c5.8,0.2,11.6,0.1,17.4,0.2c0,5.5,0,11,0,16.5c-5.8,0-11.5,0-17.3,0v-16.7H-422.9z"/>
</g>
</svg>
