<?xml version="1.0" encoding="utf-8"?>
<!-- Generator: Adobe Illustrator 19.0.0, SVG Export Plug-In . SVG Version: 6.00 Build 0)  -->
<svg version="1.1" id="Layer_1" xmlns="http://www.w3.org/2000/svg" xmlns:xlink="http://www.w3.org/1999/xlink" x="0px" y="0px"
	 viewBox="0 0 439 132" style="enable-background:new 0 0 439 132;" xml:space="preserve">
<style type="text/css">
	.st0{fill:#F58220;}
	.st1{fill:#FFFFFF;}
	.st2{fill:#00B5EF;}
</style>
<g>
	<g>
		<circle class="st0" cx="415.5" cy="111.2" r="14"/>
		<g>
			<path class="st1" d="M407.3,111.3c0-4.6,3.7-8.2,8.3-8.2c4.6,0,8.3,3.7,8.3,8.2c0,4.6-3.7,8.2-8.3,8.2
				C411,119.5,407.3,115.9,407.3,111.3z M422.6,111.3c0-3.9-3.2-7-7-7c-3.8,0-7,3.1-7,7c0,3.9,3.2,7,7,7
				C419.4,118.3,422.6,115.2,422.6,111.3z M419.5,115.7H418l-2.7-4.2h-1.5v4.2h-1.3v-9h3.9c1.6,0,3.2,0.4,3.2,2.4
				c0,1.8-1.2,2.4-2.9,2.5L419.5,115.7z M415.3,110.3c1.1,0,3.1,0.2,3.1-1.2c0-0.9-1.2-1.1-2.2-1.1h-2.4v2.3H415.3z"/>
		</g>
	</g>
	<g>
		<path class="st2" d="M101.1,121.6h28.6V90.2c-9.9,0.9-19.5,1.6-28.6,2.2V121.6z"/>
		<path class="st2" d="M156.9,121.6h35.6l-27-35.2c-9.9,1.2-19.6,2.3-29,3.2L156.9,121.6z"/>
		<path class="st2" d="M378.1,39.9l10.1-19.7c-7.6,4.6-15.5,8.9-23.7,13C369.5,34.3,374.2,36.7,378.1,39.9z"/>
		<path class="st2" d="M366.8,54.5l-7.3-2.2c-5-1.6-12.7-4.1-12.7-10.5c0-0.2,0-0.3,0-0.5c-9.5,4.1-19.3,7.9-29.2,11.4
			c2.5,15.3,13.5,19.5,29.2,23.9c6.1,1.8,17.3,4.5,17.3,12.5c0,7.7-7.1,11.1-13.8,11.1c-9.8,0-18.2-5.1-25.4-11.4l-12.2,23
			c11.2,7.9,24.8,12.5,38.6,12.5c11.1,0,22.6-3.1,31.2-10.3c8.7-7.4,11.4-18.7,11.4-29.6C393.9,66.8,382.1,59,366.8,54.5z"/>
		<path class="st2" d="M279.9,64.7c0,18.9-14,32.8-31,32.8c-12.7,0-23.8-7.7-28.5-19.6c-10,1.8-19.9,3.5-29.8,5
			c7.2,25.5,29.5,42.3,58.3,42.3c35.3,0,60.8-25.1,60.8-60.6c0-3-0.3-6-0.7-8.9c-9.5,3.2-19.2,6.1-29,8.7
			C279.9,64.5,279.9,64.6,279.9,64.7z"/>
		<path class="st2" d="M9,94.7v26.9h28.6V94.8C19.6,95,9,94.7,9,94.7z"/>
	</g>
	<g>
		<path class="st2" d="M217.8,64.4c0,0.5,0,1.1,0,1.6c0,0,0,0,0.1,0c0-0.7-0.1-1.4-0.1-2.1C217.8,64,217.8,64.2,217.8,64.4z"/>
		<path class="st2" d="M182,45.1c0-23.5-16.5-33.8-38.2-33.8h-42.7v68.6c19.6-1.3,41.3-3.2,64.1-6C176.1,68.9,182,57.7,182,45.1z
			 M152.3,46.9c0,12-10.5,13.7-19.8,13.7h-2.8V33.2h0v-1h2.8c9.3,0,19.8,1.7,19.8,13.7c0,0.2,0,0.4,0,0.5
			C152.2,46.5,152.3,46.7,152.3,46.9z"/>
		<path class="st2" d="M355,8.4c-20.3,0-35.4,12.5-37.6,32c21.9-7.7,42.8-16.7,62-27.5C371.5,10.1,362.7,8.4,355,8.4z"/>
		<path class="st2" d="M248.9,7.7c-31.6,0-60.8,23.3-60.8,56.6l0.6,6.5c9.6-1.4,19.4-3,29.2-4.8c0-0.5,0-1,0-1.6c0-0.2,0-0.3,0-0.5
			c0-0.2,0-0.4,0-0.5c0-15.2,14-29,31-29c12.9,0,24,7.9,28.7,18.3c9.5-2.6,19-5.4,28.3-8.4C297,22,273.7,7.7,248.9,7.7z"/>
		<path class="st2" d="M92.7,47.4c0-25.2-16.3-36.1-39.9-36.1H9v70.9c0,0,25.5,0.9,64.6-0.8C86,76.3,92.7,65.4,92.7,47.4z M63,48.3
			c0,13.4-10.2,13.4-20.6,13.4h-4.8v-1V34.3v-1h4.8c11.1,0,20.6,0.1,20.6,14c0,0.2,0,0.3,0,0.5C63,48,63,48.1,63,48.3z"/>
	</g>
</g>
</svg>
