<?xml version="1.0" encoding="UTF-8" ?>
<!DOCTYPE svg PUBLIC "-//W3C//DTD SVG 1.1//EN" "http://www.w3.org/Graphics/SVG/1.1/DTD/svg11.dtd">
<svg width="500pt" height="500pt" viewBox="0 0 500 500" version="1.1" xmlns="http://www.w3.org/2000/svg">
<g id="#c04133ff">
<path fill="#c04133" opacity="1.00" d=" M 245.57 0.00 L 253.45 0.00 C 286.37 0.71 319.22 7.53 349.40 20.80 C 407.53 45.94 455.21 94.14 479.68 152.55 C 497.70 194.92 503.37 242.34 496.43 287.83 C 490.64 326.05 475.74 362.85 453.28 394.32 C 432.95 423.01 406.48 447.32 376.16 465.12 C 341.06 485.89 300.74 497.71 259.99 499.28 C 212.28 501.38 164.03 489.44 122.93 465.08 C 69.49 433.81 28.47 381.98 10.65 322.66 C 4.45 302.47 1.06 281.49 0.00 260.42 L 0.00 239.42 C 1.57 204.81 10.02 170.43 25.54 139.41 C 48.25 92.93 85.98 54.02 131.57 29.62 C 166.47 10.75 205.95 0.80 245.57 0.00 M 137.58 116.79 C 137.58 187.53 137.57 258.26 137.58 329.00 C 144.12 329.00 150.66 329.00 157.20 328.99 C 157.20 297.00 157.20 265.00 157.20 233.01 C 162.23 232.95 167.28 233.20 172.29 232.64 C 178.23 264.59 182.94 296.76 187.20 328.97 C 194.38 329.04 201.56 328.98 208.74 329.00 C 203.66 295.39 197.91 261.86 191.08 228.55 C 194.24 226.64 197.38 224.54 199.67 221.58 C 204.81 215.30 206.56 206.96 206.69 199.02 C 206.67 183.34 206.70 167.67 206.67 152.00 C 206.42 143.02 204.72 133.40 198.58 126.44 C 192.45 119.56 182.90 117.17 174.01 116.80 C 161.86 116.78 149.72 116.81 137.58 116.79 M 222.80 116.81 C 222.80 187.54 222.79 258.26 222.80 328.99 C 242.01 329.00 261.22 329.00 280.42 328.99 C 280.43 322.52 280.41 316.05 280.44 309.57 C 267.77 309.57 255.10 309.59 242.44 309.56 C 242.43 283.27 242.40 256.97 242.45 230.68 C 251.11 230.69 259.77 230.67 268.43 230.69 C 268.41 224.13 268.43 217.57 268.42 211.00 C 259.75 210.98 251.08 211.03 242.41 210.98 C 242.46 186.21 242.38 161.44 242.45 136.68 C 254.72 136.62 266.99 136.81 279.26 136.58 C 279.14 129.99 279.23 123.39 279.20 116.80 C 260.40 116.80 241.60 116.79 222.80 116.81 M 295.00 116.80 C 295.00 187.53 295.00 258.27 295.00 329.00 C 306.65 328.99 318.30 329.02 329.95 328.99 C 338.34 328.77 347.22 326.37 353.07 320.01 C 359.87 312.82 361.62 302.50 361.69 292.96 C 361.68 246.30 361.68 199.65 361.68 152.99 C 361.61 143.89 359.87 134.22 353.84 127.07 C 348.10 120.05 338.82 116.84 329.96 116.78 C 318.31 116.82 306.66 116.78 295.00 116.80 M 193.21 384.21 C 196.52 384.20 199.84 384.20 203.16 384.20 C 204.37 382.05 205.52 379.88 206.62 377.68 C 211.80 377.68 216.97 377.68 222.15 377.68 C 223.24 379.84 224.32 382.00 225.36 384.18 C 228.71 384.21 232.05 384.21 235.40 384.20 C 228.44 370.14 221.30 356.17 214.42 342.07 C 207.12 356.00 200.31 370.18 193.21 384.21 M 138.00 343.58 C 138.00 357.12 137.99 370.66 138.01 384.20 C 147.34 384.20 156.67 384.20 166.00 384.20 C 166.00 381.13 166.00 378.07 166.00 375.00 C 159.73 374.99 153.47 375.01 147.20 374.99 C 147.20 364.52 147.20 354.05 147.21 343.58 C 144.14 343.57 141.07 343.57 138.00 343.58 M 262.57 343.57 C 262.58 357.11 262.56 370.66 262.58 384.21 C 270.03 384.15 277.48 384.28 284.93 384.16 C 288.87 384.09 292.68 381.97 294.79 378.64 C 297.73 374.21 297.28 368.06 294.16 363.85 C 299.76 357.05 295.88 345.30 287.00 343.88 C 278.89 343.19 270.71 343.76 262.57 343.57 M 326.98 349.02 C 323.32 354.10 324.45 361.79 329.37 365.65 C 333.96 369.72 340.50 368.10 346.07 368.41 C 349.58 367.73 351.52 373.55 348.02 374.88 C 340.29 375.18 332.54 374.90 324.80 375.01 C 324.79 378.07 324.79 381.13 324.81 384.20 C 331.88 384.20 338.95 384.21 346.02 384.21 C 350.72 384.37 355.48 381.83 357.64 377.59 C 360.50 372.38 358.96 365.29 354.05 361.88 C 350.42 358.77 345.42 359.65 341.04 359.60 C 338.89 359.51 336.36 360.02 334.70 358.30 C 332.85 356.44 334.30 352.66 336.98 352.74 C 344.32 352.59 351.66 352.74 359.00 352.68 C 359.00 349.64 359.00 346.61 358.99 343.58 C 351.68 343.62 344.37 343.48 337.06 343.64 C 333.04 343.59 329.20 345.69 326.98 349.02 Z" />
<path fill="#c04133" opacity="1.00" d=" M 157.20 136.71 C 164.65 137.07 172.55 135.47 179.62 138.48 C 185.75 141.43 186.50 149.03 186.74 155.04 C 186.84 169.71 186.84 184.38 186.74 199.05 C 186.71 204.75 184.52 211.30 178.74 213.49 C 171.85 215.97 164.36 214.33 157.20 214.80 C 157.20 188.77 157.21 162.74 157.20 136.71 Z" />
<path fill="#c04133" opacity="1.00" d=" M 314.71 136.69 C 320.80 136.97 327.03 135.98 333.02 137.40 C 339.11 139.25 341.93 146.02 341.81 151.95 C 341.78 199.64 341.82 247.34 341.79 295.04 C 341.84 300.78 338.88 307.23 332.94 308.85 C 326.97 310.27 320.76 309.29 314.69 309.57 C 314.69 251.94 314.65 194.31 314.71 136.69 Z" />
<path fill="#c04133" opacity="1.00" d=" M 271.44 359.56 C 271.42 357.26 271.42 354.97 271.46 352.67 C 275.98 352.77 280.51 352.52 285.02 352.78 C 288.54 353.12 288.58 358.61 285.29 359.31 C 280.70 359.91 276.05 359.43 271.44 359.56 Z" />
<path fill="#c04133" opacity="1.00" d=" M 214.31 362.33 C 215.43 364.47 216.51 366.63 217.58 368.80 C 215.41 368.80 213.24 368.79 211.07 368.78 C 212.12 366.61 213.20 364.46 214.31 362.33 Z" />
<path fill="#c04133" opacity="1.00" d=" M 271.44 368.44 C 276.51 368.78 281.82 367.56 286.71 369.26 C 287.96 371.07 288.19 373.75 285.87 374.84 C 281.06 375.21 276.21 374.95 271.39 374.94 C 271.41 372.77 271.43 370.60 271.44 368.44 Z" />
</g>
<g id="#ffffffff">
<path fill="#ffffff" opacity="1.00" d=" M 137.58 116.79 C 149.72 116.81 161.86 116.78 174.01 116.80 C 182.90 117.17 192.45 119.56 198.58 126.44 C 204.72 133.40 206.42 143.02 206.67 152.00 C 206.70 167.67 206.67 183.34 206.69 199.02 C 206.56 206.96 204.81 215.30 199.67 221.58 C 197.38 224.54 194.24 226.64 191.08 228.55 C 197.91 261.86 203.66 295.39 208.74 329.00 C 201.56 328.98 194.38 329.04 187.20 328.97 C 182.94 296.76 178.23 264.59 172.29 232.64 C 167.28 233.20 162.23 232.95 157.20 233.01 C 157.20 265.00 157.20 297.00 157.20 328.99 C 150.66 329.00 144.12 329.00 137.58 329.00 C 137.57 258.26 137.58 187.53 137.58 116.79 M 157.20 136.71 C 157.21 162.74 157.20 188.77 157.20 214.80 C 164.36 214.33 171.85 215.97 178.74 213.49 C 184.52 211.30 186.71 204.75 186.74 199.05 C 186.84 184.38 186.84 169.71 186.74 155.04 C 186.50 149.03 185.75 141.43 179.62 138.48 C 172.55 135.47 164.65 137.07 157.20 136.71 Z" />
<path fill="#ffffff" opacity="1.00" d=" M 222.80 116.81 C 241.60 116.79 260.40 116.80 279.20 116.80 C 279.23 123.39 279.14 129.99 279.26 136.58 C 266.99 136.81 254.72 136.62 242.45 136.68 C 242.38 161.44 242.46 186.21 242.41 210.98 C 251.08 211.03 259.75 210.98 268.42 211.00 C 268.43 217.57 268.41 224.13 268.43 230.69 C 259.77 230.67 251.11 230.69 242.45 230.68 C 242.40 256.97 242.43 283.27 242.44 309.56 C 255.10 309.59 267.77 309.57 280.44 309.57 C 280.41 316.05 280.43 322.52 280.42 328.99 C 261.22 329.00 242.01 329.00 222.80 328.99 C 222.79 258.26 222.80 187.54 222.80 116.81 Z" />
<path fill="#ffffff" opacity="1.00" d=" M 295.00 116.80 C 306.66 116.78 318.31 116.82 329.96 116.78 C 338.82 116.84 348.10 120.05 353.84 127.07 C 359.87 134.22 361.61 143.89 361.68 152.99 C 361.68 199.65 361.68 246.30 361.69 292.96 C 361.62 302.50 359.87 312.82 353.07 320.01 C 347.22 326.37 338.34 328.77 329.95 328.99 C 318.30 329.02 306.65 328.99 295.00 329.00 C 295.00 258.27 295.00 187.53 295.00 116.80 M 314.71 136.69 C 314.65 194.31 314.69 251.94 314.69 309.57 C 320.76 309.29 326.97 310.27 332.94 308.85 C 338.88 307.23 341.84 300.78 341.79 295.04 C 341.82 247.34 341.78 199.64 341.81 151.95 C 341.93 146.02 339.11 139.25 333.02 137.40 C 327.03 135.98 320.80 136.97 314.71 136.69 Z" />
<path fill="#ffffff" opacity="1.00" d=" M 193.21 384.21 C 200.31 370.18 207.12 356.00 214.42 342.07 C 221.30 356.17 228.44 370.14 235.40 384.20 C 232.05 384.21 228.71 384.21 225.36 384.18 C 224.32 382.00 223.24 379.84 222.15 377.68 C 216.97 377.68 211.80 377.68 206.62 377.68 C 205.52 379.88 204.37 382.05 203.16 384.20 C 199.84 384.20 196.52 384.20 193.21 384.21 M 214.31 362.33 C 213.20 364.46 212.12 366.61 211.07 368.78 C 213.24 368.79 215.41 368.80 217.58 368.80 C 216.51 366.63 215.43 364.47 214.31 362.33 Z" />
<path fill="#ffffff" opacity="1.00" d=" M 138.00 343.58 C 141.07 343.57 144.14 343.57 147.21 343.58 C 147.20 354.05 147.20 364.52 147.20 374.99 C 153.47 375.01 159.73 374.99 166.00 375.00 C 166.00 378.07 166.00 381.13 166.00 384.20 C 156.67 384.20 147.34 384.20 138.01 384.20 C 137.99 370.66 138.00 357.12 138.00 343.58 Z" />
<path fill="#ffffff" opacity="1.00" d=" M 262.57 343.57 C 270.71 343.76 278.89 343.19 287.00 343.88 C 295.88 345.30 299.76 357.05 294.16 363.85 C 297.28 368.06 297.73 374.21 294.79 378.64 C 292.68 381.97 288.87 384.09 284.93 384.16 C 277.48 384.28 270.03 384.15 262.58 384.21 C 262.56 370.66 262.58 357.11 262.57 343.57 M 271.44 359.56 C 276.05 359.43 280.70 359.91 285.29 359.31 C 288.58 358.61 288.54 353.12 285.02 352.78 C 280.51 352.52 275.98 352.77 271.46 352.67 C 271.42 354.97 271.42 357.26 271.44 359.56 M 271.44 368.44 C 271.43 370.60 271.41 372.77 271.39 374.94 C 276.21 374.95 281.06 375.21 285.87 374.84 C 288.19 373.75 287.96 371.07 286.71 369.26 C 281.82 367.56 276.51 368.78 271.44 368.44 Z" />
<path fill="#ffffff" opacity="1.00" d=" M 326.98 349.02 C 329.20 345.69 333.04 343.59 337.06 343.64 C 344.37 343.48 351.68 343.62 358.99 343.58 C 359.00 346.61 359.00 349.64 359.00 352.68 C 351.66 352.74 344.32 352.59 336.98 352.74 C 334.30 352.66 332.85 356.44 334.70 358.30 C 336.36 360.02 338.89 359.51 341.04 359.60 C 345.42 359.65 350.42 358.77 354.05 361.88 C 358.96 365.29 360.50 372.38 357.64 377.59 C 355.48 381.83 350.72 384.37 346.02 384.21 C 338.95 384.21 331.88 384.20 324.81 384.20 C 324.79 381.13 324.79 378.07 324.80 375.01 C 332.54 374.90 340.29 375.18 348.02 374.88 C 351.52 373.55 349.58 367.73 346.07 368.41 C 340.50 368.10 333.96 369.72 329.37 365.65 C 324.45 361.79 323.32 354.10 326.98 349.02 Z" />
</g>
</svg>
