<svg width="500pt" height="500pt" viewBox="0 0 500 500" xmlns="http://www.w3.org/2000/svg"><g fill="#c04133"><path d="M245.57 0h7.88c32.92.7 65.77 7.53 95.95 20.8 58.13 25.14 105.8 73.34 130.28 131.75 18.02 42.37 23.7 89.8 16.75 135.28-5.8 38.22-20.7 75.02-43.15 106.5-20.33 28.68-46.8 53-77.12 70.8-35.1 20.76-75.42 32.58-116.17 34.15-47.8 2.1-96-9.84-137.1-34.2-53.5-31.27-94.5-83.1-112.3-142.42C4.4 302.46 1 281.5-.1 260.42v-21c1.56-34.6 10-69 25.53-100C48.23 92.9 86 54 131.55 29.6c34.9-18.85 74.4-28.8 114-29.6m-108 116.8V329h19.64v-96c5-.05 10.1.2 15.1-.36 5.9 31.95 10.6 64.12 14.9 96.33 7.2.07 14.3 0 21.5.03-5.1-33.6-10.9-67.14-17.7-100.45 3.1-1.9 6.3-4 8.6-6.97 5.1-6.28 6.8-14.62 7-22.56V152c-.3-8.98-2-18.6-8.1-25.56-6.2-6.88-15.7-9.27-24.6-9.64-12.1-.02-24.3 0-36.4 0m85.2 0V329h57.6v-19.43c-12.68 0-25.35.02-38 0 0-26.3-.05-52.6 0-78.9 8.66.02 17.32 0 26 .02-.04-6.6 0-13.2-.03-19.7-8.65-.1-17.3 0-26-.1.06-24.8 0-49.6.05-74.3 12.22-.1 24.5.1 36.8-.1-.1-6.6-.07-13.2-.1-19.8h-56.4m72.2 0V329c11.66 0 23.3.02 34.96 0 8.4-.23 17.26-2.63 23.1-9 6.8-7.18 8.56-17.5 8.63-27.04V153c-.07-9.1-1.8-18.8-7.84-25.98-5.74-7.02-15-10.23-23.88-10.3-11.66.05-23.3 0-34.97.03M193.2 384.2h9.96c1.2-2.15 2.36-4.32 3.46-6.52h15.53c1.1 2.16 2.17 4.32 3.2 6.5 3.36.03 6.7.03 10.05.02-6.96-14.06-14.1-28.03-20.98-42.13-7.3 13.93-14.1 28.1-21.2 42.14M138 343.6v40.62h28V375h-18.8v-31.42H138m124.57 0v40.63c7.46 0 14.9.1 22.36 0 3.94 0 7.75-2.2 9.86-5.5 2.9-4.4 2.4-10.6-.7-14.8 5.6-6.8 1.7-18.5-7.2-19.9-8.1-.7-16.3-.1-24.5-.3m64.4 5.5c-3.7 5.1-2.5 12.8 2.4 16.68 4.6 4.07 11.1 2.45 16.7 2.76 3.5-.67 5.4 5.15 1.9 6.48-7.75.3-15.5.05-23.2.16v9.2H346c4.7.18 9.47-2.36 11.63-6.6 2.86-5.2 1.32-12.3-3.6-15.7-3.62-3.1-8.62-2.2-13-2.27-2.15-.1-4.68.4-6.34-1.3-1.9-1.86-.4-5.64 2.2-5.56 7.3-.18 14.7 0 22-.1v-9.1c-7.4.05-14.7-.1-22 .07-4-.05-7.9 2.05-10.1 5.38z"/><path d="M157.2 136.7c7.45.37 15.35-1.23 22.42 1.78 6.13 2.95 6.88 10.55 7.12 16.56.1 14.67.1 29.34 0 44-.03 5.7-2.22 12.26-8 14.45-6.9 2.4-14.38.8-21.54 1.3v-78.1zm157.5 0c6.1.27 12.33-.72 18.32.7 6.1 1.85 8.9 8.62 8.8 14.55-.04 47.7 0 95.4-.03 143.1 0 5.73-3 12.18-8.9 13.8-6 1.42-12.2.44-18.3.72 0-57.63-.1-115.26 0-172.88zm-43.26 222.86c-.02-2.3-.02-4.6.02-6.9 4.52.1 9.05-.14 13.56.12 3.52.34 3.56 5.83.27 6.53-4.6.6-9.3.2-13.9.3zm-57.14 2.77c1.13 2.14 2.2 4.3 3.28 6.47-2.17 0-4.34 0-6.5-.02 1.04-2.17 2.12-4.32 3.23-6.45zm57.14 6.1c5.07.35 10.38-.87 15.27.83 1.3 1.8 1.5 4.5-.8 5.58-4.8.37-9.6.1-14.5.1 0-2.17.1-4.34.1-6.5z"/></g><path d="M137.58 116.8c12.14 0 24.28-.02 36.43 0 8.9.37 18.5 2.76 24.6 9.64 6.2 6.96 7.9 16.58 8.1 25.56v47.02c-.1 7.94-1.8 16.28-7 22.56-2.3 2.96-5.4 5.06-8.6 6.97 6.9 33.3 12.6 66.84 17.7 100.45-7.2-.02-14.3.04-21.5-.03-4.2-32.2-8.9-64.38-14.9-96.33-5 .56-10 .3-15.1.37v96h-19.6V116.8m19.6 19.9v78.1c7.2-.47 14.7 1.17 21.6-1.3 5.8-2.2 8-8.75 8-14.45.1-14.67.1-29.34 0-44-.2-6.02-1-13.62-7.1-16.57-7-3-14.9-1.4-22.4-1.77zm65.6-19.9h56.4c.1 6.6 0 13.2.1 19.78-12.2.23-24.5.04-36.8.1-.1 24.76 0 49.53 0 74.3 8.7.05 17.4 0 26.07.02v19.7c-8.64-.03-17.3 0-25.96-.02-.05 26.3-.02 52.6 0 78.88 12.65.03 25.3 0 38 0-.04 6.5-.02 12.96-.03 19.43h-57.7V116.8zm72.2 0c11.7-.02 23.3.02 35-.02 8.9.06 18.2 3.27 23.9 10.3 6.1 7.14 7.8 16.8 7.9 25.9v139.98c-.02 9.54-1.8 19.86-8.6 27.05-5.82 6.4-14.7 8.8-23.1 9-11.64.1-23.3 0-34.94 0V116.8m19.7 19.9c-.05 57.6 0 115.24 0 172.87 6.06-.28 12.27.7 18.24-.72 5.94-1.62 8.9-8.07 8.85-13.8 0-47.7-.04-95.4 0-143.1.1-5.93-2.7-12.7-8.8-14.55-6-1.42-12.2-.43-18.3-.7zM193.2 384.2c7.1-14.02 13.92-28.2 21.22-42.13 6.88 14.1 14.02 28.07 20.98 42.13-3.35 0-6.7 0-10.04-.02-1.04-2.18-2.12-4.34-3.2-6.5H206.6c-1.1 2.2-2.25 4.37-3.46 6.52h-9.95m21.1-21.87l-3.3 6.45 6.5.02-3.3-6.47zM138 343.58h9.2v31.4c6.27.03 12.53 0 18.8.02v9.2h-28v-40.62zm124.57 0c8.14.2 16.32-.4 24.43.3 8.88 1.42 12.76 13.17 7.16 19.97 3.12 4.2 3.57 10.36.63 14.8-2.2 3.32-6 5.44-9.9 5.5-7.5.13-14.9 0-22.4.06v-40.6m8.8 16c4.6-.1 9.2.4 13.8-.2 3.3-.7 3.2-6.2-.3-6.5-4.5-.2-9.08 0-13.6-.1-.03 2.3-.03 4.6 0 6.9m0 8.9c0 2.2-.03 4.4-.05 6.5 4.8 0 9.66.3 14.47-.1 2.3-1.1 2.1-3.7.82-5.6-4.88-1.7-10.2-.5-15.26-.8zm55.56-19.4c2.2-3.3 6.05-5.4 10.07-5.4 7.3-.1 14.64 0 21.95 0v9.1c-7.37.08-14.7-.1-22.05.08-2.7-.1-4.14 3.7-2.3 5.56 1.66 1.73 4.2 1.2 6.34 1.3 4.36.06 9.36-.82 13 2.3 4.9 3.4 6.44 10.5 3.6 15.7-2.18 4.24-6.94 6.8-11.64 6.6h-21.2v-9.2c7.73-.1 15.5.2 23.2-.1 3.5-1.32 1.57-7.14-1.94-6.46-5.58-.3-12.1 1.3-16.7-2.78-4.9-3.86-6.06-11.55-2.4-16.63z" fill="#fff"/></svg>