<?xml version="1.0" encoding="utf-8"?>
<!-- Generator: Adobe Illustrator 19.0.0, SVG Export Plug-In . SVG Version: 6.00 Build 0)  -->
<svg version="1.1" id="Layer_1" xmlns="http://www.w3.org/2000/svg" xmlns:xlink="http://www.w3.org/1999/xlink" x="0px" y="0px"
	 viewBox="-463 1939 800 444" style="enable-background:new -463 1939 800 444;" xml:space="preserve">
<style type="text/css">
	.st0{fill:#EB7424;}
</style>
<g id="_x23_eb7424ff">
	<path class="st0" d="M-140.6,1983.4c41.3-4.4,84.2,10.1,114.4,38.8c2.8,2.8,6.7,5.6,6.9,10c0.6,5.3-4.2,10.8-9.7,10.1
		c-4.8,0-7.7-4.4-11.1-7.2c-17.3-15.7-39-26.8-62-31c-40.2-8.4-83.9,5-113.2,33.6c-2.2,2.1-4.5,4.6-7.7,4.6
		c-5.3,0.6-10.7-3.9-10.4-9.3c-0.2-3.3,2-6,4.2-8.2C-205.6,2001.4-173.7,1986.5-140.6,1983.4z"/>
	<path class="st0" d="M-381.6,1993.5c22-4,45.8,6.5,57.6,25.6c1.1,1.9,2.3,3.9,3,6.1c1.4,6.6-6.3,13-12.6,10.4c-4-1.5-5.5-5.8-8-8.9
		c-8.1-10.9-22.7-16.9-36.1-14.4c-17,2.8-31.2,18.3-31.6,35.8c-0.7,14.9,8.4,29.3,21.8,35.6c10.1,4.6,20.2,9.2,30.3,13.7
		c7.4,3.5,15.2,6.3,21.9,11.1c13.3,9.3,22.8,23.7,26.5,39.6c2,7.2,1.3,14.6,1.3,22c-1.2,14.2-7.8,27.6-17.3,38.1
		c-11.6,12.5-28.1,20.3-45.1,21.2c-16.3,0.9-32.9-4.4-45.4-14.8c-11.3-9.2-19.5-22.3-22.6-36.6c-1.2-5.7,4.5-11.1,10.1-10.3
		c4.5-0.1,7.5,3.9,8.5,7.8c3.7,14.8,15.5,27.2,29.9,32.2c11.4,4.2,24.5,3.4,35.5-1.8c13.7-6.3,24-19.5,26.6-34.4
		c4.2-20.8-7.9-43.3-27.2-51.7c-12.4-5.6-24.8-11.2-37.2-16.8c-7.5-3.2-14.8-7.5-20.5-13.5c-9.6-9.2-15.5-22.1-16.5-35.4
		c-1.5-16.1,4.6-32.6,15.9-44C-404.7,2001.3-393.5,1995.6-381.6,1993.5z"/>
	<path class="st0" d="M-129.6,2040.3c5.9-2.8,13.7,2.1,13.3,8.7c0,47,0,93.9,0,140.9c-0.3,6.6,3,13.2,8.5,16.8
		c5,3.4,11.7,3.8,17.3,1.7c4.4-1.6,7.3-5.5,10-9.1c3.9-5.9,14.5-3.9,16.2,2.9c1.6,3.8-0.2,7.8-2.5,10.9c-5.4,8-14.3,13.1-23.6,15.2
		c-4.4,0.5-9,0.4-13.4,0.1c-12.3-2.4-23.3-10.9-28.3-22.4c-2.4-5-3.1-10.7-3.2-16.2c0-46.7,0-93.3,0-140
		C-135.5,2046-133.5,2041.8-129.6,2040.3z"/>
	<path class="st0" d="M-227.6,2096.6c16.9-1.7,34.5,3.5,47.8,14.2c6.6,5.8,12.8,12.3,16.9,20.1c7.8,14.1,10.3,31,6.4,46.7
		c-6.4,29.5-35.3,52.5-65.5,51.1c-11.5,0.5-22.8-3.5-32.7-9.1c-15.1-8.9-26.6-24-30.8-41.1c-3.9-15.2-2-31.9,5.2-45.9
		C-270.3,2112.8-249.8,2098.7-227.6,2096.6 M-226.6,2115.6c-10.8,1.4-21.1,6.4-28.6,14.3c-11.5,11.8-16.3,29.9-11.4,45.8
		c5.4,19.4,24.3,34.4,44.5,34.1c15.8,0.8,31.3-7.7,40.1-20.6c5.8-8.9,9-19.5,8.1-30.2c-1.2-12.7-7.4-24.9-17.3-32.9
		C-200.9,2118.1-214,2114-226.6,2115.6z"/>
	<path class="st0" d="M-35.9,2116.1c10.7-11.3,25.8-18.1,41.2-19.6c17.4-1.6,35.4,4.2,48.7,15.6c11.9,9.7,19.7,24,22.7,38.9
		c0.5,4.9,1.4,9.9,0.3,14.8c-1.2,4.2-5.7,6.4-9.8,6.2c-34,0.3-68-0.2-101.9,0.2c0,3.7,1.6,7.1,3.1,10.5c6,13,18.3,22.7,32.2,26
		c12,2.6,25.1,0.8,35.6-5.7c4.3-2.2,7.3-6,11.2-8.8c6.1-3.6,15,2.7,13.6,9.7c0.1,2.6-1.8,4.6-3.4,6.3c-15.8,15.7-39.9,22-61.5,16.9
		c-16.9-4.1-32.1-14.9-41.1-29.8c-6.5-10.2-9.8-22.3-9.9-34.4C-55.4,2145.6-48.4,2128.2-35.9,2116.1 M-16.7,2124.3
		c-9.2,6.8-16.5,17-18.2,28.5c11,0.7,22,0.1,32.9,0.3c19.7-0.2,39.4,0.4,59-0.3c0.2-3-1.2-5.9-2.3-8.7c-5.7-13.6-18-24.2-32.4-27.4
		C9.1,2113.1-5.5,2116.4-16.7,2124.3z"/>
	<path class="st0" d="M130.4,2096.5c14.4-1.9,29.6,5.6,36.8,18.2c3.4,5.6-0.4,14.1-7.2,14.6c-4.2,0.8-7.8-2.1-9.8-5.5
		c-4.6-6.9-14-10.6-21.8-7.4c-7.7,2.6-12.7,10.6-12.7,18.5c0,47,0,94.1,0,141.1c0.3,3.9-2.4,7.4-5.8,8.9c-4.4,1.9-10.1-0.3-12.1-4.6
		c-1-2-1-4.2-1.1-6.3c0-43,0-86,0-129c0.1-6.9-0.6-14.1,1.5-20.8C101.9,2109.5,115.5,2098.3,130.4,2096.5z"/>
	<path class="st0" d="M230.4,2097.6c14.7-3.1,30.4-0.6,43.7,6.4c20.7,10.6,34.8,32.8,35.6,56c0,19.7,0,39.4,0,59.1
		c0.4,5.2-4.5,10.1-9.7,9.8c-4.5,0.3-8.5-3.5-9.1-7.8c-0.6-3.9-0.1-7.9-0.1-11.8c-8.6,8.4-19.2,14.8-31,17.6
		c-7.9,2.7-16.4,2-24.6,1.8c-14.4-2.2-28.5-8.5-38.6-19.2c-12.8-12.2-19.7-29.9-19.8-47.4c0.4-13.9,4.8-27.8,13.3-38.9
		C199.8,2110,214.4,2100.7,230.4,2097.6 M237.4,2115.6c-19,2.3-35.8,17-40.1,35.7c-3.5,13.4-0.4,28.3,7.9,39.3
		c7.3,10.1,18.9,16.8,31.1,18.8c7.4,0.5,15,0.7,22-2.1c16.8-5.4,29.5-21,31.9-38.4c0.2-4.3,0.2-8.7,0-13
		c-2-14.9-11.7-28.3-24.9-35.3C256.8,2116.5,247,2114.3,237.4,2115.6z"/>
	<path class="st0" d="M5.3,2283.4c3.7-1.3,7.9-0.1,10.4,3c23.7,23.7,56.9,37.1,90.3,37.4c31.7-0.3,63.3-12.4,86.6-34
		c3.1-2.6,5.8-6.8,10.4-6.7c5.5-0.7,10.5,4.6,10,10c-0.2,2.1-1.2,4-2.4,5.6c-26.8,27.7-65,44-103.5,43.9
		c-39.2,0.8-78.4-15.6-105.6-43.8c-2.8-2.6-2.8-6.8-1.9-10.2C0.8,2286.1,2.9,2284.2,5.3,2283.4z"/>
</g>
</svg>
