<?xml version="1.0" encoding="UTF-8" ?>
<!DOCTYPE svg PUBLIC "-//W3C//DTD SVG 1.1//EN" "http://www.w3.org/Graphics/SVG/1.1/DTD/svg11.dtd">
<svg width="800pt" height="444pt" viewBox="0 0 800 444" version="1.1" xmlns="http://www.w3.org/2000/svg">
<g id="#ffffffff">
<path fill="#ffffff" opacity="1.00" d=" M 0.00 0.00 L 800.00 0.00 L 800.00 444.00 L 0.00 444.00 L 0.00 0.00 M 322.38 44.45 C 289.26 47.47 257.40 62.39 233.84 85.85 C 231.58 87.99 229.41 90.69 229.60 94.00 C 229.32 99.45 234.71 103.95 240.00 103.30 C 243.26 103.33 245.53 100.76 247.71 98.71 C 277.05 70.14 320.72 56.75 360.93 65.11 C 383.94 69.37 405.58 80.45 422.89 96.13 C 426.26 98.89 429.16 103.35 433.98 103.30 C 439.48 104.01 444.31 98.49 443.69 93.17 C 443.53 88.77 439.64 86.04 436.80 83.21 C 406.63 54.58 363.72 40.07 322.38 44.45 M 81.38 54.48 C 69.55 56.56 58.34 62.31 50.03 71.02 C 38.71 82.48 32.62 98.97 34.12 115.04 C 35.04 128.30 40.97 141.20 50.59 150.42 C 56.24 156.45 63.50 160.69 71.05 163.93 C 83.48 169.49 95.88 175.11 108.29 180.74 C 127.65 189.18 139.74 211.66 135.50 232.45 C 132.90 247.35 122.59 260.59 108.86 266.89 C 97.86 272.01 84.80 272.87 73.36 268.65 C 59.00 263.58 47.24 251.26 43.50 236.42 C 42.53 232.47 39.47 228.47 35.02 228.61 C 29.37 227.79 23.73 233.21 24.90 238.92 C 28.04 253.18 36.25 266.24 47.54 275.48 C 60.12 285.87 76.70 291.20 92.98 290.27 C 110.00 289.40 126.52 281.58 138.07 269.06 C 147.58 258.59 154.10 245.15 155.33 230.98 C 155.32 223.65 156.00 216.16 154.05 209.00 C 150.42 193.17 140.90 178.77 127.58 169.44 C 120.87 164.66 113.06 161.85 105.69 158.32 C 95.57 153.77 85.47 149.19 75.37 144.61 C 62.04 138.27 52.89 123.86 53.61 109.01 C 53.95 91.60 68.15 76.04 85.19 73.26 C 98.62 70.73 113.23 76.71 121.34 87.64 C 123.81 90.75 125.36 95.05 129.36 96.55 C 135.60 99.15 143.35 92.75 141.93 86.14 C 141.31 83.94 140.12 81.97 138.97 80.03 C 127.21 60.97 103.39 50.47 81.38 54.48 M 333.35 101.35 C 329.45 102.79 327.47 107.01 327.67 110.99 C 327.66 157.65 327.67 204.32 327.66 250.99 C 327.71 256.51 328.47 262.13 330.85 267.17 C 335.86 278.68 346.90 287.18 359.17 289.54 C 363.63 289.89 368.16 289.95 372.61 289.46 C 381.89 287.31 390.76 282.19 396.20 274.21 C 398.50 271.15 400.35 267.13 398.72 263.33 C 396.92 256.50 386.41 254.59 382.47 260.45 C 379.75 264.06 376.84 267.90 372.44 269.52 C 366.86 271.61 360.15 271.17 355.16 267.78 C 349.64 264.19 346.34 257.56 346.66 250.99 C 346.66 204.01 346.69 157.03 346.65 110.06 C 347.03 103.40 339.27 98.58 333.35 101.35 M 235.45 157.57 C 213.25 159.72 192.71 173.75 182.70 193.70 C 175.54 207.71 173.60 224.35 177.54 239.60 C 181.67 256.73 193.16 271.80 208.31 280.70 C 218.24 286.24 229.49 290.28 241.00 289.76 C 271.26 291.07 300.18 268.10 306.55 238.61 C 310.46 222.96 307.88 206.00 300.13 191.92 C 296.05 184.04 289.87 177.52 283.22 171.77 C 269.94 161.09 252.40 155.87 235.45 157.57 M 427.09 177.09 C 414.65 189.23 407.58 206.63 407.79 223.99 C 407.80 236.07 411.15 248.13 417.64 258.34 C 426.68 273.23 441.92 284.02 458.79 288.15 C 480.38 293.30 504.44 286.93 520.27 271.27 C 521.95 269.53 523.82 267.54 523.72 264.94 C 525.19 257.94 516.30 251.65 510.16 255.21 C 506.33 258.01 503.25 261.77 498.99 264.00 C 488.47 270.53 475.39 272.35 463.37 269.71 C 449.48 266.43 437.19 256.71 431.20 243.71 C 429.72 240.39 428.07 236.96 428.09 233.25 C 462.06 232.85 496.06 233.30 530.04 233.03 C 534.19 233.23 538.63 231.02 539.87 226.84 C 540.97 221.97 540.09 216.91 539.60 212.02 C 536.60 197.04 528.83 182.82 516.94 173.08 C 503.64 161.69 485.68 155.95 468.25 157.50 C 452.86 159.04 437.78 165.80 427.09 177.09 M 593.43 157.54 C 578.52 159.27 564.93 170.50 561.25 185.19 C 559.12 191.93 559.78 199.05 559.70 206.00 C 559.70 249.00 559.72 292.01 559.69 335.01 C 559.75 337.14 559.77 339.40 560.78 341.35 C 562.81 345.70 568.50 347.86 572.91 345.97 C 576.37 344.48 579.06 340.92 578.74 337.04 C 578.73 290.02 578.73 242.99 578.75 195.97 C 578.72 188.02 583.72 180.04 591.40 177.44 C 599.23 174.17 608.62 177.95 613.19 184.81 C 615.24 188.19 618.79 191.12 623.01 190.33 C 629.82 189.91 633.60 181.40 630.18 175.77 C 623.02 163.15 607.81 155.67 593.43 157.54 M 693.38 158.58 C 677.39 161.73 662.79 171.02 653.10 184.11 C 644.58 195.20 640.22 209.11 639.82 223.01 C 639.92 240.56 646.79 258.23 659.58 270.42 C 669.72 281.05 683.79 287.41 698.20 289.57 C 706.42 289.80 714.90 290.48 722.83 287.78 C 734.60 285.00 745.17 278.56 753.79 270.18 C 753.74 274.10 753.32 278.06 753.88 281.97 C 754.49 286.26 758.54 290.08 762.99 289.80 C 768.19 290.18 773.05 285.20 772.68 280.04 C 772.62 260.33 772.66 240.63 772.66 220.93 C 771.89 197.71 757.71 175.53 737.05 164.94 C 723.78 157.94 708.08 155.46 693.38 158.58 M 468.31 344.36 C 465.85 345.23 463.75 347.12 462.48 349.39 C 461.59 352.78 461.56 357.05 464.36 359.62 C 491.59 387.84 530.78 404.15 570.00 403.39 C 608.56 403.51 646.74 387.21 673.54 359.54 C 674.80 357.94 675.80 356.02 675.95 353.95 C 676.49 348.59 671.46 343.27 666.00 343.96 C 661.46 343.90 658.74 348.00 655.64 350.65 C 632.30 372.27 600.74 384.37 569.00 384.68 C 535.58 384.42 502.37 371.00 478.66 347.32 C 476.19 344.30 472.01 343.09 468.31 344.36 Z" />
<path fill="#ffffff" opacity="1.00" d=" M 236.43 176.59 C 249.04 175.01 262.10 179.13 271.93 187.10 C 281.85 195.13 288.06 207.32 289.27 219.98 C 290.13 230.59 286.91 241.28 281.12 250.14 C 272.28 263.05 256.76 271.55 240.97 270.75 C 220.70 271.00 201.84 256.00 196.44 236.63 C 191.57 220.81 196.30 202.64 207.84 190.86 C 215.35 182.97 225.66 177.97 236.43 176.59 Z" />
<path fill="#ffffff" opacity="1.00" d=" M 446.30 185.29 C 457.45 177.42 472.08 174.10 485.39 177.72 C 499.75 180.98 512.12 191.58 517.78 205.15 C 518.84 207.92 520.22 210.78 520.04 213.82 C 500.38 214.47 480.67 213.91 461.00 214.10 C 450.02 213.91 439.02 214.50 428.06 213.78 C 429.76 202.29 437.09 192.12 446.30 185.29 Z" />
<path fill="#ffffff" opacity="1.00" d=" M 700.42 176.62 C 709.95 175.32 719.75 177.47 728.31 181.71 C 741.49 188.72 751.22 202.12 753.22 216.98 C 753.48 221.32 753.47 225.67 753.26 230.01 C 750.91 247.43 738.18 262.98 721.39 268.40 C 714.41 271.21 706.76 271.01 699.39 270.49 C 687.15 268.50 675.62 261.77 668.30 251.71 C 659.95 240.65 656.88 225.78 660.36 212.36 C 664.64 193.67 681.47 178.97 700.42 176.62 Z" />
</g>
<g id="#eb7424ff">
<path fill="#eb7424" opacity="1.00" d=" M 322.38 44.45 C 363.72 40.07 406.63 54.58 436.80 83.21 C 439.64 86.04 443.53 88.77 443.69 93.17 C 444.31 98.49 439.48 104.01 433.98 103.30 C 429.16 103.35 426.26 98.89 422.89 96.13 C 405.58 80.45 383.94 69.37 360.93 65.11 C 320.72 56.75 277.05 70.14 247.71 98.71 C 245.53 100.76 243.26 103.33 240.00 103.30 C 234.71 103.95 229.32 99.45 229.60 94.00 C 229.41 90.69 231.58 87.99 233.84 85.85 C 257.40 62.39 289.26 47.47 322.38 44.45 Z" />
<path fill="#eb7424" opacity="1.00" d=" M 81.38 54.48 C 103.39 50.47 127.21 60.97 138.97 80.03 C 140.12 81.97 141.31 83.94 141.93 86.14 C 143.35 92.75 135.60 99.15 129.36 96.55 C 125.36 95.05 123.81 90.75 121.34 87.64 C 113.23 76.71 98.62 70.73 85.19 73.26 C 68.15 76.04 53.95 91.60 53.61 109.01 C 52.89 123.86 62.04 138.27 75.37 144.61 C 85.47 149.19 95.57 153.77 105.69 158.32 C 113.06 161.85 120.87 164.66 127.58 169.44 C 140.90 178.77 150.42 193.17 154.05 209.00 C 156.00 216.16 155.32 223.65 155.33 230.98 C 154.10 245.15 147.58 258.59 138.07 269.06 C 126.52 281.58 110.00 289.40 92.98 290.27 C 76.70 291.20 60.12 285.87 47.54 275.48 C 36.25 266.24 28.04 253.18 24.90 238.92 C 23.73 233.21 29.37 227.79 35.02 228.61 C 39.47 228.47 42.53 232.47 43.50 236.42 C 47.24 251.26 59.00 263.58 73.36 268.65 C 84.80 272.87 97.86 272.01 108.86 266.89 C 122.59 260.59 132.90 247.35 135.50 232.45 C 139.74 211.66 127.65 189.18 108.29 180.74 C 95.88 175.11 83.48 169.49 71.05 163.93 C 63.50 160.69 56.24 156.45 50.59 150.42 C 40.97 141.20 35.04 128.30 34.12 115.04 C 32.62 98.97 38.71 82.48 50.03 71.02 C 58.34 62.31 69.55 56.56 81.38 54.48 Z" />
<path fill="#eb7424" opacity="1.00" d=" M 333.35 101.35 C 339.27 98.58 347.03 103.40 346.65 110.06 C 346.69 157.03 346.66 204.01 346.66 250.99 C 346.34 257.56 349.64 264.19 355.16 267.78 C 360.15 271.17 366.86 271.61 372.44 269.52 C 376.84 267.90 379.75 264.06 382.47 260.45 C 386.41 254.59 396.92 256.50 398.72 263.33 C 400.35 267.13 398.50 271.15 396.20 274.21 C 390.76 282.19 381.89 287.31 372.61 289.46 C 368.16 289.95 363.63 289.89 359.17 289.54 C 346.90 287.18 335.86 278.68 330.85 267.17 C 328.47 262.13 327.71 256.51 327.66 250.99 C 327.67 204.32 327.66 157.65 327.67 110.99 C 327.47 107.01 329.45 102.79 333.35 101.35 Z" />
<path fill="#eb7424" opacity="1.00" d=" M 235.45 157.57 C 252.40 155.87 269.94 161.09 283.22 171.77 C 289.87 177.52 296.05 184.04 300.13 191.92 C 307.88 206.00 310.46 222.96 306.55 238.61 C 300.18 268.10 271.26 291.07 241.00 289.76 C 229.49 290.28 218.24 286.24 208.31 280.70 C 193.16 271.80 181.67 256.73 177.54 239.60 C 173.60 224.35 175.54 207.71 182.70 193.70 C 192.71 173.75 213.25 159.72 235.45 157.57 M 236.43 176.59 C 225.66 177.97 215.35 182.97 207.84 190.86 C 196.30 202.64 191.57 220.81 196.44 236.63 C 201.84 256.00 220.70 271.00 240.97 270.75 C 256.76 271.55 272.28 263.05 281.12 250.14 C 286.91 241.28 290.13 230.59 289.27 219.98 C 288.06 207.32 281.85 195.13 271.93 187.10 C 262.10 179.13 249.04 175.01 236.43 176.59 Z" />
<path fill="#eb7424" opacity="1.00" d=" M 427.09 177.09 C 437.78 165.80 452.86 159.04 468.25 157.50 C 485.68 155.95 503.64 161.69 516.94 173.08 C 528.83 182.82 536.60 197.04 539.60 212.02 C 540.09 216.91 540.97 221.97 539.87 226.84 C 538.63 231.02 534.19 233.23 530.04 233.03 C 496.06 233.30 462.06 232.85 428.09 233.25 C 428.07 236.96 429.72 240.39 431.20 243.71 C 437.19 256.71 449.48 266.43 463.37 269.71 C 475.39 272.35 488.47 270.53 498.99 264.00 C 503.25 261.77 506.33 258.01 510.16 255.21 C 516.30 251.65 525.19 257.94 523.72 264.94 C 523.82 267.54 521.95 269.53 520.27 271.27 C 504.44 286.93 480.38 293.30 458.79 288.15 C 441.92 284.02 426.68 273.23 417.64 258.34 C 411.15 248.13 407.80 236.07 407.79 223.99 C 407.58 206.63 414.65 189.23 427.09 177.09 M 446.30 185.29 C 437.09 192.12 429.76 202.29 428.06 213.78 C 439.02 214.50 450.02 213.91 461.00 214.10 C 480.67 213.91 500.38 214.47 520.04 213.82 C 520.22 210.78 518.84 207.92 517.78 205.15 C 512.12 191.58 499.75 180.98 485.39 177.72 C 472.08 174.10 457.45 177.42 446.30 185.29 Z" />
<path fill="#eb7424" opacity="1.00" d=" M 593.43 157.54 C 607.81 155.67 623.02 163.15 630.18 175.77 C 633.60 181.40 629.82 189.91 623.01 190.33 C 618.79 191.12 615.24 188.19 613.19 184.81 C 608.62 177.95 599.23 174.17 591.40 177.44 C 583.72 180.04 578.72 188.02 578.75 195.97 C 578.73 242.99 578.73 290.02 578.74 337.04 C 579.06 340.92 576.37 344.48 572.91 345.97 C 568.50 347.86 562.81 345.70 560.78 341.35 C 559.77 339.40 559.75 337.14 559.69 335.01 C 559.72 292.01 559.70 249.00 559.70 206.00 C 559.78 199.05 559.12 191.93 561.25 185.19 C 564.93 170.50 578.52 159.27 593.43 157.54 Z" />
<path fill="#eb7424" opacity="1.00" d=" M 693.38 158.58 C 708.08 155.46 723.78 157.94 737.05 164.94 C 757.71 175.53 771.89 197.71 772.66 220.93 C 772.66 240.63 772.62 260.33 772.68 280.04 C 773.05 285.20 768.19 290.18 762.99 289.80 C 758.54 290.08 754.49 286.26 753.88 281.97 C 753.32 278.06 753.74 274.10 753.79 270.18 C 745.17 278.56 734.60 285.00 722.83 287.78 C 714.90 290.48 706.42 289.80 698.20 289.57 C 683.79 287.41 669.72 281.05 659.58 270.42 C 646.79 258.23 639.92 240.56 639.82 223.01 C 640.22 209.11 644.58 195.20 653.10 184.11 C 662.79 171.02 677.39 161.73 693.38 158.58 M 700.42 176.62 C 681.47 178.97 664.64 193.67 660.36 212.36 C 656.88 225.78 659.95 240.65 668.30 251.71 C 675.62 261.77 687.15 268.50 699.39 270.49 C 706.76 271.01 714.41 271.21 721.39 268.40 C 738.18 262.98 750.91 247.43 753.26 230.01 C 753.47 225.67 753.48 221.32 753.22 216.98 C 751.22 202.12 741.49 188.72 728.31 181.71 C 719.75 177.47 709.95 175.32 700.42 176.62 Z" />
<path fill="#eb7424" opacity="1.00" d=" M 468.31 344.36 C 472.01 343.09 476.19 344.30 478.66 347.32 C 502.37 371.00 535.58 384.42 569.00 384.68 C 600.74 384.37 632.30 372.27 655.64 350.65 C 658.74 348.00 661.46 343.90 666.00 343.96 C 671.46 343.27 676.49 348.59 675.95 353.95 C 675.80 356.02 674.80 357.94 673.54 359.54 C 646.74 387.21 608.56 403.51 570.00 403.39 C 530.78 404.15 491.59 387.84 464.36 359.62 C 461.56 357.05 461.59 352.78 462.48 349.39 C 463.75 347.12 465.85 345.23 468.31 344.36 Z" />
</g>
</svg>
