<?xml version="1.0" encoding="utf-8"?>
<!-- Generator: Adobe Illustrator 18.0.0, SVG Export Plug-In . SVG Version: 6.00 Build 0)  -->
<!DOCTYPE svg PUBLIC "-//W3C//DTD SVG 1.1//EN" "http://www.w3.org/Graphics/SVG/1.1/DTD/svg11.dtd">
<svg version="1.1" id="Logo" xmlns:sketch="http://www.bohemiancoding.com/sketch/ns"
	 xmlns="http://www.w3.org/2000/svg" xmlns:xlink="http://www.w3.org/1999/xlink" x="0px" y="0px" width="251.5px" height="61px"
	 viewBox="-2.5 0 251.5 61" enable-background="new -2.5 0 251.5 61" xml:space="preserve">
<g id="SSL.com" transform="translate(0.000000, -1.000000)" sketch:type="MSLayerGroup">
	<g id="_x23_ffffffff" transform="translate(65.670391, 0.772277)" sketch:type="MSShapeGroup">
		<path id="Shape" fill="#303030" d="M91.9,0.7c5.2-0.1,10.3,0,15.5,0c0.7,0,1.2,0.6,1.1,1.3c-2.6,13.4-5.1,26.9-7.9,40.3
			c-0.1,0.7,0.4,1.4,1.1,1.4c4.6,0,9.1,0,13.7,0c0.7,0,1.2,0.7,1.1,1.4c-0.9,4.6-1.8,9.2-2.7,13.8c-0.1,0.5-0.6,0.9-1.1,0.9
			c-10.5,0-21,0-31.6,0c-0.7,0-1.2-0.6-1.1-1.3c0.7-3.4,1-7,2.9-10c3-5.4,4.2-11.8,2.7-17.9c0-0.1,0-0.3,0-0.4
			c0.8-5.8,2.3-11.5,3.2-17.3c0.3-2.5,1.6-4.6,2.9-6.7c0.3-0.4,0.2-1-0.1-1.3c-0.7-0.9-0.9-2-0.8-3.1C90.8,1.2,91.3,0.8,91.9,0.7
			L91.9,0.7z"/>
		<path id="Shape_1_" fill="#303030" d="M49.9,4.8c0.6,0.3,0.8,1,0.5,1.6c-2.3,4-4.6,8-6.9,11.9c-0.3,0.6-1.1,0.7-1.6,0.4
			c-3.5-2.4-7.6-4.6-11.9-3.4c-2.3,0.6-3.8,4-1.4,5.4c4.3,2.1,9.6,2.4,13.2,5.9c4.4,3.5,4.8,9.8,3.1,14.8c-2.1,8.3-8.8,15-16.9,17.4
			c-9.1,3-20,1.3-27.1-5.4c-0.4-0.3-0.4-0.9-0.2-1.3c2.2-4.2,4.3-8.4,6.4-12.6c0.4-0.7,1.3-0.8,1.9-0.2c3.5,4.1,8.5,7.6,14.1,6.6
			c2.4-0.4,6.1-3.7,3.6-5.9c-4.6-2.6-10.5-2.8-14.5-6.4S7.5,23.9,9,19c2.2-7.2,7.9-13.3,15-16C32.3-0.5,41.9,0.7,49.9,4.8z"/>
		<path id="Shape_2_" fill="#303030" d="M87.1,4.9c0.5,0.3,0.7,1,0.4,1.5c-2.3,4-4.6,8-6.9,12c-0.3,0.6-1,0.7-1.5,0.4
			c-3-2-6.2-3.9-9.9-3.8c-2.1-0.2-4,1.2-4.7,3.1c0,0.2,0,0.4-0.1,0.6c0.5,2.6,3.7,3,5.8,3.7c5.4,1.3,11.1,4.3,12.5,10
			c1.3,8.2-2.5,16.7-8.8,21.8c-8.9,7.2-22.1,7.8-32,2.3c-0.6-0.4-0.8-1.2-0.3-1.7c3.1-3.2,5.5-6.9,7-11.1c0.2-0.7,1-0.9,1.6-0.5
			c3.4,2.2,7.7,3.9,11.6,1.9c1.4-0.6,2.1-2,2.7-3.3c0.2-0.5,0.1-1-0.3-1.3c-3.8-3-9.2-3-13.3-5.6c-0.3-0.2-0.4-0.5-0.5-0.8
			c-0.5-3.8-2.1-7.3-4.8-10c-0.4-0.4-0.4-0.9-0.2-1.4c3.5-5.4,6.3-11.3,10-16.6c0.1-0.1,0.2-0.2,0.3-0.3C64.8-0.7,77.5-0.3,87.1,4.9
			z"/>
		<g id="Group" transform="translate(117.969274, 45.148515)">
			<path id="Shape_3_" fill="#303030" d="M0.7,14.6v-3.7h3.7v3.7H0.7L0.7,14.6z"/>
			<path id="Shape_4_" fill="#303030" d="M20.1,4.8l-3.6,0.7c-0.1-0.7-0.4-1.3-0.8-1.6c-0.4-0.4-1-0.5-1.7-0.5
				c-0.9,0-1.6,0.3-2.2,0.9C11.3,4.9,11,5.9,11,7.4c0,1.6,0.3,2.8,0.8,3.5c0.6,0.7,1.3,1,2.2,1c0.7,0,1.3-0.2,1.7-0.6
				c0.4-0.4,0.8-1.1,0.9-2l3.6,0.6c-0.4,1.7-1.1,2.9-2.1,3.7c-1.1,0.8-2.5,1.3-4.3,1.3c-2,0-3.6-0.6-4.8-1.9s-1.8-3-1.8-5.3
				S7.8,3.6,9,2.4s2.8-1.9,4.9-1.9c1.7,0,3,0.4,4,1.1C19,2.2,19.7,3.3,20.1,4.8L20.1,4.8z"/>
			<path id="Shape_5_" fill="#303030" d="M22,7.5c0-1.2,0.3-2.4,0.9-3.5s1.4-2,2.5-2.6s2.3-0.9,3.7-0.9c2.1,0,3.8,0.7,5.1,2
				c1.3,1.4,2,3.1,2,5.2s-0.7,3.8-2,5.2c-1.4,1.4-3,2.1-5.1,2.1c-1.3,0-2.5-0.3-3.6-0.9c-1.2-0.6-2-1.4-2.6-2.5
				C22.3,10.4,22,9,22,7.5L22,7.5z M25.8,7.6c0,1.4,0.3,2.4,1,3.2c0.7,0.7,1.5,1.1,2.4,1.1s1.8-0.4,2.4-1.1c0.6-0.7,1-1.8,1-3.2
				s-0.3-2.4-1-3.1c-0.6-0.7-1.4-1.1-2.4-1.1s-1.8,0.4-2.4,1.1C26.1,5.2,25.8,6.3,25.8,7.6L25.8,7.6z"/>
			<path id="Shape_6_" fill="#303030" d="M38.9,0.7h3.4v1.9c1.2-1.5,2.6-2.2,4.3-2.2c0.9,0,1.7,0.2,2.3,0.5c0.7,0.4,1.2,0.9,1.6,1.7
				c0.6-0.7,1.3-1.3,2-1.7s1.5-0.5,2.3-0.5c1,0,1.9,0.2,2.6,0.6s1.2,1,1.6,1.8c0.3,0.6,0.4,1.5,0.4,2.9v8.9h-3.7V6.7
				c0-1.4-0.1-2.3-0.4-2.7c-0.3-0.5-0.9-0.8-1.6-0.8c-0.5,0-1,0.2-1.4,0.5c-0.5,0.3-0.8,0.8-1,1.4S51,6.7,51,8v6.6h-3.7V7
				c0-1.3-0.1-2.2-0.2-2.6C47,4,46.8,3.7,46.5,3.5s-0.6-0.3-1.1-0.3c-0.6,0-1.1,0.2-1.5,0.5c-0.5,0.3-0.8,0.7-1,1.3
				s-0.3,1.5-0.3,2.9v6.7h-3.7V0.7L38.9,0.7z"/>
		</g>
	</g>
</g>
<g id="Lock">
	<path fill="#A0CC41" d="M-1.7,10.9h8.6c0.5,0,1-0.4,1.1-0.9l1.8-8.7c0.1-0.5-0.2-0.9-0.7-0.9H0.5c-0.5,0-1,0.4-1.1,0.9L-2.4,10
		C-2.6,10.5-2.2,10.9-1.7,10.9z"/>
	<path fill="#A0CC41" d="M8,25.8h8.6c0.5,0,1-0.4,1.1-0.9l1.8-8.7c0.1-0.5-0.2-0.9-0.7-0.9h-8.6c-0.5,0-1,0.4-1.1,0.9l-1.8,8.7
		C7.1,25.4,7.4,25.8,8,25.8z"/>
	<path fill="#A0CC41" d="M66.5,10.8h-5.3c-0.5,0-0.8-0.4-0.7-0.9l1.8-8.7c0.1-0.5-0.2-0.9-0.7-0.9H15.4c-0.5,0-1,0.4-1.1,0.9
		l-1.8,8.7c-0.1,0.5,0.2,0.9,0.7,0.9h11.1c0.5,0,0.8,0.4,0.7,0.9L14.9,59.6c-0.1,0.5,0.2,0.9,0.7,0.9H56c0.5,0,1-0.4,1.1-0.9
		l10.1-47.9C67.3,11.2,67,10.8,66.5,10.8z M46.7,29.4c-0.2,1.6-1.2,3.1-2.6,4l-0.4,10.8c0,0.6-0.6,1.3-1.2,1.3H35
		c-0.6,0-0.8-0.6-0.6-1.3L39,33.6c-1.1-0.9-1.6-2.4-1-4.2c0.7-2.1,2.6-3.7,4.6-4c0.3,0,0.6-0.1,0.9,0c0.3,0,0.6,0.1,0.8,0.1
		C46,25.9,47,27.5,46.7,29.4z"/>
</g>
</svg>
