<?xml version="1.0" encoding="UTF-8" standalone="no"?>
<svg width="243px" height="61px" viewBox="0 0 243 61" version="1.1" xmlns="http://www.w3.org/2000/svg" xmlns:xlink="http://www.w3.org/1999/xlink" xmlns:sketch="http://www.bohemiancoding.com/sketch/ns">
    <!-- Generator: Sketch 3.2.2 (9983) - http://www.bohemiancoding.com/sketch -->
    <title>Untitled 2</title>
    <desc>Created with Sketch.</desc>
    <defs></defs>
    <g id="Page-1" stroke="none" stroke-width="1" fill="none" fill-rule="evenodd" sketch:type="MSPage">
        <g id="Layer_3" sketch:type="MSLayerGroup" transform="translate(0.000000, -1.000000)">
            <g id="_x23_ffffffff" transform="translate(65.670391, 0.772277)" fill="#303030" sketch:type="MSShapeGroup">
                <path d="M91.9010698,0.749465347 C97.0661704,0.641108911 102.244796,0.707326733 107.417411,0.704316832 C108.126729,0.703564356 108.658718,1.34918812 108.523466,2.0459802 C105.914617,15.4829307 103.376399,28.9281584 100.661603,42.3470495 C100.520341,43.0453465 101.050827,43.6992475 101.762399,43.7007525 C106.31436,43.7097822 110.871581,43.685703 115.422791,43.7082772 C116.135866,43.7120396 116.662595,44.369703 116.518327,45.068 C115.572318,49.6445545 114.736014,54.2466931 113.858383,58.8367921 C113.756944,59.3687921 113.291078,59.7540594 112.750073,59.7548119 C102.231271,59.7623366 91.7034525,59.7457822 81.1756341,59.7615842 C80.4678184,59.7623366 79.9313212,59.1182178 80.0688268,58.4229307 C80.747338,55.0074455 81.0215978,51.4339406 82.9729749,48.4624158 C85.9875782,43.0385743 87.1454804,36.6447921 85.6637263,30.5798416 C85.6306648,30.4436436 85.621648,30.3021782 85.640433,30.1629703 C86.4293994,24.3598812 87.9720168,18.6711683 88.860919,12.8748515 C89.1269134,10.3901782 90.4373492,8.2749703 91.7132207,6.19512871 C91.9686955,5.7790099 91.958176,5.23271287 91.6425894,4.8609901 C90.8972039,3.98209901 90.7048464,2.90681188 90.7980196,1.76079208 C90.8461089,1.19417822 91.3337654,0.76150495 91.9010698,0.749465347 L91.9010698,0.749465347 Z" id="Shape"></path>
                <path d="M49.895743,4.76546535 C50.4765726,5.06043564 50.7049972,5.77528713 50.382648,6.34265347 C48.1126788,10.3375446 45.7743324,14.2948119 43.5103743,18.289703 C43.1872737,18.8593267 42.4531592,19.0361584 41.9098994,18.6712079 C38.3926117,16.3099406 34.2892346,14.0359604 29.9950028,15.2685149 C27.6859609,15.8193267 26.1966927,19.3025347 28.5853827,20.674297 C32.9036592,22.8165941 38.1814693,23.0671683 41.8107151,26.5601584 C46.1793352,30.0636832 46.6489581,36.3408317 44.9492989,41.3455446 C42.8701844,49.6039604 36.1526983,56.3310891 28.0458799,58.7736238 C18.9517263,61.7609505 8.00613128,60.0949703 0.928726257,53.4167525 C0.565050279,53.0736238 0.487656425,52.5243168 0.719837989,52.0818614 C2.91166201,47.9078812 4.98401397,43.6676832 7.08717318,39.4455446 C7.44859497,38.7201584 8.42465922,38.6095446 8.95664804,39.2205545 C12.4994832,43.2952079 17.4519385,46.7754059 23.0483408,45.7994455 C25.4670866,45.4390099 29.1263883,42.1258614 26.627243,39.8631683 C21.9888715,37.3107723 16.1610391,37.1106139 12.0929777,33.4167129 C8.05422067,29.8131089 7.42455028,23.7662178 8.87399441,18.8013861 C11.1116536,11.584396 16.8094944,5.46752475 23.9071872,2.84514851 C32.3062989,-0.459722772 41.9497235,0.726930693 49.895743,4.76546535 Z" id="Shape"></path>
                <path d="M87.0748492,4.86629703 C87.6120978,5.15449505 87.7939358,5.84150495 87.4896201,6.37049505 C85.1910978,10.3608713 82.844486,14.3324356 80.5752682,18.3371089 C80.2634385,18.8879208 79.5526173,19.0594851 79.0281425,18.7073267 C76.043595,16.7019802 72.7938045,14.7590891 69.0804022,14.9487129 C67.0088017,14.747802 65.1190391,16.1361188 64.4052123,18.031604 C64.3879302,18.2182178 64.370648,18.4018218 64.3533659,18.5884356 C64.8372654,21.192 68.0036508,21.6269307 70.1083128,22.3357624 C75.4597598,23.6044356 81.1914134,26.618099 82.5777402,32.3165941 C83.9024525,40.5148119 80.107148,49.0584158 73.8179581,54.1195644 C64.9582402,61.3884752 51.7569525,62.0348515 41.8813464,56.4740594 C41.2576872,56.1226535 41.1246899,55.2738614 41.6243687,54.7606733 C44.6983324,51.6002772 47.1358631,47.852198 48.6476732,43.7007921 C48.8881201,43.0401188 49.6823464,42.7925545 50.2706899,43.1770693 C53.6910475,45.4119208 58.0010587,47.1057426 61.862486,45.100396 C63.3051676,44.5127129 63.931081,43.1003168 64.5502318,41.7684356 C64.7666341,41.3026535 64.6291285,40.7488317 64.2233743,40.4335446 C60.3905,37.457505 55.054081,37.4379406 50.9529581,34.8148119 C50.6794497,34.6402376 50.5118883,34.341505 50.473567,34.0194455 C50.0174693,30.2036436 48.3426061,26.6805545 45.6383296,23.973901 C45.2663883,23.6014257 45.192,23.030297 45.4782821,22.5885941 C48.9970726,17.1579802 51.778743,11.2653465 55.4455587,5.94308911 C55.5432402,5.84225743 55.639419,5.74518812 55.7371006,5.64661386 C64.8432765,-0.733623762 77.4735028,-0.291168317 87.0748492,4.86629703 Z" id="Shape"></path>
                <g id="Group" transform="translate(117.969274, 45.148515)">
                    <path d="M0.659726257,14.5709307 L0.659726257,10.9078812 L4.31752514,10.9078812 L4.31752514,14.5709307 L0.659726257,14.5709307 L0.659726257,14.5709307 Z" id="Shape"></path>
                    <path d="M20.1216508,4.81885149 L16.5156983,5.47124752 C16.3939721,4.74962376 16.1189609,4.20633663 15.689162,3.84138614 C15.2593631,3.47643564 14.7018268,3.29358416 14.0158017,3.29358416 C13.1043575,3.29358416 12.3770056,3.60887129 11.8352486,4.23869307 C11.2927402,4.86926733 11.021486,5.92273267 11.021486,7.39984158 C11.021486,9.04324752 11.2972486,10.2035644 11.8487737,10.8807921 C12.3995475,11.5587723 13.1396732,11.8981386 14.0683994,11.8981386 C14.7626899,11.8981386 15.3314972,11.7002376 15.7740698,11.3051881 C16.2166425,10.9101386 16.5292235,10.2291485 16.7110615,9.26447525 L20.3042402,9.8769901 C19.9307961,11.5279208 19.2147151,12.7762772 18.1567486,13.6190495 C17.0972793,14.4618218 15.6786425,14.8839604 13.8993352,14.8839604 C11.8773268,14.8839604 10.2648296,14.2443564 9.06259497,12.9674059 C7.86036034,11.689703 7.25999441,9.92063366 7.25999441,7.6609505 C7.25999441,5.37568317 7.86336592,3.59607921 9.06935754,2.32213861 C10.2753492,1.04819802 11.9073827,0.412356436 13.9647067,0.412356436 C15.6478352,0.412356436 16.986824,0.775049505 17.9809218,1.50043564 C18.9742682,2.22732673 19.688095,3.33271287 20.1216508,4.81885149 L20.1216508,4.81885149 Z" id="Shape"></path>
                    <path d="M22.0489832,7.45251485 C22.0489832,6.23576238 22.3480391,5.05813861 22.9469022,3.91964356 C23.5457654,2.78114851 24.3940922,1.9120396 25.4918827,1.31231683 C26.5896732,0.712594059 27.8159525,0.413108911 29.1699693,0.413108911 C31.2618575,0.413108911 32.9757933,1.09259406 34.3125279,2.45306931 C35.6485112,3.81429703 36.3172542,5.53219802 36.3172542,7.60978218 C36.3172542,9.70467327 35.6432514,11.4406337 34.293743,12.8184158 C32.9434832,14.196198 31.2445754,14.8847129 29.1970196,14.8847129 C27.9294134,14.8847129 26.7211676,14.5972673 25.5715307,14.0238812 C24.4211425,13.4497426 23.5472682,12.6092277 22.948405,11.5008317 C22.3495419,10.3924356 22.0489832,9.04324752 22.0489832,7.45251485 L22.0489832,7.45251485 Z M25.7977011,7.64815842 C25.7977011,9.02142574 26.1238073,10.0733861 26.7745168,10.8032871 C27.4252263,11.5331881 28.2284693,11.8981386 29.182743,11.8981386 C30.1370168,11.8981386 30.9380056,11.5331881 31.5842067,10.8032871 C32.2304078,10.0726337 32.5542598,9.01239604 32.5542598,7.62182178 C32.5542598,6.26586139 32.2304078,5.22293069 31.5842067,4.4930297 C30.9380056,3.76237624 30.1370168,3.39817822 29.182743,3.39817822 C28.2284693,3.39817822 27.4252263,3.76237624 26.7745168,4.4930297 C26.1238073,5.22293069 25.7977011,6.27564356 25.7977011,7.64815842 L25.7977011,7.64815842 Z" id="Shape"></path>
                    <path d="M38.9073184,0.726138614 L42.2788352,0.726138614 L42.2788352,2.61635644 C43.4848268,1.14827723 44.9222486,0.413108911 46.588095,0.413108911 C47.4732402,0.413108911 48.2411676,0.595207921 48.8918771,0.960910891 C49.5425866,1.32661386 50.0760782,1.87817822 50.4931034,2.61635644 C51.1009832,1.87817822 51.7562011,1.32586139 52.458757,0.960910891 C53.1613128,0.595960396 53.9127095,0.413108911 54.7106927,0.413108911 C55.726581,0.413108911 56.5854274,0.619287129 57.2887346,1.03239604 C57.9920419,1.44550495 58.5172682,2.05124752 58.8644134,2.85112871 C59.1161313,3.44182178 59.2416145,4.39821782 59.2416145,5.71956436 L59.2416145,14.5716832 L55.5838156,14.5716832 L55.5838156,6.65790099 C55.5838156,5.28463366 55.457581,4.39821782 55.2066145,3.99865347 C54.8677346,3.47718812 54.3470168,3.21607921 53.6444609,3.21607921 C53.1320084,3.21607921 52.6503631,3.37259406 52.1987737,3.68562376 C51.7471844,3.99865347 51.422581,4.45691089 51.2227095,5.06114851 C51.022838,5.66538614 50.9236536,6.61877228 50.9236536,7.92281188 L50.9236536,14.5716832 L47.2651034,14.5716832 L47.2651034,6.98447525 C47.2651034,5.63679208 47.2004832,4.76843564 47.0697402,4.37639604 C46.9397486,3.98510891 46.7383743,3.69465347 46.4641145,3.50352475 C46.1913575,3.31239604 45.8201676,3.21607921 45.3512961,3.21607921 C44.7869972,3.21607921 44.2790531,3.36807921 43.8289665,3.67207921 C43.3773771,3.97607921 43.0542765,4.41477228 42.8589134,4.98891089 C42.6635503,5.5630495 42.5658687,6.51417822 42.5658687,7.84380198 L42.5658687,14.5709307 L38.9073184,14.5709307 L38.9073184,0.726138614 L38.9073184,0.726138614 Z" id="Shape"></path>
                </g>
            </g>
            <g id="_x23_a0cc41ff" transform="translate(0.000000, 1.000000)" fill="#A0CC41" sketch:type="MSShapeGroup">
                <path d="M18.0846,1.61921782 C19.0884,-0.117168317 21.438,0.425188119 23.0748,0.445722772 C23.121,0.446326733 51.528,0.864267327 63.2574,0.687306931 C63.9504,0.677039604 64.4652,1.33837624 64.3866,2.03111881 C64.1208,4.37810891 63.5994,6.68886139 63.0858,8.99417822 C62.9232,9.72376238 63.4602,10.4267723 64.203,10.4503267 C66.2826,10.5155545 68.3658,10.5505842 70.4454,10.6067525 C71.181,10.6266832 71.7582,11.3218416 71.5776,12.0399505 C68.3478,24.8457228 61.122,56.6865149 60.4038,59.8736139 C60.3066,60.3042376 59.7948,60.5077723 59.3556,60.5077723 L21.2058,60.5077723 C20.55,60.5077723 19.8918,59.9587723 20.0154,59.3107228 C20.7108,55.662802 27.3318,24.582396 30.1194,12.3564257 C30.2796,11.6528119 29.7882,10.9600693 29.073,10.9002772 C25.1922,10.5759505 21.294,10.5656832 17.4,10.5614554 C16.662,10.5608515 16.104,9.88743564 16.236,9.15664356 C16.698,6.60732673 17.0916,4.02116832 18.0846,1.61921782 L18.0846,1.61921782 Z M44.3148,32.970802 C43.17,36.1929307 42.0216,39.4138515 40.812,42.6118218 C40.5162,43.3933465 41.0856,44.2298317 41.9166,44.2292277 C43.767,44.2286238 45.615,44.2262079 47.4666,44.2165446 C48.0762,44.2135248 48.588,43.7448515 48.6456,43.1342475 C48.975,39.6693267 49.2396,36.1911188 49.5378,32.7201584 C49.5636,32.4175743 49.7124,32.1421683 49.9386,31.9410495 C51.9378,30.1654059 53.7642,27.2488812 51.96,24.7333861 C51.897,24.6452079 51.8184,24.5612574 51.7356,24.491802 C47.478,20.938099 40.9728,27.5134158 44.1564,31.872802 C44.3868,32.1886733 44.4456,32.6011782 44.3148,32.970802 L44.3148,32.970802 Z" id="Shape"></path>
                <path d="M15.468,16.1915743 C20.493,16.1553366 20.4204,16.1553366 23.3322,16.1414455 C24.051,16.1378218 24.6012,16.8577426 24.429,17.5607525 C23.787,20.1801287 23.166,22.7499802 22.497,25.2666832 C22.3842,25.6900594 21.9552,25.9872079 21.5202,25.9992871 C18.9432,26.0699505 16.5834,26.0560594 13.9308,26.061495 C13.2168,26.062703 12.6414,25.376 12.804,24.6760099 C13.4418,21.9352376 13.878,19.4481287 14.5572,16.9374653 C14.667,16.531604 15.0504,16.1945941 15.468,16.1915743 L15.468,16.1915743 Z" id="Shape"></path>
                <path d="M3.0132,0.134683168 C8.0382,0.0984455446 7.9656,0.0984455446 10.8774,0.0845544554 C11.5962,0.0809306931 12.1464,0.800851485 11.9742,1.50386139 C11.3322,4.12323762 10.7112,6.69308911 10.0422,9.20979208 C9.9294,9.63316832 9.5004,9.93031683 9.0654,9.94239604 C6.4884,10.0130594 4.1286,9.99916832 1.476,10.004604 C0.762,10.0058119 0.1866,9.31910891 0.3492,8.61911881 C0.987,5.87834653 1.4232,3.39123762 2.1024,0.880574257 C2.2128,0.474712871 2.5962,0.13770297 3.0132,0.134683168 L3.0132,0.134683168 Z" id="Shape"></path>
            </g>
        </g>
    </g>
</svg>