<svg xmlns="http://www.w3.org/2000/svg" width="1501" height="270" viewBox="0 0 1501 270"><g fill="#009AA6"><path d="M134.3 0h.4c2.2 2.6 4.6 4.9 7 7.2 42.4 42.6 85.2 85 127.5 127.7-44.2 44.2-88.4 88.4-132.7 132.6-.7.8-1.4 1.5-2 2.4h-.3c-1.3-2.7-3.8-4.5-5.8-6.6-41-41-81.8-82.1-122.9-123-1.7-1.6-3-3.6-5-4.7h-.6v-1c2.6-1.9 4.7-4.4 7-6.6C47.8 87.2 88.6 46.3 129.5 5.5c1.7-1.7 3.5-3.4 4.8-5.5M62.4 101c3.2 3.3 6.5 6.5 9.7 9.8 6.1-5.4 13.6-9.6 21.8-10.4 5.5-.4 11.5.3 16.1 3.7 4.4 3.4 5.8 10 3.1 14.9-2.5 4.8-7.6 7.6-12.2 10.1-11.4 5.9-24.3 10.8-31.7 22-5.9 8.5-6 19.2-5.5 29.1h65.1v-13.1c-16.6-.1-33.2.2-49.8-.2.3-3.9 1.4-7.9 4-11 5.5-6.7 13.8-9.9 21.4-13.7 8.5-4.1 17.9-8.6 22.6-17.4 4.5-8.8 3.4-20.4-3.2-27.9-5-5.7-12.4-8.6-19.8-9.6-15-2.1-30.6 3.5-41.6 13.7m83.3 22.7c-7.8 9.8-10.7 23.2-8.4 35.5 1.6 8.7 7.4 16.6 15.6 20 10.3 4.3 22.4 3.2 32.2-2 19.3-10.1 27.1-37.6 15.6-56.3 6.4-.1 12.7 0 19.1-.1 3.6-4 7.9-7.4 11.3-11.6-18.7.1-37.5 0-56.2 0-11.2.2-22.2 5.6-29.2 14.5z"/><path d="M170.1 122.2c5-1.5 11-.8 15 2.7 3 2.6 4.5 6.4 5.1 10.2 1.4 9.2-1 18.9-6.8 26.2-3.3 4.2-8.1 7.5-13.5 8.3-5.4.7-11.5-1.1-14.6-5.8-3.9-6.1-3.8-13.8-2.3-20.6 2.1-9.1 7.9-18.1 17.1-21z"/></g><path d="M736.5 65.7c17.6-2.1 36.2 1.6 50.9 11.9 13.2 9.2 22.2 23.7 25.5 39.3 3.1 14.9 2.2 30.7-3 45-4.9 13.4-14.3 25.1-26.5 32.5-16.6 10.2-37.5 12.4-56.2 7.8-15.5-3.8-29.7-13.5-38.4-26.9-9.2-13.9-12.6-31-11.4-47.4 1-14.9 6.5-29.7 16.6-40.9 10.7-12.1 26.4-19.4 42.5-21.3m1.1 20c-8.9 1.5-17.4 5.7-23.6 12.3-8.9 9-12.9 21.7-13.2 34.1-.5 14.4 3.6 29.7 14.1 40.1 16.3 16.5 46 16.5 62.3 0 10.8-10.6 14.7-26.4 14-41.1-.5-12.7-5.1-25.7-14.6-34.5-10.3-9.8-25.3-13.2-39-10.9zm154-6.1c9.7-10.4 24.5-14.4 38.4-14.4 17.2.1 34.9 3.6 49.8 12.6-5.1 5-10.1 10.1-15 15.3-12.1-5.3-25.5-8.5-38.8-7.1-5.8.7-11.8 2.8-15.8 7.3-4.6 5-5.4 13.3-1.2 18.8 3.6 4.6 9.2 6.8 14.6 8.6 13.8 4.4 28.5 6.2 41.2 13.5 7.2 4.1 13.2 10.8 15.5 18.8 3.8 12.7 1.7 27.8-7.9 37.5-10.2 10.5-25.4 13.8-39.6 14-19.4 0-39-5.2-55.4-15.7 5-5.2 10.2-10.4 15.4-15.4 9 4.2 18.1 8.7 28.1 10 10 1.3 21.3 1.6 30.1-4.2 7.4-4.8 9.5-16.2 3.6-22.9-5.2-5.6-12.9-7.7-20-9.8-13.7-3.8-28.5-6.2-40.1-15.1-15.7-12-16.3-37.8-2.9-51.8zm215.3-9.4c24.8-9.3 54.3-5.4 75.6 10.5-4.5 5-8.8 10.2-13.6 14.9-11.7-7.6-26-11.8-40-10-12.4 1.3-24.2 8-31.1 18.5-8.6 12.7-9.9 29-7.1 43.8 2.3 12.8 9.7 25 21.3 31.2 14.5 7.7 32.5 6.9 47.3.5 1-.7 3-.9 2.9-2.6.1-10.3-.1-20.5.1-30.8-11.3-.4-22.6-.1-33.9-.2-.1-5.7-.1-11.4 0-17.1h55.2c.1 20.3 0 40.7 0 61-12.8 8.9-28.2 13.6-43.7 14.4-16.4 1-33.5-2.5-47.1-12.2-13.1-9.2-21.8-23.8-25.1-39.4-3.6-16.9-2.7-35.1 4.8-50.9 6.7-14.4 19.4-26 34.4-31.6zm-768-2.6h116.2v20.5h-46.5c-.1 38.1.1 76.1-.1 114.2-7.7 0-15.4-.2-23.2.1.3-38-.1-76.1.2-114.1-15.6-.3-31.2 0-46.7-.2.1-6.9.1-13.7.1-20.5zm138.2-.1c8.1.1 16.2.1 24.2 0 10.5 33.9 20.6 67.9 31 101.8.7-1 1.3-2 1.5-3.2 9-31.7 18.2-63.4 27.2-95.1.5-1.1.3-2.9 1.7-3.4 7 0 14-.1 21 .1 9.4 34.1 19.4 68.1 28.9 102.2 4-10.7 6.8-21.9 10.4-32.9 7-23.1 14.2-46.2 21.1-69.4 8.1-.1 16.2-.1 24.3 0-14 44.9-28.4 89.7-42.4 134.5-8.3.2-16.6.1-25 .1-9.1-32.1-18.4-64.1-27.5-96.2-.3-.8-.7-1.5-1.1-2.2-9.5 32.7-18.7 65.5-28.2 98.2-8.2.6-16.6.1-24.9.2-14-45-28.3-89.8-42.2-134.7zm535.4.1h22.9c.1 44.9.1 89.8 0 134.7-7.7 0-15.3-.2-23 .1.2-45 .2-89.9.1-134.8zm204 134.7c-.1-44.9-.1-89.8 0-134.7 7.8.2 15.6-.1 23.5.2 14.5 21.1 29.5 42 44.1 63.1 15.1-21 29.6-42.4 44.7-63.3 7.6.2 15.2.1 22.7 0 .2 44.9.1 89.8.1 134.8-7.4-.1-14.8-.1-22.1 0-.2-33.2.2-66.4-.2-99.6-4.7 5.2-8.3 11.4-12.6 17-10.8 15-21.5 30-32.2 45.1h-.9l-38.4-53.7c-2.2-2.8-3.8-6-6.5-8.4-.4 33.2 0 66.4-.2 99.6-7.3-.2-14.7-.3-22-.1zM1418.9 79c1.5-3.9 2.6-7.9 4.6-11.6 8.9.3 17.9.1 26.8.1 16.7 44.8 33.2 89.7 49.8 134.6-8.3 0-16.6.2-24.9-.1-3.2-9.7-6.7-19.2-10.1-28.9h-56.8c-3.3 9.7-6.6 19.4-10 29-8.3-.1-16.6 0-24.9 0 15-41 30.4-82 45.5-123.1m16.6 15.3c-6.9 20.1-13.9 40-20.8 60.1 14.6.1 29.1 0 43.7 0-7.1-20.9-14.4-41.8-21.7-62.6-.4.8-.9 1.6-1.2 2.5z"/></svg>