<?xml version="1.0" encoding="utf-8"?>
<!-- Generator: Adobe Illustrator 18.0.0, SVG Export Plug-In . SVG Version: 6.00 Build 0)  -->
<!DOCTYPE svg PUBLIC "-//W3C//DTD SVG 1.1//EN" "http://www.w3.org/Graphics/SVG/1.1/DTD/svg11.dtd">
<svg version="1.1" id="Layer_1" xmlns="http://www.w3.org/2000/svg" xmlns:xlink="http://www.w3.org/1999/xlink" x="0px" y="0px"
	 width="1501px" height="270px" viewBox="0 0 1501 270" enable-background="new 0 0 1501 270" xml:space="preserve">
<g id="_x23_009aa6ff">
	<path fill="#009AA6" d="M134.3,0h0.4c2.2,2.6,4.6,4.9,7,7.2c42.4,42.6,85.2,85,127.5,127.7c-44.2,44.2-88.4,88.4-132.7,132.6
		c-0.7,0.8-1.4,1.5-2,2.4h-0.3c-1.3-2.7-3.8-4.5-5.8-6.6c-41-41-81.8-82.1-122.9-123c-1.7-1.6-3-3.6-5-4.7l-0.6,0v-1
		c2.6-1.9,4.7-4.4,7-6.6C47.8,87.2,88.6,46.3,129.5,5.5C131.2,3.8,133,2.1,134.3,0 M62.4,101c3.2,3.3,6.5,6.5,9.7,9.8
		c6.1-5.4,13.6-9.6,21.8-10.4c5.5-0.4,11.5,0.3,16.1,3.7c4.4,3.4,5.8,10,3.1,14.9c-2.5,4.8-7.6,7.6-12.2,10.1
		c-11.4,5.9-24.3,10.8-31.7,22c-5.9,8.5-6,19.2-5.5,29.1c21.7,0,43.4,0,65.1,0c0-4.4,0-8.7,0-13.1c-16.6-0.1-33.2,0.2-49.8-0.2
		c0.3-3.9,1.4-7.9,4-11c5.5-6.7,13.8-9.9,21.4-13.7c8.5-4.1,17.9-8.6,22.6-17.4c4.5-8.8,3.4-20.4-3.2-27.9c-5-5.7-12.4-8.6-19.8-9.6
		C89,85.2,73.4,90.8,62.4,101 M145.7,123.7c-7.8,9.8-10.7,23.2-8.4,35.5c1.6,8.7,7.4,16.6,15.6,20c10.3,4.3,22.4,3.2,32.2-2
		c19.3-10.1,27.1-37.6,15.6-56.3c6.4-0.1,12.7,0,19.1-0.1c3.6-4,7.9-7.4,11.3-11.6c-18.7,0.1-37.5,0-56.2,0
		C163.7,109.4,152.7,114.8,145.7,123.7z"/>
	<path fill="#009AA6" d="M170.1,122.2c5-1.5,11-0.8,15,2.7c3,2.6,4.5,6.4,5.1,10.2c1.4,9.2-1,18.9-6.8,26.2
		c-3.3,4.2-8.1,7.5-13.5,8.3c-5.4,0.7-11.5-1.1-14.6-5.8c-3.9-6.1-3.8-13.8-2.3-20.6C155.1,134.1,160.9,125.1,170.1,122.2z"/>
</g>
<g id="_x23_000000ff">
	<path d="M736.5,65.7c17.6-2.1,36.2,1.6,50.9,11.9c13.2,9.2,22.2,23.7,25.5,39.3c3.1,14.9,2.2,30.7-3,45
		c-4.9,13.4-14.3,25.1-26.5,32.5c-16.6,10.2-37.5,12.4-56.2,7.8c-15.5-3.8-29.7-13.5-38.4-26.9c-9.2-13.9-12.6-31-11.4-47.4
		c1-14.9,6.5-29.7,16.6-40.9C704.7,74.9,720.4,67.6,736.5,65.7 M737.6,85.7c-8.9,1.5-17.4,5.7-23.6,12.3c-8.9,9-12.9,21.7-13.2,34.1
		c-0.5,14.4,3.6,29.7,14.1,40.1c16.3,16.5,46,16.5,62.3,0c10.8-10.6,14.7-26.4,14-41.1c-0.5-12.7-5.1-25.7-14.6-34.5
		C766.3,86.8,751.3,83.4,737.6,85.7z"/>
	<path d="M891.6,79.6c9.7-10.4,24.5-14.4,38.4-14.4c17.2,0.1,34.9,3.6,49.8,12.6c-5.1,5-10.1,10.1-15,15.3
		c-12.1-5.3-25.5-8.5-38.8-7.1c-5.8,0.7-11.8,2.8-15.8,7.3c-4.6,5-5.4,13.3-1.2,18.8c3.6,4.6,9.2,6.8,14.6,8.6
		c13.8,4.4,28.5,6.2,41.2,13.5c7.2,4.1,13.2,10.8,15.5,18.8c3.8,12.7,1.7,27.8-7.9,37.5c-10.2,10.5-25.4,13.8-39.6,14
		c-19.4,0-39-5.2-55.4-15.7c5-5.2,10.2-10.4,15.4-15.4c9,4.2,18.1,8.7,28.1,10c10,1.3,21.3,1.6,30.1-4.2c7.4-4.8,9.5-16.2,3.6-22.9
		c-5.2-5.6-12.9-7.7-20-9.8c-13.7-3.8-28.5-6.2-40.1-15.1C878.8,119.4,878.2,93.6,891.6,79.6z"/>
	<path d="M1106.9,70.2c24.8-9.3,54.3-5.4,75.6,10.5c-4.5,5-8.8,10.2-13.6,14.9c-11.7-7.6-26-11.8-40-10c-12.4,1.3-24.2,8-31.1,18.5
		c-8.6,12.7-9.9,29-7.1,43.8c2.3,12.8,9.7,25,21.3,31.2c14.5,7.7,32.5,6.9,47.3,0.5c1-0.7,3-0.9,2.9-2.6c0.1-10.3-0.1-20.5,0.1-30.8
		c-11.3-0.4-22.6-0.1-33.9-0.2c-0.1-5.7-0.1-11.4,0-17.1c18.4,0,36.8,0,55.2,0c0.1,20.3,0,40.7,0,61c-12.8,8.9-28.2,13.6-43.7,14.4
		c-16.4,1-33.5-2.5-47.1-12.2c-13.1-9.2-21.8-23.8-25.1-39.4c-3.6-16.9-2.7-35.1,4.8-50.9C1079.2,87.4,1091.9,75.8,1106.9,70.2z"/>
	<path d="M338.9,67.6c38.8,0,77.5,0,116.2,0c0,6.8,0,13.7,0,20.5c-15.5,0-31,0-46.5,0c-0.1,38.1,0.1,76.1-0.1,114.2
		c-7.7,0-15.4-0.2-23.2,0.1c0.3-38-0.1-76.1,0.2-114.1c-15.6-0.3-31.2,0-46.7-0.2C338.9,81.2,338.9,74.4,338.9,67.6z"/>
	<path d="M477.1,67.5c8.1,0.1,16.2,0.1,24.2,0c10.5,33.9,20.6,67.9,31,101.8c0.7-1,1.3-2,1.5-3.2c9-31.7,18.2-63.4,27.2-95.1
		c0.5-1.1,0.3-2.9,1.7-3.4c7,0,14-0.1,21,0.1c9.4,34.1,19.4,68.1,28.9,102.2c4-10.7,6.8-21.9,10.4-32.9c7-23.1,14.2-46.2,21.1-69.4
		c8.1-0.1,16.2-0.1,24.3,0c-14,44.9-28.4,89.7-42.4,134.5c-8.3,0.2-16.6,0.1-25,0.1c-9.1-32.1-18.4-64.1-27.5-96.2
		c-0.3-0.8-0.7-1.5-1.1-2.2c-9.5,32.7-18.7,65.5-28.2,98.2c-8.2,0.6-16.6,0.1-24.9,0.2C505.3,157.2,491,112.4,477.1,67.5z"/>
	<path d="M1012.5,67.6c7.7,0,15.3,0,22.9,0c0.1,44.9,0.1,89.8,0,134.7c-7.7,0-15.3-0.2-23,0.1
		C1012.6,157.4,1012.6,112.5,1012.5,67.6z"/>
	<path d="M1216.5,202.3c-0.1-44.9-0.1-89.8,0-134.7c7.8,0.2,15.6-0.1,23.5,0.2c14.5,21.1,29.5,42,44.1,63.1
		c15.1-21,29.6-42.4,44.7-63.3c7.6,0.2,15.2,0.1,22.7,0c0.2,44.9,0.1,89.8,0.1,134.8c-7.4-0.1-14.8-0.1-22.1,0
		c-0.2-33.2,0.2-66.4-0.2-99.6c-4.7,5.2-8.3,11.4-12.6,17c-10.8,15-21.5,30-32.2,45.1c-0.2,0-0.7,0-0.9,0
		c-12.8-17.9-25.6-35.8-38.4-53.7c-2.2-2.8-3.8-6-6.5-8.4c-0.4,33.2,0,66.4-0.2,99.6C1231.2,202.2,1223.8,202.1,1216.5,202.3z"/>
	<path d="M1418.9,79c1.5-3.9,2.6-7.9,4.6-11.6c8.9,0.3,17.9,0.1,26.8,0.1c16.7,44.8,33.2,89.7,49.8,134.6c-8.3,0-16.6,0.2-24.9-0.1
		c-3.2-9.7-6.7-19.2-10.1-28.9c-18.9,0-37.9,0-56.8,0c-3.3,9.7-6.6,19.4-10,29c-8.3-0.1-16.6,0-24.9,0
		C1388.4,161.1,1403.8,120.1,1418.9,79 M1435.5,94.3c-6.9,20.1-13.9,40-20.8,60.1c14.6,0.1,29.1,0,43.7,0
		c-7.1-20.9-14.4-41.8-21.7-62.6C1436.3,92.6,1435.8,93.4,1435.5,94.3z"/>
</g>
</svg>
