<svg baseProfile="tiny" xmlns="http://www.w3.org/2000/svg" width="801.5" height="284.6" viewBox="0 0 801.5 284.6"><path fill="#231F20" d="M24.7 263.3c-2.7-8.4-1-17.5 3-25.4 3.6-6.4-1.7-13.3 0-20 2.4-13.6 13.9-22.9 25.4-29.3-2-11.6 4.7-22.7 2.4-34.2-.2-5.6 2.7-11.1.8-16.8-3.6-14.5 7.3-26.3 13-38.4 7.8-18.2 17.5-35.7 30-51 4.9-9.6 8.3-21.2 17.8-27.6 6.4-5.1 14.9-1 21.7.8 15.4 5.4 31.9 6.7 47.4 11.3 9.7-1.2 19-7.9 29.1-4.9 6.1 1.5 8.3 8.2 7.8 14 .8 8.2-4.4 15.2-6.8 22.6 5.6 1.7 11.2 3.7 17.1 3.5 5.4-1.3 9.8-5.1 15.6-5.4 5.8 0 11.2 2.7 16.8 3.7 3.9-.2 7.5-1.9 11.2-2.9 8.8-3.2 18.1.2 27.1 1.3 8 1.9 8.8 11.1 9.5 17.7.3 8.4 5.6 15.5 6.8 23.6-.7 6.6-5.1 11.8-7.6 17.7-3.4 6.6-4.9 14.6-10.8 19.7-4.6 3.7-9.8 6.9-15.6 8.4-14.1.3-26.6-8.6-40.8-7.7-5.6 0-10.5 2.9-15.2 5.7-6.9 4.2-14.1 7.9-21.2 11.8 8.3 9.1 16.4 20.2 29.5 22.4 19.1 4.2 38.6 8.8 55.6 19 7.6 4.9 15.4 10.6 20 18.7 2.9 4.9 5.4 10.1 9.5 14.1 5.1 5.7 17.3 21 21 27.6"/><path fill="#017D43" d="M117.8 36.4c6.4-7.6 18-7.5 25.9-2.4-8.1-2.5-16.8-2-24.4 1.9 12.5.8 25.1 2.9 37.4 4.9 6.4 1.2 13.9 2 18.1 7.6 1.9 5.4-4.2 9-6.9 12.9 3.4-.5 6.9-.8 10.3-1.2-3.2 1.2-6.8 3.2-10.3 1.9-8.6-2.9-15.6-9.3-24.1-13-6.1-2.7-13.4-4.2-19.7-1-2.9 3.2-.8 7.6-.2 11.4 7.5-2.4 9 7.8 14.9 9.7 4.7 1.5 9.8 2.9 14.9 2.7 5.1-2.2 9.7-5.9 15.4-5.9 12-2.5 24.1.8 35.9 2.7-4.6 3-9 6.8-14.2 8.6-5.9 0-11.5-2.5-17.3-3.6 15.1 11 34.9 11.7 52.7 11v-1c-3.4-.5-6.9-.8-10.3-1.4 5.4-5.6 12.9-8.1 20.3-9.5 1 4.1 1.9 8.1 2.9 12 .8-4.2 1.7-8.3 2.4-12.5 0 3.4 0 6.6-.2 10 3.2-2.9 6.1-7.5 10.8-7.3 8 0 15.4 3.6 22.9 6.1 3.4-2.2 6.8-7.8 11.5-5.4 8.8 4.6 15.1 16.3 11.2 25.8-6.1 10-19 10.7-29.1 13.9 12.2 0 24.9-1.4 35.7-7.3 2.7-1.5 5.9-4.2 5.1-7.8-1.7-9.1-6.6-17.6-12.5-24.6-3.7-4.7-10.5-7.6-16.4-5.3-2.5 1.9-4.6 4.2-6.8 6.6-1.2-.7-2.2-1.4-3.4-2 3.4-7.6 13.2-7.6 20.3-6.3 10.3 3.9 14.7 15.2 19.3 24.4 1.9 4.7 5.6 11.5.2 15.4-10.8 7.3-24.6 9.3-37.4 9-6.6-.7-14.1-.7-19.7-4.7-1.5-3.7-2-7.6-2.9-11.4-4.9 4.6-9.1 11-15.9 12.9-9.5.8-19.3 1.4-28.8.3-16.3-2.2-30.8-10.8-43.7-20.5-7.3-5.3-13.7-12.5-22.9-14.4-10.5-1.7-22.2 1-30 8.6-4.4 4.2-5.4 10.7-5.6 16.4-.5 10.8.7 21.7 3.7 32-2.2-1.7-4.4-3.2-6.6-4.9 1 4.9 1.2 10.2 3.9 14.4 5.6 3.2 12.4 3.4 18.5 4.7 3.2 8.8 6.4 17.6 7.5 26.9-4.2-9.3-8.1-20.8-19.1-23.7 0 9 4.1 17.1 8.3 24.9-2.4.2-4.9.3-7.3.7-4.9-9-7.8-18.6-11.9-28 .7 9.5 3.6 18.6 3.7 28.1-10.2-2-12.9-13-14.6-21.7-5.1-28.1-2.5-57.8 6.8-84.9 2.4-7.3 6.1-13.9 10.5-20.2 2.2 1.7 4.6 3.6 6.8 5.3-.9-7.3-1.6-16.1 4.4-21.8z"/><path fill="#FFF" d="M119.4 35.9c7.6-3.9 16.3-4.4 24.4-1.9 12.2 3.6 25.1 3.9 37.6 5.4 1.5 7.1.5 14.2-3 20.5-3.4.3-6.9.8-10.3 1.2 2.9-3.7 8.8-7.5 6.9-12.9-4.2-5.4-11.9-6.3-18.1-7.6-12.4-1.9-24.7-3.9-37.5-4.7zm71 8.1c4.6-7.3 14.2-9 22.2-8 5.4.5 4.1 6.9 5.3 10.7-.5-.5-1.4-1.7-1.9-2.2-1.9-1.9-3-5.1-6.1-5.1-6.8-.1-13.2 2.7-19.5 4.6z"/><path fill="#017D43" d="M190.4 44c6.4-1.9 12.7-4.7 19.7-4.6 3 0 4.2 3.2 6.1 5.1-11.4 3.2-18.5 13.2-28.5 18.8-.8-6.6 1-13 2.7-19.3z"/><path fill="#FFF" d="M205.3 52.5c2.2 0 4.4 0 6.8.2 0 4.2-.3 8.3-.8 12.5-3 .2-6.3.3-9.3.5 1-4.4 2.2-8.8 3.3-13.2zM133 55.7c2.9-.7 5.8-1.2 8.8-1.7 0 4.2-.2 8.6-.3 12.9-3.9-2.7-6.6-6.8-8.5-11.2zm11.2 12.4c.8-4.2 2.4-8.3 4.2-12.2 4.4 2.4 8.6 4.7 12.5 7.8-5 2.7-10.8 4.2-16.7 4.4zm48.4-4.3c2.4-2.4 4.7-4.7 7.3-6.9 0 2.7.2 5.3.2 8-2.5-.4-5.1-.7-7.5-1.1z"/><path fill="#060708" d="M95.7 82.1c5.3-8.5 13.9-16.8 24.6-16.1h6.9c-8.8 4.4-18.6 8-24.7 16.1-6.6 7.8-4.4 18.8-4.7 28.1-3.1-8.8-7.7-19.3-2.1-28.1z"/><path fill="#FFF" d="M241.8 72.1c8.5-7.8 20.3-2.5 28.6 2.5 1.2.7 2.2 1.4 3.4 2 2.2-2.4 4.2-4.7 6.8-6.6 5.9-2.4 12.7.5 16.4 5.3 5.9 7.1 10.8 15.4 12.5 24.6.8 3.6-2.4 6.3-5.1 7.8-10.8 6.1-23.5 7.3-35.7 7.3 10.2-3.2 23-3.9 29.1-13.9 3.9-9.7-2.4-21.2-11.2-25.8-4.7-2.4-8 3.2-11.5 5.4-7.5-2.5-14.7-6.1-22.9-6.1-4.7-.2-7.8 4.4-10.8 7.3.2-3.2.2-6.4.4-9.8z"/><path fill="#017D43" d="M193.3 77.7c9.1-6.9 21-10.2 32.2-6.6-3.9 3.6-7.6 7.8-12.5 9.8-6.6 2.1-13.4-.8-19.7-3.2z"/><path fill="#084C28" d="M299.7 68.6c2.4 1.2 4.7 2.4 6.8 3.9 1 2.7 1.4 5.6 1.9 8.5-3.3-3.8-6.1-7.9-8.7-12.4z"/><path fill="#060708" d="M250.1 77.9c4.9.3 9.7 2.2 13 5.9-4.7.3-9.7.5-14.4.7.5-2.2.9-4.4 1.4-6.6z"/><path fill="#14B04D" d="M108.6 88.2c7.8-7.6 19.5-10.5 30-8.6 9.1 2 15.6 9.1 22.9 14.4 12.9 9.7 27.4 18.3 43.7 20.5 9.5 1 19.3.5 28.8-.3-11.2 5.4-23.7 6.9-36.1 6.4-11-.7-19.3-8.8-28-14.7-11-7.6-21.5-16.1-34.1-21.5-3.4 7.1-11.7 9.1-16.6 14.9-3.6 4.1-6.4 9.1-7.3 14.6-.8 5.3 1.4 10.2 3 15.1.5-1.4 1.5-4.1 2.2-5.4 10.7 5.1 21.3 11 33.5 11.4 14.6 1.2 28.5-3.7 42-8.1 2.2 4.7 5.4 8.8 8.8 12.7 1.7-4.2 3.4-8.3 4.7-12.5 3 2.9 6.1 5.9 9 9 1.2-3.7 1.7-8 3.9-11.4 6.3-5.6 15.1-7.8 23.4-7.5 13.4-.2 26.4 5.1 39.8 2.7 7.8-1.4 15.6-3.2 23.5-2.5-.2 9.7-4.2 20.7-14.2 23.9-13.7 4.1-26.1-5.8-39.6-5.9-10.3-.5-19.5 5.1-28.8 8.8-23.5 9.5-49.8 15.1-75.1 9.3-10.5-2.2-19.7-8.6-30.5-10.2-4.1-1.2-10-1-11.4-6.1-3-10.3-4.2-21.2-3.7-32 .8-6.3 1.8-12.8 6.2-17z"/><path fill="#FFF" d="M124.2 104.3c5.4-3.9 9.5-10.3 16.3-11.9 4.7-.8 7.8 3.2 9.8 6.8-8.3 3.6-16.4 7.8-23.2 14.1-.3-3.4-.7-6.6-1.2-10-1.5 5.3-1.7 10.8-2.7 16.3-1.9 2.2-4.9.5-7.3.5 1.2-6 3.2-12.1 8.3-15.8zm15.7 14.2c2.2-7.1 4.9-17.6 14.1-18.1 4.2-.3 4.9 4.4 6.3 7.3-7.6 2.2-14.4 5.9-20.4 10.8zm101.4-3.7c2.5-2.9 5.1-5.9 7.8-8.8.2 3 .2 5.9.3 9-2.9-.2-5.6-.2-8.1-.2z"/><path fill="#FFF" d="M124.7 120.2c2.9-6.6 9.7-10.2 15.9-13-1.4 6.6-2.5 13.2-3.6 20-4.7-.7-12.8-.2-12.3-7zm36.6-11.8c4.7-2 8.1 2 10.3 5.6-5.8 2.4-11.5 5.3-17.1 8.1 1.4-4.9 2.2-10.7 6.8-13.7z"/><path fill="#017D43" d="M65.6 131.4c-.3-6.4 1.4-12.9 4.7-18.5.3 6.3.5 12.5.7 18.8-1.5.1-4.1-.1-5.4-.3z"/><path fill="#FFF" d="M138.3 130.2c.7-8.8 8-14.2 15.4-17.6-.8 5.9-1.5 11.9-2.2 17.8-4.4.2-8.8.2-13.2-.2zm34-15.9c5.3.7 10.2 3 13.9 6.8-4.9 2.2-9.8 4.6-14.7 6.9-.4-4.7-.2-9.3.8-13.7zM153 130.1c2.5-7.3 10-10.7 16.6-13.7.2 4.7.3 9.5.5 14.2-5.6.8-12.7 3.7-17.1-.5zm56.7-6c2.2-.5 4.4-1 6.8-1.5-.8 3.2-1.7 6.4-2.5 9.5-1.4-2.5-2.9-5.3-4.3-8zm-13.5 1.6c2.4-.3 4.9-.7 7.3-1-1 3.2-2 6.4-3 9.7-1.4-3-2.9-6-4.3-8.7z"/><path fill="#017D43" d="M64 149c1.9-5.3 4.1-10.3 7.1-15.1 1.2 4.9 2.2 10 3 15.1H64zm2.2 14.8c2.2-4.7 4.6-9.3 7.5-13.7 1.9 12 2 24.1 2.2 36.1-3.2 1.2-6.3 2.2-9.5 3.4.7-2 1.4-4.2 2-6.3-1.5-1.4-3.2-2.9-4.7-4.2 2.2-3.4 4.6-6.6 6.8-10-1.4-1.8-2.9-3.6-4.3-5.3z"/><path fill="#FFF" d="M110.8 154.3c11 2.9 15.1 14.4 19.1 23.7.7 1.7 1.4 3.4 1.9 5.1-4.1-.8-8.1-1.7-12.2-2.5l-.7-1.4c-4-7.8-8.1-15.9-8.1-24.9z"/><path fill="#14B04D" d="M155.5 161.9c15.4 1.7 30.8-.7 45.9-3.4 1.2 1.9 2.2 3.6 3.4 5.4-10.8.3-22 0-32.5 2.9 11.4.5 23-1 34.1 2.4 5.3 1.5 9 5.4 12.7 9.1-13.9-.3-28.5-2.4-41.7 3.4 18 .2 37.1-1.9 53.4 7.5-5.6 2-11.4 3.6-17.3 3.6-24.4.7-48.8-2.9-72.7-7.5-1.5-6.6-4.2-13.9-.8-20.3 3.5-4.8 10.3-3.1 15.5-3.1z"/><path fill="#FFF" d="M295.8 213.6c7.5 5.6 12.9 13.4 16.6 21.9-4.2-.3-8.6-.8-12.9-1.2 11.2 3 31.1 21.2 38.9 30.5-3.5 0-12.6.1-18.7.1h-18c-2.7 0-11.7-25.2-13.4-26.9-4.7-5.6-7.5-12.5-12.5-18-4.2-4.7-9.7-8.3-14.9-12 8.6 8.1 30.6 56.8 30.6 56.8s-78.7.1-119.9.1c-8.8.2-26.3-9.5-32.7-14.5 2.4-5.8 5.1-11.7 5.1-18.1.3-6.4-2-12.4-2.9-18.6 0-4.6 1.4-8.8 2-13.2-2.5 3-5.1 6.3-7.6 9.3-2.5-2-5.1-4.2-7.6-6.3 3.6 7.5 7.3 15.2 7.3 23.7.3 7.1-1.9 13.7-4.2 20.3-12.5-7.8-27.4-12.2-42.4-9.3 8.6 1.5 17.6 1.2 25.8 4.6 5.1 2 33.4 18.8 37.8 22.2-13-.6-94.6 1.4-108-1.5-6.4-5.1-5.3-14.1-5.4-21.3 11.7 8.3 24.7 15.2 38.6 19-8-8.1-17.1-16.3-20-27.8-2.5-10.2.8-21.3 8.1-28.6 12.2-12.9 30.2-18.8 47.6-20.2 13.6-1.2 26.1 4.6 39.1 6.8 24.1 4.6 48.8 10 73.5 7.3 6.8-.2 11.2-8.3 18.1-6.1"/><path fill="#223E62" d="M152.3 204.6c6.6.2 13.4.2 20-.2-1.7 2-5.4 3.6-4.2 6.8 1.4 7.8 2.9 15.6 5.8 22.9 2.2 6.1 10.7 8.3 15.8 4.4 2.5-1.9 1.4-5.1 1.2-7.8-1.4-7.6-3.7-15.2-5.8-22.7-1.9-1.2-3.9-2.2-5.8-3.4 6.6-.2 13.2-.2 19.8-.3-4.7 4.9-2.4 11.4-1 17.1H212c-.8-6.6-2.2-13.7-8.8-17.1 5.3.2 10.7.2 15.9.2-.8 9.1-2 18.3-3.4 27.4-1.2-2.7-2.4-5.3-3.6-8-4.2-.2-8.6-.2-12.9-.3.5 6.9 1.4 14.9 8.6 18.3-8.1-.3-16.1 0-24.2.7-6.4.7-13.9-.7-18.1-5.9-6.4-9.6-2.7-24.5-13.2-32.1z"/><path fill="#C70E3B" d="M221.6 204.6c9.5-.2 19.7-.7 28 4.4 8.5 4.9 13.7 15.9 10.3 25.4-1.9 5.3-7.6 7.5-12.7 8-10.2 1-20.3.3-30.5 0 1.5-12.7 3-25.3 4.9-37.8z"/><path fill="#FFF" d="M234.5 216.3c3.7 1 8.1.8 10.8 3.9 2.4 2.7.7 6.4.5 9.7-4.4.2-9 .2-13.4.3.6-4.8 1.4-9.2 2.1-13.9z"/><path fill="#017D43" d="M272.1 264.1"/><path fill="#D11140" d="M629.4 17.2h47.8c23.3.9 47.6 4.9 67.3 18.1 9.6 6 17.5 14.6 23 24.5 6.6 11.1 9.3 24 11.2 36.7v23.7c-2.2 13.7-6.3 27.5-14.2 39.1-8.7 12.5-21.2 22.5-35.5 27.9-13.4 5.5-27.9 7.5-42.3 7.3-39.6-.1-79.1 0-118.7-.1 20.5-59.1 40.9-118.2 61.4-177.2m44 56.4c-3.9 8.7-6.8 17.8-10.2 26.7-4.2 11.9-9.1 23.6-13 35.7 13.8.6 27.6.6 41.3.2 15.4.1 28.2-14 29.9-28.7.7-12.3-6.3-24.7-17.3-30.4-9.3-5.4-20.6-3-30.7-3.5z"/><path fill="#015596" d="M323.9 17.9h87.2c0 1.8 0 3.5-.1 5.3-6.6 1.2-14.1.7-19.7 5-6.1 5.6-5.3 14.4-5.5 21.8.1 27.9.1 55.8 0 83.7 0 10.3.3 21 4.1 30.7 3.1 7.2 8.2 14 15.4 17.4 9.2 4.6 20.1 4.8 30 2.8 9-1.4 17.3-6.1 23.3-13 4.6-5.8 8.9-12.8 8.7-20.5.3-24.4-.1-48.8.1-73.3-.1-12.7.5-25.4-.4-38.1-.2-5.3-3.1-10.5-7.8-13-4.7-2-9.8-2.6-14.7-3.5l.3-5.4h86.8c0 1.8-.1 3.7-.1 5.5-6.3 1.1-13.2 1.2-18.3 5.4-2.9 3-4.8 7.1-4.5 11.4-.5 18.8-.2 37.6 0 56.3 20.9.2 41.9.5 62.9-.3.6-17.4.7-34.8.1-52.1-.6-4.8-.1-10.6-4-14.3-4.9-5.4-12.6-5.6-19.3-6.6 0-1.8-.1-3.6-.1-5.4 23.7 0 47.5-.1 71.2 0-16.1 45.6-31.9 91.2-48 136.8.6-14.3 1-28.7.3-43-.1-1.5-.6-3.9-2.6-3.7-20.2-.3-40.4-.1-60.6.1-.2 18.5-.2 37.1-.2 55.6.3 5.7-.7 12.7 3.8 17.1 5.2 4.7 12.5 5.5 19.2 6.3v5.6c-25.6-.9-51.2-.4-76.7-.4-9.9-.3-19.3 3.1-28.9 4.8h-24.4c-10.4-2-21.1-4.2-30.3-9.9-9.5-5.7-18.4-13.8-22.1-24.6-3.8-9.9-3.5-20.8-3.8-31.2 0-26.7 0-53.5.1-80.2 0-7.5.2-15.8-4.5-22.1-4.4-4.9-11.4-4.3-17.2-6v-5z"/><text transform="translate(400.744 264.281)" font-family="'CenturyGothic'" font-size="72">HACKERS</text></svg>