<?xml version="1.0" encoding="utf-8"?>
<!-- Generator: Adobe Illustrator 18.0.0, SVG Export Plug-In . SVG Version: 6.00 Build 0)  -->
<!DOCTYPE svg PUBLIC "-//W3C//DTD SVG 1.1 Tiny//EN" "http://www.w3.org/Graphics/SVG/1.1/DTD/svg11-tiny.dtd">
<svg version="1.1" baseProfile="tiny" xmlns="http://www.w3.org/2000/svg" xmlns:xlink="http://www.w3.org/1999/xlink" x="0px"
	 y="0px" width="801.5px" height="284.6px" viewBox="0 0 801.5 284.6" xml:space="preserve">
<g id="Gator">
	<path fill="#231F20" d="M24.7,263.3c-2.7-8.4-1-17.5,3-25.4c3.6-6.4-1.7-13.3,0-20c2.4-13.6,13.9-22.9,25.4-29.3
		c-2-11.6,4.7-22.7,2.4-34.2c-0.2-5.6,2.7-11.1,0.8-16.8c-3.6-14.5,7.3-26.3,13-38.4c7.8-18.2,17.5-35.7,30-51
		c4.9-9.6,8.3-21.2,17.8-27.6c6.4-5.1,14.9-1,21.7,0.8c15.4,5.4,31.9,6.7,47.4,11.3c9.7-1.2,19-7.9,29.1-4.9c6.1,1.5,8.3,8.2,7.8,14
		c0.8,8.2-4.4,15.2-6.8,22.6c5.6,1.7,11.2,3.7,17.1,3.5c5.4-1.3,9.8-5.1,15.6-5.4c5.8,0,11.2,2.7,16.8,3.7c3.9-0.2,7.5-1.9,11.2-2.9
		c8.8-3.2,18.1,0.2,27.1,1.3c8,1.9,8.8,11.1,9.5,17.7c0.3,8.4,5.6,15.5,6.8,23.6c-0.7,6.6-5.1,11.8-7.6,17.7
		c-3.4,6.6-4.9,14.6-10.8,19.7c-4.6,3.7-9.8,6.9-15.6,8.4c-14.1,0.3-26.6-8.6-40.8-7.7c-5.6,0-10.5,2.9-15.2,5.7
		c-6.9,4.2-14.1,7.9-21.2,11.8c8.3,9.1,16.4,20.2,29.5,22.4c19.1,4.2,38.6,8.8,55.6,19c7.6,4.9,15.4,10.6,20,18.7
		c2.9,4.9,5.4,10.1,9.5,14.1c5.1,5.7,17.3,21,21,27.6"/>
	<path fill="#017D43" d="M117.8,36.4c6.4-7.6,18-7.5,25.9-2.4c-8.1-2.5-16.8-2-24.4,1.9c12.5,0.8,25.1,2.9,37.4,4.9
		c6.4,1.2,13.9,2,18.1,7.6c1.9,5.4-4.2,9-6.9,12.9c3.4-0.5,6.9-0.8,10.3-1.2c-3.2,1.2-6.8,3.2-10.3,1.9c-8.6-2.9-15.6-9.3-24.1-13
		c-6.1-2.7-13.4-4.2-19.7-1c-2.9,3.2-0.8,7.6-0.2,11.4c7.5-2.4,9,7.8,14.9,9.7c4.7,1.5,9.8,2.9,14.9,2.7c5.1-2.2,9.7-5.9,15.4-5.9
		c12-2.5,24.1,0.8,35.9,2.7c-4.6,3-9,6.8-14.2,8.6c-5.9,0-11.5-2.5-17.3-3.6c15.1,11,34.9,11.7,52.7,11v-1
		c-3.4-0.5-6.9-0.8-10.3-1.4c5.4-5.6,12.9-8.1,20.3-9.5c1,4.1,1.9,8.1,2.9,12c0.8-4.2,1.7-8.3,2.4-12.5c0,3.4,0,6.6-0.2,10
		c3.2-2.9,6.1-7.5,10.8-7.3c8,0,15.4,3.6,22.9,6.1c3.4-2.2,6.8-7.8,11.5-5.4c8.8,4.6,15.1,16.3,11.2,25.8c-6.1,10-19,10.7-29.1,13.9
		c12.2,0,24.9-1.4,35.7-7.3c2.7-1.5,5.9-4.2,5.1-7.8c-1.7-9.1-6.6-17.6-12.5-24.6c-3.7-4.7-10.5-7.6-16.4-5.3
		c-2.5,1.9-4.6,4.2-6.8,6.6c-1.2-0.7-2.2-1.4-3.4-2c3.4-7.6,13.2-7.6,20.3-6.3c10.3,3.9,14.7,15.2,19.3,24.4
		c1.9,4.7,5.6,11.5,0.2,15.4c-10.8,7.3-24.6,9.3-37.4,9c-6.6-0.7-14.1-0.7-19.7-4.7c-1.5-3.7-2-7.6-2.9-11.4
		c-4.9,4.6-9.1,11-15.9,12.9c-9.5,0.8-19.3,1.4-28.8,0.3c-16.3-2.2-30.8-10.8-43.7-20.5c-7.3-5.3-13.7-12.5-22.9-14.4
		c-10.5-1.7-22.2,1-30,8.6c-4.4,4.2-5.4,10.7-5.6,16.4c-0.5,10.8,0.7,21.7,3.7,32c-2.2-1.7-4.4-3.2-6.6-4.9c1,4.9,1.2,10.2,3.9,14.4
		c5.6,3.2,12.4,3.4,18.5,4.7c3.2,8.8,6.4,17.6,7.5,26.9c-4.2-9.3-8.1-20.8-19.1-23.7c0,9,4.1,17.1,8.3,24.9
		c-2.4,0.2-4.9,0.3-7.3,0.7c-4.9-9-7.8-18.6-11.9-28c0.7,9.5,3.6,18.6,3.7,28.1c-10.2-2-12.9-13-14.6-21.7
		c-5.1-28.1-2.5-57.8,6.8-84.9c2.4-7.3,6.1-13.9,10.5-20.2c2.2,1.7,4.6,3.6,6.8,5.3C112.5,50.9,111.8,42.1,117.8,36.4z"/>
	<path fill="#FFFFFF" d="M119.4,35.9c7.6-3.9,16.3-4.4,24.4-1.9c12.2,3.6,25.1,3.9,37.6,5.4c1.5,7.1,0.5,14.2-3,20.5
		c-3.4,0.3-6.9,0.8-10.3,1.2c2.9-3.7,8.8-7.5,6.9-12.9c-4.2-5.4-11.9-6.3-18.1-7.6C144.5,38.7,132.2,36.7,119.4,35.9z"/>
	<path fill="#FFFFFF" d="M190.4,44c4.6-7.3,14.2-9,22.2-8c5.4,0.5,4.1,6.9,5.3,10.7c-0.5-0.5-1.4-1.7-1.9-2.2
		c-1.9-1.9-3-5.1-6.1-5.1C203.1,39.3,196.7,42.1,190.4,44z"/>
	<path fill="#017D43" d="M190.4,44c6.4-1.9,12.7-4.7,19.7-4.6c3,0,4.2,3.2,6.1,5.1c-11.4,3.2-18.5,13.2-28.5,18.8
		C186.9,56.7,188.7,50.3,190.4,44z"/>
	<path fill="#FFFFFF" d="M205.3,52.5c2.2,0,4.4,0,6.8,0.2c0,4.2-0.3,8.3-0.8,12.5c-3,0.2-6.3,0.3-9.3,0.5
		C203,61.3,204.2,56.9,205.3,52.5z"/>
	<path fill="#FFFFFF" d="M133,55.7c2.9-0.7,5.8-1.2,8.8-1.7c0,4.2-0.2,8.6-0.3,12.9C137.6,64.2,134.9,60.1,133,55.7z"/>
	<path fill="#FFFFFF" d="M144.2,68.1c0.8-4.2,2.4-8.3,4.2-12.2c4.4,2.4,8.6,4.7,12.5,7.8C155.9,66.4,150.1,67.9,144.2,68.1z"/>
	<path fill="#FFFFFF" d="M192.6,63.8c2.4-2.4,4.7-4.7,7.3-6.9c0,2.7,0.2,5.3,0.2,8C197.6,64.5,195,64.2,192.6,63.8z"/>
	<path fill="#060708" d="M95.7,82.1c5.3-8.5,13.9-16.8,24.6-16.1c2.4,0,4.6,0,6.9,0c-8.8,4.4-18.6,8-24.7,16.1
		c-6.6,7.8-4.4,18.8-4.7,28.1C94.7,101.4,90.1,90.9,95.7,82.1z"/>
	<path fill="#FFFFFF" d="M241.8,72.1c8.5-7.8,20.3-2.5,28.6,2.5c1.2,0.7,2.2,1.4,3.4,2c2.2-2.4,4.2-4.7,6.8-6.6
		c5.9-2.4,12.7,0.5,16.4,5.3c5.9,7.1,10.8,15.4,12.5,24.6c0.8,3.6-2.4,6.3-5.1,7.8c-10.8,6.1-23.5,7.3-35.7,7.3
		c10.2-3.2,23-3.9,29.1-13.9c3.9-9.7-2.4-21.2-11.2-25.8c-4.7-2.4-8,3.2-11.5,5.4c-7.5-2.5-14.7-6.1-22.9-6.1
		c-4.7-0.2-7.8,4.4-10.8,7.3C241.6,78.7,241.6,75.5,241.8,72.1z"/>
	<path fill="#017D43" d="M193.3,77.7c9.1-6.9,21-10.2,32.2-6.6c-3.9,3.6-7.6,7.8-12.5,9.8C206.4,83,199.6,80.1,193.3,77.7z"/>
	<path fill="#084C28" d="M299.7,68.6c2.4,1.2,4.7,2.4,6.8,3.9c1,2.7,1.4,5.6,1.9,8.5C305.1,77.2,302.3,73.1,299.7,68.6z"/>
	<path fill="#060708" d="M250.1,77.9c4.9,0.3,9.7,2.2,13,5.9c-4.7,0.3-9.7,0.5-14.4,0.7C249.2,82.3,249.6,80.1,250.1,77.9z"/>
	<path fill="#14B04D" d="M108.6,88.2c7.8-7.6,19.5-10.5,30-8.6c9.1,2,15.6,9.1,22.9,14.4c12.9,9.7,27.4,18.3,43.7,20.5
		c9.5,1,19.3,0.5,28.8-0.3c-11.2,5.4-23.7,6.9-36.1,6.4c-11-0.7-19.3-8.8-28-14.7c-11-7.6-21.5-16.1-34.1-21.5
		c-3.4,7.1-11.7,9.1-16.6,14.9c-3.6,4.1-6.4,9.1-7.3,14.6c-0.8,5.3,1.4,10.2,3,15.1c0.5-1.4,1.5-4.1,2.2-5.4
		c10.7,5.1,21.3,11,33.5,11.4c14.6,1.2,28.5-3.7,42-8.1c2.2,4.7,5.4,8.8,8.8,12.7c1.7-4.2,3.4-8.3,4.7-12.5c3,2.9,6.1,5.9,9,9
		c1.2-3.7,1.7-8,3.9-11.4c6.3-5.6,15.1-7.8,23.4-7.5c13.4-0.2,26.4,5.1,39.8,2.7c7.8-1.4,15.6-3.2,23.5-2.5
		c-0.2,9.7-4.2,20.7-14.2,23.9c-13.7,4.1-26.1-5.8-39.6-5.9c-10.3-0.5-19.5,5.1-28.8,8.8c-23.5,9.5-49.8,15.1-75.1,9.3
		c-10.5-2.2-19.7-8.6-30.5-10.2c-4.1-1.2-10-1-11.4-6.1c-3-10.3-4.2-21.2-3.7-32C103.2,98.9,104.2,92.4,108.6,88.2z"/>
	<path fill="#FFFFFF" d="M124.2,104.3c5.4-3.9,9.5-10.3,16.3-11.9c4.7-0.8,7.8,3.2,9.8,6.8c-8.3,3.6-16.4,7.8-23.2,14.1
		c-0.3-3.4-0.7-6.6-1.2-10c-1.5,5.3-1.7,10.8-2.7,16.3c-1.9,2.2-4.9,0.5-7.3,0.5C117.1,114.1,119.1,108,124.2,104.3z"/>
	<path fill="#FFFFFF" d="M139.9,118.5c2.2-7.1,4.9-17.6,14.1-18.1c4.2-0.3,4.9,4.4,6.3,7.3C152.7,109.9,145.9,113.6,139.9,118.5z"/>
	<path fill="#FFFFFF" d="M241.3,114.8c2.5-2.9,5.1-5.9,7.8-8.8c0.2,3,0.2,5.9,0.3,9C246.5,114.8,243.8,114.8,241.3,114.8z"/>
	<path fill="#FFFFFF" d="M124.7,120.2c2.9-6.6,9.7-10.2,15.9-13c-1.4,6.6-2.5,13.2-3.6,20C132.3,126.5,124.2,127,124.7,120.2z"/>
	<path fill="#FFFFFF" d="M161.3,108.4c4.7-2,8.1,2,10.3,5.6c-5.8,2.4-11.5,5.3-17.1,8.1C155.9,117.2,156.7,111.4,161.3,108.4z"/>
	<path fill="#017D43" d="M65.6,131.4c-0.3-6.4,1.4-12.9,4.7-18.5c0.3,6.3,0.5,12.5,0.7,18.8C69.5,131.8,66.9,131.6,65.6,131.4z"/>
	<path fill="#FFFFFF" d="M138.3,130.2c0.7-8.8,8-14.2,15.4-17.6c-0.8,5.9-1.5,11.9-2.2,17.8C147.1,130.6,142.7,130.6,138.3,130.2z"
		/>
	<path fill="#FFFFFF" d="M172.3,114.3c5.3,0.7,10.2,3,13.9,6.8c-4.9,2.2-9.8,4.6-14.7,6.9C171.1,123.3,171.3,118.7,172.3,114.3z"/>
	<path fill="#FFFFFF" d="M153,130.1c2.5-7.3,10-10.7,16.6-13.7c0.2,4.7,0.3,9.5,0.5,14.2C164.5,131.4,157.4,134.3,153,130.1z"/>
	<path fill="#FFFFFF" d="M209.7,124.1c2.2-0.5,4.4-1,6.8-1.5c-0.8,3.2-1.7,6.4-2.5,9.5C212.6,129.6,211.1,126.8,209.7,124.1z"/>
	<path fill="#FFFFFF" d="M196.2,125.7c2.4-0.3,4.9-0.7,7.3-1c-1,3.2-2,6.4-3,9.7C199.1,131.4,197.6,128.4,196.2,125.7z"/>
	<path fill="#017D43" d="M64,149c1.9-5.3,4.1-10.3,7.1-15.1c1.2,4.9,2.2,10,3,15.1C70.8,149,67.4,149,64,149z"/>
	<path fill="#017D43" d="M66.2,163.8c2.2-4.7,4.6-9.3,7.5-13.7c1.9,12,2,24.1,2.2,36.1c-3.2,1.2-6.3,2.2-9.5,3.4
		c0.7-2,1.4-4.2,2-6.3c-1.5-1.4-3.2-2.9-4.7-4.2c2.2-3.4,4.6-6.6,6.8-10C69.1,167.3,67.6,165.5,66.2,163.8z"/>
	<path fill="#FFFFFF" d="M110.8,154.3c11,2.9,15.1,14.4,19.1,23.7c0.7,1.7,1.4,3.4,1.9,5.1c-4.1-0.8-8.1-1.7-12.2-2.5l-0.7-1.4
		C114.9,171.4,110.8,163.3,110.8,154.3z"/>
	<path fill="#14B04D" d="M155.5,161.9c15.4,1.7,30.8-0.7,45.9-3.4c1.2,1.9,2.2,3.6,3.4,5.4c-10.8,0.3-22,0-32.5,2.9
		c11.4,0.5,23-1,34.1,2.4c5.3,1.5,9,5.4,12.7,9.1c-13.9-0.3-28.5-2.4-41.7,3.4c18,0.2,37.1-1.9,53.4,7.5c-5.6,2-11.4,3.6-17.3,3.6
		c-24.4,0.7-48.8-2.9-72.7-7.5c-1.5-6.6-4.2-13.9-0.8-20.3C143.5,160.2,150.3,161.9,155.5,161.9z"/>
	<path fill="#FFFFFF" d="M295.8,213.6c7.5,5.6,12.9,13.4,16.6,21.9c-4.2-0.3-8.6-0.8-12.9-1.2c11.2,3,31.1,21.2,38.9,30.5
		c-3.5,0-12.6,0.1-18.7,0.1c-6.3,0-10.1,0-18,0c-2.7,0-11.7-25.2-13.4-26.9c-4.7-5.6-7.5-12.5-12.5-18c-4.2-4.7-9.7-8.3-14.9-12
		c8.6,8.1,30.6,56.8,30.6,56.8s-78.7,0.1-119.9,0.1c-8.8,0.2-26.3-9.5-32.7-14.5c2.4-5.8,5.1-11.7,5.1-18.1c0.3-6.4-2-12.4-2.9-18.6
		c0-4.6,1.4-8.8,2-13.2c-2.5,3-5.1,6.3-7.6,9.3c-2.5-2-5.1-4.2-7.6-6.3c3.6,7.5,7.3,15.2,7.3,23.7c0.3,7.1-1.9,13.7-4.2,20.3
		c-12.5-7.8-27.4-12.2-42.4-9.3c8.6,1.5,17.6,1.2,25.8,4.6c5.1,2,33.4,18.8,37.8,22.2c-13-0.6-94.6,1.4-108-1.5
		c-6.4-5.1-5.3-14.1-5.4-21.3c11.7,8.3,24.7,15.2,38.6,19c-8-8.1-17.1-16.3-20-27.8c-2.5-10.2,0.8-21.3,8.1-28.6
		c12.2-12.9,30.2-18.8,47.6-20.2c13.6-1.2,26.1,4.6,39.1,6.8c24.1,4.6,48.8,10,73.5,7.3c6.8-0.2,11.2-8.3,18.1-6.1"/>
	<path fill="#223E62" d="M152.3,204.6c6.6,0.2,13.4,0.2,20-0.2c-1.7,2-5.4,3.6-4.2,6.8c1.4,7.8,2.9,15.6,5.8,22.9
		c2.2,6.1,10.7,8.3,15.8,4.4c2.5-1.9,1.4-5.1,1.2-7.8c-1.4-7.6-3.7-15.2-5.8-22.7c-1.9-1.2-3.9-2.2-5.8-3.4
		c6.6-0.2,13.2-0.2,19.8-0.3c-4.7,4.9-2.4,11.4-1,17.1c4.7,0,9.3,0,13.9,0c-0.8-6.6-2.2-13.7-8.8-17.1c5.3,0.2,10.7,0.2,15.9,0.2
		c-0.8,9.1-2,18.3-3.4,27.4c-1.2-2.7-2.4-5.3-3.6-8c-4.2-0.2-8.6-0.2-12.9-0.3c0.5,6.9,1.4,14.9,8.6,18.3c-8.1-0.3-16.1,0-24.2,0.7
		c-6.4,0.7-13.9-0.7-18.1-5.9C159.1,227.1,162.8,212.2,152.3,204.6z"/>
	<path fill="#C70E3B" d="M221.6,204.6c9.5-0.2,19.7-0.7,28,4.4c8.5,4.9,13.7,15.9,10.3,25.4c-1.9,5.3-7.6,7.5-12.7,8
		c-10.2,1-20.3,0.3-30.5,0C218.2,229.7,219.7,217.1,221.6,204.6z"/>
	<path fill="#FFFFFF" d="M234.5,216.3c3.7,1,8.1,0.8,10.8,3.9c2.4,2.7,0.7,6.4,0.5,9.7c-4.4,0.2-9,0.2-13.4,0.3
		C233,225.4,233.8,221,234.5,216.3z"/>
	<path fill="#017D43" d="M272.1,264.1"/>
</g>
<g id="Layer_1">
	<g id="_x23_d11140ff">
		<path fill="#D11140" d="M629.4,17.2h47.8c23.3,0.9,47.6,4.9,67.3,18.1c9.6,6,17.5,14.6,23,24.5c6.6,11.1,9.3,24,11.2,36.7v23.7
			c-2.2,13.7-6.3,27.5-14.2,39.1c-8.7,12.5-21.2,22.5-35.5,27.9c-13.4,5.5-27.9,7.5-42.3,7.3c-39.6-0.1-79.1,0-118.7-0.1
			C588.5,135.3,608.9,76.2,629.4,17.2 M673.4,73.6c-3.9,8.7-6.8,17.8-10.2,26.7c-4.2,11.9-9.1,23.6-13,35.7
			c13.8,0.6,27.6,0.6,41.3,0.2c15.4,0.1,28.2-14,29.9-28.7c0.7-12.3-6.3-24.7-17.3-30.4C694.8,71.7,683.5,74.1,673.4,73.6z"/>
	</g>
	<g id="_x23_015596ff">
		<path fill="#015596" d="M323.9,17.9c29.1,0,58.1,0,87.2,0c0,1.8,0,3.5-0.1,5.3c-6.6,1.2-14.1,0.7-19.7,5
			c-6.1,5.6-5.3,14.4-5.5,21.8c0.1,27.9,0.1,55.8,0,83.7c0,10.3,0.3,21,4.1,30.7c3.1,7.2,8.2,14,15.4,17.4c9.2,4.6,20.1,4.8,30,2.8
			c9-1.4,17.3-6.1,23.3-13c4.6-5.8,8.9-12.8,8.7-20.5c0.3-24.4-0.1-48.8,0.1-73.3c-0.1-12.7,0.5-25.4-0.4-38.1
			c-0.2-5.3-3.1-10.5-7.8-13c-4.7-2-9.8-2.6-14.7-3.5c0.1-1.8,0.2-3.6,0.3-5.4c28.9,0,57.8,0,86.8,0c0,1.8-0.1,3.7-0.1,5.5
			c-6.3,1.1-13.2,1.2-18.3,5.4c-2.9,3-4.8,7.1-4.5,11.4c-0.5,18.8-0.2,37.6,0,56.3c20.9,0.2,41.9,0.5,62.9-0.3
			c0.6-17.4,0.7-34.8,0.1-52.1c-0.6-4.8-0.1-10.6-4-14.3c-4.9-5.4-12.6-5.6-19.3-6.6c0-1.8-0.1-3.6-0.1-5.4c23.7,0,47.5-0.1,71.2,0
			c-16.1,45.6-31.9,91.2-48,136.8c0.6-14.3,1-28.7,0.3-43c-0.1-1.5-0.6-3.9-2.6-3.7c-20.2-0.3-40.4-0.1-60.6,0.1
			c-0.2,18.5-0.2,37.1-0.2,55.6c0.3,5.7-0.7,12.7,3.8,17.1c5.2,4.7,12.5,5.5,19.2,6.3c0,1.9,0,3.7,0,5.6
			c-25.6-0.9-51.2-0.4-76.7-0.4c-9.9-0.3-19.3,3.1-28.9,4.8h-24.4c-10.4-2-21.1-4.2-30.3-9.9c-9.5-5.7-18.4-13.8-22.1-24.6
			c-3.8-9.9-3.5-20.8-3.8-31.2c0-26.7,0-53.5,0.1-80.2c0-7.5,0.2-15.8-4.5-22.1c-4.4-4.9-11.4-4.3-17.2-6V17.9z"/>
	</g>
	<text transform="matrix(1 0 0 1 400.7437 264.281)" font-family="'CenturyGothic'" font-size="72">HACKERS</text>
</g>
</svg>
